<svg width="469" height="846" viewBox="0 0 469 846" fill="none" xmlns="http://www.w3.org/2000/svg">
<path d="M317.521 377H151.492V404.59H317.521V377Z" fill="#00AEEF"/>
<text fill="#070707" stroke="#00AEEF" stroke-width="0.3" xml:space="preserve" style="white-space: pre" font-family="Harmattan" font-size="21" font-weight="500" letter-spacing="-0.01em"><tspan x="175" y="138.322">&#x648;&#x64e;&#x645;&#x64e;&#x627; &#x62a;&#x64e;&#x648;&#x652;&#x641;&#x650;&#x64a;&#x642;&#x650;&#x64a; &#x625;&#x650;&#x644;&#x651;&#x64e;&#x627; &#x628;&#x650;&#x627;&#x644;&#x644;&#x651;&#x64e;&#x647;</tspan></text>
<text fill="black" xml:space="preserve" style="white-space: pre" font-family="Arial" font-size="31" font-weight="900" letter-spacing="0em"><tspan x="96.4922" y="62.2607">MOSTAFA</tspan></text>
<text fill="#535353" xml:space="preserve" style="white-space: pre" font-family="Arial" font-size="31" font-weight="900" letter-spacing="0em"><tspan x="96.4922" y="101.261">SAID</tspan></text>
<text fill="black" stroke="#00AEEF" stroke-width="0.5" xml:space="preserve" style="white-space: pre" font-family="Andalus" font-size="30" letter-spacing="0.71em"><tspan x="70.4922" y="290.254">&#x645;&#x635;&#x645;&#x645; &#x62c;&#x631;&#x627;&#x641;&#x64a;&#x643;</tspan></text>
<text fill="black" stroke="#00AEEF" stroke-width="0.5" xml:space="preserve" style="white-space: pre" font-family="Andalus" font-size="25" letter-spacing="0.26em"><tspan x="70.4922" y="338.545">&#x645;&#x637;&#x648;&#x631; &#x62a;&#x637;&#x628;&#x64a;&#x642; &#x644;&#x627;&#x62f;&#x627;&#x631;&#x629; &#x627;&#x644;&#x648;&#x642;&#x62a;</tspan></text>
<text fill="black" stroke="#00AEEF" stroke-width="0.5" xml:space="preserve" style="white-space: pre" font-family="Andalus" font-size="29" letter-spacing="0.72em"><tspan x="81.4922" y="244.912">&#x645;&#x635;&#x645;&#x645; &#x62a;&#x639;&#x644;&#x64a;&#x645;&#x64a;</tspan></text>
<text fill="black" stroke="#00AEEF" stroke-width="0.5" xml:space="preserve" style="white-space: pre" font-family="Andalus" font-size="28" letter-spacing="0.6em"><tspan x="75.4922" y="201.07">&#x645;&#x639;&#x644;&#x645; &#x62d;&#x627;&#x633;&#x628; &#x623;&#x644;&#x64a;</tspan></text>
<text fill="white" xml:space="preserve" style="white-space: pre" font-family="Harmattan" font-size="20" font-weight="bold" letter-spacing="0em"><tspan x="185.492" y="395.116">&#x627;&#x644;&#x628;&#x64a;&#x627;&#x646;&#x627;&#x62a; &#x627;&#x644;&#x627;&#x633;&#x627;&#x633;&#x64a;&#x629;</tspan></text>
<path d="M371.483 402.726C375.034 402.726 378.506 402.03 381.459 400.727C384.412 399.423 386.714 397.57 388.073 395.403C389.432 393.235 389.787 390.85 389.095 388.549C388.402 386.247 386.691 384.134 384.18 382.475C381.669 380.816 378.469 379.686 374.986 379.228C371.503 378.77 367.892 379.005 364.611 379.903C361.33 380.801 358.525 382.321 356.552 384.272C354.579 386.223 353.526 388.517 353.526 390.863C353.526 394.009 355.418 397.027 358.785 399.251C362.153 401.476 366.72 402.726 371.483 402.726Z" fill="#00AEEF" stroke="#707070"/>
<path d="M362.09 396.933C362.09 395.422 362.999 393.972 364.617 392.903C366.235 391.834 368.43 391.233 370.718 391.233C373.006 391.233 375.201 391.834 376.819 392.903C378.437 393.972 379.346 395.422 379.346 396.933H362.09ZM365.959 386.514C365.958 385.786 366.34 385.081 367.039 384.518C367.738 383.955 368.71 383.57 369.791 383.428C370.871 383.286 371.993 383.395 372.965 383.738C373.937 384.082 374.699 384.637 375.12 385.309C375.542 385.982 375.598 386.73 375.278 387.426C374.958 388.123 374.282 388.725 373.366 389.129C372.45 389.533 371.35 389.715 370.253 389.644C369.157 389.573 368.132 389.252 367.353 388.737C366.461 388.148 365.959 387.348 365.959 386.514Z" fill="white"/>
<path d="M369.169 513C369.664 513 370.147 512.853 370.558 512.579C370.969 512.304 371.29 511.914 371.479 511.457C371.668 511 371.718 510.497 371.621 510.012C371.525 509.527 371.287 509.082 370.937 508.732C370.588 508.383 370.142 508.145 369.657 508.048C369.172 507.952 368.67 508.001 368.213 508.19C367.756 508.38 367.365 508.7 367.091 509.111C366.816 509.522 366.669 510.006 366.669 510.5C366.669 511.163 366.933 511.799 367.402 512.268C367.871 512.737 368.506 513 369.169 513Z" fill="#231F20"/>
<path d="M317.521 535H151.492V562.59H317.521V535Z" fill="#00AEEF"/>
<text fill="white" xml:space="preserve" style="white-space: pre" font-family="Harmattan" font-size="20" font-weight="bold" letter-spacing="0.02em"><tspan x="173" y="553.116">&#x627;&#x644;&#x648;&#x638;&#x64a;&#x641;&#x647; &#x648;&#x627;&#x644;&#x62e;&#x628;&#x631;&#x627;&#x62a;</tspan></text>
<path d="M371.946 560.704C375.794 560.704 379.555 559.95 382.754 558.538C385.953 557.126 388.447 555.119 389.919 552.77C391.392 550.422 391.777 547.838 391.026 545.345C390.276 542.852 388.423 540.562 385.702 538.764C382.981 536.967 379.515 535.743 375.741 535.247C371.968 534.751 368.056 535.006 364.501 535.978C360.947 536.951 357.908 538.598 355.771 540.712C353.633 542.825 352.492 545.31 352.492 547.852C352.492 551.261 354.542 554.53 358.19 556.94C361.838 559.35 366.787 560.704 371.946 560.704Z" fill="#00AEEF" stroke="#707070"/>
<path d="M363.848 555.203C363.113 555.203 362.408 555.01 361.888 554.666C361.368 554.323 361.076 553.857 361.076 553.371V549.355H363.814V550.112C363.814 550.168 363.83 550.224 363.861 550.276C363.894 550.328 363.941 550.375 364.001 550.415C364.061 550.455 364.132 550.486 364.211 550.508C364.289 550.53 364.373 550.541 364.458 550.541H366.752C366.923 550.54 367.086 550.495 367.207 550.415C367.266 550.376 367.314 550.329 367.346 550.278C367.379 550.226 367.396 550.171 367.396 550.115V549.358H374.828V550.115C374.828 550.229 374.897 550.338 375.019 550.418C375.14 550.499 375.305 550.544 375.477 550.544H377.777C377.948 550.543 378.112 550.498 378.232 550.417C378.353 550.337 378.42 550.228 378.42 550.115V549.358H381.158V553.375C381.158 553.615 381.086 553.853 380.948 554.075C380.665 554.524 380.125 554.88 379.446 555.067C379.11 555.159 378.75 555.206 378.387 555.206L363.848 555.203ZM361.076 547.998V545.691C361.077 545.451 361.148 545.213 361.285 544.991C361.494 544.656 361.849 544.369 362.306 544.167C362.762 543.965 363.299 543.857 363.848 543.857H365.956V543.175C365.957 542.64 366.28 542.126 366.854 541.748C367.427 541.37 368.205 541.157 369.015 541.157H373.222C374.032 541.157 374.809 541.37 375.382 541.749C375.955 542.127 376.277 542.64 376.278 543.175V543.857H378.388C378.752 543.858 379.112 543.905 379.448 543.997C379.785 544.09 380.091 544.225 380.349 544.395C380.606 544.566 380.81 544.768 380.949 544.991C381.088 545.213 381.16 545.451 381.16 545.691V547.998H361.076ZM368.18 543.173V543.855H374.059V543.173C374.058 543.027 373.969 542.887 373.812 542.783C373.656 542.68 373.443 542.622 373.222 542.621H369.015C368.794 542.622 368.582 542.68 368.425 542.783C368.268 542.887 368.18 543.027 368.18 543.173Z" fill="white"/>
<path d="M369.169 489C369.664 489 370.147 488.853 370.558 488.579C370.969 488.304 371.29 487.914 371.479 487.457C371.668 487 371.718 486.497 371.621 486.012C371.525 485.527 371.287 485.082 370.937 484.732C370.588 484.383 370.142 484.145 369.657 484.048C369.172 483.952 368.67 484.001 368.213 484.19C367.756 484.38 367.365 484.7 367.091 485.111C366.816 485.522 366.669 486.006 366.669 486.5C366.669 487.163 366.933 487.799 367.402 488.268C367.871 488.737 368.506 489 369.169 489Z" fill="#231F20"/>
<text fill="#FF0000" xml:space="preserve" style="white-space: pre" font-family="Harmattan" font-size="18" font-weight="bold" letter-spacing="-0.03em"><tspan x="264.693" y="494.205">&#x627;&#x644;&#x62d;&#x627;&#x644;&#x629; &#x627;&#x644;&#x627;&#x62c;&#x62a;&#x645;&#x627;&#x639;&#x64a;&#x629; </tspan></text>
<text fill="black" xml:space="preserve" style="white-space: pre" font-family="Harmattan" font-size="18" letter-spacing="-0.03em"><tspan x="129.214" y="490.205">&#x623;&#x639;&#x632;&#x628; - &#x63a;&#x64a;&#x631; &#x645;&#x62a;&#x632;&#x648;&#x62c;</tspan></text>
<text fill="#FF0000" xml:space="preserve" style="white-space: pre" font-family="Arial" font-size="18" letter-spacing="-0.03em"><tspan x="254.99" y="496.74">:</tspan></text>
<text fill="#FF0000" xml:space="preserve" style="white-space: pre" font-family="Arial" font-size="18" letter-spacing="-0.03em"><tspan x="294.99" y="518.74">:</tspan></text>
<text fill="#FF0000" xml:space="preserve" style="white-space: pre" font-family="Harmattan" font-size="18" font-weight="bold" letter-spacing="-0.03em"><tspan x="313.193" y="518.205">&#x627;&#x644;&#x639;&#x646;&#x648;&#x627;&#x646;&#10;</tspan></text>
<text fill="black" xml:space="preserve" style="white-space: pre" font-family="Harmattan" font-size="18" letter-spacing="-0.03em"><tspan x="110.026" y="517.205">&#x627;&#x644;&#x631;&#x62d;&#x645;&#x627;&#x646;&#x64a;&#x629; - &#x645;&#x64a;&#x62a; &#x63a;&#x645;&#x631; - &#x627;&#x644;&#x62f;&#x642;&#x647;&#x644;&#x64a;&#x629;&#13;</tspan></text>
<text fill="#FF0000" xml:space="preserve" style="white-space: pre" font-family="Harmattan" font-size="18" font-weight="bold" letter-spacing="-0.03em"><tspan x="316.097" y="438.205">&#x627;&#x644;&#x627;&#x633;&#x645;  </tspan></text>
<text fill="#FF0000" xml:space="preserve" style="white-space: pre" font-family="Arial" font-size="18" letter-spacing="-0.03em"><tspan x="307.141" y="442.74">:</tspan></text>
<text fill="black" xml:space="preserve" style="white-space: pre" font-family="Harmattan" font-size="18" letter-spacing="-0.03em"><tspan x="80.2918" y="440.205"> &#x645;&#x635;&#x637;&#x641;&#x64a; &#x633;&#x639;&#x64a;&#x62f; &#x639;&#x628;&#x62f;&#x627;&#x644;&#x648;&#x647;&#x627;&#x628; &#x639;&#x628;&#x62f;&#x627;&#x644;&#x631;&#x62d;&#x645;&#x646;</tspan></text>
<path d="M369.5 436C369.994 436 370.478 435.824 370.889 435.494C371.3 435.165 371.62 434.696 371.81 434.148C371.999 433.6 372.048 432.997 371.952 432.415C371.856 431.833 371.617 431.298 371.268 430.879C370.918 430.459 370.473 430.173 369.988 430.058C369.503 429.942 369 430.001 368.543 430.228C368.086 430.455 367.696 430.84 367.421 431.333C367.147 431.827 367 432.407 367 433C367 433.796 367.263 434.559 367.732 435.121C368.201 435.684 368.837 436 369.5 436Z" fill="black"/>
<path d="M369.169 463C369.664 463 370.147 462.853 370.558 462.579C370.969 462.304 371.29 461.914 371.479 461.457C371.668 461 371.718 460.497 371.621 460.012C371.525 459.527 371.287 459.082 370.937 458.732C370.588 458.383 370.142 458.144 369.657 458.048C369.172 457.952 368.67 458.001 368.213 458.19C367.756 458.38 367.365 458.7 367.091 459.111C366.816 459.522 366.669 460.006 366.669 460.5C366.669 461.163 366.933 461.799 367.402 462.268C367.871 462.737 368.506 463 369.169 463Z" fill="#231F20"/>
<text fill="black" xml:space="preserve" style="white-space: pre" font-family="Harmattan" font-size="18" letter-spacing="-0.03em"><tspan x="96.5467" y="468.205"> &#x639;&#x627;&#x645;   -   &#x623;&#x631;&#x628;&#x639;&#x629; &#x648;&#x639;&#x634;&#x631;&#x648;&#x646; &#x639;&#x627;&#x645;&#x627;&#x64b;</tspan></text>
<text fill="#2600FF" xml:space="preserve" style="white-space: pre" font-family="Harmattan" font-size="25" letter-spacing="-0.03em"><tspan x="255.777" y="470.645">24</tspan></text>
<text fill="#FF0000" xml:space="preserve" style="white-space: pre" font-family="Arial" font-size="18" letter-spacing="-0.03em"><tspan x="312.99" y="466.74">:</tspan></text>
<text fill="#FF0000" xml:space="preserve" style="white-space: pre" font-family="Harmattan" font-size="18" font-weight="bold" letter-spacing="-0.03em"><tspan x="319.709" y="465.205">&#x627;&#x644;&#x639;&#x645;&#x631;  </tspan></text>
<path d="M234.328 357.77C234.328 357.931 234.289 358.089 234.213 358.23C234.137 358.371 234.027 358.491 233.893 358.579C233.759 358.668 233.605 358.721 233.445 358.735C233.285 358.749 233.124 358.723 232.977 358.659C232.817 358.59 232.679 358.479 232.577 358.337C232.475 358.196 232.413 358.029 232.398 357.856C232.383 357.682 232.415 357.507 232.491 357.35C232.567 357.193 232.684 357.06 232.829 356.964C232.975 356.868 233.144 356.813 233.318 356.806C233.493 356.798 233.666 356.837 233.819 356.92C233.973 357.003 234.101 357.125 234.191 357.275C234.28 357.425 234.328 357.596 234.328 357.77Z" fill="#00AEEF" stroke="white" stroke-width="0.6"/>
<path d="M234.242 358.167C234.148 358.377 233.982 358.547 233.774 358.646C233.565 358.745 233.328 358.765 233.106 358.704C232.884 358.643 232.691 358.504 232.562 358.313C232.433 358.122 232.377 357.891 232.404 357.662C232.431 357.433 232.539 357.221 232.709 357.065C232.879 356.909 233.099 356.819 233.329 356.811C233.559 356.803 233.785 356.878 233.965 357.023C234.145 357.167 234.267 357.371 234.309 357.598C234.345 357.79 234.321 357.988 234.242 358.167Z" fill="#00AEEF" stroke="white" stroke-width="0.6"/>
<path d="M91.4961 361.534L89.1779 361.371L87.119 361.881L86.4961 360.242C87.9781 360.121 87.4519 360.107 88.7974 360.335C89.8944 359.905 89.4111 359.989 90.8793 359.881C91.4808 361.475 91.3549 361.152 91.4961 361.534Z" fill="#00AEEF" stroke="white" stroke-width="0.6"/>
<path d="M234.483 369.577C234.387 369.79 234.217 369.961 234.004 370.058C233.791 370.156 233.551 370.172 233.326 370.106C233.102 370.039 232.91 369.894 232.785 369.696C232.66 369.499 232.61 369.263 232.646 369.031C232.682 368.8 232.8 368.59 232.979 368.439C233.158 368.289 233.385 368.208 233.619 368.212C233.852 368.216 234.077 368.305 234.25 368.462C234.424 368.618 234.534 368.833 234.562 369.065C234.583 369.24 234.555 369.417 234.483 369.577Z" fill="#00AEEF" stroke="white" stroke-width="0.6"/>
<path d="M234.483 369.576C234.389 369.788 234.221 369.958 234.012 370.057C233.802 370.155 233.564 370.176 233.341 370.114C233.118 370.052 232.924 369.912 232.795 369.719C232.666 369.526 232.611 369.294 232.639 369.064C232.667 368.834 232.776 368.622 232.947 368.466C233.119 368.31 233.34 368.22 233.572 368.213C233.803 368.207 234.03 368.283 234.209 368.429C234.389 368.575 234.511 368.78 234.552 369.008C234.587 369.2 234.563 369.398 234.483 369.576Z" fill="#00AEEF" stroke="white" stroke-width="0.6"/>
<g filter="url(#filter0_d_187_2856)">
<mask id="path-38-inside-1_187_2856" fill="white">
<path d="M379.492 363L74.4922 363L238.533 363H379.492Z"/>
</mask>
<path d="M379.492 363L74.4922 363L238.533 363H379.492Z" fill="#231F20"/>
<path d="M379.492 363L74.4922 363L238.533 363H379.492Z" stroke="black" stroke-width="2" mask="url(#path-38-inside-1_187_2856)"/>
</g>
<text fill="#FF0000" xml:space="preserve" style="white-space: pre" font-family="Harmattan" font-size="11" font-weight="bold" letter-spacing="0px"><tspan x="215.904" y="775.764">&#x627;&#x644;&#x62a;&#x62f;&#x631;&#x64a;&#x628;&#x627;&#x62a; &#x627;&#x644;&#x633;&#x627;&#x628;&#x642;&#x647; &#x627;&#x62b;&#x646;&#x627;&#x621; &#x627;&#x644;&#x62f;&#x631;&#x627;&#x633;&#x629; &#x627;&#x644;&#x62c;&#x627;&#x645;&#x639;&#x64a;&#x629;</tspan></text>
<text fill="black" xml:space="preserve" style="white-space: pre" font-family="Harmattan" font-size="11" font-weight="bold" letter-spacing="0px"><tspan x="357.841" y="775.764"> </tspan></text>
<text fill="#FF0000" xml:space="preserve" style="white-space: pre" font-family="Arial" font-size="18" letter-spacing="-0.03em"><tspan x="204.99" y="778.74">:</tspan></text>
<text fill="black" xml:space="preserve" style="white-space: pre" font-family="Harmattan" font-size="13" font-weight="bold" letter-spacing="0px"><tspan x="200" y="792.676">&#10;</tspan></text>
<text fill="black" xml:space="preserve" style="white-space: pre" font-family="Harmattan" font-size="13" font-weight="bold" letter-spacing="0px"><tspan x="107.87" y="776.676">&#x627;&#x644;&#x62a;&#x62f;&#x631;&#x64a;&#x628; &#x627;&#x644;&#x645;&#x64a;&#x62f;&#x627;&#x646;&#x64a; &#x641;&#x64a; &#10;</tspan></text>
<text fill="#707070" xml:space="preserve" style="white-space: pre" font-family="Harmattan" font-size="11" font-weight="bold" letter-spacing="0px"><tspan x="107.597" y="795.764"> &#x627;&#x644;&#x645;&#x62f;&#x627;&#x631;&#x633; &#x627;&#x644;&#x62d;&#x643;&#x648;&#x645;&#x64a;&#x647; &#x627;&#x644;&#x645;&#x635;&#x631;&#x64a;&#x647; &#x648;&#x642;&#x62f; &#x62d;&#x635;&#x644;&#x62a; &#x639;&#x644;&#x64a; 96 % &#x643;&#x62f;&#x631;&#x62c;&#x647; &#x639;&#x644;&#x64a; &#x630;&#x644;&#x643;&#13;&#10;</tspan><tspan x="142.058" y="810.764">&#x645;&#x62f;&#x631;&#x633;&#x647; &#x62e;&#x627;&#x644;&#x62f; &#x628;&#x646; &#x627;&#x644;&#x648;&#x644;&#x64a;&#x62f; &#x627;&#x644;&#x627;&#x628;&#x62a;&#x62f;&#x627;&#x626;&#x64a;&#x629;  &#x628;&#x645;&#x64a;&#x62a; &#x63a;&#x645;&#x631;  &#x644;&#x645;&#x62f;&#x629; &#x639;&#x627;&#x645; 2022&#13;&#10;</tspan><tspan x="139.759" y="825.764">&#x645;&#x62f;&#x631;&#x633;&#x629; &#x627;&#x644;&#x62b;&#x627;&#x646;&#x648;&#x64a;&#x629; &#x627;&#x644;&#x62c;&#x62f;&#x64a;&#x62f;&#x629; &#x628;&#x646;&#x627;&#x62a; &#x628;&#x645;&#x64a;&#x62a; &#x63a;&#x645;&#x631; &#x644;&#x645;&#x62f;&#x629; &#x639;&#x627;&#x645; &#x627;&#x62e;&#x631; 2023</tspan></text>
<text fill="black" xml:space="preserve" style="white-space: pre" font-family="Harmattan" font-size="11" font-weight="bold" letter-spacing="0px"><tspan x="350.327" y="825.764">&#13;&#10;</tspan></text>
<path d="M370.989 774.776C371.554 774.776 372.107 774.665 372.577 774.458C373.047 774.25 373.413 773.955 373.629 773.611C373.846 773.266 373.902 772.886 373.792 772.52C373.682 772.153 373.41 771.817 373.01 771.553C372.61 771.289 372.101 771.109 371.547 771.036C370.992 770.963 370.418 771.001 369.896 771.144C369.373 771.287 368.927 771.529 368.613 771.839C368.299 772.15 368.131 772.515 368.131 772.888C368.131 773.389 368.432 773.869 368.968 774.223C369.504 774.577 370.231 774.776 370.989 774.776Z" fill="#231F20"/>
<text fill="#FF0000" xml:space="preserve" style="white-space: pre" font-family="Arial" font-size="18" letter-spacing="-0.03em"><tspan x="284.99" y="608.74">:</tspan></text>
<rect x="293.5" y="592.5" width="67" height="19" stroke="#5500FF"/>
<text fill="#5500FF" xml:space="preserve" style="white-space: pre" font-family="Harmattan" font-size="13" font-weight="bold" letter-spacing="0px"><tspan x="358.118" y="604.676"> </tspan></text>
<text fill="#FF0000" xml:space="preserve" style="white-space: pre" font-family="Harmattan" font-size="13" font-weight="bold" letter-spacing="0px"><tspan x="292.928" y="604.676"> &#x627;&#x644;&#x648;&#x638;&#x64a;&#x641;&#x647; &#x627;&#x644;&#x62d;&#x627;&#x644;&#x64a;&#x647;</tspan></text>
<text fill="black" xml:space="preserve" style="white-space: pre" font-family="Harmattan" font-size="13" font-weight="bold" letter-spacing="0px"><tspan x="93.8711" y="605.676">&#x645;&#x639;&#x644;&#x645; &#x631;&#x64a;&#x627;&#x636;&#x64a;&#x627;&#x62a; &#x648;&#x62d;&#x627;&#x633;&#x628; &#x623;&#x644;&#x64a; &#x628;&#x645;&#x62f;&#x631;&#x633;&#x647; &#x627;&#x644;&#x634;&#x647;&#x64a;&#x62f; </tspan></text>
<text fill="black" xml:space="preserve" style="white-space: pre" font-family="Harmattan" font-size="13" font-weight="bold" letter-spacing="0px"><tspan x="90.8438" y="630.676">&#x645;&#x62d;&#x645;&#x62f; &#x627;&#x644;&#x634;&#x627;&#x641;&#x639;&#x64a; &#x628;&#x64a;&#x648;&#x645;&#x64a; &#x628;&#x642;&#x631;&#x64a;&#x629; &#x639;&#x641;&#x64a;&#x641;&#x64a; &#x628;&#x648;&#x632;&#x627;&#x631;&#x629; &#x627;&#x644;&#x62a;&#x631;&#x628;&#x64a;&#x629; &#x648;&#x627;&#x644;&#x62a;&#x639;&#x644;&#x64a;&#x645; &#13;&#10;</tspan><tspan x="246.247" y="654.676">&#x628;&#x62c;&#x645;&#x647;&#x648;&#x64a;&#x629; &#x645;&#x635;&#x631; &#x627;&#x644;&#x639;&#x631;&#x628;&#x64a;&#x629; </tspan></text>
<path d="M370.989 605.776C371.554 605.776 372.107 605.665 372.577 605.458C373.047 605.25 373.413 604.955 373.629 604.611C373.846 604.266 373.902 603.886 373.792 603.52C373.682 603.153 373.41 602.817 373.01 602.553C372.61 602.289 372.101 602.109 371.547 602.036C370.992 601.963 370.418 602.001 369.896 602.144C369.373 602.287 368.927 602.529 368.613 602.839C368.299 603.15 368.131 603.515 368.131 603.888C368.131 604.389 368.432 604.869 368.968 605.223C369.504 605.577 370.231 605.776 370.989 605.776Z" fill="#231F20"/>
<path d="M351.415 633.699H351.377L350 632.341C350.644 632.561 351.358 632.675 352.083 632.675C352.808 632.675 353.522 632.561 354.167 632.341L352.785 633.699H352.756L356.139 640.716L359.222 637.192L362.652 639.406L364.809 636.632C362.781 634.321 359.595 632.551 355.802 631.627C357.251 630.706 358.384 629.589 359.121 628.352C359.931 627.015 360.366 625.592 360.403 624.152C360.443 622.336 359.586 620.56 357.963 619.094C357.32 618.451 356.446 617.922 355.418 617.557C354.391 617.191 353.242 617 352.075 617C350.908 617 349.759 617.191 348.731 617.557C347.704 617.922 346.829 618.451 346.187 619.094C344.563 620.56 343.707 622.336 343.746 624.152C343.785 625.592 344.221 627.015 345.033 628.352C345.773 629.589 346.909 630.706 348.363 631.626C341.838 633.044 337 637.893 337 641.489C337 643.617 344.537 644.677 352.079 644.677L347.853 641.054L351.415 633.699Z" fill="#71F200" stroke="#070505" stroke-width="0.5"/>
<path d="M352.093 644.69C354.239 644.694 356.382 644.602 358.508 644.415L355.027 642.17L352.093 644.69Z" fill="#71F200" stroke="#070505" stroke-width="0.5"/>
<path d="M367.73 635.809L363.133 641.734L359.611 639.462L357.575 641.78L363.955 645.902L370.549 637.418L367.73 635.809Z" fill="#F20000" stroke="#070505" stroke-width="0.5"/>
<text fill="#FF0000" xml:space="preserve" style="white-space: pre" font-family="Harmattan" font-size="13" font-weight="bold" letter-spacing="0px"><tspan x="300.393" y="690.676">&#x627;&#x644;&#x648;&#x638;&#x64a;&#x641;&#x647; &#x633;&#x627;&#x628;&#x642;&#x627;</tspan></text>
<text fill="black" xml:space="preserve" style="white-space: pre" font-family="Harmattan" font-size="13" font-weight="bold" letter-spacing="0px"><tspan x="358.448" y="690.676"> </tspan></text>
<text fill="#FF0000" xml:space="preserve" style="white-space: pre" font-family="Arial" font-size="18" letter-spacing="-0.03em"><tspan x="289.99" y="694.74">:</tspan></text>
<text fill="black" xml:space="preserve" style="white-space: pre" font-family="Harmattan" font-size="13" font-weight="bold" letter-spacing="0px"><tspan x="119.056" y="690.676">&#x641;&#x646;&#x64a; &#x637;&#x628;&#x627;&#x639;&#x629; &#x645;&#x637;&#x628;&#x639;&#x629;  &#x62e;&#x627;&#x635;&#x629; 2019&#x2013;2023&#13;&#10;</tspan><tspan x="86.6826" y="714.676">&#x62a;&#x634;&#x63a;&#x64a;&#x644; &#x648;&#x635;&#x64a;&#x627;&#x646;&#x629; &#x62e;&#x637;&#x648;&#x637; &#x627;&#x644;&#x637;&#x628;&#x627;&#x639;&#x629; &#x644;&#x628;&#x639;&#x636; &#x627;&#x644;&#x637;&#x627;&#x628;&#x639;&#x627;&#x62a; </tspan><tspan x="89.7803" y="738.676">&#x628;&#x62c;&#x645;&#x64a;&#x639; &#x627;&#x644;&#x645;&#x642;&#x627;&#x633;&#x627;&#x62a; &#x628;&#x627;&#x633;&#x62a;&#x62e;&#x62f;&#x627;&#x645; &#x633;&#x643;&#x631;&#x628;&#x62a;&#x627;&#x62a; &#x628;&#x631;&#x645;&#x62c;&#x64a;&#x629;</tspan></text>
<path d="M370.989 689.776C371.554 689.776 372.107 689.665 372.577 689.458C373.047 689.25 373.413 688.955 373.629 688.611C373.846 688.266 373.902 687.886 373.792 687.52C373.682 687.153 373.41 686.817 373.01 686.553C372.61 686.289 372.101 686.109 371.547 686.036C370.992 685.963 370.418 686.001 369.896 686.144C369.373 686.287 368.927 686.529 368.613 686.839C368.299 687.15 368.131 687.515 368.131 687.888C368.131 688.389 368.432 688.869 368.968 689.223C369.504 689.577 370.231 689.776 370.989 689.776Z" fill="#231F20"/>
<path d="M351.415 714.699H351.377L350 713.341C350.644 713.561 351.358 713.675 352.083 713.675C352.808 713.675 353.522 713.561 354.167 713.341L352.785 714.699H352.756L356.139 721.716L359.222 718.192L362.652 720.406L364.809 717.632C362.781 715.321 359.595 713.551 355.802 712.627C357.251 711.706 358.384 710.589 359.121 709.352C359.931 708.015 360.366 706.592 360.403 705.152C360.443 703.336 359.586 701.56 357.963 700.094C357.32 699.451 356.446 698.922 355.418 698.557C354.391 698.191 353.242 698 352.075 698C350.908 698 349.759 698.191 348.731 698.557C347.704 698.922 346.829 699.451 346.187 700.094C344.563 701.56 343.707 703.336 343.746 705.152C343.785 706.592 344.221 708.015 345.033 709.352C345.773 710.589 346.909 711.706 348.363 712.626C341.838 714.044 337 718.893 337 722.489C337 724.617 344.537 725.677 352.079 725.677L347.853 722.054L351.415 714.699Z" fill="#71F200" stroke="#070505" stroke-width="0.5"/>
<path d="M352.093 725.69C354.239 725.694 356.382 725.602 358.508 725.415L355.027 723.17L352.093 725.69Z" fill="#71F200" stroke="#070505" stroke-width="0.5"/>
<defs>
<filter id="filter0_d_187_2856" x="70.4922" y="362" width="313" height="10" filterUnits="userSpaceOnUse" color-interpolation-filters="sRGB">
<feFlood flood-opacity="0" result="BackgroundImageFix"/>
<feColorMatrix in="SourceAlpha" type="matrix" values="0 0 0 0 0 0 0 0 0 0 0 0 0 0 0 0 0 0 127 0" result="hardAlpha"/>
<feOffset dy="4"/>
<feGaussianBlur stdDeviation="2"/>
<feComposite in2="hardAlpha" operator="out"/>
<feColorMatrix type="matrix" values="0 0 0 0 0 0 0 0 0 0 0 0 0 0 0 0 0 0 0.25 0"/>
<feBlend mode="normal" in2="BackgroundImageFix" result="effect1_dropShadow_187_2856"/>
<feBlend mode="normal" in="SourceGraphic" in2="effect1_dropShadow_187_2856" result="shape"/>
</filter>
</defs>
</svg>
