<svg width="454" height="504" viewBox="0 0 454 504" fill="none" xmlns="http://www.w3.org/2000/svg">
<path d="M363.88 47.7166C371.535 47.1797 377.305 40.5336 376.768 32.8722C376.23 25.2108 369.589 19.4353 361.934 19.9722C354.28 20.5091 348.51 27.1551 349.047 34.8165C349.585 42.4779 356.226 48.2535 363.88 47.7166Z" fill="white"/>
<path d="M363.845 47.2174C371.224 46.6999 376.786 40.2929 376.268 32.9071C375.75 25.5213 369.348 19.9535 361.969 20.471C354.59 20.9886 349.028 27.3956 349.546 34.7814C350.064 42.1672 356.466 47.735 363.845 47.2174Z" stroke="#707070" stroke-width="1.00045"/>
<path d="M362.845 46.2309C360.403 46.2308 358.017 45.5067 355.987 44.1502C353.957 42.7937 352.375 40.8658 351.44 38.6101C350.506 36.3544 350.261 33.8723 350.738 31.4776C351.214 29.083 352.39 26.8834 354.116 25.1569C356.431 22.8417 359.571 21.541 362.846 21.541C366.12 21.541 369.26 22.8417 371.575 25.1569C373.89 27.4721 375.191 30.6122 375.191 33.8864C375.191 37.1606 373.89 40.3007 371.575 42.6159C370.431 43.7657 369.071 44.6773 367.572 45.2978C366.074 45.9183 364.467 46.2355 362.845 46.2309ZM362.489 26.5409C360.713 26.5431 358.992 27.1589 357.617 28.2842C356.243 29.4095 355.299 30.975 354.946 32.716C354.593 34.4569 354.853 36.2664 355.681 37.838C356.508 39.4097 357.854 40.6471 359.489 41.3409C360.728 41.8626 362.082 42.0512 363.417 41.8879C364.751 41.7246 366.02 41.215 367.096 40.4098C368.173 39.6047 369.021 38.5319 369.554 37.298C370.088 36.064 370.29 34.7119 370.14 33.3759C370.076 32.8149 369.951 32.2626 369.767 31.7289C369.676 31.4674 369.571 31.2111 369.453 30.9609H368.61L368.076 31.4949C368.178 31.7035 368.269 31.9175 368.348 32.1359C368.509 32.5816 368.618 33.0443 368.673 33.5149C368.701 33.7569 368.716 34.0003 368.716 34.2439C368.714 35.6805 368.215 37.0722 367.305 38.1836C366.394 39.2949 365.128 40.0575 363.72 40.3424C362.312 40.6273 360.849 40.417 359.578 39.7471C358.307 39.0771 357.307 37.9886 356.746 36.6659C356.346 35.7187 356.187 34.6873 356.283 33.6637C356.379 32.6402 356.726 31.6562 357.295 30.7995C357.863 29.9428 358.634 29.24 359.54 28.7538C360.446 28.2676 361.458 28.0131 362.486 28.0129C362.73 28.0132 362.973 28.0275 363.215 28.0559C363.686 28.111 364.148 28.2201 364.594 28.3809C364.813 28.4599 365.027 28.551 365.235 28.6539L365.769 28.1189V27.2739C365.519 27.1554 365.262 27.0506 365 26.9599C364.467 26.7754 363.915 26.6503 363.354 26.5869C363.067 26.5558 362.778 26.5404 362.489 26.5409ZM362.489 29.6219C361.575 29.6219 360.681 29.893 359.921 30.401C359.161 30.9091 358.568 31.6311 358.219 32.4758C357.869 33.3206 357.777 34.25 357.956 35.1467C358.135 36.0434 358.575 36.8669 359.222 37.5132C359.869 38.1595 360.692 38.5994 361.589 38.7774C362.486 38.9555 363.415 38.8635 364.26 38.5132C365.104 38.1629 365.826 37.57 366.334 36.8096C366.841 36.0491 367.112 35.1552 367.111 34.2409C367.111 34.1079 367.105 33.9749 367.094 33.8409C367.083 33.7069 367.066 33.5809 367.044 33.4539C367.022 33.3269 366.998 33.2149 366.963 33.0789C366.928 32.9429 366.893 32.8329 366.852 32.7149L365.622 33.9439C365.622 33.9669 365.622 33.9889 365.628 34.0119C365.634 34.0349 365.628 34.0399 365.628 34.0519C365.628 34.0639 365.628 34.0769 365.628 34.0889V34.1319V34.1619C365.628 34.1739 365.628 34.1869 365.628 34.1989V34.2409C365.628 34.7603 365.499 35.2715 365.253 35.729C365.007 36.1865 364.652 36.5762 364.219 36.8632C363.786 37.1503 363.289 37.3258 362.772 37.3743C362.255 37.4227 361.734 37.3425 361.255 37.1409C360.5 36.8197 359.899 36.2186 359.578 35.4639C359.376 34.9853 359.296 34.4642 359.345 33.9471C359.393 33.4299 359.569 32.9328 359.856 32.5C360.143 32.0671 360.532 31.712 360.99 31.4661C361.447 31.2203 361.959 31.0914 362.478 31.0909H362.625H362.661H362.698L362.77 31.0969L363.999 29.8669C363.886 29.8269 363.763 29.7889 363.635 29.7559C363.507 29.7229 363.376 29.6949 363.259 29.6749C363.142 29.6549 363.003 29.6359 362.873 29.6249C362.743 29.6139 362.621 29.6199 362.489 29.6199V29.6219ZM362.489 32.7029C362.283 32.7021 362.079 32.7433 361.889 32.8239C361.656 32.922 361.451 33.0759 361.292 33.272C361.132 33.468 361.023 33.7003 360.975 33.9483C360.926 34.1963 360.94 34.4524 361.014 34.6941C361.087 34.9358 361.219 35.1556 361.398 35.3342C361.577 35.5128 361.797 35.6447 362.039 35.7183C362.28 35.7918 362.537 35.8048 362.785 35.7561C363.032 35.7073 363.265 35.5984 363.461 35.4388C363.656 35.2792 363.81 35.0739 363.908 34.8409C363.988 34.6511 364.03 34.447 364.029 34.2409C364.029 34.1959 364.029 34.1509 364.023 34.1089C364.017 34.0669 364.014 34.0239 364.006 33.9799C363.998 33.9359 363.989 33.8899 363.979 33.8549C363.969 33.8199 363.954 33.7689 363.942 33.7339L368.057 29.6189H369.257L371.937 26.9389H369.79V24.7969L367.11 27.4769V28.6769L363 32.7879C362.956 32.7719 362.916 32.7599 362.879 32.7509C362.842 32.7419 362.805 32.7329 362.754 32.7239C362.703 32.7149 362.669 32.7109 362.625 32.7069C362.581 32.7029 362.533 32.7029 362.489 32.7029Z" fill="#00AEEF"/>
<text fill="black" xml:space="preserve" style="white-space: pre" font-family="Hannari" font-size="20" letter-spacing="0em"><tspan x="149" y="39.6">&#x627;&#x644;&#x631;&#x624;&#x64a;&#x629; &#x648;&#x627;&#x644;&#x62e;&#x637;&#x648;&#x629; &#x627;&#x644;&#x642;&#x627;&#x62f;&#x645;&#x629;</tspan></text>
<text fill="black" xml:space="preserve" style="white-space: pre" font-family="Harmattan" font-size="14" font-weight="bold" letter-spacing="0.09em"><tspan x="102.419" y="97.9526">&#x623;&#x633;&#x639;&#x649; &#x625;&#x644;&#x649; &#x625;&#x62a;&#x642;&#x627;&#x646; &#x645;&#x647;&#x627;&#x631;&#x627;&#x62a; &#x627;&#x644;&#x62d;&#x627;&#x633;&#x648;&#x628; &#x648;&#x627;&#x644;&#x62a;&#x643;&#x646;&#x648;&#x644;&#x648;&#x62c;&#x64a;&#x627; </tspan><tspan x="87.4946" y="125.953">&#x627;&#x644;&#x62d;&#x62f;&#x64a;&#x62b;&#x629; &#x645;&#x646; &#x62e;&#x644;&#x627;&#x644; &#x627;&#x644;&#x62a;&#x639;&#x644;&#x645; &#x627;&#x644;&#x645;&#x633;&#x62a;&#x645;&#x631; &#x648;&#x627;&#x644;&#x627;&#x633;&#x62a;&#x643;&#x634;&#x627;&#x641; &#x627;&#x644;&#x639;&#x645;&#x64a;&#x642; </tspan><tspan x="96.0907" y="153.953">&#x644;&#x643;&#x644; &#x645;&#x627; &#x647;&#x648; &#x62c;&#x62f;&#x64a;&#x62f; &#x641;&#x64a; &#x647;&#x630;&#x627; &#x627;&#x644;&#x645;&#x62c;&#x627;&#x644;. &#x634;&#x63a;&#x641;&#x64a; &#x628;&#x627;&#x644;&#x62d;&#x627;&#x633;&#x648;&#x628; </tspan><tspan x="103.764" y="181.953">&#x64a;&#x62f;&#x641;&#x639;&#x646;&#x64a; &#x62f;&#x627;&#x626;&#x645;&#x64b;&#x627; &#x625;&#x644;&#x649; &#x62a;&#x637;&#x648;&#x64a;&#x631; &#x645;&#x647;&#x627;&#x631;&#x627;&#x62a;&#x64a;&#x60c; &#x645;&#x648;&#x627;&#x643;&#x628;&#x629; &#x623;&#x62d;&#x62f;&#x62b; </tspan><tspan x="100.512" y="209.953">&#x627;&#x644;&#x62a;&#x642;&#x646;&#x64a;&#x627;&#x62a;&#x60c; &#x648;&#x62a;&#x62d;&#x644;&#x64a;&#x644; &#x627;&#x644;&#x645;&#x634;&#x643;&#x644;&#x627;&#x62a; &#x627;&#x644;&#x62a;&#x642;&#x646;&#x64a;&#x629; &#x644;&#x625;&#x64a;&#x62c;&#x627;&#x62f; &#x62d;&#x644;&#x648;&#x644; </tspan><tspan x="95.4473" y="237.953">&#x645;&#x628;&#x62a;&#x643;&#x631;&#x629;. &#x623;&#x624;&#x645;&#x646; &#x628;&#x623;&#x646; &#x627;&#x644;&#x62a;&#x639;&#x644;&#x645; &#x644;&#x627; &#x64a;&#x62a;&#x648;&#x642;&#x641;&#x60c; &#x648;&#x623;&#x633;&#x639;&#x649; &#x625;&#x644;&#x649; &#x623;&#x646; </tspan><tspan x="96.7825" y="265.953">&#x623;&#x643;&#x648;&#x646; &#x62f;&#x627;&#x626;&#x645; &#x627;&#x644;&#x62a;&#x637;&#x648;&#x631;&#x60c; &#x642;&#x627;&#x62f;&#x631;&#x64b;&#x627; &#x639;&#x644;&#x649; &#x627;&#x644;&#x62a;&#x643;&#x64a;&#x641; &#x645;&#x639; &#x627;&#x644;&#x62a;&#x63a;&#x64a;&#x631;&#x627;&#x62a; </tspan><tspan x="102.184" y="293.953">&#x627;&#x644;&#x633;&#x631;&#x64a;&#x639;&#x629; &#x641;&#x64a; &#x639;&#x627;&#x644;&#x645; &#x627;&#x644;&#x62a;&#x642;&#x646;&#x64a;&#x629;&#x60c; &#x648;&#x645;&#x633;&#x627;&#x647;&#x645;&#x64b;&#x627; &#x641;&#x64a; &#x625;&#x62b;&#x631;&#x627;&#x621; &#x647;&#x630;&#x627; </tspan><tspan x="167.088" y="321.953">&#x627;&#x644;&#x645;&#x62c;&#x627;&#x644; &#x628;&#x627;&#x644;&#x645;&#x639;&#x631;&#x641;&#x629; &#x648;&#x627;&#x644;&#x625;&#x628;&#x62f;&#x627;&#x639;.&#13;&#10;</tspan><tspan x="97.1333" y="349.953">&#x627;&#x644;&#x62e;&#x637;&#x648;&#x629; &#x627;&#x644;&#x642;&#x627;&#x62f;&#x645;&#x629; &#x641;&#x64a; &#x645;&#x633;&#x64a;&#x631;&#x62a;&#x64a; &#x628;&#x627;&#x630;&#x646; &#x627;&#x644;&#x644;&#x647; &#x647;&#x64a; &#x627;&#x633;&#x62a;&#x643;&#x645;&#x627;&#x644; </tspan><tspan x="105.42" y="377.953">&#x62f;&#x631;&#x627;&#x633;&#x627;&#x62a;&#x64a; &#x627;&#x644;&#x639;&#x644;&#x64a;&#x627; &#x628;&#x627;&#x644;&#x62d;&#x635;&#x648;&#x644; &#x639;&#x644;&#x649; &#x62f;&#x631;&#x62c;&#x629; &#x627;&#x644;&#x645;&#x627;&#x62c;&#x633;&#x62a;&#x64a;&#x631;&#x60c; &#x62b;&#x645; </tspan><tspan x="104.364" y="405.953">&#x627;&#x644;&#x62f;&#x643;&#x62a;&#x648;&#x631;&#x627;&#x647;&#x60c; &#x645;&#x645;&#x627; &#x633;&#x64a;&#x645;&#x643;&#x646;&#x646;&#x64a; &#x645;&#x646; &#x627;&#x644;&#x62a;&#x639;&#x645;&#x642; &#x641;&#x64a; &#x627;&#x644;&#x628;&#x62d;&#x62b; </tspan><tspan x="96.7652" y="433.953">&#x627;&#x644;&#x639;&#x644;&#x645;&#x64a;&#x60c; &#x62a;&#x642;&#x62f;&#x64a;&#x645; &#x62d;&#x644;&#x648;&#x644; &#x62a;&#x642;&#x646;&#x64a;&#x629; &#x645;&#x628;&#x62a;&#x643;&#x631;&#x629;&#x60c; &#x648;&#x627;&#x644;&#x645;&#x633;&#x627;&#x647;&#x645;&#x629; &#x641;&#x64a; </tspan><tspan x="148.037" y="461.953">&#x62a;&#x64d;&#x637;&#x648;&#x64a;&#x631; &#x627;&#x644;&#x645;&#x62c;&#x627;&#x644; &#x627;&#x644;&#x623;&#x643;&#x627;&#x62f;&#x64a;&#x645;&#x64a; &#x648;&#x627;&#x644;&#x645;&#x647;&#x646;&#x64a;</tspan></text>
</svg>
