<svg width="833" height="855" viewBox="0 0 833 855" fill="none" xmlns="http://www.w3.org/2000/svg">
<circle cx="351" cy="79" r="36.5" fill="#D9D9D9" stroke="#FF0000"/>
<circle cx="740" cy="77" r="36.5" fill="#D9D9D9" stroke="#FF0000"/>
<path d="M684.521 377H518.492V404.59H684.521V377Z" fill="#00AEEF"/>
<text fill="#070707" stroke="#00AEEF" stroke-width="0.3" xml:space="preserve" style="white-space: pre" font-family="Harmattan" font-size="21" font-weight="500" letter-spacing="-0.01em"><tspan x="542" y="138.322">&#x648;&#x64e;&#x645;&#x64e;&#x627; &#x62a;&#x64e;&#x648;&#x652;&#x641;&#x650;&#x64a;&#x642;&#x650;&#x64a; &#x625;&#x650;&#x644;&#x651;&#x64e;&#x627; &#x628;&#x650;&#x627;&#x644;&#x644;&#x651;&#x64e;&#x647;</tspan></text>
<text fill="black" xml:space="preserve" style="white-space: pre" font-family="Arial" font-size="31" font-weight="900" letter-spacing="0em"><tspan x="463.492" y="62.2607">MOSTAFA</tspan></text>
<text fill="#535353" xml:space="preserve" style="white-space: pre" font-family="Arial" font-size="31" font-weight="900" letter-spacing="0em"><tspan x="463.492" y="101.261">SAID</tspan></text>
<text fill="black" stroke="#00AEEF" stroke-width="0.5" xml:space="preserve" style="white-space: pre" font-family="Andalus" font-size="30" letter-spacing="0.71em"><tspan x="462" y="300.254">&#x645;&#x635;&#x645;&#x645; &#x62c;&#x631;&#x627;&#x641;&#x64a;&#x643;</tspan></text>
<text fill="black" stroke="#00AEEF" stroke-width="0.5" xml:space="preserve" style="white-space: pre" font-family="Andalus" font-size="25" letter-spacing="0.26em"><tspan x="462" y="348.545">&#x645;&#x637;&#x648;&#x631; &#x62a;&#x637;&#x628;&#x64a;&#x642; &#x644;&#x627;&#x62f;&#x627;&#x631;&#x629; &#x627;&#x644;&#x648;&#x642;&#x62a;</tspan></text>
<text fill="black" stroke="#00AEEF" stroke-width="0.5" xml:space="preserve" style="white-space: pre" font-family="Andalus" font-size="29" letter-spacing="0.72em"><tspan x="474" y="254.912">&#x645;&#x635;&#x645;&#x645; &#x62a;&#x639;&#x644;&#x64a;&#x645;&#x64a;</tspan></text>
<text fill="black" stroke="#00AEEF" stroke-width="0.5" xml:space="preserve" style="white-space: pre" font-family="Andalus" font-size="28" letter-spacing="0.6em"><tspan x="468" y="211.07">&#x645;&#x639;&#x644;&#x645; &#x62d;&#x627;&#x633;&#x628; &#x623;&#x644;&#x64a;</tspan></text>
<text fill="white" xml:space="preserve" style="white-space: pre" font-family="Harmattan" font-size="20" font-weight="bold" letter-spacing="0em"><tspan x="552.492" y="395.116">&#x627;&#x644;&#x628;&#x64a;&#x627;&#x646;&#x627;&#x62a; &#x627;&#x644;&#x627;&#x633;&#x627;&#x633;&#x64a;&#x629;</tspan></text>
<path d="M738.482 402.726C742.034 402.726 745.506 402.03 748.459 400.727C751.412 399.423 753.713 397.57 755.072 395.403C756.431 393.235 756.787 390.85 756.094 388.549C755.401 386.247 753.691 384.134 751.18 382.475C748.668 380.816 745.469 379.686 741.985 379.228C738.502 378.77 734.892 379.005 731.61 379.903C728.329 380.801 725.525 382.321 723.552 384.272C721.579 386.223 720.525 388.517 720.525 390.863C720.525 394.009 722.417 397.027 725.785 399.251C729.152 401.476 733.72 402.726 738.482 402.726Z" fill="#00AEEF" stroke="#707070"/>
<path d="M729.09 396.933C729.09 395.422 729.999 393.972 731.617 392.903C733.235 391.834 735.43 391.233 737.718 391.233C740.006 391.233 742.201 391.834 743.819 392.903C745.437 393.972 746.346 395.422 746.346 396.933H729.09ZM732.959 386.514C732.958 385.786 733.34 385.081 734.039 384.518C734.738 383.955 735.71 383.57 736.791 383.428C737.871 383.286 738.993 383.395 739.965 383.738C740.937 384.082 741.699 384.637 742.12 385.309C742.542 385.982 742.598 386.73 742.278 387.426C741.958 388.123 741.282 388.725 740.366 389.129C739.45 389.533 738.35 389.715 737.253 389.644C736.157 389.573 735.132 389.252 734.353 388.737C733.461 388.148 732.959 387.348 732.959 386.514Z" fill="white"/>
<path d="M736.17 513C736.664 513 737.148 512.853 737.559 512.579C737.97 512.304 738.29 511.914 738.48 511.457C738.669 511 738.718 510.497 738.622 510.012C738.525 509.527 738.287 509.082 737.938 508.732C737.588 508.383 737.143 508.145 736.658 508.048C736.173 507.952 735.67 508.001 735.213 508.19C734.756 508.38 734.366 508.7 734.091 509.111C733.817 509.522 733.67 510.006 733.67 510.5C733.67 511.163 733.933 511.799 734.402 512.268C734.871 512.737 735.507 513 736.17 513Z" fill="#231F20"/>
<path d="M684.521 535H518.492V562.59H684.521V535Z" fill="#00AEEF"/>
<text fill="white" xml:space="preserve" style="white-space: pre" font-family="Harmattan" font-size="20" font-weight="bold" letter-spacing="0.02em"><tspan x="540" y="553.116">&#x627;&#x644;&#x648;&#x638;&#x64a;&#x641;&#x647; &#x648;&#x627;&#x644;&#x62e;&#x628;&#x631;&#x627;&#x62a;</tspan></text>
<path d="M738.946 560.704C742.794 560.704 746.555 559.95 749.754 558.538C752.953 557.126 755.447 555.119 756.919 552.77C758.392 550.422 758.777 547.838 758.026 545.345C757.276 542.852 755.423 540.562 752.702 538.764C749.981 536.967 746.515 535.743 742.741 535.247C738.968 534.751 735.056 535.006 731.501 535.978C727.947 536.951 724.908 538.598 722.771 540.712C720.633 542.825 719.492 545.31 719.492 547.852C719.492 551.261 721.542 554.53 725.19 556.94C728.838 559.35 733.787 560.704 738.946 560.704Z" fill="#00AEEF" stroke="#707070"/>
<path d="M730.848 555.203C730.113 555.203 729.408 555.01 728.888 554.666C728.368 554.323 728.076 553.857 728.076 553.371V549.355H730.814V550.112C730.814 550.168 730.83 550.224 730.861 550.276C730.894 550.328 730.941 550.375 731.001 550.415C731.061 550.455 731.132 550.486 731.211 550.508C731.289 550.53 731.373 550.541 731.458 550.541H733.752C733.923 550.54 734.086 550.495 734.207 550.415C734.266 550.376 734.314 550.329 734.346 550.278C734.379 550.226 734.396 550.171 734.396 550.115V549.358H741.828V550.115C741.828 550.229 741.897 550.338 742.019 550.418C742.14 550.499 742.305 550.544 742.477 550.544H744.777C744.948 550.543 745.112 550.498 745.232 550.417C745.353 550.337 745.42 550.228 745.42 550.115V549.358H748.158V553.375C748.158 553.615 748.086 553.853 747.948 554.075C747.665 554.524 747.125 554.88 746.446 555.067C746.11 555.159 745.75 555.206 745.387 555.206L730.848 555.203ZM728.076 547.998V545.691C728.077 545.451 728.148 545.213 728.285 544.991C728.494 544.656 728.849 544.369 729.306 544.167C729.762 543.965 730.299 543.857 730.848 543.857H732.956V543.175C732.957 542.64 733.28 542.126 733.854 541.748C734.427 541.37 735.205 541.157 736.015 541.157H740.222C741.032 541.157 741.809 541.37 742.382 541.749C742.955 542.127 743.277 542.64 743.278 543.175V543.857H745.388C745.752 543.858 746.112 543.905 746.448 543.997C746.785 544.09 747.091 544.225 747.349 544.395C747.606 544.566 747.81 544.768 747.949 544.991C748.088 545.213 748.16 545.451 748.16 545.691V547.998H728.076ZM735.18 543.173V543.855H741.059V543.173C741.058 543.027 740.969 542.887 740.812 542.783C740.656 542.68 740.443 542.622 740.222 542.621H736.015C735.794 542.622 735.582 542.68 735.425 542.783C735.268 542.887 735.18 543.027 735.18 543.173Z" fill="white"/>
<path d="M736.17 489C736.664 489 737.148 488.853 737.559 488.579C737.97 488.304 738.29 487.914 738.48 487.457C738.669 487 738.718 486.497 738.622 486.012C738.525 485.527 738.287 485.082 737.938 484.732C737.588 484.383 737.143 484.145 736.658 484.048C736.173 483.952 735.67 484.001 735.213 484.19C734.756 484.38 734.366 484.7 734.091 485.111C733.817 485.522 733.67 486.006 733.67 486.5C733.67 487.163 733.933 487.799 734.402 488.268C734.871 488.737 735.507 489 736.17 489Z" fill="#231F20"/>
<text fill="#FF0000" xml:space="preserve" style="white-space: pre" font-family="Harmattan" font-size="18" font-weight="bold" letter-spacing="-0.03em"><tspan x="631.693" y="494.205">&#x627;&#x644;&#x62d;&#x627;&#x644;&#x629; &#x627;&#x644;&#x627;&#x62c;&#x62a;&#x645;&#x627;&#x639;&#x64a;&#x629; </tspan></text>
<text fill="black" xml:space="preserve" style="white-space: pre" font-family="Harmattan" font-size="18" letter-spacing="-0.03em"><tspan x="496.214" y="490.205">&#x623;&#x639;&#x632;&#x628; - &#x63a;&#x64a;&#x631; &#x645;&#x62a;&#x632;&#x648;&#x62c;</tspan></text>
<text fill="#FF0000" xml:space="preserve" style="white-space: pre" font-family="Arial" font-size="18" letter-spacing="-0.03em"><tspan x="621.99" y="496.74">:</tspan></text>
<text fill="#FF0000" xml:space="preserve" style="white-space: pre" font-family="Arial" font-size="18" letter-spacing="-0.03em"><tspan x="661.99" y="518.74">:</tspan></text>
<text fill="#FF0000" xml:space="preserve" style="white-space: pre" font-family="Harmattan" font-size="18" font-weight="bold" letter-spacing="-0.03em"><tspan x="680.193" y="518.205">&#x627;&#x644;&#x639;&#x646;&#x648;&#x627;&#x646;&#10;</tspan></text>
<text fill="black" xml:space="preserve" style="white-space: pre" font-family="Harmattan" font-size="18" letter-spacing="-0.03em"><tspan x="477.026" y="517.205">&#x627;&#x644;&#x631;&#x62d;&#x645;&#x627;&#x646;&#x64a;&#x629; - &#x645;&#x64a;&#x62a; &#x63a;&#x645;&#x631; - &#x627;&#x644;&#x62f;&#x642;&#x647;&#x644;&#x64a;&#x629;&#13;</tspan></text>
<text fill="#FF0000" xml:space="preserve" style="white-space: pre" font-family="Harmattan" font-size="18" font-weight="bold" letter-spacing="-0.03em"><tspan x="683.097" y="438.205">&#x627;&#x644;&#x627;&#x633;&#x645;  </tspan></text>
<text fill="#FF0000" xml:space="preserve" style="white-space: pre" font-family="Arial" font-size="18" letter-spacing="-0.03em"><tspan x="674.141" y="442.74">:</tspan></text>
<text fill="black" xml:space="preserve" style="white-space: pre" font-family="Harmattan" font-size="18" letter-spacing="-0.03em"><tspan x="447.507" y="440.205"> &#x645;&#x635;&#x637;&#x641;&#x64a; &#x633;&#x639;&#x64a;&#x62f; &#x639;&#x628;&#x62f;&#x627;&#x644;&#x648;&#x647;&#x627;&#x628; &#x639;&#x628;&#x62f;&#x627;&#x644;&#x631;&#x62d;&#x645;&#x646;</tspan></text>
<path d="M736.5 436C736.994 436 737.478 435.824 737.889 435.494C738.3 435.165 738.62 434.696 738.81 434.148C738.999 433.6 739.048 432.997 738.952 432.415C738.856 431.833 738.617 431.298 738.268 430.879C737.918 430.459 737.473 430.173 736.988 430.058C736.503 429.942 736 430.001 735.543 430.228C735.086 430.455 734.696 430.84 734.421 431.333C734.147 431.827 734 432.407 734 433C734 433.796 734.263 434.559 734.732 435.121C735.201 435.684 735.837 436 736.5 436Z" fill="black"/>
<path d="M736.17 463C736.664 463 737.148 462.853 737.559 462.579C737.97 462.304 738.29 461.914 738.48 461.457C738.669 461 738.718 460.497 738.622 460.012C738.525 459.527 738.287 459.082 737.938 458.732C737.588 458.383 737.143 458.144 736.658 458.048C736.173 457.952 735.67 458.001 735.213 458.19C734.756 458.38 734.366 458.7 734.091 459.111C733.817 459.522 733.67 460.006 733.67 460.5C733.67 461.163 733.933 461.799 734.402 462.268C734.871 462.737 735.507 463 736.17 463Z" fill="#231F20"/>
<text fill="black" xml:space="preserve" style="white-space: pre" font-family="Harmattan" font-size="18" letter-spacing="-0.03em"><tspan x="463.547" y="468.205"> &#x639;&#x627;&#x645;   -   &#x623;&#x631;&#x628;&#x639;&#x629; &#x648;&#x639;&#x634;&#x631;&#x648;&#x646; &#x639;&#x627;&#x645;&#x627;&#x64b;</tspan></text>
<text fill="#2600FF" xml:space="preserve" style="white-space: pre" font-family="Harmattan" font-size="25" letter-spacing="-0.03em"><tspan x="622.777" y="470.645">24</tspan></text>
<text fill="#FF0000" xml:space="preserve" style="white-space: pre" font-family="Arial" font-size="18" letter-spacing="-0.03em"><tspan x="679.99" y="466.74">:</tspan></text>
<text fill="#FF0000" xml:space="preserve" style="white-space: pre" font-family="Harmattan" font-size="18" font-weight="bold" letter-spacing="-0.03em"><tspan x="686.709" y="465.205">&#x627;&#x644;&#x639;&#x645;&#x631;  </tspan></text>
<path d="M601.329 357.77C601.329 357.931 601.289 358.089 601.213 358.23C601.137 358.371 601.027 358.491 600.893 358.579C600.759 358.668 600.605 358.721 600.445 358.735C600.286 358.749 600.125 358.723 599.978 358.659C599.817 358.59 599.679 358.479 599.577 358.337C599.475 358.196 599.413 358.029 599.398 357.856C599.383 357.682 599.415 357.507 599.491 357.35C599.567 357.193 599.684 357.06 599.83 356.964C599.976 356.868 600.145 356.813 600.319 356.806C600.493 356.798 600.666 356.837 600.82 356.92C600.973 357.003 601.102 357.125 601.191 357.275C601.281 357.425 601.328 357.596 601.329 357.77Z" fill="#00AEEF" stroke="white" stroke-width="0.6"/>
<path d="M601.242 358.167C601.148 358.377 600.982 358.547 600.774 358.646C600.565 358.745 600.328 358.765 600.106 358.704C599.884 358.643 599.691 358.504 599.562 358.313C599.433 358.122 599.377 357.891 599.404 357.662C599.431 357.433 599.539 357.221 599.709 357.065C599.879 356.909 600.099 356.819 600.329 356.811C600.559 356.803 600.785 356.878 600.965 357.023C601.145 357.167 601.267 357.371 601.309 357.598C601.345 357.79 601.321 357.988 601.242 358.167Z" fill="#00AEEF" stroke="white" stroke-width="0.6"/>
<path d="M458.496 361.534L456.178 361.371L454.119 361.881L453.496 360.242C454.978 360.121 454.452 360.107 455.797 360.335C456.894 359.905 456.411 359.989 457.879 359.881C458.481 361.475 458.355 361.152 458.496 361.534Z" fill="#00AEEF" stroke="white" stroke-width="0.6"/>
<path d="M601.483 369.577C601.387 369.79 601.217 369.961 601.004 370.058C600.791 370.156 600.551 370.172 600.326 370.106C600.102 370.039 599.91 369.894 599.785 369.696C599.66 369.499 599.61 369.263 599.646 369.031C599.682 368.8 599.8 368.59 599.979 368.439C600.158 368.289 600.385 368.208 600.619 368.212C600.852 368.216 601.077 368.305 601.25 368.462C601.424 368.618 601.534 368.833 601.562 369.065C601.583 369.24 601.555 369.417 601.483 369.577Z" fill="#00AEEF" stroke="white" stroke-width="0.6"/>
<path d="M601.483 369.576C601.389 369.788 601.221 369.958 601.012 370.057C600.802 370.155 600.564 370.176 600.341 370.114C600.118 370.052 599.924 369.912 599.795 369.719C599.666 369.526 599.611 369.294 599.639 369.064C599.667 368.834 599.776 368.622 599.947 368.466C600.119 368.31 600.34 368.22 600.572 368.213C600.803 368.207 601.03 368.283 601.209 368.429C601.389 368.575 601.511 368.78 601.552 369.008C601.587 369.2 601.563 369.398 601.483 369.576Z" fill="#00AEEF" stroke="white" stroke-width="0.6"/>
<g filter="url(#filter0_d_190_3204)">
<mask id="path-40-inside-1_190_3204" fill="white">
<path d="M746.492 363L441.492 363L605.533 363H746.492Z"/>
</mask>
<path d="M746.492 363L441.492 363L605.533 363H746.492Z" fill="#231F20"/>
<path d="M746.492 362L441.492 362V364L746.492 364V362ZM441.492 364L605.533 364V362L441.492 362V364ZM605.533 364H746.492V362H605.533V364Z" fill="black" mask="url(#path-40-inside-1_190_3204)"/>
</g>
<g filter="url(#filter1_d_190_3204)">
<mask id="path-42-inside-2_190_3204" fill="white">
<path d="M727.496 846H471.496H727.496Z"/>
</mask>
<path d="M727.496 846H471.496H727.496Z" fill="#231F20"/>
<path d="M727.496 845.7H471.496V846.3H727.496V845.7ZM471.496 846.3H727.496V845.7H471.496V846.3Z" fill="black" mask="url(#path-42-inside-2_190_3204)"/>
</g>
<text fill="#FF0000" xml:space="preserve" style="white-space: pre" font-family="Harmattan" font-size="11" font-weight="bold" letter-spacing="0px"><tspan x="582.904" y="775.764">&#x627;&#x644;&#x62a;&#x62f;&#x631;&#x64a;&#x628;&#x627;&#x62a; &#x627;&#x644;&#x633;&#x627;&#x628;&#x642;&#x647; &#x627;&#x62b;&#x646;&#x627;&#x621; &#x627;&#x644;&#x62f;&#x631;&#x627;&#x633;&#x629; &#x627;&#x644;&#x62c;&#x627;&#x645;&#x639;&#x64a;&#x629;</tspan></text>
<text fill="black" xml:space="preserve" style="white-space: pre" font-family="Harmattan" font-size="11" font-weight="bold" letter-spacing="0px"><tspan x="724.841" y="775.764"> </tspan></text>
<text fill="#FF0000" xml:space="preserve" style="white-space: pre" font-family="Arial" font-size="18" letter-spacing="-0.03em"><tspan x="571.99" y="778.74">:</tspan></text>
<text fill="black" xml:space="preserve" style="white-space: pre" font-family="Harmattan" font-size="13" font-weight="bold" letter-spacing="0px"><tspan x="567" y="792.676">&#10;</tspan></text>
<text fill="black" xml:space="preserve" style="white-space: pre" font-family="Harmattan" font-size="13" font-weight="bold" letter-spacing="0px"><tspan x="474.87" y="776.676">&#x627;&#x644;&#x62a;&#x62f;&#x631;&#x64a;&#x628; &#x627;&#x644;&#x645;&#x64a;&#x62f;&#x627;&#x646;&#x64a; &#x641;&#x64a; &#10;</tspan></text>
<text fill="#707070" xml:space="preserve" style="white-space: pre" font-family="Harmattan" font-size="11" font-weight="bold" letter-spacing="0px"><tspan x="474.597" y="799.676"> &#x627;&#x644;&#x645;&#x62f;&#x627;&#x631;&#x633; &#x627;&#x644;&#x62d;&#x643;&#x648;&#x645;&#x64a;&#x647; &#x627;&#x644;&#x645;&#x635;&#x631;&#x64a;&#x647; &#x648;&#x642;&#x62f; &#x62d;&#x635;&#x644;&#x62a; &#x639;&#x644;&#x64a; 96 % &#x643;&#x62f;&#x631;&#x62c;&#x647; &#x639;&#x644;&#x64a; &#x630;&#x644;&#x643;&#13;&#10;</tspan><tspan x="509.058" y="814.676">&#x645;&#x62f;&#x631;&#x633;&#x647; &#x62e;&#x627;&#x644;&#x62f; &#x628;&#x646; &#x627;&#x644;&#x648;&#x644;&#x64a;&#x62f; &#x627;&#x644;&#x627;&#x628;&#x62a;&#x62f;&#x627;&#x626;&#x64a;&#x629;  &#x628;&#x645;&#x64a;&#x62a; &#x63a;&#x645;&#x631;  &#x644;&#x645;&#x62f;&#x629; &#x639;&#x627;&#x645; 2022&#13;&#10;</tspan><tspan x="506.759" y="829.676">&#x645;&#x62f;&#x631;&#x633;&#x629; &#x627;&#x644;&#x62b;&#x627;&#x646;&#x648;&#x64a;&#x629; &#x627;&#x644;&#x62c;&#x62f;&#x64a;&#x62f;&#x629; &#x628;&#x646;&#x627;&#x62a; &#x628;&#x645;&#x64a;&#x62a; &#x63a;&#x645;&#x631; &#x644;&#x645;&#x62f;&#x629; &#x639;&#x627;&#x645; &#x627;&#x62e;&#x631; 2023</tspan></text>
<text fill="black" xml:space="preserve" style="white-space: pre" font-family="Harmattan" font-size="11" font-weight="bold" letter-spacing="0px"><tspan x="717.327" y="829.676">&#13;&#10;</tspan></text>
<path d="M737.989 774.776C738.554 774.776 739.106 774.665 739.576 774.458C740.046 774.25 740.413 773.955 740.629 773.611C740.845 773.266 740.902 772.886 740.792 772.52C740.681 772.153 740.409 771.817 740.01 771.553C739.61 771.289 739.101 771.109 738.546 771.036C737.992 770.963 737.417 771.001 736.895 771.144C736.373 771.287 735.927 771.529 735.612 771.839C735.298 772.15 735.131 772.515 735.131 772.888C735.131 773.389 735.432 773.869 735.968 774.223C736.504 774.577 737.231 774.776 737.989 774.776Z" fill="#231F20"/>
<text fill="#FF0000" xml:space="preserve" style="white-space: pre" font-family="Arial" font-size="18" letter-spacing="-0.03em"><tspan x="651.99" y="608.74">:</tspan></text>
<rect x="660.5" y="592.5" width="67" height="19" stroke="#5500FF"/>
<text fill="#5500FF" xml:space="preserve" style="white-space: pre" font-family="Harmattan" font-size="13" font-weight="bold" letter-spacing="0px"><tspan x="725.118" y="604.676"> </tspan></text>
<text fill="#FF0000" xml:space="preserve" style="white-space: pre" font-family="Harmattan" font-size="13" font-weight="bold" letter-spacing="0px"><tspan x="659.928" y="604.676"> &#x627;&#x644;&#x648;&#x638;&#x64a;&#x641;&#x647; &#x627;&#x644;&#x62d;&#x627;&#x644;&#x64a;&#x647;</tspan></text>
<text fill="black" xml:space="preserve" style="white-space: pre" font-family="Harmattan" font-size="13" font-weight="bold" letter-spacing="0px"><tspan x="460.871" y="605.676">&#x645;&#x639;&#x644;&#x645; &#x631;&#x64a;&#x627;&#x636;&#x64a;&#x627;&#x62a; &#x648;&#x62d;&#x627;&#x633;&#x628; &#x623;&#x644;&#x64a; &#x628;&#x645;&#x62f;&#x631;&#x633;&#x647; &#x627;&#x644;&#x634;&#x647;&#x64a;&#x62f; </tspan></text>
<text fill="black" xml:space="preserve" style="white-space: pre" font-family="Harmattan" font-size="13" font-weight="bold" letter-spacing="0px"><tspan x="457.844" y="630.676">&#x645;&#x62d;&#x645;&#x62f; &#x627;&#x644;&#x634;&#x627;&#x641;&#x639;&#x64a; &#x628;&#x64a;&#x648;&#x645;&#x64a; &#x628;&#x642;&#x631;&#x64a;&#x629; &#x639;&#x641;&#x64a;&#x641;&#x64a; &#x628;&#x648;&#x632;&#x627;&#x631;&#x629; &#x627;&#x644;&#x62a;&#x631;&#x628;&#x64a;&#x629; &#x648;&#x627;&#x644;&#x62a;&#x639;&#x644;&#x64a;&#x645; &#13;&#10;</tspan><tspan x="613.247" y="654.676">&#x628;&#x62c;&#x645;&#x647;&#x648;&#x64a;&#x629; &#x645;&#x635;&#x631; &#x627;&#x644;&#x639;&#x631;&#x628;&#x64a;&#x629; </tspan></text>
<path d="M737.989 605.776C738.554 605.776 739.106 605.665 739.576 605.458C740.046 605.25 740.413 604.955 740.629 604.611C740.845 604.266 740.902 603.886 740.792 603.52C740.681 603.153 740.409 602.817 740.01 602.553C739.61 602.289 739.101 602.109 738.546 602.036C737.992 601.963 737.417 602.001 736.895 602.144C736.373 602.287 735.927 602.529 735.612 602.839C735.298 603.15 735.131 603.515 735.131 603.888C735.131 604.389 735.432 604.869 735.968 605.223C736.504 605.577 737.231 605.776 737.989 605.776Z" fill="#231F20"/>
<path d="M718.415 633.699H718.377L717 632.341C717.644 632.561 718.358 632.675 719.083 632.675C719.808 632.675 720.522 632.561 721.167 632.341L719.785 633.699H719.756L723.139 640.716L726.222 637.192L729.652 639.406L731.809 636.632C729.781 634.321 726.595 632.551 722.802 631.627C724.251 630.706 725.384 629.589 726.121 628.352C726.931 627.015 727.366 625.592 727.403 624.152C727.443 622.336 726.586 620.56 724.963 619.094C724.32 618.451 723.446 617.922 722.418 617.557C721.391 617.191 720.242 617 719.075 617C717.908 617 716.759 617.191 715.731 617.557C714.704 617.922 713.829 618.451 713.187 619.094C711.563 620.56 710.707 622.336 710.746 624.152C710.785 625.592 711.221 627.015 712.033 628.352C712.773 629.589 713.909 630.706 715.363 631.626C708.838 633.044 704 637.893 704 641.489C704 643.617 711.537 644.677 719.079 644.677L714.853 641.054L718.415 633.699Z" fill="#71F200" stroke="#070505" stroke-width="0.5"/>
<path d="M719.094 644.69C721.239 644.694 723.382 644.602 725.509 644.415L722.027 642.17L719.094 644.69Z" fill="#71F200" stroke="#070505" stroke-width="0.5"/>
<path d="M734.73 635.809L730.132 641.734L726.61 639.462L724.574 641.78L730.954 645.902L737.548 637.418L734.73 635.809Z" fill="#F20000" stroke="#070505" stroke-width="0.5"/>
<text fill="#FF0000" xml:space="preserve" style="white-space: pre" font-family="Harmattan" font-size="13" font-weight="bold" letter-spacing="0px"><tspan x="667.393" y="690.676">&#x627;&#x644;&#x648;&#x638;&#x64a;&#x641;&#x647; &#x633;&#x627;&#x628;&#x642;&#x627;</tspan></text>
<text fill="black" xml:space="preserve" style="white-space: pre" font-family="Harmattan" font-size="13" font-weight="bold" letter-spacing="0px"><tspan x="725.448" y="690.676"> </tspan></text>
<text fill="#FF0000" xml:space="preserve" style="white-space: pre" font-family="Arial" font-size="18" letter-spacing="-0.03em"><tspan x="656.99" y="694.74">:</tspan></text>
<text fill="black" xml:space="preserve" style="white-space: pre" font-family="Harmattan" font-size="13" font-weight="bold" letter-spacing="0px"><tspan x="486.056" y="690.676">&#x641;&#x646;&#x64a; &#x637;&#x628;&#x627;&#x639;&#x629; &#x645;&#x637;&#x628;&#x639;&#x629;  &#x62e;&#x627;&#x635;&#x629; 2019&#x2013;2023&#13;&#10;</tspan><tspan x="453.683" y="714.676">&#x62a;&#x634;&#x63a;&#x64a;&#x644; &#x648;&#x635;&#x64a;&#x627;&#x646;&#x629; &#x62e;&#x637;&#x648;&#x637; &#x627;&#x644;&#x637;&#x628;&#x627;&#x639;&#x629; &#x644;&#x628;&#x639;&#x636; &#x627;&#x644;&#x637;&#x627;&#x628;&#x639;&#x627;&#x62a; </tspan><tspan x="456.78" y="738.676">&#x628;&#x62c;&#x645;&#x64a;&#x639; &#x627;&#x644;&#x645;&#x642;&#x627;&#x633;&#x627;&#x62a; &#x628;&#x627;&#x633;&#x62a;&#x62e;&#x62f;&#x627;&#x645; &#x633;&#x643;&#x631;&#x628;&#x62a;&#x627;&#x62a; &#x628;&#x631;&#x645;&#x62c;&#x64a;&#x629;</tspan></text>
<path d="M737.989 689.776C738.554 689.776 739.106 689.665 739.576 689.458C740.046 689.25 740.413 688.955 740.629 688.611C740.845 688.266 740.902 687.886 740.792 687.52C740.681 687.153 740.409 686.817 740.01 686.553C739.61 686.289 739.101 686.109 738.546 686.036C737.992 685.963 737.417 686.001 736.895 686.144C736.373 686.287 735.927 686.529 735.612 686.839C735.298 687.15 735.131 687.515 735.131 687.888C735.131 688.389 735.432 688.869 735.968 689.223C736.504 689.577 737.231 689.776 737.989 689.776Z" fill="#231F20"/>
<path d="M718.415 714.699H718.377L717 713.341C717.644 713.561 718.358 713.675 719.083 713.675C719.808 713.675 720.522 713.561 721.167 713.341L719.785 714.699H719.756L723.139 721.716L726.222 718.192L729.652 720.406L731.809 717.632C729.781 715.321 726.595 713.551 722.802 712.627C724.251 711.706 725.384 710.589 726.121 709.352C726.931 708.015 727.366 706.592 727.403 705.152C727.443 703.336 726.586 701.56 724.963 700.094C724.32 699.451 723.446 698.922 722.418 698.557C721.391 698.191 720.242 698 719.075 698C717.908 698 716.759 698.191 715.731 698.557C714.704 698.922 713.829 699.451 713.187 700.094C711.563 701.56 710.707 703.336 710.746 705.152C710.785 706.592 711.221 708.015 712.033 709.352C712.773 710.589 713.909 711.706 715.363 712.626C708.838 714.044 704 718.893 704 722.489C704 724.617 711.537 725.677 719.079 725.677L714.853 722.054L718.415 714.699Z" fill="#71F200" stroke="#070505" stroke-width="0.5"/>
<path d="M719.094 725.69C721.239 725.694 723.382 725.602 725.509 725.415L722.027 723.17L719.094 725.69Z" fill="#71F200" stroke="#070505" stroke-width="0.5"/>
<text fill="#00AEEF" xml:space="preserve" style="white-space: pre" font-family="Arial" font-size="31" font-weight="900" letter-spacing="0em"><tspan x="714" y="89.2607">AR</tspan></text>
<text fill="#00AEEF" xml:space="preserve" style="white-space: pre" font-family="Arial" font-size="31" font-weight="900" letter-spacing="0em"><tspan x="325" y="88.2607">EN</tspan></text>
<path d="M295.021 377H128.992V404.59H295.021V377Z" fill="#00AEEF"/>
<text fill="#070707" stroke="#00AEEF" stroke-width="0.3" xml:space="preserve" style="white-space: pre" font-family="Harmattan" font-size="21" font-weight="500" letter-spacing="-0.01em"><tspan x="152.5" y="138.322">&#x648;&#x64e;&#x645;&#x64e;&#x627; &#x62a;&#x64e;&#x648;&#x652;&#x641;&#x650;&#x64a;&#x642;&#x650;&#x64a; &#x625;&#x650;&#x644;&#x651;&#x64e;&#x627; &#x628;&#x650;&#x627;&#x644;&#x644;&#x651;&#x64e;&#x647;</tspan></text>
<text fill="black" xml:space="preserve" style="white-space: pre" font-family="Arial" font-size="31" font-weight="900" letter-spacing="0em"><tspan x="73.9922" y="62.2607">MOSTAFA</tspan></text>
<text fill="#00AEEF" xml:space="preserve" style="white-space: pre" font-family="Arial" font-size="31" font-weight="900" letter-spacing="0em"><tspan x="73.9922" y="101.261">SAID</tspan></text>
<text fill="black" stroke="#00AEEF" stroke-width="0.5" xml:space="preserve" style="white-space: pre" font-family="Andalus" font-size="16" letter-spacing="0.92em"><tspan x="48" y="283.469">Graphic designer</tspan></text>
<text fill="black" stroke="#00AEEF" stroke-width="0.5" xml:space="preserve" style="white-space: pre" font-family="Andalus" font-size="16" letter-spacing="0.26em"><tspan x="47" y="329.469">Time management app developer</tspan></text>
<text fill="black" stroke="#00AEEF" stroke-width="0.5" xml:space="preserve" style="white-space: pre" font-family="Andalus" font-size="13" letter-spacing="0.79em"><tspan x="48" y="239.443">Instructional designer</tspan></text>
<text fill="black" stroke="#00AEEF" stroke-width="0.5" xml:space="preserve" style="white-space: pre" font-family="Andalus" font-size="20" letter-spacing="0.62em"><tspan x="48" y="201.336">Computer teacher</tspan></text>
<text fill="white" xml:space="preserve" style="white-space: pre" font-family="Harmattan" font-size="20" font-weight="bold" letter-spacing="0em"><tspan x="163" y="395.116">Basic data&#10;</tspan></text>
<path d="M348.982 402.726C352.534 402.726 356.006 402.03 358.959 400.727C361.912 399.423 364.213 397.57 365.572 395.403C366.931 393.235 367.287 390.85 366.594 388.549C365.901 386.247 364.191 384.134 361.68 382.475C359.168 380.816 355.969 379.686 352.485 379.228C349.002 378.77 345.392 379.005 342.11 379.903C338.829 380.801 336.025 382.321 334.052 384.272C332.079 386.223 331.025 388.517 331.025 390.863C331.025 394.009 332.917 397.027 336.285 399.251C339.652 401.476 344.22 402.726 348.982 402.726Z" fill="#00AEEF" stroke="#707070"/>
<path d="M339.59 396.933C339.59 395.422 340.499 393.972 342.117 392.903C343.735 391.834 345.93 391.233 348.218 391.233C350.506 391.233 352.701 391.834 354.319 392.903C355.937 393.972 356.846 395.422 356.846 396.933H339.59ZM343.459 386.514C343.458 385.786 343.84 385.081 344.539 384.518C345.238 383.955 346.21 383.57 347.291 383.428C348.371 383.286 349.493 383.395 350.465 383.738C351.437 384.082 352.199 384.637 352.62 385.309C353.042 385.982 353.098 386.73 352.778 387.426C352.458 388.123 351.782 388.725 350.866 389.129C349.95 389.533 348.85 389.715 347.753 389.644C346.657 389.573 345.632 389.252 344.853 388.737C343.961 388.148 343.459 387.348 343.459 386.514Z" fill="white"/>
<path d="M348.67 513C349.164 513 349.648 512.853 350.059 512.579C350.47 512.304 350.79 511.914 350.98 511.457C351.169 511 351.218 510.497 351.122 510.012C351.025 509.527 350.787 509.082 350.438 508.732C350.088 508.383 349.643 508.145 349.158 508.048C348.673 507.952 348.17 508.001 347.713 508.19C347.256 508.38 346.866 508.7 346.591 509.111C346.317 509.522 346.17 510.006 346.17 510.5C346.17 511.163 346.433 511.799 346.902 512.268C347.371 512.737 348.007 513 348.67 513Z" fill="#231F20"/>
<path d="M295.021 535H128.992V562.59H295.021V535Z" fill="#00AEEF"/>
<text fill="white" xml:space="preserve" style="white-space: pre" font-family="Harmattan" font-size="20" font-weight="bold" letter-spacing="0.02em"><tspan x="141" y="553.116">Job and experience</tspan></text>
<path d="M349.446 560.704C353.294 560.704 357.055 559.95 360.254 558.538C363.453 557.126 365.947 555.119 367.419 552.77C368.892 550.422 369.277 547.838 368.526 545.345C367.776 542.852 365.923 540.562 363.202 538.764C360.481 536.967 357.015 535.743 353.241 535.247C349.468 534.751 345.556 535.006 342.001 535.978C338.447 536.951 335.408 538.598 333.271 540.712C331.133 542.825 329.992 545.31 329.992 547.852C329.992 551.261 332.042 554.53 335.69 556.94C339.338 559.35 344.287 560.704 349.446 560.704Z" fill="#00AEEF" stroke="#707070"/>
<path d="M341.348 555.203C340.613 555.203 339.908 555.01 339.388 554.666C338.868 554.323 338.576 553.857 338.576 553.371V549.355H341.314V550.112C341.314 550.168 341.33 550.224 341.361 550.276C341.394 550.328 341.441 550.375 341.501 550.415C341.561 550.455 341.632 550.486 341.711 550.508C341.789 550.53 341.873 550.541 341.958 550.541H344.252C344.423 550.54 344.586 550.495 344.707 550.415C344.766 550.376 344.814 550.329 344.846 550.278C344.879 550.226 344.896 550.171 344.896 550.115V549.358H352.328V550.115C352.328 550.229 352.397 550.338 352.519 550.418C352.64 550.499 352.805 550.544 352.977 550.544H355.277C355.448 550.543 355.612 550.498 355.732 550.417C355.853 550.337 355.92 550.228 355.92 550.115V549.358H358.658V553.375C358.658 553.615 358.586 553.853 358.448 554.075C358.165 554.524 357.625 554.88 356.946 555.067C356.61 555.159 356.25 555.206 355.887 555.206L341.348 555.203ZM338.576 547.998V545.691C338.577 545.451 338.648 545.213 338.785 544.991C338.994 544.656 339.349 544.369 339.806 544.167C340.262 543.965 340.799 543.857 341.348 543.857H343.456V543.175C343.457 542.64 343.78 542.126 344.354 541.748C344.927 541.37 345.705 541.157 346.515 541.157H350.722C351.532 541.157 352.309 541.37 352.882 541.749C353.455 542.127 353.777 542.64 353.778 543.175V543.857H355.888C356.252 543.858 356.612 543.905 356.948 543.997C357.285 544.09 357.591 544.225 357.849 544.395C358.106 544.566 358.31 544.768 358.449 544.991C358.588 545.213 358.66 545.451 358.66 545.691V547.998H338.576ZM345.68 543.173V543.855H351.559V543.173C351.558 543.027 351.469 542.887 351.312 542.783C351.156 542.68 350.943 542.622 350.722 542.621H346.515C346.294 542.622 346.082 542.68 345.925 542.783C345.768 542.887 345.68 543.027 345.68 543.173Z" fill="white"/>
<path d="M348.67 489C349.164 489 349.648 488.853 350.059 488.579C350.47 488.304 350.79 487.914 350.98 487.457C351.169 487 351.218 486.497 351.122 486.012C351.025 485.527 350.787 485.082 350.438 484.732C350.088 484.383 349.643 484.145 349.158 484.048C348.673 483.952 348.17 484.001 347.713 484.19C347.256 484.38 346.866 484.7 346.591 485.111C346.317 485.522 346.17 486.006 346.17 486.5C346.17 487.163 346.433 487.799 346.902 488.268C347.371 488.737 348.007 489 348.67 489Z" fill="#231F20"/>
<text fill="#FF0000" xml:space="preserve" style="white-space: pre" font-family="Harmattan" font-size="18" letter-spacing="-0.03em"><tspan x="255.41" y="490.205">marital status</tspan></text>
<text fill="black" xml:space="preserve" style="white-space: pre" font-family="Harmattan" font-size="18" letter-spacing="-0.03em"><tspan x="153.241" y="490.205">Single</tspan></text>
<text fill="#FF0000" xml:space="preserve" style="white-space: pre" font-family="Arial" font-size="18" letter-spacing="-0.03em"><tspan x="234.49" y="491.74">:</tspan></text>
<text fill="#FF0000" xml:space="preserve" style="white-space: pre" font-family="Harmattan" font-size="16" letter-spacing="-0.03em"><tspan x="290.927" y="515.793">address&#10;</tspan></text>
<text fill="black" xml:space="preserve" style="white-space: pre" font-family="Harmattan" font-size="18" letter-spacing="-0.03em"><tspan x="16.9371" y="517.205">Al-Rahmaniyah - Mit Ghamr - Dakahlia</tspan></text>
<text fill="#FF0000" xml:space="preserve" style="white-space: pre" font-family="Harmattan" font-size="18" letter-spacing="-0.03em"><tspan x="282.281" y="517.205">:</tspan></text>
<path d="M348.67 441.442C349.164 441.442 349.648 441.266 350.059 440.937C350.47 440.607 350.79 440.139 350.98 439.59C351.169 439.042 351.218 438.439 351.122 437.857C351.025 437.275 350.787 436.741 350.438 436.321C350.088 435.902 349.643 435.616 349.158 435.5C348.673 435.384 348.17 435.444 347.713 435.671C347.256 435.898 346.866 436.282 346.591 436.776C346.317 437.269 346.17 437.849 346.17 438.442C346.17 439.238 346.433 440.001 346.902 440.564C347.371 441.126 348.007 441.442 348.67 441.442Z" fill="#231F20"/>
<text fill="#FF0000" xml:space="preserve" style="white-space: pre" font-family="Harmattan" font-size="17" letter-spacing="-0.03em"><tspan x="303.895" y="442.999">Name</tspan></text>
<text fill="#FF0000" xml:space="preserve" style="white-space: pre" font-family="Arial" font-size="18" letter-spacing="-0.03em"><tspan x="292.49" y="442.74">:</tspan></text>
<text fill="black" xml:space="preserve" style="white-space: pre" font-family="Harmattan" font-size="18" letter-spacing="-0.03em"><tspan x="10.9284" y="440.205">Mostafa Said Abdelwahab Abdelrahman</tspan></text>
<path d="M348.67 461C349.164 461 349.648 460.853 350.059 460.579C350.47 460.304 350.79 459.914 350.98 459.457C351.169 459 351.218 458.497 351.122 458.012C351.025 457.527 350.787 457.082 350.438 456.732C350.088 456.383 349.643 456.144 349.158 456.048C348.673 455.952 348.17 456.001 347.713 456.19C347.256 456.38 346.866 456.7 346.591 457.111C346.317 457.522 346.17 458.006 346.17 458.5C346.17 459.163 346.433 459.799 346.902 460.268C347.371 460.737 348.007 461 348.67 461Z" fill="#231F20"/>
<text fill="black" xml:space="preserve" style="white-space: pre" font-family="Harmattan" font-size="18" letter-spacing="-0.03em"><tspan x="91.473" y="466.205"> Twenty-four years</tspan></text>
<text fill="#2600FF" xml:space="preserve" style="white-space: pre" font-family="Harmattan" font-size="25" letter-spacing="-0.03em"><tspan x="216.777" y="465.645">24</tspan></text>
<text fill="#FF0000" xml:space="preserve" style="white-space: pre" font-family="Arial" font-size="18" letter-spacing="-0.03em"><tspan x="292.49" y="464.74">:</tspan></text>
<text fill="#FF0000" xml:space="preserve" style="white-space: pre" font-family="Harmattan" font-size="18" letter-spacing="-0.03em"><tspan x="314.288" y="468.205">age  </tspan></text>
<path d="M211.829 357.77C211.829 357.931 211.789 358.089 211.713 358.23C211.637 358.371 211.527 358.491 211.393 358.579C211.259 358.668 211.105 358.721 210.945 358.735C210.786 358.749 210.625 358.723 210.478 358.659C210.317 358.59 210.179 358.479 210.077 358.337C209.975 358.196 209.913 358.029 209.898 357.856C209.883 357.682 209.915 357.507 209.991 357.35C210.067 357.193 210.184 357.06 210.33 356.964C210.476 356.868 210.645 356.813 210.819 356.806C210.993 356.798 211.166 356.837 211.32 356.92C211.473 357.003 211.602 357.125 211.691 357.275C211.781 357.425 211.828 357.596 211.829 357.77Z" fill="#00AEEF" stroke="white" stroke-width="0.6"/>
<path d="M211.742 358.167C211.648 358.377 211.482 358.547 211.274 358.646C211.065 358.745 210.828 358.765 210.606 358.704C210.384 358.643 210.191 358.504 210.062 358.313C209.933 358.122 209.877 357.891 209.904 357.662C209.931 357.433 210.039 357.221 210.209 357.065C210.379 356.909 210.599 356.819 210.829 356.811C211.059 356.803 211.285 356.878 211.465 357.023C211.645 357.167 211.767 357.371 211.809 357.598C211.845 357.79 211.821 357.988 211.742 358.167Z" fill="#00AEEF" stroke="white" stroke-width="0.6"/>
<path d="M68.9961 361.534L66.6779 361.371L64.619 361.881L63.9961 360.242C65.4781 360.121 64.9519 360.107 66.2974 360.335C67.3944 359.905 66.9111 359.989 68.3793 359.881C68.9808 361.475 68.8549 361.152 68.9961 361.534Z" fill="#00AEEF" stroke="white" stroke-width="0.6"/>
<path d="M211.983 369.577C211.887 369.79 211.717 369.961 211.504 370.058C211.291 370.156 211.051 370.172 210.826 370.106C210.602 370.039 210.41 369.894 210.285 369.696C210.16 369.499 210.11 369.263 210.146 369.031C210.182 368.8 210.3 368.59 210.479 368.439C210.658 368.289 210.885 368.208 211.119 368.212C211.352 368.216 211.577 368.305 211.75 368.462C211.924 368.618 212.034 368.833 212.062 369.065C212.083 369.24 212.055 369.417 211.983 369.577Z" fill="#00AEEF" stroke="white" stroke-width="0.6"/>
<path d="M211.983 369.576C211.889 369.788 211.721 369.958 211.512 370.057C211.302 370.155 211.064 370.176 210.841 370.114C210.618 370.052 210.424 369.912 210.295 369.719C210.166 369.526 210.111 369.294 210.139 369.064C210.167 368.834 210.276 368.622 210.447 368.466C210.619 368.31 210.84 368.22 211.072 368.213C211.303 368.207 211.53 368.283 211.709 368.429C211.889 368.575 212.011 368.78 212.052 369.008C212.087 369.2 212.063 369.398 211.983 369.576Z" fill="#00AEEF" stroke="white" stroke-width="0.6"/>
<g filter="url(#filter2_d_190_3204)">
<mask id="path-103-inside-3_190_3204" fill="white">
<path d="M356.992 363L51.9922 363L216.033 363H356.992Z"/>
</mask>
<path d="M356.992 363L51.9922 363L216.033 363H356.992Z" fill="#231F20"/>
<path d="M356.992 362L51.9922 362V364L356.992 364V362ZM51.9922 364L216.033 364V362L51.9922 362V364ZM216.033 364H356.992V362H216.033V364Z" fill="black" mask="url(#path-103-inside-3_190_3204)"/>
</g>
<g filter="url(#filter3_d_190_3204)">
<mask id="path-105-inside-4_190_3204" fill="white">
<path d="M337.996 844H81.9961H337.996Z"/>
</mask>
<path d="M337.996 844H81.9961H337.996Z" fill="#231F20"/>
<path d="M337.996 843.7H81.9961V844.3H337.996V843.7ZM81.9961 844.3H337.996V843.7H81.9961V844.3Z" fill="black" mask="url(#path-105-inside-4_190_3204)"/>
</g>
<text fill="#FF0000" xml:space="preserve" style="white-space: pre" font-family="Harmattan" font-size="9" font-weight="bold" letter-spacing="0px"><tspan x="196.795" y="756.352">Previous training during university studies</tspan></text>
<text fill="#FF0000" xml:space="preserve" style="white-space: pre" font-family="Arial" font-size="18" letter-spacing="-0.03em"><tspan x="182.49" y="757.74">:</tspan></text>
<text fill="black" xml:space="preserve" style="white-space: pre" font-family="Harmattan" font-size="13" font-weight="bold" letter-spacing="0px"><tspan x="101.303" y="755.676">Field training in&#10;</tspan><tspan x="177.5" y="771.676">&#10;</tspan></text>
<text fill="#707070" xml:space="preserve" style="white-space: pre" font-family="Harmattan" font-size="11" font-weight="bold" letter-spacing="0px"><tspan x="74.7705" y="777.764">Egyptian public schools, where I achieved a score of 96%. Khaled </tspan><tspan x="75.6299" y="792.764">Ibn Al-Walid Elementary School in Mit Ghamr for the year 2022. </tspan><tspan x="64.8232" y="807.764">New Girls&#39; Secondary School in Mit Ghamr for another year in 2023</tspan></text>
<path d="M348.489 756.776C349.054 756.776 349.606 756.665 350.076 756.458C350.546 756.25 350.913 755.955 351.129 755.611C351.345 755.266 351.402 754.886 351.292 754.52C351.181 754.153 350.909 753.817 350.51 753.553C350.11 753.289 349.601 753.109 349.046 753.036C348.492 752.963 347.917 753.001 347.395 753.144C346.873 753.287 346.427 753.529 346.112 753.839C345.798 754.15 345.631 754.515 345.631 754.888C345.631 755.389 345.932 755.869 346.468 756.223C347.004 756.577 347.731 756.776 348.489 756.776Z" fill="#231F20"/>
<text fill="#FF0000" xml:space="preserve" style="white-space: pre" font-family="Arial" font-size="18" letter-spacing="-0.03em"><tspan x="262.49" y="608.74">:</tspan></text>
<rect x="271.5" y="592.5" width="71" height="19" stroke="#5500FF"/>
<text fill="#FF0000" xml:space="preserve" style="white-space: pre" font-family="Harmattan" font-size="13" font-weight="bold" letter-spacing="0px"><tspan x="275.561" y="604.676">  Current job</tspan></text>
<text fill="black" xml:space="preserve" style="white-space: pre" font-family="Harmattan" font-size="13" font-weight="bold" letter-spacing="0px"><tspan x="92.0645" y="605.676">Mathematics and computer science </tspan></text>
<text fill="black" xml:space="preserve" style="white-space: pre" font-family="Harmattan" font-size="8" font-weight="bold" letter-spacing="0px"><tspan x="80.0312" y="628.646">Mathematics and computer science teacher at the Martyr Mohamed El Shafei </tspan><tspan x="79.5547" y="652.646">Bayoumi School in Afifi village, Ministry of Education, Arab Republic of Egypt</tspan></text>
<path d="M348.489 602.776C349.054 602.776 349.606 602.665 350.076 602.458C350.546 602.25 350.913 601.955 351.129 601.611C351.345 601.266 351.402 600.886 351.292 600.52C351.181 600.153 350.909 599.817 350.51 599.553C350.11 599.289 349.601 599.109 349.046 599.036C348.492 598.963 347.917 599.001 347.395 599.144C346.873 599.287 346.427 599.529 346.112 599.839C345.798 600.15 345.631 600.515 345.631 600.888C345.631 601.389 345.932 601.869 346.468 602.223C347.004 602.577 347.731 602.776 348.489 602.776Z" fill="#231F20"/>
<path d="M319.415 631.699H319.377L318 630.341C318.644 630.561 319.358 630.675 320.083 630.675C320.808 630.675 321.522 630.561 322.167 630.341L320.785 631.699H320.756L324.139 638.716L327.222 635.192L330.652 637.406L332.809 634.632C330.781 632.321 327.595 630.551 323.802 629.627C325.251 628.706 326.384 627.589 327.121 626.352C327.931 625.015 328.366 623.592 328.403 622.152C328.443 620.336 327.586 618.56 325.963 617.094C325.32 616.451 324.446 615.922 323.418 615.557C322.391 615.191 321.242 615 320.075 615C318.908 615 317.759 615.191 316.731 615.557C315.704 615.922 314.829 616.451 314.187 617.094C312.563 618.56 311.707 620.336 311.746 622.152C311.785 623.592 312.221 625.015 313.033 626.352C313.773 627.589 314.909 628.706 316.363 629.626C309.838 631.044 305 635.893 305 639.489C305 641.617 312.537 642.677 320.079 642.677L315.853 639.054L319.415 631.699Z" fill="#71F200" stroke="#070505" stroke-width="0.5"/>
<path d="M320.094 642.69C322.239 642.694 324.382 642.602 326.509 642.415L323.027 640.17L320.094 642.69Z" fill="#71F200" stroke="#070505" stroke-width="0.5"/>
<path d="M335.73 633.809L331.132 639.734L327.61 637.462L325.574 639.78L331.954 643.902L338.548 635.418L335.73 633.809Z" fill="#71F200" stroke="#070505" stroke-width="0.5"/>
<text fill="#FF0000" xml:space="preserve" style="white-space: pre" font-family="Harmattan" font-size="13" font-weight="bold" letter-spacing="0px"><tspan x="280.355" y="690.676">Previous job</tspan></text>
<text fill="#FF0000" xml:space="preserve" style="white-space: pre" font-family="Arial" font-size="18" letter-spacing="-0.03em"><tspan x="267.49" y="694.74">:</tspan></text>
<text fill="black" xml:space="preserve" style="white-space: pre" font-family="Harmattan" font-size="13" font-weight="bold" letter-spacing="0px"><tspan x="61.1992" y="692.676">I worked in a printing press for four years.</tspan></text>
<path d="M348.858 691.776C349.423 691.776 349.976 691.665 350.446 691.458C350.916 691.25 351.282 690.955 351.498 690.611C351.714 690.266 351.771 689.886 351.661 689.52C351.55 689.153 351.278 688.817 350.879 688.553C350.479 688.289 349.97 688.109 349.415 688.036C348.861 687.963 348.286 688.001 347.764 688.144C347.242 688.287 346.796 688.529 346.482 688.839C346.168 689.15 346 689.515 346 689.888C346 690.389 346.301 690.869 346.837 691.223C347.373 691.577 348.1 691.776 348.858 691.776Z" fill="#231F20"/>
<path d="M319.415 717.699H319.377L318 716.341C318.644 716.561 319.358 716.675 320.083 716.675C320.808 716.675 321.522 716.561 322.167 716.341L320.785 717.699H320.756L324.139 724.716L327.222 721.192L330.652 723.406L332.809 720.632C330.781 718.321 327.595 716.551 323.802 715.627C325.251 714.706 326.384 713.589 327.121 712.352C327.931 711.015 328.366 709.592 328.403 708.152C328.443 706.336 327.586 704.56 325.963 703.094C325.32 702.451 324.446 701.922 323.418 701.557C322.391 701.191 321.242 701 320.075 701C318.908 701 317.759 701.191 316.731 701.557C315.704 701.922 314.829 702.451 314.187 703.094C312.563 704.56 311.707 706.336 311.746 708.152C311.785 709.592 312.221 711.015 313.033 712.352C313.773 713.589 314.909 714.706 316.363 715.626C309.838 717.044 305 721.893 305 725.489C305 727.617 312.537 728.677 320.079 728.677L315.853 725.054L319.415 717.699Z" fill="#71F200" stroke="#070505" stroke-width="0.5"/>
<path d="M320.094 728.69C322.239 728.694 324.382 728.602 326.509 728.415L323.027 726.17L320.094 728.69Z" fill="#71F200" stroke="#070505" stroke-width="0.5"/>
<rect x="408" width="15" height="846" fill="url(#paint0_linear_190_3204)"/>
<defs>
<filter id="filter0_d_190_3204" x="437.492" y="362" width="313" height="10" filterUnits="userSpaceOnUse" color-interpolation-filters="sRGB">
<feFlood flood-opacity="0" result="BackgroundImageFix"/>
<feColorMatrix in="SourceAlpha" type="matrix" values="0 0 0 0 0 0 0 0 0 0 0 0 0 0 0 0 0 0 127 0" result="hardAlpha"/>
<feOffset dy="4"/>
<feGaussianBlur stdDeviation="2"/>
<feComposite in2="hardAlpha" operator="out"/>
<feColorMatrix type="matrix" values="0 0 0 0 0 0 0 0 0 0 0 0 0 0 0 0 0 0 0.25 0"/>
<feBlend mode="normal" in2="BackgroundImageFix" result="effect1_dropShadow_190_3204"/>
<feBlend mode="normal" in="SourceGraphic" in2="effect1_dropShadow_190_3204" result="shape"/>
</filter>
<filter id="filter1_d_190_3204" x="467.496" y="845.7" width="264" height="8.59961" filterUnits="userSpaceOnUse" color-interpolation-filters="sRGB">
<feFlood flood-opacity="0" result="BackgroundImageFix"/>
<feColorMatrix in="SourceAlpha" type="matrix" values="0 0 0 0 0 0 0 0 0 0 0 0 0 0 0 0 0 0 127 0" result="hardAlpha"/>
<feOffset dy="4"/>
<feGaussianBlur stdDeviation="2"/>
<feComposite in2="hardAlpha" operator="out"/>
<feColorMatrix type="matrix" values="0 0 0 0 0 0 0 0 0 0 0 0 0 0 0 0 0 0 0.25 0"/>
<feBlend mode="normal" in2="BackgroundImageFix" result="effect1_dropShadow_190_3204"/>
<feBlend mode="normal" in="SourceGraphic" in2="effect1_dropShadow_190_3204" result="shape"/>
</filter>
<filter id="filter2_d_190_3204" x="47.9922" y="362" width="313" height="10" filterUnits="userSpaceOnUse" color-interpolation-filters="sRGB">
<feFlood flood-opacity="0" result="BackgroundImageFix"/>
<feColorMatrix in="SourceAlpha" type="matrix" values="0 0 0 0 0 0 0 0 0 0 0 0 0 0 0 0 0 0 127 0" result="hardAlpha"/>
<feOffset dy="4"/>
<feGaussianBlur stdDeviation="2"/>
<feComposite in2="hardAlpha" operator="out"/>
<feColorMatrix type="matrix" values="0 0 0 0 0 0 0 0 0 0 0 0 0 0 0 0 0 0 0.25 0"/>
<feBlend mode="normal" in2="BackgroundImageFix" result="effect1_dropShadow_190_3204"/>
<feBlend mode="normal" in="SourceGraphic" in2="effect1_dropShadow_190_3204" result="shape"/>
</filter>
<filter id="filter3_d_190_3204" x="77.9961" y="843.7" width="264" height="8.59961" filterUnits="userSpaceOnUse" color-interpolation-filters="sRGB">
<feFlood flood-opacity="0" result="BackgroundImageFix"/>
<feColorMatrix in="SourceAlpha" type="matrix" values="0 0 0 0 0 0 0 0 0 0 0 0 0 0 0 0 0 0 127 0" result="hardAlpha"/>
<feOffset dy="4"/>
<feGaussianBlur stdDeviation="2"/>
<feComposite in2="hardAlpha" operator="out"/>
<feColorMatrix type="matrix" values="0 0 0 0 0 0 0 0 0 0 0 0 0 0 0 0 0 0 0.25 0"/>
<feBlend mode="normal" in2="BackgroundImageFix" result="effect1_dropShadow_190_3204"/>
<feBlend mode="normal" in="SourceGraphic" in2="effect1_dropShadow_190_3204" result="shape"/>
</filter>
<linearGradient id="paint0_linear_190_3204" x1="423" y1="423" x2="408" y2="423" gradientUnits="userSpaceOnUse">
<stop offset="0.432692" stop-color="#535353"/>
<stop offset="0.475962"/>
<stop offset="0.476062" stop-color="#00B3FF"/>
</linearGradient>
</defs>
</svg>
