<svg width="353" height="881" viewBox="0 0 353 881" fill="none" xmlns="http://www.w3.org/2000/svg">
<rect width="353" height="881" fill="#F5F5F5"/>
<path d="M264.521 349H98.4922V376.59H264.521V349Z" fill="#00AEEF"/>
<text fill="#070707" stroke="#00AEEF" stroke-width="0.3" xml:space="preserve" style="white-space: pre" font-family="Harmattan" font-size="21" font-weight="500" letter-spacing="-0.01em"><tspan x="122" y="110.322">&#x648;&#x64e;&#x645;&#x64e;&#x627; &#x62a;&#x64e;&#x648;&#x652;&#x641;&#x650;&#x64a;&#x642;&#x650;&#x64a; &#x625;&#x650;&#x644;&#x651;&#x64e;&#x627; &#x628;&#x650;&#x627;&#x644;&#x644;&#x651;&#x64e;&#x647;</tspan></text>
<text fill="black" xml:space="preserve" style="white-space: pre" font-family="Arial" font-size="31" font-weight="900" letter-spacing="0em"><tspan x="43.4922" y="34.2607">MOSTAFA</tspan></text>
<text fill="#00AEEF" xml:space="preserve" style="white-space: pre" font-family="Arial" font-size="31" font-weight="900" letter-spacing="0em"><tspan x="43.4922" y="73.2607">SAID</tspan></text>
<text fill="black" stroke="#00AEEF" stroke-width="0.5" xml:space="preserve" style="white-space: pre" font-family="Andalus" font-size="30" letter-spacing="0.71em"><tspan x="17.4922" y="262.254">&#x645;&#x635;&#x645;&#x645; &#x62c;&#x631;&#x627;&#x641;&#x64a;&#x643;</tspan></text>
<text fill="black" stroke="#00AEEF" stroke-width="0.5" xml:space="preserve" style="white-space: pre" font-family="Andalus" font-size="25" letter-spacing="0.26em"><tspan x="17.4922" y="310.545">&#x645;&#x637;&#x648;&#x631; &#x62a;&#x637;&#x628;&#x64a;&#x642; &#x644;&#x627;&#x62f;&#x627;&#x631;&#x629; &#x627;&#x644;&#x648;&#x642;&#x62a;</tspan></text>
<text fill="black" stroke="#00AEEF" stroke-width="0.5" xml:space="preserve" style="white-space: pre" font-family="Andalus" font-size="29" letter-spacing="0.72em"><tspan x="28.4922" y="216.912">&#x645;&#x635;&#x645;&#x645; &#x62a;&#x639;&#x644;&#x64a;&#x645;&#x64a;</tspan></text>
<text fill="black" stroke="#00AEEF" stroke-width="0.5" xml:space="preserve" style="white-space: pre" font-family="Andalus" font-size="28" letter-spacing="0.6em"><tspan x="22.4922" y="173.07">&#x645;&#x639;&#x644;&#x645; &#x62d;&#x627;&#x633;&#x628; &#x623;&#x644;&#x64a;</tspan></text>
<text fill="white" xml:space="preserve" style="white-space: pre" font-family="Harmattan" font-size="20" font-weight="bold" letter-spacing="0em"><tspan x="132.492" y="367.116">&#x627;&#x644;&#x628;&#x64a;&#x627;&#x646;&#x627;&#x62a; &#x627;&#x644;&#x627;&#x633;&#x627;&#x633;&#x64a;&#x629;</tspan></text>
<path d="M318.483 374.726C322.034 374.726 325.506 374.03 328.459 372.727C331.412 371.423 333.714 369.57 335.073 367.403C336.432 365.235 336.787 362.85 336.095 360.549C335.402 358.247 333.691 356.134 331.18 354.475C328.669 352.816 325.469 351.686 321.986 351.228C318.503 350.77 314.892 351.005 311.611 351.903C308.33 352.801 305.525 354.321 303.552 356.272C301.579 358.223 300.526 360.517 300.526 362.863C300.526 366.009 302.418 369.027 305.785 371.251C309.153 373.476 313.72 374.726 318.483 374.726Z" fill="#00AEEF" stroke="#707070"/>
<path d="M309.09 368.933C309.09 367.422 309.999 365.972 311.617 364.903C313.235 363.834 315.43 363.233 317.718 363.233C320.006 363.233 322.201 363.834 323.819 364.903C325.437 365.972 326.346 367.422 326.346 368.933H309.09ZM312.959 358.514C312.958 357.786 313.34 357.081 314.039 356.518C314.738 355.955 315.71 355.57 316.791 355.428C317.871 355.286 318.993 355.395 319.965 355.738C320.937 356.082 321.699 356.637 322.12 357.309C322.542 357.982 322.598 358.73 322.278 359.426C321.958 360.123 321.282 360.725 320.366 361.129C319.45 361.533 318.35 361.715 317.253 361.644C316.157 361.573 315.132 361.252 314.353 360.737C313.461 360.148 312.959 359.348 312.959 358.514Z" fill="white"/>
<path d="M318.169 485C318.664 485 319.147 484.853 319.558 484.579C319.969 484.304 320.29 483.914 320.479 483.457C320.668 483 320.718 482.497 320.621 482.012C320.525 481.527 320.287 481.082 319.937 480.732C319.588 480.383 319.142 480.145 318.657 480.048C318.172 479.952 317.67 480.001 317.213 480.19C316.756 480.38 316.365 480.7 316.091 481.111C315.816 481.522 315.669 482.006 315.669 482.5C315.669 483.163 315.933 483.799 316.402 484.268C316.871 484.737 317.506 485 318.169 485Z" fill="#231F20"/>
<path d="M264.521 507H98.4922V534.59H264.521V507Z" fill="#00AEEF"/>
<text fill="white" xml:space="preserve" style="white-space: pre" font-family="Harmattan" font-size="20" font-weight="bold" letter-spacing="0.02em"><tspan x="120" y="525.116">&#x627;&#x644;&#x648;&#x638;&#x64a;&#x641;&#x647; &#x648;&#x627;&#x644;&#x62e;&#x628;&#x631;&#x627;&#x62a;</tspan></text>
<path d="M318.946 532.704C322.794 532.704 326.555 531.95 329.754 530.538C332.953 529.126 335.447 527.119 336.919 524.77C338.392 522.422 338.777 519.838 338.026 517.345C337.276 514.852 335.423 512.562 332.702 510.764C329.981 508.967 326.515 507.743 322.741 507.247C318.968 506.751 315.056 507.006 311.501 507.978C307.947 508.951 304.908 510.598 302.771 512.712C300.633 514.825 299.492 517.31 299.492 519.852C299.492 523.261 301.542 526.53 305.19 528.94C308.838 531.35 313.787 532.704 318.946 532.704Z" fill="#00AEEF" stroke="#707070"/>
<path d="M310.848 527.203C310.113 527.203 309.408 527.01 308.888 526.666C308.368 526.323 308.076 525.857 308.076 525.371V521.355H310.814V522.112C310.814 522.168 310.83 522.224 310.861 522.276C310.894 522.328 310.941 522.375 311.001 522.415C311.061 522.455 311.132 522.486 311.211 522.508C311.289 522.53 311.373 522.541 311.458 522.541H313.752C313.923 522.54 314.086 522.495 314.207 522.415C314.266 522.376 314.314 522.329 314.346 522.278C314.379 522.226 314.396 522.171 314.396 522.115V521.358H321.828V522.115C321.828 522.229 321.897 522.338 322.019 522.418C322.14 522.499 322.305 522.544 322.477 522.544H324.777C324.948 522.543 325.112 522.498 325.232 522.417C325.353 522.337 325.42 522.228 325.42 522.115V521.358H328.158V525.375C328.158 525.615 328.086 525.853 327.948 526.075C327.665 526.524 327.125 526.88 326.446 527.067C326.11 527.159 325.75 527.206 325.387 527.206L310.848 527.203ZM308.076 519.998V517.691C308.077 517.451 308.148 517.213 308.285 516.991C308.494 516.656 308.849 516.369 309.306 516.167C309.762 515.965 310.299 515.857 310.848 515.857H312.956V515.175C312.957 514.64 313.28 514.126 313.854 513.748C314.427 513.37 315.205 513.157 316.015 513.157H320.222C321.032 513.157 321.809 513.37 322.382 513.749C322.955 514.127 323.277 514.64 323.278 515.175V515.857H325.388C325.752 515.858 326.112 515.905 326.448 515.997C326.785 516.09 327.091 516.225 327.349 516.395C327.606 516.566 327.81 516.768 327.949 516.991C328.088 517.213 328.16 517.451 328.16 517.691V519.998H308.076ZM315.18 515.173V515.855H321.059V515.173C321.058 515.027 320.969 514.887 320.812 514.783C320.656 514.68 320.443 514.622 320.222 514.621H316.015C315.794 514.622 315.582 514.68 315.425 514.783C315.268 514.887 315.18 515.027 315.18 515.173Z" fill="white"/>
<path d="M318.169 461C318.664 461 319.147 460.853 319.558 460.579C319.969 460.304 320.29 459.914 320.479 459.457C320.668 459 320.718 458.497 320.621 458.012C320.525 457.527 320.287 457.082 319.937 456.732C319.588 456.383 319.142 456.145 318.657 456.048C318.172 455.952 317.67 456.001 317.213 456.19C316.756 456.38 316.365 456.7 316.091 457.111C315.816 457.522 315.669 458.006 315.669 458.5C315.669 459.163 315.933 459.799 316.402 460.268C316.871 460.737 317.506 461 318.169 461Z" fill="#231F20"/>
<text fill="#FF0000" xml:space="preserve" style="white-space: pre" font-family="Harmattan" font-size="18" font-weight="bold" letter-spacing="-0.03em"><tspan x="213.693" y="466.205">&#x627;&#x644;&#x62d;&#x627;&#x644;&#x629; &#x627;&#x644;&#x627;&#x62c;&#x62a;&#x645;&#x627;&#x639;&#x64a;&#x629; </tspan></text>
<text fill="black" xml:space="preserve" style="white-space: pre" font-family="Harmattan" font-size="18" letter-spacing="-0.03em"><tspan x="102.214" y="462.205">&#x623;&#x639;&#x632;&#x628; - &#x63a;&#x64a;&#x631; &#x645;&#x62a;&#x632;&#x648;&#x62c;</tspan></text>
<text fill="#FF0000" xml:space="preserve" style="white-space: pre" font-family="Arial" font-size="18" letter-spacing="-0.03em"><tspan x="203.99" y="463.74">:</tspan></text>
<text fill="#FF0000" xml:space="preserve" style="white-space: pre" font-family="Harmattan" font-size="18" font-weight="bold" letter-spacing="-0.03em"><tspan x="262.193" y="490.205">&#x627;&#x644;&#x639;&#x646;&#x648;&#x627;&#x646;&#10;</tspan></text>
<text fill="black" xml:space="preserve" style="white-space: pre" font-family="Harmattan" font-size="18" letter-spacing="-0.03em"><tspan x="83.0262" y="489.205">&#x627;&#x644;&#x631;&#x62d;&#x645;&#x627;&#x646;&#x64a;&#x629; - &#x645;&#x64a;&#x62a; &#x63a;&#x645;&#x631; - &#x627;&#x644;&#x62f;&#x642;&#x647;&#x644;&#x64a;&#x629;&#13;</tspan></text>
<text fill="#FF0000" xml:space="preserve" style="white-space: pre" font-family="Harmattan" font-size="18" letter-spacing="-0.03em"><tspan x="251.781" y="489.205">:</tspan></text>
<text fill="#FF0000" xml:space="preserve" style="white-space: pre" font-family="Harmattan" font-size="18" font-weight="bold" letter-spacing="-0.03em"><tspan x="267.096" y="410.205">&#x627;&#x644;&#x627;&#x633;&#x645;  </tspan></text>
<text fill="#FF0000" xml:space="preserve" style="white-space: pre" font-family="Arial" font-size="18" letter-spacing="-0.03em"><tspan x="261.99" y="414.74">:</tspan></text>
<text fill="black" xml:space="preserve" style="white-space: pre" font-family="Harmattan" font-size="18" letter-spacing="-0.03em"><tspan x="60.2918" y="412.205"> &#x645;&#x635;&#x637;&#x641;&#x64a; &#x633;&#x639;&#x64a;&#x62f; &#x639;&#x628;&#x62f;&#x627;&#x644;&#x648;&#x647;&#x627;&#x628; &#x639;&#x628;&#x62f;&#x627;&#x644;&#x631;&#x62d;&#x645;&#x646;</tspan></text>
<path d="M318.5 408C318.994 408 319.478 407.824 319.889 407.494C320.3 407.165 320.62 406.696 320.81 406.148C320.999 405.6 321.048 404.997 320.952 404.415C320.856 403.833 320.617 403.298 320.268 402.879C319.918 402.459 319.473 402.173 318.988 402.058C318.503 401.942 318 402.001 317.543 402.228C317.086 402.455 316.696 402.84 316.421 403.333C316.147 403.827 316 404.407 316 405C316 405.796 316.263 406.559 316.732 407.121C317.201 407.684 317.837 408 318.5 408Z" fill="black"/>
<path d="M318.169 435C318.664 435 319.147 434.853 319.558 434.579C319.969 434.304 320.29 433.914 320.479 433.457C320.668 433 320.718 432.497 320.621 432.012C320.525 431.527 320.287 431.082 319.937 430.732C319.588 430.383 319.142 430.144 318.657 430.048C318.172 429.952 317.67 430.001 317.213 430.19C316.756 430.38 316.365 430.7 316.091 431.111C315.816 431.522 315.669 432.006 315.669 432.5C315.669 433.163 315.933 433.799 316.402 434.268C316.871 434.737 317.506 435 318.169 435Z" fill="#231F20"/>
<text fill="black" xml:space="preserve" style="white-space: pre" font-family="Harmattan" font-size="18" letter-spacing="-0.03em"><tspan x="69.5467" y="440.205"> &#x639;&#x627;&#x645;   -   &#x623;&#x631;&#x628;&#x639;&#x629; &#x648;&#x639;&#x634;&#x631;&#x648;&#x646; &#x639;&#x627;&#x645;&#x627;&#x64b;</tspan></text>
<text fill="#2600FF" xml:space="preserve" style="white-space: pre" font-family="Harmattan" font-size="25" letter-spacing="-0.03em"><tspan x="227.777" y="439.645">24</tspan></text>
<text fill="#FF0000" xml:space="preserve" style="white-space: pre" font-family="Arial" font-size="18" letter-spacing="-0.03em"><tspan x="261.99" y="438.74">:</tspan></text>
<text fill="#FF0000" xml:space="preserve" style="white-space: pre" font-family="Harmattan" font-size="18" font-weight="bold" letter-spacing="-0.03em"><tspan x="268.709" y="437.205">&#x627;&#x644;&#x639;&#x645;&#x631;  </tspan></text>
<path d="M181.328 329.77C181.328 329.931 181.289 330.089 181.213 330.23C181.137 330.371 181.027 330.491 180.893 330.579C180.759 330.668 180.605 330.721 180.445 330.735C180.285 330.749 180.124 330.723 179.977 330.659C179.817 330.59 179.679 330.479 179.577 330.337C179.475 330.196 179.413 330.029 179.398 329.856C179.383 329.682 179.415 329.507 179.491 329.35C179.567 329.193 179.684 329.06 179.829 328.964C179.975 328.868 180.144 328.813 180.318 328.806C180.493 328.798 180.666 328.837 180.819 328.92C180.973 329.003 181.101 329.125 181.191 329.275C181.28 329.425 181.328 329.596 181.328 329.77Z" fill="#00AEEF" stroke="white" stroke-width="0.6"/>
<path d="M181.242 330.167C181.148 330.377 180.982 330.547 180.774 330.646C180.565 330.745 180.328 330.765 180.106 330.704C179.884 330.643 179.691 330.504 179.562 330.313C179.433 330.122 179.377 329.891 179.404 329.662C179.431 329.433 179.539 329.221 179.709 329.065C179.879 328.909 180.099 328.819 180.329 328.811C180.559 328.803 180.785 328.878 180.965 329.023C181.145 329.167 181.267 329.371 181.309 329.598C181.345 329.79 181.321 329.988 181.242 330.167Z" fill="#00AEEF" stroke="white" stroke-width="0.6"/>
<path d="M38.4961 333.534L36.1779 333.371L34.119 333.881L33.4961 332.242C34.9781 332.121 34.4519 332.107 35.7974 332.335C36.8944 331.905 36.4111 331.989 37.8793 331.881C38.4808 333.475 38.3549 333.152 38.4961 333.534Z" fill="#00AEEF" stroke="white" stroke-width="0.6"/>
<path d="M181.483 341.577C181.387 341.79 181.217 341.961 181.004 342.058C180.791 342.156 180.551 342.172 180.326 342.106C180.102 342.039 179.91 341.894 179.785 341.696C179.66 341.499 179.61 341.263 179.646 341.031C179.682 340.8 179.8 340.59 179.979 340.439C180.158 340.289 180.385 340.208 180.619 340.212C180.852 340.216 181.077 340.305 181.25 340.462C181.424 340.618 181.534 340.833 181.562 341.065C181.583 341.24 181.555 341.417 181.483 341.577Z" fill="#00AEEF" stroke="white" stroke-width="0.6"/>
<path d="M181.483 341.576C181.389 341.788 181.221 341.958 181.012 342.057C180.802 342.155 180.564 342.176 180.341 342.114C180.118 342.052 179.924 341.912 179.795 341.719C179.666 341.526 179.611 341.294 179.639 341.064C179.667 340.834 179.776 340.622 179.947 340.466C180.119 340.31 180.34 340.22 180.572 340.213C180.803 340.207 181.03 340.283 181.209 340.429C181.389 340.575 181.511 340.78 181.552 341.008C181.587 341.2 181.563 341.398 181.483 341.576Z" fill="#00AEEF" stroke="white" stroke-width="0.6"/>
<g filter="url(#filter0_d_0_1)">
<mask id="path-38-inside-1_0_1" fill="white">
<path d="M326.492 335L21.4922 335L185.533 335H326.492Z"/>
</mask>
<path d="M326.492 335L21.4922 335L185.533 335H326.492Z" fill="#231F20"/>
<path d="M326.492 335L21.4922 335L185.533 335H326.492Z" stroke="black" stroke-width="2" mask="url(#path-38-inside-1_0_1)"/>
</g>
<path d="M186.424 821.808H163.37C161.634 821.808 160.226 822.761 160.226 823.937V836.711C160.226 837.886 161.634 838.84 163.37 838.84H186.424C188.161 838.84 189.568 837.886 189.568 836.711V823.937C189.568 822.761 188.161 821.808 186.424 821.808Z" fill="#29B71C"/>
<path d="M184.328 836.001H165.466C165.188 836.001 164.921 835.927 164.725 835.793C164.528 835.66 164.418 835.48 164.418 835.292C164.418 835.103 164.528 834.923 164.725 834.79C164.921 834.657 165.188 834.582 165.466 834.582H184.328C184.606 834.582 184.873 834.657 185.069 834.79C185.266 834.923 185.376 835.103 185.376 835.292C185.376 835.48 185.266 835.66 185.069 835.793C184.873 835.927 184.606 836.001 184.328 836.001Z" fill="#EEEEEE"/>
<path d="M178.041 836.711C177.763 836.711 177.497 836.636 177.3 836.503C177.104 836.37 176.993 836.189 176.993 836.001V834.582C176.993 834.394 177.104 834.213 177.3 834.08C177.497 833.947 177.763 833.872 178.041 833.872C178.319 833.872 178.586 833.947 178.782 834.08C178.979 834.213 179.089 834.394 179.089 834.582V836.001C179.089 836.189 178.979 836.37 178.782 836.503C178.586 836.636 178.319 836.711 178.041 836.711Z" fill="#00AEEF"/>
<path d="M179.561 827.96L172.225 825.476C172.066 825.422 171.889 825.396 171.71 825.401C171.531 825.406 171.358 825.442 171.206 825.505C171.053 825.569 170.928 825.657 170.84 825.763C170.753 825.868 170.706 825.987 170.706 826.108V831.7C170.707 831.827 170.759 831.95 170.854 832.059C170.95 832.168 171.087 832.257 171.251 832.317C171.403 832.379 171.577 832.411 171.754 832.41C171.95 832.41 172.143 832.373 172.309 832.303L179.645 829.195C179.804 829.128 179.933 829.033 180.02 828.921C180.106 828.809 180.147 828.683 180.137 828.556C180.127 828.431 180.069 828.31 179.968 828.206C179.866 828.101 179.726 828.016 179.561 827.96Z" fill="#EEEEEE"/>
<path d="M163.37 821.808C162.536 821.808 161.736 822.032 161.147 822.431C160.557 822.83 160.226 823.372 160.226 823.937V836.711C160.226 837.275 160.557 837.817 161.147 838.216C161.736 838.615 162.536 838.84 163.37 838.84H174.897V821.808H163.37Z" fill="#E53935"/>
<path d="M165.466 834.582C165.188 834.582 164.921 834.657 164.725 834.79C164.528 834.923 164.418 835.103 164.418 835.292C164.418 835.48 164.528 835.66 164.725 835.793C164.921 835.927 165.188 836.001 165.466 836.001H174.897V834.582H165.466Z" fill="#FAFAFA"/>
<path d="M172.225 825.476C172.066 825.422 171.889 825.396 171.71 825.401C171.531 825.406 171.358 825.442 171.206 825.505C171.053 825.569 170.928 825.657 170.84 825.763C170.753 825.868 170.706 825.987 170.706 826.108V831.7C170.707 831.827 170.759 831.95 170.854 832.059C170.95 832.168 171.087 832.257 171.251 832.317C171.403 832.379 171.577 832.411 171.754 832.41C171.95 832.41 172.143 832.373 172.309 832.303L174.898 831.203V826.378L172.225 825.476Z" fill="#00AEEF"/>
<path d="M220.378 824.231H223.801L218.911 821V823.262C218.911 823.797 219.568 824.231 220.378 824.231Z" fill="#00AEEF"/>
<path d="M218.378 822.615H198.127V828.269H218.378C218.672 828.269 218.911 828.128 218.911 827.955V822.929C218.911 822.756 218.672 822.615 218.378 822.615Z" fill="#C6CACF"/>
<path d="M217.168 828.269H194.981C194.517 828.269 194.285 827.883 194.613 827.656L198.412 825.038L194.613 822.42C194.285 822.194 194.517 821.808 194.981 821.808H217.168C217.455 821.808 217.688 821.968 217.688 822.167V827.91C217.689 828.108 217.455 828.269 217.168 828.269Z" fill="#00AEEF"/>
<path d="M206.14 823.93H204.122C203.843 823.93 203.617 824.079 203.617 824.263V826.263C203.617 826.447 203.843 826.597 204.122 826.597C204.401 826.597 204.627 826.447 204.627 826.263V825.596H206.14C206.419 825.596 206.645 825.447 206.645 825.263V824.263C206.645 824.079 206.419 823.93 206.14 823.93ZM205.636 824.93H204.627V824.596H205.636V824.93Z" fill="white"/>
<path d="M208.663 823.93H207.654C207.375 823.93 207.149 824.079 207.149 824.263V826.263C207.149 826.447 207.375 826.597 207.654 826.597H209.672C209.951 826.597 210.177 826.447 210.177 826.263V824.93C210.177 824.378 209.498 823.93 208.663 823.93ZM209.168 825.93H208.159V824.596H208.663C208.941 824.596 209.168 824.746 209.168 824.93L209.168 825.93Z" fill="white"/>
<path d="M213.205 823.93H211.186C210.908 823.93 210.682 824.079 210.682 824.263V826.263C210.682 826.447 210.908 826.597 211.186 826.597C211.465 826.597 211.691 826.447 211.691 826.263V825.596H212.7C212.979 825.596 213.205 825.447 213.205 825.263C213.205 825.079 212.979 824.93 212.7 824.93H211.691V824.596H213.205C213.483 824.596 213.709 824.447 213.709 824.263C213.709 824.079 213.483 823.93 213.205 823.93Z" fill="white"/>
<path d="M218.414 839.577H203.514C203.24 839.577 203.017 839.42 203.017 839.227V829.427C203.017 829.234 203.24 829.077 203.514 829.077H218.414C218.689 829.077 218.911 829.234 218.911 829.427V839.227C218.911 839.42 218.689 839.577 218.414 839.577Z" fill="#C6CACF"/>
<path d="M204.011 838.877V829.077H203.514C203.24 829.077 203.017 829.234 203.017 829.427V839.227C203.017 839.42 203.24 839.577 203.514 839.577H218.414C218.689 839.577 218.911 839.42 218.911 839.227V838.877H204.011Z" fill="#00AEEF"/>
<path d="M217.218 837.961H212.046C211.786 837.961 211.575 837.806 211.575 837.615V833.461C211.575 833.27 211.786 833.115 212.046 833.115H217.218C217.478 833.115 217.688 833.27 217.688 833.461V837.615C217.688 837.806 217.478 837.961 217.218 837.961Z" fill="black"/>
<path d="M216.466 833.923H212.798V837.154H216.466V833.923Z" fill="#00AEEF"/>
<path d="M217.242 831.263H211.691C211.412 831.263 211.187 831.114 211.187 830.93C211.187 830.746 211.412 830.597 211.691 830.597H217.242C217.52 830.597 217.746 830.746 217.746 830.93C217.746 831.114 217.52 831.263 217.242 831.263Z" fill="#EF0000"/>
<path d="M217.242 832.596H211.691C211.412 832.596 211.187 832.447 211.187 832.263C211.187 832.079 211.412 831.93 211.691 831.93H217.242C217.52 831.93 217.746 832.079 217.746 832.263C217.746 832.447 217.52 832.596 217.242 832.596Z" fill="#EF0000"/>
<path d="M210.177 831.263H205.131C204.852 831.263 204.626 831.114 204.626 830.93C204.626 830.746 204.852 830.597 205.131 830.597H210.177C210.456 830.597 210.681 830.746 210.681 830.93C210.681 831.114 210.456 831.263 210.177 831.263Z" fill="#EF0000"/>
<path d="M210.177 832.596H205.131C204.852 832.596 204.626 832.447 204.626 832.263C204.626 832.079 204.852 831.93 205.131 831.93H210.177C210.455 831.93 210.681 832.079 210.681 832.263C210.681 832.447 210.455 832.596 210.177 832.596Z" fill="#EF0000"/>
<path d="M210.177 833.93H205.131C204.852 833.93 204.626 833.781 204.626 833.597C204.626 833.413 204.852 833.264 205.131 833.264H210.177C210.455 833.264 210.681 833.413 210.681 833.597C210.681 833.781 210.455 833.93 210.177 833.93Z" fill="#EF0000"/>
<path d="M210.177 835.263H205.131C204.852 835.263 204.626 835.114 204.626 834.93C204.626 834.746 204.852 834.597 205.131 834.597H210.177C210.455 834.597 210.681 834.746 210.681 834.93C210.681 835.114 210.455 835.263 210.177 835.263Z" fill="#EF0000"/>
<path d="M210.177 836.597H205.131C204.852 836.597 204.626 836.448 204.626 836.264C204.626 836.08 204.852 835.931 205.131 835.931H210.177C210.455 835.931 210.681 836.08 210.681 836.264C210.681 836.448 210.455 836.597 210.177 836.597Z" fill="#EF0000"/>
<path d="M210.177 837.93H205.131C204.852 837.93 204.626 837.781 204.626 837.597C204.626 837.413 204.852 837.264 205.131 837.264H210.177C210.455 837.264 210.681 837.413 210.681 837.597C210.681 837.781 210.455 837.93 210.177 837.93Z" fill="#EF0000"/>
<path d="M128.439 839.173V841.193H156.558V839.173L142.563 837.962L128.439 839.173Z" fill="#EEEEEE"/>
<path d="M128.439 837.557V839.576H156.558V837.557L142.563 836.346L128.439 837.557Z" fill="#DCDCDC"/>
<path d="M156.559 822.615V837.154H154.725L150.446 829.884L154.725 822.615H156.559Z" fill="#EEEEEE"/>
<path d="M155.336 822.615V823.844L150.906 829.884L155.336 835.925V837.154H128.439V822.615H155.336Z" fill="white"/>
<path d="M129.662 823.423V832.637L142.499 833.923L155.336 832.637V823.423H129.662Z" fill="#29B71C"/>
<path d="M143.11 825.038V828.269C143.785 828.269 144.333 827.546 144.333 826.653C144.333 825.761 143.785 825.038 143.11 825.038Z" fill="#FE5F1A"/>
<path d="M142.621 825.038C142.891 825.038 143.11 825.761 143.11 826.653C143.11 827.546 142.891 828.269 142.621 828.269C141.541 828.269 140.665 827.546 140.665 826.653C140.665 825.761 141.541 825.038 142.621 825.038Z" fill="#00AEEF"/>
<path d="M155.336 834.731L148.001 830.692L153.454 831.337L155.336 832.639L155.336 834.731Z" fill="#027372"/>
<path d="M152.37 831.568L148.882 829.885L144.388 831.568L141.887 833.23L147.656 836.346H155.336V834.108L152.37 831.568Z" fill="#E53935"/>
<path d="M154.113 831.443L153.088 831.5L149.223 830.305V828.27L154.113 831.443Z" fill="#EEEEEE"/>
<path d="M144.332 831.5L148.462 828.27L151.668 831.5L144.332 831.5Z" fill="white"/>
<path d="M146.778 836.346H144.542L135.774 830.692L140.63 831.364L146.778 836.346Z" fill="#027372"/>
<path d="M139.059 831.568L144.333 836.346H129.662V832.871L131.515 831.568L135.762 829.885L139.059 831.568Z" fill="#00AEEF"/>
<path d="M140.665 831.443L139.64 831.5L135.774 830.305V828.27L140.665 831.443Z" fill="#EEEEEE"/>
<path d="M130.884 831.5L135.702 828.27L139.443 831.5L130.884 831.5Z" fill="white"/>
<path d="M157.293 840.385C157.024 840.385 156.806 840.54 156.806 840.731V841.308H128.192V840.731C128.192 840.54 127.973 840.385 127.704 840.385C127.434 840.385 127.216 840.54 127.216 840.731V841.654C127.216 841.845 127.434 842 127.704 842H157.293C157.563 842 157.781 841.845 157.781 841.654V840.731C157.781 840.54 157.563 840.385 157.293 840.385Z" fill="#00AEEF"/>
<path d="M157.293 837.962C157.024 837.962 156.806 838.117 156.806 838.308V838.885H128.192V838.308C128.192 838.117 127.973 837.962 127.704 837.962C127.434 837.962 127.216 838.117 127.216 838.308V839.231C127.216 839.422 127.434 839.577 127.704 839.577H157.293C157.563 839.577 157.781 839.422 157.781 839.231V838.308C157.781 838.117 157.563 837.962 157.293 837.962Z" fill="#00AEEF"/>
<path d="M157.293 821.808H127.704C127.434 821.808 127.216 821.954 127.216 822.135V837.634C127.216 837.815 127.434 837.961 127.704 837.961H157.293C157.563 837.961 157.781 837.815 157.781 837.634V822.135C157.781 821.954 157.563 821.808 157.293 821.808ZM156.806 837.307H128.192V822.462H156.806V837.307Z" fill="#00AEEF"/>
<path d="M145.555 826.653C145.555 825.763 144.184 825.038 142.499 825.038C140.814 825.038 139.443 825.763 139.443 826.653C139.443 827.544 140.814 828.269 142.499 828.269C144.184 828.269 145.555 827.544 145.555 826.653ZM140.408 826.653C140.408 826.044 141.346 825.548 142.499 825.548C143.652 825.548 144.59 826.044 144.59 826.653C144.59 827.263 143.652 827.759 142.499 827.759C141.346 827.759 140.408 827.263 140.408 826.653Z" fill="black"/>
<path d="M128.439 836.014C128.439 836.197 128.669 836.346 128.953 836.346H156.044C156.328 836.346 156.558 836.197 156.558 836.014V822.947C156.558 822.764 156.328 822.615 156.044 822.615H128.953C128.669 822.615 128.439 822.764 128.439 822.947V825.605C128.439 825.788 128.669 825.937 128.953 825.937C129.237 825.937 129.467 825.788 129.467 825.605V823.28H155.53V831.668L149.635 827.862C149.434 827.732 149.108 827.732 148.908 827.862L142.499 832.001L136.089 827.862C135.888 827.732 135.563 827.732 135.362 827.862L129.467 831.668V826.934C129.467 826.75 129.237 826.602 128.953 826.602C128.669 826.602 128.439 826.75 128.439 826.934V836.014ZM149.271 828.566L152.745 830.809H145.798L149.271 828.566ZM135.726 828.566L139.199 830.809H132.252L135.726 828.566ZM131.224 831.474H140.228L142.134 832.705C142.136 832.706 145.564 834.92 145.564 834.92C145.665 834.985 145.796 835.017 145.928 835.017C146.06 835.017 146.191 834.985 146.292 834.92C146.493 834.79 146.493 834.58 146.292 834.45L143.226 832.47L144.769 831.474H153.774L155.53 832.608V835.682H129.467V832.608L131.224 831.474Z" fill="black"/>
<path fill-rule="evenodd" clip-rule="evenodd" d="M113.85 825.064C114.012 825.064 114.146 825.207 114.146 825.38V831.317H113.555V825.38C113.555 825.204 113.687 825.064 113.85 825.064Z" fill="#FFFFFE"/>
<g filter="url(#filter1_d_0_1)">
<mask id="path-85-inside-2_0_1" fill="white">
<path d="M307.496 818H51.4961H307.496Z"/>
</mask>
<path d="M307.496 818H51.4961H307.496Z" fill="#231F20"/>
<path d="M307.496 818H51.4961H307.496Z" stroke="black" stroke-width="0.6" mask="url(#path-85-inside-2_0_1)"/>
</g>
<text fill="#FF0000" xml:space="preserve" style="white-space: pre" font-family="Harmattan" font-size="11" font-weight="bold" letter-spacing="0px"><tspan x="162.904" y="747.764">&#x627;&#x644;&#x62a;&#x62f;&#x631;&#x64a;&#x628;&#x627;&#x62a; &#x627;&#x644;&#x633;&#x627;&#x628;&#x642;&#x647; &#x627;&#x62b;&#x646;&#x627;&#x621; &#x627;&#x644;&#x62f;&#x631;&#x627;&#x633;&#x629; &#x627;&#x644;&#x62c;&#x627;&#x645;&#x639;&#x64a;&#x629;</tspan></text>
<text fill="black" xml:space="preserve" style="white-space: pre" font-family="Harmattan" font-size="11" font-weight="bold" letter-spacing="0px"><tspan x="304.841" y="747.764"> </tspan></text>
<text fill="#FF0000" xml:space="preserve" style="white-space: pre" font-family="Arial" font-size="18" letter-spacing="-0.03em"><tspan x="151.99" y="750.74">:</tspan></text>
<text fill="black" xml:space="preserve" style="white-space: pre" font-family="Harmattan" font-size="13" font-weight="bold" letter-spacing="0px"><tspan x="147" y="764.676">&#10;</tspan></text>
<text fill="black" xml:space="preserve" style="white-space: pre" font-family="Harmattan" font-size="13" font-weight="bold" letter-spacing="0px"><tspan x="54.8701" y="748.676">&#x627;&#x644;&#x62a;&#x62f;&#x631;&#x64a;&#x628; &#x627;&#x644;&#x645;&#x64a;&#x62f;&#x627;&#x646;&#x64a; &#x641;&#x64a; &#10;</tspan></text>
<text fill="#707070" xml:space="preserve" style="white-space: pre" font-family="Harmattan" font-size="11" font-weight="bold" letter-spacing="0px"><tspan x="54.5967" y="767.764"> &#x627;&#x644;&#x645;&#x62f;&#x627;&#x631;&#x633; &#x627;&#x644;&#x62d;&#x643;&#x648;&#x645;&#x64a;&#x647; &#x627;&#x644;&#x645;&#x635;&#x631;&#x64a;&#x647; &#x648;&#x642;&#x62f; &#x62d;&#x635;&#x644;&#x62a; &#x639;&#x644;&#x64a; 96 % &#x643;&#x62f;&#x631;&#x62c;&#x647; &#x639;&#x644;&#x64a; &#x630;&#x644;&#x643;&#13;&#10;</tspan><tspan x="89.0576" y="782.764">&#x645;&#x62f;&#x631;&#x633;&#x647; &#x62e;&#x627;&#x644;&#x62f; &#x628;&#x646; &#x627;&#x644;&#x648;&#x644;&#x64a;&#x62f; &#x627;&#x644;&#x627;&#x628;&#x62a;&#x62f;&#x627;&#x626;&#x64a;&#x629;  &#x628;&#x645;&#x64a;&#x62a; &#x63a;&#x645;&#x631;  &#x644;&#x645;&#x62f;&#x629; &#x639;&#x627;&#x645; 2022&#13;&#10;</tspan><tspan x="86.7588" y="797.764">&#x645;&#x62f;&#x631;&#x633;&#x629; &#x627;&#x644;&#x62b;&#x627;&#x646;&#x648;&#x64a;&#x629; &#x627;&#x644;&#x62c;&#x62f;&#x64a;&#x62f;&#x629; &#x628;&#x646;&#x627;&#x62a; &#x628;&#x645;&#x64a;&#x62a; &#x63a;&#x645;&#x631; &#x644;&#x645;&#x62f;&#x629; &#x639;&#x627;&#x645; &#x627;&#x62e;&#x631; 2023</tspan></text>
<text fill="black" xml:space="preserve" style="white-space: pre" font-family="Harmattan" font-size="11" font-weight="bold" letter-spacing="0px"><tspan x="297.327" y="797.764">&#13;&#10;</tspan></text>
<path d="M317.989 771.776C318.554 771.776 319.107 771.665 319.577 771.458C320.047 771.25 320.413 770.955 320.629 770.611C320.846 770.266 320.902 769.886 320.792 769.52C320.682 769.153 320.41 768.817 320.01 768.553C319.61 768.289 319.101 768.109 318.547 768.036C317.992 767.963 317.418 768.001 316.896 768.144C316.373 768.287 315.927 768.529 315.613 768.839C315.299 769.15 315.131 769.515 315.131 769.888C315.131 770.389 315.432 770.869 315.968 771.223C316.504 771.577 317.231 771.776 317.989 771.776Z" fill="#231F20"/>
<text fill="#FF0000" xml:space="preserve" style="white-space: pre" font-family="Arial" font-size="18" letter-spacing="-0.03em"><tspan x="231.99" y="580.74">:</tspan></text>
<rect x="240.5" y="564.5" width="67" height="19" stroke="#5500FF"/>
<text fill="#5500FF" xml:space="preserve" style="white-space: pre" font-family="Harmattan" font-size="13" font-weight="bold" letter-spacing="0px"><tspan x="305.118" y="576.676"> </tspan></text>
<text fill="#FF0000" xml:space="preserve" style="white-space: pre" font-family="Harmattan" font-size="13" font-weight="bold" letter-spacing="0px"><tspan x="239.928" y="576.676"> &#x627;&#x644;&#x648;&#x638;&#x64a;&#x641;&#x647; &#x627;&#x644;&#x62d;&#x627;&#x644;&#x64a;&#x647;</tspan></text>
<text fill="black" xml:space="preserve" style="white-space: pre" font-family="Harmattan" font-size="13" font-weight="bold" letter-spacing="0px"><tspan x="40.8711" y="577.676">&#x645;&#x639;&#x644;&#x645; &#x631;&#x64a;&#x627;&#x636;&#x64a;&#x627;&#x62a; &#x648;&#x62d;&#x627;&#x633;&#x628; &#x623;&#x644;&#x64a; &#x628;&#x645;&#x62f;&#x631;&#x633;&#x647; &#x627;&#x644;&#x634;&#x647;&#x64a;&#x62f; </tspan></text>
<text fill="black" xml:space="preserve" style="white-space: pre" font-family="Harmattan" font-size="13" font-weight="bold" letter-spacing="0px"><tspan x="37.8438" y="602.676">&#x645;&#x62d;&#x645;&#x62f; &#x627;&#x644;&#x634;&#x627;&#x641;&#x639;&#x64a; &#x628;&#x64a;&#x648;&#x645;&#x64a; &#x628;&#x642;&#x631;&#x64a;&#x629; &#x639;&#x641;&#x64a;&#x641;&#x64a; &#x628;&#x648;&#x632;&#x627;&#x631;&#x629; &#x627;&#x644;&#x62a;&#x631;&#x628;&#x64a;&#x629; &#x648;&#x627;&#x644;&#x62a;&#x639;&#x644;&#x64a;&#x645; &#13;&#10;</tspan><tspan x="193.247" y="626.676">&#x628;&#x62c;&#x645;&#x647;&#x648;&#x64a;&#x629; &#x645;&#x635;&#x631; &#x627;&#x644;&#x639;&#x631;&#x628;&#x64a;&#x629; </tspan></text>
<path d="M317.989 601.776C318.554 601.776 319.107 601.665 319.577 601.458C320.047 601.25 320.413 600.955 320.629 600.611C320.846 600.266 320.902 599.886 320.792 599.52C320.682 599.153 320.41 598.817 320.01 598.553C319.61 598.289 319.101 598.109 318.547 598.036C317.992 597.963 317.418 598.001 316.896 598.144C316.373 598.287 315.927 598.529 315.613 598.839C315.299 599.15 315.131 599.515 315.131 599.888C315.131 600.389 315.432 600.869 315.968 601.223C316.504 601.577 317.231 601.776 317.989 601.776Z" fill="#231F20"/>
<path d="M172.415 629.699H172.377L171 628.341C171.644 628.561 172.358 628.675 173.083 628.675C173.808 628.675 174.522 628.561 175.167 628.341L173.785 629.699H173.756L177.139 636.716L180.222 633.192L183.652 635.406L185.809 632.632C183.781 630.321 180.595 628.551 176.802 627.627C178.251 626.706 179.384 625.589 180.121 624.352C180.931 623.015 181.366 621.592 181.403 620.152C181.443 618.336 180.586 616.56 178.963 615.094C178.32 614.451 177.446 613.922 176.418 613.557C175.391 613.191 174.242 613 173.075 613C171.908 613 170.759 613.191 169.731 613.557C168.704 613.922 167.829 614.451 167.187 615.094C165.563 616.56 164.707 618.336 164.746 620.152C164.785 621.592 165.221 623.015 166.033 624.352C166.773 625.589 167.909 626.706 169.363 627.626C162.838 629.044 158 633.893 158 637.489C158 639.617 165.537 640.677 173.079 640.677L168.853 637.054L172.415 629.699Z" fill="#71F200" stroke="#070505" stroke-width="0.5"/>
<path d="M173.093 640.69C175.239 640.694 177.382 640.602 179.508 640.415L176.027 638.17L173.093 640.69Z" fill="#71F200" stroke="#070505" stroke-width="0.5"/>
<path d="M188.73 631.809L184.133 637.734L180.611 635.462L178.575 637.78L184.955 641.902L191.549 633.418L188.73 631.809Z" fill="#F20000" stroke="#070505" stroke-width="0.5"/>
<text fill="#FF0000" xml:space="preserve" style="white-space: pre" font-family="Harmattan" font-size="13" font-weight="bold" letter-spacing="0px"><tspan x="247.393" y="662.676">&#x627;&#x644;&#x648;&#x638;&#x64a;&#x641;&#x647; &#x633;&#x627;&#x628;&#x642;&#x627;</tspan></text>
<text fill="black" xml:space="preserve" style="white-space: pre" font-family="Harmattan" font-size="13" font-weight="bold" letter-spacing="0px"><tspan x="305.448" y="662.676"> </tspan></text>
<text fill="#FF0000" xml:space="preserve" style="white-space: pre" font-family="Arial" font-size="18" letter-spacing="-0.03em"><tspan x="236.99" y="666.74">:</tspan></text>
<text fill="black" xml:space="preserve" style="white-space: pre" font-family="Harmattan" font-size="13" font-weight="bold" letter-spacing="0px"><tspan x="26.9199" y="663.676">&#x639;&#x645;&#x644;&#x62a; &#x641;&#x64a; &#x645;&#x637;&#x628;&#x639;&#x647; &#x644;&#x645;&#x62f;&#x629; &#x623;&#x631;&#x628;&#x639; &#x633;&#x646;&#x648;&#x627;&#x62a; &#x641;&#x64a; &#x637;&#x628;&#x627;&#x639;&#x629;  &#13;&#10;</tspan></text>
<text fill="black" xml:space="preserve" style="white-space: pre" font-family="Harmattan" font-size="13" font-weight="bold" letter-spacing="0px"><tspan x="109.526" y="681.676">&#x627;&#x644;&#x645;&#x633;&#x62a;&#x646;&#x62f;&#x627;&#x62a;</tspan></text>
<path d="M317.989 690.776C318.554 690.776 319.107 690.665 319.577 690.458C320.047 690.25 320.413 689.955 320.629 689.611C320.846 689.266 320.902 688.886 320.792 688.52C320.682 688.153 320.41 687.817 320.01 687.553C319.61 687.289 319.101 687.109 318.547 687.036C317.992 686.963 317.418 687.001 316.896 687.144C316.373 687.287 315.927 687.529 315.613 687.839C315.299 688.15 315.131 688.515 315.131 688.888C315.131 689.389 315.432 689.869 315.968 690.223C316.504 690.577 317.231 690.776 317.989 690.776Z" fill="#231F20"/>
<path d="M172.415 710.699H172.377L171 709.341C171.644 709.561 172.358 709.675 173.083 709.675C173.808 709.675 174.522 709.561 175.167 709.341L173.785 710.699H173.756L177.139 717.716L180.222 714.192L183.652 716.406L185.809 713.632C183.781 711.321 180.595 709.551 176.802 708.627C178.251 707.706 179.384 706.589 180.121 705.352C180.931 704.015 181.366 702.592 181.403 701.152C181.443 699.336 180.586 697.56 178.963 696.094C178.32 695.451 177.446 694.922 176.418 694.557C175.391 694.191 174.242 694 173.075 694C171.908 694 170.759 694.191 169.731 694.557C168.704 694.922 167.829 695.451 167.187 696.094C165.563 697.56 164.707 699.336 164.746 701.152C164.785 702.592 165.221 704.015 166.033 705.352C166.773 706.589 167.909 707.706 169.363 708.626C162.838 710.044 158 714.893 158 718.489C158 720.617 165.537 721.677 173.079 721.677L168.853 718.054L172.415 710.699Z" fill="#71F200" stroke="#070505" stroke-width="0.5"/>
<path d="M173.093 721.69C175.239 721.694 177.382 721.602 179.508 721.415L176.027 719.17L173.093 721.69Z" fill="#71F200" stroke="#070505" stroke-width="0.5"/>
<defs>
<filter id="filter0_d_0_1" x="17.4922" y="334" width="313" height="10" filterUnits="userSpaceOnUse" color-interpolation-filters="sRGB">
<feFlood flood-opacity="0" result="BackgroundImageFix"/>
<feColorMatrix in="SourceAlpha" type="matrix" values="0 0 0 0 0 0 0 0 0 0 0 0 0 0 0 0 0 0 127 0" result="hardAlpha"/>
<feOffset dy="4"/>
<feGaussianBlur stdDeviation="2"/>
<feComposite in2="hardAlpha" operator="out"/>
<feColorMatrix type="matrix" values="0 0 0 0 0 0 0 0 0 0 0 0 0 0 0 0 0 0 0.25 0"/>
<feBlend mode="normal" in2="BackgroundImageFix" result="effect1_dropShadow_0_1"/>
<feBlend mode="normal" in="SourceGraphic" in2="effect1_dropShadow_0_1" result="shape"/>
</filter>
<filter id="filter1_d_0_1" x="47.4961" y="817.7" width="264" height="8.59961" filterUnits="userSpaceOnUse" color-interpolation-filters="sRGB">
<feFlood flood-opacity="0" result="BackgroundImageFix"/>
<feColorMatrix in="SourceAlpha" type="matrix" values="0 0 0 0 0 0 0 0 0 0 0 0 0 0 0 0 0 0 127 0" result="hardAlpha"/>
<feOffset dy="4"/>
<feGaussianBlur stdDeviation="2"/>
<feComposite in2="hardAlpha" operator="out"/>
<feColorMatrix type="matrix" values="0 0 0 0 0 0 0 0 0 0 0 0 0 0 0 0 0 0 0.25 0"/>
<feBlend mode="normal" in2="BackgroundImageFix" result="effect1_dropShadow_0_1"/>
<feBlend mode="normal" in="SourceGraphic" in2="effect1_dropShadow_0_1" result="shape"/>
</filter>
</defs>
</svg>
