<svg width="809" height="807" viewBox="0 0 809 807" fill="none" xmlns="http://www.w3.org/2000/svg">
<path d="M684.521 427H518.492V454.59H684.521V427Z" fill="#00AEEF"/>
<text fill="#070707" stroke="#00AEEF" stroke-width="0.3" xml:space="preserve" style="white-space: pre" font-family="Harmattan" font-size="21" font-weight="500" letter-spacing="-0.01em"><tspan x="542" y="188.322">&#x648;&#x64e;&#x645;&#x64e;&#x627; &#x62a;&#x64e;&#x648;&#x652;&#x641;&#x650;&#x64a;&#x642;&#x650;&#x64a; &#x625;&#x650;&#x644;&#x651;&#x64e;&#x627; &#x628;&#x650;&#x627;&#x644;&#x644;&#x651;&#x64e;&#x647;</tspan></text>
<text fill="black" xml:space="preserve" style="white-space: pre" font-family="Arial" font-size="31" font-weight="900" letter-spacing="0em"><tspan x="463.492" y="112.261">MOSTAFA</tspan></text>
<text fill="#535353" xml:space="preserve" style="white-space: pre" font-family="Arial" font-size="31" font-weight="900" letter-spacing="0em"><tspan x="463.492" y="151.261">SAID</tspan></text>
<text fill="black" stroke="#00AEEF" stroke-width="0.5" xml:space="preserve" style="white-space: pre" font-family="Andalus" font-size="30" letter-spacing="0.71em"><tspan x="437.492" y="316.254">&#x645;&#x635;&#x645;&#x645; &#x62c;&#x631;&#x627;&#x641;&#x64a;&#x643;</tspan></text>
<text fill="black" stroke="#00AEEF" stroke-width="0.5" xml:space="preserve" style="white-space: pre" font-family="Andalus" font-size="20" letter-spacing="-0.03em"><tspan x="429" y="380.336">&#x628;&#x631;&#x645;&#x62c;&#x629; &#x62a;&#x637;&#x628;&#x64a;&#x642; &#x644;&#x627;&#x62f;&#x627;&#x631;&#x629; &#x627;&#x644;&#x648;&#x642;&#x62a; &#x648;&#x645;&#x647;&#x627;&#x645; &#x627;&#x644;&#x639;&#x645;&#x644;&#x627;&#x621; &#x648;&#x62a;&#x62d;&#x644;&#x64a;&#x644; &#x628;&#x64a;&#x627;&#x646;&#x627;&#x62a; &#x645;&#x647;&#x627;&#x645; &#x627;&#x644;&#x639;&#x645;&#x644;&#x627;&#x621;</tspan></text>
<text fill="black" stroke="#00AEEF" stroke-width="0.5" xml:space="preserve" style="white-space: pre" font-family="Andalus" font-size="10" letter-spacing="-0.03em"><tspan x="26" y="368.918">Programming an application to manage time and customer tasks and analyze customer task data</tspan></text>
<text fill="black" stroke="#00AEEF" stroke-width="0.5" xml:space="preserve" style="white-space: pre" font-family="Andalus" font-size="28" letter-spacing="0.6em"><tspan x="442.492" y="251.07">&#x645;&#x639;&#x644;&#x645; &#x62d;&#x627;&#x633;&#x628; &#x623;&#x644;&#x64a;</tspan></text>
<text fill="white" xml:space="preserve" style="white-space: pre" font-family="Harmattan" font-size="20" font-weight="bold" letter-spacing="0em"><tspan x="552.492" y="445.116">&#x627;&#x644;&#x628;&#x64a;&#x627;&#x646;&#x627;&#x62a; &#x627;&#x644;&#x627;&#x633;&#x627;&#x633;&#x64a;&#x629;</tspan></text>
<path d="M738.483 452.726C742.034 452.726 745.506 452.03 748.459 450.727C751.412 449.423 753.714 447.57 755.073 445.403C756.432 443.235 756.787 440.85 756.095 438.549C755.402 436.247 753.691 434.134 751.18 432.475C748.669 430.816 745.469 429.686 741.986 429.228C738.503 428.77 734.892 429.005 731.611 429.903C728.33 430.801 725.525 432.321 723.552 434.272C721.579 436.223 720.526 438.517 720.526 440.863C720.526 444.009 722.418 447.027 725.785 449.251C729.153 451.476 733.72 452.726 738.483 452.726Z" fill="#00AEEF" stroke="#707070"/>
<path d="M729.09 446.933C729.09 445.422 729.999 443.972 731.617 442.903C733.235 441.834 735.43 441.233 737.718 441.233C740.006 441.233 742.201 441.834 743.819 442.903C745.437 443.972 746.346 445.422 746.346 446.933H729.09ZM732.959 436.514C732.958 435.786 733.34 435.081 734.039 434.518C734.738 433.955 735.71 433.57 736.791 433.428C737.871 433.286 738.993 433.395 739.965 433.738C740.937 434.082 741.699 434.637 742.12 435.309C742.542 435.982 742.598 436.73 742.278 437.426C741.958 438.123 741.282 438.725 740.366 439.129C739.45 439.533 738.35 439.715 737.253 439.644C736.157 439.573 735.132 439.252 734.353 438.737C733.461 438.148 732.959 437.348 732.959 436.514Z" fill="white"/>
<path d="M736.169 563C736.664 563 737.147 562.853 737.558 562.579C737.969 562.304 738.29 561.914 738.479 561.457C738.668 561 738.718 560.497 738.621 560.012C738.525 559.527 738.287 559.082 737.937 558.732C737.588 558.383 737.142 558.145 736.657 558.048C736.172 557.952 735.67 558.001 735.213 558.19C734.756 558.38 734.365 558.7 734.091 559.111C733.816 559.522 733.669 560.006 733.669 560.5C733.669 561.163 733.933 561.799 734.402 562.268C734.871 562.737 735.506 563 736.169 563Z" fill="#231F20"/>
<path d="M684.521 585H518.492V612.59H684.521V585Z" fill="#00AEEF"/>
<text fill="white" xml:space="preserve" style="white-space: pre" font-family="Harmattan" font-size="20" font-weight="bold" letter-spacing="0.02em"><tspan x="540" y="603.116">&#x627;&#x644;&#x648;&#x638;&#x64a;&#x641;&#x647; &#x648;&#x627;&#x644;&#x62e;&#x628;&#x631;&#x627;&#x62a;</tspan></text>
<path d="M738.946 610.704C742.794 610.704 746.555 609.95 749.754 608.538C752.953 607.126 755.447 605.119 756.919 602.77C758.392 600.422 758.777 597.838 758.026 595.345C757.276 592.852 755.423 590.562 752.702 588.764C749.981 586.967 746.515 585.743 742.741 585.247C738.968 584.751 735.056 585.006 731.501 585.978C727.947 586.951 724.908 588.598 722.771 590.712C720.633 592.825 719.492 595.31 719.492 597.852C719.492 601.261 721.542 604.53 725.19 606.94C728.838 609.35 733.787 610.704 738.946 610.704Z" fill="#00AEEF" stroke="#707070"/>
<path d="M730.848 605.203C730.113 605.203 729.408 605.01 728.888 604.666C728.368 604.323 728.076 603.857 728.076 603.371V599.355H730.814V600.112C730.814 600.168 730.83 600.224 730.861 600.276C730.894 600.328 730.941 600.375 731.001 600.415C731.061 600.455 731.132 600.486 731.211 600.508C731.289 600.53 731.373 600.541 731.458 600.541H733.752C733.923 600.54 734.086 600.495 734.207 600.415C734.266 600.376 734.314 600.329 734.346 600.278C734.379 600.226 734.396 600.171 734.396 600.115V599.358H741.828V600.115C741.828 600.229 741.897 600.338 742.019 600.418C742.14 600.499 742.305 600.544 742.477 600.544H744.777C744.948 600.543 745.112 600.498 745.232 600.417C745.353 600.337 745.42 600.228 745.42 600.115V599.358H748.158V603.375C748.158 603.615 748.086 603.853 747.948 604.075C747.665 604.524 747.125 604.88 746.446 605.067C746.11 605.159 745.75 605.206 745.387 605.206L730.848 605.203ZM728.076 597.998V595.691C728.077 595.451 728.148 595.213 728.285 594.991C728.494 594.656 728.849 594.369 729.306 594.167C729.762 593.965 730.299 593.857 730.848 593.857H732.956V593.175C732.957 592.64 733.28 592.126 733.854 591.748C734.427 591.37 735.205 591.157 736.015 591.157H740.222C741.032 591.157 741.809 591.37 742.382 591.749C742.955 592.127 743.277 592.64 743.278 593.175V593.857H745.388C745.752 593.858 746.112 593.905 746.448 593.997C746.785 594.09 747.091 594.225 747.349 594.395C747.606 594.566 747.81 594.768 747.949 594.991C748.088 595.213 748.16 595.451 748.16 595.691V597.998H728.076ZM735.18 593.173V593.855H741.059V593.173C741.058 593.027 740.969 592.887 740.812 592.783C740.656 592.68 740.443 592.622 740.222 592.621H736.015C735.794 592.622 735.582 592.68 735.425 592.783C735.268 592.887 735.18 593.027 735.18 593.173Z" fill="white"/>
<path d="M736.169 539C736.664 539 737.147 538.853 737.558 538.579C737.969 538.304 738.29 537.914 738.479 537.457C738.668 537 738.718 536.497 738.621 536.012C738.525 535.527 738.287 535.082 737.937 534.732C737.588 534.383 737.142 534.145 736.657 534.048C736.172 533.952 735.67 534.001 735.213 534.19C734.756 534.38 734.365 534.7 734.091 535.111C733.816 535.522 733.669 536.006 733.669 536.5C733.669 537.163 733.933 537.799 734.402 538.268C734.871 538.737 735.506 539 736.169 539Z" fill="#231F20"/>
<text fill="#FF0000" xml:space="preserve" style="white-space: pre" font-family="Harmattan" font-size="18" font-weight="bold" letter-spacing="-0.03em"><tspan x="631.693" y="544.205">&#x627;&#x644;&#x62d;&#x627;&#x644;&#x629; &#x627;&#x644;&#x627;&#x62c;&#x62a;&#x645;&#x627;&#x639;&#x64a;&#x629; </tspan></text>
<text fill="black" xml:space="preserve" style="white-space: pre" font-family="Harmattan" font-size="18" letter-spacing="-0.03em"><tspan x="496.214" y="540.205">&#x623;&#x639;&#x632;&#x628; - &#x63a;&#x64a;&#x631; &#x645;&#x62a;&#x632;&#x648;&#x62c;</tspan></text>
<text fill="#FF0000" xml:space="preserve" style="white-space: pre" font-family="Arial" font-size="18" letter-spacing="-0.03em"><tspan x="621.99" y="546.74">:</tspan></text>
<text fill="#FF0000" xml:space="preserve" style="white-space: pre" font-family="Arial" font-size="18" letter-spacing="-0.03em"><tspan x="661.99" y="568.74">:</tspan></text>
<text fill="#FF0000" xml:space="preserve" style="white-space: pre" font-family="Harmattan" font-size="18" font-weight="bold" letter-spacing="-0.03em"><tspan x="680.193" y="568.205">&#x627;&#x644;&#x639;&#x646;&#x648;&#x627;&#x646;&#10;</tspan></text>
<text fill="black" xml:space="preserve" style="white-space: pre" font-family="Harmattan" font-size="18" letter-spacing="-0.03em"><tspan x="595.312" y="567.205">&#x627;&#x644;&#x62f;&#x642;&#x647;&#x644;&#x64a;&#x629;&#13;</tspan></text>
<text fill="black" xml:space="preserve" style="white-space: pre" font-family="Harmattan" font-size="18" letter-spacing="-0.03em"><tspan x="557.789" y="567.205">&#x645;&#x635;&#x631;</tspan></text>
<text fill="#FF0000" xml:space="preserve" style="white-space: pre" font-family="Harmattan" font-size="18" font-weight="bold" letter-spacing="-0.03em"><tspan x="683.097" y="488.205">&#x627;&#x644;&#x627;&#x633;&#x645;  </tspan></text>
<text fill="#FF0000" xml:space="preserve" style="white-space: pre" font-family="Arial" font-size="18" letter-spacing="-0.03em"><tspan x="674.141" y="492.74">:</tspan></text>
<text fill="black" xml:space="preserve" style="white-space: pre" font-family="Harmattan" font-size="18" letter-spacing="-0.03em"><tspan x="447.507" y="490.205"> &#x645;&#x635;&#x637;&#x641;&#x64a; &#x633;&#x639;&#x64a;&#x62f; &#x639;&#x628;&#x62f;&#x627;&#x644;&#x648;&#x647;&#x627;&#x628; &#x639;&#x628;&#x62f;&#x627;&#x644;&#x631;&#x62d;&#x645;&#x646;</tspan></text>
<path d="M736.5 486C736.994 486 737.478 485.824 737.889 485.494C738.3 485.165 738.62 484.696 738.81 484.148C738.999 483.6 739.048 482.997 738.952 482.415C738.856 481.833 738.617 481.298 738.268 480.879C737.918 480.459 737.473 480.173 736.988 480.058C736.503 479.942 736 480.001 735.543 480.228C735.086 480.455 734.696 480.84 734.421 481.333C734.147 481.827 734 482.407 734 483C734 483.796 734.263 484.559 734.732 485.121C735.201 485.684 735.837 486 736.5 486Z" fill="black"/>
<path d="M736.169 513C736.664 513 737.147 512.853 737.558 512.579C737.969 512.304 738.29 511.914 738.479 511.457C738.668 511 738.718 510.497 738.621 510.012C738.525 509.527 738.287 509.082 737.937 508.732C737.588 508.383 737.142 508.144 736.657 508.048C736.172 507.952 735.67 508.001 735.213 508.19C734.756 508.38 734.365 508.7 734.091 509.111C733.816 509.522 733.669 510.006 733.669 510.5C733.669 511.163 733.933 511.799 734.402 512.268C734.871 512.737 735.506 513 736.169 513Z" fill="#231F20"/>
<text fill="black" xml:space="preserve" style="white-space: pre" font-family="Harmattan" font-size="18" letter-spacing="-0.03em"><tspan x="463.547" y="518.205"> &#x639;&#x627;&#x645;   -   &#x623;&#x631;&#x628;&#x639;&#x629; &#x648;&#x639;&#x634;&#x631;&#x648;&#x646; &#x639;&#x627;&#x645;&#x627;&#x64b;</tspan></text>
<text fill="#2600FF" xml:space="preserve" style="white-space: pre" font-family="Harmattan" font-size="25" letter-spacing="-0.03em"><tspan x="622.777" y="520.645">25</tspan></text>
<text fill="#FF0000" xml:space="preserve" style="white-space: pre" font-family="Arial" font-size="18" letter-spacing="-0.03em"><tspan x="679.99" y="516.74">:</tspan></text>
<text fill="#FF0000" xml:space="preserve" style="white-space: pre" font-family="Harmattan" font-size="18" font-weight="bold" letter-spacing="-0.03em"><tspan x="686.709" y="515.205">&#x627;&#x644;&#x639;&#x645;&#x631;  </tspan></text>
<path d="M601.328 407.77C601.328 407.931 601.289 408.089 601.213 408.23C601.137 408.371 601.027 408.491 600.893 408.579C600.759 408.668 600.605 408.721 600.445 408.735C600.285 408.749 600.124 408.723 599.977 408.659C599.817 408.59 599.679 408.479 599.577 408.337C599.475 408.196 599.413 408.029 599.398 407.856C599.383 407.682 599.415 407.507 599.491 407.35C599.567 407.193 599.684 407.06 599.829 406.964C599.975 406.868 600.144 406.813 600.318 406.806C600.493 406.798 600.666 406.837 600.819 406.92C600.973 407.003 601.101 407.125 601.191 407.275C601.28 407.425 601.328 407.596 601.328 407.77Z" fill="#00AEEF" stroke="white" stroke-width="0.6"/>
<path d="M601.242 408.167C601.148 408.377 600.982 408.547 600.774 408.646C600.565 408.745 600.328 408.765 600.106 408.704C599.884 408.643 599.691 408.504 599.562 408.313C599.433 408.122 599.377 407.891 599.404 407.662C599.431 407.433 599.539 407.221 599.709 407.065C599.879 406.909 600.099 406.819 600.329 406.811C600.559 406.803 600.785 406.878 600.965 407.023C601.145 407.167 601.267 407.371 601.309 407.598C601.345 407.79 601.321 407.988 601.242 408.167Z" fill="#00AEEF" stroke="white" stroke-width="0.6"/>
<path d="M458.496 411.534L456.178 411.371L454.119 411.881L453.496 410.242C454.978 410.121 454.452 410.107 455.797 410.335C456.894 409.905 456.411 409.989 457.879 409.881C458.481 411.475 458.355 411.152 458.496 411.534Z" fill="#00AEEF" stroke="white" stroke-width="0.6"/>
<path d="M601.483 419.577C601.387 419.79 601.217 419.961 601.004 420.058C600.791 420.156 600.551 420.172 600.326 420.106C600.102 420.039 599.91 419.894 599.785 419.696C599.66 419.499 599.61 419.263 599.646 419.031C599.682 418.8 599.8 418.59 599.979 418.439C600.158 418.289 600.385 418.208 600.619 418.212C600.852 418.216 601.077 418.305 601.25 418.462C601.424 418.618 601.534 418.833 601.562 419.065C601.583 419.24 601.555 419.417 601.483 419.577Z" fill="#00AEEF" stroke="white" stroke-width="0.6"/>
<path d="M601.483 419.576C601.389 419.788 601.221 419.958 601.012 420.057C600.802 420.155 600.564 420.176 600.341 420.114C600.118 420.052 599.924 419.912 599.795 419.719C599.666 419.526 599.611 419.294 599.639 419.064C599.667 418.834 599.776 418.622 599.947 418.466C600.119 418.31 600.34 418.22 600.572 418.213C600.803 418.207 601.03 418.283 601.209 418.429C601.389 418.575 601.511 418.78 601.552 419.008C601.587 419.2 601.563 419.398 601.483 419.576Z" fill="#00AEEF" stroke="white" stroke-width="0.6"/>
<g filter="url(#filter0_d_187_1963)">
<mask id="path-39-inside-1_187_1963" fill="white">
<path d="M746.492 413L441.492 413L605.533 413H746.492Z"/>
</mask>
<path d="M746.492 413L441.492 413L605.533 413H746.492Z" fill="#231F20"/>
<path d="M746.492 412L441.492 412V414L746.492 414V412ZM441.492 414L605.533 414V412L441.492 412V414ZM605.533 414H746.492V412H605.533V414Z" fill="black" mask="url(#path-39-inside-1_187_1963)"/>
</g>
<g filter="url(#filter1_d_187_1963)">
<mask id="path-41-inside-2_187_1963" fill="white">
<path d="M727.246 796H471.246H727.246Z"/>
</mask>
<path d="M727.246 796H471.246H727.246Z" fill="#231F20"/>
<path d="M727.246 795.7H471.246V796.3H727.246V795.7ZM471.246 796.3H727.246V795.7H471.246V796.3Z" fill="black" mask="url(#path-41-inside-2_187_1963)"/>
</g>
<text fill="#FF0000" xml:space="preserve" style="white-space: pre" font-family="Harmattan" font-size="11" font-weight="bold" letter-spacing="0px"><tspan x="582.904" y="725.764">&#x627;&#x644;&#x62a;&#x62f;&#x631;&#x64a;&#x628;&#x627;&#x62a; &#x627;&#x644;&#x633;&#x627;&#x628;&#x642;&#x647; &#x627;&#x62b;&#x646;&#x627;&#x621; &#x627;&#x644;&#x62f;&#x631;&#x627;&#x633;&#x629; &#x627;&#x644;&#x62c;&#x627;&#x645;&#x639;&#x64a;&#x629;</tspan></text>
<text fill="black" xml:space="preserve" style="white-space: pre" font-family="Harmattan" font-size="11" font-weight="bold" letter-spacing="0px"><tspan x="724.841" y="725.764"> </tspan></text>
<text fill="#FF0000" xml:space="preserve" style="white-space: pre" font-family="Arial" font-size="18" letter-spacing="-0.03em"><tspan x="571.99" y="728.74">:</tspan></text>
<text fill="black" xml:space="preserve" style="white-space: pre" font-family="Harmattan" font-size="13" font-weight="bold" letter-spacing="0px"><tspan x="567" y="742.676">&#10;</tspan></text>
<text fill="black" xml:space="preserve" style="white-space: pre" font-family="Harmattan" font-size="13" font-weight="bold" letter-spacing="0px"><tspan x="474.87" y="726.676">&#x627;&#x644;&#x62a;&#x62f;&#x631;&#x64a;&#x628; &#x627;&#x644;&#x645;&#x64a;&#x62f;&#x627;&#x646;&#x64a; &#x641;&#x64a; &#10;</tspan></text>
<text fill="#707070" xml:space="preserve" style="white-space: pre" font-family="Harmattan" font-size="11" font-weight="bold" letter-spacing="0px"><tspan x="474.597" y="745.764"> &#x627;&#x644;&#x645;&#x62f;&#x627;&#x631;&#x633; &#x627;&#x644;&#x62d;&#x643;&#x648;&#x645;&#x64a;&#x647; &#x627;&#x644;&#x645;&#x635;&#x631;&#x64a;&#x647; &#x648;&#x642;&#x62f; &#x62d;&#x635;&#x644;&#x62a; &#x639;&#x644;&#x64a; 96 % &#x643;&#x62f;&#x631;&#x62c;&#x647; &#x639;&#x644;&#x64a; &#x630;&#x644;&#x643;&#13;&#10;</tspan><tspan x="509.058" y="760.764">&#x645;&#x62f;&#x631;&#x633;&#x647; &#x62e;&#x627;&#x644;&#x62f; &#x628;&#x646; &#x627;&#x644;&#x648;&#x644;&#x64a;&#x62f; &#x627;&#x644;&#x627;&#x628;&#x62a;&#x62f;&#x627;&#x626;&#x64a;&#x629;  &#x628;&#x645;&#x64a;&#x62a; &#x63a;&#x645;&#x631;  &#x644;&#x645;&#x62f;&#x629; &#x639;&#x627;&#x645; 2022&#13;&#10;</tspan><tspan x="506.759" y="775.764">&#x645;&#x62f;&#x631;&#x633;&#x629; &#x627;&#x644;&#x62b;&#x627;&#x646;&#x648;&#x64a;&#x629; &#x627;&#x644;&#x62c;&#x62f;&#x64a;&#x62f;&#x629; &#x628;&#x646;&#x627;&#x62a; &#x628;&#x645;&#x64a;&#x62a; &#x63a;&#x645;&#x631; &#x644;&#x645;&#x62f;&#x629; &#x639;&#x627;&#x645; &#x627;&#x62e;&#x631; 2023</tspan></text>
<text fill="black" xml:space="preserve" style="white-space: pre" font-family="Harmattan" font-size="11" font-weight="bold" letter-spacing="0px"><tspan x="717.327" y="775.764">&#13;&#10;</tspan></text>
<path d="M737.989 724.776C738.554 724.776 739.107 724.665 739.577 724.458C740.047 724.25 740.413 723.955 740.629 723.611C740.846 723.266 740.902 722.886 740.792 722.52C740.682 722.153 740.41 721.817 740.01 721.553C739.61 721.289 739.101 721.109 738.547 721.036C737.992 720.963 737.418 721.001 736.896 721.144C736.373 721.287 735.927 721.529 735.613 721.839C735.299 722.15 735.131 722.515 735.131 722.888C735.131 723.389 735.432 723.869 735.968 724.223C736.504 724.577 737.231 724.776 737.989 724.776Z" fill="#231F20"/>
<text fill="#FF0000" xml:space="preserve" style="white-space: pre" font-family="Arial" font-size="18" letter-spacing="-0.03em"><tspan x="651.99" y="658.74">:</tspan></text>
<rect x="660.5" y="642.5" width="67" height="19" stroke="#5500FF"/>
<text fill="#5500FF" xml:space="preserve" style="white-space: pre" font-family="Harmattan" font-size="13" font-weight="bold" letter-spacing="0px"><tspan x="725.118" y="654.676"> </tspan></text>
<text fill="#FF0000" xml:space="preserve" style="white-space: pre" font-family="Harmattan" font-size="13" font-weight="bold" letter-spacing="0px"><tspan x="659.928" y="654.676"> &#x627;&#x644;&#x648;&#x638;&#x64a;&#x641;&#x647; &#x627;&#x644;&#x62d;&#x627;&#x644;&#x64a;&#x647;</tspan></text>
<text fill="black" xml:space="preserve" style="white-space: pre" font-family="Harmattan" font-size="13" font-weight="bold" letter-spacing="0px"><tspan x="460.871" y="655.676">&#x645;&#x639;&#x644;&#x645; &#x631;&#x64a;&#x627;&#x636;&#x64a;&#x627;&#x62a; &#x648;&#x62d;&#x627;&#x633;&#x628; &#x623;&#x644;&#x64a; &#x628;&#x645;&#x62f;&#x631;&#x633;&#x647; &#x627;&#x644;&#x634;&#x647;&#x64a;&#x62f; </tspan></text>
<text fill="black" xml:space="preserve" style="white-space: pre" font-family="Harmattan" font-size="13" font-weight="bold" letter-spacing="0px"><tspan x="457.844" y="680.676">&#x645;&#x62d;&#x645;&#x62f; &#x627;&#x644;&#x634;&#x627;&#x641;&#x639;&#x64a; &#x628;&#x64a;&#x648;&#x645;&#x64a; &#x628;&#x642;&#x631;&#x64a;&#x629; &#x639;&#x641;&#x64a;&#x641;&#x64a; &#x628;&#x648;&#x632;&#x627;&#x631;&#x629; &#x627;&#x644;&#x62a;&#x631;&#x628;&#x64a;&#x629; &#x648;&#x627;&#x644;&#x62a;&#x639;&#x644;&#x64a;&#x645; &#13;&#10;</tspan><tspan x="613.247" y="704.676">&#x628;&#x62c;&#x645;&#x647;&#x648;&#x64a;&#x629; &#x645;&#x635;&#x631; &#x627;&#x644;&#x639;&#x631;&#x628;&#x64a;&#x629; </tspan></text>
<path d="M737.989 655.776C738.554 655.776 739.107 655.665 739.577 655.458C740.047 655.25 740.413 654.955 740.629 654.611C740.846 654.266 740.902 653.886 740.792 653.52C740.682 653.153 740.41 652.817 740.01 652.553C739.61 652.289 739.101 652.109 738.547 652.036C737.992 651.963 737.418 652.001 736.896 652.144C736.373 652.287 735.927 652.529 735.613 652.839C735.299 653.15 735.131 653.515 735.131 653.888C735.131 654.389 735.432 654.869 735.968 655.223C736.504 655.577 737.231 655.776 737.989 655.776Z" fill="#231F20"/>
<path d="M718.415 683.699H718.377L717 682.341C717.644 682.561 718.358 682.675 719.083 682.675C719.808 682.675 720.522 682.561 721.167 682.341L719.785 683.699H719.756L723.139 690.716L726.222 687.192L729.652 689.406L731.809 686.632C729.781 684.321 726.595 682.551 722.802 681.627C724.251 680.706 725.384 679.589 726.121 678.352C726.931 677.015 727.366 675.592 727.403 674.152C727.443 672.336 726.586 670.56 724.963 669.094C724.32 668.451 723.446 667.922 722.418 667.557C721.391 667.191 720.242 667 719.075 667C717.908 667 716.759 667.191 715.731 667.557C714.704 667.922 713.829 668.451 713.187 669.094C711.563 670.56 710.707 672.336 710.746 674.152C710.785 675.592 711.221 677.015 712.033 678.352C712.773 679.589 713.909 680.706 715.363 681.626C708.838 683.044 704 687.893 704 691.489C704 693.617 711.537 694.677 719.079 694.677L714.853 691.054L718.415 683.699Z" fill="#71F200" stroke="#070505" stroke-width="0.5"/>
<path d="M719.093 694.69C721.239 694.694 723.382 694.602 725.508 694.415L722.027 692.17L719.093 694.69Z" fill="#71F200" stroke="#070505" stroke-width="0.5"/>
<path d="M734.73 685.809L730.133 691.734L726.611 689.462L724.575 691.78L730.955 695.902L737.549 687.418L734.73 685.809Z" fill="#F20000" stroke="#070505" stroke-width="0.5"/>
<text fill="#535353" xml:space="preserve" style="white-space: pre" font-family="Arial" font-size="31" font-weight="900" letter-spacing="0em"><tspan x="714" y="37.2607">AR</tspan></text>
<text fill="#00AEEF" xml:space="preserve" style="white-space: pre" font-family="Arial" font-size="31" font-weight="900" letter-spacing="0em"><tspan x="63" y="34.2607">EN</tspan></text>
<path d="M295.021 427H128.992V454.59H295.021V427Z" fill="#00AEEF"/>
<text fill="#070707" stroke="#00AEEF" stroke-width="0.3" xml:space="preserve" style="white-space: pre" font-family="Harmattan" font-size="21" font-weight="500" letter-spacing="-0.01em"><tspan x="152.5" y="188.322">&#x648;&#x64e;&#x645;&#x64e;&#x627; &#x62a;&#x64e;&#x648;&#x652;&#x641;&#x650;&#x64a;&#x642;&#x650;&#x64a; &#x625;&#x650;&#x644;&#x651;&#x64e;&#x627; &#x628;&#x650;&#x627;&#x644;&#x644;&#x651;&#x64e;&#x647;</tspan></text>
<text fill="black" xml:space="preserve" style="white-space: pre" font-family="Arial" font-size="31" font-weight="900" letter-spacing="0em"><tspan x="73.9922" y="112.261">MOSTAFA</tspan></text>
<text fill="#00AEEF" xml:space="preserve" style="white-space: pre" font-family="Arial" font-size="31" font-weight="900" letter-spacing="0em"><tspan x="73.9922" y="151.261">SAID</tspan></text>
<text fill="black" stroke="#00AEEF" stroke-width="0.5" xml:space="preserve" style="white-space: pre" font-family="Andalus" font-size="16" letter-spacing="0.92em"><tspan x="26" y="309.469">Graphic designer</tspan></text>
<text fill="black" stroke="#00AEEF" stroke-width="0.5" xml:space="preserve" style="white-space: pre" font-family="Andalus" font-size="20" letter-spacing="0.62em"><tspan x="29" y="251.336">Computer teacher</tspan></text>
<text fill="white" xml:space="preserve" style="white-space: pre" font-family="Harmattan" font-size="20" font-weight="bold" letter-spacing="0em"><tspan x="163" y="445.116">Basic data&#10;</tspan></text>
<path d="M348.983 452.726C352.534 452.726 356.006 452.03 358.959 450.727C361.912 449.423 364.214 447.57 365.573 445.403C366.932 443.235 367.287 440.85 366.595 438.549C365.902 436.247 364.191 434.134 361.68 432.475C359.169 430.816 355.969 429.686 352.486 429.228C349.003 428.77 345.392 429.005 342.111 429.903C338.83 430.801 336.025 432.321 334.052 434.272C332.079 436.223 331.026 438.517 331.026 440.863C331.026 444.009 332.918 447.027 336.285 449.251C339.653 451.476 344.22 452.726 348.983 452.726Z" fill="#00AEEF" stroke="#707070"/>
<path d="M339.59 446.933C339.59 445.422 340.499 443.972 342.117 442.903C343.735 441.834 345.93 441.233 348.218 441.233C350.506 441.233 352.701 441.834 354.319 442.903C355.937 443.972 356.846 445.422 356.846 446.933H339.59ZM343.459 436.514C343.458 435.786 343.84 435.081 344.539 434.518C345.238 433.955 346.21 433.57 347.291 433.428C348.371 433.286 349.493 433.395 350.465 433.738C351.437 434.082 352.199 434.637 352.62 435.309C353.042 435.982 353.098 436.73 352.778 437.426C352.458 438.123 351.782 438.725 350.866 439.129C349.95 439.533 348.85 439.715 347.753 439.644C346.657 439.573 345.632 439.252 344.853 438.737C343.961 438.148 343.459 437.348 343.459 436.514Z" fill="white"/>
<path d="M348.669 563C349.164 563 349.647 562.853 350.058 562.579C350.469 562.304 350.79 561.914 350.979 561.457C351.168 561 351.218 560.497 351.121 560.012C351.025 559.527 350.787 559.082 350.437 558.732C350.088 558.383 349.642 558.145 349.157 558.048C348.672 557.952 348.17 558.001 347.713 558.19C347.256 558.38 346.865 558.7 346.591 559.111C346.316 559.522 346.169 560.006 346.169 560.5C346.169 561.163 346.433 561.799 346.902 562.268C347.371 562.737 348.006 563 348.669 563Z" fill="#231F20"/>
<path d="M295.021 585H128.992V612.59H295.021V585Z" fill="#00AEEF"/>
<text fill="white" xml:space="preserve" style="white-space: pre" font-family="Harmattan" font-size="20" font-weight="bold" letter-spacing="0.02em"><tspan x="141" y="603.116">Job and experience</tspan></text>
<path d="M349.446 610.704C353.294 610.704 357.055 609.95 360.254 608.538C363.453 607.126 365.947 605.119 367.419 602.77C368.892 600.422 369.277 597.838 368.526 595.345C367.776 592.852 365.923 590.562 363.202 588.764C360.481 586.967 357.015 585.743 353.241 585.247C349.468 584.751 345.556 585.006 342.001 585.978C338.447 586.951 335.408 588.598 333.271 590.712C331.133 592.825 329.992 595.31 329.992 597.852C329.992 601.261 332.042 604.53 335.69 606.94C339.338 609.35 344.287 610.704 349.446 610.704Z" fill="#00AEEF" stroke="#707070"/>
<path d="M341.348 605.203C340.613 605.203 339.908 605.01 339.388 604.666C338.868 604.323 338.576 603.857 338.576 603.371V599.355H341.314V600.112C341.314 600.168 341.33 600.224 341.361 600.276C341.394 600.328 341.441 600.375 341.501 600.415C341.561 600.455 341.632 600.486 341.711 600.508C341.789 600.53 341.873 600.541 341.958 600.541H344.252C344.423 600.54 344.586 600.495 344.707 600.415C344.766 600.376 344.814 600.329 344.846 600.278C344.879 600.226 344.896 600.171 344.896 600.115V599.358H352.328V600.115C352.328 600.229 352.397 600.338 352.519 600.418C352.64 600.499 352.805 600.544 352.977 600.544H355.277C355.448 600.543 355.612 600.498 355.732 600.417C355.853 600.337 355.92 600.228 355.92 600.115V599.358H358.658V603.375C358.658 603.615 358.586 603.853 358.448 604.075C358.165 604.524 357.625 604.88 356.946 605.067C356.61 605.159 356.25 605.206 355.887 605.206L341.348 605.203ZM338.576 597.998V595.691C338.577 595.451 338.648 595.213 338.785 594.991C338.994 594.656 339.349 594.369 339.806 594.167C340.262 593.965 340.799 593.857 341.348 593.857H343.456V593.175C343.457 592.64 343.78 592.126 344.354 591.748C344.927 591.37 345.705 591.157 346.515 591.157H350.722C351.532 591.157 352.309 591.37 352.882 591.749C353.455 592.127 353.777 592.64 353.778 593.175V593.857H355.888C356.252 593.858 356.612 593.905 356.948 593.997C357.285 594.09 357.591 594.225 357.849 594.395C358.106 594.566 358.31 594.768 358.449 594.991C358.588 595.213 358.66 595.451 358.66 595.691V597.998H338.576ZM345.68 593.173V593.855H351.559V593.173C351.558 593.027 351.469 592.887 351.312 592.783C351.156 592.68 350.943 592.622 350.722 592.621H346.515C346.294 592.622 346.082 592.68 345.925 592.783C345.768 592.887 345.68 593.027 345.68 593.173Z" fill="white"/>
<path d="M348.669 539C349.164 539 349.647 538.853 350.058 538.579C350.469 538.304 350.79 537.914 350.979 537.457C351.168 537 351.218 536.497 351.121 536.012C351.025 535.527 350.787 535.082 350.437 534.732C350.088 534.383 349.642 534.145 349.157 534.048C348.672 533.952 348.17 534.001 347.713 534.19C347.256 534.38 346.865 534.7 346.591 535.111C346.316 535.522 346.169 536.006 346.169 536.5C346.169 537.163 346.433 537.799 346.902 538.268C347.371 538.737 348.006 539 348.669 539Z" fill="#231F20"/>
<text fill="#FF0000" xml:space="preserve" style="white-space: pre" font-family="Harmattan" font-size="18" letter-spacing="-0.03em"><tspan x="255.41" y="540.205">marital status</tspan></text>
<text fill="black" xml:space="preserve" style="white-space: pre" font-family="Harmattan" font-size="18" letter-spacing="-0.03em"><tspan x="153.241" y="540.205">Single</tspan></text>
<text fill="#FF0000" xml:space="preserve" style="white-space: pre" font-family="Arial" font-size="18" letter-spacing="-0.03em"><tspan x="234.49" y="541.74">:</tspan></text>
<text fill="#FF0000" xml:space="preserve" style="white-space: pre" font-family="Harmattan" font-size="16" letter-spacing="-0.03em"><tspan x="290.927" y="565.793">address&#10;</tspan></text>
<text fill="black" xml:space="preserve" style="white-space: pre" font-family="Harmattan" font-size="18" letter-spacing="-0.03em"><tspan x="154.014" y="567.205"> Dakahlia- EGY</tspan></text>
<text fill="#FF0000" xml:space="preserve" style="white-space: pre" font-family="Harmattan" font-size="18" letter-spacing="-0.03em"><tspan x="282.281" y="567.205">:</tspan></text>
<path d="M348.669 491.442C349.164 491.442 349.647 491.266 350.058 490.937C350.469 490.607 350.79 490.139 350.979 489.59C351.168 489.042 351.218 488.439 351.121 487.857C351.025 487.275 350.787 486.741 350.437 486.321C350.088 485.902 349.642 485.616 349.157 485.5C348.672 485.384 348.17 485.444 347.713 485.671C347.256 485.898 346.865 486.282 346.591 486.776C346.316 487.269 346.169 487.849 346.169 488.442C346.169 489.238 346.433 490.001 346.902 490.564C347.371 491.126 348.006 491.442 348.669 491.442Z" fill="#231F20"/>
<text fill="#FF0000" xml:space="preserve" style="white-space: pre" font-family="Harmattan" font-size="17" letter-spacing="-0.03em"><tspan x="303.895" y="492.999">Name</tspan></text>
<text fill="#FF0000" xml:space="preserve" style="white-space: pre" font-family="Arial" font-size="18" letter-spacing="-0.03em"><tspan x="292.49" y="492.74">:</tspan></text>
<text fill="black" xml:space="preserve" style="white-space: pre" font-family="Harmattan" font-size="18" letter-spacing="-0.03em"><tspan x="10.9284" y="490.205">Mostafa Said Abdelwahab Abdelrahman</tspan></text>
<path d="M348.669 511C349.164 511 349.647 510.853 350.058 510.579C350.469 510.304 350.79 509.914 350.979 509.457C351.168 509 351.218 508.497 351.121 508.012C351.025 507.527 350.787 507.082 350.437 506.732C350.088 506.383 349.642 506.144 349.157 506.048C348.672 505.952 348.17 506.001 347.713 506.19C347.256 506.38 346.865 506.7 346.591 507.111C346.316 507.522 346.169 508.006 346.169 508.5C346.169 509.163 346.433 509.799 346.902 510.268C347.371 510.737 348.006 511 348.669 511Z" fill="#231F20"/>
<text fill="black" xml:space="preserve" style="white-space: pre" font-family="Harmattan" font-size="18" letter-spacing="-0.03em"><tspan x="91.473" y="516.205"> Twenty-four years</tspan></text>
<text fill="#2600FF" xml:space="preserve" style="white-space: pre" font-family="Harmattan" font-size="25" letter-spacing="-0.03em"><tspan x="216.777" y="515.645">25</tspan></text>
<text fill="#FF0000" xml:space="preserve" style="white-space: pre" font-family="Arial" font-size="18" letter-spacing="-0.03em"><tspan x="292.49" y="514.74">:</tspan></text>
<text fill="#FF0000" xml:space="preserve" style="white-space: pre" font-family="Harmattan" font-size="18" letter-spacing="-0.03em"><tspan x="314.288" y="518.205">age  </tspan></text>
<path d="M211.828 407.77C211.828 407.931 211.789 408.089 211.713 408.23C211.637 408.371 211.527 408.491 211.393 408.579C211.259 408.668 211.105 408.721 210.945 408.735C210.785 408.749 210.624 408.723 210.477 408.659C210.317 408.59 210.179 408.479 210.077 408.337C209.975 408.196 209.913 408.029 209.898 407.856C209.883 407.682 209.915 407.507 209.991 407.35C210.067 407.193 210.184 407.06 210.329 406.964C210.475 406.868 210.644 406.813 210.818 406.806C210.993 406.798 211.166 406.837 211.319 406.92C211.473 407.003 211.601 407.125 211.691 407.275C211.78 407.425 211.828 407.596 211.828 407.77Z" fill="#00AEEF" stroke="white" stroke-width="0.6"/>
<path d="M211.742 408.167C211.648 408.377 211.482 408.547 211.274 408.646C211.065 408.745 210.828 408.765 210.606 408.704C210.384 408.643 210.191 408.504 210.062 408.313C209.933 408.122 209.877 407.891 209.904 407.662C209.931 407.433 210.039 407.221 210.209 407.065C210.379 406.909 210.599 406.819 210.829 406.811C211.059 406.803 211.285 406.878 211.465 407.023C211.645 407.167 211.767 407.371 211.809 407.598C211.845 407.79 211.821 407.988 211.742 408.167Z" fill="#00AEEF" stroke="white" stroke-width="0.6"/>
<path d="M68.9961 411.534L66.6779 411.371L64.619 411.881L63.9961 410.242C65.4781 410.121 64.9519 410.107 66.2974 410.335C67.3944 409.905 66.9111 409.989 68.3793 409.881C68.9808 411.475 68.8549 411.152 68.9961 411.534Z" fill="#00AEEF" stroke="white" stroke-width="0.6"/>
<path d="M211.983 419.577C211.887 419.79 211.717 419.961 211.504 420.058C211.291 420.156 211.051 420.172 210.826 420.106C210.602 420.039 210.41 419.894 210.285 419.696C210.16 419.499 210.11 419.263 210.146 419.031C210.182 418.8 210.3 418.59 210.479 418.439C210.658 418.289 210.885 418.208 211.119 418.212C211.352 418.216 211.577 418.305 211.75 418.462C211.924 418.618 212.034 418.833 212.062 419.065C212.083 419.24 212.055 419.417 211.983 419.577Z" fill="#00AEEF" stroke="white" stroke-width="0.6"/>
<path d="M211.983 419.576C211.889 419.788 211.721 419.958 211.512 420.057C211.302 420.155 211.064 420.176 210.841 420.114C210.618 420.052 210.424 419.912 210.295 419.719C210.166 419.526 210.111 419.294 210.139 419.064C210.167 418.834 210.276 418.622 210.447 418.466C210.619 418.31 210.84 418.22 211.072 418.213C211.303 418.207 211.53 418.283 211.709 418.429C211.889 418.575 212.011 418.78 212.052 419.008C212.087 419.2 212.063 419.398 211.983 419.576Z" fill="#00AEEF" stroke="white" stroke-width="0.6"/>
<g filter="url(#filter2_d_187_1963)">
<mask id="path-94-inside-3_187_1963" fill="white">
<path d="M356.992 413L51.9922 413L216.033 413H356.992Z"/>
</mask>
<path d="M356.992 413L51.9922 413L216.033 413H356.992Z" fill="#231F20"/>
<path d="M356.992 412L51.9922 412V414L356.992 414V412ZM51.9922 414L216.033 414V412L51.9922 412V414ZM216.033 414H356.992V412H216.033V414Z" fill="black" mask="url(#path-94-inside-3_187_1963)"/>
</g>
<g filter="url(#filter3_d_187_1963)">
<mask id="path-96-inside-4_187_1963" fill="white">
<path d="M338.246 794H82.2461H338.246Z"/>
</mask>
<path d="M338.246 794H82.2461H338.246Z" fill="#231F20"/>
<path d="M338.246 793.7H82.2461V794.3H338.246V793.7ZM82.2461 794.3H338.246V793.7H82.2461V794.3Z" fill="black" mask="url(#path-96-inside-4_187_1963)"/>
</g>
<text fill="#FF0000" xml:space="preserve" style="white-space: pre" font-family="Harmattan" font-size="9" font-weight="bold" letter-spacing="0px"><tspan x="196.795" y="722.352">Previous training during university studies</tspan></text>
<text fill="#FF0000" xml:space="preserve" style="white-space: pre" font-family="Arial" font-size="18" letter-spacing="-0.03em"><tspan x="182.49" y="723.74">:</tspan></text>
<text fill="black" xml:space="preserve" style="white-space: pre" font-family="Harmattan" font-size="13" font-weight="bold" letter-spacing="0px"><tspan x="101.303" y="721.676">Field training in&#10;</tspan><tspan x="177.5" y="737.676">&#10;</tspan></text>
<text fill="#707070" xml:space="preserve" style="white-space: pre" font-family="Harmattan" font-size="11" font-weight="bold" letter-spacing="0px"><tspan x="74.7705" y="743.764">Egyptian public schools, where I achieved a score of 96%. Khaled </tspan><tspan x="75.6299" y="758.764">Ibn Al-Walid Elementary School in Mit Ghamr for the year 2022. </tspan><tspan x="64.8232" y="773.764">New Girls&#39; Secondary School in Mit Ghamr for another year in 2023</tspan></text>
<path d="M348.489 722.776C349.054 722.776 349.607 722.665 350.077 722.458C350.547 722.25 350.913 721.955 351.129 721.611C351.346 721.266 351.402 720.886 351.292 720.52C351.182 720.153 350.91 719.817 350.51 719.553C350.11 719.289 349.601 719.109 349.047 719.036C348.492 718.963 347.918 719.001 347.396 719.144C346.873 719.287 346.427 719.529 346.113 719.839C345.799 720.15 345.631 720.515 345.631 720.888C345.631 721.389 345.932 721.869 346.468 722.223C347.004 722.577 347.731 722.776 348.489 722.776Z" fill="#231F20"/>
<text fill="#FF0000" xml:space="preserve" style="white-space: pre" font-family="Arial" font-size="18" letter-spacing="-0.03em"><tspan x="262.49" y="658.74">:</tspan></text>
<rect x="271.5" y="642.5" width="71" height="19" stroke="#5500FF"/>
<text fill="#FF0000" xml:space="preserve" style="white-space: pre" font-family="Harmattan" font-size="13" font-weight="bold" letter-spacing="0px"><tspan x="275.561" y="654.676">  Current job</tspan></text>
<text fill="black" xml:space="preserve" style="white-space: pre" font-family="Harmattan" font-size="13" font-weight="bold" letter-spacing="0px"><tspan x="92.0645" y="655.676">Mathematics and computer science </tspan></text>
<text fill="black" xml:space="preserve" style="white-space: pre" font-family="Harmattan" font-size="8" font-weight="bold" letter-spacing="0px"><tspan x="80.0312" y="678.646">Mathematics and computer science teacher at the Martyr Mohamed El Shafei </tspan><tspan x="79.5547" y="702.646">Bayoumi School in Afifi village, Ministry of Education, Arab Republic of Egypt</tspan></text>
<path d="M348.489 652.776C349.054 652.776 349.607 652.665 350.077 652.458C350.547 652.25 350.913 651.955 351.129 651.611C351.346 651.266 351.402 650.886 351.292 650.52C351.182 650.153 350.91 649.817 350.51 649.553C350.11 649.289 349.601 649.109 349.047 649.036C348.492 648.963 347.918 649.001 347.396 649.144C346.873 649.287 346.427 649.529 346.113 649.839C345.799 650.15 345.631 650.515 345.631 650.888C345.631 651.389 345.932 651.869 346.468 652.223C347.004 652.577 347.731 652.776 348.489 652.776Z" fill="#231F20"/>
<path d="M319.415 681.699H319.377L318 680.341C318.644 680.561 319.358 680.675 320.083 680.675C320.808 680.675 321.522 680.561 322.167 680.341L320.785 681.699H320.756L324.139 688.716L327.222 685.192L330.652 687.406L332.809 684.632C330.781 682.321 327.595 680.551 323.802 679.627C325.251 678.706 326.384 677.589 327.121 676.352C327.931 675.015 328.366 673.592 328.403 672.152C328.443 670.336 327.586 668.56 325.963 667.094C325.32 666.451 324.446 665.922 323.418 665.557C322.391 665.191 321.242 665 320.075 665C318.908 665 317.759 665.191 316.731 665.557C315.704 665.922 314.829 666.451 314.187 667.094C312.563 668.56 311.707 670.336 311.746 672.152C311.785 673.592 312.221 675.015 313.033 676.352C313.773 677.589 314.909 678.706 316.363 679.626C309.838 681.044 305 685.893 305 689.489C305 691.617 312.537 692.677 320.079 692.677L315.853 689.054L319.415 681.699Z" fill="#71F200" stroke="#070505" stroke-width="0.5"/>
<path d="M320.093 692.69C322.239 692.694 324.382 692.602 326.508 692.415L323.027 690.17L320.093 692.69Z" fill="#71F200" stroke="#070505" stroke-width="0.5"/>
<path d="M335.73 683.809L331.133 689.734L327.611 687.462L325.575 689.78L331.955 693.902L338.549 685.418L335.73 683.809Z" fill="#71F200" stroke="#070505" stroke-width="0.5"/>
<rect x="2" y="-2" width="805" height="361" transform="matrix(1 0 0 -1 0 411)" stroke="#01ADED" stroke-width="4"/>
<path d="M807 796V417H2V796H807Z" stroke="#01ADED" stroke-width="4"/>
<rect x="408" y="50" width="15" height="742" fill="url(#paint0_linear_187_1963)"/>
<defs>
<filter id="filter0_d_187_1963" x="437.492" y="412" width="313" height="10" filterUnits="userSpaceOnUse" color-interpolation-filters="sRGB">
<feFlood flood-opacity="0" result="BackgroundImageFix"/>
<feColorMatrix in="SourceAlpha" type="matrix" values="0 0 0 0 0 0 0 0 0 0 0 0 0 0 0 0 0 0 127 0" result="hardAlpha"/>
<feOffset dy="4"/>
<feGaussianBlur stdDeviation="2"/>
<feComposite in2="hardAlpha" operator="out"/>
<feColorMatrix type="matrix" values="0 0 0 0 0 0 0 0 0 0 0 0 0 0 0 0 0 0 0.25 0"/>
<feBlend mode="normal" in2="BackgroundImageFix" result="effect1_dropShadow_187_1963"/>
<feBlend mode="normal" in="SourceGraphic" in2="effect1_dropShadow_187_1963" result="shape"/>
</filter>
<filter id="filter1_d_187_1963" x="467.246" y="795.7" width="264" height="8.59961" filterUnits="userSpaceOnUse" color-interpolation-filters="sRGB">
<feFlood flood-opacity="0" result="BackgroundImageFix"/>
<feColorMatrix in="SourceAlpha" type="matrix" values="0 0 0 0 0 0 0 0 0 0 0 0 0 0 0 0 0 0 127 0" result="hardAlpha"/>
<feOffset dy="4"/>
<feGaussianBlur stdDeviation="2"/>
<feComposite in2="hardAlpha" operator="out"/>
<feColorMatrix type="matrix" values="0 0 0 0 0 0 0 0 0 0 0 0 0 0 0 0 0 0 0.25 0"/>
<feBlend mode="normal" in2="BackgroundImageFix" result="effect1_dropShadow_187_1963"/>
<feBlend mode="normal" in="SourceGraphic" in2="effect1_dropShadow_187_1963" result="shape"/>
</filter>
<filter id="filter2_d_187_1963" x="47.9922" y="412" width="313" height="10" filterUnits="userSpaceOnUse" color-interpolation-filters="sRGB">
<feFlood flood-opacity="0" result="BackgroundImageFix"/>
<feColorMatrix in="SourceAlpha" type="matrix" values="0 0 0 0 0 0 0 0 0 0 0 0 0 0 0 0 0 0 127 0" result="hardAlpha"/>
<feOffset dy="4"/>
<feGaussianBlur stdDeviation="2"/>
<feComposite in2="hardAlpha" operator="out"/>
<feColorMatrix type="matrix" values="0 0 0 0 0 0 0 0 0 0 0 0 0 0 0 0 0 0 0.25 0"/>
<feBlend mode="normal" in2="BackgroundImageFix" result="effect1_dropShadow_187_1963"/>
<feBlend mode="normal" in="SourceGraphic" in2="effect1_dropShadow_187_1963" result="shape"/>
</filter>
<filter id="filter3_d_187_1963" x="78.2461" y="793.7" width="264" height="8.59961" filterUnits="userSpaceOnUse" color-interpolation-filters="sRGB">
<feFlood flood-opacity="0" result="BackgroundImageFix"/>
<feColorMatrix in="SourceAlpha" type="matrix" values="0 0 0 0 0 0 0 0 0 0 0 0 0 0 0 0 0 0 127 0" result="hardAlpha"/>
<feOffset dy="4"/>
<feGaussianBlur stdDeviation="2"/>
<feComposite in2="hardAlpha" operator="out"/>
<feColorMatrix type="matrix" values="0 0 0 0 0 0 0 0 0 0 0 0 0 0 0 0 0 0 0.25 0"/>
<feBlend mode="normal" in2="BackgroundImageFix" result="effect1_dropShadow_187_1963"/>
<feBlend mode="normal" in="SourceGraphic" in2="effect1_dropShadow_187_1963" result="shape"/>
</filter>
<linearGradient id="paint0_linear_187_1963" x1="423" y1="421" x2="408" y2="421" gradientUnits="userSpaceOnUse">
<stop offset="0.432692" stop-color="#535353"/>
<stop offset="0.475962"/>
<stop offset="0.476062" stop-color="#00B3FF"/>
</linearGradient>
</defs>
</svg>
