<svg width="809" height="942" viewBox="0 0 809 942" fill="none" xmlns="http://www.w3.org/2000/svg">
<rect width="809" height="942" fill="#F5F5F5"/>
<path d="M684.521 427H518.492V454.59H684.521V427Z" fill="#00AEEF"/>
<text fill="#070707" stroke="#00AEEF" stroke-width="0.3" xml:space="preserve" style="white-space: pre" font-family="Harmattan" font-size="21" font-weight="500" letter-spacing="-0.01em"><tspan x="542" y="188.322">&#x648;&#x64e;&#x645;&#x64e;&#x627; &#x62a;&#x64e;&#x648;&#x652;&#x641;&#x650;&#x64a;&#x642;&#x650;&#x64a; &#x625;&#x650;&#x644;&#x651;&#x64e;&#x627; &#x628;&#x650;&#x627;&#x644;&#x644;&#x651;&#x64e;&#x647;</tspan></text>
<text fill="black" xml:space="preserve" style="white-space: pre" font-family="Arial" font-size="31" font-weight="900" letter-spacing="0em"><tspan x="463.492" y="112.261">MOSTAFA</tspan></text>
<text fill="#FF0000" xml:space="preserve" style="white-space: pre" font-family="Arial" font-size="31" font-weight="900" letter-spacing="0em"><tspan x="463.492" y="151.261">SAID</tspan></text>
<text fill="black" stroke="#00AEEF" stroke-width="0.5" xml:space="preserve" style="white-space: pre" font-family="Andalus" font-size="30" letter-spacing="0.71em"><tspan x="437.492" y="340.254">&#x645;&#x635;&#x645;&#x645; &#x62c;&#x631;&#x627;&#x641;&#x64a;&#x643;</tspan></text>
<text fill="black" stroke="#00AEEF" stroke-width="0.5" xml:space="preserve" style="white-space: pre" font-family="Andalus" font-size="25" letter-spacing="0.26em"><tspan x="437.492" y="388.545">&#x645;&#x637;&#x648;&#x631; &#x62a;&#x637;&#x628;&#x64a;&#x642; &#x644;&#x627;&#x62f;&#x627;&#x631;&#x629; &#x627;&#x644;&#x648;&#x642;&#x62a;</tspan></text>
<text fill="black" stroke="#00AEEF" stroke-width="0.5" xml:space="preserve" style="white-space: pre" font-family="Andalus" font-size="29" letter-spacing="0.72em"><tspan x="448.492" y="294.912">&#x645;&#x635;&#x645;&#x645; &#x62a;&#x639;&#x644;&#x64a;&#x645;&#x64a;</tspan></text>
<text fill="black" stroke="#00AEEF" stroke-width="0.5" xml:space="preserve" style="white-space: pre" font-family="Andalus" font-size="28" letter-spacing="0.6em"><tspan x="442.492" y="251.07">&#x645;&#x639;&#x644;&#x645; &#x62d;&#x627;&#x633;&#x628; &#x623;&#x644;&#x64a;</tspan></text>
<text fill="white" xml:space="preserve" style="white-space: pre" font-family="Harmattan" font-size="20" font-weight="bold" letter-spacing="0em"><tspan x="552.492" y="445.116">&#x627;&#x644;&#x628;&#x64a;&#x627;&#x646;&#x627;&#x62a; &#x627;&#x644;&#x627;&#x633;&#x627;&#x633;&#x64a;&#x629;</tspan></text>
<path d="M738.483 452.726C742.034 452.726 745.506 452.03 748.459 450.727C751.412 449.423 753.714 447.57 755.073 445.403C756.432 443.235 756.787 440.85 756.095 438.549C755.402 436.247 753.691 434.134 751.18 432.475C748.669 430.816 745.469 429.686 741.986 429.228C738.503 428.77 734.892 429.005 731.611 429.903C728.33 430.801 725.525 432.321 723.552 434.272C721.579 436.223 720.526 438.517 720.526 440.863C720.526 444.009 722.418 447.027 725.785 449.251C729.153 451.476 733.72 452.726 738.483 452.726Z" fill="#00AEEF" stroke="#707070"/>
<path d="M729.09 446.933C729.09 445.422 729.999 443.972 731.617 442.903C733.235 441.834 735.43 441.233 737.718 441.233C740.006 441.233 742.201 441.834 743.819 442.903C745.437 443.972 746.346 445.422 746.346 446.933H729.09ZM732.959 436.514C732.958 435.786 733.34 435.081 734.039 434.518C734.738 433.955 735.71 433.57 736.791 433.428C737.871 433.286 738.993 433.395 739.965 433.738C740.937 434.082 741.699 434.637 742.12 435.309C742.542 435.982 742.598 436.73 742.278 437.426C741.958 438.123 741.282 438.725 740.366 439.129C739.45 439.533 738.35 439.715 737.253 439.644C736.157 439.573 735.132 439.252 734.353 438.737C733.461 438.148 732.959 437.348 732.959 436.514Z" fill="white"/>
<path d="M738.169 563C738.664 563 739.147 562.853 739.558 562.579C739.969 562.304 740.29 561.914 740.479 561.457C740.668 561 740.718 560.497 740.621 560.012C740.525 559.527 740.287 559.082 739.937 558.732C739.588 558.383 739.142 558.145 738.657 558.048C738.172 557.952 737.67 558.001 737.213 558.19C736.756 558.38 736.365 558.7 736.091 559.111C735.816 559.522 735.669 560.006 735.669 560.5C735.669 561.163 735.933 561.799 736.402 562.268C736.871 562.737 737.506 563 738.169 563Z" fill="#231F20"/>
<path d="M684.521 585H518.492V612.59H684.521V585Z" fill="#00AEEF"/>
<text fill="white" xml:space="preserve" style="white-space: pre" font-family="Harmattan" font-size="20" font-weight="bold" letter-spacing="0.02em"><tspan x="540" y="603.116">&#x627;&#x644;&#x648;&#x638;&#x64a;&#x641;&#x647; &#x648;&#x627;&#x644;&#x62e;&#x628;&#x631;&#x627;&#x62a;</tspan></text>
<path d="M738.946 610.704C742.794 610.704 746.555 609.95 749.754 608.538C752.953 607.126 755.447 605.119 756.919 602.77C758.392 600.422 758.777 597.838 758.026 595.345C757.276 592.852 755.423 590.562 752.702 588.764C749.981 586.967 746.515 585.743 742.741 585.247C738.968 584.751 735.056 585.006 731.501 585.978C727.947 586.951 724.908 588.598 722.771 590.712C720.633 592.825 719.492 595.31 719.492 597.852C719.492 601.261 721.542 604.53 725.19 606.94C728.838 609.35 733.787 610.704 738.946 610.704Z" fill="#00AEEF" stroke="#707070"/>
<path d="M730.848 605.203C730.113 605.203 729.408 605.01 728.888 604.666C728.368 604.323 728.076 603.857 728.076 603.371V599.355H730.814V600.112C730.814 600.168 730.83 600.224 730.861 600.276C730.894 600.328 730.941 600.375 731.001 600.415C731.061 600.455 731.132 600.486 731.211 600.508C731.289 600.53 731.373 600.541 731.458 600.541H733.752C733.923 600.54 734.086 600.495 734.207 600.415C734.266 600.376 734.314 600.329 734.346 600.278C734.379 600.226 734.396 600.171 734.396 600.115V599.358H741.828V600.115C741.828 600.229 741.897 600.338 742.019 600.418C742.14 600.499 742.305 600.544 742.477 600.544H744.777C744.948 600.543 745.112 600.498 745.232 600.417C745.353 600.337 745.42 600.228 745.42 600.115V599.358H748.158V603.375C748.158 603.615 748.086 603.853 747.948 604.075C747.665 604.524 747.125 604.88 746.446 605.067C746.11 605.159 745.75 605.206 745.387 605.206L730.848 605.203ZM728.076 597.998V595.691C728.077 595.451 728.148 595.213 728.285 594.991C728.494 594.656 728.849 594.369 729.306 594.167C729.762 593.965 730.299 593.857 730.848 593.857H732.956V593.175C732.957 592.64 733.28 592.126 733.854 591.748C734.427 591.37 735.205 591.157 736.015 591.157H740.222C741.032 591.157 741.809 591.37 742.382 591.749C742.955 592.127 743.277 592.64 743.278 593.175V593.857H745.388C745.752 593.858 746.112 593.905 746.448 593.997C746.785 594.09 747.091 594.225 747.349 594.395C747.606 594.566 747.81 594.768 747.949 594.991C748.088 595.213 748.16 595.451 748.16 595.691V597.998H728.076ZM735.18 593.173V593.855H741.059V593.173C741.058 593.027 740.969 592.887 740.812 592.783C740.656 592.68 740.443 592.622 740.222 592.621H736.015C735.794 592.622 735.582 592.68 735.425 592.783C735.268 592.887 735.18 593.027 735.18 593.173Z" fill="white"/>
<path d="M738.169 539C738.664 539 739.147 538.853 739.558 538.579C739.969 538.304 740.29 537.914 740.479 537.457C740.668 537 740.718 536.497 740.621 536.012C740.525 535.527 740.287 535.082 739.937 534.732C739.588 534.383 739.142 534.145 738.657 534.048C738.172 533.952 737.67 534.001 737.213 534.19C736.756 534.38 736.365 534.7 736.091 535.111C735.816 535.522 735.669 536.006 735.669 536.5C735.669 537.163 735.933 537.799 736.402 538.268C736.871 538.737 737.506 539 738.169 539Z" fill="#231F20"/>
<text fill="#FF0000" xml:space="preserve" style="white-space: pre" font-family="Harmattan" font-size="18" font-weight="bold" letter-spacing="-0.03em"><tspan x="633.693" y="544.205">&#x627;&#x644;&#x62d;&#x627;&#x644;&#x629; &#x627;&#x644;&#x627;&#x62c;&#x62a;&#x645;&#x627;&#x639;&#x64a;&#x629; </tspan></text>
<text fill="black" xml:space="preserve" style="white-space: pre" font-family="Harmattan" font-size="18" letter-spacing="-0.03em"><tspan x="522.214" y="540.205">&#x623;&#x639;&#x632;&#x628; - &#x63a;&#x64a;&#x631; &#x645;&#x62a;&#x632;&#x648;&#x62c;</tspan></text>
<text fill="#FF0000" xml:space="preserve" style="white-space: pre" font-family="Arial" font-size="18" letter-spacing="-0.03em"><tspan x="623.99" y="541.74">:</tspan></text>
<text fill="#FF0000" xml:space="preserve" style="white-space: pre" font-family="Harmattan" font-size="18" font-weight="bold" letter-spacing="-0.03em"><tspan x="682.193" y="568.205">&#x627;&#x644;&#x639;&#x646;&#x648;&#x627;&#x646;&#10;</tspan></text>
<text fill="black" xml:space="preserve" style="white-space: pre" font-family="Harmattan" font-size="18" letter-spacing="-0.03em"><tspan x="503.026" y="567.205">&#x627;&#x644;&#x631;&#x62d;&#x645;&#x627;&#x646;&#x64a;&#x629; - &#x645;&#x64a;&#x62a; &#x63a;&#x645;&#x631; - &#x627;&#x644;&#x62f;&#x642;&#x647;&#x644;&#x64a;&#x629;&#13;</tspan></text>
<text fill="#FF0000" xml:space="preserve" style="white-space: pre" font-family="Harmattan" font-size="18" letter-spacing="-0.03em"><tspan x="671.781" y="567.205">:</tspan></text>
<text fill="#FF0000" xml:space="preserve" style="white-space: pre" font-family="Harmattan" font-size="18" font-weight="bold" letter-spacing="-0.03em"><tspan x="687.096" y="488.205">&#x627;&#x644;&#x627;&#x633;&#x645;  </tspan></text>
<text fill="#FF0000" xml:space="preserve" style="white-space: pre" font-family="Arial" font-size="18" letter-spacing="-0.03em"><tspan x="681.99" y="492.74">:</tspan></text>
<text fill="black" xml:space="preserve" style="white-space: pre" font-family="Harmattan" font-size="18" letter-spacing="-0.03em"><tspan x="480.292" y="490.205"> &#x645;&#x635;&#x637;&#x641;&#x64a; &#x633;&#x639;&#x64a;&#x62f; &#x639;&#x628;&#x62f;&#x627;&#x644;&#x648;&#x647;&#x627;&#x628; &#x639;&#x628;&#x62f;&#x627;&#x644;&#x631;&#x62d;&#x645;&#x646;</tspan></text>
<path d="M738.5 486C738.994 486 739.478 485.824 739.889 485.494C740.3 485.165 740.62 484.696 740.81 484.148C740.999 483.6 741.048 482.997 740.952 482.415C740.856 481.833 740.617 481.298 740.268 480.879C739.918 480.459 739.473 480.173 738.988 480.058C738.503 479.942 738 480.001 737.543 480.228C737.086 480.455 736.696 480.84 736.421 481.333C736.147 481.827 736 482.407 736 483C736 483.796 736.263 484.559 736.732 485.121C737.201 485.684 737.837 486 738.5 486Z" fill="black"/>
<path d="M738.169 513C738.664 513 739.147 512.853 739.558 512.579C739.969 512.304 740.29 511.914 740.479 511.457C740.668 511 740.718 510.497 740.621 510.012C740.525 509.527 740.287 509.082 739.937 508.732C739.588 508.383 739.142 508.144 738.657 508.048C738.172 507.952 737.67 508.001 737.213 508.19C736.756 508.38 736.365 508.7 736.091 509.111C735.816 509.522 735.669 510.006 735.669 510.5C735.669 511.163 735.933 511.799 736.402 512.268C736.871 512.737 737.506 513 738.169 513Z" fill="#231F20"/>
<text fill="black" xml:space="preserve" style="white-space: pre" font-family="Harmattan" font-size="18" letter-spacing="-0.03em"><tspan x="489.547" y="518.205"> &#x639;&#x627;&#x645;   -   &#x623;&#x631;&#x628;&#x639;&#x629; &#x648;&#x639;&#x634;&#x631;&#x648;&#x646; &#x639;&#x627;&#x645;&#x627;&#x64b;</tspan></text>
<text fill="#2600FF" xml:space="preserve" style="white-space: pre" font-family="Harmattan" font-size="25" letter-spacing="-0.03em"><tspan x="647.777" y="517.645">24</tspan></text>
<text fill="#FF0000" xml:space="preserve" style="white-space: pre" font-family="Arial" font-size="18" letter-spacing="-0.03em"><tspan x="681.99" y="516.74">:</tspan></text>
<text fill="#FF0000" xml:space="preserve" style="white-space: pre" font-family="Harmattan" font-size="18" font-weight="bold" letter-spacing="-0.03em"><tspan x="688.709" y="515.205">&#x627;&#x644;&#x639;&#x645;&#x631;  </tspan></text>
<path d="M601.328 407.77C601.328 407.931 601.289 408.089 601.213 408.23C601.137 408.371 601.027 408.491 600.893 408.579C600.759 408.668 600.605 408.721 600.445 408.735C600.285 408.749 600.124 408.723 599.977 408.659C599.817 408.59 599.679 408.479 599.577 408.337C599.475 408.196 599.413 408.029 599.398 407.856C599.383 407.682 599.415 407.507 599.491 407.35C599.567 407.193 599.684 407.06 599.829 406.964C599.975 406.868 600.144 406.813 600.318 406.806C600.493 406.798 600.666 406.837 600.819 406.92C600.973 407.003 601.101 407.125 601.191 407.275C601.28 407.425 601.328 407.596 601.328 407.77Z" fill="#00AEEF" stroke="white" stroke-width="0.6"/>
<path d="M601.242 408.167C601.148 408.377 600.982 408.547 600.774 408.646C600.565 408.745 600.328 408.765 600.106 408.704C599.884 408.643 599.691 408.504 599.562 408.313C599.433 408.122 599.377 407.891 599.404 407.662C599.431 407.433 599.539 407.221 599.709 407.065C599.879 406.909 600.099 406.819 600.329 406.811C600.559 406.803 600.785 406.878 600.965 407.023C601.145 407.167 601.267 407.371 601.309 407.598C601.345 407.79 601.321 407.988 601.242 408.167Z" fill="#00AEEF" stroke="white" stroke-width="0.6"/>
<path d="M458.496 411.534L456.178 411.371L454.119 411.881L453.496 410.242C454.978 410.121 454.452 410.107 455.797 410.335C456.894 409.905 456.411 409.989 457.879 409.881C458.481 411.475 458.355 411.152 458.496 411.534Z" fill="#00AEEF" stroke="white" stroke-width="0.6"/>
<path d="M601.483 419.577C601.387 419.79 601.217 419.961 601.004 420.058C600.791 420.156 600.551 420.172 600.326 420.106C600.102 420.039 599.91 419.894 599.785 419.696C599.66 419.499 599.61 419.263 599.646 419.031C599.682 418.8 599.8 418.59 599.979 418.439C600.158 418.289 600.385 418.208 600.619 418.212C600.852 418.216 601.077 418.305 601.25 418.462C601.424 418.618 601.534 418.833 601.562 419.065C601.583 419.24 601.555 419.417 601.483 419.577Z" fill="#00AEEF" stroke="white" stroke-width="0.6"/>
<path d="M601.483 419.576C601.389 419.788 601.221 419.958 601.012 420.057C600.802 420.155 600.564 420.176 600.341 420.114C600.118 420.052 599.924 419.912 599.795 419.719C599.666 419.526 599.611 419.294 599.639 419.064C599.667 418.834 599.776 418.622 599.947 418.466C600.119 418.31 600.34 418.22 600.572 418.213C600.803 418.207 601.03 418.283 601.209 418.429C601.389 418.575 601.511 418.78 601.552 419.008C601.587 419.2 601.563 419.398 601.483 419.576Z" fill="#00AEEF" stroke="white" stroke-width="0.6"/>
<g filter="url(#filter0_d_0_1)">
<mask id="path-38-inside-1_0_1" fill="white">
<path d="M746.492 413L441.492 413L605.533 413H746.492Z"/>
</mask>
<path d="M746.492 413L441.492 413L605.533 413H746.492Z" fill="#231F20"/>
<path d="M746.492 413L441.492 413L605.533 413H746.492Z" stroke="black" stroke-width="2" mask="url(#path-38-inside-1_0_1)"/>
</g>
<g filter="url(#filter1_d_0_1)">
<mask id="path-39-inside-2_0_1" fill="white">
<path d="M727.496 896H471.496H727.496Z"/>
</mask>
<path d="M727.496 896H471.496H727.496Z" fill="#231F20"/>
<path d="M727.496 896H471.496H727.496Z" stroke="black" stroke-width="0.6" mask="url(#path-39-inside-2_0_1)"/>
</g>
<text fill="#FF0000" xml:space="preserve" style="white-space: pre" font-family="Harmattan" font-size="11" font-weight="bold" letter-spacing="0px"><tspan x="582.904" y="825.764">&#x627;&#x644;&#x62a;&#x62f;&#x631;&#x64a;&#x628;&#x627;&#x62a; &#x627;&#x644;&#x633;&#x627;&#x628;&#x642;&#x647; &#x627;&#x62b;&#x646;&#x627;&#x621; &#x627;&#x644;&#x62f;&#x631;&#x627;&#x633;&#x629; &#x627;&#x644;&#x62c;&#x627;&#x645;&#x639;&#x64a;&#x629;</tspan></text>
<text fill="black" xml:space="preserve" style="white-space: pre" font-family="Harmattan" font-size="11" font-weight="bold" letter-spacing="0px"><tspan x="724.841" y="825.764"> </tspan></text>
<text fill="#FF0000" xml:space="preserve" style="white-space: pre" font-family="Arial" font-size="18" letter-spacing="-0.03em"><tspan x="571.99" y="828.74">:</tspan></text>
<text fill="black" xml:space="preserve" style="white-space: pre" font-family="Harmattan" font-size="13" font-weight="bold" letter-spacing="0px"><tspan x="567" y="842.676">&#10;</tspan></text>
<text fill="black" xml:space="preserve" style="white-space: pre" font-family="Harmattan" font-size="13" font-weight="bold" letter-spacing="0px"><tspan x="474.87" y="826.676">&#x627;&#x644;&#x62a;&#x62f;&#x631;&#x64a;&#x628; &#x627;&#x644;&#x645;&#x64a;&#x62f;&#x627;&#x646;&#x64a; &#x641;&#x64a; &#10;</tspan></text>
<text fill="#707070" xml:space="preserve" style="white-space: pre" font-family="Harmattan" font-size="11" font-weight="bold" letter-spacing="0px"><tspan x="474.597" y="845.764"> &#x627;&#x644;&#x645;&#x62f;&#x627;&#x631;&#x633; &#x627;&#x644;&#x62d;&#x643;&#x648;&#x645;&#x64a;&#x647; &#x627;&#x644;&#x645;&#x635;&#x631;&#x64a;&#x647; &#x648;&#x642;&#x62f; &#x62d;&#x635;&#x644;&#x62a; &#x639;&#x644;&#x64a; 96 % &#x643;&#x62f;&#x631;&#x62c;&#x647; &#x639;&#x644;&#x64a; &#x630;&#x644;&#x643;&#13;&#10;</tspan><tspan x="509.058" y="860.764">&#x645;&#x62f;&#x631;&#x633;&#x647; &#x62e;&#x627;&#x644;&#x62f; &#x628;&#x646; &#x627;&#x644;&#x648;&#x644;&#x64a;&#x62f; &#x627;&#x644;&#x627;&#x628;&#x62a;&#x62f;&#x627;&#x626;&#x64a;&#x629;  &#x628;&#x645;&#x64a;&#x62a; &#x63a;&#x645;&#x631;  &#x644;&#x645;&#x62f;&#x629; &#x639;&#x627;&#x645; 2022&#13;&#10;</tspan><tspan x="506.759" y="875.764">&#x645;&#x62f;&#x631;&#x633;&#x629; &#x627;&#x644;&#x62b;&#x627;&#x646;&#x648;&#x64a;&#x629; &#x627;&#x644;&#x62c;&#x62f;&#x64a;&#x62f;&#x629; &#x628;&#x646;&#x627;&#x62a; &#x628;&#x645;&#x64a;&#x62a; &#x63a;&#x645;&#x631; &#x644;&#x645;&#x62f;&#x629; &#x639;&#x627;&#x645; &#x627;&#x62e;&#x631; 2023</tspan></text>
<text fill="black" xml:space="preserve" style="white-space: pre" font-family="Harmattan" font-size="11" font-weight="bold" letter-spacing="0px"><tspan x="717.327" y="875.764">&#13;&#10;</tspan></text>
<path d="M737.989 849.776C738.554 849.776 739.107 849.665 739.577 849.458C740.047 849.25 740.413 848.955 740.629 848.611C740.846 848.266 740.902 847.886 740.792 847.52C740.682 847.153 740.41 846.817 740.01 846.553C739.61 846.289 739.101 846.109 738.547 846.036C737.992 845.963 737.418 846.001 736.896 846.144C736.373 846.287 735.927 846.529 735.613 846.839C735.299 847.15 735.131 847.515 735.131 847.888C735.131 848.389 735.432 848.869 735.968 849.223C736.504 849.577 737.231 849.776 737.989 849.776Z" fill="#231F20"/>
<text fill="#FF0000" xml:space="preserve" style="white-space: pre" font-family="Arial" font-size="18" letter-spacing="-0.03em"><tspan x="651.99" y="658.74">:</tspan></text>
<rect x="660.5" y="642.5" width="67" height="19" stroke="#5500FF"/>
<text fill="#5500FF" xml:space="preserve" style="white-space: pre" font-family="Harmattan" font-size="13" font-weight="bold" letter-spacing="0px"><tspan x="725.118" y="654.676"> </tspan></text>
<text fill="#FF0000" xml:space="preserve" style="white-space: pre" font-family="Harmattan" font-size="13" font-weight="bold" letter-spacing="0px"><tspan x="659.928" y="654.676"> &#x627;&#x644;&#x648;&#x638;&#x64a;&#x641;&#x647; &#x627;&#x644;&#x62d;&#x627;&#x644;&#x64a;&#x647;</tspan></text>
<text fill="black" xml:space="preserve" style="white-space: pre" font-family="Harmattan" font-size="13" font-weight="bold" letter-spacing="0px"><tspan x="460.871" y="655.676">&#x645;&#x639;&#x644;&#x645; &#x631;&#x64a;&#x627;&#x636;&#x64a;&#x627;&#x62a; &#x648;&#x62d;&#x627;&#x633;&#x628; &#x623;&#x644;&#x64a; &#x628;&#x645;&#x62f;&#x631;&#x633;&#x647; &#x627;&#x644;&#x634;&#x647;&#x64a;&#x62f; </tspan></text>
<text fill="black" xml:space="preserve" style="white-space: pre" font-family="Harmattan" font-size="13" font-weight="bold" letter-spacing="0px"><tspan x="457.844" y="680.676">&#x645;&#x62d;&#x645;&#x62f; &#x627;&#x644;&#x634;&#x627;&#x641;&#x639;&#x64a; &#x628;&#x64a;&#x648;&#x645;&#x64a; &#x628;&#x642;&#x631;&#x64a;&#x629; &#x639;&#x641;&#x64a;&#x641;&#x64a; &#x628;&#x648;&#x632;&#x627;&#x631;&#x629; &#x627;&#x644;&#x62a;&#x631;&#x628;&#x64a;&#x629; &#x648;&#x627;&#x644;&#x62a;&#x639;&#x644;&#x64a;&#x645; &#13;&#10;</tspan><tspan x="613.247" y="704.676">&#x628;&#x62c;&#x645;&#x647;&#x648;&#x64a;&#x629; &#x645;&#x635;&#x631; &#x627;&#x644;&#x639;&#x631;&#x628;&#x64a;&#x629; </tspan></text>
<path d="M737.989 679.776C738.554 679.776 739.107 679.665 739.577 679.458C740.047 679.25 740.413 678.955 740.629 678.611C740.846 678.266 740.902 677.886 740.792 677.52C740.682 677.153 740.41 676.817 740.01 676.553C739.61 676.289 739.101 676.109 738.547 676.036C737.992 675.963 737.418 676.001 736.896 676.144C736.373 676.287 735.927 676.529 735.613 676.839C735.299 677.15 735.131 677.515 735.131 677.888C735.131 678.389 735.432 678.869 735.968 679.223C736.504 679.577 737.231 679.776 737.989 679.776Z" fill="#231F20"/>
<path d="M592.415 707.699H592.377L591 706.341C591.644 706.561 592.358 706.675 593.083 706.675C593.808 706.675 594.522 706.561 595.167 706.341L593.785 707.699H593.756L597.139 714.716L600.222 711.192L603.652 713.406L605.809 710.632C603.781 708.321 600.595 706.551 596.802 705.627C598.251 704.706 599.384 703.589 600.121 702.352C600.931 701.015 601.366 699.592 601.403 698.152C601.443 696.336 600.586 694.56 598.963 693.094C598.32 692.451 597.446 691.922 596.418 691.557C595.391 691.191 594.242 691 593.075 691C591.908 691 590.759 691.191 589.731 691.557C588.704 691.922 587.829 692.451 587.187 693.094C585.563 694.56 584.707 696.336 584.746 698.152C584.785 699.592 585.221 701.015 586.033 702.352C586.773 703.589 587.909 704.706 589.363 705.626C582.838 707.044 578 711.893 578 715.489C578 717.617 585.537 718.677 593.079 718.677L588.853 715.054L592.415 707.699Z" fill="#71F200" stroke="#070505" stroke-width="0.5"/>
<path d="M593.093 718.69C595.239 718.694 597.382 718.602 599.508 718.415L596.027 716.17L593.093 718.69Z" fill="#71F200" stroke="#070505" stroke-width="0.5"/>
<path d="M608.73 709.809L604.133 715.734L600.611 713.462L598.575 715.78L604.955 719.902L611.549 711.418L608.73 709.809Z" fill="#F20000" stroke="#070505" stroke-width="0.5"/>
<text fill="#FF0000" xml:space="preserve" style="white-space: pre" font-family="Harmattan" font-size="13" font-weight="bold" letter-spacing="0px"><tspan x="667.393" y="740.676">&#x627;&#x644;&#x648;&#x638;&#x64a;&#x641;&#x647; &#x633;&#x627;&#x628;&#x642;&#x627;</tspan></text>
<text fill="black" xml:space="preserve" style="white-space: pre" font-family="Harmattan" font-size="13" font-weight="bold" letter-spacing="0px"><tspan x="725.448" y="740.676"> </tspan></text>
<text fill="#FF0000" xml:space="preserve" style="white-space: pre" font-family="Arial" font-size="18" letter-spacing="-0.03em"><tspan x="656.99" y="744.74">:</tspan></text>
<text fill="black" xml:space="preserve" style="white-space: pre" font-family="Harmattan" font-size="13" font-weight="bold" letter-spacing="0px"><tspan x="446.92" y="741.676">&#x639;&#x645;&#x644;&#x62a; &#x641;&#x64a; &#x645;&#x637;&#x628;&#x639;&#x647; &#x644;&#x645;&#x62f;&#x629; &#x623;&#x631;&#x628;&#x639; &#x633;&#x646;&#x648;&#x627;&#x62a; &#x641;&#x64a; &#x637;&#x628;&#x627;&#x639;&#x629;  &#13;&#10;</tspan></text>
<text fill="black" xml:space="preserve" style="white-space: pre" font-family="Harmattan" font-size="13" font-weight="bold" letter-spacing="0px"><tspan x="529.526" y="759.676">&#x627;&#x644;&#x645;&#x633;&#x62a;&#x646;&#x62f;&#x627;&#x62a;</tspan></text>
<path d="M737.989 768.776C738.554 768.776 739.107 768.665 739.577 768.458C740.047 768.25 740.413 767.955 740.629 767.611C740.846 767.266 740.902 766.886 740.792 766.52C740.682 766.153 740.41 765.817 740.01 765.553C739.61 765.289 739.101 765.109 738.547 765.036C737.992 764.963 737.418 765.001 736.896 765.144C736.373 765.287 735.927 765.529 735.613 765.839C735.299 766.15 735.131 766.515 735.131 766.888C735.131 767.389 735.432 767.869 735.968 768.223C736.504 768.577 737.231 768.776 737.989 768.776Z" fill="#231F20"/>
<path d="M592.415 788.699H592.377L591 787.341C591.644 787.561 592.358 787.675 593.083 787.675C593.808 787.675 594.522 787.561 595.167 787.341L593.785 788.699H593.756L597.139 795.716L600.222 792.192L603.652 794.406L605.809 791.632C603.781 789.321 600.595 787.551 596.802 786.627C598.251 785.706 599.384 784.589 600.121 783.352C600.931 782.015 601.366 780.592 601.403 779.152C601.443 777.336 600.586 775.56 598.963 774.094C598.32 773.451 597.446 772.922 596.418 772.557C595.391 772.191 594.242 772 593.075 772C591.908 772 590.759 772.191 589.731 772.557C588.704 772.922 587.829 773.451 587.187 774.094C585.563 775.56 584.707 777.336 584.746 779.152C584.785 780.592 585.221 782.015 586.033 783.352C586.773 784.589 587.909 785.706 589.363 786.626C582.838 788.044 578 792.893 578 796.489C578 798.617 585.537 799.677 593.079 799.677L588.853 796.054L592.415 788.699Z" fill="#71F200" stroke="#070505" stroke-width="0.5"/>
<path d="M593.093 799.69C595.239 799.694 597.382 799.602 599.508 799.415L596.027 797.17L593.093 799.69Z" fill="#71F200" stroke="#070505" stroke-width="0.5"/>
<path d="M439.67 903.504H396.746C393.514 903.504 390.893 905.279 390.893 907.468V931.251C390.893 933.44 393.514 935.214 396.746 935.214H439.67C442.902 935.214 445.523 933.44 445.523 931.251V907.468C445.523 905.279 442.902 903.504 439.67 903.504Z" fill="#FF0101"/>
<path d="M435.767 929.93H400.648C400.13 929.93 399.634 929.79 399.268 929.543C398.902 929.295 398.697 928.959 398.697 928.608C398.697 928.258 398.902 927.922 399.268 927.674C399.634 927.426 400.13 927.287 400.648 927.287H435.767C436.285 927.287 436.781 927.426 437.147 927.674C437.513 927.922 437.718 928.258 437.718 928.608C437.718 928.959 437.513 929.295 437.147 929.543C436.781 929.79 436.285 929.93 435.767 929.93Z" fill="#EEEEEE"/>
<path d="M424.062 931.251C423.544 931.251 423.048 931.112 422.682 930.864C422.316 930.616 422.111 930.28 422.111 929.93V927.287C422.111 926.937 422.316 926.601 422.682 926.353C423.048 926.105 423.544 925.966 424.062 925.966C424.579 925.966 425.076 926.105 425.442 926.353C425.807 926.601 426.013 926.937 426.013 927.287V929.93C426.013 930.28 425.807 930.616 425.442 930.864C425.076 931.112 424.579 931.251 424.062 931.251Z" fill="black"/>
<path d="M396.746 903.504C395.194 903.504 393.705 903.922 392.607 904.665C391.51 905.408 390.893 906.416 390.893 907.468V931.251C390.893 932.302 391.51 933.31 392.607 934.053C393.705 934.797 395.194 935.214 396.746 935.214H418.208V903.504H396.746Z" fill="#01B2FF"/>
<path d="M400.648 927.287C400.13 927.287 399.634 927.426 399.268 927.674C398.902 927.922 398.697 928.258 398.697 928.608C398.697 928.959 398.902 929.295 399.268 929.543C399.634 929.79 400.13 929.93 400.648 929.93H418.208V927.287H400.648Z" fill="#FAFAFA"/>
<path d="M413.234 910.335C412.937 910.233 412.606 910.185 412.274 910.195C411.942 910.204 411.618 910.271 411.335 910.389C411.052 910.506 410.817 910.671 410.654 910.868C410.492 911.064 410.406 911.285 410.405 911.511V921.922C410.407 922.158 410.502 922.388 410.681 922.59C410.859 922.793 411.114 922.959 411.419 923.072C411.702 923.187 412.026 923.246 412.356 923.244C412.721 923.244 413.079 923.176 413.39 923.045L418.209 920.997V912.013L413.234 910.335Z" fill="#00AEEF"/>
<path d="M426.891 914.959L413.234 910.335C412.937 910.233 412.606 910.185 412.274 910.195C411.942 910.204 411.618 910.271 411.335 910.389C411.052 910.506 410.817 910.671 410.654 910.868C410.492 911.064 410.406 911.285 410.405 911.511V921.922C410.407 922.158 410.502 922.388 410.681 922.59C410.859 922.793 411.114 922.959 411.419 923.072C411.702 923.187 412.026 923.246 412.356 923.244C412.721 923.244 413.079 923.176 413.39 923.045L427.047 917.258C427.343 917.133 427.584 916.957 427.745 916.748C427.906 916.539 427.982 916.305 427.964 916.069C427.946 915.836 427.837 915.611 427.648 915.416C427.46 915.221 427.199 915.064 426.891 914.959Z" fill="#EEEEEE"/>
<path d="M502.885 908.015H509.259L500.154 902V906.211C500.154 907.207 501.377 908.015 502.885 908.015Z" fill="#00AEEF"/>
<path d="M499.161 905.008H461.457V915.534H499.161C499.709 915.534 500.154 915.272 500.154 914.949V905.593C500.154 905.27 499.709 905.008 499.161 905.008Z" fill="#C6CACF"/>
<path d="M496.908 915.534H455.601C454.737 915.534 454.304 914.814 454.915 914.393L461.989 909.519L454.915 904.645C454.304 904.224 454.737 903.504 455.601 903.504H496.908C497.444 903.504 497.878 903.803 497.878 904.172V914.866C497.878 915.235 497.444 915.534 496.908 915.534Z" fill="#00AEEF"/>
<path d="M476.377 907.455H472.619C472.101 907.455 471.68 907.733 471.68 908.076V911.8C471.68 912.142 472.101 912.42 472.619 912.42C473.138 912.42 473.559 912.142 473.559 911.8V910.558H476.377C476.896 910.558 477.317 910.28 477.317 909.938V908.076C477.317 907.733 476.896 907.455 476.377 907.455ZM475.438 909.317H473.559V908.696H475.438V909.317Z" fill="white"/>
<path d="M481.074 907.455H479.195C478.677 907.455 478.256 907.733 478.256 908.076V911.8C478.256 912.142 478.677 912.42 479.195 912.42H482.953C483.472 912.42 483.893 912.142 483.893 911.8V909.317C483.893 908.29 482.629 907.455 481.074 907.455ZM482.014 911.179H480.135V908.696H481.074C481.592 908.696 482.014 908.975 482.014 909.317L482.014 911.179Z" fill="white"/>
<path d="M489.53 907.455H485.772C485.253 907.455 484.832 907.733 484.832 908.076V911.8C484.832 912.142 485.253 912.42 485.772 912.42C486.29 912.42 486.711 912.142 486.711 911.8V910.558H488.59C489.109 910.558 489.53 910.28 489.53 909.938C489.53 909.595 489.109 909.317 488.59 909.317H486.711V908.696H489.53C490.048 908.696 490.469 908.418 490.469 908.076C490.469 907.733 490.048 907.455 489.53 907.455Z" fill="white"/>
<path d="M499.229 936.587H471.487C470.977 936.587 470.563 936.295 470.563 935.936V917.69C470.563 917.33 470.977 917.038 471.487 917.038H499.229C499.74 917.038 500.154 917.33 500.154 917.69V935.936C500.154 936.296 499.74 936.587 499.229 936.587Z" fill="#C6CACF"/>
<path d="M472.412 935.284V917.038H471.487C470.977 917.038 470.563 917.33 470.563 917.69V935.936C470.563 936.296 470.977 936.587 471.487 936.587H499.229C499.74 936.587 500.154 936.295 500.154 935.936V935.284H472.412Z" fill="#00AEEF"/>
<path d="M497.002 933.579H487.372C486.888 933.579 486.496 933.291 486.496 932.935V925.201C486.496 924.845 486.888 924.557 487.372 924.557H497.002C497.486 924.557 497.878 924.845 497.878 925.201V932.935C497.878 933.291 497.486 933.579 497.002 933.579Z" fill="black"/>
<path d="M495.601 926.061H488.772V932.076H495.601V926.061Z" fill="#00AEEF"/>
<path d="M497.046 921.108H486.712C486.193 921.108 485.772 920.831 485.772 920.488C485.772 920.145 486.193 919.867 486.712 919.867H497.046C497.565 919.867 497.985 920.145 497.985 920.488C497.985 920.831 497.565 921.108 497.046 921.108Z" fill="#EF0000"/>
<path d="M497.046 923.591H486.712C486.193 923.591 485.772 923.313 485.772 922.97C485.772 922.627 486.193 922.35 486.712 922.35H497.046C497.565 922.35 497.985 922.628 497.985 922.97C497.985 923.313 497.565 923.591 497.046 923.591Z" fill="#EF0000"/>
<path d="M483.893 921.108H474.498C473.979 921.108 473.558 920.831 473.558 920.488C473.558 920.145 473.979 919.867 474.498 919.867H483.893C484.412 919.867 484.832 920.145 484.832 920.488C484.832 920.831 484.411 921.108 483.893 921.108Z" fill="#EF0000"/>
<path d="M483.892 923.591H474.498C473.979 923.591 473.558 923.313 473.558 922.97C473.558 922.627 473.979 922.35 474.498 922.35H483.892C484.411 922.35 484.832 922.628 484.832 922.97C484.832 923.313 484.411 923.591 483.892 923.591Z" fill="#EF0000"/>
<path d="M483.892 926.074H474.498C473.979 926.074 473.558 925.796 473.558 925.454C473.558 925.111 473.979 924.833 474.498 924.833H483.892C484.411 924.833 484.832 925.111 484.832 925.454C484.832 925.796 484.411 926.074 483.892 926.074Z" fill="#EF0000"/>
<path d="M483.892 928.556H474.498C473.979 928.556 473.558 928.278 473.558 927.935C473.558 927.592 473.979 927.314 474.498 927.314H483.892C484.411 927.314 484.832 927.592 484.832 927.935C484.832 928.278 484.411 928.556 483.892 928.556Z" fill="#EF0000"/>
<path d="M483.892 931.039H474.498C473.979 931.039 473.558 930.761 473.558 930.418C473.558 930.076 473.979 929.798 474.498 929.798H483.892C484.411 929.798 484.832 930.076 484.832 930.418C484.832 930.761 484.411 931.039 483.892 931.039Z" fill="#EF0000"/>
<path d="M483.892 933.521H474.498C473.979 933.521 473.558 933.243 473.558 932.9C473.558 932.557 473.979 932.279 474.498 932.279H483.892C484.411 932.279 484.832 932.557 484.832 932.9C484.832 933.243 484.411 933.521 483.892 933.521Z" fill="#EF0000"/>
<path d="M331.71 935.836V939.595H384.064V935.836L358.007 933.58L331.71 935.836Z" fill="#EEEEEE"/>
<path d="M331.71 932.826V936.585H384.064V932.826L358.007 930.57L331.71 932.826Z" fill="#DCDCDC"/>
<path d="M384.065 905.008V932.076H380.65L372.683 918.542L380.65 905.008H384.065Z" fill="#EEEEEE"/>
<path d="M381.788 905.008V907.295L373.54 918.542L381.788 929.788V932.076H331.71V905.008H381.788Z" fill="white"/>
<path d="M333.988 906.511V923.666L357.889 926.06L381.789 923.666V906.511H333.988Z" fill="#29B71C"/>
<path d="M359.026 909.519V915.534C360.283 915.534 361.302 914.187 361.302 912.526C361.302 910.865 360.283 909.519 359.026 909.519Z" fill="#FE5F1A"/>
<path d="M358.116 909.519C358.618 909.519 359.026 910.865 359.026 912.526C359.026 914.187 358.618 915.534 358.116 915.534C356.104 915.534 354.474 914.187 354.474 912.526C354.474 910.865 356.104 909.519 358.116 909.519Z" fill="#00AEEF"/>
<path d="M381.788 927.565L368.131 920.046L378.284 921.246L381.789 923.671L381.788 927.565Z" fill="#027372"/>
<path d="M376.266 921.676L369.772 918.542L361.406 921.676L356.75 924.77L367.49 930.572H381.788V926.404L376.266 921.676Z" fill="#E53935"/>
<path d="M379.512 921.442L377.604 921.549L370.407 919.324V915.534L379.512 921.442Z" fill="#EEEEEE"/>
<path d="M361.302 921.549L368.991 915.534L374.959 921.549L361.302 921.549Z" fill="white"/>
<path d="M365.854 930.572H361.692L345.368 920.046L354.409 921.297L365.854 930.572Z" fill="#027372"/>
<path d="M351.483 921.676L361.303 930.572H333.988V924.102L337.438 921.676L345.345 918.542L351.483 921.676Z" fill="#00AEEF"/>
<path d="M354.473 921.442L352.565 921.549L345.368 919.324V915.534L354.473 921.442Z" fill="#EEEEEE"/>
<path d="M336.264 921.549L345.234 915.534L352.198 921.549L336.264 921.549Z" fill="white"/>
<path d="M385.433 938.091C384.931 938.091 384.525 938.379 384.525 938.735V939.809H331.251V938.735C331.251 938.379 330.844 938.091 330.343 938.091C329.841 938.091 329.434 938.379 329.434 938.735V940.454C329.434 940.81 329.841 941.098 330.343 941.098H385.433C385.934 941.098 386.341 940.81 386.341 940.454V938.735C386.341 938.379 385.934 938.091 385.433 938.091Z" fill="#00AEEF"/>
<path d="M385.433 933.58C384.931 933.58 384.525 933.869 384.525 934.225V935.299H331.251V934.225C331.251 933.869 330.844 933.58 330.343 933.58C329.841 933.58 329.434 933.869 329.434 934.225V935.943C329.434 936.299 329.841 936.588 330.343 936.588H385.433C385.934 936.588 386.341 936.299 386.341 935.943V934.225C386.341 933.869 385.934 933.58 385.433 933.58Z" fill="#00AEEF"/>
<path d="M385.433 903.504H330.343C329.841 903.504 329.434 903.777 329.434 904.114V932.97C329.434 933.307 329.841 933.58 330.343 933.58H385.433C385.934 933.58 386.341 933.307 386.341 932.97V904.114C386.341 903.777 385.934 903.504 385.433 903.504ZM384.525 932.36H331.251V904.723H384.525V932.36Z" fill="#00AEEF"/>
<path d="M363.579 912.526C363.579 910.868 361.026 909.519 357.888 909.519C354.75 909.519 352.198 910.868 352.198 912.526C352.198 914.184 354.75 915.534 357.888 915.534C361.026 915.534 363.579 914.184 363.579 912.526ZM353.995 912.526C353.995 911.391 355.741 910.468 357.888 910.468C360.035 910.468 361.782 911.391 361.782 912.526C361.782 913.661 360.035 914.584 357.888 914.584C355.741 914.584 353.995 913.661 353.995 912.526Z" fill="black"/>
<path d="M331.71 929.954C331.71 930.295 332.139 930.572 332.668 930.572H383.107C383.636 930.572 384.064 930.295 384.064 929.954V905.626C384.064 905.285 383.636 905.008 383.107 905.008H332.668C332.139 905.008 331.71 905.285 331.71 905.626V910.574C331.71 910.916 332.139 911.193 332.668 911.193C333.197 911.193 333.626 910.916 333.626 910.574V906.245H382.149V921.863L371.174 914.776C370.8 914.534 370.194 914.534 369.82 914.776L357.887 922.482L345.955 914.775C345.58 914.534 344.974 914.534 344.6 914.775L333.626 921.863V913.048C333.626 912.707 333.197 912.43 332.668 912.43C332.139 912.43 331.71 912.707 331.71 913.048V929.954ZM370.497 916.088L376.964 920.264H364.03L370.497 916.088ZM345.278 916.088L351.745 920.264H338.811L345.278 916.088ZM336.896 921.501H353.66L357.209 923.793C357.211 923.795 363.595 927.917 363.595 927.917C363.782 928.038 364.027 928.098 364.272 928.098C364.517 928.098 364.762 928.038 364.949 927.917C365.323 927.675 365.323 927.284 364.949 927.042L359.242 923.356L362.115 921.501H378.879L382.149 923.613V929.335H333.626V923.613L336.896 921.501Z" fill="black"/>
<path fill-rule="evenodd" clip-rule="evenodd" d="M304.549 909.567C304.851 909.567 305.099 909.832 305.099 910.155V921.208H304V910.155C304 909.828 304.246 909.567 304.549 909.567Z" fill="#FFFFFE"/>
<text fill="#FF0000" xml:space="preserve" style="white-space: pre" font-family="Arial" font-size="31" font-weight="900" letter-spacing="0em"><tspan x="714" y="37.2607">AR</tspan></text>
<text fill="#00AEEF" xml:space="preserve" style="white-space: pre" font-family="Arial" font-size="31" font-weight="900" letter-spacing="0em"><tspan x="63" y="34.2607">EN</tspan></text>
<path d="M295.021 427H128.992V454.59H295.021V427Z" fill="#00AEEF"/>
<text fill="#070707" stroke="#00AEEF" stroke-width="0.3" xml:space="preserve" style="white-space: pre" font-family="Harmattan" font-size="21" font-weight="500" letter-spacing="-0.01em"><tspan x="152.5" y="188.322">&#x648;&#x64e;&#x645;&#x64e;&#x627; &#x62a;&#x64e;&#x648;&#x652;&#x641;&#x650;&#x64a;&#x642;&#x650;&#x64a; &#x625;&#x650;&#x644;&#x651;&#x64e;&#x627; &#x628;&#x650;&#x627;&#x644;&#x644;&#x651;&#x64e;&#x647;</tspan></text>
<text fill="black" xml:space="preserve" style="white-space: pre" font-family="Arial" font-size="31" font-weight="900" letter-spacing="0em"><tspan x="73.9922" y="112.261">MOSTAFA</tspan></text>
<text fill="#00AEEF" xml:space="preserve" style="white-space: pre" font-family="Arial" font-size="31" font-weight="900" letter-spacing="0em"><tspan x="73.9922" y="151.261">SAID</tspan></text>
<text fill="black" stroke="#00AEEF" stroke-width="0.5" xml:space="preserve" style="white-space: pre" font-family="Andalus" font-size="16" letter-spacing="0.92em"><tspan x="48" y="346.469">Graphic designer</tspan></text>
<text fill="black" stroke="#00AEEF" stroke-width="0.5" xml:space="preserve" style="white-space: pre" font-family="Andalus" font-size="16" letter-spacing="0.26em"><tspan x="48" y="379.469">Time management app developer</tspan></text>
<text fill="black" stroke="#00AEEF" stroke-width="0.5" xml:space="preserve" style="white-space: pre" font-family="Andalus" font-size="13" letter-spacing="0.79em"><tspan x="48" y="312.443">Instructional designer</tspan></text>
<text fill="black" stroke="#00AEEF" stroke-width="0.5" xml:space="preserve" style="white-space: pre" font-family="Andalus" font-size="20" letter-spacing="0.62em"><tspan x="48" y="280.336">Computer teacher</tspan></text>
<text fill="white" xml:space="preserve" style="white-space: pre" font-family="Harmattan" font-size="20" font-weight="bold" letter-spacing="0em"><tspan x="163" y="445.116">Basic data&#10;</tspan></text>
<path d="M348.983 452.726C352.534 452.726 356.006 452.03 358.959 450.727C361.912 449.423 364.214 447.57 365.573 445.403C366.932 443.235 367.287 440.85 366.595 438.549C365.902 436.247 364.191 434.134 361.68 432.475C359.169 430.816 355.969 429.686 352.486 429.228C349.003 428.77 345.392 429.005 342.111 429.903C338.83 430.801 336.025 432.321 334.052 434.272C332.079 436.223 331.026 438.517 331.026 440.863C331.026 444.009 332.918 447.027 336.285 449.251C339.653 451.476 344.22 452.726 348.983 452.726Z" fill="#00AEEF" stroke="#707070"/>
<path d="M339.59 446.933C339.59 445.422 340.499 443.972 342.117 442.903C343.735 441.834 345.93 441.233 348.218 441.233C350.506 441.233 352.701 441.834 354.319 442.903C355.937 443.972 356.846 445.422 356.846 446.933H339.59ZM343.459 436.514C343.458 435.786 343.84 435.081 344.539 434.518C345.238 433.955 346.21 433.57 347.291 433.428C348.371 433.286 349.493 433.395 350.465 433.738C351.437 434.082 352.199 434.637 352.62 435.309C353.042 435.982 353.098 436.73 352.778 437.426C352.458 438.123 351.782 438.725 350.866 439.129C349.95 439.533 348.85 439.715 347.753 439.644C346.657 439.573 345.632 439.252 344.853 438.737C343.961 438.148 343.459 437.348 343.459 436.514Z" fill="white"/>
<path d="M348.669 563C349.164 563 349.647 562.853 350.058 562.579C350.469 562.304 350.79 561.914 350.979 561.457C351.168 561 351.218 560.497 351.121 560.012C351.025 559.527 350.787 559.082 350.437 558.732C350.088 558.383 349.642 558.145 349.157 558.048C348.672 557.952 348.17 558.001 347.713 558.19C347.256 558.38 346.865 558.7 346.591 559.111C346.316 559.522 346.169 560.006 346.169 560.5C346.169 561.163 346.433 561.799 346.902 562.268C347.371 562.737 348.006 563 348.669 563Z" fill="#231F20"/>
<path d="M295.021 585H128.992V612.59H295.021V585Z" fill="#00AEEF"/>
<text fill="white" xml:space="preserve" style="white-space: pre" font-family="Harmattan" font-size="20" font-weight="bold" letter-spacing="0.02em"><tspan x="141" y="603.116">Job and experience</tspan></text>
<path d="M349.446 610.704C353.294 610.704 357.055 609.95 360.254 608.538C363.453 607.126 365.947 605.119 367.419 602.77C368.892 600.422 369.277 597.838 368.526 595.345C367.776 592.852 365.923 590.562 363.202 588.764C360.481 586.967 357.015 585.743 353.241 585.247C349.468 584.751 345.556 585.006 342.001 585.978C338.447 586.951 335.408 588.598 333.271 590.712C331.133 592.825 329.992 595.31 329.992 597.852C329.992 601.261 332.042 604.53 335.69 606.94C339.338 609.35 344.287 610.704 349.446 610.704Z" fill="#00AEEF" stroke="#707070"/>
<path d="M341.348 605.203C340.613 605.203 339.908 605.01 339.388 604.666C338.868 604.323 338.576 603.857 338.576 603.371V599.355H341.314V600.112C341.314 600.168 341.33 600.224 341.361 600.276C341.394 600.328 341.441 600.375 341.501 600.415C341.561 600.455 341.632 600.486 341.711 600.508C341.789 600.53 341.873 600.541 341.958 600.541H344.252C344.423 600.54 344.586 600.495 344.707 600.415C344.766 600.376 344.814 600.329 344.846 600.278C344.879 600.226 344.896 600.171 344.896 600.115V599.358H352.328V600.115C352.328 600.229 352.397 600.338 352.519 600.418C352.64 600.499 352.805 600.544 352.977 600.544H355.277C355.448 600.543 355.612 600.498 355.732 600.417C355.853 600.337 355.92 600.228 355.92 600.115V599.358H358.658V603.375C358.658 603.615 358.586 603.853 358.448 604.075C358.165 604.524 357.625 604.88 356.946 605.067C356.61 605.159 356.25 605.206 355.887 605.206L341.348 605.203ZM338.576 597.998V595.691C338.577 595.451 338.648 595.213 338.785 594.991C338.994 594.656 339.349 594.369 339.806 594.167C340.262 593.965 340.799 593.857 341.348 593.857H343.456V593.175C343.457 592.64 343.78 592.126 344.354 591.748C344.927 591.37 345.705 591.157 346.515 591.157H350.722C351.532 591.157 352.309 591.37 352.882 591.749C353.455 592.127 353.777 592.64 353.778 593.175V593.857H355.888C356.252 593.858 356.612 593.905 356.948 593.997C357.285 594.09 357.591 594.225 357.849 594.395C358.106 594.566 358.31 594.768 358.449 594.991C358.588 595.213 358.66 595.451 358.66 595.691V597.998H338.576ZM345.68 593.173V593.855H351.559V593.173C351.558 593.027 351.469 592.887 351.312 592.783C351.156 592.68 350.943 592.622 350.722 592.621H346.515C346.294 592.622 346.082 592.68 345.925 592.783C345.768 592.887 345.68 593.027 345.68 593.173Z" fill="white"/>
<path d="M348.669 539C349.164 539 349.647 538.853 350.058 538.579C350.469 538.304 350.79 537.914 350.979 537.457C351.168 537 351.218 536.497 351.121 536.012C351.025 535.527 350.787 535.082 350.437 534.732C350.088 534.383 349.642 534.145 349.157 534.048C348.672 533.952 348.17 534.001 347.713 534.19C347.256 534.38 346.865 534.7 346.591 535.111C346.316 535.522 346.169 536.006 346.169 536.5C346.169 537.163 346.433 537.799 346.902 538.268C347.371 538.737 348.006 539 348.669 539Z" fill="#231F20"/>
<text fill="#FF0000" xml:space="preserve" style="white-space: pre" font-family="Harmattan" font-size="18" letter-spacing="-0.03em"><tspan x="255.41" y="540.205">marital status</tspan></text>
<text fill="black" xml:space="preserve" style="white-space: pre" font-family="Harmattan" font-size="18" letter-spacing="-0.03em"><tspan x="190.741" y="540.205">Single</tspan></text>
<text fill="#FF0000" xml:space="preserve" style="white-space: pre" font-family="Arial" font-size="18" letter-spacing="-0.03em"><tspan x="234.49" y="541.74">:</tspan></text>
<text fill="#FF0000" xml:space="preserve" style="white-space: pre" font-family="Harmattan" font-size="16" letter-spacing="-0.03em"><tspan x="290.927" y="565.793">address&#10;</tspan></text>
<text fill="black" xml:space="preserve" style="white-space: pre" font-family="Harmattan" font-size="18" letter-spacing="-0.03em"><tspan x="53.9371" y="567.205">Al-Rahmaniyah - Mit Ghamr - Dakahlia</tspan></text>
<text fill="#FF0000" xml:space="preserve" style="white-space: pre" font-family="Harmattan" font-size="18" letter-spacing="-0.03em"><tspan x="282.281" y="567.205">:</tspan></text>
<path d="M348.669 491.442C349.164 491.442 349.647 491.266 350.058 490.937C350.469 490.607 350.79 490.139 350.979 489.59C351.168 489.042 351.218 488.439 351.121 487.857C351.025 487.275 350.787 486.741 350.437 486.321C350.088 485.902 349.642 485.616 349.157 485.5C348.672 485.384 348.17 485.444 347.713 485.671C347.256 485.898 346.865 486.282 346.591 486.776C346.316 487.269 346.169 487.849 346.169 488.442C346.169 489.238 346.433 490.001 346.902 490.564C347.371 491.126 348.006 491.442 348.669 491.442Z" fill="#231F20"/>
<text fill="#FF0000" xml:space="preserve" style="white-space: pre" font-family="Harmattan" font-size="17" letter-spacing="-0.03em"><tspan x="303.895" y="492.999">Name</tspan></text>
<text fill="#FF0000" xml:space="preserve" style="white-space: pre" font-family="Arial" font-size="18" letter-spacing="-0.03em"><tspan x="292.49" y="492.74">:</tspan></text>
<text fill="black" xml:space="preserve" style="white-space: pre" font-family="Harmattan" font-size="18" letter-spacing="-0.03em"><tspan x="52.9284" y="490.205">Mostafa Said Abdelwahab Abdelrahman</tspan></text>
<path d="M348.669 511C349.164 511 349.647 510.853 350.058 510.579C350.469 510.304 350.79 509.914 350.979 509.457C351.168 509 351.218 508.497 351.121 508.012C351.025 507.527 350.787 507.082 350.437 506.732C350.088 506.383 349.642 506.144 349.157 506.048C348.672 505.952 348.17 506.001 347.713 506.19C347.256 506.38 346.865 506.7 346.591 507.111C346.316 507.522 346.169 508.006 346.169 508.5C346.169 509.163 346.433 509.799 346.902 510.268C347.371 510.737 348.006 511 348.669 511Z" fill="#231F20"/>
<text fill="black" xml:space="preserve" style="white-space: pre" font-family="Harmattan" font-size="18" letter-spacing="-0.03em"><tspan x="130.973" y="516.205"> Twenty-four years</tspan></text>
<text fill="#2600FF" xml:space="preserve" style="white-space: pre" font-family="Harmattan" font-size="25" letter-spacing="-0.03em"><tspan x="258.277" y="515.645">24</tspan></text>
<text fill="#FF0000" xml:space="preserve" style="white-space: pre" font-family="Arial" font-size="18" letter-spacing="-0.03em"><tspan x="292.49" y="514.74">:</tspan></text>
<text fill="#FF0000" xml:space="preserve" style="white-space: pre" font-family="Harmattan" font-size="18" letter-spacing="-0.03em"><tspan x="314.288" y="518.205">age  </tspan></text>
<path d="M211.828 407.77C211.828 407.931 211.789 408.089 211.713 408.23C211.637 408.371 211.527 408.491 211.393 408.579C211.259 408.668 211.105 408.721 210.945 408.735C210.785 408.749 210.624 408.723 210.477 408.659C210.317 408.59 210.179 408.479 210.077 408.337C209.975 408.196 209.913 408.029 209.898 407.856C209.883 407.682 209.915 407.507 209.991 407.35C210.067 407.193 210.184 407.06 210.329 406.964C210.475 406.868 210.644 406.813 210.818 406.806C210.993 406.798 211.166 406.837 211.319 406.92C211.473 407.003 211.601 407.125 211.691 407.275C211.78 407.425 211.828 407.596 211.828 407.77Z" fill="#00AEEF" stroke="white" stroke-width="0.6"/>
<path d="M211.742 408.167C211.648 408.377 211.482 408.547 211.274 408.646C211.065 408.745 210.828 408.765 210.606 408.704C210.384 408.643 210.191 408.504 210.062 408.313C209.933 408.122 209.877 407.891 209.904 407.662C209.931 407.433 210.039 407.221 210.209 407.065C210.379 406.909 210.599 406.819 210.829 406.811C211.059 406.803 211.285 406.878 211.465 407.023C211.645 407.167 211.767 407.371 211.809 407.598C211.845 407.79 211.821 407.988 211.742 408.167Z" fill="#00AEEF" stroke="white" stroke-width="0.6"/>
<path d="M68.9961 411.534L66.6779 411.371L64.619 411.881L63.9961 410.242C65.4781 410.121 64.9519 410.107 66.2974 410.335C67.3944 409.905 66.9111 409.989 68.3793 409.881C68.9808 411.475 68.8549 411.152 68.9961 411.534Z" fill="#00AEEF" stroke="white" stroke-width="0.6"/>
<path d="M211.983 419.577C211.887 419.79 211.717 419.961 211.504 420.058C211.291 420.156 211.051 420.172 210.826 420.106C210.602 420.039 210.41 419.894 210.285 419.696C210.16 419.499 210.11 419.263 210.146 419.031C210.182 418.8 210.3 418.59 210.479 418.439C210.658 418.289 210.885 418.208 211.119 418.212C211.352 418.216 211.577 418.305 211.75 418.462C211.924 418.618 212.034 418.833 212.062 419.065C212.083 419.24 212.055 419.417 211.983 419.577Z" fill="#00AEEF" stroke="white" stroke-width="0.6"/>
<path d="M211.983 419.576C211.889 419.788 211.721 419.958 211.512 420.057C211.302 420.155 211.064 420.176 210.841 420.114C210.618 420.052 210.424 419.912 210.295 419.719C210.166 419.526 210.111 419.294 210.139 419.064C210.167 418.834 210.276 418.622 210.447 418.466C210.619 418.31 210.84 418.22 211.072 418.213C211.303 418.207 211.53 418.283 211.709 418.429C211.889 418.575 212.011 418.78 212.052 419.008C212.087 419.2 212.063 419.398 211.983 419.576Z" fill="#00AEEF" stroke="white" stroke-width="0.6"/>
<g filter="url(#filter2_d_0_1)">
<mask id="path-146-inside-3_0_1" fill="white">
<path d="M356.992 413L51.9922 413L216.033 413H356.992Z"/>
</mask>
<path d="M356.992 413L51.9922 413L216.033 413H356.992Z" fill="#231F20"/>
<path d="M356.992 413L51.9922 413L216.033 413H356.992Z" stroke="black" stroke-width="2" mask="url(#path-146-inside-3_0_1)"/>
</g>
<g filter="url(#filter3_d_0_1)">
<mask id="path-147-inside-4_0_1" fill="white">
<path d="M337.996 894H81.9961H337.996Z"/>
</mask>
<path d="M337.996 894H81.9961H337.996Z" fill="#231F20"/>
<path d="M337.996 894H81.9961H337.996Z" stroke="black" stroke-width="0.6" mask="url(#path-147-inside-4_0_1)"/>
</g>
<text fill="#FF0000" xml:space="preserve" style="white-space: pre" font-family="Harmattan" font-size="9" font-weight="bold" letter-spacing="0px"><tspan x="196.795" y="806.352">Previous training during university studies</tspan></text>
<text fill="#FF0000" xml:space="preserve" style="white-space: pre" font-family="Arial" font-size="18" letter-spacing="-0.03em"><tspan x="182.49" y="807.74">:</tspan></text>
<text fill="black" xml:space="preserve" style="white-space: pre" font-family="Harmattan" font-size="13" font-weight="bold" letter-spacing="0px"><tspan x="101.303" y="805.676">Field training in&#10;</tspan><tspan x="177.5" y="821.676">&#10;</tspan></text>
<text fill="#707070" xml:space="preserve" style="white-space: pre" font-family="Harmattan" font-size="11" font-weight="bold" letter-spacing="0px"><tspan x="74.7705" y="827.764">Egyptian public schools, where I achieved a score of 96%. Khaled </tspan><tspan x="75.6299" y="842.764">Ibn Al-Walid Elementary School in Mit Ghamr for the year 2022. </tspan><tspan x="64.8232" y="857.764">New Girls&#39; Secondary School in Mit Ghamr for another year in 2023</tspan></text>
<path d="M348.489 806.776C349.054 806.776 349.607 806.665 350.077 806.458C350.547 806.25 350.913 805.955 351.129 805.611C351.346 805.266 351.402 804.886 351.292 804.52C351.182 804.153 350.91 803.817 350.51 803.553C350.11 803.289 349.601 803.109 349.047 803.036C348.492 802.963 347.918 803.001 347.396 803.144C346.873 803.287 346.427 803.529 346.113 803.839C345.799 804.15 345.631 804.515 345.631 804.888C345.631 805.389 345.932 805.869 346.468 806.223C347.004 806.577 347.731 806.776 348.489 806.776Z" fill="#231F20"/>
<text fill="#FF0000" xml:space="preserve" style="white-space: pre" font-family="Arial" font-size="18" letter-spacing="-0.03em"><tspan x="262.49" y="658.74">:</tspan></text>
<rect x="271.5" y="642.5" width="71" height="19" stroke="#5500FF"/>
<text fill="#FF0000" xml:space="preserve" style="white-space: pre" font-family="Harmattan" font-size="13" font-weight="bold" letter-spacing="0px"><tspan x="275.561" y="654.676">  Current job</tspan></text>
<text fill="black" xml:space="preserve" style="white-space: pre" font-family="Harmattan" font-size="13" font-weight="bold" letter-spacing="0px"><tspan x="92.0645" y="655.676">Mathematics and computer science </tspan></text>
<text fill="black" xml:space="preserve" style="white-space: pre" font-family="Harmattan" font-size="8" font-weight="bold" letter-spacing="0px"><tspan x="80.0312" y="678.646">Mathematics and computer science teacher at the Martyr Mohamed El Shafei </tspan><tspan x="79.5547" y="702.646">Bayoumi School in Afifi village, Ministry of Education, Arab Republic of Egypt</tspan></text>
<path d="M348.489 652.776C349.054 652.776 349.607 652.665 350.077 652.458C350.547 652.25 350.913 651.955 351.129 651.611C351.346 651.266 351.402 650.886 351.292 650.52C351.182 650.153 350.91 649.817 350.51 649.553C350.11 649.289 349.601 649.109 349.047 649.036C348.492 648.963 347.918 649.001 347.396 649.144C346.873 649.287 346.427 649.529 346.113 649.839C345.799 650.15 345.631 650.515 345.631 650.888C345.631 651.389 345.932 651.869 346.468 652.223C347.004 652.577 347.731 652.776 348.489 652.776Z" fill="#231F20"/>
<path d="M319.415 681.699H319.377L318 680.341C318.644 680.561 319.358 680.675 320.083 680.675C320.808 680.675 321.522 680.561 322.167 680.341L320.785 681.699H320.756L324.139 688.716L327.222 685.192L330.652 687.406L332.809 684.632C330.781 682.321 327.595 680.551 323.802 679.627C325.251 678.706 326.384 677.589 327.121 676.352C327.931 675.015 328.366 673.592 328.403 672.152C328.443 670.336 327.586 668.56 325.963 667.094C325.32 666.451 324.446 665.922 323.418 665.557C322.391 665.191 321.242 665 320.075 665C318.908 665 317.759 665.191 316.731 665.557C315.704 665.922 314.829 666.451 314.187 667.094C312.563 668.56 311.707 670.336 311.746 672.152C311.785 673.592 312.221 675.015 313.033 676.352C313.773 677.589 314.909 678.706 316.363 679.626C309.838 681.044 305 685.893 305 689.489C305 691.617 312.537 692.677 320.079 692.677L315.853 689.054L319.415 681.699Z" fill="#71F200" stroke="#070505" stroke-width="0.5"/>
<path d="M320.093 692.69C322.239 692.694 324.382 692.602 326.508 692.415L323.027 690.17L320.093 692.69Z" fill="#71F200" stroke="#070505" stroke-width="0.5"/>
<path d="M335.73 683.809L331.133 689.734L327.611 687.462L325.575 689.78L331.955 693.902L338.549 685.418L335.73 683.809Z" fill="#71F200" stroke="#070505" stroke-width="0.5"/>
<text fill="#FF0000" xml:space="preserve" style="white-space: pre" font-family="Harmattan" font-size="13" font-weight="bold" letter-spacing="0px"><tspan x="280.355" y="740.676">Previous job</tspan></text>
<text fill="#FF0000" xml:space="preserve" style="white-space: pre" font-family="Arial" font-size="18" letter-spacing="-0.03em"><tspan x="267.49" y="744.74">:</tspan></text>
<text fill="black" xml:space="preserve" style="white-space: pre" font-family="Harmattan" font-size="13" font-weight="bold" letter-spacing="0px"><tspan x="61.1992" y="742.676">I worked in a printing press for four years.</tspan></text>
<path d="M348.858 741.776C349.423 741.776 349.976 741.665 350.446 741.458C350.916 741.25 351.282 740.955 351.498 740.611C351.714 740.266 351.771 739.886 351.661 739.52C351.55 739.153 351.278 738.817 350.879 738.553C350.479 738.289 349.97 738.109 349.415 738.036C348.861 737.963 348.286 738.001 347.764 738.144C347.242 738.287 346.796 738.529 346.482 738.839C346.168 739.15 346 739.515 346 739.888C346 740.389 346.301 740.869 346.837 741.223C347.373 741.577 348.1 741.776 348.858 741.776Z" fill="#231F20"/>
<path d="M319.415 767.699H319.377L318 766.341C318.644 766.561 319.358 766.675 320.083 766.675C320.808 766.675 321.522 766.561 322.167 766.341L320.785 767.699H320.756L324.139 774.716L327.222 771.192L330.652 773.406L332.809 770.632C330.781 768.321 327.595 766.551 323.802 765.627C325.251 764.706 326.384 763.589 327.121 762.352C327.931 761.015 328.366 759.592 328.403 758.152C328.443 756.336 327.586 754.56 325.963 753.094C325.32 752.451 324.446 751.922 323.418 751.557C322.391 751.191 321.242 751 320.075 751C318.908 751 317.759 751.191 316.731 751.557C315.704 751.922 314.829 752.451 314.187 753.094C312.563 754.56 311.707 756.336 311.746 758.152C311.785 759.592 312.221 761.015 313.033 762.352C313.773 763.589 314.909 764.706 316.363 765.626C309.838 767.044 305 771.893 305 775.489C305 777.617 312.537 778.677 320.079 778.677L315.853 775.054L319.415 767.699Z" fill="#71F200" stroke="#070505" stroke-width="0.5"/>
<path d="M320.093 778.69C322.239 778.694 324.382 778.602 326.508 778.415L323.027 776.17L320.093 778.69Z" fill="#71F200" stroke="#070505" stroke-width="0.5"/>
<rect x="2" y="-2" width="805" height="361" transform="matrix(1 0 0 -1 0 411)" stroke="#01ADED" stroke-width="4"/>
<rect x="2" y="-2" width="805" height="477" transform="matrix(1 0 0 -1 0 892)" stroke="#01ADED" stroke-width="4"/>
<rect x="408" y="50" width="15" height="846" fill="url(#paint0_linear_0_1)"/>
<defs>
<filter id="filter0_d_0_1" x="437.492" y="412" width="313" height="10" filterUnits="userSpaceOnUse" color-interpolation-filters="sRGB">
<feFlood flood-opacity="0" result="BackgroundImageFix"/>
<feColorMatrix in="SourceAlpha" type="matrix" values="0 0 0 0 0 0 0 0 0 0 0 0 0 0 0 0 0 0 127 0" result="hardAlpha"/>
<feOffset dy="4"/>
<feGaussianBlur stdDeviation="2"/>
<feComposite in2="hardAlpha" operator="out"/>
<feColorMatrix type="matrix" values="0 0 0 0 0 0 0 0 0 0 0 0 0 0 0 0 0 0 0.25 0"/>
<feBlend mode="normal" in2="BackgroundImageFix" result="effect1_dropShadow_0_1"/>
<feBlend mode="normal" in="SourceGraphic" in2="effect1_dropShadow_0_1" result="shape"/>
</filter>
<filter id="filter1_d_0_1" x="467.496" y="895.7" width="264" height="8.59961" filterUnits="userSpaceOnUse" color-interpolation-filters="sRGB">
<feFlood flood-opacity="0" result="BackgroundImageFix"/>
<feColorMatrix in="SourceAlpha" type="matrix" values="0 0 0 0 0 0 0 0 0 0 0 0 0 0 0 0 0 0 127 0" result="hardAlpha"/>
<feOffset dy="4"/>
<feGaussianBlur stdDeviation="2"/>
<feComposite in2="hardAlpha" operator="out"/>
<feColorMatrix type="matrix" values="0 0 0 0 0 0 0 0 0 0 0 0 0 0 0 0 0 0 0.25 0"/>
<feBlend mode="normal" in2="BackgroundImageFix" result="effect1_dropShadow_0_1"/>
<feBlend mode="normal" in="SourceGraphic" in2="effect1_dropShadow_0_1" result="shape"/>
</filter>
<filter id="filter2_d_0_1" x="47.9922" y="412" width="313" height="10" filterUnits="userSpaceOnUse" color-interpolation-filters="sRGB">
<feFlood flood-opacity="0" result="BackgroundImageFix"/>
<feColorMatrix in="SourceAlpha" type="matrix" values="0 0 0 0 0 0 0 0 0 0 0 0 0 0 0 0 0 0 127 0" result="hardAlpha"/>
<feOffset dy="4"/>
<feGaussianBlur stdDeviation="2"/>
<feComposite in2="hardAlpha" operator="out"/>
<feColorMatrix type="matrix" values="0 0 0 0 0 0 0 0 0 0 0 0 0 0 0 0 0 0 0.25 0"/>
<feBlend mode="normal" in2="BackgroundImageFix" result="effect1_dropShadow_0_1"/>
<feBlend mode="normal" in="SourceGraphic" in2="effect1_dropShadow_0_1" result="shape"/>
</filter>
<filter id="filter3_d_0_1" x="77.9961" y="893.7" width="264" height="8.59961" filterUnits="userSpaceOnUse" color-interpolation-filters="sRGB">
<feFlood flood-opacity="0" result="BackgroundImageFix"/>
<feColorMatrix in="SourceAlpha" type="matrix" values="0 0 0 0 0 0 0 0 0 0 0 0 0 0 0 0 0 0 127 0" result="hardAlpha"/>
<feOffset dy="4"/>
<feGaussianBlur stdDeviation="2"/>
<feComposite in2="hardAlpha" operator="out"/>
<feColorMatrix type="matrix" values="0 0 0 0 0 0 0 0 0 0 0 0 0 0 0 0 0 0 0.25 0"/>
<feBlend mode="normal" in2="BackgroundImageFix" result="effect1_dropShadow_0_1"/>
<feBlend mode="normal" in="SourceGraphic" in2="effect1_dropShadow_0_1" result="shape"/>
</filter>
<linearGradient id="paint0_linear_0_1" x1="423" y1="473" x2="408" y2="473" gradientUnits="userSpaceOnUse">
<stop offset="0.432692" stop-color="#FF0000"/>
<stop offset="0.475962"/>
<stop offset="0.476062" stop-color="#00B3FF"/>
</linearGradient>
</defs>
</svg>
