<svg width="345" height="98" viewBox="0 0 345 98" fill="none" xmlns="http://www.w3.org/2000/svg">
<path d="M168.954 7H294.033C295.213 7 296.381 7.23235 297.471 7.68379C298.56 8.13523 299.551 8.79691 300.385 9.63106C301.219 10.4652 301.881 11.4555 302.332 12.5454C302.784 13.6352 303.016 14.8033 303.016 15.983V32.152H168.954C165.619 32.152 162.42 30.827 160.061 28.4686C157.703 26.1101 156.378 22.9114 156.378 19.576C156.378 16.2406 157.703 13.0419 160.061 10.6834C162.42 8.32497 165.619 7 168.954 7Z" fill="#00AEEF"/>
<path d="M225.539 23.1318C225.051 23.1318 224.592 23.0586 224.162 22.9121C223.737 22.7656 223.381 22.5581 223.093 22.2896L223.283 20.7808C223.586 21.1177 223.945 21.3813 224.36 21.5718C224.78 21.7573 225.209 21.8501 225.649 21.8501C226.04 21.8501 226.384 21.7451 226.682 21.5352C226.979 21.3252 227.128 21.0371 227.128 20.6709C227.128 20.3291 226.96 20.0435 226.623 19.814C226.286 19.5796 225.805 19.4624 225.18 19.4624H224.689V18.144H225.18C225.683 18.144 226.093 18.0195 226.411 17.7705C226.728 17.5215 226.887 17.248 226.887 16.9502C226.887 16.7012 226.772 16.5034 226.542 16.3569C226.313 16.2104 226.062 16.1372 225.788 16.1372C225.363 16.1372 224.973 16.2007 224.616 16.3276C224.26 16.4497 223.925 16.6694 223.613 16.9868L223.422 15.7271C223.642 15.4731 223.967 15.2632 224.396 15.0972C224.826 14.9312 225.271 14.8481 225.729 14.8481C226.521 14.8481 227.167 15.0166 227.67 15.3535C228.173 15.6904 228.425 16.1519 228.425 16.7378C228.425 17.0747 228.332 17.3848 228.146 17.668C227.961 17.9463 227.731 18.1782 227.458 18.3638C227.189 18.5444 226.926 18.6616 226.667 18.7153C226.926 18.7593 227.214 18.8496 227.531 18.9863C227.849 19.123 228.122 19.333 228.352 19.6162C228.581 19.8994 228.696 20.2876 228.696 20.7808C228.696 21.2104 228.557 21.6035 228.278 21.96C228.005 22.3164 227.631 22.6021 227.158 22.8169C226.684 23.0269 226.145 23.1318 225.539 23.1318ZM232.644 23.0513C232.458 23.0513 232.224 23.0488 231.94 23.0439C231.662 23.0391 231.384 23.0317 231.105 23.022C230.827 23.0171 230.593 23.0122 230.402 23.0073C230.217 23.0024 230.124 23 230.124 23C230.163 22.7803 230.185 22.4458 230.19 21.9966C230.2 21.5474 230.205 21.0493 230.205 20.5024V17.5068C230.205 16.9697 230.2 16.4692 230.19 16.0054C230.185 15.5415 230.163 15.1997 230.124 14.98C230.29 14.9702 230.529 14.9629 230.842 14.958C231.159 14.9482 231.494 14.9409 231.845 14.936C232.197 14.9312 232.502 14.9287 232.761 14.9287C233.063 14.9287 233.396 14.958 233.757 15.0166C234.123 15.0752 234.484 15.1826 234.841 15.3389C235.202 15.4951 235.532 15.7222 235.83 16.02C236.132 16.3179 236.374 16.7036 236.555 17.1772C236.735 17.6509 236.826 18.2368 236.826 18.9351C236.826 19.7554 236.689 20.4316 236.416 20.9639C236.147 21.4961 235.798 21.916 235.368 22.2236C234.943 22.5264 234.489 22.7412 234.006 22.8682C233.522 22.9902 233.068 23.0513 232.644 23.0513ZM232.775 21.7915C233.186 21.7915 233.581 21.7012 233.962 21.5205C234.348 21.3398 234.663 21.0493 234.907 20.6489C235.156 20.2437 235.28 19.709 235.28 19.0449C235.28 18.3174 235.173 17.7437 234.958 17.3237C234.743 16.9038 234.448 16.606 234.072 16.4302C233.701 16.2495 233.276 16.1592 232.797 16.1592C232.646 16.1592 232.465 16.1616 232.255 16.1665C232.05 16.1714 231.889 16.1787 231.772 16.1885V21.7329C231.879 21.7427 232.019 21.7549 232.189 21.7695C232.365 21.7842 232.561 21.7915 232.775 21.7915Z" fill="#FEFEFE"/>
<path d="M300.7 49.668H247.7V54.668H300.7V49.668Z" fill="#949598"/>
<path d="M247.7 49.668H205.7V54.668H247.7V49.668Z" fill="#00AEEF"/>
<path d="M246.714 48C247.451 48 248.158 48.3835 248.679 49.0661C249.2 49.7488 249.492 50.6746 249.492 51.64V52.3571C249.492 52.8353 249.421 53.309 249.281 53.7509C249.142 54.1929 248.937 54.5945 248.679 54.9328C248.421 55.2711 248.115 55.5395 247.778 55.7226C247.441 55.9058 247.079 56 246.714 56C246.422 56 246.133 55.9246 245.864 55.778C245.594 55.6315 245.349 55.4167 245.142 55.146C244.936 54.8753 244.772 54.5539 244.661 54.2002C244.549 53.8466 244.492 53.4676 244.492 53.0849V50.9122C244.492 50.1398 244.726 49.3991 245.143 48.853C245.56 48.3068 246.125 48 246.714 48Z" fill="black"/>
<path d="M51.5 54.2959C51.5 55.0534 51.2313 55.6776 50.6938 56.1685C50.0675 56.7397 49.1556 57.0254 47.958 57.0254L46.8726 57.0127C46.3013 57.0042 45.8104 57 45.3999 57V48.2402C46.2251 48.1937 47.1963 48.1704 48.3135 48.1704C49.2572 48.1704 49.9829 48.3566 50.4907 48.729C50.9985 49.1056 51.2524 49.6431 51.2524 50.3413C51.2524 51.2977 50.8102 51.9536 49.9258 52.3091V52.3345C50.3913 52.4318 50.77 52.6603 51.062 53.02C51.354 53.384 51.5 53.8092 51.5 54.2959ZM49.4561 50.6143C49.4561 49.8864 48.9842 49.5225 48.0405 49.5225C47.7697 49.5225 47.4523 49.5309 47.0884 49.5479V51.8521C47.228 51.8605 47.4587 51.8647 47.7803 51.8647C48.8975 51.8647 49.4561 51.4479 49.4561 50.6143ZM49.6909 54.3467C49.6909 53.5342 49.071 53.1279 47.8311 53.1279C47.4587 53.1279 47.2111 53.1322 47.0884 53.1406V55.6226C47.5073 55.6479 47.8205 55.6606 48.0278 55.6606C48.5653 55.6606 48.98 55.5379 49.272 55.2925C49.5513 55.0597 49.6909 54.7445 49.6909 54.3467ZM52.8774 57V47.5103H54.5405V57H52.8774ZM61.6182 53.1533C61.6182 53.5384 61.597 53.8494 61.5547 54.0864H57.562C57.562 55.2502 58.1566 55.832 59.3457 55.832C59.972 55.832 60.5962 55.7051 61.2183 55.4512L61.396 56.7144C60.647 56.9894 59.8683 57.127 59.0601 57.127C56.9357 57.127 55.8735 56.0267 55.8735 53.8262C55.8735 52.8317 56.1444 52.0213 56.686 51.395C57.2489 50.7391 58 50.4111 58.9395 50.4111C59.8366 50.4111 60.52 50.6756 60.9897 51.2046C61.4087 51.6828 61.6182 52.3324 61.6182 53.1533ZM59.9678 52.9819C59.9932 52.0806 59.6208 51.6299 58.8506 51.6299C58.0973 51.6299 57.672 52.0806 57.5747 52.9819H59.9678ZM66.9756 57V52.8677C66.9756 52.1567 66.7069 51.8013 66.1694 51.8013C65.7547 51.8013 65.4014 52.0065 65.1094 52.417C64.8174 52.8232 64.6714 53.3099 64.6714 53.877V57H63.0083V50.5381H64.5825C64.5825 50.9951 64.5508 51.3802 64.4873 51.6934H64.5063C64.9465 50.8385 65.6785 50.4111 66.7026 50.4111C67.9849 50.4111 68.626 51.0946 68.626 52.4614V57H66.9756ZM74.3071 57C74.3071 56.6318 74.3325 56.2721 74.3833 55.9209H74.3579C73.9728 56.7376 73.2936 57.146 72.3203 57.146C71.5501 57.146 70.9598 56.8709 70.5493 56.3208C70.16 55.7961 69.9653 55.0597 69.9653 54.1118C69.9653 53.0073 70.2679 52.1208 70.873 51.4521C71.4909 50.7666 72.3288 50.4238 73.3867 50.4238C73.6787 50.4238 73.9517 50.4408 74.2056 50.4746V47.5103H75.856V57H74.3071ZM74.2056 51.8394C73.884 51.7716 73.592 51.7378 73.3296 51.7378C72.2463 51.7378 71.7046 52.4699 71.7046 53.9341C71.7046 55.1528 72.0749 55.7622 72.8154 55.7622C73.2344 55.7622 73.575 55.5485 73.8374 55.1211C74.0828 54.7191 74.2056 54.2282 74.2056 53.6484V51.8394ZM82.9463 53.1533C82.9463 53.5384 82.9251 53.8494 82.8828 54.0864H78.8901C78.8901 55.2502 79.4847 55.832 80.6738 55.832C81.3001 55.832 81.9243 55.7051 82.5464 55.4512L82.7241 56.7144C81.9751 56.9894 81.1965 57.127 80.3882 57.127C78.2638 57.127 77.2017 56.0267 77.2017 53.8262C77.2017 52.8317 77.4725 52.0213 78.0142 51.395C78.577 50.7391 79.3281 50.4111 80.2676 50.4111C81.1647 50.4111 81.8481 50.6756 82.3179 51.2046C82.7368 51.6828 82.9463 52.3324 82.9463 53.1533ZM81.2959 52.9819C81.3213 52.0806 80.9489 51.6299 80.1787 51.6299C79.4255 51.6299 79.0002 52.0806 78.9028 52.9819H81.2959ZM87.7959 52.0361C86.5983 51.7992 85.9995 52.5736 85.9995 54.3594V57H84.3364V50.5381H85.9106C85.9106 50.9486 85.8704 51.3823 85.79 51.8394H85.8154C86.2132 50.7941 86.8988 50.318 87.8721 50.4111L87.7959 52.0361Z" fill="#FF0040"/>
<path d="M214.46 79.3646C214.404 79.1106 214.157 78.9526 213.927 79.0136C213.79 79.075 213.686 79.1625 213.627 79.2645C213.568 79.3664 213.558 79.4778 213.598 79.5836L213.641 79.7716L214.072 79.6616L213.645 79.7756C213.66 79.8525 213.698 79.9266 213.757 79.9936C213.798 80.0456 213.851 80.1036 213.909 80.1716C214.133 80.4057 214.331 80.65 214.504 80.9026C214.634 81.1246 214.906 81.1916 215.109 81.0526C215.217 80.9615 215.286 80.8531 215.31 80.7386C215.334 80.6243 215.314 80.5079 215.25 80.4006C215.048 80.0923 214.811 79.7947 214.54 79.5106C214.499 79.4656 214.493 79.4876 214.484 79.4806L214.46 79.3646Z" fill="#FFFFFE"/>
<path d="M213.034 80.7584C212.978 81.0124 212.731 81.1704 212.501 81.1094C211.947 80.9684 212.176 80.2844 212.478 79.9534C212.703 79.7193 212.901 79.475 213.073 79.2224C213.204 79.0004 213.476 78.9334 213.679 79.0724C213.787 79.1636 213.856 79.2719 213.88 79.3864C213.904 79.5007 213.883 79.6171 213.82 79.7244C213.638 80.0344 213.063 80.5744 213.028 80.7584H213.034Z" fill="#FFFFFE"/>
<path d="M174.393 77.8076H151.339C149.602 77.8076 148.195 78.7608 148.195 79.9366V92.7106C148.195 93.8864 149.602 94.8396 151.339 94.8396H174.393C176.13 94.8396 177.537 93.8864 177.537 92.7106V79.9366C177.537 78.7608 176.13 77.8076 174.393 77.8076Z" fill="#29B71C"/>
<path d="M172.297 92.0009H153.434C153.156 92.0009 152.89 91.9261 152.693 91.793C152.497 91.6599 152.386 91.4794 152.386 91.2912C152.386 91.103 152.497 90.9225 152.693 90.7894C152.89 90.6563 153.156 90.5815 153.434 90.5815H172.297C172.575 90.5815 172.842 90.6563 173.038 90.7894C173.235 90.9225 173.345 91.103 173.345 91.2912C173.345 91.4794 173.235 91.6599 173.038 91.793C172.842 91.9261 172.575 92.0009 172.297 92.0009Z" fill="#EEEEEE"/>
<path d="M166.01 92.7105C165.732 92.7105 165.466 92.6357 165.269 92.5026C165.073 92.3696 164.962 92.189 164.962 92.0008V90.5815C164.962 90.3933 165.073 90.2127 165.269 90.0797C165.466 89.9466 165.732 89.8718 166.01 89.8718C166.288 89.8718 166.555 89.9466 166.751 90.0797C166.948 90.2127 167.058 90.3933 167.058 90.5815V92.0008C167.058 92.189 166.948 92.3696 166.751 92.5026C166.555 92.6357 166.288 92.7105 166.01 92.7105Z" fill="#00AEEF"/>
<path d="M167.53 83.9604L160.194 81.4766C160.035 81.4221 159.857 81.3962 159.679 81.4013C159.5 81.4063 159.327 81.4422 159.174 81.5055C159.022 81.5688 158.896 81.6574 158.809 81.7628C158.721 81.8683 158.675 81.9872 158.675 82.1082V87.7003C158.676 87.8268 158.727 87.9507 158.823 88.0592C158.919 88.1678 159.056 88.257 159.219 88.3177C159.371 88.3795 159.545 88.4114 159.722 88.41C159.919 88.4104 160.111 88.3735 160.278 88.3035L167.613 85.1952C167.772 85.1282 167.902 85.0336 167.988 84.9213C168.075 84.809 168.116 84.6831 168.106 84.5565C168.096 84.4315 168.038 84.3106 167.936 84.2059C167.835 84.1012 167.695 84.0165 167.53 83.9604Z" fill="#EEEEEE"/>
<path d="M151.339 77.8076C150.505 77.8076 149.705 78.0319 149.116 78.4312C148.526 78.8304 148.195 79.372 148.195 79.9366V92.7106C148.195 93.2752 148.526 93.8167 149.116 94.216C149.705 94.6152 150.505 94.8396 151.339 94.8396H162.866V77.8076H151.339Z" fill="#E53935"/>
<path d="M153.434 90.5815C153.156 90.5815 152.89 90.6563 152.693 90.7894C152.497 90.9225 152.386 91.103 152.386 91.2912C152.386 91.4794 152.497 91.6599 152.693 91.793C152.89 91.9261 153.156 92.0009 153.434 92.0009H162.866V90.5815H153.434Z" fill="#FAFAFA"/>
<path d="M160.194 81.4766C160.035 81.4221 159.857 81.3962 159.679 81.4013C159.5 81.4063 159.327 81.4422 159.174 81.5055C159.022 81.5688 158.896 81.6574 158.809 81.7628C158.721 81.8683 158.675 81.9872 158.675 82.1082V87.7003C158.676 87.8268 158.727 87.9507 158.823 88.0592C158.919 88.1678 159.056 88.257 159.219 88.3177C159.371 88.3795 159.545 88.4114 159.722 88.41C159.919 88.4104 160.111 88.3735 160.278 88.3035L162.866 87.2036V82.3779L160.194 81.4766Z" fill="#00AEEF"/>
<path d="M208.347 80.2308H211.77L206.88 77V79.2615C206.88 79.7968 207.536 80.2308 208.347 80.2308Z" fill="#00AEEF"/>
<path d="M206.347 78.6152H186.095V84.2691H206.347C206.641 84.2691 206.88 84.1284 206.88 83.955V78.9293C206.88 78.7558 206.641 78.6152 206.347 78.6152Z" fill="#C6CACF"/>
<path d="M205.136 84.2692H182.95C182.486 84.2692 182.253 83.8825 182.582 83.6564L186.381 81.0384L182.582 78.4204C182.253 78.1943 182.486 77.8076 182.95 77.8076H205.136C205.424 77.8076 205.657 77.9684 205.657 78.1666V83.9102C205.657 84.1084 205.424 84.2692 205.136 84.2692Z" fill="#00AEEF"/>
<path d="M194.109 79.9297H192.091C191.812 79.9297 191.586 80.079 191.586 80.263V82.2632C191.586 82.4473 191.812 82.5965 192.091 82.5965C192.37 82.5965 192.596 82.4473 192.596 82.2632V81.5965H194.109C194.388 81.5965 194.614 81.4472 194.614 81.2631V80.263C194.614 80.079 194.388 79.9297 194.109 79.9297ZM193.605 80.9298H192.596V80.5964H193.605V80.9298Z" fill="white"/>
<path d="M196.632 79.9297H195.623C195.345 79.9297 195.119 80.079 195.119 80.263V82.2632C195.119 82.4473 195.345 82.5965 195.623 82.5965H197.642C197.92 82.5965 198.146 82.4473 198.146 82.2632V80.9298C198.146 80.3783 197.467 79.9297 196.632 79.9297ZM197.137 81.9298H196.128V80.5964H196.632C196.911 80.5964 197.137 80.746 197.137 80.9298L197.137 81.9298Z" fill="white"/>
<path d="M201.174 79.9297H199.155C198.877 79.9297 198.651 80.079 198.651 80.263V82.2632C198.651 82.4473 198.877 82.5965 199.155 82.5965C199.434 82.5965 199.66 82.4473 199.66 82.2632V81.5965H200.669C200.948 81.5965 201.174 81.4472 201.174 81.2631C201.174 81.079 200.948 80.9298 200.669 80.9298H199.66V80.5964H201.174C201.453 80.5964 201.678 80.4471 201.678 80.2631C201.678 80.079 201.452 79.9297 201.174 79.9297Z" fill="white"/>
<path d="M206.383 95.5769H191.483C191.208 95.5769 190.986 95.4202 190.986 95.2269V85.4269C190.986 85.2336 191.208 85.0769 191.483 85.0769H206.383C206.657 85.0769 206.88 85.2336 206.88 85.4269V95.2269C206.88 95.4202 206.657 95.5769 206.383 95.5769Z" fill="#C6CACF"/>
<path d="M191.979 94.8769V85.0769H191.483C191.208 85.0769 190.986 85.2336 190.986 85.4269V95.2269C190.986 95.4202 191.208 95.5769 191.483 95.5769H206.383C206.657 95.5769 206.88 95.4202 206.88 95.2269V94.8769H191.979Z" fill="#00AEEF"/>
<path d="M205.187 93.9614H200.014C199.755 93.9614 199.544 93.8064 199.544 93.6152V89.4614C199.544 89.2702 199.755 89.1152 200.014 89.1152H205.187C205.447 89.1152 205.657 89.2702 205.657 89.4614V93.6152C205.657 93.8064 205.447 93.9614 205.187 93.9614Z" fill="black"/>
<path d="M204.434 89.9231H200.767V93.1539H204.434V89.9231Z" fill="#00AEEF"/>
<path d="M205.21 87.2636H199.66C199.381 87.2636 199.155 87.1143 199.155 86.9303C199.155 86.7462 199.381 86.5969 199.66 86.5969H205.21C205.489 86.5969 205.715 86.7462 205.715 86.9303C205.715 87.1144 205.489 87.2636 205.21 87.2636Z" fill="#EF0000"/>
<path d="M205.21 88.5971H199.66C199.381 88.5971 199.155 88.4478 199.155 88.2638C199.155 88.0796 199.381 87.9304 199.66 87.9304H205.21C205.489 87.9304 205.715 88.0797 205.715 88.2638C205.715 88.4478 205.489 88.5971 205.21 88.5971Z" fill="#EF0000"/>
<path d="M198.146 87.2636H193.1C192.821 87.2636 192.595 87.1143 192.595 86.9303C192.595 86.7462 192.821 86.5969 193.1 86.5969H198.146C198.424 86.5969 198.65 86.7462 198.65 86.9303C198.65 87.1144 198.424 87.2636 198.146 87.2636Z" fill="#EF0000"/>
<path d="M198.145 88.5971H193.099C192.821 88.5971 192.595 88.4478 192.595 88.2638C192.595 88.0796 192.821 87.9304 193.099 87.9304H198.145C198.424 87.9304 198.65 88.0797 198.65 88.2638C198.65 88.4478 198.424 88.5971 198.145 88.5971Z" fill="#EF0000"/>
<path d="M198.145 89.9306H193.099C192.821 89.9306 192.595 89.7813 192.595 89.5973C192.595 89.4131 192.821 89.2639 193.099 89.2639H198.145C198.424 89.2639 198.65 89.4132 198.65 89.5973C198.65 89.7813 198.424 89.9306 198.145 89.9306Z" fill="#EF0000"/>
<path d="M198.145 91.2639H193.099C192.821 91.2639 192.595 91.1146 192.595 90.9305C192.595 90.7464 192.821 90.5972 193.099 90.5972H198.145C198.424 90.5972 198.65 90.7464 198.65 90.9305C198.65 91.1146 198.424 91.2639 198.145 91.2639Z" fill="#EF0000"/>
<path d="M198.145 92.5974H193.099C192.821 92.5974 192.595 92.4481 192.595 92.264C192.595 92.0799 192.821 91.9307 193.099 91.9307H198.145C198.424 91.9307 198.65 92.0799 198.65 92.264C198.65 92.4481 198.424 92.5974 198.145 92.5974Z" fill="#EF0000"/>
<path d="M198.145 93.9309H193.099C192.821 93.9309 192.595 93.7816 192.595 93.5975C192.595 93.4134 192.821 93.2642 193.099 93.2642H198.145C198.424 93.2642 198.65 93.4134 198.65 93.5975C198.65 93.7816 198.424 93.9309 198.145 93.9309Z" fill="#EF0000"/>
<path d="M116.407 95.173V97.1922H144.527V95.173L130.531 93.9614L116.407 95.173Z" fill="#EEEEEE"/>
<path d="M116.407 93.5577V95.577H144.527V93.5577L130.531 92.3462L116.407 93.5577Z" fill="#DCDCDC"/>
<path d="M144.527 78.6152V93.1537H142.693L138.414 85.8845L142.693 78.6152H144.527Z" fill="#EEEEEE"/>
<path d="M143.305 78.6152V79.8438L138.874 85.8845L143.305 91.9251V93.1537H116.407V78.6152H143.305Z" fill="white"/>
<path d="M117.631 79.4231V88.6374L130.468 89.9231L143.305 88.6374V79.4231H117.631Z" fill="#29B71C"/>
<path d="M131.079 81.0386V84.2693C131.754 84.2693 132.301 83.5461 132.301 82.654C132.301 81.7619 131.754 81.0386 131.079 81.0386Z" fill="#FE5F1A"/>
<path d="M130.59 81.0386C130.86 81.0386 131.079 81.7619 131.079 82.654C131.079 83.5461 130.86 84.2693 130.59 84.2693C129.51 84.2693 128.634 83.5461 128.634 82.654C128.634 81.7619 129.51 81.0386 130.59 81.0386Z" fill="#00AEEF"/>
<path d="M143.304 90.7308L135.969 86.6924L141.422 87.3367L143.305 88.6394L143.304 90.7308Z" fill="#027372"/>
<path d="M140.339 87.5679L136.85 85.8848L132.357 87.568L129.856 89.23L135.625 92.3463H143.305V90.1078L140.339 87.5679Z" fill="#E53935"/>
<path d="M142.082 87.4424L141.057 87.5001L137.192 86.3047V84.2693L142.082 87.4424Z" fill="#EEEEEE"/>
<path d="M132.301 87.5001L136.431 84.2693L139.637 87.5L132.301 87.5001Z" fill="white"/>
<path d="M134.746 92.3462H132.511L123.743 86.6924L128.599 87.3645L134.746 92.3462Z" fill="#027372"/>
<path d="M127.027 87.5679L132.302 92.3463H117.631V88.8712L119.484 87.568L123.731 85.8848L127.027 87.5679Z" fill="#00AEEF"/>
<path d="M128.634 87.4424L127.608 87.5001L123.743 86.3047V84.2693L128.634 87.4424Z" fill="#EEEEEE"/>
<path d="M118.853 87.5001L123.671 84.2693L127.411 87.5L118.853 87.5001Z" fill="white"/>
<path d="M145.262 96.3848C144.993 96.3848 144.774 96.5397 144.774 96.7309V97.3078H116.161V96.7309C116.161 96.5397 115.942 96.3848 115.673 96.3848C115.403 96.3848 115.185 96.5397 115.185 96.7309V97.654C115.185 97.8452 115.403 98.0002 115.673 98.0002H145.262C145.532 98.0002 145.75 97.8452 145.75 97.654V96.7309C145.75 96.5397 145.532 96.3848 145.262 96.3848Z" fill="#00AEEF"/>
<path d="M145.262 93.9614C144.993 93.9614 144.774 94.1164 144.774 94.3076V94.8845H116.161V94.3076C116.161 94.1164 115.942 93.9614 115.673 93.9614C115.403 93.9614 115.185 94.1164 115.185 94.3076V95.2307C115.185 95.4219 115.403 95.5768 115.673 95.5768H145.262C145.532 95.5768 145.75 95.4219 145.75 95.2307V94.3076C145.75 94.1164 145.532 93.9614 145.262 93.9614Z" fill="#00AEEF"/>
<path d="M145.262 77.8076H115.673C115.403 77.8076 115.185 77.9542 115.185 78.1351V93.634C115.185 93.8149 115.403 93.9615 115.673 93.9615H145.262C145.532 93.9615 145.75 93.8149 145.75 93.634V78.1351C145.75 77.9542 145.532 77.8076 145.262 77.8076ZM144.774 93.3066H116.161V78.4625H144.774V93.3066Z" fill="#00AEEF"/>
<path d="M133.524 82.654C133.524 81.7633 132.153 81.0386 130.468 81.0386C128.782 81.0386 127.411 81.7633 127.411 82.654C127.411 83.5446 128.782 84.2693 130.468 84.2693C132.153 84.2693 133.524 83.5446 133.524 82.654ZM128.376 82.654C128.376 82.0445 129.314 81.5487 130.468 81.5487C131.621 81.5487 132.559 82.0445 132.559 82.654C132.559 83.2634 131.621 83.7592 130.468 83.7592C129.314 83.7592 128.376 83.2634 128.376 82.654Z" fill="black"/>
<path d="M116.407 92.0138C116.407 92.1973 116.638 92.346 116.922 92.346H144.013C144.297 92.346 144.527 92.1973 144.527 92.0138V78.9474C144.527 78.7639 144.297 78.6152 144.013 78.6152H116.922C116.638 78.6152 116.407 78.7639 116.407 78.9474V81.605C116.407 81.7885 116.638 81.9372 116.922 81.9372C117.206 81.9372 117.436 81.7885 117.436 81.605V79.2796H143.498V87.6683L137.604 83.8616C137.403 83.7319 137.077 83.7319 136.876 83.8616L130.467 88.0005L124.058 83.8615C123.857 83.7318 123.532 83.7319 123.331 83.8615L117.436 87.6683V82.9338C117.436 82.7503 117.206 82.6016 116.922 82.6016C116.638 82.6016 116.407 82.7503 116.407 82.9338V92.0138ZM137.24 84.5662L140.713 86.8094H133.767L137.24 84.5662ZM123.695 84.5662L127.168 86.8094H120.221L123.695 84.5662ZM119.192 87.4738H128.197L130.103 88.7049C130.104 88.7057 133.533 90.92 133.533 90.92C133.633 90.9848 133.765 91.0172 133.897 91.0172C134.028 91.0172 134.16 90.9848 134.26 90.92C134.461 90.7902 134.461 90.5799 134.26 90.4501L131.195 88.4704L132.738 87.4738H141.742L143.498 88.608V91.6816H117.436V88.608L119.192 87.4738Z" fill="black"/>
<path fill-rule="evenodd" clip-rule="evenodd" d="M101.819 81.0647C101.981 81.0647 102.114 81.2069 102.114 81.3805V87.317H101.524V81.3805C101.524 81.2044 101.656 81.0647 101.819 81.0647Z" fill="#FFFFFE"/>
<g filter="url(#filter0_d_74_7973)">
<mask id="path-55-inside-1_74_7973" fill="white">
<path d="M307.492 73H51.4922V73H307.492V73Z"/>
</mask>
<path d="M307.492 73H51.4922V73H307.492V73Z" fill="#231F20"/>
<path d="M307.492 72.7H51.4922V73.3H307.492V72.7ZM51.4922 73.3H307.492V72.7H51.4922V73.3Z" fill="black" mask="url(#path-55-inside-1_74_7973)"/>
</g>
<path d="M343.492 7L343.492 68" stroke="white"/>
<path d="M0.492188 7L0.492166 68" stroke="white"/>
<defs>
<filter id="filter0_d_74_7973" x="47.4922" y="72.7" width="264" height="8.6001" filterUnits="userSpaceOnUse" color-interpolation-filters="sRGB">
<feFlood flood-opacity="0" result="BackgroundImageFix"/>
<feColorMatrix in="SourceAlpha" type="matrix" values="0 0 0 0 0 0 0 0 0 0 0 0 0 0 0 0 0 0 127 0" result="hardAlpha"/>
<feOffset dy="4"/>
<feGaussianBlur stdDeviation="2"/>
<feComposite in2="hardAlpha" operator="out"/>
<feColorMatrix type="matrix" values="0 0 0 0 0 0 0 0 0 0 0 0 0 0 0 0 0 0 0.25 0"/>
<feBlend mode="normal" in2="BackgroundImageFix" result="effect1_dropShadow_74_7973"/>
<feBlend mode="normal" in="SourceGraphic" in2="effect1_dropShadow_74_7973" result="shape"/>
</filter>
</defs>
</svg>
