<svg width="345" height="99" viewBox="0 0 345 99" fill="none" xmlns="http://www.w3.org/2000/svg">
<rect width="345" height="99" fill="#F5F5F5"/>
<g filter="url(#filter0_d_0_1)">
<mask id="path-1-inside-1_0_1" fill="white">
<path d="M307.492 1H51.4922H307.492Z"/>
</mask>
<path d="M307.492 1H51.4922H307.492Z" fill="#231F20"/>
<path d="M307.492 1H51.4922H307.492Z" stroke="black" stroke-width="0.6" mask="url(#path-1-inside-1_0_1)"/>
</g>
<path d="M168.954 8H294.033C295.213 8 296.381 8.23235 297.471 8.68379C298.56 9.13523 299.551 9.79691 300.385 10.6311C301.219 11.4652 301.881 12.4555 302.332 13.5454C302.784 14.6352 303.016 15.8033 303.016 16.983V33.152H168.954C165.619 33.152 162.42 31.827 160.061 29.4686C157.703 27.1101 156.378 23.9114 156.378 20.576C156.378 17.2406 157.703 14.0419 160.061 11.6834C162.42 9.32497 165.619 8 168.954 8Z" fill="#00AEEF"/>
<text fill="#FEFEFE" xml:space="preserve" style="white-space: pre" font-family="Harmattan" font-size="15" font-weight="bold" letter-spacing="0em"><tspan x="222.492" y="24.0872">3D </tspan></text>
<path d="M300.7 50.668H247.7V55.668H300.7V50.668Z" fill="#949598"/>
<path d="M247.7 50.668H205.7V55.668H247.7V50.668Z" fill="#00AEEF"/>
<path d="M246.714 49C247.451 49 248.158 49.3835 248.679 50.0661C249.2 50.7488 249.492 51.6746 249.492 52.64V53.3571C249.492 53.8353 249.421 54.309 249.281 54.7509C249.142 55.1929 248.937 55.5945 248.679 55.9328C248.421 56.2711 248.115 56.5395 247.778 56.7226C247.441 56.9058 247.079 57 246.714 57C246.422 57 246.133 56.9246 245.864 56.778C245.594 56.6315 245.349 56.4167 245.142 56.146C244.936 55.8753 244.772 55.5539 244.661 55.2002C244.549 54.8466 244.492 54.4676 244.492 54.0849V51.9122C244.492 51.1398 244.726 50.3991 245.143 49.853C245.56 49.3068 246.125 49 246.714 49Z" fill="black"/>
<text fill="#FF0040" xml:space="preserve" style="white-space: pre" font-family="Bahij TheSansArabic" font-size="13" font-weight="500" letter-spacing="0em"><tspan x="44.4922" y="58.261">Blender </tspan></text>
<path d="M214.46 80.3641C214.404 80.1101 214.157 79.9521 213.927 80.0131C213.79 80.0745 213.686 80.1621 213.627 80.264C213.568 80.3659 213.558 80.4773 213.598 80.5831L213.641 80.7711L214.072 80.6611L213.645 80.7751C213.66 80.852 213.698 80.9261 213.757 80.9931C213.798 81.0451 213.851 81.1031 213.909 81.1711C214.133 81.4052 214.331 81.6495 214.504 81.9021C214.634 82.1241 214.906 82.1911 215.109 82.0521C215.217 81.961 215.286 81.8526 215.31 81.7381C215.334 81.6238 215.314 81.5075 215.25 81.4001C215.048 81.0918 214.811 80.7942 214.54 80.5101C214.499 80.4651 214.493 80.4871 214.484 80.4801L214.46 80.3641Z" fill="#FFFFFE"/>
<path d="M213.034 81.7584C212.978 82.0124 212.731 82.1704 212.501 82.1094C211.947 81.9684 212.176 81.2844 212.478 80.9534C212.703 80.7193 212.901 80.475 213.073 80.2224C213.204 80.0004 213.476 79.9334 213.679 80.0724C213.787 80.1636 213.856 80.2719 213.88 80.3864C213.904 80.5007 213.883 80.6171 213.82 80.7244C213.638 81.0344 213.063 81.5744 213.028 81.7584H213.034Z" fill="#FFFFFE"/>
<path d="M174.393 78.8076H151.339C149.602 78.8076 148.195 79.7608 148.195 80.9366V93.7106C148.195 94.8864 149.602 95.8396 151.339 95.8396H174.393C176.13 95.8396 177.537 94.8864 177.537 93.7106V80.9366C177.537 79.7608 176.13 78.8076 174.393 78.8076Z" fill="#29B71C"/>
<path d="M172.297 93.0014H153.434C153.156 93.0014 152.89 92.9266 152.693 92.7935C152.497 92.6604 152.386 92.4799 152.386 92.2917C152.386 92.1035 152.497 91.923 152.693 91.7899C152.89 91.6568 153.156 91.582 153.434 91.582H172.297C172.575 91.582 172.842 91.6568 173.038 91.7899C173.235 91.923 173.345 92.1035 173.345 92.2917C173.345 92.4799 173.235 92.6604 173.038 92.7935C172.842 92.9266 172.575 93.0014 172.297 93.0014Z" fill="#EEEEEE"/>
<path d="M166.01 93.7107C165.732 93.7107 165.466 93.6359 165.269 93.5029C165.073 93.3698 164.962 93.1893 164.962 93.0011V91.5817C164.962 91.3935 165.073 91.213 165.269 91.0799C165.466 90.9469 165.732 90.8721 166.01 90.8721C166.288 90.8721 166.555 90.9469 166.751 91.0799C166.948 91.213 167.058 91.3935 167.058 91.5817V93.0011C167.058 93.1893 166.948 93.3698 166.751 93.5029C166.555 93.6359 166.288 93.7107 166.01 93.7107Z" fill="#00AEEF"/>
<path d="M167.53 84.9602L160.194 82.4763C160.035 82.4219 159.857 82.396 159.679 82.401C159.5 82.4061 159.327 82.442 159.174 82.5052C159.022 82.5685 158.896 82.6571 158.809 82.7626C158.721 82.8681 158.675 82.9869 158.675 83.1079V88.7001C158.676 88.8266 158.727 88.9505 158.823 89.059C158.919 89.1675 159.056 89.2567 159.219 89.3175C159.371 89.3792 159.545 89.4112 159.722 89.4098C159.919 89.4102 160.111 89.3733 160.278 89.3033L167.613 86.195C167.772 86.128 167.902 86.0334 167.988 85.921C168.075 85.8088 168.116 85.6828 168.106 85.5563C168.096 85.4313 168.038 85.3104 167.936 85.2056C167.835 85.101 167.695 85.0163 167.53 84.9602Z" fill="#EEEEEE"/>
<path d="M151.339 78.8076C150.505 78.8076 149.705 79.0319 149.116 79.4312C148.526 79.8304 148.195 80.372 148.195 80.9366V93.7106C148.195 94.2752 148.526 94.8167 149.116 95.216C149.705 95.6152 150.505 95.8396 151.339 95.8396H162.866V78.8076H151.339Z" fill="#E53935"/>
<path d="M153.434 91.582C153.156 91.582 152.89 91.6568 152.693 91.7899C152.497 91.923 152.386 92.1035 152.386 92.2917C152.386 92.4799 152.497 92.6604 152.693 92.7935C152.89 92.9266 153.156 93.0014 153.434 93.0014H162.866V91.582H153.434Z" fill="#FAFAFA"/>
<path d="M160.194 82.4763C160.035 82.4219 159.857 82.396 159.679 82.401C159.5 82.4061 159.327 82.442 159.174 82.5052C159.022 82.5685 158.896 82.6571 158.809 82.7626C158.721 82.8681 158.675 82.9869 158.675 83.1079V88.7001C158.676 88.8266 158.727 88.9505 158.823 89.059C158.919 89.1675 159.056 89.2567 159.219 89.3175C159.371 89.3792 159.545 89.4112 159.722 89.4098C159.919 89.4102 160.111 89.3733 160.278 89.3033L162.866 88.2033V83.3776L160.194 82.4763Z" fill="#00AEEF"/>
<path d="M208.347 81.2308H211.77L206.88 78V80.2615C206.88 80.7968 207.537 81.2308 208.347 81.2308Z" fill="#00AEEF"/>
<path d="M206.347 79.6152H186.095V85.2691H206.347C206.641 85.2691 206.879 85.1284 206.879 84.955V79.9293C206.879 79.7558 206.641 79.6152 206.347 79.6152Z" fill="#C6CACF"/>
<path d="M205.136 85.2692H182.95C182.486 85.2692 182.253 84.8825 182.582 84.6564L186.381 82.0384L182.582 79.4204C182.253 79.1943 182.486 78.8076 182.95 78.8076H205.136C205.424 78.8076 205.657 78.9684 205.657 79.1666V84.9102C205.657 85.1084 205.424 85.2692 205.136 85.2692Z" fill="#00AEEF"/>
<path d="M194.109 80.9297H192.091C191.812 80.9297 191.586 81.079 191.586 81.263V83.2632C191.586 83.4473 191.812 83.5965 192.091 83.5965C192.37 83.5965 192.596 83.4473 192.596 83.2632V82.5965H194.109C194.388 82.5965 194.614 82.4472 194.614 82.2631V81.263C194.614 81.079 194.388 80.9297 194.109 80.9297ZM193.605 81.9298H192.596V81.5964H193.605V81.9298Z" fill="white"/>
<path d="M196.632 80.9297H195.623C195.345 80.9297 195.119 81.079 195.119 81.263V83.2632C195.119 83.4473 195.345 83.5965 195.623 83.5965H197.642C197.92 83.5965 198.146 83.4473 198.146 83.2632V81.9298C198.146 81.3783 197.467 80.9297 196.632 80.9297ZM197.137 82.9298H196.128V81.5964H196.632C196.911 81.5964 197.137 81.746 197.137 81.9298L197.137 82.9298Z" fill="white"/>
<path d="M201.174 80.9297H199.155C198.877 80.9297 198.651 81.079 198.651 81.263V83.2632C198.651 83.4473 198.877 83.5965 199.155 83.5965C199.434 83.5965 199.66 83.4473 199.66 83.2632V82.5965H200.669C200.948 82.5965 201.174 82.4472 201.174 82.2631C201.174 82.079 200.948 81.9298 200.669 81.9298H199.66V81.5964H201.174C201.452 81.5964 201.678 81.4471 201.678 81.2631C201.678 81.079 201.452 80.9297 201.174 80.9297Z" fill="white"/>
<path d="M206.383 96.5771H191.483C191.208 96.5771 190.986 96.4204 190.986 96.2272V86.4271C190.986 86.2338 191.208 86.0771 191.483 86.0771H206.383C206.657 86.0771 206.88 86.2339 206.88 86.4271V96.2272C206.88 96.4205 206.657 96.5771 206.383 96.5771Z" fill="#C6CACF"/>
<path d="M191.979 95.8772V86.0771H191.483C191.208 86.0771 190.986 86.2339 190.986 86.4271V96.2272C190.986 96.4205 191.208 96.5771 191.483 96.5771H206.383C206.657 96.5771 206.88 96.4204 206.88 96.2272V95.8772H191.979Z" fill="#00AEEF"/>
<path d="M205.187 94.9614H200.014C199.755 94.9614 199.544 94.8064 199.544 94.6152V90.4614C199.544 90.2702 199.755 90.1152 200.014 90.1152H205.187C205.447 90.1152 205.657 90.2702 205.657 90.4614V94.6152C205.657 94.8064 205.446 94.9614 205.187 94.9614Z" fill="black"/>
<path d="M204.434 90.9229H200.767V94.1536H204.434V90.9229Z" fill="#00AEEF"/>
<path d="M205.21 88.2634H199.66C199.381 88.2634 199.155 88.1141 199.155 87.93C199.155 87.7459 199.381 87.5967 199.66 87.5967H205.21C205.489 87.5967 205.715 87.7459 205.715 87.93C205.715 88.1141 205.489 88.2634 205.21 88.2634Z" fill="#EF0000"/>
<path d="M205.21 89.5964H199.66C199.381 89.5964 199.155 89.4471 199.155 89.263C199.155 89.0789 199.381 88.9297 199.66 88.9297H205.21C205.489 88.9297 205.715 89.079 205.715 89.263C205.715 89.4471 205.489 89.5964 205.21 89.5964Z" fill="#EF0000"/>
<path d="M198.146 88.2634H193.1C192.821 88.2634 192.595 88.1141 192.595 87.93C192.595 87.7459 192.821 87.5967 193.1 87.5967H198.146C198.424 87.5967 198.65 87.7459 198.65 87.93C198.65 88.1141 198.424 88.2634 198.146 88.2634Z" fill="#EF0000"/>
<path d="M198.146 89.5964H193.1C192.821 89.5964 192.595 89.4471 192.595 89.263C192.595 89.0789 192.821 88.9297 193.1 88.9297H198.146C198.424 88.9297 198.65 89.079 198.65 89.263C198.65 89.4471 198.424 89.5964 198.146 89.5964Z" fill="#EF0000"/>
<path d="M198.146 90.9304H193.1C192.821 90.9304 192.595 90.7811 192.595 90.597C192.595 90.4129 192.821 90.2637 193.1 90.2637H198.146C198.424 90.2637 198.65 90.4129 198.65 90.597C198.65 90.7811 198.424 90.9304 198.146 90.9304Z" fill="#EF0000"/>
<path d="M198.146 92.2634H193.1C192.821 92.2634 192.595 92.1141 192.595 91.93C192.595 91.7459 192.821 91.5967 193.1 91.5967H198.146C198.424 91.5967 198.65 91.7459 198.65 91.93C198.65 92.1141 198.424 92.2634 198.146 92.2634Z" fill="#EF0000"/>
<path d="M198.146 93.5974H193.1C192.821 93.5974 192.595 93.4481 192.595 93.264C192.595 93.0799 192.821 92.9307 193.1 92.9307H198.146C198.424 92.9307 198.65 93.0799 198.65 93.264C198.65 93.4481 198.424 93.5974 198.146 93.5974Z" fill="#EF0000"/>
<path d="M198.146 94.9304H193.1C192.821 94.9304 192.595 94.7811 192.595 94.597C192.595 94.4129 192.821 94.2637 193.1 94.2637H198.146C198.424 94.2637 198.65 94.4129 198.65 94.597C198.65 94.7811 198.424 94.9304 198.146 94.9304Z" fill="#EF0000"/>
<path d="M116.407 96.1735V98.1927H144.527V96.1735L130.531 94.9619L116.407 96.1735Z" fill="#EEEEEE"/>
<path d="M116.407 94.5572V96.5765H144.527V94.5572L130.531 93.3457L116.407 94.5572Z" fill="#DCDCDC"/>
<path d="M144.527 79.6152V94.1537H142.693L138.414 86.8845L142.693 79.6152H144.527Z" fill="#EEEEEE"/>
<path d="M143.305 79.6152V80.8438L138.874 86.8845L143.305 92.9251V94.1537H116.407V79.6152H143.305Z" fill="white"/>
<path d="M117.631 80.4229V89.6371L130.468 90.9229L143.305 89.6371V80.4229H117.631Z" fill="#29B71C"/>
<path d="M131.079 82.0381V85.2689C131.754 85.2689 132.301 84.5456 132.301 83.6535C132.301 82.7614 131.754 82.0381 131.079 82.0381Z" fill="#FE5F1A"/>
<path d="M130.59 82.0381C130.86 82.0381 131.079 82.7614 131.079 83.6535C131.079 84.5456 130.86 85.2689 130.59 85.2689C129.51 85.2689 128.634 84.5456 128.634 83.6535C128.634 82.7614 129.51 82.0381 130.59 82.0381Z" fill="#00AEEF"/>
<path d="M143.305 91.7308L135.969 87.6924L141.422 88.3367L143.305 89.6394L143.305 91.7308Z" fill="#027372"/>
<path d="M140.339 88.5679L136.85 86.8848L132.357 88.568L129.856 90.23L135.625 93.3463H143.305V91.1078L140.339 88.5679Z" fill="#E53935"/>
<path d="M142.082 88.4426L141.057 88.5003L137.192 87.305V85.2695L142.082 88.4426Z" fill="#EEEEEE"/>
<path d="M132.301 88.5003L136.431 85.2695L139.637 88.5002L132.301 88.5003Z" fill="white"/>
<path d="M134.746 93.3462H132.511L123.743 87.6924L128.599 88.3645L134.746 93.3462Z" fill="#027372"/>
<path d="M127.027 88.5679L132.302 93.3463H117.631V89.8712L119.484 88.568L123.731 86.8848L127.027 88.5679Z" fill="#00AEEF"/>
<path d="M128.633 88.4426L127.608 88.5003L123.743 87.305V85.2695L128.633 88.4426Z" fill="#EEEEEE"/>
<path d="M118.853 88.5003L123.671 85.2695L127.411 88.5002L118.853 88.5003Z" fill="white"/>
<path d="M145.262 97.3848C144.993 97.3848 144.774 97.5397 144.774 97.7309V98.3078H116.16V97.7309C116.16 97.5397 115.942 97.3848 115.673 97.3848C115.403 97.3848 115.185 97.5397 115.185 97.7309V98.654C115.185 98.8452 115.403 99.0002 115.673 99.0002H145.262C145.531 99.0002 145.75 98.8452 145.75 98.654V97.7309C145.75 97.5397 145.531 97.3848 145.262 97.3848Z" fill="#00AEEF"/>
<path d="M145.262 94.9619C144.993 94.9619 144.774 95.1169 144.774 95.3081V95.885H116.16V95.3081C116.16 95.1169 115.942 94.9619 115.673 94.9619C115.403 94.9619 115.185 95.1169 115.185 95.3081V96.2311C115.185 96.4224 115.403 96.5773 115.673 96.5773H145.262C145.531 96.5773 145.75 96.4224 145.75 96.2311V95.3081C145.75 95.1169 145.531 94.9619 145.262 94.9619Z" fill="#00AEEF"/>
<path d="M145.262 78.8076H115.673C115.403 78.8076 115.185 78.9542 115.185 79.1351V94.634C115.185 94.8149 115.403 94.9615 115.673 94.9615H145.262C145.531 94.9615 145.75 94.8149 145.75 94.634V79.1351C145.75 78.9542 145.531 78.8076 145.262 78.8076ZM144.774 94.3066H116.16V79.4625H144.774V94.3066Z" fill="#00AEEF"/>
<path d="M133.524 83.6535C133.524 82.7628 132.153 82.0381 130.468 82.0381C128.782 82.0381 127.411 82.7628 127.411 83.6535C127.411 84.5442 128.782 85.2689 130.468 85.2689C132.153 85.2689 133.524 84.5442 133.524 83.6535ZM128.376 83.6535C128.376 83.044 129.315 82.5482 130.468 82.5482C131.621 82.5482 132.559 83.044 132.559 83.6535C132.559 84.2629 131.621 84.7587 130.468 84.7587C129.315 84.7587 128.376 84.2629 128.376 83.6535Z" fill="black"/>
<path d="M116.407 93.0138C116.407 93.1973 116.638 93.346 116.922 93.346H144.013C144.297 93.346 144.527 93.1973 144.527 93.0138V79.9474C144.527 79.7639 144.297 79.6152 144.013 79.6152H116.922C116.638 79.6152 116.407 79.7639 116.407 79.9474V82.605C116.407 82.7885 116.638 82.9372 116.922 82.9372C117.206 82.9372 117.436 82.7885 117.436 82.605V80.2796H143.498V88.6683L137.604 84.8616C137.403 84.7319 137.077 84.7319 136.876 84.8616L130.467 89.0005L124.058 84.8615C123.857 84.7318 123.532 84.7319 123.331 84.8615L117.436 88.6683V83.9338C117.436 83.7503 117.206 83.6016 116.922 83.6016C116.638 83.6016 116.407 83.7503 116.407 83.9338V93.0138ZM137.24 85.5662L140.713 87.8094H133.767L137.24 85.5662ZM123.695 85.5662L127.168 87.8094H120.221L123.695 85.5662ZM119.192 88.4738H128.197L130.103 89.7049C130.104 89.7057 133.533 91.92 133.533 91.92C133.633 91.9848 133.765 92.0172 133.897 92.0172C134.028 92.0172 134.16 91.9848 134.26 91.92C134.461 91.7902 134.461 91.5799 134.26 91.4501L131.195 89.4704L132.738 88.4738H141.742L143.498 89.608V92.6816H117.436V89.608L119.192 88.4738Z" fill="black"/>
<path fill-rule="evenodd" clip-rule="evenodd" d="M101.819 82.0645C101.981 82.0645 102.114 82.2066 102.114 82.3803V88.3168H101.524V82.3803C101.524 82.2042 101.656 82.0645 101.819 82.0645Z" fill="#FFFFFE"/>
<g filter="url(#filter1_d_0_1)">
<mask id="path-56-inside-2_0_1" fill="white">
<path d="M307.492 74H51.4922H307.492Z"/>
</mask>
<path d="M307.492 74H51.4922H307.492Z" fill="#231F20"/>
<path d="M307.492 74H51.4922H307.492Z" stroke="black" stroke-width="0.6" mask="url(#path-56-inside-2_0_1)"/>
</g>
<defs>
<filter id="filter0_d_0_1" x="47.4922" y="0.700195" width="264" height="8.59961" filterUnits="userSpaceOnUse" color-interpolation-filters="sRGB">
<feFlood flood-opacity="0" result="BackgroundImageFix"/>
<feColorMatrix in="SourceAlpha" type="matrix" values="0 0 0 0 0 0 0 0 0 0 0 0 0 0 0 0 0 0 127 0" result="hardAlpha"/>
<feOffset dy="4"/>
<feGaussianBlur stdDeviation="2"/>
<feComposite in2="hardAlpha" operator="out"/>
<feColorMatrix type="matrix" values="0 0 0 0 0 0 0 0 0 0 0 0 0 0 0 0 0 0 0.25 0"/>
<feBlend mode="normal" in2="BackgroundImageFix" result="effect1_dropShadow_0_1"/>
<feBlend mode="normal" in="SourceGraphic" in2="effect1_dropShadow_0_1" result="shape"/>
</filter>
<filter id="filter1_d_0_1" x="47.4922" y="73.7002" width="264" height="8.59961" filterUnits="userSpaceOnUse" color-interpolation-filters="sRGB">
<feFlood flood-opacity="0" result="BackgroundImageFix"/>
<feColorMatrix in="SourceAlpha" type="matrix" values="0 0 0 0 0 0 0 0 0 0 0 0 0 0 0 0 0 0 127 0" result="hardAlpha"/>
<feOffset dy="4"/>
<feGaussianBlur stdDeviation="2"/>
<feComposite in2="hardAlpha" operator="out"/>
<feColorMatrix type="matrix" values="0 0 0 0 0 0 0 0 0 0 0 0 0 0 0 0 0 0 0.25 0"/>
<feBlend mode="normal" in2="BackgroundImageFix" result="effect1_dropShadow_0_1"/>
<feBlend mode="normal" in="SourceGraphic" in2="effect1_dropShadow_0_1" result="shape"/>
</filter>
</defs>
</svg>
