<svg width="809" height="134" viewBox="0 0 809 134" fill="none" xmlns="http://www.w3.org/2000/svg">
<rect width="809" height="134" fill="#F5F5F5"/>
<rect x="408" y="1" width="15" height="88" fill="url(#paint0_linear_0_1)"/>
<rect x="2" y="-2" width="805" height="85" transform="matrix(1 0 0 -1 0 85)" stroke="#01ADED" stroke-width="4"/>
<path d="M597.954 15H723.033C724.213 15 725.381 15.2324 726.471 15.6838C727.56 16.1352 728.551 16.7969 729.385 17.6311C730.219 18.4652 730.881 19.4555 731.332 20.5454C731.784 21.6352 732.016 22.8033 732.016 23.983V40.152H597.954C594.619 40.152 591.42 38.827 589.061 36.4686C586.703 34.1101 585.378 30.9114 585.378 27.576C585.378 24.2406 586.703 21.0419 589.061 18.6834C591.42 16.325 594.619 15 597.954 15Z" fill="#00AEEF"/>
<text fill="#FEFEFE" xml:space="preserve" style="white-space: pre" font-family="Harmattan" font-size="15" font-weight="bold" letter-spacing="0em"><tspan x="651.492" y="31.0872">3D </tspan></text>
<path d="M729.7 57.668H676.7V62.668H729.7V57.668Z" fill="#949598"/>
<path d="M676.7 57.668H634.7V62.668H676.7V57.668Z" fill="#00AEEF"/>
<path d="M675.714 56C676.451 56 677.158 56.3835 677.679 57.0661C678.2 57.7488 678.492 58.6746 678.492 59.64V60.3571C678.492 60.8353 678.421 61.309 678.281 61.7509C678.142 62.1929 677.937 62.5945 677.679 62.9328C677.421 63.2711 677.115 63.5395 676.778 63.7226C676.441 63.9058 676.079 64 675.714 64C675.422 64 675.133 63.9246 674.864 63.778C674.594 63.6315 674.349 63.4167 674.142 63.146C673.936 62.8753 673.772 62.5539 673.661 62.2002C673.549 61.8466 673.492 61.4676 673.492 61.0849V58.9122C673.492 58.1398 673.726 57.3991 674.143 56.853C674.56 56.3068 675.125 56 675.714 56Z" fill="black"/>
<text fill="#FF0040" xml:space="preserve" style="white-space: pre" font-family="Bahij TheSansArabic" font-size="13" font-weight="500" letter-spacing="0em"><tspan x="473.492" y="65.261">Blender </tspan></text>
<path d="M207.462 15H332.541C333.72 15 334.889 15.2324 335.978 15.6838C337.068 16.1352 338.059 16.7969 338.893 17.6311C339.727 18.4652 340.389 19.4555 340.84 20.5454C341.291 21.6352 341.524 22.8033 341.524 23.983V40.152H207.462C204.126 40.152 200.928 38.827 198.569 36.4686C196.211 34.1101 194.886 30.9114 194.886 27.576C194.886 24.2406 196.211 21.0419 198.569 18.6834C200.928 16.325 204.126 15 207.462 15Z" fill="#00AEEF"/>
<text fill="#FEFEFE" xml:space="preserve" style="white-space: pre" font-family="Harmattan" font-size="15" font-weight="bold" letter-spacing="0em"><tspan x="261" y="31.0872">3D </tspan></text>
<path d="M339.208 57.668H286.208V62.668H339.208V57.668Z" fill="#949598"/>
<path d="M286.208 57.668H244.208V62.668H286.208V57.668Z" fill="#00AEEF"/>
<path d="M285.222 56C285.959 56 286.666 56.3835 287.186 57.0661C287.707 57.7488 288 58.6746 288 59.64V60.3571C288 60.8353 287.929 61.309 287.789 61.7509C287.65 62.1929 287.445 62.5945 287.187 62.9328C286.929 63.2711 286.623 63.5395 286.286 63.7226C285.949 63.9058 285.587 64 285.222 64C284.93 64 284.641 63.9246 284.371 63.778C284.102 63.6315 283.856 63.4167 283.65 63.146C283.444 62.8753 283.28 62.5539 283.169 62.2002C283.057 61.8466 283 61.4676 283 61.0849V58.9122C283 58.1398 283.234 57.3991 283.651 56.853C284.068 56.3068 284.633 56 285.222 56Z" fill="black"/>
<text fill="#FF0040" xml:space="preserve" style="white-space: pre" font-family="Bahij TheSansArabic" font-size="13" font-weight="500" letter-spacing="0em"><tspan x="83" y="65.261">Blender </tspan></text>
<path d="M252.967 87.3641C252.911 87.1101 252.665 86.9521 252.435 87.0131C252.298 87.0745 252.194 87.1621 252.135 87.264C252.076 87.3659 252.066 87.4773 252.106 87.5831L252.149 87.7711L252.58 87.6611L252.153 87.7751C252.168 87.852 252.206 87.9261 252.265 87.9931C252.306 88.0451 252.359 88.1031 252.417 88.1711C252.64 88.4052 252.839 88.6495 253.011 88.9021C253.142 89.1241 253.414 89.1911 253.617 89.0521C253.725 88.961 253.794 88.8526 253.818 88.7381C253.842 88.6238 253.821 88.5075 253.758 88.4001C253.556 88.0918 253.319 87.7942 253.048 87.5101C253.007 87.4651 253.001 87.4871 252.992 87.4801L252.967 87.3641Z" fill="#FFFFFE"/>
<path d="M439.67 95.5039H396.746C393.514 95.5039 390.893 97.2786 390.893 99.4677V123.251C390.893 125.44 393.514 127.214 396.746 127.214H439.67C442.902 127.214 445.523 125.44 445.523 123.251V99.4677C445.523 97.2786 442.902 95.5039 439.67 95.5039Z" fill="#FF0101"/>
<path d="M435.767 121.93H400.648C400.13 121.93 399.634 121.79 399.268 121.543C398.902 121.295 398.697 120.959 398.697 120.608C398.697 120.258 398.902 119.922 399.268 119.674C399.634 119.426 400.13 119.287 400.648 119.287H435.767C436.285 119.287 436.781 119.426 437.147 119.674C437.513 119.922 437.718 120.258 437.718 120.608C437.718 120.959 437.513 121.295 437.147 121.543C436.781 121.79 436.285 121.93 435.767 121.93Z" fill="#EEEEEE"/>
<path d="M424.062 123.251C423.544 123.251 423.048 123.112 422.682 122.864C422.316 122.616 422.111 122.28 422.111 121.93V119.287C422.111 118.937 422.316 118.601 422.682 118.353C423.048 118.105 423.544 117.966 424.062 117.966C424.579 117.966 425.076 118.105 425.442 118.353C425.807 118.601 426.013 118.937 426.013 119.287V121.93C426.013 122.28 425.807 122.616 425.442 122.864C425.076 123.112 424.579 123.251 424.062 123.251Z" fill="black"/>
<path d="M396.746 95.5039C395.194 95.5039 393.705 95.9215 392.607 96.6649C391.51 97.4082 390.893 98.4164 390.893 99.4677V123.251C390.893 124.302 391.51 125.31 392.607 126.053C393.705 126.797 395.194 127.214 396.746 127.214H418.208V95.5039H396.746Z" fill="#01B2FF"/>
<path d="M400.648 119.287C400.13 119.287 399.634 119.426 399.268 119.674C398.902 119.922 398.697 120.258 398.697 120.608C398.697 120.959 398.902 121.295 399.268 121.543C399.634 121.79 400.13 121.93 400.648 121.93H418.208V119.287H400.648Z" fill="#FAFAFA"/>
<path d="M413.234 102.335C412.937 102.233 412.606 102.185 412.274 102.195C411.942 102.204 411.618 102.271 411.335 102.389C411.052 102.506 410.817 102.671 410.654 102.868C410.492 103.064 410.406 103.285 410.405 103.511V113.922C410.407 114.158 410.502 114.388 410.681 114.59C410.859 114.793 411.114 114.959 411.419 115.072C411.702 115.187 412.026 115.246 412.356 115.244C412.721 115.244 413.079 115.176 413.39 115.045L418.209 112.997V104.013L413.234 102.335Z" fill="#00AEEF"/>
<path d="M426.891 106.959L413.234 102.335C412.937 102.233 412.606 102.185 412.274 102.195C411.942 102.204 411.618 102.271 411.335 102.389C411.052 102.506 410.817 102.671 410.654 102.868C410.492 103.064 410.406 103.285 410.405 103.511V113.922C410.407 114.158 410.502 114.388 410.681 114.59C410.859 114.793 411.114 114.959 411.419 115.072C411.702 115.187 412.026 115.246 412.356 115.244C412.721 115.244 413.079 115.176 413.39 115.045L427.047 109.258C427.343 109.133 427.584 108.957 427.745 108.748C427.906 108.539 427.982 108.305 427.964 108.069C427.946 107.836 427.837 107.611 427.648 107.416C427.46 107.221 427.199 107.064 426.891 106.959Z" fill="#EEEEEE"/>
<path d="M502.885 100.015H509.259L500.154 94V98.2106C500.154 99.2072 501.377 100.015 502.885 100.015Z" fill="#00AEEF"/>
<path d="M499.161 97.0078H461.457V107.534H499.161C499.709 107.534 500.154 107.272 500.154 106.949V97.5926C500.154 97.2696 499.709 97.0078 499.161 97.0078Z" fill="#C6CACF"/>
<path d="M496.908 107.534H455.601C454.737 107.534 454.304 106.814 454.915 106.393L461.989 101.519L454.915 96.6448C454.304 96.2238 454.737 95.5039 455.601 95.5039H496.908C497.444 95.5039 497.878 95.8032 497.878 96.1722V106.866C497.878 107.235 497.444 107.534 496.908 107.534Z" fill="#00AEEF"/>
<path d="M476.377 99.4551H472.619C472.101 99.4551 471.68 99.733 471.68 100.076V103.8C471.68 104.142 472.101 104.42 472.619 104.42C473.138 104.42 473.559 104.142 473.559 103.8V102.558H476.377C476.896 102.558 477.317 102.28 477.317 101.938V100.076C477.317 99.733 476.896 99.4551 476.377 99.4551ZM475.438 101.317H473.559V100.696H475.438V101.317Z" fill="white"/>
<path d="M481.074 99.4551H479.195C478.677 99.4551 478.256 99.733 478.256 100.076V103.8C478.256 104.142 478.677 104.42 479.195 104.42H482.953C483.472 104.42 483.893 104.142 483.893 103.8V101.317C483.893 100.29 482.629 99.4551 481.074 99.4551ZM482.014 103.179H480.135V100.696H481.074C481.592 100.696 482.014 100.975 482.014 101.317L482.014 103.179Z" fill="white"/>
<path d="M489.53 99.4551H485.772C485.253 99.4551 484.832 99.733 484.832 100.076V103.8C484.832 104.142 485.253 104.42 485.772 104.42C486.29 104.42 486.711 104.142 486.711 103.8V102.558H488.59C489.109 102.558 489.53 102.28 489.53 101.938C489.53 101.595 489.109 101.317 488.59 101.317H486.711V100.696H489.53C490.048 100.696 490.469 100.418 490.469 100.076C490.469 99.7331 490.048 99.4551 489.53 99.4551Z" fill="white"/>
<path d="M499.229 128.587H471.487C470.977 128.587 470.563 128.295 470.563 127.936V109.69C470.563 109.33 470.977 109.038 471.487 109.038H499.229C499.74 109.038 500.154 109.33 500.154 109.69V127.936C500.154 128.296 499.74 128.587 499.229 128.587Z" fill="#C6CACF"/>
<path d="M472.412 127.284V109.038H471.487C470.977 109.038 470.563 109.33 470.563 109.69V127.936C470.563 128.296 470.977 128.587 471.487 128.587H499.229C499.74 128.587 500.154 128.295 500.154 127.936V127.284H472.412Z" fill="#00AEEF"/>
<path d="M497.002 125.579H487.372C486.888 125.579 486.496 125.291 486.496 124.935V117.201C486.496 116.845 486.888 116.557 487.372 116.557H497.002C497.486 116.557 497.878 116.845 497.878 117.201V124.935C497.878 125.291 497.486 125.579 497.002 125.579Z" fill="black"/>
<path d="M495.601 118.061H488.772V124.076H495.601V118.061Z" fill="#00AEEF"/>
<path d="M497.046 113.108H486.712C486.193 113.108 485.772 112.831 485.772 112.488C485.772 112.145 486.193 111.867 486.712 111.867H497.046C497.565 111.867 497.985 112.145 497.985 112.488C497.985 112.831 497.565 113.108 497.046 113.108Z" fill="#EF0000"/>
<path d="M497.046 115.591H486.712C486.193 115.591 485.772 115.313 485.772 114.97C485.772 114.627 486.193 114.35 486.712 114.35H497.046C497.565 114.35 497.985 114.628 497.985 114.97C497.985 115.313 497.565 115.591 497.046 115.591Z" fill="#EF0000"/>
<path d="M483.893 113.108H474.498C473.979 113.108 473.558 112.831 473.558 112.488C473.558 112.145 473.979 111.867 474.498 111.867H483.893C484.412 111.867 484.832 112.145 484.832 112.488C484.832 112.831 484.411 113.108 483.893 113.108Z" fill="#EF0000"/>
<path d="M483.892 115.591H474.498C473.979 115.591 473.558 115.313 473.558 114.97C473.558 114.627 473.979 114.35 474.498 114.35H483.892C484.411 114.35 484.832 114.628 484.832 114.97C484.832 115.313 484.411 115.591 483.892 115.591Z" fill="#EF0000"/>
<path d="M483.892 118.074H474.498C473.979 118.074 473.558 117.796 473.558 117.454C473.558 117.111 473.979 116.833 474.498 116.833H483.892C484.411 116.833 484.832 117.111 484.832 117.454C484.832 117.796 484.411 118.074 483.892 118.074Z" fill="#EF0000"/>
<path d="M483.892 120.556H474.498C473.979 120.556 473.558 120.278 473.558 119.935C473.558 119.592 473.979 119.314 474.498 119.314H483.892C484.411 119.314 484.832 119.592 484.832 119.935C484.832 120.278 484.411 120.556 483.892 120.556Z" fill="#EF0000"/>
<path d="M483.892 123.039H474.498C473.979 123.039 473.558 122.761 473.558 122.418C473.558 122.076 473.979 121.798 474.498 121.798H483.892C484.411 121.798 484.832 122.076 484.832 122.418C484.832 122.761 484.411 123.039 483.892 123.039Z" fill="#EF0000"/>
<path d="M483.892 125.521H474.498C473.979 125.521 473.558 125.243 473.558 124.9C473.558 124.557 473.979 124.279 474.498 124.279H483.892C484.411 124.279 484.832 124.557 484.832 124.9C484.832 125.243 484.411 125.521 483.892 125.521Z" fill="#EF0000"/>
<path d="M331.71 127.836V131.595H384.064V127.836L358.007 125.58L331.71 127.836Z" fill="#EEEEEE"/>
<path d="M331.71 124.826V128.585H384.064V124.826L358.007 122.57L331.71 124.826Z" fill="#DCDCDC"/>
<path d="M384.065 97.0078V124.076H380.65L372.683 110.542L380.65 97.0078H384.065Z" fill="#EEEEEE"/>
<path d="M381.788 97.0078V99.2953L373.54 110.542L381.788 121.788V124.076H331.71V97.0078H381.788Z" fill="white"/>
<path d="M333.988 98.5107V115.666L357.889 118.06L381.789 115.666V98.5107H333.988Z" fill="#29B71C"/>
<path d="M359.026 101.519V107.534C360.283 107.534 361.302 106.187 361.302 104.526C361.302 102.865 360.283 101.519 359.026 101.519Z" fill="#FE5F1A"/>
<path d="M358.116 101.519C358.618 101.519 359.026 102.865 359.026 104.526C359.026 106.187 358.618 107.534 358.116 107.534C356.104 107.534 354.474 106.187 354.474 104.526C354.474 102.865 356.104 101.519 358.116 101.519Z" fill="#00AEEF"/>
<path d="M381.788 119.565L368.131 112.046L378.284 113.246L381.789 115.671L381.788 119.565Z" fill="#027372"/>
<path d="M376.266 113.676L369.772 110.542L361.406 113.676L356.75 116.77L367.49 122.572H381.788V118.404L376.266 113.676Z" fill="#E53935"/>
<path d="M379.512 113.442L377.604 113.549L370.407 111.324V107.534L379.512 113.442Z" fill="#EEEEEE"/>
<path d="M361.302 113.549L368.991 107.534L374.959 113.549L361.302 113.549Z" fill="white"/>
<path d="M365.854 122.572H361.692L345.368 112.046L354.409 113.297L365.854 122.572Z" fill="#027372"/>
<path d="M351.483 113.676L361.303 122.572H333.988V116.102L337.438 113.676L345.345 110.542L351.483 113.676Z" fill="#00AEEF"/>
<path d="M354.473 113.442L352.565 113.549L345.368 111.324V107.534L354.473 113.442Z" fill="#EEEEEE"/>
<path d="M336.264 113.549L345.234 107.534L352.198 113.549L336.264 113.549Z" fill="white"/>
<path d="M385.433 130.091C384.931 130.091 384.525 130.379 384.525 130.735V131.809H331.251V130.735C331.251 130.379 330.844 130.091 330.343 130.091C329.841 130.091 329.434 130.379 329.434 130.735V132.454C329.434 132.81 329.841 133.098 330.343 133.098H385.433C385.934 133.098 386.341 132.81 386.341 132.454V130.735C386.341 130.379 385.934 130.091 385.433 130.091Z" fill="#00AEEF"/>
<path d="M385.433 125.58C384.931 125.58 384.525 125.869 384.525 126.225V127.299H331.251V126.225C331.251 125.869 330.844 125.58 330.343 125.58C329.841 125.58 329.434 125.869 329.434 126.225V127.943C329.434 128.299 329.841 128.588 330.343 128.588H385.433C385.934 128.588 386.341 128.299 386.341 127.943V126.225C386.341 125.869 385.934 125.58 385.433 125.58Z" fill="#00AEEF"/>
<path d="M385.433 95.5039H330.343C329.841 95.5039 329.434 95.7768 329.434 96.1135V124.97C329.434 125.307 329.841 125.58 330.343 125.58H385.433C385.934 125.58 386.341 125.307 386.341 124.97V96.1135C386.341 95.7768 385.934 95.5039 385.433 95.5039ZM384.525 124.36H331.251V96.7232H384.525V124.36Z" fill="#00AEEF"/>
<path d="M363.579 104.526C363.579 102.868 361.026 101.519 357.888 101.519C354.75 101.519 352.198 102.868 352.198 104.526C352.198 106.184 354.75 107.534 357.888 107.534C361.026 107.534 363.579 106.184 363.579 104.526ZM353.995 104.526C353.995 103.391 355.741 102.468 357.888 102.468C360.035 102.468 361.782 103.391 361.782 104.526C361.782 105.661 360.035 106.584 357.888 106.584C355.741 106.584 353.995 105.661 353.995 104.526Z" fill="black"/>
<path d="M331.71 121.954C331.71 122.295 332.139 122.572 332.668 122.572H383.107C383.636 122.572 384.064 122.295 384.064 121.954V97.6263C384.064 97.2847 383.636 97.0078 383.107 97.0078H332.668C332.139 97.0078 331.71 97.2847 331.71 97.6263V102.574C331.71 102.916 332.139 103.193 332.668 103.193C333.197 103.193 333.626 102.916 333.626 102.574V98.2448H382.149V113.863L371.174 106.776C370.8 106.534 370.194 106.534 369.82 106.776L357.887 114.482L345.955 106.775C345.58 106.534 344.974 106.534 344.6 106.775L333.626 113.863V105.048C333.626 104.707 333.197 104.43 332.668 104.43C332.139 104.43 331.71 104.707 331.71 105.048V121.954ZM370.497 108.088L376.964 112.264H364.03L370.497 108.088ZM345.278 108.088L351.745 112.264H338.811L345.278 108.088ZM336.896 113.501H353.66L357.209 115.793C357.211 115.795 363.595 119.917 363.595 119.917C363.782 120.038 364.027 120.098 364.272 120.098C364.517 120.098 364.762 120.038 364.949 119.917C365.323 119.675 365.323 119.284 364.949 119.042L359.242 115.356L362.115 113.501H378.879L382.149 115.613V121.335H333.626V115.613L336.896 113.501Z" fill="black"/>
<path fill-rule="evenodd" clip-rule="evenodd" d="M304.549 101.567C304.851 101.567 305.099 101.832 305.099 102.155V113.208H304V102.155C304 101.828 304.246 101.567 304.549 101.567Z" fill="#FFFFFE"/>
<defs>
<linearGradient id="paint0_linear_0_1" x1="423" y1="45" x2="408" y2="45" gradientUnits="userSpaceOnUse">
<stop offset="0.432692" stop-color="#FF0000"/>
<stop offset="0.475962"/>
<stop offset="0.476062" stop-color="#00B3FF"/>
</linearGradient>
</defs>
</svg>
