<svg width="809" height="822" viewBox="0 0 809 822" fill="none" xmlns="http://www.w3.org/2000/svg">
<rect width="809" height="822" fill="#F5F5F5"/>
<rect x="408" width="15" height="813" fill="url(#paint0_linear_0_1)"/>
<rect x="2" y="-2" width="805" height="809" transform="matrix(1 0 0 -1 0 809)" stroke="#01ADED" stroke-width="4"/>
<path d="M723.992 50.5C719.451 50.5 715.182 48.7317 711.971 45.5208C708.76 42.3099 706.992 38.0409 706.992 33.5C706.992 28.9591 708.76 24.6901 711.971 21.4792C715.182 18.2683 719.451 16.5 723.992 16.5C728.533 16.5 732.802 18.2683 736.013 21.4792C739.224 24.6901 740.992 28.9591 740.992 33.5C740.992 38.0409 739.224 42.3099 736.013 45.5208C732.802 48.7317 728.533 50.5 723.992 50.5Z" fill="#00AEEF"/>
<path d="M723.992 17C719.585 17 715.441 18.7163 712.325 21.8327C709.208 24.9492 707.492 29.0927 707.492 33.5C707.492 37.9073 709.208 42.0508 712.325 45.1673C715.441 48.2837 719.585 50 723.992 50C728.399 50 732.543 48.2837 735.659 45.1673C738.776 42.0508 740.492 37.9073 740.492 33.5C740.492 29.0927 738.776 24.9492 735.659 21.8327C732.543 18.7163 728.399 17 723.992 17ZM723.992 16C733.657 16 741.492 23.835 741.492 33.5C741.492 43.165 733.657 51 723.992 51C714.327 51 706.492 43.165 706.492 33.5C706.492 23.835 714.327 16 723.992 16Z" fill="#707070"/>
<path d="M758.534 33.0171C757.734 32.6171 755.811 34.0981 756.647 34.5171C757.981 35.1846 759.228 36.0131 760.36 36.9841C752.82 36.3991 745.95 39.5511 738.723 41.5681C734.08 42.8681 728.742 43.6091 724.432 41.2121C726.17 40.602 727.829 39.788 729.375 38.7871C731.075 37.6681 732.75 36.2261 733.18 34.1601C733.326 33.4267 733.244 32.6665 732.948 31.9803C732.651 31.2941 732.152 30.7144 731.518 30.3181C728.356 28.8411 726.146 30.0621 724.826 32.5181C724.22 31.7874 723.401 31.2632 722.483 31.0181C721.239 30.6791 719.134 30.4291 718.351 31.7941C716.275 35.4111 718.728 38.7131 721.788 40.8041C717.088 42.3671 711.728 42.2041 708.881 37.7911C708.515 37.2241 706.315 37.2551 706.5 37.5431C710.045 43.0331 717.1 43.4181 723.133 41.6301C723.784 41.9878 724.46 42.2973 725.155 42.5561C737.608 47.1391 748.992 36.4201 761.255 37.8041C761.305 37.8541 761.355 37.9041 761.406 37.9511C759.709 38.7291 758.081 39.6512 756.541 40.7071C756.252 40.9071 755.747 41.5541 756.203 41.8491C756.685 42.1601 757.361 41.7561 757.753 41.4891C759.429 40.3562 761.231 39.4204 763.121 38.7001C763.421 38.5841 764.585 37.8431 764.154 37.3601C762.575 35.567 760.668 34.0928 758.534 33.0171ZM722.872 40.1711C721.979 39.468 721.262 38.5659 720.779 37.5367C720.296 36.5075 720.059 35.3797 720.089 34.2431C720.134 33.0091 721.065 30.7221 722.636 32.4201C723.216 33.1841 723.661 34.0423 723.949 34.9571C724.125 35.3861 726.21 35.8421 726.355 35.3091C726.612 34.2916 726.968 33.3021 727.42 32.3551C728.376 30.4241 730.327 30.3981 730.751 32.5551C731.251 35.0701 728.845 36.8911 727.063 38.1551C725.823 39.0275 724.487 39.7565 723.082 40.3281C723.018 40.2771 722.946 40.2261 722.877 40.1701L722.872 40.1711Z" fill="white"/>
<path d="M739.471 42.5374C739.671 42.1004 739.852 41.6494 740.013 41.1994C741.313 40.8134 742.621 40.3944 743.886 39.9884C748.598 38.4774 753.47 36.9154 758.505 36.9154C759.129 36.9154 759.754 36.9394 760.363 36.9864C759.23 36.0164 757.984 35.188 756.651 34.5194C756.576 34.4901 756.514 34.4338 756.478 34.3615C756.442 34.2892 756.435 34.2061 756.457 34.1284C756.628 33.7994 756.879 33.5188 757.187 33.3127C757.495 33.1066 757.85 32.9816 758.219 32.9494C758.33 32.9468 758.439 32.9701 758.539 33.0174C760.674 34.0936 762.582 35.5709 764.159 37.3684C764.2 37.4123 764.229 37.4659 764.244 37.5242C764.258 37.5825 764.257 37.6435 764.241 37.7014C764.135 38.1394 763.349 38.6224 763.125 38.7084C761.235 39.4299 759.434 40.3657 757.757 41.4974C757.426 41.7584 757.028 41.9222 756.609 41.9704C756.468 41.9725 756.329 41.9333 756.209 41.8574C756.153 41.8252 756.107 41.7788 756.075 41.723C756.042 41.6672 756.025 41.6039 756.025 41.5394C756.05 41.3737 756.11 41.2151 756.199 41.0734C756.289 40.9318 756.407 40.8102 756.546 40.7164C758.087 39.6613 759.714 38.7393 761.411 37.9604C761.381 37.9304 761.351 37.9004 761.321 37.8724L761.26 37.8134C760.512 37.7297 759.759 37.688 759.006 37.6884C754.379 37.6884 749.793 39.2194 745.358 40.7004H745.345C743.424 41.3414 741.437 42.0004 739.475 42.5344L739.471 42.5374ZM707.271 38.6024C706.994 38.2685 706.737 37.9182 706.501 37.5534C706.495 37.5453 706.491 37.5357 706.49 37.5256C706.49 37.5156 706.492 37.5054 706.496 37.4964C706.534 37.4234 706.762 37.3694 707.091 37.3554C707.136 37.7684 707.197 38.1874 707.273 38.6014L707.271 38.6024Z" fill="black"/>
<path d="M729.368 767.242H755.368V800.242H729.368V767.242Z" fill="#00AEEF"/>
<path d="M737.889 785.964C737.889 786.174 737.77 786.342 737.625 786.342C737.478 786.342 737.36 786.172 737.36 785.964V776.709H731.809V795.361H732.725C732.872 795.361 732.989 795.532 732.989 795.739C732.989 795.949 732.87 796.117 732.725 796.117H731.544C731.397 796.117 731.28 795.947 731.28 795.739V776.507C731.28 776.355 731.324 776.216 731.394 776.113C731.464 776.014 731.561 775.951 731.669 775.951H737.36V768.58C737.36 768.398 737.412 768.231 737.496 768.112V768.11C737.581 767.989 737.696 767.916 737.825 767.916H747.252C747.38 767.916 747.496 767.989 747.58 768.11L747.601 768.141C747.672 768.259 747.718 768.412 747.718 768.58V775.951H753.45C753.556 775.951 753.653 776.014 753.723 776.113L753.725 776.116C753.795 776.216 753.839 776.355 753.839 776.507V795.739C753.839 795.949 753.719 796.117 753.574 796.117H751.896C751.75 796.117 751.632 795.947 751.632 795.739C751.632 795.529 751.751 795.361 751.896 795.361H753.31V776.709H747.716V785.854C747.716 786.064 747.597 786.232 747.452 786.232C747.305 786.232 747.187 786.062 747.187 785.854V768.671H737.889V785.964ZM749.115 785.901H752.034C752.058 785.901 752.078 785.922 752.078 785.946V787.179C752.078 787.206 752.058 787.227 752.034 787.227H749.115C749.091 787.227 749.071 787.206 749.071 787.179V785.946C749.071 785.922 749.091 785.901 749.115 785.901ZM733.063 785.901H735.982C736.005 785.901 736.026 785.922 736.026 785.946V787.179C736.026 787.206 736.005 787.227 735.982 787.227H733.063C733.039 787.227 733.018 787.206 733.018 787.179V785.946C733.018 785.922 733.039 785.901 733.063 785.901ZM739.075 770.138H746.003C746.119 770.138 746.215 770.275 746.215 770.44V773.67C746.215 773.836 746.119 773.972 746.003 773.972H739.075C738.959 773.972 738.864 773.836 738.864 773.67V770.44C738.862 770.275 738.957 770.138 739.075 770.138ZM749.161 795.474C748.968 794.921 748.724 794.451 748.438 794.01C748.974 794.307 749.523 794.6 749.928 794.965C750.666 795.627 750.721 796.427 750.782 797.576H747.123C747.123 797.568 747.123 797.558 747.123 797.55L747.055 796.729L747.318 797.054L748.603 795.456L749.161 795.474ZM736.068 794.178L736.532 796.13L736.765 794.97L736.652 794.792C736.6 794.684 736.589 794.59 736.617 794.509C736.679 794.333 736.808 794.367 736.927 794.367C737.052 794.367 737.208 794.333 737.246 794.558C737.259 794.635 737.243 794.713 737.206 794.795L737.092 794.973L737.325 796.133L737.746 794.181C737.806 794.259 737.893 794.325 737.992 794.383C737.957 794.488 737.926 794.595 737.898 794.711C737.827 795.007 737.781 795.335 737.76 795.7H737.762C737.762 795.708 737.762 795.718 737.76 795.726L737.659 797.579H734.298C734.096 797.558 733.993 797.408 733.977 797.151L734.047 796.128C734.067 795.763 734.138 795.477 734.254 795.257C734.331 795.112 734.427 795.005 734.531 794.921C734.865 794.645 735.765 794.569 736.068 794.178ZM735.84 791.41C735.794 791.415 735.761 791.431 735.736 791.452C735.721 791.465 735.712 791.483 735.704 791.504C735.697 791.528 735.693 791.559 735.693 791.593C735.695 791.701 735.736 791.845 735.814 792.01L735.816 792.013L736.075 792.604C736.178 792.84 736.288 793.078 736.42 793.254C736.547 793.42 736.703 793.532 736.907 793.535C737.129 793.535 737.29 793.42 737.423 793.244C737.56 793.06 737.67 792.803 737.779 792.548L738.071 791.861C738.129 791.669 738.148 791.554 738.129 791.499C738.118 791.465 738.069 791.457 737.99 791.465C737.939 791.48 737.887 791.467 737.83 791.425L737.975 790.801C737.441 790.79 737.074 790.659 736.642 790.263C736.501 790.134 736.457 789.985 736.316 789.998C736.207 790.027 736.117 790.097 736.046 790.208C735.976 790.313 735.925 790.457 735.892 790.643L735.978 791.394C735.932 791.433 735.886 791.436 735.84 791.41ZM738.155 791.223C738.218 791.249 738.263 791.302 738.293 791.381C738.337 791.509 738.32 791.698 738.238 791.966C738.236 791.971 738.234 791.976 738.232 791.982L737.937 792.677C737.823 792.947 737.705 793.218 737.549 793.427C737.386 793.645 737.186 793.79 736.91 793.79C736.653 793.79 736.461 793.648 736.303 793.441C736.15 793.241 736.035 792.987 735.926 792.737L735.668 792.147C735.57 791.94 735.521 791.751 735.517 791.596C735.515 791.52 735.524 791.452 735.545 791.391C735.565 791.328 735.598 791.273 735.64 791.234C735.66 791.213 735.684 791.197 735.712 791.184C735.695 790.869 735.69 790.478 735.701 790.147C735.706 790.066 735.717 789.987 735.732 789.906C735.798 789.567 735.965 789.294 736.171 789.108C736.244 789.043 736.323 788.987 736.407 788.943C736.907 788.686 737.568 788.825 737.922 789.373C738.067 789.596 738.157 789.893 738.175 790.284L738.155 791.223ZM740.768 788.61C740.709 788.62 740.665 788.641 740.632 788.67C740.61 788.691 740.595 788.717 740.586 788.746C740.575 788.783 740.569 788.827 740.569 788.877C740.573 789.037 740.634 789.252 740.749 789.499L740.751 789.504L741.138 790.386C741.293 790.738 741.454 791.095 741.654 791.357C741.845 791.606 742.075 791.774 742.379 791.774C742.71 791.774 742.952 791.601 743.147 791.339C743.352 791.063 743.518 790.683 743.677 790.302L744.112 789.279C744.201 788.993 744.226 788.82 744.199 788.741C744.18 788.688 744.105 788.675 743.977 788.694C743.967 788.694 743.956 788.694 743.947 788.694C743.894 788.694 743.837 788.675 743.773 788.633L743.969 787.699C743.171 787.686 742.625 787.486 741.979 786.896C741.766 786.702 741.704 786.481 741.491 786.502C741.331 786.547 741.195 786.649 741.089 786.815C740.986 786.972 740.909 787.187 740.858 787.465L740.995 788.596C740.916 788.649 740.839 788.654 740.768 788.61ZM741.127 792.737L741.821 795.653L742.17 793.923L741.999 793.656C741.922 793.496 741.906 793.354 741.948 793.233C742.04 792.971 742.233 793.021 742.411 793.021C742.598 793.021 742.829 792.971 742.888 793.304C742.908 793.417 742.882 793.532 742.827 793.656L742.657 793.923L743.005 795.653L743.633 792.737C744.087 793.32 745.253 793.438 745.752 793.834C745.888 793.942 746.011 794.076 746.115 794.246C746.117 794.228 746.121 794.207 746.128 794.191C746.183 794.036 746.297 794.065 746.404 794.065C746.516 794.065 746.653 794.036 746.688 794.236C746.699 794.301 746.684 794.372 746.653 794.446L746.552 794.606L746.76 795.634L746.494 795.936L746.582 797.587C746.556 797.972 746.404 798.193 746.103 798.227H738.66C738.359 798.193 738.207 797.972 738.181 797.587L738.286 795.642C738.315 795.099 738.421 794.669 738.596 794.341C738.71 794.126 738.853 793.965 739.011 793.839C739.508 793.438 740.674 793.32 741.127 792.737ZM744.241 788.329C744.335 788.368 744.404 788.444 744.447 788.565C744.513 788.757 744.487 789.037 744.364 789.439C744.362 789.447 744.358 789.455 744.357 789.462L743.914 790.502C743.743 790.906 743.569 791.307 743.336 791.619C743.092 791.945 742.792 792.163 742.383 792.16C741.999 792.16 741.711 791.95 741.474 791.64C741.247 791.344 741.076 790.963 740.911 790.591L740.523 789.709C740.378 789.402 740.305 789.119 740.299 788.885C740.298 788.772 740.31 788.67 740.34 788.581C740.371 788.486 740.419 788.405 740.483 788.345C740.514 788.313 740.551 788.289 740.589 788.268C740.566 787.796 740.558 787.214 740.573 786.723C740.582 786.602 740.597 786.484 740.621 786.363C740.72 785.857 740.968 785.45 741.276 785.172C741.384 785.072 741.504 784.991 741.629 784.928C742.372 784.542 743.36 784.752 743.888 785.571C744.103 785.904 744.239 786.345 744.269 786.928L744.241 788.329ZM745.587 793.141L746.213 793.118C745.882 791.661 745.992 790.323 746.789 789.184C746.925 789.809 747.228 790.326 747.744 790.706C747.99 790.969 748.228 791.284 748.46 791.648C748.5 791.407 748.344 791.116 748.155 790.814C748.329 790.937 748.491 791.11 748.605 791.444C748.737 791.829 748.735 792.155 748.691 792.575C748.671 792.769 748.638 792.953 748.59 793.118H749.062C749.559 791.596 749.244 789.336 748.227 788.379C747.914 788.085 747.691 788.095 747.323 788.095C746.905 788.095 746.69 788.114 746.33 788.455C745.801 788.956 745.475 789.822 745.339 791.024C745.311 791.625 745.293 792.661 745.587 793.141ZM749.115 783.206H752.034C752.058 783.206 752.078 783.227 752.078 783.254V784.487C752.078 784.513 752.058 784.534 752.034 784.534H749.115C749.091 784.534 749.071 784.513 749.071 784.487V783.254C749.071 783.227 749.091 783.206 749.115 783.206ZM749.115 780.509H752.034C752.058 780.509 752.078 780.53 752.078 780.556V781.789C752.078 781.816 752.058 781.837 752.034 781.837H749.115C749.091 781.837 749.071 781.816 749.071 781.789V780.556C749.071 780.53 749.091 780.509 749.115 780.509ZM733.063 783.206H735.982C736.005 783.206 736.026 783.227 736.026 783.254V784.487C736.026 784.513 736.005 784.534 735.982 784.534H733.063C733.039 784.534 733.018 784.513 733.018 784.487V783.254C733.018 783.227 733.039 783.206 733.063 783.206ZM733.063 780.509H735.982C736.005 780.509 736.026 780.53 736.026 780.556V781.789C736.026 781.816 736.005 781.837 735.982 781.837H733.063C733.039 781.837 733.018 781.816 733.018 781.789V780.556C733.018 780.53 733.039 780.509 733.063 780.509ZM744.437 780.795H745.996C746.02 780.795 746.04 780.824 746.04 780.858V783.086C746.04 783.12 746.02 783.149 745.996 783.149H744.437C744.414 783.149 744.393 783.12 744.393 783.086V780.858C744.393 780.824 744.414 780.795 744.437 780.795ZM741.759 780.795H743.318C743.341 780.795 743.362 780.824 743.362 780.858V783.086C743.362 783.12 743.341 783.149 743.318 783.149H741.759C741.735 783.149 741.715 783.12 741.715 783.086V780.858C741.715 780.824 741.735 780.795 741.759 780.795ZM739.08 780.795H740.639C740.663 780.795 740.683 780.824 740.683 780.858V783.086C740.683 783.12 740.663 783.149 740.639 783.149H739.08C739.057 783.149 739.036 783.12 739.036 783.086V780.858C739.036 780.824 739.057 780.795 739.08 780.795ZM744.437 776.473H745.996C746.02 776.473 746.04 776.502 746.04 776.536V778.764C746.04 778.798 746.02 778.827 745.996 778.827H744.437C744.414 778.827 744.393 778.798 744.393 778.764V776.536C744.393 776.499 744.414 776.473 744.437 776.473ZM741.759 776.473H743.318C743.341 776.473 743.362 776.502 743.362 776.536V778.764C743.362 778.798 743.341 778.827 743.318 778.827H741.759C741.735 778.827 741.715 778.798 741.715 778.764V776.536C741.715 776.499 741.735 776.473 741.759 776.473ZM739.08 776.473H740.639C740.663 776.473 740.683 776.502 740.683 776.536V778.764C740.683 778.798 740.663 778.827 740.639 778.827H739.08C739.057 778.827 739.036 778.798 739.036 778.764V776.536C739.036 776.499 739.057 776.473 739.08 776.473Z" fill="white"/>
<text fill="black" xml:space="preserve" style="white-space: pre" font-family="Harmattan" font-size="13" font-weight="bold" letter-spacing="0em"><tspan x="707.368" y="785.918">HR</tspan></text>
<path d="M741.88 554.717C749.535 554.18 755.305 547.534 754.768 539.872C754.23 532.211 747.589 526.435 739.934 526.972C732.28 527.509 726.51 534.155 727.047 541.817C727.585 549.478 734.226 555.253 741.88 554.717Z" fill="white"/>
<path d="M741.845 554.217C749.224 553.7 754.786 547.293 754.268 539.907C753.75 532.521 747.348 526.953 739.969 527.471C732.59 527.989 727.028 534.396 727.546 541.781C728.064 549.167 734.466 554.735 741.845 554.217Z" stroke="#707070" stroke-width="1.00045"/>
<path d="M740.845 553.231C738.403 553.231 736.017 552.507 733.987 551.15C731.957 549.794 730.375 547.866 729.44 545.61C728.506 543.354 728.261 540.872 728.738 538.478C729.214 536.083 730.39 533.883 732.116 532.157C734.431 529.842 737.571 528.541 740.846 528.541C744.12 528.541 747.26 529.842 749.575 532.157C751.89 534.472 753.191 537.612 753.191 540.886C753.191 544.161 751.89 547.301 749.575 549.616C748.431 550.766 747.071 551.677 745.572 552.298C744.074 552.918 742.467 553.235 740.845 553.231ZM740.489 533.541C738.713 533.543 736.992 534.159 735.617 535.284C734.243 536.409 733.299 537.975 732.946 539.716C732.593 541.457 732.853 543.266 733.681 544.838C734.508 546.41 735.854 547.647 737.489 548.341C738.728 548.863 740.082 549.051 741.417 548.888C742.751 548.725 744.02 548.215 745.096 547.41C746.173 546.605 747.021 545.532 747.554 544.298C748.088 543.064 748.29 541.712 748.14 540.376C748.076 539.815 747.951 539.263 747.767 538.729C747.676 538.467 747.571 538.211 747.453 537.961H746.61L746.076 538.495C746.178 538.704 746.269 538.917 746.348 539.136C746.509 539.582 746.618 540.044 746.673 540.515C746.701 540.757 746.716 541 746.716 541.244C746.714 542.681 746.215 544.072 745.305 545.184C744.394 546.295 743.128 547.058 741.72 547.342C740.312 547.627 738.849 547.417 737.578 546.747C736.307 546.077 735.307 544.989 734.746 543.666C734.346 542.719 734.187 541.687 734.283 540.664C734.379 539.64 734.726 538.656 735.295 537.799C735.863 536.943 736.634 536.24 737.54 535.754C738.446 535.268 739.458 535.013 740.486 535.013C740.73 535.013 740.973 535.028 741.215 535.056C741.686 535.111 742.148 535.22 742.594 535.381C742.813 535.46 743.027 535.551 743.235 535.654L743.769 535.119V534.274C743.519 534.155 743.262 534.051 743 533.96C742.467 533.775 741.915 533.65 741.354 533.587C741.067 533.556 740.778 533.54 740.489 533.541ZM740.489 536.622C739.575 536.622 738.681 536.893 737.921 537.401C737.161 537.909 736.568 538.631 736.219 539.476C735.869 540.321 735.777 541.25 735.956 542.147C736.135 543.043 736.575 543.867 737.222 544.513C737.869 545.159 738.692 545.599 739.589 545.777C740.486 545.955 741.415 545.863 742.26 545.513C743.104 545.163 743.826 544.57 744.334 543.81C744.841 543.049 745.112 542.155 745.111 541.241C745.111 541.108 745.105 540.975 745.094 540.841C745.083 540.707 745.066 540.581 745.044 540.454C745.022 540.327 744.998 540.215 744.963 540.079C744.928 539.943 744.893 539.833 744.852 539.715L743.622 540.944C743.622 540.967 743.622 540.989 743.628 541.012C743.634 541.035 743.628 541.04 743.628 541.052C743.628 541.064 743.628 541.077 743.628 541.089V541.132V541.162C743.628 541.174 743.628 541.187 743.628 541.199V541.241C743.628 541.76 743.499 542.271 743.253 542.729C743.007 543.187 742.652 543.576 742.219 543.863C741.786 544.15 741.289 544.326 740.772 544.374C740.255 544.423 739.734 544.343 739.255 544.141C738.5 543.82 737.899 543.219 737.578 542.464C737.376 541.985 737.296 541.464 737.345 540.947C737.393 540.43 737.569 539.933 737.856 539.5C738.143 539.067 738.532 538.712 738.99 538.466C739.447 538.22 739.959 538.091 740.478 538.091H740.625H740.661H740.698L740.77 538.097L741.999 536.867C741.886 536.827 741.763 536.789 741.635 536.756C741.507 536.723 741.376 536.695 741.259 536.675C741.142 536.655 741.003 536.636 740.873 536.625C740.743 536.614 740.621 536.62 740.489 536.62V536.622ZM740.489 539.703C740.283 539.702 740.079 539.743 739.889 539.824C739.656 539.922 739.451 540.076 739.292 540.272C739.132 540.468 739.023 540.7 738.975 540.948C738.926 541.196 738.94 541.452 739.014 541.694C739.087 541.936 739.219 542.156 739.398 542.334C739.577 542.513 739.797 542.645 740.039 542.718C740.28 542.792 740.537 542.805 740.785 542.756C741.032 542.707 741.265 542.598 741.461 542.439C741.656 542.279 741.81 542.074 741.908 541.841C741.988 541.651 742.03 541.447 742.029 541.241C742.029 541.196 742.029 541.151 742.023 541.109C742.017 541.067 742.014 541.024 742.006 540.98C741.998 540.936 741.989 540.89 741.979 540.855C741.969 540.82 741.954 540.769 741.942 540.734L746.057 536.619H747.257L749.937 533.939H747.79V531.797L745.11 534.477V535.677L741 539.788C740.956 539.772 740.916 539.76 740.879 539.751C740.842 539.742 740.805 539.733 740.754 539.724C740.703 539.715 740.669 539.711 740.625 539.707C740.581 539.703 740.533 539.703 740.489 539.703Z" fill="#00AEEF"/>
<path d="M741.924 702.596C749.544 702.596 755.722 696.418 755.722 688.798C755.722 681.178 749.544 675 741.924 675C734.304 675 728.126 681.178 728.126 688.798C728.126 696.418 734.304 702.596 741.924 702.596Z" fill="#00AEEF"/>
<path d="M752.817 688.798C752.818 686.643 752.179 684.536 750.981 682.744C749.784 680.952 748.082 679.556 746.091 678.732C744.1 677.907 741.908 677.692 739.795 678.113C737.681 678.535 735.74 679.573 734.217 681.098C732.174 683.142 731.027 685.914 731.027 688.804C731.028 691.694 732.177 694.466 734.221 696.509C736.265 698.552 739.037 699.699 741.927 699.699C744.817 699.698 747.588 698.549 749.631 696.505C750.646 695.495 751.45 694.294 751.996 692.971C752.543 691.648 752.822 690.23 752.817 688.798ZM751.111 692.522C750.213 691.715 749.149 691.113 747.994 690.759C748.06 690.107 748.094 689.453 748.094 688.797C748.094 688.142 748.06 687.487 747.994 686.835C749.149 686.482 750.213 685.88 751.111 685.073C752.08 687.462 752.08 690.134 751.111 692.522ZM736.731 688.798C736.731 688.228 736.757 687.665 736.807 687.114C738.323 687.471 739.874 687.657 741.431 687.668V689.929C739.874 689.94 738.323 690.126 736.807 690.483C736.76 689.931 736.731 689.368 736.731 688.798ZM741.431 698.667C740.744 698.466 740.11 698.115 739.574 697.64C739.039 697.165 738.614 696.578 738.331 695.92L738.285 695.834C739.206 695.154 740.292 694.733 741.431 694.616V698.667ZM742.41 694.617C743.548 694.735 744.633 695.155 745.552 695.834L745.506 695.921C745.223 696.579 744.799 697.166 744.263 697.641C743.727 698.116 743.093 698.467 742.406 698.668V694.618L742.41 694.617ZM742.41 678.93C743.097 679.132 743.731 679.483 744.267 679.958C744.803 680.432 745.227 681.02 745.51 681.677L745.556 681.763C744.637 682.443 743.552 682.863 742.414 682.98V678.929L742.41 678.93ZM741.431 682.979C740.295 682.861 739.211 682.441 738.292 681.762L738.338 681.676C738.621 681.019 739.046 680.431 739.581 679.957C740.117 679.482 740.751 679.131 741.438 678.929L741.431 682.979ZM742.41 683.961C743.694 683.852 744.925 683.404 745.978 682.661C746.434 683.773 746.749 684.937 746.917 686.127C745.443 686.492 743.93 686.68 742.411 686.689V683.961H742.41ZM746.331 681.141C745.987 680.507 745.563 679.921 745.068 679.396C745.786 679.637 746.473 679.96 747.117 680.358C746.869 680.633 746.607 680.894 746.331 681.141ZM737.514 681.141C737.24 680.894 736.978 680.633 736.731 680.358C737.375 679.961 738.062 679.638 738.779 679.397C738.284 679.922 737.859 680.508 737.515 681.141H737.514ZM741.431 683.961V686.688C739.914 686.679 738.404 686.49 736.931 686.126C737.099 684.936 737.414 683.772 737.87 682.66C738.921 683.402 740.15 683.851 741.431 683.961ZM741.431 690.905V693.631C740.148 693.74 738.916 694.189 737.863 694.931C737.41 693.821 737.097 692.658 736.931 691.47C738.404 691.105 739.914 690.916 741.431 690.905ZM737.515 696.454C737.859 697.088 738.283 697.675 738.777 698.2C738.061 697.959 737.374 697.636 736.731 697.238C736.979 696.963 737.24 696.702 737.515 696.454ZM746.332 696.454C746.608 696.702 746.871 696.963 747.119 697.238C746.475 697.636 745.788 697.959 745.07 698.2C745.564 697.675 745.989 697.088 746.332 696.454ZM742.413 693.634V690.905C743.932 690.914 745.445 691.103 746.919 691.467C746.751 692.657 746.436 693.821 745.98 694.933C744.927 694.192 743.696 693.743 742.413 693.634ZM742.413 689.928V687.668C743.97 687.657 745.521 687.471 747.037 687.114C747.087 687.665 747.113 688.228 747.113 688.798C747.113 689.368 747.087 689.931 747.037 690.482C745.521 690.125 743.97 689.939 742.413 689.928ZM750.668 684.128L750.658 684.137C749.877 684.919 748.919 685.502 747.865 685.837C747.671 684.533 747.307 683.26 746.783 682.049C747.192 681.7 747.576 681.321 747.931 680.917C749.062 681.781 749.995 682.877 750.668 684.131V684.128ZM735.917 680.917C736.273 681.321 736.656 681.699 737.065 682.048C736.541 683.259 736.177 684.532 735.982 685.836C734.929 685.501 733.971 684.918 733.189 684.136L733.179 684.127C733.853 682.874 734.786 681.78 735.917 680.917ZM732.737 685.073C733.636 685.881 734.699 686.482 735.854 686.836C735.723 688.141 735.723 689.456 735.854 690.76C734.699 691.114 733.636 691.715 732.737 692.522C731.768 690.134 731.768 687.462 732.737 685.073ZM733.179 693.464L733.189 693.454C733.971 692.673 734.929 692.09 735.982 691.754C736.177 693.059 736.541 694.332 737.064 695.542C736.655 695.892 736.272 696.27 735.916 696.673C734.786 695.811 733.853 694.717 733.179 693.465V693.464ZM747.931 696.678C747.575 696.275 747.191 695.897 746.782 695.547C747.306 694.337 747.67 693.064 747.864 691.759C748.918 692.095 749.876 692.677 750.657 693.459L750.667 693.469C749.994 694.722 749.061 695.816 747.931 696.678Z" fill="white"/>
<path d="M741.295 715.442C742.338 715.442 743.183 714.597 743.183 713.554C743.183 712.511 742.338 711.666 741.295 711.666C740.253 711.666 739.407 712.511 739.407 713.554C739.407 714.597 740.253 715.442 741.295 715.442Z" fill="#231F20"/>
<path d="M741.616 731.642C742.658 731.642 743.504 730.797 743.504 729.754C743.504 728.711 742.658 727.866 741.616 727.866C740.573 727.866 739.728 728.711 739.728 729.754C739.728 730.797 740.573 731.642 741.616 731.642Z" fill="#231F20"/>
<path d="M741.295 744.776C742.338 744.776 743.183 743.931 743.183 742.888C743.183 741.845 742.338 741 741.295 741C740.253 741 739.407 741.845 739.407 742.888C739.407 743.931 740.253 744.776 741.295 744.776Z" fill="#231F20"/>
<path d="M729.812 734.096C732.574 734.096 734.812 731.857 734.812 729.096C734.812 726.334 732.574 724.096 729.812 724.096C727.051 724.096 724.812 726.334 724.812 729.096C724.812 731.857 727.051 734.096 729.812 734.096Z" fill="#00AEEF"/>
<path d="M729.492 748C732.254 748 734.492 745.761 734.492 743C734.492 740.239 732.254 738 729.492 738C726.731 738 724.492 740.239 724.492 743C724.492 745.761 726.731 748 729.492 748Z" fill="#00AEEF"/>
<path fill-rule="evenodd" clip-rule="evenodd" d="M728.214 726.096C728.42 726.094 728.625 726.118 728.824 726.168C728.997 726.209 729.159 726.289 729.297 726.401C729.433 726.517 729.538 726.664 729.603 726.831C729.68 727.043 729.717 727.268 729.71 727.494C729.719 727.741 729.664 727.986 729.549 728.206C729.435 728.402 729.271 728.563 729.072 728.673C729.345 728.761 729.575 728.949 729.716 729.199C729.865 729.478 729.937 729.79 729.927 730.106C729.933 730.36 729.887 730.612 729.791 730.847C729.708 731.043 729.582 731.218 729.421 731.358C729.266 731.49 729.085 731.59 728.889 731.65C728.692 731.714 728.485 731.748 728.277 731.75H726.007V726.101H728.214V726.096ZM730.973 726.552H732.873V727.11H730.973V726.552ZM731.395 730.763C731.47 730.846 731.563 730.912 731.667 730.955C731.771 730.998 731.883 731.016 731.995 731.01C732.173 731.014 732.346 730.952 732.481 730.838C732.6 730.746 732.687 730.62 732.729 730.476H733.549C733.469 730.883 733.259 731.254 732.949 731.531C732.669 731.747 732.322 731.859 731.968 731.85C731.719 731.853 731.472 731.8 731.246 731.695C731.033 731.592 730.846 731.442 730.699 731.255C730.544 731.05 730.427 730.819 730.354 730.573C730.271 730.29 730.23 729.996 730.232 729.701C730.23 729.411 730.272 729.122 730.357 728.845C730.432 728.596 730.552 728.364 730.712 728.16C730.862 727.971 731.049 727.815 731.262 727.704C731.481 727.591 731.724 727.534 731.97 727.537C732.235 727.53 732.497 727.599 732.723 727.737C732.94 727.874 733.121 728.059 733.252 728.279C733.396 728.518 733.498 728.781 733.552 729.055C733.614 729.354 733.635 729.661 733.617 729.966H731.164C731.152 730.248 731.233 730.526 731.394 730.757L731.395 730.763ZM732.464 728.615C732.401 728.538 732.32 728.478 732.229 728.438C732.137 728.398 732.038 728.381 731.938 728.387C731.809 728.382 731.681 728.413 731.568 728.478C731.475 728.536 731.394 728.613 731.332 728.704C731.274 728.792 731.232 728.889 731.208 728.992C731.186 729.08 731.172 729.17 731.165 729.261H732.679C732.671 729.029 732.596 728.806 732.464 728.615ZM728.08 728.379C728.246 728.385 728.408 728.329 728.533 728.221C728.598 728.153 728.647 728.072 728.677 727.983C728.707 727.895 728.718 727.801 728.708 727.708C728.712 727.597 728.692 727.486 728.65 727.383C728.616 727.303 728.561 727.234 728.491 727.183C728.424 727.133 728.346 727.099 728.264 727.083C728.178 727.064 728.089 727.054 728 727.055H727.036V728.375H728.08V728.379ZM728.136 730.779C728.234 730.78 728.33 730.768 728.424 730.743C728.513 730.721 728.595 730.68 728.666 730.623C728.74 730.563 728.798 730.485 728.834 730.397C728.879 730.28 728.9 730.156 728.895 730.031C728.906 729.919 728.895 729.805 728.86 729.698C728.826 729.591 728.77 729.492 728.695 729.407C728.546 729.278 728.354 729.212 728.157 729.222H727.036V730.779H728.136Z" fill="white"/>
<path d="M729.492 718.854C732.254 718.854 734.492 716.615 734.492 713.854C734.492 711.092 732.254 708.854 729.492 708.854C726.731 708.854 724.492 711.092 724.492 713.854C724.492 716.615 726.731 718.854 729.492 718.854Z" fill="#00AEEF"/>
<path d="M729.456 709.994C728.432 710.029 727.464 710.468 726.764 711.215C726.063 711.962 725.688 712.956 725.719 713.98C725.705 714.797 725.942 715.598 726.4 716.274C726.857 716.951 727.512 717.47 728.275 717.761C728.296 717.766 728.317 717.768 728.338 717.768C728.364 717.769 728.39 717.765 728.415 717.755C728.439 717.745 728.461 717.73 728.479 717.711C728.497 717.693 728.511 717.67 728.52 717.645C728.529 717.621 728.532 717.594 728.53 717.568C728.53 717.468 728.53 717.223 728.525 716.889C728.402 716.919 728.275 716.935 728.148 716.936C727.958 716.949 727.768 716.899 727.609 716.794C727.449 716.689 727.329 716.535 727.265 716.355C727.2 716.118 727.053 715.912 726.85 715.772C726.525 715.534 726.85 715.527 726.873 715.527C726.993 715.548 727.107 715.596 727.207 715.668C727.306 715.74 727.387 715.833 727.445 715.94C727.502 716.069 727.594 716.178 727.711 716.255C727.829 716.333 727.966 716.375 728.106 716.376C728.254 716.374 728.4 716.34 728.533 716.276C728.549 716.077 728.632 715.888 728.77 715.743C728.523 715.743 728.279 715.69 728.054 715.588C727.83 715.485 727.63 715.335 727.468 715.148C727.307 714.961 727.188 714.741 727.119 714.504C727.05 714.267 727.034 714.017 727.07 713.773C727.063 713.382 727.2 713.002 727.454 712.704C727.34 712.359 727.353 711.985 727.491 711.649C727.518 711.642 727.546 711.639 727.574 711.64C727.924 711.681 728.253 711.826 728.518 712.058C729.129 711.88 729.779 711.88 730.39 712.058C730.655 711.826 730.984 711.681 731.334 711.64C731.362 711.639 731.39 711.642 731.417 711.649C731.555 711.985 731.568 712.359 731.454 712.704C731.709 713.002 731.845 713.382 731.838 713.773C731.875 714.018 731.858 714.268 731.789 714.505C731.719 714.743 731.6 714.962 731.437 715.149C731.275 715.336 731.074 715.486 730.849 715.587C730.623 715.689 730.379 715.741 730.131 715.739C730.221 715.838 730.29 715.955 730.334 716.082C730.378 716.209 730.395 716.343 730.385 716.477C730.385 717.01 730.38 717.44 730.38 717.57C730.378 717.596 730.381 717.622 730.39 717.647C730.398 717.672 730.412 717.694 730.43 717.713C730.448 717.732 730.47 717.747 730.494 717.757C730.518 717.766 730.544 717.771 730.57 717.77C730.593 717.77 730.615 717.768 730.637 717.763C731.4 717.472 732.055 716.953 732.513 716.277C732.97 715.6 733.208 714.799 733.193 713.982C733.225 712.958 732.85 711.963 732.149 711.215C731.449 710.468 730.48 710.029 729.456 709.994Z" fill="white"/>
<text fill="black" xml:space="preserve" style="white-space: pre" font-family="Harmattan" font-size="13" font-weight="bold" letter-spacing="0em"><tspan x="685.492" y="691.816">&#x627;&#x644;&#x645;&#x648;&#x627;&#x642;&#x639;</tspan></text>
<text fill="black" xml:space="preserve" style="white-space: pre" font-family="Harmattan" font-size="20" font-weight="bold" letter-spacing="0em"><tspan x="527.492" y="545.116">&#x627;&#x644;&#x631;&#x624;&#x64a;&#x629; &#x648;&#x627;&#x644;&#x62e;&#x637;&#x648;&#x629; &#x627;&#x644;&#x642;&#x627;&#x62f;&#x645;&#x629;</tspan></text>
<text fill="#00FF09" stroke="#FF0000" stroke-width="0.5" xml:space="preserve" style="white-space: pre" font-family="Harmattan" font-size="7" letter-spacing="0.09em"><tspan x="448.939" y="569.441">&#x623;&#x633;&#x639;&#x649; &#x625;&#x644;&#x649; &#x625;&#x62a;&#x642;&#x627;&#x646; &#x645;&#x647;&#x627;&#x631;&#x627;&#x62a; &#x627;&#x644;&#x62d;&#x627;&#x633;&#x648;&#x628; &#x648;&#x627;&#x644;&#x62a;&#x643;&#x646;&#x648;&#x644;&#x648;&#x62c;&#x64a;&#x627; &#x627;&#x644;&#x62d;&#x62f;&#x64a;&#x62b;&#x629; &#x645;&#x646; &#x62e;&#x644;&#x627;&#x644; &#x627;&#x644;&#x62a;&#x639;&#x644;&#x645; &#x627;&#x644;&#x645;&#x633;&#x62a;&#x645;&#x631; &#x648;&#x627;&#x644;&#x627;&#x633;&#x62a;&#x643;&#x634;&#x627;&#x641; &#x627;&#x644;&#x639;&#x645;&#x64a;&#x642; &#x644;&#x643;&#x644; &#x645;&#x627; &#x647;&#x648; </tspan><tspan x="459.832" y="583.441">&#x62c;&#x62f;&#x64a;&#x62f; &#x641;&#x64a; &#x647;&#x630;&#x627; &#x627;&#x644;&#x645;&#x62c;&#x627;&#x644;. &#x634;&#x63a;&#x641;&#x64a; &#x628;&#x627;&#x644;&#x62d;&#x627;&#x633;&#x648;&#x628; &#x64a;&#x62f;&#x641;&#x639;&#x646;&#x64a; &#x62f;&#x627;&#x626;&#x645;&#x64b;&#x627; &#x625;&#x644;&#x649; &#x62a;&#x637;&#x648;&#x64a;&#x631; &#x645;&#x647;&#x627;&#x631;&#x627;&#x62a;&#x64a;&#x60c; &#x645;&#x648;&#x627;&#x643;&#x628;&#x629; &#x623;&#x62d;&#x62f;&#x62b; &#x627;&#x644;&#x62a;&#x642;&#x646;&#x64a;&#x627;&#x62a;&#x60c; &#x648;&#x62a;&#x62d;&#x644;&#x64a;&#x644; </tspan><tspan x="452.392" y="597.441">&#x627;&#x644;&#x645;&#x634;&#x643;&#x644;&#x627;&#x62a; &#x627;&#x644;&#x62a;&#x642;&#x646;&#x64a;&#x629; &#x644;&#x625;&#x64a;&#x62c;&#x627;&#x62f; &#x62d;&#x644;&#x648;&#x644; &#x645;&#x628;&#x62a;&#x643;&#x631;&#x629;. &#x623;&#x624;&#x645;&#x646; &#x628;&#x623;&#x646; &#x627;&#x644;&#x62a;&#x639;&#x644;&#x645; &#x644;&#x627; &#x64a;&#x62a;&#x648;&#x642;&#x641;&#x60c; &#x648;&#x623;&#x633;&#x639;&#x649; &#x625;&#x644;&#x649; &#x623;&#x646; &#x623;&#x643;&#x648;&#x646; &#x62f;&#x627;&#x626;&#x645; &#x627;&#x644;&#x62a;&#x637;&#x648;&#x631;&#x60c; &#x642;&#x627;&#x62f;&#x631;&#x64b;&#x627; &#x639;&#x644;&#x649; </tspan><tspan x="473.687" y="611.441">&#x627;&#x644;&#x62a;&#x643;&#x64a;&#x641; &#x645;&#x639; &#x627;&#x644;&#x62a;&#x63a;&#x64a;&#x631;&#x627;&#x62a; &#x627;&#x644;&#x633;&#x631;&#x64a;&#x639;&#x629; &#x641;&#x64a; &#x639;&#x627;&#x644;&#x645; &#x627;&#x644;&#x62a;&#x642;&#x646;&#x64a;&#x629;&#x60c; &#x648;&#x645;&#x633;&#x627;&#x647;&#x645;&#x64b;&#x627; &#x641;&#x64a; &#x625;&#x62b;&#x631;&#x627;&#x621; &#x647;&#x630;&#x627; &#x627;&#x644;&#x645;&#x62c;&#x627;&#x644; &#x628;&#x627;&#x644;&#x645;&#x639;&#x631;&#x641;&#x629; &#x648;&#x627;&#x644;&#x625;&#x628;&#x62f;&#x627;&#x639;.&#13;&#10;</tspan><tspan x="450.17" y="625.441">&#x627;&#x644;&#x62e;&#x637;&#x648;&#x629; &#x627;&#x644;&#x642;&#x627;&#x62f;&#x645;&#x629; &#x641;&#x64a; &#x645;&#x633;&#x64a;&#x631;&#x62a;&#x64a; &#x628;&#x627;&#x630;&#x646; &#x627;&#x644;&#x644;&#x647; &#x647;&#x64a; &#x627;&#x633;&#x62a;&#x643;&#x645;&#x627;&#x644; &#x62f;&#x631;&#x627;&#x633;&#x627;&#x62a;&#x64a; &#x627;&#x644;&#x639;&#x644;&#x64a;&#x627; &#x628;&#x627;&#x644;&#x62d;&#x635;&#x648;&#x644; &#x639;&#x644;&#x649; &#x62f;&#x631;&#x62c;&#x629; &#x627;&#x644;&#x645;&#x627;&#x62c;&#x633;&#x62a;&#x64a;&#x631;&#x60c; &#x62b;&#x645; &#x627;&#x644;&#x62f;&#x643;&#x62a;&#x648;&#x631;&#x627;&#x647;&#x60c; &#x645;&#x645;&#x627; </tspan><tspan x="456.787" y="639.441">&#x633;&#x64a;&#x645;&#x643;&#x646;&#x646;&#x64a; &#x645;&#x646; &#x627;&#x644;&#x62a;&#x639;&#x645;&#x642; &#x641;&#x64a; &#x627;&#x644;&#x628;&#x62d;&#x62b; &#x627;&#x644;&#x639;&#x644;&#x645;&#x64a;&#x60c; &#x62a;&#x642;&#x62f;&#x64a;&#x645; &#x62d;&#x644;&#x648;&#x644; &#x62a;&#x642;&#x646;&#x64a;&#x629; &#x645;&#x628;&#x62a;&#x643;&#x631;&#x629;&#x60c; &#x648;&#x627;&#x644;&#x645;&#x633;&#x627;&#x647;&#x645;&#x629; &#x641;&#x64a; &#x62a;&#x64d;&#x637;&#x648;&#x64a;&#x631; &#x627;&#x644;&#x645;&#x62c;&#x627;&#x644; &#x627;&#x644;&#x623;&#x643;&#x627;&#x62f;&#x64a;&#x645;&#x64a; </tspan><tspan x="593.415" y="653.441">&#x648;&#x627;&#x644;&#x645;&#x647;&#x646;&#x64a;</tspan></text>
<text fill="#FF0040" xml:space="preserve" style="white-space: pre" font-family="Harmattan" font-size="7" font-weight="500" letter-spacing="0em"><tspan x="594" y="714.441">https://github.com/mostafa0said0abdelwahab</tspan></text>
<text fill="#FF0040" xml:space="preserve" style="white-space: pre" font-family="Harmattan" font-size="7" font-weight="500" letter-spacing="0em"><tspan x="590" y="744.441">https://mostafa0said0abdelwahab.github.io/cv/</tspan></text>
<text fill="#FF0040" xml:space="preserve" style="white-space: pre" font-family="Harmattan" font-size="7" font-weight="500" letter-spacing="0em"><tspan x="673.492" y="731.441">mostafasaid13</tspan></text>
<path d="M519.13 119.471H451.492V124.725H519.13V119.471Z" fill="#949598"/>
<path d="M511.554 119.471H452.492V124.725H511.554V119.471Z" fill="#00AEEF"/>
<path d="M509.643 118C510.633 118 511.582 118.393 512.281 119.093C512.981 119.792 513.374 120.741 513.374 121.731V122.466C513.375 122.956 513.278 123.442 513.091 123.895C512.904 124.348 512.629 124.759 512.282 125.106C511.936 125.453 511.525 125.728 511.072 125.916C510.619 126.103 510.133 126.2 509.643 126.2C509.251 126.2 508.863 126.123 508.5 125.972C508.138 125.822 507.809 125.602 507.531 125.325C507.254 125.047 507.034 124.718 506.885 124.355C506.735 123.993 506.658 123.604 506.658 123.212V120.985C506.658 120.193 506.973 119.434 507.532 118.874C508.092 118.314 508.852 118 509.643 118Z" fill="black"/>
<path d="M519.13 310.471H451.492V315.725H519.13V310.471Z" fill="#949598"/>
<path d="M511.554 310.471H452.492V315.725H511.554V310.471Z" fill="#00AEEF"/>
<path d="M509.643 309C510.633 309 511.582 309.393 512.281 310.093C512.981 310.792 513.374 311.741 513.374 312.731V313.466C513.375 313.956 513.278 314.442 513.091 314.895C512.904 315.348 512.629 315.759 512.282 316.106C511.936 316.453 511.525 316.728 511.072 316.916C510.619 317.103 510.133 317.2 509.643 317.2C509.251 317.2 508.863 317.123 508.5 316.972C508.138 316.822 507.809 316.602 507.531 316.325C507.254 316.047 507.034 315.718 506.885 315.355C506.735 314.993 506.658 314.604 506.658 314.212V311.985C506.658 311.193 506.973 310.434 507.532 309.874C508.092 309.314 508.852 309 509.643 309Z" fill="black"/>
<text fill="black" xml:space="preserve" style="white-space: pre" font-family="Harmattan" font-size="9" font-weight="bold" letter-spacing="0em"><tspan x="562" y="140.352">SECOND EDITION OP NOTCH </tspan></text>
<text fill="black" xml:space="preserve" style="white-space: pre" font-family="Harmattan" font-size="9" font-weight="bold" letter-spacing="0em"><tspan x="571" y="338.352">flutter and dart cookbook</tspan></text>
<path d="M685.521 20.7871H519.492V48.3771H685.521V20.7871Z" fill="#00AEEF"/>
<text fill="white" xml:space="preserve" style="white-space: pre" font-family="Harmattan" font-size="20" font-weight="bold" letter-spacing="0em"><tspan x="579.492" y="38.1162">&#x627;&#x644;&#x647;&#x648;&#x627;&#x64a;&#x627;&#x62a;</tspan></text>
<text fill="white" xml:space="preserve" style="white-space: pre" font-family="Bahij TheSansArabic" font-size="7" font-weight="500" letter-spacing="0em"><tspan x="726.492" y="744.525">cv</tspan></text>
<text fill="#004F6D" xml:space="preserve" style="white-space: pre" font-family="Harmattan" font-size="11" font-weight="bold" letter-spacing="0em"><tspan x="501.268" y="73.7639">&#x62a;&#x631;&#x62c;&#x645;&#x629; &#x627;&#x644;&#x643;&#x62a;&#x628; &#x628;&#x627;&#x633;&#x62a;&#x62e;&#x62f;&#x627;&#x645; &#x627;&#x644;&#x630;&#x643;&#x627;&#x621; &#x627;&#x644;&#x627;&#x635;&#x637;&#x646;&#x627;&#x639;&#x64a; &#x648;&#x62e;&#x62f;&#x645;&#x627;&#x62a; &#x62c;&#x648;&#x62c;&#x644; </tspan><tspan x="514.808" y="92.7639">&#x627;&#x644;&#x645;&#x62a;&#x631;&#x62c;&#x645;&#x629;. &#x648;&#x62e;&#x627;&#x635;&#x62a;&#x627; &#x627;&#x644;&#x643;&#x62a;&#x628; &#x627;&#x644;&#x62a;&#x639;&#x644;&#x64a;&#x645;&#x64a;&#x629; &#x627;&#x644;&#x645;&#x645;&#x633;&#x648;&#x62d;&#x629; &#x641;&#x648;&#x644;&#x64a;&#x627; </tspan></text>
<text fill="#FF0000" xml:space="preserve" style="white-space: pre" font-family="Harmattan" font-size="11" font-weight="bold" letter-spacing="0em"><tspan x="554.576" y="110.764">&#x62a;&#x645; &#x62a;&#x631;&#x62c;&#x645;&#x629; &#x628;&#x639;&#x636; &#x627;&#x644;&#x643;&#x62a;&#x628; &#x628;&#x627;&#x644;&#x641;&#x639;&#x644; </tspan></text>
<text fill="#FF0000" xml:space="preserve" style="white-space: pre" font-family="Harmattan" font-size="11" font-weight="bold" letter-spacing="0em"><tspan x="584.466" y="129.764">&#x645;&#x62b;&#x644; &#x643;&#x62a;&#x627;&#x628;  &#x2193;</tspan></text>
<text fill="#0004FF" xml:space="preserve" style="white-space: pre" font-family="Harmattan" font-size="9" letter-spacing="0em"><tspan x="571.338" y="157.352">&#x648;&#x647;&#x648;&#x644;&#x62a;&#x639;&#x644;&#x64a;&#x645; &#x627;&#x644;&#x644;&#x63a;&#x629; &#x627;&#x644;&#x625;&#x646;&#x62c;&#x644;&#x64a;&#x632;&#x64a;&#x629; &#x2028;</tspan><tspan x="528.922" y="172.352">&#x647;&#x630;&#x627; &#x627;&#x644;&#x643;&#x62a;&#x627;&#x628; &#x643;&#x627;&#x646; &#x630;&#x627; &#x62c;&#x648;&#x62f;&#x629; &#x631;&#x62f;&#x64a;&#x646;&#x629; 20 &#x648;&#x647;&#x648; en &#x648;&#x644;&#x64a;&#x633; &#x639;&#x631;&#x628;&#x64a; &#x2028;</tspan><tspan x="585.26" y="187.352">&#x627;&#x644;&#x645;&#x637;&#x644;&#x648;&#x628; &#x643;&#x627;&#x646; &#x2028;</tspan><tspan x="478.851" y="202.352">&#x62a;&#x631;&#x62c;&#x645;&#x62a;&#x647; &#x627;&#x644;&#x639;&#x631;&#x628;&#x64a;&#x629; &#x644;&#x643;&#x646;&#x629; &#x643;&#x62a;&#x627;&#x628; &#x62a;&#x639;&#x644;&#x64a;&#x645;&#x64a; &#x627;&#x644;&#x627;&#x646;&#x62c;&#x644;&#x64a;&#x632;&#x64a;&#x629; &#x641;&#x627;&#x644;&#x635;&#x641;&#x62d;&#x627;&#x62a; &#x627;&#x644;&#x623;&#x635;&#x644;&#x64a;&#x629; &#x645;&#x647;&#x645;&#x629; &#x64a;&#x62c;&#x628; &#x639;&#x644;&#x649; &#x627;&#x644;&#x645;&#x633;&#x62a;&#x62e;&#x62f;&#x645; </tspan><tspan x="479.308" y="217.352">&#x644;&#x644;&#x643;&#x62a;&#x627;&#x628; &#x623;&#x646; &#x64a;&#x639;&#x631;&#x641; &#x645;&#x627; &#x641;&#x64a; &#x627;&#x644;&#x635;&#x641;&#x62d;&#x647; &#x627;&#x644;&#x631;&#x626;&#x64a;&#x633;&#x64a;&#x629; &#x648;&#x645;&#x62f;&#x644;&#x648;&#x644;&#x647; &#x641;&#x64a; &#x627;&#x644;&#x635;&#x641;&#x62d;&#x627;&#x62a; &#x627;&#x644;&#x623;&#x635;&#x644;&#x64a;&#x629; &#x628;&#x627;&#x644;&#x644;&#x63a;&#x629; &#x627;&#x644;&#x625;&#x646;&#x62c;&#x644;&#x64a;&#x632;&#x64a;&#x629; &#x641;&#x642;&#x62f; </tspan><tspan x="568.899" y="232.352">&#x635;&#x62d;&#x62d;&#x62a; &#x627;&#x644;&#x643;&#x62a;&#x627;&#x628; &#x645;&#x646; &#x62c;&#x62f;&#x64a;&#x62f; &#x2028;</tspan><tspan x="498.459" y="247.352">&#x639;&#x644;&#x649; &#x623;&#x646; &#x62a;&#x643;&#x648;&#x646; &#x647;&#x646;&#x627;&#x643; &#x635;&#x641;&#x62d;&#x647; &#x641;&#x64a; &#x627;&#x644;&#x64a;&#x645;&#x64a;&#x646; &#x628;&#x627;&#x644;&#x627;&#x646;&#x62c;&#x644;&#x64a;&#x632;&#x64a;&#x629; &#x648;&#x627;&#x644;&#x62a;&#x64a; &#x62a;&#x642;&#x627;&#x628;&#x644;&#x647;&#x627; &#x641;&#x64a; &#x646;&#x641;&#x633; &#x627;&#x644;&#x635;&#x641;&#x62d;&#x629; &#x2028;</tspan><tspan x="494.157" y="262.352">&#x645;&#x62a;&#x631;&#x62c;&#x645;&#x647; &#x645;&#x646;&#x641;&#x635;&#x644;&#x647; &#x639;&#x646;&#x647;&#x627; &#x627;&#x64a; &#x644;&#x627; &#x64a;&#x62a;&#x645; &#x627;&#x644;&#x62f;&#x645;&#x62c; &#x627;&#x644;&#x635;&#x641;&#x62d;&#x627;&#x62a; &#x627;&#x64a; &#x644;&#x645; &#x64a;&#x62a;&#x645; &#x627;&#x633;&#x62a;&#x62e;&#x62f;&#x627;&#x645; &#x627;&#x644;&#x637;&#x631;&#x642; &#x627;&#x644;&#x62a;&#x642;&#x644;&#x64a;&#x62f;&#x64a;&#x647; &#x2028;</tspan><tspan x="540.849" y="277.352">&#x648;&#x630;&#x644;&#x643; &#x644;&#x627;&#x645;&#x643;&#x627;&#x646;&#x64a;&#x629; &#x627;&#x644;&#x637;&#x628;&#x627;&#x639;&#x647; &#x627;&#x644;&#x635;&#x62d;&#x64a;&#x62d;&#x647; &#x628;&#x627;&#x644;&#x62a;&#x631;&#x642;&#x64a;&#x645; &#x627;&#x644;&#x635;&#x64a;&#x62d;&#x64a;&#x62d;</tspan></text>
<text fill="#0004FF" xml:space="preserve" style="white-space: pre" font-family="Harmattan" font-size="8" font-weight="bold" letter-spacing="0.05em"><tspan x="472.784" y="352.646"> &#x62a;&#x631;&#x62c;&#x645;&#x62a; &#x647;&#x630;&#x627; &#x627;&#x644;&#x643;&#x62a;&#x627;&#x628; &#x64a;&#x62f;&#x648;&#x64a;&#x627; &#x644;&#x627;&#x646; &#x62c;&#x648;&#x62c;&#x644; &#x644;&#x644;&#x62a;&#x631;&#x62c;&#x645;&#x629; &#x643;&#x627;&#x646;&#x62a; &#x62a;&#x62a;&#x631;&#x62c;&#x645; &#x627;&#x644;&#x627;&#x643;&#x648;&#x627;&#x62f; &#x627;&#x644;&#x628;&#x631;&#x645;&#x62c;&#x64a;&#x629; &#x648;&#x62a;&#x63a;&#x64a;&#x631; &#x627;&#x644;&#x648;&#x627;&#x646;&#x647;&#x627; </tspan><tspan x="474.78" y="366.646">&#x648;&#x647;&#x648; &#x634;&#x626; &#x63a;&#x64a;&#x631; &#x645;&#x637;&#x644;&#x648;&#x628; &#x641;&#x642;&#x645;&#x62a; &#x628;&#x62a;&#x641;&#x643;&#x64a;&#x643; &#x627;&#x644;&#x645;&#x644;&#x641; &#x648;&#x62a;&#x631;&#x62c;&#x645;&#x62a;&#x647; &#x64a;&#x62f;&#x648;&#x64a;&#x627; &#x628;&#x627;&#x633;&#x62a;&#x62e;&#x62f;&#x627;&#x645; &#x623;&#x62f;&#x627;&#x629; ai &#x645;&#x62f;&#x645;&#x62c;&#x647; &#x641;&#x64a; </tspan><tspan x="573.316" y="380.646">&#x627;&#x62d;&#x62f;&#x64a; &#x627;&#x644;&#x628;&#x631;&#x627;&#x645;&#x62c; &#x644;&#x644;&#x62a;&#x631;&#x62c;&#x645;&#x629; &#x2028;</tspan><tspan x="493.039" y="394.646">&#x627;&#x644;&#x627;&#x646; &#x642;&#x62f; &#x62d;&#x644;&#x62a; &#x627;&#x644;&#x645;&#x634;&#x643;&#x644;&#x629; &#x627;&#x644;&#x62e;&#x627;&#x635;&#x647; &#x628;&#x627;&#x644;&#x62a;&#x631;&#x62c;&#x645;&#x647; &#x628;&#x627;&#x642;&#x64a; &#x645;&#x634;&#x643;&#x644;&#x629; &#x639;&#x62f;&#x62f; &#x627;&#x644;&#x635;&#x641;&#x62d;&#x627;&#x62a; &#x627;&#x644;&#x643;&#x62b;&#x64a;&#x631;&#x629; &#x2028;</tspan><tspan x="483.362" y="408.646">&#x627;&#x633;&#x62a;&#x62e;&#x62f;&#x645;&#x62a; &#x627;&#x633;&#x643;&#x631;&#x628;&#x62a;&#x627;&#x62a; &#x628;&#x631;&#x645;&#x62c;&#x64a;&#x629; &#x645;&#x646; &#x628;&#x627;&#x62d;&#x62f;&#x64a; &#x627;&#x644;&#x628;&#x631;&#x627;&#x645;&#x62c; &#x648;&#x628;&#x639;&#x636; &#x627;&#x644;&#x623;&#x62f;&#x648;&#x627;&#x62a; &#x627;&#x644;&#x623;&#x62e;&#x631;&#x649; &#x645;&#x62b;&#x644; &#x627;&#x62f;&#x648;&#x628;&#x64a; </tspan><tspan x="479.596" y="422.646">&#x627;&#x643;&#x631;&#x648;&#x628;&#x627;&#x62a; &#x648; pdf x &#x648; 7 pdf &#x648;&#x63a;&#x64a;&#x631;&#x647;&#x627; &#x62d;&#x62a;&#x64a; &#x644;&#x637;&#x628;&#x627;&#x639;&#x647; &#x628;&#x648;&#x643;&#x644;&#x62a; &#x645;&#x635;&#x63a;&#x631; &#x62c;&#x62f;&#x627; 8 &#x635;&#x641;&#x62d;&#x627;&#x62a; &#x644;&#x644;&#x635;&#x641;&#x62d;&#x629; </tspan><tspan x="579.55" y="436.646">&#x627;&#x644;&#x648;&#x627;&#x62d;&#x62f;&#x629; &#x628;&#x627;&#x644;&#x648;&#x62c;&#x647;&#x64a;&#x646; &#x2028;</tspan><tspan x="472.676" y="450.646"> &#x627;&#x630; &#x62a;&#x645; &#x637;&#x628;&#x627;&#x639;&#x629; &#x627;&#x644;&#x643;&#x62a;&#x627;&#x628; &#x641;&#x64a; 25 &#x648;&#x631;&#x642;&#x647; &#x645;&#x637;&#x628;&#x648;&#x639;&#x647; &#x628;&#x646;&#x638;&#x627;&#x645; &#x627;&#x644;&#x62f;&#x648;&#x628;&#x644;&#x643;&#x633; ( &#x639;&#x644;&#x64a; &#x643;&#x644;&#x627; &#x645;&#x646; &#x627;&#x644;&#x62c;&#x627;&#x646;&#x628;&#x64a;&#x646; ) &#x648;&#x62a;&#x645; </tspan><tspan x="476.113" y="464.646">&#x62a;&#x642;&#x637;&#x64a;&#x639;&#x629; &#x648;&#x62a;&#x62c;&#x645;&#x64a;&#x639;&#x647; &#x648;&#x627;&#x639;&#x637;&#x64a;&#x637;&#x629; &#x644;&#x644;&#x645;&#x637;&#x628;&#x639;&#x647; &#x648;&#x62a;&#x645; &#x628;&#x634;&#x631;&#x629; &#x648;&#x627;&#x635;&#x628;&#x62d; &#x643;&#x62a;&#x627;&#x628;&#x627; &#x635;&#x63a;&#x64a;&#x631; &#x62c;&#x62f;&#x627; &#x644;&#x643;&#x646;&#x647; &#x627;&#x62d;&#x62a;&#x631;&#x627;&#x641;&#x64a; &#x623;&#x64a;&#x636;&#x627; </tspan><tspan x="473.003" y="478.646">&#x647;&#x630;&#x627; &#x623;&#x64a;&#x636;&#x627; &#x643;&#x627;&#x646; &#x645;&#x641;&#x64a;&#x62f; &#x641;&#x64a; &#x627;&#x644;&#x645;&#x648;&#x627;&#x635;&#x644;&#x627;&#x62a; &#x627;&#x644;&#x639;&#x627;&#x645;&#x629; &#x641;&#x64a; &#x627;&#x644;&#x642;&#x631;&#x627;&#x621;&#x629; &#x648;&#x633;&#x647;&#x644; &#x627;&#x644;&#x62d;&#x645;&#x644; &#x623;&#x64a;&#x636;&#x627; &#x648;&#x647;&#x64a; &#x637;&#x631;&#x64a;&#x642;&#x629; &#x62c;&#x64a;&#x62f;&#x629; </tspan><tspan x="556.939" y="492.646">&#x644;&#x644;&#x62a;&#x639;&#x644;&#x64a;&#x645; &#x648;&#x627;&#x644;&#x627;&#x646;&#x635;&#x631;&#x627;&#x641; &#x639;&#x646; &#x627;&#x644;&#x645;&#x634;&#x62a;&#x62a;&#x627;&#x62a; &#x2028;</tspan><tspan x="540.395" y="506.646">&#x648;&#x627;&#x644;&#x643;&#x62b;&#x64a;&#x631; &#x645;&#x646; &#x647;&#x630;&#x647; &#x627;&#x644;&#x627;&#x645;&#x62b;&#x644;&#x647; &#x639;&#x644;&#x64a; &#x645;&#x647;&#x627;&#x631;&#x627;&#x62a; &#x627;&#x644;&#x637;&#x628;&#x627;&#x639;&#x629;</tspan></text>
<text fill="#FF0000" xml:space="preserve" style="white-space: pre" font-family="Harmattan" font-size="11" font-weight="bold" letter-spacing="0em"><tspan x="557.014" y="304.764">&#x62a;&#x645; &#x62a;&#x631;&#x62c;&#x645;&#x629; &#x628;&#x639;&#x636; &#x627;&#x644;&#x643;&#x62a;&#x628; &#x628;&#x627;&#x644;&#x641;&#x639;&#x644;</tspan></text>
<text fill="#FF0000" xml:space="preserve" style="white-space: pre" font-family="Harmattan" font-size="11" font-weight="bold" letter-spacing="0em"><tspan x="584.466" y="323.764">&#x645;&#x62b;&#x644; &#x643;&#x62a;&#x627;&#x628;  &#x2193;</tspan></text>
<path d="M334.5 50.5C329.959 50.5 325.69 48.7317 322.479 45.5208C319.268 42.3099 317.5 38.0409 317.5 33.5C317.5 28.9591 319.268 24.6901 322.479 21.4792C325.69 18.2683 329.959 16.5 334.5 16.5C339.041 16.5 343.31 18.2683 346.521 21.4792C349.732 24.6901 351.5 28.9591 351.5 33.5C351.5 38.0409 349.732 42.3099 346.521 45.5208C343.31 48.7317 339.041 50.5 334.5 50.5Z" fill="#00AEEF"/>
<path d="M334.5 17C330.093 17 325.949 18.7163 322.833 21.8327C319.716 24.9492 318 29.0927 318 33.5C318 37.9073 319.716 42.0508 322.833 45.1673C325.949 48.2837 330.093 50 334.5 50C338.907 50 343.051 48.2837 346.167 45.1673C349.284 42.0508 351 37.9073 351 33.5C351 29.0927 349.284 24.9492 346.167 21.8327C343.051 18.7163 338.907 17 334.5 17ZM334.5 16C344.165 16 352 23.835 352 33.5C352 43.165 344.165 51 334.5 51C324.835 51 317 43.165 317 33.5C317 23.835 324.835 16 334.5 16Z" fill="#707070"/>
<path d="M369.042 33.0171C368.242 32.6171 366.319 34.0981 367.155 34.5171C368.489 35.1846 369.736 36.0131 370.868 36.9841C363.328 36.3991 356.458 39.5511 349.231 41.5681C344.588 42.8681 339.25 43.6091 334.94 41.2121C336.678 40.602 338.337 39.788 339.883 38.7871C341.583 37.6681 343.258 36.2261 343.688 34.1601C343.833 33.4267 343.752 32.6665 343.455 31.9803C343.159 31.2941 342.66 30.7144 342.026 30.3181C338.864 28.8411 336.654 30.0621 335.334 32.5181C334.727 31.7874 333.909 31.2632 332.991 31.0181C331.747 30.6791 329.642 30.4291 328.859 31.7941C326.783 35.4111 329.236 38.7131 332.296 40.8041C327.596 42.3671 322.236 42.2041 319.389 37.7911C319.023 37.2241 316.823 37.2551 317.008 37.5431C320.553 43.0331 327.608 43.4181 333.641 41.6301C334.292 41.9878 334.967 42.2973 335.663 42.5561C348.116 47.1391 359.5 36.4201 371.763 37.8041C371.813 37.8541 371.863 37.9041 371.914 37.9511C370.217 38.7291 368.589 39.6512 367.049 40.7071C366.76 40.9071 366.255 41.5541 366.711 41.8491C367.193 42.1601 367.869 41.7561 368.261 41.4891C369.937 40.3562 371.739 39.4204 373.629 38.7001C373.929 38.5841 375.093 37.8431 374.662 37.3601C373.083 35.567 371.175 34.0928 369.042 33.0171ZM333.38 40.1711C332.487 39.468 331.77 38.5659 331.287 37.5367C330.803 36.5075 330.567 35.3797 330.597 34.2431C330.642 33.0091 331.573 30.7221 333.144 32.4201C333.724 33.1841 334.168 34.0423 334.457 34.9571C334.633 35.3861 336.718 35.8421 336.863 35.3091C337.119 34.2916 337.476 33.3021 337.928 32.3551C338.884 30.4241 340.835 30.3981 341.259 32.5551C341.759 35.0701 339.353 36.8911 337.571 38.1551C336.33 39.0275 334.995 39.7565 333.59 40.3281C333.526 40.2771 333.454 40.2261 333.385 40.1701L333.38 40.1711Z" fill="white"/>
<path d="M349.979 42.5374C350.179 42.1004 350.36 41.6494 350.521 41.1994C351.821 40.8134 353.129 40.3944 354.394 39.9884C359.106 38.4774 363.978 36.9154 369.013 36.9154C369.637 36.9154 370.262 36.9394 370.871 36.9864C369.738 36.0164 368.492 35.188 367.159 34.5194C367.084 34.4901 367.022 34.4338 366.986 34.3615C366.95 34.2892 366.943 34.2061 366.965 34.1284C367.136 33.7994 367.387 33.5188 367.695 33.3127C368.003 33.1066 368.358 32.9816 368.727 32.9494C368.837 32.9468 368.947 32.9701 369.047 33.0174C371.182 34.0936 373.09 35.5709 374.667 37.3684C374.708 37.4123 374.737 37.4659 374.751 37.5242C374.766 37.5825 374.765 37.6435 374.749 37.7014C374.643 38.1394 373.857 38.6224 373.633 38.7084C371.743 39.4299 369.942 40.3657 368.265 41.4974C367.933 41.7584 367.536 41.9222 367.117 41.9704C366.975 41.9725 366.836 41.9333 366.717 41.8574C366.661 41.8252 366.615 41.7788 366.582 41.723C366.55 41.6672 366.533 41.6039 366.533 41.5394C366.558 41.3737 366.618 41.2151 366.707 41.0734C366.797 40.9318 366.915 40.8102 367.054 40.7164C368.594 39.6613 370.222 38.7393 371.919 37.9604C371.889 37.9304 371.859 37.9004 371.829 37.8724L371.768 37.8134C371.019 37.7297 370.267 37.688 369.514 37.6884C364.887 37.6884 360.301 39.2194 355.866 40.7004H355.853C353.932 41.3414 351.945 42.0004 349.983 42.5344L349.979 42.5374ZM317.779 38.6024C317.501 38.2685 317.244 37.9182 317.009 37.5534C317.003 37.5453 316.999 37.5357 316.998 37.5256C316.997 37.5156 316.999 37.5054 317.004 37.4964C317.042 37.4234 317.27 37.3694 317.599 37.3554C317.644 37.7684 317.705 38.1874 317.781 38.6014L317.779 38.6024Z" fill="black"/>
<path d="M339.876 767.242H365.876V800.242H339.876V767.242Z" fill="#00AEEF"/>
<path d="M348.397 785.964C348.397 786.174 348.277 786.342 348.132 786.342C347.986 786.342 347.868 786.172 347.868 785.964V776.709H342.316V795.361H343.233C343.379 795.361 343.497 795.532 343.497 795.739C343.497 795.949 343.378 796.117 343.233 796.117H342.052C341.905 796.117 341.788 795.947 341.788 795.739V776.507C341.788 776.355 341.832 776.216 341.902 776.113C341.971 776.014 342.069 775.951 342.177 775.951H347.868V768.58C347.868 768.398 347.919 768.231 348.004 768.112V768.11C348.088 767.989 348.204 767.916 348.333 767.916H357.76C357.888 767.916 358.004 767.989 358.088 768.11L358.108 768.141C358.18 768.259 358.226 768.412 358.226 768.58V775.951H363.957C364.064 775.951 364.161 776.014 364.231 776.113L364.233 776.116C364.303 776.216 364.347 776.355 364.347 776.507V795.739C364.347 795.949 364.227 796.117 364.082 796.117H362.404C362.257 796.117 362.14 795.947 362.14 795.739C362.14 795.529 362.259 795.361 362.404 795.361H363.818V776.709H358.224V785.854C358.224 786.064 358.105 786.232 357.96 786.232C357.813 786.232 357.695 786.062 357.695 785.854V768.671H348.397V785.964ZM359.623 785.901H362.542C362.566 785.901 362.586 785.922 362.586 785.946V787.179C362.586 787.206 362.566 787.227 362.542 787.227H359.623C359.599 787.227 359.579 787.206 359.579 787.179V785.946C359.579 785.922 359.599 785.901 359.623 785.901ZM343.57 785.901H346.489C346.513 785.901 346.533 785.922 346.533 785.946V787.179C346.533 787.206 346.513 787.227 346.489 787.227H343.57C343.546 787.227 343.526 787.206 343.526 787.179V785.946C343.526 785.922 343.546 785.901 343.57 785.901ZM349.583 770.138H356.511C356.627 770.138 356.722 770.275 356.722 770.44V773.67C356.722 773.836 356.627 773.972 356.511 773.972H349.583C349.467 773.972 349.372 773.836 349.372 773.67V770.44C349.37 770.275 349.465 770.138 349.583 770.138ZM359.669 795.474C359.476 794.921 359.232 794.451 358.946 794.01C359.482 794.307 360.031 794.6 360.436 794.965C361.174 795.627 361.229 796.427 361.29 797.576H357.631C357.631 797.568 357.631 797.558 357.631 797.55L357.563 796.729L357.826 797.054L359.111 795.456L359.669 795.474ZM346.576 794.178L347.04 796.13L347.273 794.97L347.159 794.792C347.108 794.684 347.097 794.59 347.125 794.509C347.187 794.333 347.315 794.367 347.435 794.367C347.56 794.367 347.716 794.333 347.754 794.558C347.767 794.635 347.751 794.713 347.714 794.795L347.6 794.973L347.833 796.133L348.254 794.181C348.314 794.259 348.4 794.325 348.5 794.383C348.465 794.488 348.433 794.595 348.406 794.711C348.334 795.007 348.288 795.335 348.268 795.7H348.27C348.27 795.708 348.27 795.718 348.268 795.726L348.167 797.579H344.806C344.604 797.558 344.501 797.408 344.485 797.151L344.554 796.128C344.575 795.763 344.646 795.477 344.762 795.257C344.839 795.112 344.934 795.005 345.039 794.921C345.373 794.645 346.273 794.569 346.576 794.178ZM346.348 791.41C346.302 791.415 346.269 791.431 346.243 791.452C346.229 791.465 346.219 791.483 346.212 791.504C346.205 791.528 346.201 791.559 346.201 791.593C346.203 791.701 346.243 791.845 346.322 792.01L346.324 792.013L346.583 792.604C346.686 792.84 346.796 793.078 346.928 793.254C347.055 793.42 347.211 793.532 347.415 793.535C347.637 793.535 347.798 793.42 347.93 793.244C348.068 793.06 348.178 792.803 348.287 792.548L348.579 791.861C348.637 791.669 348.656 791.554 348.637 791.499C348.626 791.465 348.577 791.457 348.498 791.465C348.446 791.48 348.395 791.467 348.338 791.425L348.483 790.801C347.949 790.79 347.582 790.659 347.15 790.263C347.009 790.134 346.965 789.985 346.823 789.998C346.715 790.027 346.625 790.097 346.554 790.208C346.484 790.313 346.432 790.457 346.399 790.643L346.486 791.394C346.44 791.433 346.394 791.436 346.348 791.41ZM348.663 791.223C348.725 791.249 348.771 791.302 348.801 791.381C348.845 791.509 348.828 791.698 348.746 791.966C348.744 791.971 348.742 791.976 348.74 791.982L348.445 792.677C348.331 792.947 348.213 793.218 348.057 793.427C347.894 793.645 347.694 793.79 347.418 793.79C347.161 793.79 346.968 793.648 346.811 793.441C346.658 793.241 346.543 792.987 346.434 792.737L346.175 792.147C346.078 791.94 346.029 791.751 346.025 791.596C346.023 791.52 346.032 791.452 346.052 791.391C346.073 791.328 346.106 791.273 346.148 791.234C346.168 791.213 346.192 791.197 346.219 791.184C346.203 790.869 346.197 790.478 346.208 790.147C346.214 790.066 346.225 789.987 346.24 789.906C346.306 789.567 346.473 789.294 346.678 789.108C346.752 789.043 346.831 788.987 346.915 788.943C347.415 788.686 348.075 788.825 348.43 789.373C348.575 789.596 348.665 789.893 348.683 790.284L348.663 791.223ZM351.275 788.61C351.217 788.62 351.173 788.641 351.14 788.67C351.117 788.691 351.103 788.717 351.094 788.746C351.083 788.783 351.077 788.827 351.077 788.877C351.081 789.037 351.141 789.252 351.257 789.499L351.259 789.504L351.646 790.386C351.8 790.738 351.962 791.095 352.162 791.357C352.353 791.606 352.582 791.774 352.887 791.774C353.218 791.774 353.46 791.601 353.655 791.339C353.86 791.063 354.025 790.683 354.185 790.302L354.62 789.279C354.708 788.993 354.734 788.82 354.707 788.741C354.688 788.688 354.613 788.675 354.484 788.694C354.475 788.694 354.464 788.694 354.455 788.694C354.402 788.694 354.345 788.675 354.281 788.633L354.477 787.699C353.678 787.686 353.133 787.486 352.487 786.896C352.274 786.702 352.212 786.481 351.999 786.502C351.839 786.547 351.703 786.649 351.597 786.815C351.494 786.972 351.417 787.187 351.365 787.465L351.503 788.596C351.424 788.649 351.347 788.654 351.275 788.61ZM351.635 792.737L352.329 795.653L352.678 793.923L352.507 793.656C352.43 793.496 352.414 793.354 352.456 793.233C352.548 792.971 352.74 793.021 352.918 793.021C353.106 793.021 353.337 792.971 353.396 793.304C353.416 793.417 353.39 793.532 353.335 793.656L353.164 793.923L353.513 795.653L354.141 792.737C354.595 793.32 355.76 793.438 356.26 793.834C356.396 793.942 356.519 794.076 356.623 794.246C356.625 794.228 356.629 794.207 356.636 794.191C356.691 794.036 356.805 794.065 356.911 794.065C357.023 794.065 357.161 794.036 357.196 794.236C357.207 794.301 357.192 794.372 357.161 794.446L357.06 794.606L357.268 795.634L357.001 795.936L357.089 797.587C357.064 797.972 356.911 798.193 356.61 798.227H349.168C348.867 798.193 348.714 797.972 348.689 797.587L348.793 795.642C348.823 795.099 348.929 794.669 349.104 794.341C349.217 794.126 349.361 793.965 349.518 793.839C350.016 793.438 351.182 793.32 351.635 792.737ZM354.749 788.329C354.842 788.368 354.912 788.444 354.954 788.565C355.02 788.757 354.995 789.037 354.872 789.439C354.87 789.447 354.866 789.455 354.864 789.462L354.422 790.502C354.251 790.906 354.077 791.307 353.844 791.619C353.6 791.945 353.3 792.163 352.891 792.16C352.507 792.16 352.219 791.95 351.982 791.64C351.755 791.344 351.584 790.963 351.419 790.591L351.031 789.709C350.886 789.402 350.813 789.119 350.807 788.885C350.805 788.772 350.818 788.67 350.848 788.581C350.879 788.486 350.927 788.405 350.991 788.345C351.022 788.313 351.059 788.289 351.097 788.268C351.073 787.796 351.066 787.214 351.081 786.723C351.09 786.602 351.105 786.484 351.129 786.363C351.228 785.857 351.475 785.45 351.784 785.172C351.892 785.072 352.012 784.991 352.136 784.928C352.88 784.542 353.868 784.752 354.396 785.571C354.611 785.904 354.747 786.345 354.776 786.928L354.749 788.329ZM356.094 793.141L356.72 793.118C356.39 791.661 356.5 790.323 357.297 789.184C357.433 789.809 357.736 790.326 358.252 790.706C358.498 790.969 358.736 791.284 358.968 791.648C359.008 791.407 358.852 791.116 358.663 790.814C358.837 790.937 358.999 791.11 359.113 791.444C359.245 791.829 359.243 792.155 359.199 792.575C359.179 792.769 359.146 792.953 359.098 793.118H359.57C360.067 791.596 359.751 789.336 358.734 788.379C358.422 788.085 358.198 788.095 357.831 788.095C357.413 788.095 357.198 788.114 356.838 788.455C356.309 788.956 355.982 789.822 355.847 791.024C355.819 791.625 355.801 792.661 356.094 793.141ZM359.623 783.206H362.542C362.566 783.206 362.586 783.227 362.586 783.254V784.487C362.586 784.513 362.566 784.534 362.542 784.534H359.623C359.599 784.534 359.579 784.513 359.579 784.487V783.254C359.579 783.227 359.599 783.206 359.623 783.206ZM359.623 780.509H362.542C362.566 780.509 362.586 780.53 362.586 780.556V781.789C362.586 781.816 362.566 781.837 362.542 781.837H359.623C359.599 781.837 359.579 781.816 359.579 781.789V780.556C359.579 780.53 359.599 780.509 359.623 780.509ZM343.57 783.206H346.489C346.513 783.206 346.533 783.227 346.533 783.254V784.487C346.533 784.513 346.513 784.534 346.489 784.534H343.57C343.546 784.534 343.526 784.513 343.526 784.487V783.254C343.526 783.227 343.546 783.206 343.57 783.206ZM343.57 780.509H346.489C346.513 780.509 346.533 780.53 346.533 780.556V781.789C346.533 781.816 346.513 781.837 346.489 781.837H343.57C343.546 781.837 343.526 781.816 343.526 781.789V780.556C343.526 780.53 343.546 780.509 343.57 780.509ZM354.945 780.795H356.504C356.528 780.795 356.548 780.824 356.548 780.858V783.086C356.548 783.12 356.528 783.149 356.504 783.149H354.945C354.921 783.149 354.901 783.12 354.901 783.086V780.858C354.901 780.824 354.921 780.795 354.945 780.795ZM352.267 780.795H353.825C353.849 780.795 353.869 780.824 353.869 780.858V783.086C353.869 783.12 353.849 783.149 353.825 783.149H352.267C352.243 783.149 352.223 783.12 352.223 783.086V780.858C352.223 780.824 352.243 780.795 352.267 780.795ZM349.588 780.795H351.147C351.171 780.795 351.191 780.824 351.191 780.858V783.086C351.191 783.12 351.171 783.149 351.147 783.149H349.588C349.564 783.149 349.544 783.12 349.544 783.086V780.858C349.544 780.824 349.564 780.795 349.588 780.795ZM354.945 776.473H356.504C356.528 776.473 356.548 776.502 356.548 776.536V778.764C356.548 778.798 356.528 778.827 356.504 778.827H354.945C354.921 778.827 354.901 778.798 354.901 778.764V776.536C354.901 776.499 354.921 776.473 354.945 776.473ZM352.267 776.473H353.825C353.849 776.473 353.869 776.502 353.869 776.536V778.764C353.869 778.798 353.849 778.827 353.825 778.827H352.267C352.243 778.827 352.223 778.798 352.223 778.764V776.536C352.223 776.499 352.243 776.473 352.267 776.473ZM349.588 776.473H351.147C351.171 776.473 351.191 776.502 351.191 776.536V778.764C351.191 778.798 351.171 778.827 351.147 778.827H349.588C349.564 778.827 349.544 778.798 349.544 778.764V776.536C349.544 776.499 349.564 776.473 349.588 776.473Z" fill="white"/>
<text fill="black" xml:space="preserve" style="white-space: pre" font-family="Harmattan" font-size="13" font-weight="bold" letter-spacing="0em"><tspan x="317.876" y="785.918">HR</tspan></text>
<path d="M352.388 554.717C360.043 554.18 365.813 547.534 365.275 539.872C364.738 532.211 358.097 526.435 350.442 526.972C342.787 527.509 337.018 534.155 337.555 541.817C338.092 549.478 344.733 555.253 352.388 554.717Z" fill="white"/>
<path d="M352.353 554.217C359.732 553.7 365.294 547.293 364.776 539.907C364.258 532.521 357.856 526.953 350.477 527.471C343.098 527.989 337.536 534.396 338.054 541.781C338.572 549.167 344.974 554.735 352.353 554.217Z" stroke="#707070" stroke-width="1.00045"/>
<path d="M351.353 553.231C348.911 553.231 346.525 552.507 344.495 551.15C342.465 549.794 340.882 547.866 339.948 545.61C339.014 543.354 338.769 540.872 339.245 538.478C339.722 536.083 340.897 533.883 342.624 532.157C344.939 529.842 348.079 528.541 351.353 528.541C354.628 528.541 357.768 529.842 360.083 532.157C362.398 534.472 363.699 537.612 363.699 540.886C363.699 544.161 362.398 547.301 360.083 549.616C358.939 550.766 357.578 551.677 356.08 552.298C354.581 552.918 352.975 553.235 351.353 553.231ZM350.997 533.541C349.22 533.543 347.499 534.159 346.125 535.284C344.75 536.409 343.807 537.975 343.454 539.716C343.101 541.457 343.361 543.266 344.188 544.838C345.016 546.41 346.362 547.647 347.997 548.341C349.236 548.863 350.59 549.051 351.924 548.888C353.259 548.725 354.528 548.215 355.604 547.41C356.681 546.605 357.528 545.532 358.062 544.298C358.596 543.064 358.798 541.712 358.648 540.376C358.584 539.815 358.459 539.263 358.275 538.729C358.184 538.467 358.079 538.211 357.961 537.961H357.118L356.584 538.495C356.686 538.704 356.777 538.917 356.856 539.136C357.017 539.582 357.126 540.044 357.181 540.515C357.209 540.757 357.224 541 357.224 541.244C357.222 542.681 356.723 544.072 355.813 545.184C354.902 546.295 353.636 547.058 352.228 547.342C350.82 547.627 349.356 547.417 348.086 546.747C346.815 546.077 345.814 544.989 345.254 543.666C344.854 542.719 344.695 541.687 344.791 540.664C344.887 539.64 345.234 538.656 345.802 537.799C346.371 536.943 347.142 536.24 348.048 535.754C348.954 535.268 349.966 535.013 350.994 535.013C351.237 535.013 351.481 535.028 351.723 535.056C352.193 535.111 352.656 535.22 353.102 535.381C353.32 535.46 353.534 535.551 353.743 535.654L354.277 535.119V534.274C354.026 534.155 353.77 534.051 353.508 533.96C352.975 533.775 352.423 533.65 351.862 533.587C351.575 533.556 351.286 533.54 350.997 533.541ZM350.997 536.622C350.083 536.622 349.189 536.893 348.429 537.401C347.669 537.909 347.076 538.631 346.726 539.476C346.377 540.321 346.285 541.25 346.464 542.147C346.642 543.043 347.083 543.867 347.73 544.513C348.376 545.159 349.2 545.599 350.097 545.777C350.994 545.955 351.923 545.863 352.768 545.513C353.612 545.163 354.334 544.57 354.841 543.81C355.349 543.049 355.619 542.155 355.619 541.241C355.619 541.108 355.613 540.975 355.602 540.841C355.591 540.707 355.574 540.581 355.552 540.454C355.53 540.327 355.506 540.215 355.471 540.079C355.436 539.943 355.401 539.833 355.36 539.715L354.13 540.944C354.13 540.967 354.13 540.989 354.136 541.012C354.142 541.035 354.136 541.04 354.136 541.052C354.136 541.064 354.136 541.077 354.136 541.089V541.132V541.162C354.136 541.174 354.136 541.187 354.136 541.199V541.241C354.135 541.76 354.006 542.271 353.761 542.729C353.515 543.187 353.16 543.576 352.727 543.863C352.294 544.15 351.797 544.326 351.28 544.374C350.763 544.423 350.241 544.343 349.763 544.141C349.008 543.82 348.407 543.219 348.086 542.464C347.884 541.985 347.804 541.464 347.852 540.947C347.901 540.43 348.076 539.933 348.364 539.5C348.651 539.067 349.04 538.712 349.498 538.466C349.955 538.22 350.466 538.091 350.986 538.091H351.133H351.169H351.206L351.278 538.097L352.507 536.867C352.394 536.827 352.271 536.789 352.143 536.756C352.015 536.723 351.884 536.695 351.767 536.675C351.65 536.655 351.511 536.636 351.381 536.625C351.251 536.614 351.129 536.62 350.997 536.62V536.622ZM350.997 539.703C350.791 539.702 350.587 539.743 350.397 539.824C350.164 539.922 349.959 540.076 349.799 540.272C349.64 540.468 349.531 540.7 349.483 540.948C349.434 541.196 349.448 541.452 349.521 541.694C349.595 541.936 349.727 542.156 349.906 542.334C350.085 542.513 350.305 542.645 350.546 542.718C350.788 542.792 351.044 542.805 351.292 542.756C351.54 542.707 351.772 542.598 351.968 542.439C352.164 542.279 352.318 542.074 352.416 541.841C352.496 541.651 352.537 541.447 352.537 541.241C352.537 541.196 352.537 541.151 352.531 541.109C352.525 541.067 352.522 541.024 352.514 540.98C352.506 540.936 352.497 540.89 352.487 540.855C352.477 540.82 352.462 540.769 352.45 540.734L356.565 536.619H357.765L360.445 533.939H358.298V531.797L355.618 534.477V535.677L351.508 539.788C351.464 539.772 351.424 539.76 351.387 539.751C351.35 539.742 351.313 539.733 351.262 539.724C351.211 539.715 351.177 539.711 351.133 539.707C351.089 539.703 351.041 539.703 350.997 539.703Z" fill="#00AEEF"/>
<path d="M352.432 702.596C360.052 702.596 366.23 696.418 366.23 688.798C366.23 681.178 360.052 675 352.432 675C344.811 675 338.634 681.178 338.634 688.798C338.634 696.418 344.811 702.596 352.432 702.596Z" fill="#00AEEF"/>
<path d="M363.325 688.798C363.325 686.643 362.687 684.536 361.489 682.744C360.292 680.952 358.59 679.556 356.599 678.732C354.607 677.907 352.416 677.692 350.303 678.113C348.189 678.535 346.248 679.573 344.725 681.098C342.682 683.142 341.535 685.914 341.535 688.804C341.536 691.694 342.685 694.466 344.729 696.509C346.773 698.552 349.544 699.699 352.434 699.699C355.325 699.698 358.096 698.549 360.139 696.505C361.153 695.495 361.957 694.294 362.504 692.971C363.051 691.648 363.33 690.23 363.325 688.798ZM361.619 692.522C360.721 691.715 359.657 691.113 358.502 690.759C358.568 690.107 358.602 689.453 358.602 688.797C358.602 688.142 358.568 687.487 358.502 686.835C359.657 686.482 360.721 685.88 361.619 685.073C362.588 687.462 362.588 690.134 361.619 692.522ZM347.239 688.798C347.239 688.228 347.265 687.665 347.315 687.114C348.831 687.471 350.382 687.657 351.939 687.668V689.929C350.382 689.94 348.831 690.126 347.315 690.483C347.268 689.931 347.239 689.368 347.239 688.798ZM351.939 698.667C351.252 698.466 350.618 698.115 350.082 697.64C349.546 697.165 349.122 696.578 348.839 695.92L348.793 695.834C349.714 695.154 350.8 694.733 351.939 694.616V698.667ZM352.918 694.617C354.055 694.735 355.14 695.155 356.06 695.834L356.014 695.921C355.731 696.579 355.307 697.166 354.771 697.641C354.235 698.116 353.601 698.467 352.914 698.668V694.618L352.918 694.617ZM352.918 678.93C353.605 679.132 354.239 679.483 354.775 679.958C355.311 680.432 355.735 681.02 356.018 681.677L356.064 681.763C355.144 682.443 354.059 682.863 352.922 682.98V678.929L352.918 678.93ZM351.939 682.979C350.803 682.861 349.719 682.441 348.8 681.762L348.846 681.676C349.129 681.019 349.553 680.431 350.089 679.957C350.625 679.482 351.259 679.131 351.946 678.929L351.939 682.979ZM352.918 683.961C354.202 683.852 355.433 683.404 356.486 682.661C356.942 683.773 357.257 684.937 357.425 686.127C355.95 686.492 354.438 686.68 352.919 686.689V683.961H352.918ZM356.839 681.141C356.495 680.507 356.071 679.921 355.576 679.396C356.294 679.637 356.981 679.96 357.625 680.358C357.377 680.633 357.115 680.894 356.839 681.141ZM348.022 681.141C347.747 680.894 347.486 680.633 347.239 680.358C347.883 679.961 348.57 679.638 349.287 679.397C348.792 679.922 348.367 680.508 348.023 681.141H348.022ZM351.939 683.961V686.688C350.422 686.679 348.912 686.49 347.439 686.126C347.607 684.936 347.922 683.772 348.378 682.66C349.429 683.402 350.658 683.851 351.939 683.961ZM351.939 690.905V693.631C350.655 693.74 349.424 694.189 348.371 694.931C347.918 693.821 347.605 692.658 347.439 691.47C348.912 691.105 350.422 690.916 351.939 690.905ZM348.023 696.454C348.367 697.088 348.791 697.675 349.285 698.2C348.568 697.959 347.882 697.636 347.239 697.238C347.486 696.963 347.748 696.702 348.023 696.454ZM356.84 696.454C357.116 696.702 357.379 696.963 357.627 697.238C356.983 697.636 356.296 697.959 355.578 698.2C356.072 697.675 356.497 697.088 356.84 696.454ZM352.921 693.634V690.905C354.44 690.914 355.952 691.103 357.427 691.467C357.259 692.657 356.944 693.821 356.488 694.933C355.435 694.192 354.204 693.743 352.921 693.634ZM352.921 689.928V687.668C354.478 687.657 356.029 687.471 357.545 687.114C357.595 687.665 357.621 688.228 357.621 688.798C357.621 689.368 357.595 689.931 357.545 690.482C356.029 690.125 354.478 689.939 352.921 689.928ZM361.176 684.128L361.166 684.137C360.384 684.919 359.427 685.502 358.373 685.837C358.178 684.533 357.815 683.26 357.291 682.049C357.7 681.7 358.084 681.321 358.439 680.917C359.57 681.781 360.503 682.877 361.176 684.131V684.128ZM346.425 680.917C346.78 681.321 347.164 681.699 347.573 682.048C347.049 683.259 346.685 684.532 346.49 685.836C345.436 685.501 344.479 684.918 343.697 684.136L343.687 684.127C344.361 682.874 345.294 681.78 346.425 680.917ZM343.245 685.073C344.143 685.881 345.207 686.482 346.362 686.836C346.231 688.141 346.231 689.456 346.362 690.76C345.207 691.114 344.144 691.715 343.245 692.522C342.276 690.134 342.276 687.462 343.245 685.073ZM343.687 693.464L343.697 693.454C344.479 692.673 345.437 692.09 346.49 691.754C346.685 693.059 347.048 694.332 347.572 695.542C347.163 695.892 346.779 696.27 346.424 696.673C345.294 695.811 344.361 694.717 343.687 693.465V693.464ZM358.439 696.678C358.083 696.275 357.699 695.897 357.29 695.547C357.814 694.337 358.177 693.064 358.372 691.759C359.426 692.095 360.383 692.677 361.165 693.459L361.175 693.469C360.502 694.722 359.569 695.816 358.439 696.678Z" fill="white"/>
<path d="M351.803 715.442C352.846 715.442 353.691 714.597 353.691 713.554C353.691 712.511 352.846 711.666 351.803 711.666C350.76 711.666 349.915 712.511 349.915 713.554C349.915 714.597 350.76 715.442 351.803 715.442Z" fill="#231F20"/>
<path d="M352.123 731.642C353.166 731.642 354.011 730.797 354.011 729.754C354.011 728.711 353.166 727.866 352.123 727.866C351.081 727.866 350.235 728.711 350.235 729.754C350.235 730.797 351.081 731.642 352.123 731.642Z" fill="#231F20"/>
<path d="M351.803 744.776C352.846 744.776 353.691 743.931 353.691 742.888C353.691 741.845 352.846 741 351.803 741C350.76 741 349.915 741.845 349.915 742.888C349.915 743.931 350.76 744.776 351.803 744.776Z" fill="#231F20"/>
<path d="M340.32 734.096C343.082 734.096 345.32 731.857 345.32 729.096C345.32 726.334 343.082 724.096 340.32 724.096C337.559 724.096 335.32 726.334 335.32 729.096C335.32 731.857 337.559 734.096 340.32 734.096Z" fill="#00AEEF"/>
<path d="M340 748C342.761 748 345 745.761 345 743C345 740.239 342.761 738 340 738C337.239 738 335 740.239 335 743C335 745.761 337.239 748 340 748Z" fill="#00AEEF"/>
<path fill-rule="evenodd" clip-rule="evenodd" d="M338.722 726.096C338.928 726.094 339.133 726.118 339.332 726.168C339.505 726.209 339.667 726.289 339.805 726.401C339.941 726.517 340.046 726.664 340.111 726.831C340.188 727.043 340.225 727.268 340.218 727.494C340.227 727.741 340.171 727.986 340.057 728.206C339.943 728.402 339.778 728.563 339.58 728.673C339.853 728.761 340.083 728.949 340.224 729.199C340.373 729.478 340.445 729.79 340.435 730.106C340.441 730.36 340.395 730.612 340.299 730.847C340.216 731.043 340.09 731.218 339.929 731.358C339.774 731.49 339.593 731.59 339.397 731.65C339.199 731.714 338.993 731.748 338.785 731.75H336.515V726.101H338.722V726.096ZM341.481 726.552H343.381V727.11H341.481V726.552ZM341.903 730.763C341.978 730.846 342.071 730.912 342.175 730.955C342.279 730.998 342.391 731.016 342.503 731.01C342.681 731.014 342.853 730.952 342.989 730.838C343.108 730.746 343.195 730.62 343.237 730.476H344.057C343.977 730.883 343.767 731.254 343.457 731.531C343.176 731.747 342.83 731.859 342.476 731.85C342.227 731.853 341.98 731.8 341.754 731.695C341.54 731.592 341.353 731.442 341.207 731.255C341.052 731.05 340.935 730.819 340.862 730.573C340.779 730.29 340.738 729.996 340.74 729.701C340.738 729.411 340.78 729.122 340.865 728.845C340.94 728.596 341.06 728.364 341.22 728.16C341.369 727.971 341.557 727.815 341.77 727.704C341.989 727.591 342.232 727.534 342.478 727.537C342.743 727.53 343.005 727.599 343.231 727.737C343.447 727.874 343.629 728.059 343.76 728.279C343.904 728.518 344.005 728.781 344.06 729.055C344.121 729.354 344.143 729.661 344.125 729.966H341.672C341.66 730.248 341.74 730.526 341.902 730.757L341.903 730.763ZM342.972 728.615C342.908 728.538 342.828 728.478 342.736 728.438C342.645 728.398 342.546 728.381 342.446 728.387C342.317 728.382 342.188 728.413 342.076 728.478C341.983 728.536 341.902 728.613 341.84 728.704C341.782 728.792 341.74 728.889 341.716 728.992C341.694 729.08 341.68 729.17 341.673 729.261H343.187C343.178 729.029 343.104 728.806 342.972 728.615ZM338.588 728.379C338.754 728.385 338.915 728.329 339.041 728.221C339.105 728.153 339.154 728.072 339.185 727.983C339.215 727.895 339.226 727.801 339.216 727.708C339.22 727.597 339.2 727.486 339.158 727.383C339.124 727.303 339.069 727.234 338.999 727.183C338.932 727.133 338.854 727.099 338.772 727.083C338.685 727.064 338.597 727.054 338.508 727.055H337.544V728.375H338.588V728.379ZM338.644 730.779C338.741 730.78 338.838 730.768 338.932 730.743C339.021 730.721 339.103 730.68 339.174 730.623C339.248 730.563 339.306 730.485 339.342 730.397C339.387 730.28 339.408 730.156 339.403 730.031C339.414 729.919 339.402 729.805 339.368 729.698C339.334 729.591 339.277 729.492 339.203 729.407C339.054 729.278 338.862 729.212 338.665 729.222H337.544V730.779H338.644Z" fill="white"/>
<path d="M340 718.854C342.761 718.854 345 716.615 345 713.854C345 711.092 342.761 708.854 340 708.854C337.239 708.854 335 711.092 335 713.854C335 716.615 337.239 718.854 340 718.854Z" fill="#00AEEF"/>
<path d="M339.964 709.994C338.94 710.029 337.972 710.468 337.272 711.215C336.571 711.962 336.195 712.956 336.227 713.98C336.213 714.797 336.45 715.598 336.908 716.274C337.365 716.951 338.02 717.47 338.783 717.761C338.804 717.766 338.825 717.768 338.846 717.768C338.872 717.769 338.898 717.765 338.923 717.755C338.947 717.745 338.969 717.73 338.987 717.711C339.005 717.693 339.019 717.67 339.028 717.645C339.037 717.621 339.04 717.594 339.038 717.568C339.038 717.468 339.038 717.223 339.033 716.889C338.91 716.919 338.783 716.935 338.656 716.936C338.466 716.949 338.276 716.899 338.117 716.794C337.957 716.689 337.836 716.535 337.773 716.355C337.708 716.118 337.561 715.912 337.358 715.772C337.033 715.534 337.358 715.527 337.381 715.527C337.501 715.548 337.615 715.596 337.714 715.668C337.813 715.74 337.895 715.833 337.953 715.94C338.01 716.069 338.102 716.178 338.219 716.255C338.337 716.333 338.474 716.375 338.614 716.376C338.762 716.374 338.908 716.34 339.041 716.276C339.057 716.077 339.14 715.888 339.278 715.743C339.031 715.743 338.787 715.69 338.562 715.588C338.337 715.485 338.138 715.335 337.976 715.148C337.815 714.961 337.696 714.741 337.627 714.504C337.558 714.267 337.542 714.017 337.578 713.773C337.571 713.382 337.708 713.002 337.962 712.704C337.848 712.359 337.861 711.985 337.999 711.649C338.026 711.642 338.054 711.639 338.082 711.64C338.432 711.681 338.761 711.826 339.026 712.058C339.637 711.88 340.287 711.88 340.898 712.058C341.163 711.826 341.492 711.681 341.842 711.64C341.87 711.639 341.898 711.642 341.925 711.649C342.063 711.985 342.076 712.359 341.962 712.704C342.216 713.002 342.353 713.382 342.346 713.773C342.382 714.018 342.366 714.268 342.296 714.505C342.227 714.743 342.107 714.962 341.945 715.149C341.783 715.336 341.582 715.486 341.357 715.587C341.131 715.689 340.886 715.741 340.639 715.739C340.729 715.838 340.798 715.955 340.842 716.082C340.886 716.209 340.903 716.343 340.893 716.477C340.893 717.01 340.888 717.44 340.888 717.57C340.886 717.596 340.889 717.622 340.898 717.647C340.906 717.672 340.92 717.694 340.938 717.713C340.956 717.732 340.978 717.747 341.002 717.757C341.026 717.766 341.052 717.771 341.078 717.77C341.1 717.77 341.123 717.768 341.145 717.763C341.908 717.472 342.563 716.953 343.02 716.277C343.478 715.6 343.715 714.799 343.701 713.982C343.733 712.958 343.358 711.963 342.657 711.215C341.956 710.468 340.988 710.029 339.964 709.994Z" fill="white"/>
<text fill="black" xml:space="preserve" style="white-space: pre" font-family="Harmattan" font-size="13" font-weight="bold" letter-spacing="0em"><tspan x="288" y="691.816">Websites</tspan></text>
<text fill="black" xml:space="preserve" style="white-space: pre" font-family="Harmattan" font-size="20" font-weight="bold" letter-spacing="0em"><tspan x="138" y="545.116">Vision and next step</tspan></text>
<text fill="#00FF6A" stroke="#FF0000" stroke-width="0.3" xml:space="preserve" style="white-space: pre" font-family="Arial" font-size="6" letter-spacing="0.09em"><tspan x="57.8002" y="569.08">I strive to master computer skills and modern technology through continuous learning and in-depth </tspan><tspan x="57.937" y="581.08">exploration of the latest developments in this field. My passion for computers constantly drives me </tspan><tspan x="60.0234" y="593.08">to develop my skills, keep up with the latest technologies, and analyze technical problems to find </tspan><tspan x="56.4966" y="605.08">innovative solutions. I believe that learning never stops, and I strive to be constantly evolving, able </tspan><tspan x="63.2285" y="617.08">to adapt to the rapid changes in the world of technology, and contributing to enriching this field </tspan><tspan x="165.961" y="629.08">with knowledge and creativity.&#13;&#10;</tspan><tspan x="64.118" y="641.08">The next step in my career, God willing, is to complete my postgraduate studies by obtaining a </tspan><tspan x="68.7035" y="653.08">master&#39;s degree, followed by a doctorate. This will enable me to delve deeper into scientific </tspan><tspan x="71.8602" y="665.08">research, provide innovative technical solutions, and contribute to the development of the </tspan><tspan x="161.471" y="677.08">academic and professional fields.</tspan></text>
<text fill="#FF0040" xml:space="preserve" style="white-space: pre" font-family="Harmattan" font-size="7" font-weight="500" letter-spacing="0em"><tspan x="204.508" y="714.441">https://github.com/mostafa0said0abdelwahab</tspan></text>
<text fill="#FF0040" xml:space="preserve" style="white-space: pre" font-family="Harmattan" font-size="7" font-weight="500" letter-spacing="0em"><tspan x="200.508" y="744.441">https://mostafa0said0abdelwahab.github.io/cv/</tspan></text>
<text fill="#FF0040" xml:space="preserve" style="white-space: pre" font-family="Harmattan" font-size="7" font-weight="500" letter-spacing="0em"><tspan x="284" y="731.441">mostafasaid13</tspan></text>
<path d="M129.638 119.471H62V124.725H129.638V119.471Z" fill="#949598"/>
<path d="M122.062 119.471H63V124.725H122.062V119.471Z" fill="#00AEEF"/>
<path d="M120.151 118C121.141 118 122.09 118.393 122.789 119.093C123.489 119.792 123.882 120.741 123.882 121.731V122.466C123.882 122.956 123.786 123.442 123.599 123.895C123.412 124.348 123.137 124.759 122.79 125.106C122.444 125.453 122.032 125.728 121.58 125.916C121.127 126.103 120.641 126.2 120.151 126.2C119.759 126.2 119.37 126.123 119.008 125.972C118.646 125.822 118.316 125.602 118.039 125.325C117.762 125.047 117.542 124.718 117.392 124.355C117.243 123.993 117.166 123.604 117.166 123.212V120.985C117.166 120.193 117.481 119.434 118.04 118.874C118.6 118.314 119.359 118 120.151 118Z" fill="black"/>
<path d="M129.638 310.471H62V315.725H129.638V310.471Z" fill="#949598"/>
<path d="M122.062 310.471H63V315.725H122.062V310.471Z" fill="#00AEEF"/>
<path d="M120.151 309C121.141 309 122.09 309.393 122.789 310.093C123.489 310.792 123.882 311.741 123.882 312.731V313.466C123.882 313.956 123.786 314.442 123.599 314.895C123.412 315.348 123.137 315.759 122.79 316.106C122.444 316.453 122.032 316.728 121.58 316.916C121.127 317.103 120.641 317.2 120.151 317.2C119.759 317.2 119.37 317.123 119.008 316.972C118.646 316.822 118.316 316.602 118.039 316.325C117.762 316.047 117.542 315.718 117.392 315.355C117.243 314.993 117.166 314.604 117.166 314.212V311.985C117.166 311.193 117.481 310.434 118.04 309.874C118.6 309.314 119.359 309 120.151 309Z" fill="black"/>
<text fill="black" xml:space="preserve" style="white-space: pre" font-family="Harmattan" font-size="9" font-weight="500" letter-spacing="0em"><tspan x="172.508" y="140.352">SECOND EDITION OP NOTCH </tspan></text>
<text fill="black" xml:space="preserve" style="white-space: pre" font-family="Harmattan" font-size="9" font-weight="500" letter-spacing="0em"><tspan x="181.508" y="334.352">flutter and dart cookbook</tspan></text>
<path d="M296.029 20.7871H130V48.3771H296.029V20.7871Z" fill="#00AEEF"/>
<text fill="white" xml:space="preserve" style="white-space: pre" font-family="Harmattan" font-size="20" font-weight="bold" letter-spacing="0em"><tspan x="190" y="38.1162">Hobbies</tspan></text>
<text fill="white" xml:space="preserve" style="white-space: pre" font-family="Bahij TheSansArabic" font-size="7" font-weight="500" letter-spacing="0em"><tspan x="337" y="744.525">cv</tspan></text>
<text fill="#004F6D" xml:space="preserve" style="white-space: pre" font-family="Arial" font-size="9" letter-spacing="0em"><tspan x="111.756" y="70.1201">Translate books using artificial intelligence and Google </tspan><tspan x="119.289" y="80.1201">Translate services, especially scanned educational </tspan><tspan x="207.241" y="90.1201">books.</tspan></text>
<text fill="#FF0000" xml:space="preserve" style="white-space: pre" font-family="Arial" font-size="11" letter-spacing="0em"><tspan x="117.388" y="109.313">Some books have already been translated</tspan></text>
<text fill="#FF0000" xml:space="preserve" style="white-space: pre" font-family="Arial" font-size="11" letter-spacing="0em"><tspan x="174.612" y="128.313">such as the book &#x2193;</tspan></text>
<text fill="#5500FF" xml:space="preserve" style="white-space: pre" font-family="Harmattan" font-size="9" letter-spacing="0em"><tspan x="94.7554" y="157.352">This book was for teaching English and was of poor quality. 20 It is en and not </tspan><tspan x="84.2085" y="172.352">Arabic. What was required was its Arabic translation, but it is an English educational </tspan><tspan x="87.7593" y="187.352">book. The original pages are important. The user of the book must know what is on </tspan><tspan x="86.854" y="202.352">the main page and its meaning in the original pages in English. I corrected the book </tspan><tspan x="91.3408" y="217.352">again so that there is a page on the right in English that corresponds to it on the </tspan><tspan x="90.5542" y="232.352">same page, translated and separate from it. That is, the pages are not combined. </tspan><tspan x="86.7397" y="247.352">That is, the traditional methods were not used in order to be able to print correctly </tspan><tspan x="173.633" y="262.352">with the correct numbering.</tspan></text>
<text fill="#5500FF" xml:space="preserve" style="white-space: pre" font-family="Harmattan" font-size="8" letter-spacing="0.05em"><tspan x="83.5258" y="352.646">I translated this book manually because Google Translate was translating the codes </tspan><tspan x="92.5523" y="366.646">and changing their colors, which is not required, so I decomposed the file and </tspan><tspan x="84.8117" y="380.646">translated it manually using the AI &#x200b;&#x200b;tool built into one of the translation programs. </tspan><tspan x="85.8586" y="394.646">Now the translation problem has been solved. The rest of the problem of the large </tspan><tspan x="87.393" y="408.646">number of pages, I used programming scripts from one of the programs and some </tspan><tspan x="87.168" y="422.646">other tools such as Adobe Acrobat, PDF X, 7 PDF and others, even to print a very </tspan><tspan x="91.4078" y="436.646">small booklet of 8 pages per page on both sides, as the book was printed on 25 </tspan><tspan x="89.5" y="450.646">sheets printed in duplex (on both sides). It was cut, assembled and given to the </tspan><tspan x="87.7141" y="464.646">printer. It was skinned and became a very small book, but also professional. This </tspan><tspan x="82.3227" y="478.646">was also useful in public transportation for reading and easy to carry as well. It is a </tspan><tspan x="97.1813" y="492.646">good way to learn and get away from distractions. There are many of these </tspan><tspan x="174.073" y="506.646">examples of printing skills.</tspan></text>
<text fill="#FF0000" xml:space="preserve" style="white-space: pre" font-family="Arial" font-size="11" letter-spacing="0em"><tspan x="117.388" y="303.313">Some books have already been translated</tspan></text>
<text fill="#FF0000" xml:space="preserve" style="white-space: pre" font-family="Arial" font-size="11" letter-spacing="0em"><tspan x="174.612" y="322.313">such as the book &#x2193;</tspan></text>
<defs>
<linearGradient id="paint0_linear_0_1" x1="423" y1="406.5" x2="408" y2="406.5" gradientUnits="userSpaceOnUse">
<stop offset="0.432692" stop-color="#FF0000"/>
<stop offset="0.475962"/>
<stop offset="0.476062" stop-color="#00B3FF"/>
</linearGradient>
</defs>
</svg>
