<svg width="347" height="881" viewBox="0 0 347 881" fill="none" xmlns="http://www.w3.org/2000/svg">
<rect width="347" height="881" fill="#F5F5F5"/>
<path d="M259.021 349H92.9922V376.59H259.021V349Z" fill="#00AEEF"/>
<text fill="#070707" stroke="#00AEEF" stroke-width="0.3" xml:space="preserve" style="white-space: pre" font-family="Harmattan" font-size="21" font-weight="500" letter-spacing="-0.01em"><tspan x="116.5" y="110.322">&#x648;&#x64e;&#x645;&#x64e;&#x627; &#x62a;&#x64e;&#x648;&#x652;&#x641;&#x650;&#x64a;&#x642;&#x650;&#x64a; &#x625;&#x650;&#x644;&#x651;&#x64e;&#x627; &#x628;&#x650;&#x627;&#x644;&#x644;&#x651;&#x64e;&#x647;</tspan></text>
<text fill="black" xml:space="preserve" style="white-space: pre" font-family="Arial" font-size="31" font-weight="900" letter-spacing="0em"><tspan x="37.9922" y="34.2607">MOSTAFA</tspan></text>
<text fill="#00AEEF" xml:space="preserve" style="white-space: pre" font-family="Arial" font-size="31" font-weight="900" letter-spacing="0em"><tspan x="37.9922" y="73.2607">SAID</tspan></text>
<text fill="black" stroke="#00AEEF" stroke-width="0.5" xml:space="preserve" style="white-space: pre" font-family="Andalus" font-size="16" letter-spacing="0.92em"><tspan x="12" y="268.469">Graphic designer</tspan></text>
<text fill="black" stroke="#00AEEF" stroke-width="0.5" xml:space="preserve" style="white-space: pre" font-family="Andalus" font-size="16" letter-spacing="0.26em"><tspan x="12" y="301.469">Time management app developer</tspan></text>
<text fill="black" stroke="#00AEEF" stroke-width="0.5" xml:space="preserve" style="white-space: pre" font-family="Andalus" font-size="13" letter-spacing="0.79em"><tspan x="12" y="234.443">Instructional designer</tspan></text>
<text fill="black" stroke="#00AEEF" stroke-width="0.5" xml:space="preserve" style="white-space: pre" font-family="Andalus" font-size="20" letter-spacing="0.62em"><tspan x="12" y="202.336">Computer teacher</tspan></text>
<text fill="white" xml:space="preserve" style="white-space: pre" font-family="Harmattan" font-size="20" font-weight="bold" letter-spacing="0em"><tspan x="127" y="367.116">Basic data&#10;</tspan></text>
<path d="M312.983 374.726C316.534 374.726 320.006 374.03 322.959 372.727C325.912 371.423 328.214 369.57 329.573 367.403C330.932 365.235 331.287 362.85 330.595 360.549C329.902 358.247 328.191 356.134 325.68 354.475C323.169 352.816 319.969 351.686 316.486 351.228C313.003 350.77 309.392 351.005 306.111 351.903C302.83 352.801 300.025 354.321 298.052 356.272C296.079 358.223 295.026 360.517 295.026 362.863C295.026 366.009 296.918 369.027 300.285 371.251C303.653 373.476 308.22 374.726 312.983 374.726Z" fill="#00AEEF" stroke="#707070"/>
<path d="M303.59 368.933C303.59 367.422 304.499 365.972 306.117 364.903C307.735 363.834 309.93 363.233 312.218 363.233C314.506 363.233 316.701 363.834 318.319 364.903C319.937 365.972 320.846 367.422 320.846 368.933H303.59ZM307.459 358.514C307.458 357.786 307.84 357.081 308.539 356.518C309.238 355.955 310.21 355.57 311.291 355.428C312.371 355.286 313.493 355.395 314.465 355.738C315.437 356.082 316.199 356.637 316.62 357.309C317.042 357.982 317.098 358.73 316.778 359.426C316.458 360.123 315.782 360.725 314.866 361.129C313.95 361.533 312.85 361.715 311.753 361.644C310.657 361.573 309.632 361.252 308.853 360.737C307.961 360.148 307.459 359.348 307.459 358.514Z" fill="white"/>
<path d="M312.669 485C313.164 485 313.647 484.853 314.058 484.579C314.469 484.304 314.79 483.914 314.979 483.457C315.168 483 315.218 482.497 315.121 482.012C315.025 481.527 314.787 481.082 314.437 480.732C314.088 480.383 313.642 480.145 313.157 480.048C312.672 479.952 312.17 480.001 311.713 480.19C311.256 480.38 310.865 480.7 310.591 481.111C310.316 481.522 310.169 482.006 310.169 482.5C310.169 483.163 310.433 483.799 310.902 484.268C311.371 484.737 312.006 485 312.669 485Z" fill="#231F20"/>
<path d="M259.021 507H92.9922V534.59H259.021V507Z" fill="#00AEEF"/>
<text fill="white" xml:space="preserve" style="white-space: pre" font-family="Harmattan" font-size="20" font-weight="bold" letter-spacing="0.02em"><tspan x="105" y="525.116">Job and experience</tspan></text>
<path d="M313.446 532.704C317.294 532.704 321.055 531.95 324.254 530.538C327.453 529.126 329.947 527.119 331.419 524.77C332.892 522.422 333.277 519.838 332.526 517.345C331.776 514.852 329.923 512.562 327.202 510.764C324.481 508.967 321.015 507.743 317.241 507.247C313.468 506.751 309.556 507.006 306.001 507.978C302.447 508.951 299.408 510.598 297.271 512.712C295.133 514.825 293.992 517.31 293.992 519.852C293.992 523.261 296.042 526.53 299.69 528.94C303.338 531.35 308.287 532.704 313.446 532.704Z" fill="#00AEEF" stroke="#707070"/>
<path d="M305.348 527.203C304.613 527.203 303.908 527.01 303.388 526.666C302.868 526.323 302.576 525.857 302.576 525.371V521.355H305.314V522.112C305.314 522.168 305.33 522.224 305.361 522.276C305.394 522.328 305.441 522.375 305.501 522.415C305.561 522.455 305.632 522.486 305.711 522.508C305.789 522.53 305.873 522.541 305.958 522.541H308.252C308.423 522.54 308.586 522.495 308.707 522.415C308.766 522.376 308.814 522.329 308.846 522.278C308.879 522.226 308.896 522.171 308.896 522.115V521.358H316.328V522.115C316.328 522.229 316.397 522.338 316.519 522.418C316.64 522.499 316.805 522.544 316.977 522.544H319.277C319.448 522.543 319.612 522.498 319.732 522.417C319.853 522.337 319.92 522.228 319.92 522.115V521.358H322.658V525.375C322.658 525.615 322.586 525.853 322.448 526.075C322.165 526.524 321.625 526.88 320.946 527.067C320.61 527.159 320.25 527.206 319.887 527.206L305.348 527.203ZM302.576 519.998V517.691C302.577 517.451 302.648 517.213 302.785 516.991C302.994 516.656 303.349 516.369 303.806 516.167C304.262 515.965 304.799 515.857 305.348 515.857H307.456V515.175C307.457 514.64 307.78 514.126 308.354 513.748C308.927 513.37 309.705 513.157 310.515 513.157H314.722C315.532 513.157 316.309 513.37 316.882 513.749C317.455 514.127 317.777 514.64 317.778 515.175V515.857H319.888C320.252 515.858 320.612 515.905 320.948 515.997C321.285 516.09 321.591 516.225 321.849 516.395C322.106 516.566 322.31 516.768 322.449 516.991C322.588 517.213 322.66 517.451 322.66 517.691V519.998H302.576ZM309.68 515.173V515.855H315.559V515.173C315.558 515.027 315.469 514.887 315.312 514.783C315.156 514.68 314.943 514.622 314.722 514.621H310.515C310.294 514.622 310.082 514.68 309.925 514.783C309.768 514.887 309.68 515.027 309.68 515.173Z" fill="white"/>
<path d="M312.669 461C313.164 461 313.647 460.853 314.058 460.579C314.469 460.304 314.79 459.914 314.979 459.457C315.168 459 315.218 458.497 315.121 458.012C315.025 457.527 314.787 457.082 314.437 456.732C314.088 456.383 313.642 456.145 313.157 456.048C312.672 455.952 312.17 456.001 311.713 456.19C311.256 456.38 310.865 456.7 310.591 457.111C310.316 457.522 310.169 458.006 310.169 458.5C310.169 459.163 310.433 459.799 310.902 460.268C311.371 460.737 312.006 461 312.669 461Z" fill="#231F20"/>
<text fill="#FF0000" xml:space="preserve" style="white-space: pre" font-family="Harmattan" font-size="18" letter-spacing="-0.03em"><tspan x="219.41" y="462.205">marital status</tspan></text>
<text fill="black" xml:space="preserve" style="white-space: pre" font-family="Harmattan" font-size="18" letter-spacing="-0.03em"><tspan x="154.741" y="462.205">Single</tspan></text>
<text fill="#FF0000" xml:space="preserve" style="white-space: pre" font-family="Arial" font-size="18" letter-spacing="-0.03em"><tspan x="198.49" y="463.74">:</tspan></text>
<text fill="#FF0000" xml:space="preserve" style="white-space: pre" font-family="Harmattan" font-size="16" letter-spacing="-0.03em"><tspan x="254.927" y="487.793">address&#10;</tspan></text>
<text fill="black" xml:space="preserve" style="white-space: pre" font-family="Harmattan" font-size="18" letter-spacing="-0.03em"><tspan x="17.9371" y="489.205">Al-Rahmaniyah - Mit Ghamr - Dakahlia</tspan></text>
<text fill="#FF0000" xml:space="preserve" style="white-space: pre" font-family="Harmattan" font-size="18" letter-spacing="-0.03em"><tspan x="246.281" y="489.205">:</tspan></text>
<path d="M312.669 413.442C313.164 413.442 313.647 413.266 314.058 412.937C314.469 412.607 314.79 412.139 314.979 411.59C315.168 411.042 315.218 410.439 315.121 409.857C315.025 409.275 314.787 408.741 314.437 408.321C314.088 407.902 313.642 407.616 313.157 407.5C312.672 407.384 312.17 407.444 311.713 407.671C311.256 407.898 310.865 408.282 310.591 408.776C310.316 409.269 310.169 409.849 310.169 410.442C310.169 411.238 310.433 412.001 310.902 412.564C311.371 413.126 312.006 413.442 312.669 413.442Z" fill="#231F20"/>
<text fill="#FF0000" xml:space="preserve" style="white-space: pre" font-family="Harmattan" font-size="17" letter-spacing="-0.03em"><tspan x="267.895" y="414.999">Name</tspan></text>
<text fill="#FF0000" xml:space="preserve" style="white-space: pre" font-family="Arial" font-size="18" letter-spacing="-0.03em"><tspan x="256.49" y="414.74">:</tspan></text>
<text fill="black" xml:space="preserve" style="white-space: pre" font-family="Harmattan" font-size="18" letter-spacing="-0.03em"><tspan x="16.9284" y="412.205">Mostafa Said Abdelwahab Abdelrahman</tspan></text>
<path d="M312.669 433C313.164 433 313.647 432.853 314.058 432.579C314.469 432.304 314.79 431.914 314.979 431.457C315.168 431 315.218 430.497 315.121 430.012C315.025 429.527 314.787 429.082 314.437 428.732C314.088 428.383 313.642 428.144 313.157 428.048C312.672 427.952 312.17 428.001 311.713 428.19C311.256 428.38 310.865 428.7 310.591 429.111C310.316 429.522 310.169 430.006 310.169 430.5C310.169 431.163 310.433 431.799 310.902 432.268C311.371 432.737 312.006 433 312.669 433Z" fill="#231F20"/>
<text fill="black" xml:space="preserve" style="white-space: pre" font-family="Harmattan" font-size="18" letter-spacing="-0.03em"><tspan x="94.973" y="438.205"> Twenty-four years</tspan></text>
<text fill="#2600FF" xml:space="preserve" style="white-space: pre" font-family="Harmattan" font-size="25" letter-spacing="-0.03em"><tspan x="222.277" y="437.645">24</tspan></text>
<text fill="#FF0000" xml:space="preserve" style="white-space: pre" font-family="Arial" font-size="18" letter-spacing="-0.03em"><tspan x="256.49" y="436.74">:</tspan></text>
<text fill="#FF0000" xml:space="preserve" style="white-space: pre" font-family="Harmattan" font-size="18" letter-spacing="-0.03em"><tspan x="278.288" y="440.205">age  </tspan></text>
<path d="M175.828 329.77C175.828 329.931 175.789 330.089 175.713 330.23C175.637 330.371 175.527 330.491 175.393 330.579C175.259 330.668 175.105 330.721 174.945 330.735C174.785 330.749 174.624 330.723 174.477 330.659C174.317 330.59 174.179 330.479 174.077 330.337C173.975 330.196 173.913 330.029 173.898 329.856C173.883 329.682 173.915 329.507 173.991 329.35C174.067 329.193 174.184 329.06 174.329 328.964C174.475 328.868 174.644 328.813 174.818 328.806C174.993 328.798 175.166 328.837 175.319 328.92C175.473 329.003 175.601 329.125 175.691 329.275C175.78 329.425 175.828 329.596 175.828 329.77Z" fill="#00AEEF" stroke="white" stroke-width="0.6"/>
<path d="M175.742 330.167C175.648 330.377 175.482 330.547 175.274 330.646C175.065 330.745 174.828 330.765 174.606 330.704C174.384 330.643 174.191 330.504 174.062 330.313C173.933 330.122 173.877 329.891 173.904 329.662C173.931 329.433 174.039 329.221 174.209 329.065C174.379 328.909 174.599 328.819 174.829 328.811C175.059 328.803 175.285 328.878 175.465 329.023C175.645 329.167 175.767 329.371 175.809 329.598C175.845 329.79 175.821 329.988 175.742 330.167Z" fill="#00AEEF" stroke="white" stroke-width="0.6"/>
<path d="M32.9961 333.534L30.6779 333.371L28.619 333.881L27.9961 332.242C29.4781 332.121 28.9519 332.107 30.2974 332.335C31.3944 331.905 30.9111 331.989 32.3793 331.881C32.9808 333.475 32.8549 333.152 32.9961 333.534Z" fill="#00AEEF" stroke="white" stroke-width="0.6"/>
<path d="M175.983 341.577C175.887 341.79 175.717 341.961 175.504 342.058C175.291 342.156 175.051 342.172 174.826 342.106C174.602 342.039 174.41 341.894 174.285 341.696C174.16 341.499 174.11 341.263 174.146 341.031C174.182 340.8 174.3 340.59 174.479 340.439C174.658 340.289 174.885 340.208 175.119 340.212C175.352 340.216 175.577 340.305 175.75 340.462C175.924 340.618 176.034 340.833 176.062 341.065C176.083 341.24 176.055 341.417 175.983 341.577Z" fill="#00AEEF" stroke="white" stroke-width="0.6"/>
<path d="M175.983 341.576C175.889 341.788 175.721 341.958 175.512 342.057C175.302 342.155 175.064 342.176 174.841 342.114C174.618 342.052 174.424 341.912 174.295 341.719C174.166 341.526 174.111 341.294 174.139 341.064C174.167 340.834 174.276 340.622 174.447 340.466C174.619 340.31 174.84 340.22 175.072 340.213C175.303 340.207 175.53 340.283 175.709 340.429C175.889 340.575 176.011 340.78 176.052 341.008C176.087 341.2 176.063 341.398 175.983 341.576Z" fill="#00AEEF" stroke="white" stroke-width="0.6"/>
<g filter="url(#filter0_d_0_1)">
<mask id="path-38-inside-1_0_1" fill="white">
<path d="M320.992 335L15.9922 335L180.033 335H320.992Z"/>
</mask>
<path d="M320.992 335L15.9922 335L180.033 335H320.992Z" fill="#231F20"/>
<path d="M320.992 335L15.9922 335L180.033 335H320.992Z" stroke="black" stroke-width="2" mask="url(#path-38-inside-1_0_1)"/>
</g>
<path d="M180.925 802.808H157.87C156.134 802.808 154.726 803.761 154.726 804.937V817.711C154.726 818.886 156.134 819.84 157.87 819.84H180.925C182.661 819.84 184.068 818.886 184.068 817.711V804.937C184.068 803.761 182.661 802.808 180.925 802.808Z" fill="#29B71C"/>
<path d="M178.828 817.001H159.966C159.688 817.001 159.421 816.927 159.225 816.793C159.028 816.66 158.918 816.48 158.918 816.292C158.918 816.103 159.028 815.923 159.225 815.79C159.421 815.657 159.688 815.582 159.966 815.582H178.828C179.106 815.582 179.373 815.657 179.569 815.79C179.766 815.923 179.876 816.103 179.876 816.292C179.876 816.48 179.766 816.66 179.569 816.793C179.373 816.927 179.106 817.001 178.828 817.001Z" fill="#EEEEEE"/>
<path d="M172.541 817.711C172.264 817.711 171.997 817.636 171.8 817.503C171.604 817.37 171.494 817.189 171.494 817.001V815.582C171.494 815.394 171.604 815.213 171.8 815.08C171.997 814.947 172.264 814.872 172.541 814.872C172.819 814.872 173.086 814.947 173.282 815.08C173.479 815.213 173.589 815.394 173.589 815.582V817.001C173.589 817.189 173.479 817.37 173.282 817.503C173.086 817.636 172.819 817.711 172.541 817.711Z" fill="#00AEEF"/>
<path d="M174.061 808.96L166.725 806.476C166.566 806.422 166.389 806.396 166.21 806.401C166.031 806.406 165.858 806.442 165.706 806.505C165.553 806.569 165.428 806.657 165.34 806.763C165.253 806.868 165.206 806.987 165.206 807.108V812.7C165.207 812.827 165.259 812.95 165.354 813.059C165.45 813.168 165.587 813.257 165.751 813.317C165.903 813.379 166.077 813.411 166.254 813.41C166.45 813.41 166.643 813.373 166.809 813.303L174.145 810.195C174.304 810.128 174.433 810.033 174.52 809.921C174.606 809.809 174.647 809.683 174.637 809.556C174.627 809.431 174.569 809.31 174.468 809.206C174.366 809.101 174.226 809.016 174.061 808.96Z" fill="#EEEEEE"/>
<path d="M157.87 802.808C157.036 802.808 156.237 803.032 155.647 803.431C155.057 803.83 154.726 804.372 154.726 804.937V817.711C154.726 818.275 155.057 818.817 155.647 819.216C156.237 819.615 157.036 819.84 157.87 819.84H169.397V802.808H157.87Z" fill="#E53935"/>
<path d="M159.966 815.582C159.688 815.582 159.421 815.657 159.225 815.79C159.028 815.923 158.918 816.103 158.918 816.292C158.918 816.48 159.028 816.66 159.225 816.793C159.421 816.927 159.688 817.001 159.966 817.001H169.397V815.582H159.966Z" fill="#FAFAFA"/>
<path d="M166.725 806.476C166.566 806.422 166.389 806.396 166.21 806.401C166.031 806.406 165.858 806.442 165.706 806.505C165.553 806.569 165.428 806.657 165.34 806.763C165.253 806.868 165.206 806.987 165.206 807.108V812.7C165.207 812.827 165.259 812.95 165.354 813.059C165.45 813.168 165.587 813.257 165.751 813.317C165.903 813.379 166.077 813.411 166.254 813.41C166.45 813.41 166.643 813.373 166.809 813.303L169.398 812.203V807.378L166.725 806.476Z" fill="#00AEEF"/>
<path d="M214.878 805.231H218.301L213.411 802V804.262C213.411 804.797 214.068 805.231 214.878 805.231Z" fill="#00AEEF"/>
<path d="M212.878 803.615H192.627V809.269H212.878C213.172 809.269 213.411 809.128 213.411 808.955V803.929C213.411 803.756 213.172 803.615 212.878 803.615Z" fill="#C6CACF"/>
<path d="M211.668 809.269H189.481C189.017 809.269 188.785 808.883 189.113 808.656L192.912 806.038L189.113 803.42C188.785 803.194 189.017 802.808 189.481 802.808H211.668C211.955 802.808 212.188 802.968 212.188 803.167V808.91C212.189 809.108 211.955 809.269 211.668 809.269Z" fill="#00AEEF"/>
<path d="M200.64 804.93H198.622C198.343 804.93 198.117 805.079 198.117 805.263V807.263C198.117 807.447 198.343 807.597 198.622 807.597C198.901 807.597 199.127 807.447 199.127 807.263V806.596H200.64C200.919 806.596 201.145 806.447 201.145 806.263V805.263C201.145 805.079 200.919 804.93 200.64 804.93ZM200.136 805.93H199.127V805.596H200.136V805.93Z" fill="white"/>
<path d="M203.163 804.93H202.154C201.875 804.93 201.649 805.079 201.649 805.263V807.263C201.649 807.447 201.875 807.597 202.154 807.597H204.172C204.451 807.597 204.677 807.447 204.677 807.263V805.93C204.677 805.378 203.998 804.93 203.163 804.93ZM203.668 806.93H202.659V805.596H203.163C203.441 805.596 203.668 805.746 203.668 805.93L203.668 806.93Z" fill="white"/>
<path d="M207.705 804.93H205.686C205.407 804.93 205.182 805.079 205.182 805.263V807.263C205.182 807.447 205.408 807.597 205.686 807.597C205.965 807.597 206.191 807.447 206.191 807.263V806.596H207.2C207.479 806.596 207.705 806.447 207.705 806.263C207.705 806.079 207.479 805.93 207.2 805.93H206.191V805.596H207.705C207.983 805.596 208.209 805.447 208.209 805.263C208.209 805.079 207.983 804.93 207.705 804.93Z" fill="white"/>
<path d="M212.914 820.577H198.014C197.74 820.577 197.517 820.42 197.517 820.227V810.427C197.517 810.234 197.74 810.077 198.014 810.077H212.914C213.189 810.077 213.411 810.234 213.411 810.427V820.227C213.411 820.42 213.189 820.577 212.914 820.577Z" fill="#C6CACF"/>
<path d="M198.511 819.877V810.077H198.014C197.74 810.077 197.517 810.234 197.517 810.427V820.227C197.517 820.42 197.74 820.577 198.014 820.577H212.914C213.189 820.577 213.411 820.42 213.411 820.227V819.877H198.511Z" fill="#00AEEF"/>
<path d="M211.718 818.961H206.546C206.286 818.961 206.075 818.806 206.075 818.615V814.461C206.075 814.27 206.286 814.115 206.546 814.115H211.718C211.978 814.115 212.188 814.27 212.188 814.461V818.615C212.188 818.806 211.978 818.961 211.718 818.961Z" fill="black"/>
<path d="M210.966 814.923H207.298V818.154H210.966V814.923Z" fill="#00AEEF"/>
<path d="M211.742 812.263H206.191C205.912 812.263 205.687 812.114 205.687 811.93C205.687 811.746 205.912 811.597 206.191 811.597H211.742C212.02 811.597 212.246 811.746 212.246 811.93C212.246 812.114 212.02 812.263 211.742 812.263Z" fill="#EF0000"/>
<path d="M211.742 813.596H206.191C205.912 813.596 205.687 813.447 205.687 813.263C205.687 813.079 205.912 812.93 206.191 812.93H211.742C212.02 812.93 212.246 813.079 212.246 813.263C212.246 813.447 212.02 813.596 211.742 813.596Z" fill="#EF0000"/>
<path d="M204.677 812.263H199.631C199.352 812.263 199.126 812.114 199.126 811.93C199.126 811.746 199.352 811.597 199.631 811.597H204.677C204.956 811.597 205.181 811.746 205.181 811.93C205.181 812.114 204.956 812.263 204.677 812.263Z" fill="#EF0000"/>
<path d="M204.677 813.596H199.631C199.352 813.596 199.126 813.447 199.126 813.263C199.126 813.079 199.352 812.93 199.631 812.93H204.677C204.955 812.93 205.181 813.079 205.181 813.263C205.181 813.447 204.955 813.596 204.677 813.596Z" fill="#EF0000"/>
<path d="M204.677 814.93H199.631C199.352 814.93 199.126 814.781 199.126 814.597C199.126 814.413 199.352 814.264 199.631 814.264H204.677C204.955 814.264 205.181 814.413 205.181 814.597C205.181 814.781 204.955 814.93 204.677 814.93Z" fill="#EF0000"/>
<path d="M204.677 816.263H199.631C199.352 816.263 199.126 816.114 199.126 815.93C199.126 815.746 199.352 815.597 199.631 815.597H204.677C204.955 815.597 205.181 815.746 205.181 815.93C205.181 816.114 204.955 816.263 204.677 816.263Z" fill="#EF0000"/>
<path d="M204.677 817.597H199.631C199.352 817.597 199.126 817.448 199.126 817.264C199.126 817.08 199.352 816.931 199.631 816.931H204.677C204.955 816.931 205.181 817.08 205.181 817.264C205.181 817.448 204.955 817.597 204.677 817.597Z" fill="#EF0000"/>
<path d="M204.677 818.93H199.631C199.352 818.93 199.126 818.781 199.126 818.597C199.126 818.413 199.352 818.264 199.631 818.264H204.677C204.955 818.264 205.181 818.413 205.181 818.597C205.181 818.781 204.955 818.93 204.677 818.93Z" fill="#EF0000"/>
<path d="M122.939 820.173V822.193H151.058V820.173L137.063 818.962L122.939 820.173Z" fill="#EEEEEE"/>
<path d="M122.939 818.557V820.576H151.058V818.557L137.063 817.346L122.939 818.557Z" fill="#DCDCDC"/>
<path d="M151.059 803.615V818.154H149.225L144.946 810.884L149.225 803.615H151.059Z" fill="#EEEEEE"/>
<path d="M149.836 803.615V804.844L145.406 810.884L149.836 816.925V818.154H122.939V803.615H149.836Z" fill="white"/>
<path d="M124.162 804.423V813.637L136.999 814.923L149.836 813.637V804.423H124.162Z" fill="#29B71C"/>
<path d="M137.61 806.038V809.269C138.285 809.269 138.833 808.546 138.833 807.653C138.833 806.761 138.285 806.038 137.61 806.038Z" fill="#FE5F1A"/>
<path d="M137.121 806.038C137.391 806.038 137.61 806.761 137.61 807.653C137.61 808.546 137.391 809.269 137.121 809.269C136.041 809.269 135.165 808.546 135.165 807.653C135.165 806.761 136.041 806.038 137.121 806.038Z" fill="#00AEEF"/>
<path d="M149.836 815.731L142.501 811.692L147.954 812.337L149.836 813.639L149.836 815.731Z" fill="#027372"/>
<path d="M146.87 812.568L143.382 810.885L138.888 812.568L136.387 814.23L142.156 817.346H149.836V815.108L146.87 812.568Z" fill="#E53935"/>
<path d="M148.613 812.443L147.588 812.5L143.723 811.305V809.27L148.613 812.443Z" fill="#EEEEEE"/>
<path d="M138.832 812.5L142.962 809.27L146.168 812.5L138.832 812.5Z" fill="white"/>
<path d="M141.278 817.346H139.042L130.274 811.692L135.131 812.364L141.278 817.346Z" fill="#027372"/>
<path d="M133.559 812.568L138.833 817.346H124.162V813.871L126.015 812.568L130.262 810.885L133.559 812.568Z" fill="#00AEEF"/>
<path d="M135.165 812.443L134.14 812.5L130.274 811.305V809.27L135.165 812.443Z" fill="#EEEEEE"/>
<path d="M125.384 812.5L130.202 809.27L133.943 812.5L125.384 812.5Z" fill="white"/>
<path d="M151.793 821.385C151.524 821.385 151.306 821.54 151.306 821.731V822.308H122.692V821.731C122.692 821.54 122.473 821.385 122.204 821.385C121.935 821.385 121.716 821.54 121.716 821.731V822.654C121.716 822.845 121.935 823 122.204 823H151.793C152.063 823 152.281 822.845 152.281 822.654V821.731C152.281 821.54 152.063 821.385 151.793 821.385Z" fill="#00AEEF"/>
<path d="M151.793 818.962C151.524 818.962 151.306 819.117 151.306 819.308V819.885H122.692V819.308C122.692 819.117 122.473 818.962 122.204 818.962C121.935 818.962 121.716 819.117 121.716 819.308V820.231C121.716 820.422 121.935 820.577 122.204 820.577H151.793C152.063 820.577 152.281 820.422 152.281 820.231V819.308C152.281 819.117 152.063 818.962 151.793 818.962Z" fill="#00AEEF"/>
<path d="M151.793 802.808H122.204C121.935 802.808 121.716 802.954 121.716 803.135V818.634C121.716 818.815 121.935 818.961 122.204 818.961H151.793C152.063 818.961 152.281 818.815 152.281 818.634V803.135C152.281 802.954 152.063 802.808 151.793 802.808ZM151.306 818.307H122.692V803.462H151.306V818.307Z" fill="#00AEEF"/>
<path d="M140.055 807.653C140.055 806.763 138.684 806.038 136.999 806.038C135.314 806.038 133.943 806.763 133.943 807.653C133.943 808.544 135.314 809.269 136.999 809.269C138.684 809.269 140.055 808.544 140.055 807.653ZM134.908 807.653C134.908 807.044 135.846 806.548 136.999 806.548C138.152 806.548 139.09 807.044 139.09 807.653C139.09 808.263 138.152 808.759 136.999 808.759C135.846 808.759 134.908 808.263 134.908 807.653Z" fill="black"/>
<path d="M122.939 817.014C122.939 817.197 123.169 817.346 123.453 817.346H150.544C150.828 817.346 151.058 817.197 151.058 817.014V803.947C151.058 803.764 150.828 803.615 150.544 803.615H123.453C123.169 803.615 122.939 803.764 122.939 803.947V806.605C122.939 806.788 123.169 806.937 123.453 806.937C123.737 806.937 123.967 806.788 123.967 806.605V804.28H150.03V812.668L144.135 808.862C143.934 808.732 143.608 808.732 143.408 808.862L136.999 813.001L130.589 808.862C130.388 808.732 130.063 808.732 129.862 808.862L123.967 812.668V807.934C123.967 807.75 123.737 807.602 123.453 807.602C123.169 807.602 122.939 807.75 122.939 807.934V817.014ZM143.771 809.566L147.245 811.809H140.298L143.771 809.566ZM130.226 809.566L133.699 811.809H126.752L130.226 809.566ZM125.724 812.474H134.728L136.634 813.705C136.636 813.706 140.064 815.92 140.064 815.92C140.165 815.985 140.296 816.017 140.428 816.017C140.56 816.017 140.691 815.985 140.792 815.92C140.993 815.79 140.993 815.58 140.792 815.45L137.726 813.47L139.269 812.474H148.274L150.03 813.608V816.682H123.967V813.608L125.724 812.474Z" fill="black"/>
<path fill-rule="evenodd" clip-rule="evenodd" d="M108.35 806.064C108.512 806.064 108.646 806.207 108.646 806.38V812.317H108.055V806.38C108.055 806.204 108.187 806.064 108.35 806.064Z" fill="#FFFFFE"/>
<g filter="url(#filter1_d_0_1)">
<mask id="path-85-inside-2_0_1" fill="white">
<path d="M301.996 799H45.9961V799H301.996V799Z"/>
</mask>
<path d="M301.996 799H45.9961V799H301.996V799Z" fill="#231F20"/>
<path d="M301.996 799H45.9961V799H301.996V799Z" stroke="black" stroke-width="0.6" mask="url(#path-85-inside-2_0_1)"/>
</g>
<text fill="#FF0000" xml:space="preserve" style="white-space: pre" font-family="Harmattan" font-size="9" font-weight="bold" letter-spacing="0px"><tspan x="160.795" y="728.352">Previous training during university studies</tspan></text>
<text fill="#FF0000" xml:space="preserve" style="white-space: pre" font-family="Arial" font-size="18" letter-spacing="-0.03em"><tspan x="146.49" y="729.74">:</tspan></text>
<text fill="black" xml:space="preserve" style="white-space: pre" font-family="Harmattan" font-size="13" font-weight="bold" letter-spacing="0px"><tspan x="65.3027" y="727.676">Field training in&#10;</tspan><tspan x="141.5" y="743.676">&#10;</tspan></text>
<text fill="#707070" xml:space="preserve" style="white-space: pre" font-family="Harmattan" font-size="11" font-weight="bold" letter-spacing="0px"><tspan x="38.7705" y="749.764">Egyptian public schools, where I achieved a score of 96%. Khaled </tspan><tspan x="39.6299" y="764.764">Ibn Al-Walid Elementary School in Mit Ghamr for the year 2022. </tspan><tspan x="28.8232" y="779.764">New Girls&#39; Secondary School in Mit Ghamr for another year in 2023</tspan></text>
<path d="M312.489 728.776C313.054 728.776 313.607 728.665 314.077 728.458C314.547 728.25 314.913 727.955 315.129 727.611C315.346 727.266 315.402 726.886 315.292 726.52C315.182 726.153 314.91 725.817 314.51 725.553C314.11 725.289 313.601 725.109 313.047 725.036C312.492 724.963 311.918 725.001 311.396 725.144C310.873 725.287 310.427 725.529 310.113 725.839C309.799 726.15 309.631 726.515 309.631 726.888C309.631 727.389 309.932 727.869 310.468 728.223C311.004 728.577 311.731 728.776 312.489 728.776Z" fill="#231F20"/>
<text fill="#FF0000" xml:space="preserve" style="white-space: pre" font-family="Arial" font-size="18" letter-spacing="-0.03em"><tspan x="226.49" y="580.74">:</tspan></text>
<rect x="235.5" y="564.5" width="71" height="19" stroke="#5500FF"/>
<text fill="#FF0000" xml:space="preserve" style="white-space: pre" font-family="Harmattan" font-size="13" font-weight="bold" letter-spacing="0px"><tspan x="239.561" y="576.676">  Current job</tspan></text>
<text fill="black" xml:space="preserve" style="white-space: pre" font-family="Harmattan" font-size="13" font-weight="bold" letter-spacing="0px"><tspan x="56.0645" y="577.676">Mathematics and computer science </tspan></text>
<text fill="black" xml:space="preserve" style="white-space: pre" font-family="Harmattan" font-size="8" font-weight="bold" letter-spacing="0px"><tspan x="44.0312" y="600.646">Mathematics and computer science teacher at the Martyr Mohamed El Shafei </tspan><tspan x="43.5547" y="624.646">Bayoumi School in Afifi village, Ministry of Education, Arab Republic of Egypt</tspan></text>
<path d="M312.489 574.776C313.054 574.776 313.607 574.665 314.077 574.458C314.547 574.25 314.913 573.955 315.129 573.611C315.346 573.266 315.402 572.886 315.292 572.52C315.182 572.153 314.91 571.817 314.51 571.553C314.11 571.289 313.601 571.109 313.047 571.036C312.492 570.963 311.918 571.001 311.396 571.144C310.873 571.287 310.427 571.529 310.113 571.839C309.799 572.15 309.631 572.515 309.631 572.888C309.631 573.389 309.932 573.869 310.468 574.223C311.004 574.577 311.731 574.776 312.489 574.776Z" fill="#231F20"/>
<path d="M283.415 603.699H283.377L282 602.341C282.644 602.561 283.358 602.675 284.083 602.675C284.808 602.675 285.522 602.561 286.167 602.341L284.785 603.699H284.756L288.139 610.716L291.222 607.192L294.652 609.406L296.809 606.632C294.781 604.321 291.595 602.551 287.802 601.627C289.251 600.706 290.384 599.589 291.121 598.352C291.931 597.015 292.366 595.592 292.403 594.152C292.443 592.336 291.586 590.56 289.963 589.094C289.32 588.451 288.446 587.922 287.418 587.557C286.391 587.191 285.242 587 284.075 587C282.908 587 281.759 587.191 280.731 587.557C279.704 587.922 278.829 588.451 278.187 589.094C276.563 590.56 275.707 592.336 275.746 594.152C275.785 595.592 276.221 597.015 277.033 598.352C277.773 599.589 278.909 600.706 280.363 601.626C273.838 603.044 269 607.893 269 611.489C269 613.617 276.537 614.677 284.079 614.677L279.853 611.054L283.415 603.699Z" fill="#71F200" stroke="#070505" stroke-width="0.5"/>
<path d="M284.093 614.69C286.239 614.694 288.382 614.602 290.508 614.415L287.027 612.17L284.093 614.69Z" fill="#71F200" stroke="#070505" stroke-width="0.5"/>
<path d="M299.73 605.809L295.133 611.734L291.611 609.462L289.575 611.78L295.955 615.902L302.549 607.418L299.73 605.809Z" fill="#71F200" stroke="#070505" stroke-width="0.5"/>
<text fill="#FF0000" xml:space="preserve" style="white-space: pre" font-family="Harmattan" font-size="13" font-weight="bold" letter-spacing="0px"><tspan x="244.355" y="662.676">Previous job</tspan></text>
<text fill="#FF0000" xml:space="preserve" style="white-space: pre" font-family="Arial" font-size="18" letter-spacing="-0.03em"><tspan x="231.49" y="666.74">:</tspan></text>
<text fill="black" xml:space="preserve" style="white-space: pre" font-family="Harmattan" font-size="13" font-weight="bold" letter-spacing="0px"><tspan x="25.1992" y="664.676">I worked in a printing press for four years.</tspan></text>
<path d="M312.858 663.776C313.423 663.776 313.976 663.665 314.446 663.458C314.916 663.25 315.282 662.955 315.498 662.611C315.714 662.266 315.771 661.886 315.661 661.52C315.55 661.153 315.278 660.817 314.879 660.553C314.479 660.289 313.97 660.109 313.415 660.036C312.861 659.963 312.286 660.001 311.764 660.144C311.242 660.287 310.796 660.529 310.482 660.839C310.168 661.15 310 661.515 310 661.888C310 662.389 310.301 662.869 310.837 663.223C311.373 663.577 312.1 663.776 312.858 663.776Z" fill="#231F20"/>
<path d="M283.415 689.699H283.377L282 688.341C282.644 688.561 283.358 688.675 284.083 688.675C284.808 688.675 285.522 688.561 286.167 688.341L284.785 689.699H284.756L288.139 696.716L291.222 693.192L294.652 695.406L296.809 692.632C294.781 690.321 291.595 688.551 287.802 687.627C289.251 686.706 290.384 685.589 291.121 684.352C291.931 683.015 292.366 681.592 292.403 680.152C292.443 678.336 291.586 676.56 289.963 675.094C289.32 674.451 288.446 673.922 287.418 673.557C286.391 673.191 285.242 673 284.075 673C282.908 673 281.759 673.191 280.731 673.557C279.704 673.922 278.829 674.451 278.187 675.094C276.563 676.56 275.707 678.336 275.746 680.152C275.785 681.592 276.221 683.015 277.033 684.352C277.773 685.589 278.909 686.706 280.363 687.626C273.838 689.044 269 693.893 269 697.489C269 699.617 276.537 700.677 284.079 700.677L279.853 697.054L283.415 689.699Z" fill="#71F200" stroke="#070505" stroke-width="0.5"/>
<path d="M284.093 700.69C286.239 700.694 288.382 700.602 290.508 700.415L287.027 698.17L284.093 700.69Z" fill="#71F200" stroke="#070505" stroke-width="0.5"/>
<defs>
<filter id="filter0_d_0_1" x="11.9922" y="334" width="313" height="10" filterUnits="userSpaceOnUse" color-interpolation-filters="sRGB">
<feFlood flood-opacity="0" result="BackgroundImageFix"/>
<feColorMatrix in="SourceAlpha" type="matrix" values="0 0 0 0 0 0 0 0 0 0 0 0 0 0 0 0 0 0 127 0" result="hardAlpha"/>
<feOffset dy="4"/>
<feGaussianBlur stdDeviation="2"/>
<feComposite in2="hardAlpha" operator="out"/>
<feColorMatrix type="matrix" values="0 0 0 0 0 0 0 0 0 0 0 0 0 0 0 0 0 0 0.25 0"/>
<feBlend mode="normal" in2="BackgroundImageFix" result="effect1_dropShadow_0_1"/>
<feBlend mode="normal" in="SourceGraphic" in2="effect1_dropShadow_0_1" result="shape"/>
</filter>
<filter id="filter1_d_0_1" x="41.9961" y="798.7" width="264" height="8.59961" filterUnits="userSpaceOnUse" color-interpolation-filters="sRGB">
<feFlood flood-opacity="0" result="BackgroundImageFix"/>
<feColorMatrix in="SourceAlpha" type="matrix" values="0 0 0 0 0 0 0 0 0 0 0 0 0 0 0 0 0 0 127 0" result="hardAlpha"/>
<feOffset dy="4"/>
<feGaussianBlur stdDeviation="2"/>
<feComposite in2="hardAlpha" operator="out"/>
<feColorMatrix type="matrix" values="0 0 0 0 0 0 0 0 0 0 0 0 0 0 0 0 0 0 0.25 0"/>
<feBlend mode="normal" in2="BackgroundImageFix" result="effect1_dropShadow_0_1"/>
<feBlend mode="normal" in="SourceGraphic" in2="effect1_dropShadow_0_1" result="shape"/>
</filter>
</defs>
</svg>
