<svg width="344" height="377" viewBox="0 0 344 377" fill="none" xmlns="http://www.w3.org/2000/svg">
<rect width="344" height="377" fill="#F5F5F5"/>
<path d="M0.246094 60L0.246072 121" stroke="white"/>
<path d="M316.449 1L313.613 3.93501L311.44 2.8102L310.187 3.95773L314.127 6L318.187 1.7989L316.449 1Z" fill="white"/>
<path d="M301.625 25.2485C302.489 25.2485 303.333 25.0793 304.051 24.7624C304.768 24.4455 305.328 23.9951 305.658 23.4681C305.989 22.9411 306.075 22.3613 305.907 21.8018C305.738 21.2424 305.323 20.7285 304.712 20.3252C304.102 19.9218 303.324 19.6472 302.477 19.5359C301.63 19.4246 300.752 19.4817 299.955 19.7C299.157 19.9183 298.475 20.2879 297.995 20.7622C297.516 21.2365 297.26 21.7941 297.26 22.3645C297.26 23.1294 297.72 23.8629 298.538 24.4038C299.357 24.9446 300.467 25.2485 301.625 25.2485Z" fill="#00AEEF"/>
<path d="M303.141 38.912C307.468 38.9116 311.699 38.0634 315.297 36.4748C318.895 34.8861 321.699 32.6282 323.355 29.9867C325.01 27.3452 325.443 24.4386 324.599 21.6345C323.754 18.8305 321.67 16.2549 318.609 14.2334C315.549 12.2119 311.65 10.8353 307.406 10.2776C303.161 9.72 298.761 10.0064 294.763 11.1006C290.765 12.1948 287.348 14.0477 284.943 16.4249C282.539 18.8021 281.256 21.597 281.256 24.456C281.256 26.3546 281.822 28.2345 282.922 29.9885C284.022 31.7425 285.634 33.3363 287.666 34.6786C289.698 36.021 292.111 37.0858 294.766 37.8122C297.421 38.5385 300.267 38.9123 303.141 38.912Z" fill="#00AEEF" stroke="#707070"/>
<path d="M312.354 28.1751C306.163 29.4381 299.54 29.4381 293.35 28.1751L294.621 21.4531H311.075C312.39 28.3941 312.207 27.4141 312.354 28.1751Z" fill="#00AEEF" stroke="white" stroke-width="0.6"/>
<path d="M312.244 27.6161C307.365 28.3574 302.292 28.3358 297.428 27.5531C296.906 27.4681 296.449 27.2593 296.144 26.9663C295.84 26.6733 295.709 26.3167 295.777 25.9641L296.632 21.4541H311.075L312.244 27.6161Z" fill="#00AEEF" stroke="white" stroke-width="0.6"/>
<path d="M319.662 19.4851L302.851 23.3481L286.04 19.4851L302.851 15.6221L319.662 19.4851Z" fill="#00AEEF" stroke="white" stroke-width="0.6"/>
<path d="M316.512 18.761L302.851 21.902L289.19 18.764L302.851 15.625L316.512 18.761Z" fill="#00AEEF" stroke="white" stroke-width="0.6"/>
<path d="M288.963 23.8308V20.3258C288.962 20.2055 289.029 20.0893 289.151 19.9999C289.273 19.9106 289.441 19.8545 289.622 19.8428L301.317 19.0898C301.506 19.0821 301.693 19.123 301.838 19.2041C301.982 19.2852 302.074 19.4001 302.094 19.5248C302.113 19.6496 302.059 19.7745 301.942 19.8734C301.826 19.9724 301.656 20.0377 301.468 20.0558L290.432 20.7658V23.8318C290.432 23.9599 290.355 24.0827 290.218 24.1733C290.08 24.2639 289.894 24.3148 289.701 24.3148C289.507 24.3148 289.321 24.2639 289.184 24.1733C289.046 24.0827 288.969 23.9599 288.969 23.8318L288.963 23.8308Z" fill="#00AEEF" stroke="white" stroke-width="0.6"/>
<path d="M291.156 24.8022V26.7362H288.234V24.8022C288.228 24.6729 288.261 24.5441 288.33 24.4232C288.402 24.3025 288.509 24.1924 288.645 24.0993C288.782 24.0062 288.945 23.9321 289.125 23.8812C289.397 23.8051 289.697 23.7852 289.986 23.8241C290.275 23.863 290.54 23.9589 290.745 24.0992C290.882 24.192 290.989 24.3022 291.06 24.4232C291.129 24.5441 291.162 24.6729 291.156 24.8022Z" fill="#00AEEF" stroke="white" stroke-width="0.6"/>
<path d="M291.156 24.8018V26.2508C290.868 26.2509 290.583 26.2136 290.316 26.1408C290.05 26.068 289.809 25.9613 289.605 25.8268C289.401 25.6923 289.24 25.5326 289.13 25.3568C289.019 25.1808 288.963 24.9922 288.963 24.8018C288.906 24.506 288.951 24.2054 289.095 23.9228C289.317 23.8567 289.561 23.8285 289.804 23.8406C290.048 23.8528 290.282 23.9049 290.487 23.9922C290.692 24.0796 290.861 24.1994 290.978 24.3408C291.094 24.4822 291.156 24.6407 291.156 24.8018Z" fill="#00AEEF" stroke="white" stroke-width="0.6"/>
<path d="M307.332 31.885C306.25 32.485 306.536 32.199 306.03 33.116C304.642 33.28 305.11 33.116 303.976 33.749C302.588 33.416 303.106 33.454 301.706 33.619C300.797 32.904 301.238 33.093 299.85 32.759C299.602 31.837 299.85 32.146 298.892 31.397C299.374 30.523 299.346 30.866 299.088 29.905C300.221 29.277 299.907 29.553 300.39 28.674C301.752 28.524 301.333 28.674 302.444 28.041C303.832 28.374 303.315 28.336 304.715 28.171C305.623 28.886 305.182 28.697 306.571 29.031C306.819 29.953 306.571 29.644 307.529 30.393C307.047 31.267 307.076 30.921 307.332 31.885Z" fill="#00AEEF" stroke="white" stroke-width="0.6"/>
<path d="M343.246 60L343.246 121" stroke="white"/>
<path d="M343.246 60L343.246 121" stroke="white"/>
<path d="M255.275 11.5625H89.2461V39.1525H255.275V11.5625Z" fill="#00AEEF"/>
<text fill="#FEFEFE" xml:space="preserve" style="white-space: pre" font-family="Harmattan" font-size="20" font-weight="bold" letter-spacing="0.11em"><tspan x="90" y="29.1162">University degree</tspan></text>
<path d="M227.023 59H117.977C113.019 59 109 62.1078 109 65.9414V70.0586C109 73.8922 113.019 77 117.977 77H227.023C231.981 77 236 73.8922 236 70.0586V65.9414C236 62.1078 231.981 59 227.023 59Z" fill="#A6DBEC"/>
<path d="M203.934 136H141.066C134.954 136 130 139.652 130 144.156V144.844C130 149.348 134.954 153 141.066 153H203.934C210.046 153 215 149.348 215 144.844V144.156C215 139.652 210.046 136 203.934 136Z" fill="#A6DBEC"/>
<path d="M203.747 239H145.745C141.051 239 137.246 242.007 137.246 245.717V246.283C137.246 249.993 141.051 253 145.745 253H203.747C208.441 253 212.246 249.993 212.246 246.283V245.717C212.246 242.007 208.441 239 203.747 239Z" fill="#A6DBEC"/>
<path d="M217.157 293H124.335C118.763 293 114.246 296.866 114.246 301.636V302.364C114.246 307.134 118.763 311 124.335 311H217.157C222.729 311 227.246 307.134 227.246 302.364V301.636C227.246 296.866 222.729 293 217.157 293Z" fill="#A6DBEC"/>
<text fill="black" xml:space="preserve" style="white-space: pre" font-family="Harmattan" font-size="13" font-weight="bold" letter-spacing="0em"><tspan x="137" y="213.676">Graduate 2024</tspan></text>
<text fill="black" xml:space="preserve" style="white-space: pre" font-family="Harmattan" font-size="5.2" font-weight="bold" letter-spacing="0em"><tspan x="73" y="192.37">Bachelor of Specific Education, Mansoura University, Computer Teacher Preparation Department, 2024</tspan></text>
<text fill="black" xml:space="preserve" style="white-space: pre" font-family="Almarai" font-size="13" letter-spacing="0em"><tspan x="90" y="108.011">College of Specific Education</tspan></text>
<text fill="black" xml:space="preserve" style="white-space: pre" font-family="Almarai" font-size="13" letter-spacing="0em"><tspan x="113.246" y="72.011">Mansoura University</tspan></text>
<text fill="black" xml:space="preserve" style="white-space: pre" font-family="Almarai" font-size="13" letter-spacing="0em"><tspan x="139" y="148.011">Department</tspan></text>
<text fill="black" xml:space="preserve" style="white-space: pre" font-family="Harmattan" font-size="13" font-weight="500" letter-spacing="0em"><tspan x="143" y="248.676">general grade</tspan></text>
<text fill="black" xml:space="preserve" style="white-space: pre" font-family="Harmattan" font-size="13" font-weight="500" letter-spacing="0em"><tspan x="127" y="304.676">Graduation Project</tspan></text>
<text fill="black" xml:space="preserve" style="white-space: pre" font-family="Harmattan" font-size="14" font-weight="500" letter-spacing="0em"><tspan x="86" y="182.881">Computer Science, New Regulations</tspan></text>
<text fill="black" xml:space="preserve" style="white-space: pre" font-family="Harmattan" font-size="13" font-weight="500" letter-spacing="0em"><tspan x="119" y="273.676">Very Good with Honors</tspan></text>
<text fill="black" xml:space="preserve" style="white-space: pre" font-family="Harmattan" font-size="13" font-weight="500" letter-spacing="0em"><tspan x="86" y="332.176">Obtained 96% in the graduation project</tspan></text>
<path d="M73.2461 194H269.246Z" fill="black"/>
<path d="M73.2461 194H269.246" stroke="#3B1919" stroke-width="0.1"/>
<path d="M73.2461 188H269.246Z" fill="black"/>
<path d="M73.2461 188H269.246" stroke="#3B1919" stroke-width="0.1"/>
<path d="M234.241 362.364C234.185 362.11 233.938 361.952 233.708 362.013C233.572 362.074 233.467 362.162 233.408 362.264C233.35 362.366 233.34 362.477 233.38 362.583L233.422 362.771L233.853 362.661L233.427 362.775C233.442 362.852 233.48 362.926 233.539 362.993C233.579 363.045 233.632 363.103 233.69 363.171C233.914 363.405 234.113 363.649 234.285 363.902C234.415 364.124 234.687 364.191 234.89 364.052C234.998 363.961 235.068 363.853 235.092 363.738C235.116 363.624 235.095 363.507 235.031 363.4C234.83 363.092 234.592 362.794 234.321 362.51C234.28 362.465 234.274 362.487 234.265 362.48L234.241 362.364Z" fill="#FFFFFE"/>
<path d="M232.815 363.758C232.759 364.012 232.513 364.17 232.282 364.109C231.728 363.968 231.957 363.284 232.26 362.953C232.484 362.719 232.683 362.475 232.855 362.222C232.985 362 233.257 361.933 233.46 362.072C233.568 362.164 233.637 362.272 233.661 362.386C233.685 362.501 233.665 362.617 233.601 362.724C233.419 363.034 232.844 363.574 232.809 363.758H232.815Z" fill="#FFFFFE"/>
<path d="M194.175 356.808H171.12C169.384 356.808 167.976 357.761 167.976 358.937V371.711C167.976 372.886 169.384 373.84 171.12 373.84H194.175C195.911 373.84 197.318 372.886 197.318 371.711V358.937C197.318 357.761 195.911 356.808 194.175 356.808Z" fill="#29B71C"/>
<path d="M192.078 371.001H173.216C172.938 371.001 172.671 370.927 172.475 370.793C172.278 370.66 172.168 370.48 172.168 370.292C172.168 370.103 172.278 369.923 172.475 369.79C172.671 369.657 172.938 369.582 173.216 369.582H192.078C192.356 369.582 192.623 369.657 192.819 369.79C193.016 369.923 193.126 370.103 193.126 370.292C193.126 370.48 193.016 370.66 192.819 370.793C192.623 370.927 192.356 371.001 192.078 371.001Z" fill="#EEEEEE"/>
<path d="M185.791 371.711C185.514 371.711 185.247 371.636 185.05 371.503C184.854 371.37 184.744 371.189 184.744 371.001V369.582C184.744 369.394 184.854 369.213 185.05 369.08C185.247 368.947 185.514 368.872 185.791 368.872C186.069 368.872 186.336 368.947 186.532 369.08C186.729 369.213 186.839 369.394 186.839 369.582V371.001C186.839 371.189 186.729 371.37 186.532 371.503C186.336 371.636 186.069 371.711 185.791 371.711Z" fill="#00AEEF"/>
<path d="M187.311 362.96L179.975 360.476C179.816 360.422 179.639 360.396 179.46 360.401C179.281 360.406 179.108 360.442 178.956 360.505C178.803 360.569 178.678 360.657 178.59 360.763C178.503 360.868 178.456 360.987 178.456 361.108V366.7C178.457 366.827 178.509 366.95 178.604 367.059C178.7 367.168 178.837 367.257 179.001 367.317C179.153 367.379 179.327 367.411 179.504 367.41C179.7 367.41 179.893 367.373 180.059 367.303L187.395 364.195C187.554 364.128 187.683 364.033 187.77 363.921C187.856 363.809 187.897 363.683 187.887 363.556C187.877 363.431 187.819 363.31 187.718 363.206C187.616 363.101 187.476 363.016 187.311 362.96Z" fill="#EEEEEE"/>
<path d="M171.12 356.808C170.286 356.808 169.487 357.032 168.897 357.431C168.307 357.83 167.976 358.372 167.976 358.937V371.711C167.976 372.275 168.307 372.817 168.897 373.216C169.487 373.615 170.286 373.84 171.12 373.84H182.647V356.808H171.12Z" fill="#E53935"/>
<path d="M173.216 369.582C172.938 369.582 172.671 369.657 172.475 369.79C172.278 369.923 172.168 370.103 172.168 370.292C172.168 370.48 172.278 370.66 172.475 370.793C172.671 370.927 172.938 371.001 173.216 371.001H182.647V369.582H173.216Z" fill="#FAFAFA"/>
<path d="M179.975 360.476C179.816 360.422 179.639 360.396 179.46 360.401C179.281 360.406 179.108 360.442 178.956 360.505C178.803 360.569 178.678 360.657 178.59 360.763C178.503 360.868 178.456 360.987 178.456 361.108V366.7C178.457 366.827 178.509 366.95 178.604 367.059C178.7 367.168 178.837 367.257 179.001 367.317C179.153 367.379 179.327 367.411 179.504 367.41C179.7 367.41 179.893 367.373 180.059 367.303L182.648 366.203V361.378L179.975 360.476Z" fill="#00AEEF"/>
<path d="M228.128 359.231H231.551L226.661 356V358.262C226.661 358.797 227.318 359.231 228.128 359.231Z" fill="#00AEEF"/>
<path d="M226.128 357.615H205.877V363.269H226.128C226.422 363.269 226.661 363.128 226.661 362.955V357.929C226.661 357.756 226.422 357.615 226.128 357.615Z" fill="#C6CACF"/>
<path d="M224.918 363.269H202.731C202.267 363.269 202.035 362.883 202.363 362.656L206.162 360.038L202.363 357.42C202.035 357.194 202.267 356.808 202.731 356.808H224.918C225.205 356.808 225.438 356.968 225.438 357.167V362.91C225.439 363.108 225.205 363.269 224.918 363.269Z" fill="#00AEEF"/>
<path d="M213.89 358.93H211.872C211.593 358.93 211.367 359.079 211.367 359.263V361.263C211.367 361.447 211.593 361.597 211.872 361.597C212.151 361.597 212.377 361.447 212.377 361.263V360.596H213.89C214.169 360.596 214.395 360.447 214.395 360.263V359.263C214.395 359.079 214.169 358.93 213.89 358.93ZM213.386 359.93H212.377V359.596H213.386V359.93Z" fill="white"/>
<path d="M216.413 358.93H215.404C215.125 358.93 214.899 359.079 214.899 359.263V361.263C214.899 361.447 215.125 361.597 215.404 361.597H217.422C217.701 361.597 217.927 361.447 217.927 361.263V359.93C217.927 359.378 217.248 358.93 216.413 358.93ZM216.918 360.93H215.909V359.596H216.413C216.691 359.596 216.918 359.746 216.918 359.93L216.918 360.93Z" fill="white"/>
<path d="M220.955 358.93H218.936C218.657 358.93 218.432 359.079 218.432 359.263V361.263C218.432 361.447 218.658 361.597 218.936 361.597C219.215 361.597 219.441 361.447 219.441 361.263V360.596H220.45C220.729 360.596 220.955 360.447 220.955 360.263C220.955 360.079 220.729 359.93 220.45 359.93H219.441V359.596H220.955C221.233 359.596 221.459 359.447 221.459 359.263C221.459 359.079 221.233 358.93 220.955 358.93Z" fill="white"/>
<path d="M226.164 374.577H211.264C210.99 374.577 210.767 374.42 210.767 374.227V364.427C210.767 364.234 210.99 364.077 211.264 364.077H226.164C226.439 364.077 226.661 364.234 226.661 364.427V374.227C226.661 374.42 226.439 374.577 226.164 374.577Z" fill="#C6CACF"/>
<path d="M211.761 373.877V364.077H211.264C210.99 364.077 210.767 364.234 210.767 364.427V374.227C210.767 374.42 210.99 374.577 211.264 374.577H226.164C226.439 374.577 226.661 374.42 226.661 374.227V373.877H211.761Z" fill="#00AEEF"/>
<path d="M224.968 372.961H219.796C219.536 372.961 219.325 372.806 219.325 372.615V368.461C219.325 368.27 219.536 368.115 219.796 368.115H224.968C225.228 368.115 225.438 368.27 225.438 368.461V372.615C225.438 372.806 225.228 372.961 224.968 372.961Z" fill="black"/>
<path d="M224.216 368.923H220.548V372.154H224.216V368.923Z" fill="#00AEEF"/>
<path d="M224.992 366.263H219.441C219.162 366.263 218.937 366.114 218.937 365.93C218.937 365.746 219.162 365.597 219.441 365.597H224.992C225.27 365.597 225.496 365.746 225.496 365.93C225.496 366.114 225.27 366.263 224.992 366.263Z" fill="#EF0000"/>
<path d="M224.992 367.596H219.441C219.162 367.596 218.937 367.447 218.937 367.263C218.937 367.079 219.162 366.93 219.441 366.93H224.992C225.27 366.93 225.496 367.079 225.496 367.263C225.496 367.447 225.27 367.596 224.992 367.596Z" fill="#EF0000"/>
<path d="M217.927 366.263H212.881C212.602 366.263 212.376 366.114 212.376 365.93C212.376 365.746 212.602 365.597 212.881 365.597H217.927C218.206 365.597 218.431 365.746 218.431 365.93C218.431 366.114 218.206 366.263 217.927 366.263Z" fill="#EF0000"/>
<path d="M217.927 367.596H212.881C212.602 367.596 212.376 367.447 212.376 367.263C212.376 367.079 212.602 366.93 212.881 366.93H217.927C218.205 366.93 218.431 367.079 218.431 367.263C218.431 367.447 218.205 367.596 217.927 367.596Z" fill="#EF0000"/>
<path d="M217.927 368.93H212.881C212.602 368.93 212.376 368.781 212.376 368.597C212.376 368.413 212.602 368.264 212.881 368.264H217.927C218.205 368.264 218.431 368.413 218.431 368.597C218.431 368.781 218.205 368.93 217.927 368.93Z" fill="#EF0000"/>
<path d="M217.927 370.263H212.881C212.602 370.263 212.376 370.114 212.376 369.93C212.376 369.746 212.602 369.597 212.881 369.597H217.927C218.205 369.597 218.431 369.746 218.431 369.93C218.431 370.114 218.205 370.263 217.927 370.263Z" fill="#EF0000"/>
<path d="M217.927 371.597H212.881C212.602 371.597 212.376 371.448 212.376 371.264C212.376 371.08 212.602 370.931 212.881 370.931H217.927C218.205 370.931 218.431 371.08 218.431 371.264C218.431 371.448 218.205 371.597 217.927 371.597Z" fill="#EF0000"/>
<path d="M217.927 372.93H212.881C212.602 372.93 212.376 372.781 212.376 372.597C212.376 372.413 212.602 372.264 212.881 372.264H217.927C218.205 372.264 218.431 372.413 218.431 372.597C218.431 372.781 218.205 372.93 217.927 372.93Z" fill="#EF0000"/>
<path d="M136.189 374.173V376.193H164.308V374.173L150.313 372.962L136.189 374.173Z" fill="#EEEEEE"/>
<path d="M136.189 372.557V374.576H164.308V372.557L150.313 371.346L136.189 372.557Z" fill="#DCDCDC"/>
<path d="M164.309 357.615V372.154H162.475L158.196 364.884L162.475 357.615H164.309Z" fill="#EEEEEE"/>
<path d="M163.086 357.615V358.844L158.656 364.884L163.086 370.925V372.154H136.189V357.615H163.086Z" fill="white"/>
<path d="M137.412 358.423V367.637L150.249 368.923L163.086 367.637V358.423H137.412Z" fill="#29B71C"/>
<path d="M150.86 360.038V363.269C151.535 363.269 152.083 362.546 152.083 361.653C152.083 360.761 151.535 360.038 150.86 360.038Z" fill="#FE5F1A"/>
<path d="M150.371 360.038C150.641 360.038 150.86 360.761 150.86 361.653C150.86 362.546 150.641 363.269 150.371 363.269C149.291 363.269 148.415 362.546 148.415 361.653C148.415 360.761 149.291 360.038 150.371 360.038Z" fill="#00AEEF"/>
<path d="M163.086 369.731L155.751 365.692L161.204 366.337L163.086 367.639L163.086 369.731Z" fill="#027372"/>
<path d="M160.12 366.568L156.632 364.885L152.138 366.568L149.637 368.23L155.406 371.346H163.086V369.108L160.12 366.568Z" fill="#E53935"/>
<path d="M161.863 366.443L160.838 366.5L156.973 365.305V363.27L161.863 366.443Z" fill="#EEEEEE"/>
<path d="M152.082 366.5L156.212 363.27L159.418 366.5L152.082 366.5Z" fill="white"/>
<path d="M154.528 371.346H152.292L143.524 365.692L148.381 366.364L154.528 371.346Z" fill="#027372"/>
<path d="M146.809 366.568L152.083 371.346H137.412V367.871L139.265 366.568L143.512 364.885L146.809 366.568Z" fill="#00AEEF"/>
<path d="M148.415 366.443L147.39 366.5L143.524 365.305V363.27L148.415 366.443Z" fill="#EEEEEE"/>
<path d="M138.634 366.5L143.452 363.27L147.193 366.5L138.634 366.5Z" fill="white"/>
<path d="M165.043 375.385C164.774 375.385 164.556 375.54 164.556 375.731V376.308H135.942V375.731C135.942 375.54 135.723 375.385 135.454 375.385C135.185 375.385 134.966 375.54 134.966 375.731V376.654C134.966 376.845 135.185 377 135.454 377H165.043C165.313 377 165.531 376.845 165.531 376.654V375.731C165.531 375.54 165.313 375.385 165.043 375.385Z" fill="#00AEEF"/>
<path d="M165.043 372.962C164.774 372.962 164.556 373.117 164.556 373.308V373.885H135.942V373.308C135.942 373.117 135.723 372.962 135.454 372.962C135.185 372.962 134.966 373.117 134.966 373.308V374.231C134.966 374.422 135.185 374.577 135.454 374.577H165.043C165.313 374.577 165.531 374.422 165.531 374.231V373.308C165.531 373.117 165.313 372.962 165.043 372.962Z" fill="#00AEEF"/>
<path d="M165.043 356.808H135.454C135.185 356.808 134.966 356.954 134.966 357.135V372.634C134.966 372.815 135.185 372.961 135.454 372.961H165.043C165.313 372.961 165.531 372.815 165.531 372.634V357.135C165.531 356.954 165.313 356.808 165.043 356.808ZM164.556 372.307H135.942V357.462H164.556V372.307Z" fill="#00AEEF"/>
<path d="M153.305 361.653C153.305 360.763 151.934 360.038 150.249 360.038C148.564 360.038 147.193 360.763 147.193 361.653C147.193 362.544 148.564 363.269 150.249 363.269C151.934 363.269 153.305 362.544 153.305 361.653ZM148.158 361.653C148.158 361.044 149.096 360.548 150.249 360.548C151.402 360.548 152.34 361.044 152.34 361.653C152.34 362.263 151.402 362.759 150.249 362.759C149.096 362.759 148.158 362.263 148.158 361.653Z" fill="black"/>
<path d="M136.189 371.014C136.189 371.197 136.419 371.346 136.703 371.346H163.794C164.078 371.346 164.308 371.197 164.308 371.014V357.947C164.308 357.764 164.078 357.615 163.794 357.615H136.703C136.419 357.615 136.189 357.764 136.189 357.947V360.605C136.189 360.788 136.419 360.937 136.703 360.937C136.987 360.937 137.217 360.788 137.217 360.605V358.28H163.28V366.668L157.385 362.862C157.184 362.732 156.858 362.732 156.658 362.862L150.249 367.001L143.839 362.862C143.638 362.732 143.313 362.732 143.112 362.862L137.217 366.668V361.934C137.217 361.75 136.987 361.602 136.703 361.602C136.419 361.602 136.189 361.75 136.189 361.934V371.014ZM157.021 363.566L160.495 365.809H153.548L157.021 363.566ZM143.476 363.566L146.949 365.809H140.002L143.476 363.566ZM138.974 366.474H147.978L149.884 367.705C149.886 367.706 153.314 369.92 153.314 369.92C153.415 369.985 153.546 370.017 153.678 370.017C153.81 370.017 153.941 369.985 154.042 369.92C154.243 369.79 154.243 369.58 154.042 369.45L150.976 367.47L152.519 366.474H161.524L163.28 367.608V370.682H137.217V367.608L138.974 366.474Z" fill="black"/>
<path fill-rule="evenodd" clip-rule="evenodd" d="M121.6 360.064C121.762 360.064 121.896 360.207 121.896 360.38V366.317H121.305V360.38C121.305 360.204 121.437 360.064 121.6 360.064Z" fill="#FFFFFE"/>
<g filter="url(#filter0_d_0_1)">
<mask id="path-83-inside-1_0_1" fill="white">
<path d="M315.246 353H59.2461V353H315.246V353Z"/>
</mask>
<path d="M315.246 353H59.2461V353H315.246V353Z" fill="#231F20"/>
<path d="M315.246 353H59.2461V353H315.246V353Z" stroke="black" stroke-width="0.6" mask="url(#path-83-inside-1_0_1)"/>
</g>
<defs>
<filter id="filter0_d_0_1" x="55.2461" y="352.7" width="264" height="8.59961" filterUnits="userSpaceOnUse" color-interpolation-filters="sRGB">
<feFlood flood-opacity="0" result="BackgroundImageFix"/>
<feColorMatrix in="SourceAlpha" type="matrix" values="0 0 0 0 0 0 0 0 0 0 0 0 0 0 0 0 0 0 127 0" result="hardAlpha"/>
<feOffset dy="4"/>
<feGaussianBlur stdDeviation="2"/>
<feComposite in2="hardAlpha" operator="out"/>
<feColorMatrix type="matrix" values="0 0 0 0 0 0 0 0 0 0 0 0 0 0 0 0 0 0 0.25 0"/>
<feBlend mode="normal" in2="BackgroundImageFix" result="effect1_dropShadow_0_1"/>
<feBlend mode="normal" in="SourceGraphic" in2="effect1_dropShadow_0_1" result="shape"/>
</filter>
</defs>
</svg>
