<svg width="344" height="452" viewBox="0 0 344 452" fill="none" xmlns="http://www.w3.org/2000/svg">
<rect width="344" height="452" fill="#F5F5F5"/>
<path d="M165.043 450.385C164.774 450.385 164.556 450.54 164.556 450.731V451.308H135.942V450.731C135.942 450.54 135.723 450.385 135.454 450.385C135.185 450.385 134.966 450.54 134.966 450.731V451.654C134.966 451.845 135.185 452 135.454 452H165.043C165.313 452 165.531 451.845 165.531 451.654V450.731C165.531 450.54 165.313 450.385 165.043 450.385Z" fill="#00AEEF"/>
<path fill-rule="evenodd" clip-rule="evenodd" d="M316.4 24.1254C316.4 24.4321 316.272 24.7262 316.043 24.943C315.815 25.1599 315.505 25.2817 315.181 25.2817V26.7032C316.667 26.9903 318.024 27.7053 319.066 28.7508H321.276C321.599 28.7508 321.91 28.8726 322.138 29.0894C322.367 29.3063 322.495 29.6004 322.495 29.9071C322.495 30.2138 322.367 30.5079 322.138 30.7248C321.91 30.9416 321.599 31.0635 321.276 31.0635H304.212C303.889 31.0635 303.579 30.9416 303.35 30.7248C303.121 30.5079 302.993 30.2138 302.993 29.9071C302.993 29.6004 303.121 29.3063 303.35 29.0894C303.579 28.8726 303.889 28.7508 304.212 28.7508H306.42C307.462 27.7053 308.819 26.9903 310.305 26.7032V25.2817C309.982 25.2817 309.672 25.1599 309.443 24.943C309.215 24.7262 309.086 24.4321 309.086 24.1254C309.086 23.8187 309.215 23.5246 309.443 23.3077C309.672 23.0909 309.982 22.969 310.305 22.969V21.3724C309.241 20.9582 308.303 20.2989 307.575 19.4543C307.471 19.4836 307.363 19.4995 307.254 19.5015C303.863 19.5015 300.55 15.2189 300.55 12.0211C300.55 9.1066 301.931 8.26106 303.743 8.02643C303.89 7.9683 304.048 7.93827 304.207 7.93807H321.276C321.436 7.93827 321.593 7.9683 321.74 8.02643C323.554 8.26106 324.933 9.1066 324.933 12.0211C324.933 15.2205 321.618 19.5015 318.229 19.5015C318.121 19.4995 318.013 19.4836 317.908 19.4543C317.18 20.2989 316.242 20.9582 315.178 21.3724V22.969C315.338 22.9686 315.497 22.9982 315.645 23.0562C315.794 23.1141 315.928 23.1992 316.042 23.3066C316.156 23.4141 316.246 23.5417 316.307 23.6822C316.369 23.8227 316.4 23.9733 316.4 24.1254ZM312.743 1C309.285 1.00086 305.888 1.87421 302.903 3.5305C299.917 5.18679 297.45 7.56644 295.753 10.4255C294.057 13.2846 293.192 16.5202 293.249 19.8006C293.305 23.081 294.28 26.2883 296.073 29.0935C297.867 31.8988 300.414 34.2011 303.455 35.7645C306.496 37.3279 309.92 38.0961 313.377 37.9904C316.834 37.8846 320.199 36.9088 323.127 35.1628C326.055 33.4168 328.441 30.9636 330.04 28.0545C331.513 25.421 332.271 22.481 332.245 19.5C332.245 14.5935 330.191 9.88795 326.533 6.41852C322.876 2.9491 317.916 1 312.743 1Z" fill="#00AEEF" stroke="#707070"/>
<path fill-rule="evenodd" clip-rule="evenodd" d="M301.846 11.4143C301.846 10.0087 301.846 9.61881 303.331 9.52677C303.499 11.9171 304.039 14.2695 304.936 16.5047C304.08 15.9109 303.362 15.1511 302.83 14.2743C302.298 13.3976 301.962 12.4233 301.846 11.4143ZM321.159 9.52677C322.64 9.61881 322.645 10.0087 322.645 11.4143C322.528 12.4236 322.192 13.398 321.659 14.2748C321.126 15.1515 320.408 15.9112 319.551 16.5047C320.448 14.2695 320.988 11.9171 321.155 9.52677H321.159ZM317.749 19.4498C317.862 19.4816 317.979 19.4985 318.097 19.5C321.711 19.5 325.246 14.8698 325.246 11.4143C325.246 8.26339 323.774 7.34973 321.841 7.09538C321.683 7.03224 321.514 6.99982 321.343 7H303.145C302.976 7.00027 302.808 7.03268 302.651 7.09538C300.718 7.34973 299.246 8.26673 299.246 11.4143C299.246 14.8698 302.78 19.5 306.396 19.5C306.513 19.4985 306.63 19.4816 306.744 19.4498C307.517 20.3616 308.515 21.0741 309.646 21.5231V23.25C309.301 23.25 308.97 23.3817 308.727 23.6161C308.483 23.8505 308.346 24.1685 308.346 24.5C308.346 24.8315 308.483 25.1495 308.727 25.3839C308.97 25.6183 309.301 25.75 309.646 25.75V27.2861C308.063 27.5978 306.619 28.3708 305.51 29.5H303.145C302.801 29.5 302.47 29.6317 302.226 29.8661C301.983 30.1005 301.846 30.4185 301.846 30.75C301.846 31.0815 301.983 31.3995 302.226 31.6339C302.47 31.8683 302.801 32 303.145 32H321.343C321.688 32 322.019 31.8683 322.262 31.6339C322.506 31.3995 322.643 31.0815 322.643 30.75C322.643 30.4185 322.506 30.1005 322.262 29.8661C322.019 29.6317 321.688 29.5 321.343 29.5H318.986C317.875 28.3696 316.428 27.5965 314.843 27.2861V25.75C315.188 25.75 315.518 25.6183 315.762 25.3839C316.006 25.1495 316.143 24.8315 316.143 24.5C316.143 24.1685 316.006 23.8505 315.762 23.6161C315.518 23.3817 315.188 23.25 314.843 23.25V21.5231C315.974 21.0741 316.972 20.3616 317.745 19.4498H317.749Z" fill="white"/>
<path d="M269 5H63V32H269V5Z" fill="#00AEEF"/>
<path d="M214.929 52H113.071C106.957 52 102 57.3701 102 63.9945V65.0055C102 71.6299 106.957 77 113.071 77H214.929C221.043 77 226 71.6299 226 65.0055V63.9945C226 57.3701 221.043 52 214.929 52Z" fill="#A6DBEC"/>
<path d="M215.035 200H128.965C122.909 200 118 203.203 118 207.154V211.846C118 215.797 122.909 219 128.965 219H215.035C221.091 219 226 215.797 226 211.846V207.154C226 203.203 221.091 200 215.035 200Z" fill="black"/>
<text fill="black" xml:space="preserve" style="white-space: pre" font-family="Harmattan" font-size="14" font-weight="500" letter-spacing="0em"><tspan x="117" y="66.8813">Graduation project</tspan></text>
<text fill="black" xml:space="preserve" style="white-space: pre" font-family="Harmattan" font-size="10" font-weight="500" letter-spacing="0em"><tspan x="85.8701" y="104.558">My software project was selected as one of the </tspan><tspan x="86.9541" y="125.558">top ten projects across the three faculties and </tspan><tspan x="93.8096" y="146.558">discussed at the first Mansoura University </tspan><tspan x="114.894" y="167.558">Computer Science Conference.</tspan></text>
<path d="M195.508 306H158.26C152.806 306 148.384 309.203 148.384 313.154V317.846C148.384 321.797 152.806 325 158.26 325H195.508C200.962 325 205.384 321.797 205.384 317.846V313.154C205.384 309.203 200.962 306 195.508 306Z" fill="black"/>
<text fill="white" xml:space="preserve" style="white-space: pre" font-family="Harmattan" font-size="13" font-weight="500" letter-spacing="0em"><tspan x="150" y="318.676">Attendance</tspan></text>
<text fill="#5E5E5E" xml:space="preserve" style="white-space: pre" font-family="Harmattan" font-size="10" font-weight="500" letter-spacing="0em"><tspan x="81.3691" y="344.558">Mansoura University Professional Development Center&#x2028;</tspan><tspan x="109.973" y="361.558"> The President of Mansoura University&#x2028;</tspan><tspan x="111.228" y="378.558"> Techno Egypt Programming Company&#x2028;</tspan><tspan x="165.441" y="395.558"> X Clan&#x2028;</tspan><tspan x="165.393" y="412.558">fekretk</tspan></text>
<text fill="#5E5E5E" xml:space="preserve" style="white-space: pre" font-family="Harmattan" font-size="5" font-weight="500" letter-spacing="0em"><tspan x="137.178" y="231.529">Head of the Computer Science Department&#x2028;</tspan><tspan x="146.853" y="240.529"> Prof. Dr. Ahmed El-Sayed Amin&#10;</tspan><tspan x="135.728" y="249.529">Dean of the College of Specialized Education&#x2028;</tspan><tspan x="153.298" y="258.529"> Dr. Mohey El-Din Ismail&#10;</tspan><tspan x="134.666" y="267.529">Vice Dean for Graduate Studies and Research&#x2028;</tspan><tspan x="152.356" y="276.529"> Prof. Dr. Amani Al-Jamal&#10;</tspan><tspan x="102.285" y="285.529">Professors of the Department of Artificial Intelligence and Emotional Intelligence:&#x2028;</tspan><tspan x="106.206" y="294.529"> Prof. Dr. Shaimaa Khater &#x2022; Prof. Dr. Rania Al-Adly &#x2022; Prof. Dr. Marwa Hussein</tspan></text>
<text fill="white" xml:space="preserve" style="white-space: pre" font-family="Harmattan" font-size="15" font-weight="500" letter-spacing="0em"><tspan x="130" y="213.087">Discussion with</tspan></text>
<path d="M234.241 437.364C234.185 437.11 233.938 436.952 233.708 437.013C233.572 437.074 233.467 437.162 233.408 437.264C233.35 437.366 233.34 437.477 233.38 437.583L233.422 437.771L233.853 437.661L233.427 437.775C233.442 437.852 233.48 437.926 233.539 437.993C233.579 438.045 233.632 438.103 233.69 438.171C233.914 438.405 234.113 438.649 234.285 438.902C234.415 439.124 234.687 439.191 234.89 439.052C234.998 438.961 235.068 438.853 235.092 438.738C235.116 438.624 235.095 438.507 235.031 438.4C234.83 438.092 234.592 437.794 234.321 437.51C234.28 437.465 234.274 437.487 234.265 437.48L234.241 437.364Z" fill="#FFFFFE"/>
<path d="M232.815 438.758C232.759 439.012 232.513 439.17 232.282 439.109C231.728 438.968 231.957 438.284 232.26 437.953C232.484 437.719 232.683 437.475 232.855 437.222C232.985 437 233.257 436.933 233.46 437.072C233.568 437.164 233.637 437.272 233.661 437.386C233.685 437.501 233.665 437.617 233.601 437.724C233.419 438.034 232.844 438.574 232.809 438.758H232.815Z" fill="#FFFFFE"/>
<path d="M194.174 431.808H171.12C169.384 431.808 167.976 432.761 167.976 433.937V446.711C167.976 447.886 169.384 448.84 171.12 448.84H194.174C195.911 448.84 197.318 447.886 197.318 446.711V433.937C197.318 432.761 195.911 431.808 194.174 431.808Z" fill="#29B71C"/>
<path d="M192.078 446.001H173.215C172.937 446.001 172.671 445.927 172.474 445.793C172.278 445.66 172.167 445.48 172.167 445.292C172.167 445.103 172.278 444.923 172.474 444.79C172.671 444.657 172.937 444.582 173.215 444.582H192.078C192.356 444.582 192.623 444.657 192.819 444.79C193.016 444.923 193.126 445.103 193.126 445.292C193.126 445.48 193.016 445.66 192.819 445.793C192.623 445.927 192.356 446.001 192.078 446.001Z" fill="#EEEEEE"/>
<path d="M185.792 446.711C185.514 446.711 185.247 446.636 185.051 446.503C184.854 446.37 184.744 446.189 184.744 446.001V444.582C184.744 444.394 184.854 444.213 185.051 444.08C185.247 443.947 185.514 443.872 185.792 443.872C186.07 443.872 186.336 443.947 186.533 444.08C186.729 444.213 186.84 444.394 186.84 444.582V446.001C186.84 446.189 186.729 446.37 186.533 446.503C186.336 446.636 186.07 446.711 185.792 446.711Z" fill="#00AEEF"/>
<path d="M187.311 437.96L179.976 435.476C179.816 435.422 179.639 435.396 179.46 435.401C179.282 435.406 179.108 435.442 178.956 435.505C178.804 435.569 178.678 435.657 178.59 435.763C178.503 435.868 178.457 435.987 178.456 436.108V441.7C178.457 441.827 178.509 441.95 178.604 442.059C178.7 442.168 178.837 442.257 179.001 442.317C179.153 442.379 179.327 442.411 179.504 442.41C179.7 442.41 179.893 442.373 180.059 442.303L187.395 439.195C187.554 439.128 187.683 439.033 187.77 438.921C187.856 438.809 187.897 438.683 187.887 438.556C187.878 438.431 187.819 438.31 187.718 438.206C187.617 438.101 187.476 438.016 187.311 437.96Z" fill="#EEEEEE"/>
<path d="M171.12 431.808C170.286 431.808 169.486 432.032 168.897 432.431C168.307 432.83 167.976 433.372 167.976 433.937V446.711C167.976 447.275 168.307 447.817 168.897 448.216C169.486 448.615 170.286 448.84 171.12 448.84H182.647V431.808H171.12Z" fill="#E53935"/>
<path d="M173.215 444.582C172.937 444.582 172.671 444.657 172.474 444.79C172.278 444.923 172.167 445.103 172.167 445.292C172.167 445.48 172.278 445.66 172.474 445.793C172.671 445.927 172.937 446.001 173.215 446.001H182.647V444.582H173.215Z" fill="#FAFAFA"/>
<path d="M179.976 435.476C179.816 435.422 179.639 435.396 179.46 435.401C179.282 435.406 179.108 435.442 178.956 435.505C178.804 435.569 178.678 435.657 178.59 435.763C178.503 435.868 178.457 435.987 178.456 436.108V441.7C178.457 441.827 178.509 441.95 178.604 442.059C178.7 442.168 178.837 442.257 179.001 442.317C179.153 442.379 179.327 442.411 179.504 442.41C179.7 442.41 179.893 442.373 180.059 442.303L182.648 441.203V436.378L179.976 435.476Z" fill="#00AEEF"/>
<path d="M228.128 434.231H231.552L226.661 431V433.262C226.661 433.797 227.318 434.231 228.128 434.231Z" fill="#00AEEF"/>
<path d="M226.128 432.615H205.876V438.269H226.128C226.422 438.269 226.661 438.128 226.661 437.955V432.929C226.661 432.756 226.422 432.615 226.128 432.615Z" fill="#C6CACF"/>
<path d="M224.917 438.269H202.731C202.267 438.269 202.034 437.883 202.363 437.656L206.162 435.038L202.363 432.42C202.034 432.194 202.267 431.808 202.731 431.808H224.917C225.205 431.808 225.438 431.968 225.438 432.167V437.91C225.438 438.108 225.205 438.269 224.917 438.269Z" fill="#00AEEF"/>
<path d="M213.891 433.93H211.872C211.594 433.93 211.368 434.079 211.368 434.263V436.263C211.368 436.447 211.594 436.597 211.872 436.597C212.151 436.597 212.377 436.447 212.377 436.263V435.596H213.891C214.169 435.596 214.395 435.447 214.395 435.263V434.263C214.395 434.079 214.169 433.93 213.891 433.93ZM213.386 434.93H212.377V434.596H213.386V434.93Z" fill="white"/>
<path d="M216.413 433.93H215.404C215.125 433.93 214.899 434.079 214.899 434.263V436.263C214.899 436.447 215.125 436.597 215.404 436.597H217.422C217.701 436.597 217.927 436.447 217.927 436.263V434.93C217.927 434.378 217.248 433.93 216.413 433.93ZM216.918 435.93H215.909V434.596H216.413C216.691 434.596 216.918 434.746 216.918 434.93L216.918 435.93Z" fill="white"/>
<path d="M220.955 433.93H218.936C218.658 433.93 218.432 434.079 218.432 434.263V436.263C218.432 436.447 218.658 436.597 218.936 436.597C219.215 436.597 219.441 436.447 219.441 436.263V435.596H220.45C220.729 435.596 220.955 435.447 220.955 435.263C220.955 435.079 220.729 434.93 220.45 434.93H219.441V434.596H220.955C221.233 434.596 221.459 434.447 221.459 434.263C221.459 434.079 221.233 433.93 220.955 433.93Z" fill="white"/>
<path d="M226.164 449.577H211.264C210.989 449.577 210.767 449.42 210.767 449.227V439.427C210.767 439.234 210.989 439.077 211.264 439.077H226.164C226.438 439.077 226.661 439.234 226.661 439.427V449.227C226.661 449.42 226.438 449.577 226.164 449.577Z" fill="#C6CACF"/>
<path d="M211.76 448.877V439.077H211.264C210.989 439.077 210.767 439.234 210.767 439.427V449.227C210.767 449.42 210.989 449.577 211.264 449.577H226.164C226.438 449.577 226.661 449.42 226.661 449.227V448.877H211.76Z" fill="#00AEEF"/>
<path d="M224.968 447.961H219.795C219.536 447.961 219.325 447.806 219.325 447.615V443.461C219.325 443.27 219.536 443.115 219.795 443.115H224.968C225.228 443.115 225.438 443.27 225.438 443.461V447.615C225.438 447.806 225.228 447.961 224.968 447.961Z" fill="black"/>
<path d="M224.216 443.923H220.548V447.154H224.216V443.923Z" fill="#00AEEF"/>
<path d="M224.992 441.263H219.441C219.162 441.263 218.937 441.114 218.937 440.93C218.937 440.746 219.162 440.597 219.441 440.597H224.992C225.27 440.597 225.496 440.746 225.496 440.93C225.496 441.114 225.27 441.263 224.992 441.263Z" fill="#EF0000"/>
<path d="M224.992 442.596H219.441C219.162 442.596 218.937 442.447 218.937 442.263C218.937 442.079 219.162 441.93 219.441 441.93H224.992C225.27 441.93 225.496 442.079 225.496 442.263C225.496 442.447 225.27 442.596 224.992 442.596Z" fill="#EF0000"/>
<path d="M217.927 441.263H212.881C212.602 441.263 212.376 441.114 212.376 440.93C212.376 440.746 212.602 440.597 212.881 440.597H217.927C218.206 440.597 218.432 440.746 218.432 440.93C218.432 441.114 218.206 441.263 217.927 441.263Z" fill="#EF0000"/>
<path d="M217.927 442.596H212.881C212.602 442.596 212.376 442.447 212.376 442.263C212.376 442.079 212.602 441.93 212.881 441.93H217.927C218.206 441.93 218.432 442.079 218.432 442.263C218.432 442.447 218.206 442.596 217.927 442.596Z" fill="#EF0000"/>
<path d="M217.927 443.93H212.881C212.602 443.93 212.376 443.781 212.376 443.597C212.376 443.413 212.602 443.264 212.881 443.264H217.927C218.206 443.264 218.432 443.413 218.432 443.597C218.432 443.781 218.206 443.93 217.927 443.93Z" fill="#EF0000"/>
<path d="M217.927 445.264H212.881C212.602 445.264 212.376 445.115 212.376 444.931C212.376 444.747 212.602 444.598 212.881 444.598H217.927C218.206 444.598 218.432 444.747 218.432 444.931C218.432 445.115 218.206 445.264 217.927 445.264Z" fill="#EF0000"/>
<path d="M217.927 446.597H212.881C212.602 446.597 212.376 446.448 212.376 446.264C212.376 446.08 212.602 445.931 212.881 445.931H217.927C218.206 445.931 218.432 446.08 218.432 446.264C218.432 446.448 218.206 446.597 217.927 446.597Z" fill="#EF0000"/>
<path d="M217.927 447.93H212.881C212.602 447.93 212.376 447.781 212.376 447.597C212.376 447.413 212.602 447.264 212.881 447.264H217.927C218.206 447.264 218.432 447.413 218.432 447.597C218.432 447.781 218.206 447.93 217.927 447.93Z" fill="#EF0000"/>
<path d="M136.188 449.172V451.192H164.308V449.172L150.312 447.961L136.188 449.172Z" fill="#EEEEEE"/>
<path d="M136.188 447.557V449.576H164.308V447.557L150.312 446.346L136.188 447.557Z" fill="#DCDCDC"/>
<path d="M164.308 432.615V447.154H162.474L158.195 439.884L162.474 432.615H164.308Z" fill="#EEEEEE"/>
<path d="M163.086 432.615V433.844L158.655 439.884L163.086 445.925V447.154H136.188V432.615H163.086Z" fill="white"/>
<path d="M137.412 433.423V442.637L150.249 443.923L163.087 442.637V433.423H137.412Z" fill="#29B71C"/>
<path d="M150.86 435.039V438.27C151.535 438.27 152.082 437.547 152.082 436.654C152.082 435.762 151.535 435.039 150.86 435.039Z" fill="#FE5F1A"/>
<path d="M150.371 435.039C150.641 435.039 150.86 435.762 150.86 436.654C150.86 437.547 150.641 438.27 150.371 438.27C149.291 438.27 148.415 437.547 148.415 436.654C148.415 435.762 149.291 435.039 150.371 435.039Z" fill="#00AEEF"/>
<path d="M163.086 444.731L155.75 440.692L161.203 441.337L163.086 442.639L163.086 444.731Z" fill="#027372"/>
<path d="M160.12 441.568L156.632 439.885L152.138 441.568L149.638 443.23L155.406 446.346H163.086V444.108L160.12 441.568Z" fill="#E53935"/>
<path d="M161.864 441.443L160.838 441.5L156.973 440.305V438.27L161.864 441.443Z" fill="#EEEEEE"/>
<path d="M152.083 441.5L156.212 438.27L159.418 441.5L152.083 441.5Z" fill="white"/>
<path d="M154.528 446.346H152.292L143.524 440.692L148.381 441.364L154.528 446.346Z" fill="#027372"/>
<path d="M146.809 441.568L152.083 446.346H137.412V442.871L139.265 441.568L143.512 439.885L146.809 441.568Z" fill="#00AEEF"/>
<path d="M148.415 441.443L147.39 441.5L143.524 440.305V438.27L148.415 441.443Z" fill="#EEEEEE"/>
<path d="M138.634 441.5L143.452 438.27L147.192 441.5L138.634 441.5Z" fill="white"/>
<path d="M165.043 447.961C164.774 447.961 164.556 448.116 164.556 448.307V448.884H135.942V448.307C135.942 448.116 135.723 447.961 135.454 447.961C135.185 447.961 134.966 448.116 134.966 448.307V449.23C134.966 449.421 135.185 449.576 135.454 449.576H165.043C165.313 449.576 165.531 449.421 165.531 449.23V448.307C165.531 448.116 165.313 447.961 165.043 447.961Z" fill="#00AEEF"/>
<path d="M165.043 431.808H135.454C135.185 431.808 134.966 431.954 134.966 432.135V447.634C134.966 447.815 135.185 447.961 135.454 447.961H165.043C165.313 447.961 165.531 447.815 165.531 447.634V432.135C165.531 431.954 165.313 431.808 165.043 431.808ZM164.556 447.307H135.942V432.462H164.556V447.307Z" fill="#00AEEF"/>
<path d="M153.305 436.654C153.305 435.764 151.934 435.039 150.249 435.039C148.564 435.039 147.192 435.764 147.192 436.654C147.192 437.545 148.564 438.27 150.249 438.27C151.934 438.27 153.305 437.545 153.305 436.654ZM148.158 436.654C148.158 436.045 149.096 435.549 150.249 435.549C151.402 435.549 152.34 436.045 152.34 436.654C152.34 437.264 151.402 437.76 150.249 437.76C149.096 437.76 148.158 437.264 148.158 436.654Z" fill="black"/>
<path d="M136.188 446.014C136.188 446.197 136.419 446.346 136.703 446.346H163.794C164.078 446.346 164.308 446.197 164.308 446.014V432.947C164.308 432.764 164.078 432.615 163.794 432.615H136.703C136.419 432.615 136.188 432.764 136.188 432.947V435.605C136.188 435.788 136.419 435.937 136.703 435.937C136.987 435.937 137.217 435.788 137.217 435.605V433.28H163.279V441.668L157.385 437.862C157.184 437.732 156.858 437.732 156.657 437.862L150.248 442.001L143.839 437.862C143.638 437.732 143.313 437.732 143.112 437.862L137.217 441.668V436.934C137.217 436.75 136.987 436.602 136.703 436.602C136.419 436.602 136.188 436.75 136.188 436.934V446.014ZM157.021 438.566L160.494 440.809H153.548L157.021 438.566ZM143.476 438.566L146.949 440.809H140.002L143.476 438.566ZM138.974 441.474H147.978L149.884 442.705C149.885 442.706 153.314 444.92 153.314 444.92C153.414 444.985 153.546 445.017 153.678 445.017C153.809 445.017 153.941 444.985 154.041 444.92C154.242 444.79 154.242 444.58 154.041 444.45L150.976 442.47L152.519 441.474H161.523L163.279 442.608V445.682H137.217V442.608L138.974 441.474Z" fill="black"/>
<path fill-rule="evenodd" clip-rule="evenodd" d="M121.6 435.064C121.762 435.064 121.896 435.207 121.896 435.38V441.317H121.305V435.38C121.305 435.204 121.437 435.064 121.6 435.064Z" fill="#FFFFFE"/>
<g filter="url(#filter0_d_0_1)">
<path d="M315.246 428H59.2461" stroke="black" stroke-width="0.3"/>
</g>
<text fill="white" xml:space="preserve" style="white-space: pre" font-family="Harmattan" font-size="20" font-weight="bold" letter-spacing="0em"><tspan x="80" y="23.1162">University achievements</tspan></text>
<defs>
<filter id="filter0_d_0_1" x="55.2461" y="427.85" width="264" height="8.30078" filterUnits="userSpaceOnUse" color-interpolation-filters="sRGB">
<feFlood flood-opacity="0" result="BackgroundImageFix"/>
<feColorMatrix in="SourceAlpha" type="matrix" values="0 0 0 0 0 0 0 0 0 0 0 0 0 0 0 0 0 0 127 0" result="hardAlpha"/>
<feOffset dy="4"/>
<feGaussianBlur stdDeviation="2"/>
<feComposite in2="hardAlpha" operator="out"/>
<feColorMatrix type="matrix" values="0 0 0 0 0 0 0 0 0 0 0 0 0 0 0 0 0 0 0.25 0"/>
<feBlend mode="normal" in2="BackgroundImageFix" result="effect1_dropShadow_0_1"/>
<feBlend mode="normal" in="SourceGraphic" in2="effect1_dropShadow_0_1" result="shape"/>
</filter>
</defs>
</svg>
