<svg width="344" height="865" viewBox="0 0 344 865" fill="none" xmlns="http://www.w3.org/2000/svg">
<rect width="344" height="865" fill="#F5F5F5"/>
<path d="M255.268 14H80.2676V42H255.268V14Z" fill="#00AEEF"/>
<text fill="white" xml:space="preserve" style="white-space: pre" font-family="Harmattan" font-size="20" font-weight="bold" letter-spacing="0em"><tspan x="84" y="32.1162">Accredited certificates</tspan></text>
<text fill="black" xml:space="preserve" style="white-space: pre" font-family="Harmattan" font-size="14" font-weight="500" letter-spacing="0em"><tspan x="52.8281" y="97.8813">- Accredited and certified by Mansoura University</tspan></text>
<text fill="#FF0000" xml:space="preserve" style="white-space: pre" font-family="Harmattan" font-size="15" font-weight="500" letter-spacing="0em"><tspan x="12.709" y="76.0872">Bachelor of Education in Computer Teacher Training</tspan></text>
<text fill="#F30000" xml:space="preserve" style="white-space: pre" font-family="Harmattan" font-size="20" font-weight="500" letter-spacing="0em"><tspan x="157.668" y="203.116">ENGLISH 3 LEVELS </tspan></text>
<path d="M306.266 14.5967H303.917C298.698 14.5967 293.693 15.9663 290.002 18.4043C286.312 20.8423 284.239 24.1489 284.239 27.5967V29.1517C284.239 32.5995 286.312 35.9061 290.002 38.3441C293.693 40.7821 298.698 42.1517 303.917 42.1517H306.27C308.855 42.1517 311.413 41.8154 313.801 41.1621C316.188 40.5088 318.358 39.5512 320.185 38.3441C322.012 37.1369 323.462 35.7038 324.451 34.1266C325.439 32.5493 325.948 30.8589 325.948 29.1517V27.5967C325.948 25.8892 325.439 24.1985 324.45 22.6211C323.461 21.0437 322.011 19.6104 320.183 18.4032C318.356 17.196 316.186 16.2385 313.798 15.5854C311.41 14.9323 308.85 14.5963 306.266 14.5967Z" fill="#00AEEF" stroke="#707070"/>
<path d="M292.271 21.6045C293.214 21.6045 294.022 22.3475 294.568 23.5475C295.592 26.1856 295.592 28.9515 294.568 31.5895C294.022 32.7895 293.206 33.5325 292.271 33.5325C291.335 33.5325 290.519 32.7895 289.973 31.5895C288.952 28.9513 288.952 26.1857 289.973 23.5475C290.519 22.3475 291.328 21.6045 292.271 21.6045ZM292.741 25.2655C292.525 24.7915 292.265 24.4975 292.009 24.4975C291.753 24.4975 291.493 24.7905 291.276 25.2655C290.707 26.7758 290.707 28.3552 291.276 29.8655C291.491 30.3395 291.753 30.6335 292.009 30.6335C292.265 30.6335 292.525 30.3405 292.741 29.8655C293.311 28.3552 293.311 26.7758 292.741 25.2655Z" fill="#FFFFFE"/>
<path d="M306.554 29.5303C306.837 29.545 307.11 29.6081 307.345 29.7132C307.58 29.8184 307.77 29.9621 307.896 30.1303C308.257 30.5712 308.446 31.0647 308.444 31.5659C308.443 32.0672 308.252 32.5602 307.889 33.0003C307.77 33.1686 307.581 33.3111 307.344 33.4109C307.106 33.5107 306.831 33.5637 306.55 33.5637C306.269 33.5637 305.993 33.5107 305.756 33.4109C305.519 33.3111 305.33 33.1686 305.211 33.0003C304.843 32.5613 304.649 32.0678 304.648 31.5659C304.647 31.0641 304.838 30.5701 305.204 30.1303C305.331 29.9617 305.522 29.8178 305.759 29.7127C305.996 29.6075 306.269 29.5447 306.554 29.5303ZM307.218 30.8403C307.155 30.7563 307.06 30.6846 306.943 30.6323C306.831 30.5727 306.691 30.5402 306.548 30.5402C306.404 30.5402 306.265 30.5727 306.153 30.6323C306.035 30.6846 305.94 30.7563 305.877 30.8403C305.694 31.0604 305.599 31.3073 305.599 31.5583C305.599 31.8093 305.694 32.0562 305.877 32.2763C305.94 32.3603 306.035 32.432 306.153 32.4843C306.265 32.5439 306.404 32.5764 306.548 32.5764C306.691 32.5764 306.831 32.5439 306.943 32.4843C307.06 32.432 307.155 32.3603 307.218 32.2763C307.401 32.0562 307.497 31.8093 307.497 31.5583C307.497 31.3073 307.401 31.0604 307.218 30.8403Z" fill="#FFFFFE"/>
<path fill-rule="evenodd" clip-rule="evenodd" d="M307.459 29.8225C308.954 30.2225 309.178 31.3885 308.986 32.9295C310.1 33.0295 312.039 33.1735 313.167 33.3465C314.776 33.5957 316.363 33.9032 317.921 34.2675C317.974 34.2834 318.031 34.2915 318.089 34.2915C318.972 34.2915 319.727 33.4855 320.236 32.2565C320.741 30.9317 320.99 29.5697 320.974 28.2035C321.001 26.9215 320.763 25.6431 320.268 24.4035C319.76 23.2585 319.007 22.5505 318.126 22.5505H318.092C318.069 22.5495 318.045 22.5495 318.021 22.5505C314.488 22.9445 310.967 23.7005 307.46 23.7655L307.459 29.8225ZM305.423 23.7855H305.393C301.201 23.7855 297.017 23.0215 292.84 22.5525C292.482 22.5135 292.163 22.7915 292.127 23.1735C292.09 23.5555 292.351 23.8965 292.706 23.9355C293.233 23.9942 293.76 24.0498 294.288 24.1025C294.337 24.1978 294.384 24.2978 294.429 24.4025C295.427 27.0413 295.427 29.8017 294.429 32.4405L294.417 32.4665H294.43C293.825 32.6058 293.22 32.7578 292.614 32.9225C292.416 33.016 292.265 33.1468 292.181 33.298C292.097 33.4491 292.084 33.6134 292.143 33.7695C292.233 34.1425 292.587 34.3695 292.935 34.2695C294.799 33.7587 296.734 33.3683 298.713 33.1035C300.507 32.9016 302.318 32.7744 304.136 32.7225C303.996 32.2257 304.039 31.7138 304.263 31.2305C304.487 30.7473 304.885 30.3071 305.423 29.9475V23.7855Z" fill="#FFFFFE"/>
<text fill="#FF0000" xml:space="preserve" style="white-space: pre" font-family="Harmattan" font-size="20" font-weight="500" letter-spacing="0em"><tspan x="169.793" y="277.116">Digital marketing </tspan></text>
<text fill="black" xml:space="preserve" style="white-space: pre" font-family="Harmattan" font-size="12" font-weight="500" letter-spacing="0.05em"><tspan x="6.86017" y="301.97">Holder of an accredited and authenticated certificate from </tspan><tspan x="13.4273" y="316.97">the Faculty of Engineering, Mansoura University, pending </tspan><tspan x="247.024" y="331.97">issuance.</tspan></text>
<text fill="black" xml:space="preserve" style="white-space: pre" font-family="Harmattan" font-size="12" font-weight="500" letter-spacing="0.05em"><tspan x="6.86017" y="425.97">Holder of an accredited and authenticated certificate from </tspan><tspan x="13.4273" y="440.97">the Faculty of Engineering, Mansoura University, pending </tspan><tspan x="247.024" y="455.97">issuance.</tspan></text>
<text fill="black" xml:space="preserve" style="white-space: pre" font-family="Harmattan" font-size="12" font-weight="500" letter-spacing="0.05em"><tspan x="6.86017" y="513.97">Holder of an accredited and authenticated certificate from </tspan><tspan x="13.4273" y="528.97">the Faculty of Engineering, Mansoura University, pending </tspan><tspan x="247.024" y="543.97">issuance.</tspan></text>
<text fill="black" xml:space="preserve" style="white-space: pre" font-family="Harmattan" font-size="12" font-weight="500" letter-spacing="0.05em"><tspan x="6.86017" y="581.97">Holder of an accredited and authenticated certificate from </tspan><tspan x="13.4273" y="596.97">the Faculty of Engineering, Mansoura University, pending </tspan><tspan x="247.024" y="611.97">issuance.</tspan></text>
<text fill="black" xml:space="preserve" style="white-space: pre" font-family="Harmattan" font-size="12" font-weight="500" letter-spacing="0.05em"><tspan x="6.86017" y="723.97">Holder of an accredited and authenticated certificate from </tspan><tspan x="13.4273" y="738.97">the Faculty of Engineering, Mansoura University, pending </tspan><tspan x="247.024" y="753.97">issuance.</tspan></text>
<text fill="black" xml:space="preserve" style="white-space: pre" font-family="Harmattan" font-size="12" font-weight="500" letter-spacing="0.05em"><tspan x="7.35236" y="218.97">Holder of an accredited and authenticated certificate from </tspan><tspan x="13.9195" y="233.97">the Faculty of Engineering, Mansoura University, pending </tspan><tspan x="247.516" y="248.97">issuance.</tspan></text>
<text fill="#FF0000" xml:space="preserve" style="white-space: pre" font-family="Harmattan" font-size="20" font-weight="500" letter-spacing="0.06em"><tspan x="0.674225" y="375.116">ICDL (WIN-WORD-EXCEL-ACCESS-</tspan><tspan x="25.6352" y="409.116">POWERPOINT - INTERNET - IT) </tspan></text>
<text fill="#FF0000" xml:space="preserve" style="white-space: pre" font-family="Harmattan" font-size="20" font-weight="500" letter-spacing="0em"><tspan x="144.148" y="494.116">MANGMENT SKILLS </tspan></text>
<text fill="#FF0000" xml:space="preserve" style="white-space: pre" font-family="Harmattan" font-size="20" font-weight="500" letter-spacing="0em"><tspan x="153" y="569.116">PERSONAL SKILLS </tspan></text>
<text fill="#FF0000" xml:space="preserve" style="white-space: pre" font-family="Harmattan" font-size="20" font-weight="500" letter-spacing="0em"><tspan x="181" y="703.116">Graphic design</tspan></text>
<text fill="#FF0000" xml:space="preserve" style="white-space: pre" font-family="Harmattan" font-size="20" font-weight="500" letter-spacing="0em"><tspan x="6" y="634.116">Occupational Safety and Health (OSHA)</tspan></text>
<text fill="black" xml:space="preserve" style="white-space: pre" font-family="Harmattan" font-size="11" font-weight="500" letter-spacing="0em"><tspan x="25.2227" y="651.764">Obtained an American international certificate, certified by the Egyptian </tspan><tspan x="70.2539" y="670.764">Ministry of Foreign Affairs + the American international card</tspan></text>
<text fill="#FF0000" xml:space="preserve" style="white-space: pre" font-family="Harmattan" font-size="15" font-weight="500" letter-spacing="0em"><tspan x="31.7988" y="129.587">A unified account + teacher code for a math and </tspan><tspan x="152.121" y="146.587">computer science teacher</tspan></text>
<text fill="black" xml:space="preserve" style="white-space: pre" font-family="Harmattan" font-size="13" font-weight="500" letter-spacing="0em"><tspan x="53.8271" y="162.676">At the Ministry of Education, Arab Republic of Egypt</tspan></text>
<path d="M40.0181 165.006L42.4451 163.32L46.645 164.973L52.1297 160.666L55.4922 161.832L47.6379 168L40.0181 165.006ZM36.9816 165.288L41.1346 166.921C38.595 167.058 36.0409 167.125 33.4849 167.123L36.9816 165.288ZM15.4922 164.805C15.4922 162.181 21.2625 158.658 29.0443 157.629C27.3483 156.966 25.9775 156.137 25.0274 155.198C24.0772 154.26 23.5705 153.234 23.5425 152.193C23.4114 150.882 24.3828 149.599 26.2441 148.626C28.1054 147.652 30.7051 147.068 33.4743 147C36.2431 147.068 38.8421 147.653 40.7032 148.626C42.5642 149.599 43.536 150.882 43.4061 152.193C43.3799 153.234 42.8755 154.259 41.9279 155.197C40.9804 156.136 39.6124 156.966 37.9192 157.629C42.2574 158.239 46.0389 159.52 48.6607 161.267L46.0888 163.285L41.9976 161.671L38.3091 164.232L34.2755 159.133H34.3074L35.9567 158.146C35.1683 158.301 34.3253 158.383 33.4722 158.389C32.6186 158.382 31.7753 158.3 30.9855 158.146L32.6262 159.133H32.6731L28.4327 164.49L33.4722 167.123C24.4822 167.121 15.4922 166.351 15.4922 164.805Z" fill="#CB9B00"/>
<path d="M302.995 375C303.984 375.001 304.951 374.796 305.774 374.412C306.597 374.028 307.239 373.482 307.618 372.842C307.997 372.203 308.097 371.499 307.905 370.82C307.712 370.14 307.236 369.516 306.537 369.026C305.838 368.537 304.947 368.203 303.977 368.067C303.007 367.932 302.002 368.001 301.088 368.266C300.174 368.531 299.393 368.98 298.843 369.555C298.293 370.131 298 370.808 298 371.5C298.001 372.427 298.527 373.317 299.463 373.973C300.4 374.629 301.67 374.999 302.995 375Z" fill="#00AEEF"/>
<path d="M302.995 492C303.984 492.001 304.951 491.796 305.774 491.412C306.597 491.028 307.239 490.482 307.618 489.842C307.997 489.203 308.097 488.499 307.905 487.82C307.712 487.14 307.236 486.516 306.537 486.026C305.838 485.537 304.947 485.203 303.977 485.067C303.007 484.932 302.002 485.001 301.088 485.266C300.174 485.531 299.393 485.98 298.843 486.555C298.293 487.131 298 487.808 298 488.5C298.001 489.427 298.527 490.317 299.463 490.973C300.4 491.629 301.67 491.999 302.995 492Z" fill="#00AEEF"/>
<path d="M302.995 569C303.984 569.001 304.951 568.796 305.774 568.412C306.597 568.028 307.239 567.482 307.618 566.842C307.997 566.203 308.097 565.499 307.905 564.82C307.712 564.14 307.236 563.516 306.537 563.026C305.838 562.537 304.947 562.203 303.977 562.067C303.007 561.932 302.002 562.001 301.088 562.266C300.174 562.531 299.393 562.98 298.843 563.555C298.293 564.131 298 564.808 298 565.5C298.001 566.427 298.527 567.317 299.463 567.973C300.4 568.629 301.67 568.999 302.995 569Z" fill="#00AEEF"/>
<path d="M302.995 633C303.984 633.001 304.951 632.796 305.774 632.412C306.597 632.028 307.239 631.482 307.618 630.842C307.997 630.203 308.097 629.499 307.905 628.82C307.712 628.14 307.236 627.516 306.537 627.026C305.838 626.537 304.947 626.203 303.977 626.067C303.007 625.932 302.002 626.001 301.088 626.266C300.174 626.531 299.393 626.98 298.843 627.555C298.293 628.131 298 628.808 298 629.5C298.001 630.427 298.527 631.317 299.463 631.973C300.4 632.629 301.67 632.999 302.995 633Z" fill="#00AEEF"/>
<path d="M302.995 706C303.984 706.001 304.951 705.796 305.774 705.412C306.597 705.028 307.239 704.482 307.618 703.842C307.997 703.203 308.097 702.499 307.905 701.82C307.712 701.14 307.236 700.516 306.537 700.026C305.838 699.537 304.947 699.203 303.977 699.067C303.007 698.932 302.002 699.001 301.088 699.266C300.174 699.531 299.393 699.98 298.843 700.555C298.293 701.131 298 701.808 298 702.5C298.001 703.427 298.527 704.317 299.463 704.973C300.4 705.629 301.67 705.999 302.995 706Z" fill="#00AEEF"/>
<path d="M302.995 792C303.984 792.001 304.951 791.796 305.774 791.412C306.597 791.028 307.239 790.482 307.618 789.842C307.997 789.203 308.097 788.499 307.905 787.82C307.712 787.14 307.236 786.516 306.537 786.026C305.838 785.537 304.947 785.203 303.977 785.067C303.007 784.932 302.002 785.001 301.088 785.266C300.174 785.531 299.393 785.98 298.843 786.555C298.293 787.131 298 787.808 298 788.5C298.001 789.427 298.527 790.317 299.463 790.973C300.4 791.629 301.67 791.999 302.995 792Z" fill="#00AEEF"/>
<path d="M302.995 280C303.984 280.001 304.951 279.796 305.774 279.412C306.597 279.028 307.239 278.482 307.618 277.842C307.997 277.203 308.097 276.499 307.905 275.82C307.712 275.14 307.236 274.516 306.537 274.026C305.838 273.537 304.947 273.203 303.977 273.067C303.007 272.932 302.002 273.001 301.088 273.266C300.174 273.531 299.393 273.98 298.843 274.555C298.293 275.131 298 275.808 298 276.5C298.001 277.427 298.527 278.317 299.463 278.973C300.4 279.629 301.67 279.999 302.995 280Z" fill="#00AEEF"/>
<path d="M302.995 202C303.984 202.001 304.951 201.796 305.774 201.412C306.597 201.028 307.239 200.482 307.618 199.842C307.997 199.203 308.097 198.499 307.905 197.82C307.712 197.14 307.236 196.516 306.537 196.026C305.838 195.537 304.947 195.203 303.977 195.067C303.007 194.932 302.002 195.001 301.088 195.266C300.174 195.531 299.393 195.98 298.843 196.555C298.293 197.131 298 197.808 298 198.5C298.001 199.427 298.527 200.317 299.463 200.973C300.4 201.629 301.67 201.999 302.995 202Z" fill="#00AEEF"/>
<path d="M302.995 129C303.984 129.001 304.951 128.796 305.774 128.412C306.597 128.028 307.239 127.482 307.618 126.842C307.997 126.203 308.097 125.499 307.905 124.82C307.712 124.14 307.236 123.516 306.537 123.026C305.838 122.537 304.947 122.203 303.977 122.067C303.007 121.932 302.002 122.001 301.088 122.266C300.174 122.531 299.393 122.98 298.843 123.555C298.293 124.131 298 124.808 298 125.5C298.001 126.427 298.527 127.317 299.463 127.973C300.4 128.629 301.67 128.999 302.995 129Z" fill="#00AEEF"/>
<path d="M302.995 76C303.984 76.0007 304.951 75.7962 305.774 75.412C306.597 75.0279 307.239 74.4815 307.618 73.8421C307.997 73.2026 308.097 72.4987 307.905 71.8195C307.712 71.1403 307.236 70.5163 306.537 70.0264C305.838 69.5366 304.947 69.2028 303.977 69.0675C303.007 68.9321 302.002 69.0014 301.088 69.2662C300.174 69.531 299.393 69.9795 298.843 70.5552C298.293 71.1308 298 71.8075 298 72.4999C298.001 73.4274 298.527 74.3168 299.463 74.973C300.4 75.6292 301.67 75.9985 302.995 76Z" fill="#00AEEF"/>
<text fill="#FF0000" xml:space="preserve" style="white-space: pre" font-family="Harmattan" font-size="11" font-weight="500" letter-spacing="0em"><tspan x="15" y="789.764">Attending the diploma of Mohamed Ragab, the international designer</tspan></text>
<path d="M235.782 850.364C235.726 850.11 235.48 849.952 235.25 850.013C235.113 850.074 235.008 850.162 234.95 850.264C234.891 850.366 234.881 850.477 234.921 850.583L234.964 850.771L235.395 850.661L234.968 850.775C234.983 850.852 235.021 850.926 235.08 850.993C235.121 851.045 235.174 851.103 235.231 851.171C235.455 851.405 235.654 851.649 235.826 851.902C235.957 852.124 236.229 852.191 236.432 852.052C236.54 851.961 236.609 851.853 236.633 851.738C236.657 851.624 236.636 851.507 236.573 851.4C236.371 851.092 236.134 850.794 235.863 850.51C235.822 850.465 235.816 850.487 235.807 850.48L235.782 850.364Z" fill="#FFFFFE"/>
<path d="M234.357 851.758C234.301 852.012 234.054 852.17 233.824 852.109C233.27 851.968 233.499 851.284 233.801 850.953C234.025 850.719 234.224 850.475 234.396 850.222C234.526 850 234.799 849.933 235.002 850.072C235.109 850.164 235.179 850.272 235.203 850.386C235.227 850.501 235.206 850.617 235.142 850.724C234.961 851.034 234.386 851.574 234.351 851.758H234.357Z" fill="#FFFFFE"/>
<path d="M195.716 844.808H172.661C170.925 844.808 169.518 845.761 169.518 846.937V859.711C169.518 860.886 170.925 861.84 172.661 861.84H195.716C197.452 861.84 198.86 860.886 198.86 859.711V846.937C198.86 845.761 197.452 844.808 195.716 844.808Z" fill="#29B71C"/>
<path d="M193.62 859.001H174.757C174.479 859.001 174.213 858.927 174.016 858.793C173.82 858.66 173.709 858.48 173.709 858.292C173.709 858.103 173.82 857.923 174.016 857.79C174.213 857.657 174.479 857.582 174.757 857.582H193.62C193.898 857.582 194.164 857.657 194.361 857.79C194.557 857.923 194.668 858.103 194.668 858.292C194.668 858.48 194.557 858.66 194.361 858.793C194.164 858.927 193.898 859.001 193.62 859.001Z" fill="#EEEEEE"/>
<path d="M187.333 859.711C187.055 859.711 186.788 859.636 186.592 859.503C186.395 859.37 186.285 859.189 186.285 859.001V857.582C186.285 857.394 186.395 857.213 186.592 857.08C186.788 856.947 187.055 856.872 187.333 856.872C187.611 856.872 187.877 856.947 188.074 857.08C188.27 857.213 188.381 857.394 188.381 857.582V859.001C188.381 859.189 188.27 859.37 188.074 859.503C187.877 859.636 187.611 859.711 187.333 859.711Z" fill="#00AEEF"/>
<path d="M188.852 850.96L181.517 848.476C181.357 848.422 181.18 848.396 181.001 848.401C180.823 848.406 180.649 848.442 180.497 848.505C180.345 848.569 180.219 848.657 180.132 848.763C180.044 848.868 179.998 848.987 179.997 849.108V854.7C179.999 854.827 180.05 854.95 180.146 855.059C180.242 855.168 180.379 855.257 180.542 855.317C180.694 855.379 180.868 855.411 181.045 855.41C181.241 855.41 181.434 855.373 181.601 855.303L188.936 852.195C189.095 852.128 189.225 852.033 189.311 851.921C189.398 851.809 189.438 851.683 189.429 851.556C189.419 851.431 189.36 851.31 189.259 851.206C189.158 851.101 189.018 851.016 188.852 850.96Z" fill="#EEEEEE"/>
<path d="M172.661 844.808C171.828 844.808 171.028 845.032 170.438 845.431C169.849 845.83 169.518 846.372 169.518 846.937V859.711C169.518 860.275 169.849 860.817 170.438 861.216C171.028 861.615 171.828 861.84 172.661 861.84H184.189V844.808H172.661Z" fill="#E53935"/>
<path d="M174.757 857.582C174.479 857.582 174.213 857.657 174.016 857.79C173.82 857.923 173.709 858.103 173.709 858.292C173.709 858.48 173.82 858.66 174.016 858.793C174.213 858.927 174.479 859.001 174.757 859.001H184.188V857.582H174.757Z" fill="#FAFAFA"/>
<path d="M181.517 848.476C181.357 848.422 181.18 848.396 181.001 848.401C180.823 848.406 180.649 848.442 180.497 848.505C180.345 848.569 180.219 848.657 180.132 848.763C180.044 848.868 179.998 848.987 179.997 849.108V854.7C179.999 854.827 180.05 854.95 180.146 855.059C180.242 855.168 180.379 855.257 180.542 855.317C180.694 855.379 180.868 855.411 181.045 855.41C181.241 855.41 181.434 855.373 181.601 855.303L184.189 854.203V849.378L181.517 848.476Z" fill="#00AEEF"/>
<path d="M243.121 847.231H246.544L241.654 844V846.262C241.654 846.797 242.311 847.231 243.121 847.231Z" fill="#00AEEF"/>
<path d="M227.669 845.615H207.418V851.269H227.669C227.963 851.269 228.202 851.128 228.202 850.955V845.929C228.202 845.756 227.963 845.615 227.669 845.615Z" fill="#C6CACF"/>
<path d="M226.459 851.269H204.273C203.808 851.269 203.576 850.883 203.904 850.656L207.704 848.038L203.904 845.42C203.576 845.194 203.808 844.808 204.273 844.808H226.459C226.747 844.808 226.98 844.968 226.98 845.167V850.91C226.98 851.108 226.747 851.269 226.459 851.269Z" fill="#00AEEF"/>
<path d="M215.432 846.93H213.414C213.135 846.93 212.909 847.079 212.909 847.263V849.263C212.909 849.447 213.135 849.597 213.414 849.597C213.692 849.597 213.918 849.447 213.918 849.263V848.596H215.432C215.711 848.596 215.937 848.447 215.937 848.263V847.263C215.937 847.079 215.711 846.93 215.432 846.93ZM214.928 847.93H213.918V847.596H214.928V847.93Z" fill="white"/>
<path d="M217.955 846.93H216.946C216.667 846.93 216.441 847.079 216.441 847.263V849.263C216.441 849.447 216.667 849.597 216.946 849.597H218.964C219.243 849.597 219.469 849.447 219.469 849.263V847.93C219.469 847.378 218.79 846.93 217.955 846.93ZM218.46 848.93H217.45V847.596H217.955C218.233 847.596 218.459 847.746 218.459 847.93L218.46 848.93Z" fill="white"/>
<path d="M222.496 846.93H220.478C220.199 846.93 219.973 847.079 219.973 847.263V849.263C219.973 849.447 220.199 849.597 220.478 849.597C220.757 849.597 220.982 849.447 220.982 849.263V848.596H221.992C222.27 848.596 222.496 848.447 222.496 848.263C222.496 848.079 222.27 847.93 221.992 847.93H220.982V847.596H222.496C222.775 847.596 223.001 847.447 223.001 847.263C223.001 847.079 222.775 846.93 222.496 846.93Z" fill="white"/>
<path d="M227.706 862.577H212.805C212.531 862.577 212.309 862.42 212.309 862.227V852.427C212.309 852.234 212.531 852.077 212.805 852.077H227.706C227.98 852.077 228.202 852.234 228.202 852.427V862.227C228.202 862.42 227.98 862.577 227.706 862.577Z" fill="#C6CACF"/>
<path d="M213.302 861.877V852.077H212.805C212.531 852.077 212.309 852.234 212.309 852.427V862.227C212.309 862.42 212.531 862.577 212.805 862.577H227.706C227.98 862.577 228.202 862.42 228.202 862.227V861.877H213.302Z" fill="#00AEEF"/>
<path d="M226.509 860.961H221.337C221.077 860.961 220.867 860.806 220.867 860.615V856.461C220.867 856.27 221.077 856.115 221.337 856.115H226.509C226.769 856.115 226.98 856.27 226.98 856.461V860.615C226.98 860.806 226.769 860.961 226.509 860.961Z" fill="black"/>
<path d="M225.757 856.923H222.089V860.154H225.757V856.923Z" fill="#00AEEF"/>
<path d="M226.533 854.264H220.983C220.704 854.264 220.478 854.115 220.478 853.931C220.478 853.747 220.704 853.598 220.983 853.598H226.533C226.812 853.598 227.038 853.747 227.038 853.931C227.038 854.115 226.812 854.264 226.533 854.264Z" fill="#EF0000"/>
<path d="M226.533 855.598H220.983C220.704 855.598 220.478 855.449 220.478 855.265C220.478 855.081 220.704 854.932 220.983 854.932H226.533C226.812 854.932 227.038 855.081 227.038 855.265C227.038 855.449 226.812 855.598 226.533 855.598Z" fill="#EF0000"/>
<path d="M219.469 854.264H214.423C214.144 854.264 213.918 854.115 213.918 853.931C213.918 853.747 214.144 853.598 214.423 853.598H219.469C219.747 853.598 219.973 853.747 219.973 853.931C219.973 854.115 219.747 854.264 219.469 854.264Z" fill="#EF0000"/>
<path d="M219.468 855.598H214.422C214.144 855.598 213.918 855.449 213.918 855.265C213.918 855.081 214.144 854.932 214.422 854.932H219.468C219.747 854.932 219.973 855.081 219.973 855.265C219.973 855.449 219.747 855.598 219.468 855.598Z" fill="#EF0000"/>
<path d="M219.468 856.931H214.422C214.144 856.931 213.918 856.782 213.918 856.598C213.918 856.414 214.144 856.265 214.422 856.265H219.468C219.747 856.265 219.973 856.414 219.973 856.598C219.973 856.782 219.747 856.931 219.468 856.931Z" fill="#EF0000"/>
<path d="M219.468 858.264H214.422C214.144 858.264 213.918 858.115 213.918 857.931C213.918 857.747 214.144 857.598 214.422 857.598H219.468C219.747 857.598 219.973 857.747 219.973 857.931C219.973 858.115 219.747 858.264 219.468 858.264Z" fill="#EF0000"/>
<path d="M219.468 859.598H214.422C214.144 859.598 213.918 859.449 213.918 859.265C213.918 859.081 214.144 858.932 214.422 858.932H219.468C219.747 858.932 219.973 859.081 219.973 859.265C219.973 859.449 219.747 859.598 219.468 859.598Z" fill="#EF0000"/>
<path d="M219.468 860.931H214.422C214.144 860.931 213.918 860.782 213.918 860.598C213.918 860.414 214.144 860.265 214.422 860.265H219.468C219.747 860.265 219.973 860.414 219.973 860.598C219.973 860.782 219.747 860.931 219.468 860.931Z" fill="#EF0000"/>
<path d="M137.73 862.172V864.192H165.85V862.172L151.854 860.961L137.73 862.172Z" fill="#EEEEEE"/>
<path d="M137.73 860.557V862.576H165.85V860.557L151.854 859.346L137.73 860.557Z" fill="#DCDCDC"/>
<path d="M165.85 845.615V860.154H164.016L159.737 852.884L164.016 845.615H165.85Z" fill="#EEEEEE"/>
<path d="M164.627 845.615V846.844L160.197 852.884L164.627 858.925V860.154H137.73V845.615H164.627Z" fill="white"/>
<path d="M138.954 846.423V855.637L151.791 856.923L164.628 855.637V846.423H138.954Z" fill="#29B71C"/>
<path d="M152.401 848.039V851.27C153.077 851.27 153.624 850.547 153.624 849.654C153.624 848.762 153.077 848.039 152.401 848.039Z" fill="#FE5F1A"/>
<path d="M151.913 848.039C152.183 848.039 152.402 848.762 152.402 849.654C152.402 850.547 152.183 851.27 151.913 851.27C150.832 851.27 149.957 850.547 149.957 849.654C149.957 848.762 150.832 848.039 151.913 848.039Z" fill="#00AEEF"/>
<path d="M164.627 857.731L157.292 853.692L162.745 854.337L164.628 855.639L164.627 857.731Z" fill="#027372"/>
<path d="M161.662 854.568L158.173 852.885L153.68 854.568L151.179 856.23L156.948 859.346H164.628V857.108L161.662 854.568Z" fill="#E53935"/>
<path d="M163.405 854.443L162.38 854.5L158.515 853.305V851.27L163.405 854.443Z" fill="#EEEEEE"/>
<path d="M153.624 854.5L157.754 851.27L160.96 854.5L153.624 854.5Z" fill="white"/>
<path d="M156.069 859.346H153.834L145.066 853.692L149.922 854.364L156.069 859.346Z" fill="#027372"/>
<path d="M148.35 854.568L153.625 859.346H138.954V855.871L140.807 854.568L145.054 852.885L148.35 854.568Z" fill="#00AEEF"/>
<path d="M149.956 854.443L148.931 854.5L145.066 853.305V851.27L149.956 854.443Z" fill="#EEEEEE"/>
<path d="M140.176 854.5L144.994 851.27L148.734 854.5L140.176 854.5Z" fill="white"/>
<path d="M166.585 863.385C166.315 863.385 166.097 863.54 166.097 863.731V864.308H137.483V863.731C137.483 863.54 137.265 863.385 136.996 863.385C136.726 863.385 136.508 863.54 136.508 863.731V864.654C136.508 864.845 136.726 865 136.996 865H166.585C166.854 865 167.073 864.845 167.073 864.654V863.731C167.073 863.54 166.854 863.385 166.585 863.385Z" fill="#00AEEF"/>
<path d="M166.585 860.961C166.315 860.961 166.097 861.116 166.097 861.307V861.884H137.483V861.307C137.483 861.116 137.265 860.961 136.996 860.961C136.726 860.961 136.508 861.116 136.508 861.307V862.23C136.508 862.421 136.726 862.576 136.996 862.576H166.585C166.854 862.576 167.073 862.421 167.073 862.23V861.307C167.073 861.116 166.854 860.961 166.585 860.961Z" fill="#00AEEF"/>
<path d="M166.585 844.808H136.996C136.726 844.808 136.508 844.954 136.508 845.135V860.634C136.508 860.815 136.726 860.961 136.996 860.961H166.585C166.854 860.961 167.073 860.815 167.073 860.634V845.135C167.073 844.954 166.854 844.808 166.585 844.808ZM166.097 860.307H137.483V845.462H166.097V860.307Z" fill="#00AEEF"/>
<path d="M154.847 849.654C154.847 848.764 153.476 848.039 151.79 848.039C150.105 848.039 148.734 848.764 148.734 849.654C148.734 850.545 150.105 851.27 151.79 851.27C153.476 851.27 154.847 850.545 154.847 849.654ZM149.699 849.654C149.699 849.045 150.637 848.549 151.79 848.549C152.943 848.549 153.882 849.045 153.882 849.654C153.882 850.264 152.943 850.76 151.79 850.76C150.637 850.76 149.699 850.264 149.699 849.654Z" fill="black"/>
<path d="M137.73 859.014C137.73 859.197 137.96 859.346 138.244 859.346H165.335C165.619 859.346 165.85 859.197 165.85 859.014V845.947C165.85 845.764 165.619 845.615 165.335 845.615H138.244C137.96 845.615 137.73 845.764 137.73 845.947V848.605C137.73 848.788 137.96 848.937 138.244 848.937C138.528 848.937 138.759 848.788 138.759 848.605V846.28H164.821V854.668L158.926 850.862C158.725 850.732 158.4 850.732 158.199 850.862L151.79 855.001L145.381 850.862C145.18 850.732 144.854 850.732 144.653 850.862L138.759 854.668V849.934C138.759 849.75 138.528 849.602 138.244 849.602C137.96 849.602 137.73 849.75 137.73 849.934V859.014ZM158.562 851.566L162.036 853.809H155.089L158.562 851.566ZM145.017 851.566L148.491 853.809H141.544L145.017 851.566ZM140.515 854.474H149.519L151.425 855.705C151.427 855.706 154.855 857.92 154.855 857.92C154.956 857.985 155.088 858.017 155.219 858.017C155.351 858.017 155.482 857.985 155.583 857.92C155.784 857.79 155.784 857.58 155.583 857.45L152.517 855.47L154.061 854.474H163.065L164.821 855.608V858.682H138.759V855.608L140.515 854.474Z" fill="black"/>
<path fill-rule="evenodd" clip-rule="evenodd" d="M136.592 848.064C136.755 848.064 136.888 848.207 136.888 848.38V854.317H136.298V848.38C136.298 848.204 136.43 848.064 136.592 848.064Z" fill="#FFFFFE"/>
<g filter="url(#filter0_d_0_1)">
<mask id="path-85-inside-1_0_1" fill="white">
<path d="M300.239 844H44.2388V844H300.239V844Z"/>
</mask>
<path d="M300.239 844H44.2388V844H300.239V844Z" fill="#231F20"/>
<path d="M300.239 844H44.2388V844H300.239V844Z" stroke="black" stroke-width="0.6" mask="url(#path-85-inside-1_0_1)"/>
</g>
<text fill="black" xml:space="preserve" style="white-space: pre" font-family="Harmattan" font-size="14" font-weight="500" letter-spacing="0em"><tspan x="32.9697" y="812.881">For the Arab designer Mr. Mohamed Ragab in the art </tspan><tspan x="122.049" y="830.881">of graphic design</tspan></text>
<defs>
<filter id="filter0_d_0_1" x="40.2388" y="843.7" width="264" height="8.59961" filterUnits="userSpaceOnUse" color-interpolation-filters="sRGB">
<feFlood flood-opacity="0" result="BackgroundImageFix"/>
<feColorMatrix in="SourceAlpha" type="matrix" values="0 0 0 0 0 0 0 0 0 0 0 0 0 0 0 0 0 0 127 0" result="hardAlpha"/>
<feOffset dy="4"/>
<feGaussianBlur stdDeviation="2"/>
<feComposite in2="hardAlpha" operator="out"/>
<feColorMatrix type="matrix" values="0 0 0 0 0 0 0 0 0 0 0 0 0 0 0 0 0 0 0.25 0"/>
<feBlend mode="normal" in2="BackgroundImageFix" result="effect1_dropShadow_0_1"/>
<feBlend mode="normal" in="SourceGraphic" in2="effect1_dropShadow_0_1" result="shape"/>
</filter>
</defs>
</svg>
