<svg width="344" height="491" viewBox="0 0 344 491" fill="none" xmlns="http://www.w3.org/2000/svg">
<rect width="344" height="491" fill="#F5F5F5"/>
<path d="M196 361H110V360H196V361Z" fill="#00AEEF"/>
<path d="M196 335H110V334H196V335Z" fill="#00AEEF"/>
<path d="M196 410H110V409H196V410Z" fill="#00AEEF"/>
<path d="M196 437H110V436H196V437Z" fill="#00AEEF"/>
<path d="M196 384H110V383H196V384Z" fill="#00AEEF"/>
<path d="M148.236 3.00507H239.883C240.817 3.00494 241.743 3.26342 242.606 3.76576C243.47 4.26809 244.255 5.00444 244.916 5.93276C245.576 6.86107 246.101 7.96318 246.458 9.17611C246.816 10.389 247 11.689 247 13.0019V30.9949H148.236C146.905 31.0453 145.58 30.7205 144.34 30.0398C143.1 29.3591 141.969 28.3363 141.015 27.0318C140.061 25.7273 139.302 24.1675 138.785 22.4445C138.267 20.7215 138 18.8702 138 17C138 15.1297 138.267 13.2785 138.785 11.5555C139.302 9.83249 140.061 8.27271 141.015 6.96818C141.969 5.66365 143.1 4.64086 144.34 3.96018C145.58 3.27951 146.905 2.95473 148.236 3.00507Z" fill="#058931"/>
<path d="M41.4017 353.233C41.5562 353.267 41.716 353.27 41.8717 353.241C42.0273 353.213 42.1756 353.153 42.3077 353.066C42.7918 352.598 43.2051 352.063 43.5346 351.476C43.8436 351.035 42.5867 350.985 42.3099 351.38C42.2135 351.518 42.1208 351.668 42.0249 351.823C41.8743 351.042 41.8876 350.238 42.0639 349.463C42.2402 348.687 42.5756 347.957 43.0488 347.318C44.6807 344.805 48.1578 343.029 51.851 342.01L51.0844 342.895C50.8168 343.203 51.9091 343.528 52.1764 343.223L53.5724 341.615C53.7955 341.357 53.1671 341.205 52.9244 341.178L50.4826 340.916C50.2733 340.893 49.9486 340.981 50.0157 341.157C50.0886 341.346 50.4134 341.431 50.6934 341.46L51.8902 341.589C45.569 343.589 40.1228 348.046 41.0243 352.338C40.6603 352.229 40.3069 352.108 39.9641 351.977C39.8152 351.925 39.6573 351.903 39.4998 351.912C39.3423 351.921 39.1882 351.962 39.0464 352.031C38.8002 352.157 38.7311 352.389 38.9758 352.482C39.7673 352.785 40.5776 353.036 41.4017 353.233Z" fill="#00AEEF" stroke="#707070" stroke-width="0.299962"/>
<path d="M307.686 49.776C308.729 49.776 309.574 48.9307 309.574 47.888C309.574 46.8453 308.729 46 307.686 46C306.643 46 305.798 46.8453 305.798 47.888C305.798 48.9307 306.643 49.776 307.686 49.776Z" fill="#231F20"/>
<path d="M307.686 78.1256C308.729 78.1256 309.574 77.2803 309.574 76.2376C309.574 75.1949 308.729 74.3496 307.686 74.3496C306.643 74.3496 305.798 75.1949 305.798 76.2376C305.798 77.2803 306.643 78.1256 307.686 78.1256Z" fill="#231F20"/>
<path d="M308 261C309.105 261 310 260.105 310 259C310 257.895 309.105 257 308 257C306.895 257 306 257.895 306 259C306 260.105 306.895 261 308 261Z" fill="#231F20"/>
<path d="M305.225 336.568C306.606 336.568 307.725 335.673 307.725 334.568C307.725 333.464 306.606 332.568 305.225 332.568C303.844 332.568 302.725 333.464 302.725 334.568C302.725 335.673 303.844 336.568 305.225 336.568Z" fill="#231F20"/>
<path d="M305.225 362.568C306.606 362.568 307.725 361.673 307.725 360.568C307.725 359.464 306.606 358.568 305.225 358.568C303.844 358.568 302.725 359.464 302.725 360.568C302.725 361.673 303.844 362.568 305.225 362.568Z" fill="#231F20"/>
<path d="M305.225 387.568C306.606 387.568 307.725 386.673 307.725 385.568C307.725 384.464 306.606 383.568 305.225 383.568C303.844 383.568 302.725 384.464 302.725 385.568C302.725 386.673 303.844 387.568 305.225 387.568Z" fill="#231F20"/>
<path d="M305.225 411.568C306.606 411.568 307.725 410.673 307.725 409.568C307.725 408.464 306.606 407.568 305.225 407.568C303.844 407.568 302.725 408.464 302.725 409.568C302.725 410.673 303.844 411.568 305.225 411.568Z" fill="#231F20"/>
<path d="M305.225 438.568C306.606 438.568 307.725 437.673 307.725 436.568C307.725 435.464 306.606 434.568 305.225 434.568C303.844 434.568 302.725 435.464 302.725 436.568C302.725 437.673 303.844 438.568 305.225 438.568Z" fill="#231F20"/>
<text fill="white" xml:space="preserve" style="white-space: pre" font-family="Harmattan" font-size="15" font-weight="bold" letter-spacing="0em"><tspan x="150" y="21.0872">communication</tspan></text>
<path d="M307.686 78.1256C308.729 78.1256 309.574 77.2803 309.574 76.2376C309.574 75.1949 308.729 74.3496 307.686 74.3496C306.643 74.3496 305.798 75.1949 305.798 76.2376C305.798 77.2803 306.643 78.1256 307.686 78.1256Z" fill="#231F20"/>
<text fill="#058931" xml:space="preserve" style="white-space: pre" font-family="Bahij TheSansArabic" font-size="12" font-weight="500" letter-spacing="0em"><tspan x="199" y="81.4717">01065606206</tspan></text>
<text fill="#058931" xml:space="preserve" style="white-space: pre" font-family="Bahij TheSansArabic" font-size="8" font-weight="500" letter-spacing="0em"><tspan x="131" y="51.8115">mostafa.said.abdelwahab@outlook.com</tspan></text>
<path d="M285.505 52.3409C285.505 52.6592 285.631 52.9644 285.856 53.1895C286.081 53.4145 286.387 53.5409 286.705 53.5409H296.919C297.237 53.5409 297.542 53.4145 297.767 53.1895C297.992 52.9644 298.119 52.6592 298.119 52.3409V43.3279C298.119 43.0097 297.992 42.7044 297.767 42.4794C297.542 42.2544 297.237 42.1279 296.919 42.1279H286.705C286.387 42.1279 286.081 42.2544 285.856 42.4794C285.631 42.7044 285.505 43.0097 285.505 43.3279V52.3409Z" fill="#03A9F4"/>
<path d="M298.121 43.9147V43.3287C298.121 43.0814 298.044 42.8402 297.901 42.6387L291.134 46.8027L286.603 44.0027L286.181 45.1277L291.263 48.1277L298.121 43.9147Z" fill="#B3E5FC"/>
<path d="M289.109 58.624L276.493 56.221V39.4L289.109 37V58.624Z" fill="#0277BD"/>
<path d="M285.635 44.7168C285.316 44.342 284.917 44.044 284.466 43.8451C284.016 43.6461 283.527 43.5513 283.035 43.5678C282.518 43.5484 282.003 43.6463 281.529 43.8541C281.056 44.0619 280.635 44.3743 280.299 44.7678C279.582 45.6573 279.214 46.7783 279.266 47.9198C279.216 49.0117 279.579 50.0825 280.281 50.9198C280.607 51.2942 281.012 51.5915 281.467 51.7904C281.922 51.9893 282.415 52.0847 282.911 52.0698C283.42 52.0872 283.925 51.9895 284.391 51.7839C284.856 51.5784 285.269 51.2704 285.599 50.8828C286.317 50.005 286.683 48.8923 286.628 47.7598C286.681 46.6581 286.328 45.5752 285.635 44.7168ZM284.335 49.7778C284.175 49.9942 283.966 50.1697 283.725 50.2899C283.484 50.4101 283.218 50.4717 282.949 50.4696C282.679 50.4676 282.415 50.402 282.175 50.2781C281.936 50.1542 281.73 49.9756 281.573 49.7568C281.196 49.1866 281.013 48.5103 281.05 47.8278C281.017 47.1433 281.2 46.4655 281.573 45.8908C281.729 45.6604 281.94 45.473 282.187 45.3457C282.435 45.2185 282.71 45.1556 282.988 45.1628C283.257 45.1544 283.523 45.215 283.762 45.3387C284 45.4625 284.203 45.6454 284.351 45.8698C284.717 46.4663 284.891 47.1604 284.851 47.8588C284.89 48.5376 284.708 49.2107 284.333 49.7778H284.335Z" fill="white"/>
<path d="M288 86C293.523 86 298 81.5228 298 76C298 70.4772 293.523 66 288 66C282.477 66 278 70.4772 278 76C278 81.5228 282.477 86 288 86Z" fill="#10EC00"/>
<path d="M292.233 76.7191C292.203 76.7049 291.096 76.1599 290.899 76.0891C290.817 76.0555 290.73 76.0363 290.642 76.0324C290.566 76.0338 290.492 76.0549 290.426 76.0936C290.361 76.1324 290.307 76.1874 290.269 76.2533C290.158 76.4199 289.824 76.8091 289.721 76.9258C289.708 76.9416 289.689 76.9599 289.678 76.9599C289.666 76.9599 289.497 76.8891 289.444 76.8666C288.55 76.4129 287.788 75.7361 287.233 74.9016C287.224 74.8885 287.218 74.8738 287.214 74.8583C287.232 74.8298 287.254 74.804 287.279 74.7816C287.339 74.7216 287.405 74.6433 287.468 74.5674C287.498 74.5316 287.528 74.4949 287.558 74.4616C287.631 74.3756 287.691 74.2797 287.738 74.1766L287.763 74.1266C287.8 74.0506 287.819 73.9666 287.816 73.8818C287.813 73.7971 287.79 73.7143 287.748 73.6408C287.722 73.5883 287.254 72.4608 287.204 72.3424C287.085 72.0566 286.927 71.9258 286.704 71.9258C286.684 71.9258 286.704 71.9258 286.621 71.9258C286.304 71.9491 285.993 72.0292 285.704 72.1624C285.461 72.3573 285.268 72.6084 285.143 72.8941C285.018 73.1797 284.965 73.4914 284.987 73.8024C285.04 74.5132 285.307 75.1912 285.753 75.7474L285.784 75.7933C286.534 76.9684 287.608 77.901 288.877 78.4783C289.463 78.7564 290.097 78.9185 290.744 78.9558C290.846 78.955 290.947 78.9488 291.048 78.9374L291.103 78.9324C291.388 78.8827 291.658 78.7706 291.895 78.604C292.132 78.4375 292.329 78.2207 292.472 77.9691C292.613 77.6521 292.642 77.2966 292.555 76.9608C292.474 76.8503 292.361 76.7662 292.233 76.7191Z" fill="white"/>
<path d="M288.725 68C286.756 67.9947 284.865 68.7708 283.467 70.1581C282.069 71.5454 281.278 73.4306 281.269 75.4C281.268 76.7166 281.621 78.0092 282.291 79.1425L281.01 82.9167C280.999 82.9515 280.997 82.9889 281.005 83.0247C281.014 83.0604 281.032 83.0931 281.058 83.1191C281.084 83.145 281.117 83.1633 281.152 83.1717C281.188 83.1801 281.225 83.1784 281.26 83.1667L285.199 81.9167C286.332 82.5203 287.601 82.8219 288.884 82.7925C290.167 82.763 291.42 82.4035 292.524 81.7486C293.627 81.0937 294.543 80.1655 295.184 79.0535C295.824 77.9415 296.168 76.6832 296.18 75.4C296.171 73.4309 295.38 71.546 293.983 70.1587C292.585 68.7715 290.694 67.9951 288.725 68ZM288.725 81.2584C287.57 81.2599 286.441 80.923 285.475 80.2892C285.451 80.2733 285.423 80.2629 285.395 80.2589C285.366 80.2549 285.336 80.2572 285.309 80.2659L283.333 80.8942L283.969 79.015C283.98 78.9849 283.983 78.9526 283.978 78.9209C283.974 78.8893 283.962 78.8592 283.943 78.8334C283.211 77.8385 282.817 76.6352 282.819 75.4C282.809 74.23 283.148 73.0835 283.791 72.1061C284.434 71.1286 285.353 70.3643 286.431 69.91C287.51 69.4557 288.698 69.332 289.847 69.5544C290.996 69.7769 292.053 70.3356 292.883 71.1596C293.714 71.9837 294.281 73.0359 294.513 74.1828C294.745 75.3297 294.631 76.5196 294.185 77.6015C293.739 78.6834 292.983 79.6086 292.01 80.2597C291.038 80.9107 289.895 81.2583 288.725 81.2584Z" fill="white"/>
<path d="M171.328 127H298.211C300.824 127 303.331 128.038 305.179 129.886C307.027 131.734 308.065 134.241 308.065 136.854V154.59H171.328C167.67 154.59 164.161 153.137 161.573 150.552C158.986 147.966 157.53 144.458 157.528 140.8C157.528 137.14 158.982 133.63 161.57 131.042C164.158 128.454 167.668 127 171.328 127Z" fill="#00AEEF"/>
<text fill="white" xml:space="preserve" style="white-space: pre" font-family="Harmattan" font-size="15" letter-spacing="0em"><tspan x="175" y="144.087">computer proficiency</tspan></text>
<path d="M306.126 255.438H205.126V262.438H306.126V255.438Z" fill="#949598"/>
<path d="M299.126 255.438H205.126V262.438H299.126V255.438Z" fill="#00AEEF"/>
<path d="M301.111 254C302.143 254 303.132 254.479 303.861 255.333C304.59 256.186 305 257.343 305 258.55V259.446C305 260.044 304.9 260.636 304.705 261.189C304.51 261.741 304.223 262.243 303.862 262.666C303.501 263.089 303.072 263.424 302.6 263.653C302.128 263.882 301.622 264 301.111 264C300.702 264 300.298 263.906 299.92 263.723C299.542 263.539 299.199 263.271 298.91 262.933C298.621 262.594 298.392 262.192 298.236 261.75C298.08 261.308 298 260.834 298 260.356V257.64C298 256.675 298.328 255.749 298.911 255.066C299.495 254.384 300.286 254 301.111 254Z" fill="black"/>
<path d="M308 260C309.105 260 310 259.105 310 258C310 256.895 309.105 256 308 256C306.895 256 306 256.895 306 258C306 259.105 306.895 260 308 260Z" fill="#231F20"/>
<path d="M306.126 166.438H205.126V173.438H306.126V166.438Z" fill="#949598"/>
<path d="M306.126 189.438H205.126V195.437H306.126V189.438Z" fill="#949598"/>
<path d="M306.126 210.438H205.126V215.438H306.126V210.438Z" fill="#949598"/>
<path d="M306.126 233.438H205.126V239.437H306.126V233.438Z" fill="#949598"/>
<path d="M299.126 166.438H205.126V173.438H299.126V166.438Z" fill="#00AEEF"/>
<path d="M280.126 189.438H205.126V195.437H280.126V189.438Z" fill="#00AEEF"/>
<path d="M269.126 210.438H205.126V215.438H269.126V210.438Z" fill="#00AEEF"/>
<path d="M269.126 233.438H205.126V239.437H269.126V233.438Z" fill="#00AEEF"/>
<path d="M308 172C309.105 172 310 171.105 310 170C310 168.895 309.105 168 308 168C306.895 168 306 168.895 306 170C306 171.105 306.895 172 308 172Z" fill="#231F20"/>
<path d="M308.126 194.438C309.231 194.438 310.126 193.542 310.126 192.438C310.126 191.333 309.231 190.438 308.126 190.438C307.021 190.438 306.126 191.333 306.126 192.438C306.126 193.542 307.021 194.438 308.126 194.438Z" fill="#231F20"/>
<path d="M297.237 164.438C298.269 164.438 299.258 164.917 299.987 165.77C300.716 166.623 301.126 167.781 301.126 168.988V169.884C301.126 170.482 301.026 171.074 300.831 171.626C300.636 172.179 300.349 172.681 299.988 173.104C299.627 173.526 299.198 173.862 298.726 174.091C298.254 174.32 297.748 174.438 297.237 174.438C296.828 174.438 296.424 174.343 296.046 174.16C295.668 173.977 295.325 173.708 295.036 173.37C294.747 173.032 294.518 172.63 294.362 172.188C294.206 171.746 294.126 171.272 294.126 170.794V168.078C294.126 167.112 294.454 166.186 295.037 165.504C295.621 164.821 296.412 164.438 297.237 164.438Z" fill="black"/>
<path d="M280.237 187.438C281.269 187.438 282.258 187.869 282.987 188.637C283.716 189.405 284.126 190.446 284.126 191.533V192.339C284.126 192.877 284.026 193.41 283.831 193.907C283.636 194.405 283.349 194.856 282.988 195.237C282.627 195.618 282.198 195.919 281.726 196.125C281.254 196.331 280.748 196.438 280.237 196.438C279.828 196.438 279.424 196.353 279.046 196.188C278.668 196.023 278.325 195.781 278.036 195.477C277.747 195.172 277.518 194.811 277.362 194.413C277.206 194.015 277.126 193.589 277.126 193.158V190.714C277.126 189.845 277.454 189.011 278.037 188.397C278.621 187.783 279.412 187.438 280.237 187.438Z" fill="black"/>
<path d="M272.111 208.438C273.143 208.438 274.132 208.869 274.861 209.637C275.59 210.405 276 211.446 276 212.533V213.339C276 213.877 275.9 214.41 275.705 214.907C275.51 215.405 275.223 215.856 274.862 216.237C274.501 216.618 274.072 216.919 273.6 217.125C273.128 217.331 272.622 217.438 272.111 217.438C271.702 217.438 271.298 217.353 270.92 217.188C270.542 217.023 270.199 216.781 269.91 216.477C269.621 216.172 269.392 215.811 269.236 215.413C269.08 215.015 269 214.589 269 214.158V211.714C269 210.845 269.328 210.011 269.911 209.397C270.495 208.783 271.286 208.438 272.111 208.438Z" fill="black"/>
<path d="M270.111 231.438C271.143 231.438 272.132 231.917 272.861 232.77C273.59 233.623 274 234.781 274 235.988V236.884C274 237.482 273.9 238.074 273.705 238.626C273.51 239.179 273.223 239.681 272.862 240.104C272.501 240.526 272.072 240.862 271.6 241.091C271.128 241.32 270.622 241.438 270.111 241.438C269.702 241.438 269.298 241.343 268.92 241.16C268.542 240.977 268.199 240.708 267.91 240.37C267.621 240.032 267.392 239.63 267.236 239.188C267.08 238.746 267 238.272 267 237.794V235.078C267 234.112 267.328 233.186 267.911 232.504C268.495 231.821 269.286 231.438 270.111 231.438Z" fill="black"/>
<path d="M308.126 215.438C309.231 215.438 310.126 214.318 310.126 212.938C310.126 211.557 309.231 210.438 308.126 210.438C307.021 210.438 306.126 211.557 306.126 212.938C306.126 214.318 307.021 215.438 308.126 215.438Z" fill="#231F20"/>
<path d="M308.126 238.438C309.231 238.438 310.126 237.542 310.126 236.438C310.126 235.333 309.231 234.438 308.126 234.438C307.021 234.438 306.126 235.333 306.126 236.438C306.126 237.542 307.021 238.438 308.126 238.438Z" fill="#231F20"/>
<text fill="#FF0040" xml:space="preserve" style="white-space: pre" font-family="Bahij TheSansArabic" font-size="13" font-weight="500" letter-spacing="0em"><tspan x="36.126" y="174.698">Microsoft Word</tspan></text>
<text fill="#FF0040" xml:space="preserve" style="white-space: pre" font-family="Bahij TheSansArabic" font-size="13" font-weight="500" letter-spacing="0em"><tspan x="37.126" y="197.698">Microsoft Excel</tspan></text>
<text fill="#FF0040" xml:space="preserve" style="white-space: pre" font-family="Bahij TheSansArabic" font-size="13" font-weight="500" letter-spacing="0em"><tspan x="37.126" y="218.698">Microsoft Excel VBA</tspan></text>
<text fill="#FF0040" xml:space="preserve" style="white-space: pre" font-family="Bahij TheSansArabic" font-size="13" font-weight="500" letter-spacing="0em"><tspan x="37.126" y="241.698">Microsoft PowerPoint </tspan></text>
<text fill="#FF0040" xml:space="preserve" style="white-space: pre" font-family="Harmattan" font-size="14" font-weight="500" letter-spacing="-0.05em"><tspan x="37.5078" y="261.881">Fast typing on the keyboard</tspan></text>
<path d="M168.576 287H297.554C298.734 287 299.902 287.232 300.992 287.684C302.082 288.135 303.072 288.797 303.906 289.631C304.74 290.465 305.402 291.455 305.853 292.545C306.305 293.635 306.537 294.803 306.537 295.983V312.152H168.576C165.241 312.152 162.042 310.827 159.683 308.469C157.325 306.11 156 302.911 156 299.576C156 296.241 157.325 293.042 159.683 290.683C162.042 288.325 165.241 287 168.576 287Z" fill="#00AEEF"/>
<text fill="white" xml:space="preserve" style="white-space: pre" font-family="Harmattan" font-size="15" font-weight="bold" letter-spacing="0em"><tspan x="197" y="303.087">Programming</tspan></text>
<text fill="#FF0040" xml:space="preserve" style="white-space: pre" font-family="Bahij TheSansArabic" font-size="13" font-weight="500" letter-spacing="0em"><tspan x="38.0332" y="341.261">DART</tspan></text>
<text fill="#FF0040" xml:space="preserve" style="white-space: pre" font-family="Bahij TheSansArabic" font-size="13" font-weight="500" letter-spacing="0em"><tspan x="44.0762" y="365.261">LUTTER</tspan></text>
<text fill="#00BBFF" xml:space="preserve" style="white-space: pre" font-family="Bahij TheSansArabic" font-size="13" font-weight="500" letter-spacing="0em"><tspan x="38.0332" y="365.261">F</tspan></text>
<text fill="#FF0040" xml:space="preserve" style="white-space: pre" font-family="Bahij TheSansArabic" font-size="13" font-weight="500" letter-spacing="0em"><tspan x="38.0332" y="386.261">C#</tspan></text>
<text fill="#FF0040" xml:space="preserve" style="white-space: pre" font-family="Bahij TheSansArabic" font-size="13" font-weight="500" letter-spacing="0em"><tspan x="38.0332" y="413.261">Visual Basic</tspan></text>
<text fill="#FF0040" xml:space="preserve" style="white-space: pre" font-family="Bahij TheSansArabic" font-size="13" font-weight="500" letter-spacing="0em"><tspan x="38.0332" y="439.261">Python </tspan></text>
<path d="M300.725 331.568H204.725V337.568H300.725V331.568Z" fill="#949598"/>
<path d="M300.725 357.568H204.725V363.568H300.725V357.568Z" fill="#949598"/>
<path d="M300.725 382.568H204.725V388.568H300.725V382.568Z" fill="#949598"/>
<path d="M300.725 406.568H204.725V411.568H300.725V406.568Z" fill="#949598"/>
<path d="M300.725 433.568H204.725V438.568H300.725V433.568Z" fill="#949598"/>
<path d="M259.725 331.568H204.725V337.568H259.725V331.568Z" fill="#00AEEF"/>
<path d="M269.725 357.568H204.725V363.568H269.725V357.568Z" fill="#00AEEF"/>
<path d="M252.725 382.568H204.725V388.568H252.725V382.568Z" fill="#00AEEF"/>
<path d="M254.725 406.568H204.725V411.568H254.725V406.568Z" fill="#00AEEF"/>
<path d="M233.725 433.568H204.725V438.568H233.725V433.568Z" fill="#00AEEF"/>
<path d="M263.725 330.568C265.051 330.568 266.323 330.952 267.261 331.634C268.198 332.317 268.725 333.243 268.725 334.208V334.925C268.726 335.404 268.597 335.877 268.346 336.319C268.095 336.761 267.726 337.163 267.262 337.501C266.798 337.84 266.246 338.108 265.64 338.291C265.033 338.474 264.382 338.568 263.725 338.568C263.2 338.568 262.679 338.493 262.194 338.346C261.708 338.2 261.267 337.985 260.895 337.714C260.524 337.444 260.229 337.122 260.028 336.769C259.828 336.415 259.725 336.036 259.725 335.653V333.481C259.725 332.708 260.147 331.967 260.897 331.421C261.647 330.875 262.664 330.568 263.725 330.568Z" fill="black"/>
<path d="M268.725 356.568C270.051 356.568 271.323 356.952 272.261 357.634C273.198 358.317 273.725 359.243 273.725 360.208V360.925C273.726 361.404 273.597 361.877 273.346 362.319C273.095 362.761 272.726 363.163 272.262 363.501C271.798 363.84 271.246 364.108 270.64 364.291C270.033 364.474 269.382 364.568 268.725 364.568C268.2 364.568 267.679 364.493 267.194 364.346C266.708 364.2 266.267 363.985 265.895 363.714C265.524 363.444 265.229 363.122 265.028 362.769C264.828 362.415 264.725 362.036 264.725 361.653V359.481C264.725 358.708 265.147 357.967 265.897 357.421C266.647 356.875 267.664 356.568 268.725 356.568Z" fill="black"/>
<path d="M247.725 380.568C249.051 380.568 250.323 381 251.261 381.768C252.198 382.536 252.725 383.577 252.725 384.663V385.47C252.726 386.008 252.597 386.541 252.346 387.038C252.095 387.535 251.726 387.987 251.262 388.368C250.798 388.748 250.246 389.05 249.64 389.256C249.033 389.462 248.382 389.568 247.725 389.568C247.2 389.568 246.679 389.484 246.194 389.319C245.708 389.154 245.267 388.912 244.895 388.608C244.524 388.303 244.229 387.941 244.028 387.544C243.828 387.146 243.725 386.719 243.725 386.289V383.845C243.725 382.976 244.147 382.142 244.897 381.528C245.647 380.914 246.664 380.568 247.725 380.568Z" fill="black"/>
<path d="M255.17 404.568C256.643 404.568 258.056 405 259.098 405.768C260.14 406.536 260.725 407.577 260.725 408.663V409.47C260.726 410.008 260.582 410.541 260.303 411.038C260.025 411.535 259.615 411.987 259.1 412.368C258.584 412.748 257.971 413.05 257.297 413.256C256.622 413.462 255.9 413.568 255.17 413.568C254.586 413.568 254.007 413.484 253.468 413.319C252.928 413.154 252.438 412.912 252.025 412.608C251.613 412.303 251.285 411.941 251.062 411.544C250.839 411.146 250.725 410.719 250.725 410.289V407.845C250.725 406.976 251.193 406.142 252.027 405.528C252.86 404.914 253.991 404.568 255.17 404.568Z" fill="black"/>
<path d="M230.725 431.568C232.051 431.568 233.323 432 234.261 432.768C235.198 433.536 235.725 434.577 235.725 435.663V436.47C235.726 437.008 235.597 437.541 235.346 438.038C235.095 438.535 234.726 438.987 234.262 439.368C233.798 439.748 233.246 440.05 232.64 440.256C232.033 440.462 231.382 440.568 230.725 440.568C230.2 440.568 229.679 440.484 229.194 440.319C228.708 440.154 228.267 439.912 227.895 439.608C227.524 439.303 227.229 438.941 227.028 438.544C226.828 438.146 226.725 437.719 226.725 437.289V434.845C226.725 433.976 227.147 433.142 227.897 432.528C228.647 431.914 229.664 431.568 230.725 431.568Z" fill="black"/>
<path d="M305.225 336.568C306.606 336.568 307.725 335.673 307.725 334.568C307.725 333.464 306.606 332.568 305.225 332.568C303.844 332.568 302.725 333.464 302.725 334.568C302.725 335.673 303.844 336.568 305.225 336.568Z" fill="#231F20"/>
<path d="M305.225 362.568C306.606 362.568 307.725 361.673 307.725 360.568C307.725 359.464 306.606 358.568 305.225 358.568C303.844 358.568 302.725 359.464 302.725 360.568C302.725 361.673 303.844 362.568 305.225 362.568Z" fill="#231F20"/>
<path d="M305.225 387.568C306.606 387.568 307.725 386.673 307.725 385.568C307.725 384.464 306.606 383.568 305.225 383.568C303.844 383.568 302.725 384.464 302.725 385.568C302.725 386.673 303.844 387.568 305.225 387.568Z" fill="#231F20"/>
<path d="M305.225 410.568C306.606 410.568 307.725 409.673 307.725 408.568C307.725 407.464 306.606 406.568 305.225 406.568C303.844 406.568 302.725 407.464 302.725 408.568C302.725 409.673 303.844 410.568 305.225 410.568Z" fill="#231F20"/>
<path d="M305.225 437.568C306.606 437.568 307.725 436.673 307.725 435.568C307.725 434.464 306.606 433.568 305.225 433.568C303.844 433.568 302.725 434.464 302.725 435.568C302.725 436.673 303.844 437.568 305.225 437.568Z" fill="#231F20"/>
<path d="M216.995 443.364C216.939 443.11 216.692 442.952 216.462 443.013C216.326 443.074 216.221 443.162 216.162 443.264C216.103 443.366 216.093 443.477 216.134 443.583L216.176 443.771L216.607 443.661L216.18 443.775C216.195 443.852 216.233 443.926 216.292 443.993C216.333 444.045 216.386 444.103 216.444 444.171C216.668 444.405 216.867 444.649 217.039 444.902C217.169 445.124 217.441 445.191 217.644 445.052C217.752 444.961 217.821 444.853 217.846 444.738C217.87 444.624 217.849 444.507 217.785 444.4C217.583 444.092 217.346 443.794 217.075 443.51C217.034 443.465 217.028 443.487 217.019 443.48L216.995 443.364Z" fill="#FFFFFE"/>
<path d="M215.569 444.758C215.513 445.012 215.266 445.17 215.036 445.109C214.482 444.968 214.711 444.284 215.014 443.953C215.238 443.719 215.436 443.475 215.609 443.222C215.739 443 216.011 442.933 216.214 443.072C216.322 443.164 216.391 443.272 216.415 443.386C216.439 443.501 216.419 443.617 216.355 443.724C216.173 444.034 215.598 444.574 215.563 444.758H215.569Z" fill="#FFFFFE"/>
<path d="M176.928 470.808H153.874C152.138 470.808 150.73 471.761 150.73 472.937V485.711C150.73 486.886 152.138 487.84 153.874 487.84H176.928C178.665 487.84 180.072 486.886 180.072 485.711V472.937C180.072 471.761 178.665 470.808 176.928 470.808Z" fill="#29B71C"/>
<path d="M174.832 485.001H155.97C155.692 485.001 155.425 484.927 155.228 484.793C155.032 484.66 154.922 484.48 154.922 484.292C154.922 484.103 155.032 483.923 155.228 483.79C155.425 483.657 155.692 483.582 155.97 483.582H174.832C175.11 483.582 175.377 483.657 175.573 483.79C175.77 483.923 175.88 484.103 175.88 484.292C175.88 484.48 175.77 484.66 175.573 484.793C175.377 484.927 175.11 485.001 174.832 485.001Z" fill="#EEEEEE"/>
<path d="M168.545 485.711C168.267 485.711 168.001 485.636 167.804 485.503C167.608 485.37 167.497 485.189 167.497 485.001V483.582C167.497 483.394 167.608 483.213 167.804 483.08C168.001 482.947 168.267 482.872 168.545 482.872C168.823 482.872 169.09 482.947 169.286 483.08C169.483 483.213 169.593 483.394 169.593 483.582V485.001C169.593 485.189 169.483 485.37 169.286 485.503C169.09 485.636 168.823 485.711 168.545 485.711Z" fill="#00AEEF"/>
<path d="M170.065 476.96L162.729 474.476C162.57 474.422 162.392 474.396 162.214 474.401C162.035 474.406 161.862 474.442 161.71 474.505C161.557 474.569 161.431 474.657 161.344 474.763C161.257 474.868 161.21 474.987 161.21 475.108V480.7C161.211 480.827 161.262 480.95 161.358 481.059C161.454 481.168 161.591 481.257 161.755 481.317C161.907 481.379 162.081 481.411 162.258 481.41C162.454 481.41 162.646 481.373 162.813 481.303L170.149 478.195C170.308 478.128 170.437 478.033 170.524 477.921C170.61 477.809 170.651 477.683 170.641 477.556C170.631 477.431 170.573 477.31 170.472 477.206C170.37 477.101 170.23 477.016 170.065 476.96Z" fill="#EEEEEE"/>
<path d="M153.874 470.808C153.04 470.808 152.24 471.032 151.651 471.431C151.061 471.83 150.73 472.372 150.73 472.937V485.711C150.73 486.275 151.061 486.817 151.651 487.216C152.24 487.615 153.04 487.84 153.874 487.84H165.401V470.808H153.874Z" fill="#E53935"/>
<path d="M155.97 483.582C155.692 483.582 155.425 483.657 155.228 483.79C155.032 483.923 154.922 484.103 154.922 484.292C154.922 484.48 155.032 484.66 155.228 484.793C155.425 484.927 155.692 485.001 155.97 485.001H165.401V483.582H155.97Z" fill="#FAFAFA"/>
<path d="M162.729 474.476C162.57 474.422 162.392 474.396 162.214 474.401C162.035 474.406 161.862 474.442 161.71 474.505C161.557 474.569 161.431 474.657 161.344 474.763C161.257 474.868 161.21 474.987 161.21 475.108V480.7C161.211 480.827 161.262 480.95 161.358 481.059C161.454 481.168 161.591 481.257 161.755 481.317C161.907 481.379 162.081 481.411 162.258 481.41C162.454 481.41 162.646 481.373 162.813 481.303L165.402 480.203V475.378L162.729 474.476Z" fill="#00AEEF"/>
<path d="M210.882 473.231H214.305L209.415 470V472.262C209.415 472.797 210.072 473.231 210.882 473.231Z" fill="#00AEEF"/>
<path d="M208.882 471.615H188.631V477.269H208.882C209.176 477.269 209.415 477.128 209.415 476.955V471.929C209.415 471.756 209.176 471.615 208.882 471.615Z" fill="#C6CACF"/>
<path d="M207.671 477.269H185.485C185.021 477.269 184.789 476.883 185.117 476.656L188.916 474.038L185.117 471.42C184.789 471.194 185.021 470.808 185.485 470.808H207.671C207.959 470.808 208.192 470.968 208.192 471.167V476.91C208.192 477.108 207.959 477.269 207.671 477.269Z" fill="#00AEEF"/>
<path d="M196.644 472.93H194.626C194.347 472.93 194.121 473.079 194.121 473.263V475.263C194.121 475.447 194.347 475.597 194.626 475.597C194.905 475.597 195.13 475.447 195.13 475.263V474.596H196.644C196.923 474.596 197.149 474.447 197.149 474.263V473.263C197.149 473.079 196.923 472.93 196.644 472.93ZM196.14 473.93H195.13V473.596H196.14V473.93Z" fill="white"/>
<path d="M199.167 472.93H198.158C197.879 472.93 197.653 473.079 197.653 473.263V475.263C197.653 475.447 197.879 475.597 198.158 475.597H200.176C200.455 475.597 200.681 475.447 200.681 475.263V473.93C200.681 473.378 200.002 472.93 199.167 472.93ZM199.672 474.93H198.662V473.596H199.167C199.445 473.596 199.672 473.746 199.672 473.93L199.672 474.93Z" fill="white"/>
<path d="M203.708 472.93H201.69C201.411 472.93 201.185 473.079 201.185 473.263V475.263C201.185 475.447 201.411 475.597 201.69 475.597C201.969 475.597 202.195 475.447 202.195 475.263V474.596H203.204C203.483 474.596 203.708 474.447 203.708 474.263C203.708 474.079 203.483 473.93 203.204 473.93H202.195V473.596H203.708C203.987 473.596 204.213 473.447 204.213 473.263C204.213 473.079 203.987 472.93 203.708 472.93Z" fill="white"/>
<path d="M208.918 488.577H194.018C193.744 488.577 193.521 488.42 193.521 488.227V478.427C193.521 478.234 193.744 478.077 194.018 478.077H208.918C209.193 478.077 209.415 478.234 209.415 478.427V488.227C209.415 488.42 209.193 488.577 208.918 488.577Z" fill="#C6CACF"/>
<path d="M194.515 487.877V478.077H194.018C193.744 478.077 193.521 478.234 193.521 478.427V488.227C193.521 488.42 193.744 488.577 194.018 488.577H208.918C209.193 488.577 209.415 488.42 209.415 488.227V487.877H194.515Z" fill="#00AEEF"/>
<path d="M207.722 486.961H202.549C202.29 486.961 202.079 486.806 202.079 486.615V482.461C202.079 482.27 202.29 482.115 202.549 482.115H207.722C207.982 482.115 208.192 482.27 208.192 482.461V486.615C208.192 486.806 207.982 486.961 207.722 486.961Z" fill="black"/>
<path d="M206.97 482.923H203.302V486.154H206.97V482.923Z" fill="#00AEEF"/>
<path d="M207.746 480.263H202.195C201.916 480.263 201.69 480.114 201.69 479.93C201.69 479.746 201.916 479.597 202.195 479.597H207.746C208.024 479.597 208.25 479.746 208.25 479.93C208.25 480.114 208.024 480.263 207.746 480.263Z" fill="#EF0000"/>
<path d="M207.746 481.597H202.195C201.916 481.597 201.69 481.448 201.69 481.264C201.69 481.08 201.916 480.931 202.195 480.931H207.746C208.024 480.931 208.25 481.08 208.25 481.264C208.25 481.448 208.024 481.597 207.746 481.597Z" fill="#EF0000"/>
<path d="M200.681 480.263H195.635C195.356 480.263 195.13 480.114 195.13 479.93C195.13 479.746 195.356 479.597 195.635 479.597H200.681C200.96 479.597 201.185 479.746 201.185 479.93C201.185 480.114 200.959 480.263 200.681 480.263Z" fill="#EF0000"/>
<path d="M200.681 481.597H195.635C195.356 481.597 195.13 481.448 195.13 481.264C195.13 481.08 195.356 480.931 195.635 480.931H200.681C200.959 480.931 201.185 481.08 201.185 481.264C201.185 481.448 200.959 481.597 200.681 481.597Z" fill="#EF0000"/>
<path d="M200.681 482.93H195.635C195.356 482.93 195.13 482.781 195.13 482.597C195.13 482.413 195.356 482.264 195.635 482.264H200.681C200.959 482.264 201.185 482.413 201.185 482.597C201.185 482.781 200.959 482.93 200.681 482.93Z" fill="#EF0000"/>
<path d="M200.681 484.263H195.635C195.356 484.263 195.13 484.114 195.13 483.93C195.13 483.746 195.356 483.597 195.635 483.597H200.681C200.959 483.597 201.185 483.746 201.185 483.93C201.185 484.114 200.959 484.263 200.681 484.263Z" fill="#EF0000"/>
<path d="M200.681 485.597H195.635C195.356 485.597 195.13 485.448 195.13 485.264C195.13 485.08 195.356 484.931 195.635 484.931H200.681C200.959 484.931 201.185 485.08 201.185 485.264C201.185 485.448 200.959 485.597 200.681 485.597Z" fill="#EF0000"/>
<path d="M200.681 486.93H195.635C195.356 486.93 195.13 486.781 195.13 486.597C195.13 486.413 195.356 486.264 195.635 486.264H200.681C200.959 486.264 201.185 486.413 201.185 486.597C201.185 486.781 200.959 486.93 200.681 486.93Z" fill="#EF0000"/>
<path d="M118.943 488.173V490.193H147.062V488.173L133.066 486.962L118.943 488.173Z" fill="#EEEEEE"/>
<path d="M118.943 486.557V488.576H147.062V486.557L133.066 485.346L118.943 486.557Z" fill="#DCDCDC"/>
<path d="M147.062 471.615V486.154H145.229L140.949 478.884L145.229 471.615H147.062Z" fill="#EEEEEE"/>
<path d="M145.84 471.615V472.844L141.41 478.884L145.84 484.925V486.154H118.943V471.615H145.84Z" fill="white"/>
<path d="M120.166 472.423V481.637L133.003 482.923L145.84 481.637V472.423H120.166Z" fill="#29B71C"/>
<path d="M133.614 474.038V477.269C134.289 477.269 134.836 476.546 134.836 475.653C134.836 474.761 134.289 474.038 133.614 474.038Z" fill="#FE5F1A"/>
<path d="M133.125 474.038C133.395 474.038 133.614 474.761 133.614 475.653C133.614 476.546 133.395 477.269 133.125 477.269C132.045 477.269 131.169 476.546 131.169 475.653C131.169 474.761 132.045 474.038 133.125 474.038Z" fill="#00AEEF"/>
<path d="M145.84 483.731L138.505 479.692L143.957 480.337L145.84 481.639L145.84 483.731Z" fill="#027372"/>
<path d="M142.874 480.568L139.386 478.885L134.892 480.568L132.391 482.23L138.16 485.346H145.84V483.108L142.874 480.568Z" fill="#E53935"/>
<path d="M144.617 480.443L143.592 480.5L139.727 479.305V477.27L144.617 480.443Z" fill="#EEEEEE"/>
<path d="M134.836 480.5L138.966 477.27L142.172 480.5L134.836 480.5Z" fill="white"/>
<path d="M137.282 485.346H135.046L126.278 479.692L131.134 480.364L137.282 485.346Z" fill="#027372"/>
<path d="M129.563 480.568L134.837 485.346H120.166V481.871L122.019 480.568L126.266 478.885L129.563 480.568Z" fill="#00AEEF"/>
<path d="M131.169 480.443L130.144 480.5L126.278 479.305V477.27L131.169 480.443Z" fill="#EEEEEE"/>
<path d="M121.388 480.5L126.206 477.27L129.946 480.5L121.388 480.5Z" fill="white"/>
<path d="M147.797 489.385C147.528 489.385 147.31 489.54 147.31 489.731V490.308H118.696V489.731C118.696 489.54 118.477 489.385 118.208 489.385C117.938 489.385 117.72 489.54 117.72 489.731V490.654C117.72 490.845 117.938 491 118.208 491H147.797C148.067 491 148.285 490.845 148.285 490.654V489.731C148.285 489.54 148.067 489.385 147.797 489.385Z" fill="#00AEEF"/>
<path d="M147.797 486.962C147.528 486.962 147.31 487.117 147.31 487.308V487.885H118.696V487.308C118.696 487.117 118.477 486.962 118.208 486.962C117.938 486.962 117.72 487.117 117.72 487.308V488.231C117.72 488.422 117.938 488.577 118.208 488.577H147.797C148.067 488.577 148.285 488.422 148.285 488.231V487.308C148.285 487.117 148.067 486.962 147.797 486.962Z" fill="#00AEEF"/>
<path d="M147.797 470.808H118.208C117.938 470.808 117.72 470.954 117.72 471.135V486.634C117.72 486.815 117.938 486.961 118.208 486.961H147.797C148.067 486.961 148.285 486.815 148.285 486.634V471.135C148.285 470.954 148.067 470.808 147.797 470.808ZM147.31 486.307H118.696V471.462H147.31V486.307Z" fill="#00AEEF"/>
<path d="M136.059 475.653C136.059 474.763 134.688 474.038 133.003 474.038C131.318 474.038 129.946 474.763 129.946 475.653C129.946 476.544 131.318 477.269 133.003 477.269C134.688 477.269 136.059 476.544 136.059 475.653ZM130.912 475.653C130.912 475.044 131.85 474.548 133.003 474.548C134.156 474.548 135.094 475.044 135.094 475.653C135.094 476.263 134.156 476.759 133.003 476.759C131.85 476.759 130.912 476.263 130.912 475.653Z" fill="black"/>
<path d="M118.943 485.014C118.943 485.197 119.173 485.346 119.457 485.346H146.548C146.832 485.346 147.062 485.197 147.062 485.014V471.947C147.062 471.764 146.832 471.615 146.548 471.615H119.457C119.173 471.615 118.943 471.764 118.943 471.947V474.605C118.943 474.788 119.173 474.937 119.457 474.937C119.741 474.937 119.971 474.788 119.971 474.605V472.28H146.033V480.668L140.139 476.862C139.938 476.732 139.612 476.732 139.411 476.862L133.002 481.001L126.593 476.862C126.392 476.732 126.067 476.732 125.866 476.862L119.971 480.668V475.934C119.971 475.75 119.741 475.602 119.457 475.602C119.173 475.602 118.943 475.75 118.943 475.934V485.014ZM139.775 477.566L143.248 479.809H136.302L139.775 477.566ZM126.23 477.566L129.703 479.809H122.756L126.23 477.566ZM121.728 480.474H130.732L132.638 481.705C132.639 481.706 136.068 483.92 136.068 483.92C136.168 483.985 136.3 484.017 136.432 484.017C136.563 484.017 136.695 483.985 136.796 483.92C136.996 483.79 136.996 483.58 136.796 483.45L133.73 481.47L135.273 480.474H144.277L146.034 481.608V484.682H119.971V481.608L121.728 480.474Z" fill="black"/>
<path fill-rule="evenodd" clip-rule="evenodd" d="M104.354 474.064C104.516 474.064 104.65 474.207 104.65 474.38V480.317H104.059V474.38C104.059 474.204 104.191 474.064 104.354 474.064Z" fill="#FFFFFE"/>
<g filter="url(#filter0_d_0_1)">
<mask id="path-129-inside-1_0_1" fill="white">
<path d="M303 466H47V466H303V466Z"/>
</mask>
<path d="M303 466H47V466H303V466Z" fill="#231F20"/>
<path d="M303 466H47V466H303V466Z" stroke="black" stroke-width="0.6" mask="url(#path-129-inside-1_0_1)"/>
</g>
<path d="M306.698 28C310.74 28 314.69 27.2083 318.051 25.7249C321.411 24.2415 324.031 22.133 325.577 19.6662C327.124 17.1994 327.529 14.485 326.74 11.8663C325.952 9.24754 324.005 6.84209 321.147 4.95408C318.29 3.06607 314.649 1.78031 310.685 1.25941C306.721 0.738507 302.612 1.00584 298.878 2.02763C295.144 3.04941 291.952 4.77976 289.707 6.99982C287.462 9.21989 286.263 11.83 286.263 14.5C286.263 18.0804 288.416 21.5142 292.248 24.0459C296.081 26.5777 301.278 28 306.698 28Z" fill="#14903D"/>
<path d="M306.698 27.5C310.59 27.5 314.394 26.7376 317.63 25.3091C320.866 23.8807 323.389 21.8503 324.878 19.4749C326.367 17.0995 326.757 14.4856 325.998 11.9638C325.238 9.44209 323.364 7.12571 320.612 5.30763C317.86 3.48954 314.354 2.2514 310.537 1.7498C306.72 1.24819 302.763 1.50563 299.168 2.48957C295.572 3.47351 292.499 5.13976 290.336 7.2776C288.174 9.41544 287.02 11.9289 287.02 14.5C287.02 17.9478 289.093 21.2544 292.784 23.6924C296.474 26.1304 301.479 27.5 306.698 27.5Z" stroke="#707070"/>
<path d="M298.457 6.98882H319.543C319.976 7.02109 320.373 7.16418 320.648 7.38741C320.923 7.61063 321.054 7.8962 321.014 8.18282V20.8548C321.016 21.0887 320.929 21.3192 320.76 21.5248C320.731 21.5866 320.683 21.644 320.621 21.6938C320.582 21.7245 320.535 21.7508 320.483 21.7718C320.362 21.8565 320.217 21.9244 320.056 21.9718C319.895 22.0198 319.72 22.0457 319.543 22.0478H307.066C307.156 21.746 307.192 21.4382 307.172 21.1308H319.168L311.334 14.4548L308.748 16.2438C308.702 16.277 308.646 16.3036 308.584 16.3218C308.522 16.3403 308.455 16.3498 308.387 16.3498C308.318 16.3498 308.251 16.3403 308.189 16.3218C308.127 16.3036 308.071 16.277 308.025 16.2438L305.313 14.4548L302.852 16.4548C302.526 16.2732 302.144 16.1417 301.732 16.0698L304.435 13.8698L299.422 10.5568C299.401 10.3202 299.343 10.0856 299.249 9.8568L299.048 9.1378L308.374 15.3078L319.071 7.90779H298.719L298.457 6.98882ZM294.219 12.7608C294.452 13.8106 294.855 14.8409 295.421 15.8338C296.056 16.9205 296.95 17.9333 298.068 18.8338C298.103 18.8654 298.148 18.8905 298.202 18.9068C298.255 18.9229 298.313 18.9298 298.371 18.9268C298.555 18.9078 298.729 18.8605 298.88 18.7888C299.068 18.7045 299.246 18.6109 299.413 18.5088C300.21 18.0598 301.191 17.5008 302.027 18.1278C302.043 18.1421 302.06 18.1558 302.078 18.1688L304.732 20.5478C304.741 20.5568 304.75 20.5658 304.757 20.5748C304.913 20.7533 305.011 20.9509 305.045 21.1555C305.08 21.36 305.05 21.5671 304.959 21.7638C304.765 22.2042 304.423 22.6099 303.958 22.9508C303.44 23.3436 302.722 23.5973 301.94 23.6638C301.237 23.7162 300.526 23.6884 299.836 23.5818C298.766 23.4277 297.774 23.0916 296.96 22.6068C296.006 22.0303 295.164 21.3773 294.455 20.6628L294.395 20.6028C294.009 20.2318 293.592 19.8338 293.203 19.3908C291.637 17.5457 290.566 15.5354 290.038 13.4488C289.527 11.745 289.732 9.98125 290.63 8.3488C291.029 7.58591 291.844 6.9487 292.916 6.56181C293.407 6.41747 293.944 6.3539 294.481 6.37654C295.018 6.39918 295.538 6.50733 295.998 6.69179C296.068 6.7181 296.127 6.75504 296.172 6.79955C296.216 6.84405 296.243 6.89487 296.252 6.9478L297.194 10.3698C297.281 10.5352 297.309 10.712 297.274 10.8858C297.239 11.0597 297.142 11.2257 296.991 11.3698C296.711 11.6078 296.332 11.7867 295.901 11.8848C295.744 11.9367 295.583 11.9828 295.418 12.0228C294.841 12.1758 294.183 12.3548 294.216 12.7748L294.219 12.7608ZM312.179 13.8608L319.867 20.4018V8.5508L312.191 13.8698L312.179 13.8608Z" fill="white"/>
<path d="M308.999 115.958C312.846 115.958 316.608 115.204 319.807 113.792C323.006 112.38 325.499 110.373 326.972 108.024C328.444 105.676 328.83 103.092 328.079 100.599C327.328 98.1055 325.475 95.8155 322.755 94.0181C320.034 92.2208 316.568 90.9968 312.794 90.5009C309.02 90.005 305.109 90.2595 301.554 91.2322C297.999 92.2049 294.961 93.8522 292.823 95.9657C290.686 98.0792 289.545 100.564 289.545 103.106C289.545 106.514 291.595 109.783 295.243 112.194C298.891 114.604 303.839 115.958 308.999 115.958Z" fill="#00AEEF" stroke="#707070"/>
<path d="M310.385 104.367H310.359L309.465 103.685C310.336 103.908 311.304 103.908 312.176 103.685L311.267 104.367H311.251L313.453 107.885L315.465 106.122L317.696 107.23L319.099 105.84C317.607 104.607 315.551 103.726 313.238 103.33C314.14 102.899 314.88 102.337 315.4 101.687C315.919 101.036 316.205 100.316 316.234 99.5805C316.234 98.6309 315.663 97.7202 314.646 97.0487C313.63 96.3772 312.251 96 310.814 96C309.377 96 307.998 96.3772 306.982 97.0487C305.965 97.7202 305.394 98.6309 305.394 99.5805C305.424 100.316 305.71 101.037 306.231 101.687C306.752 102.337 307.492 102.899 308.396 103.33C304.158 104.04 301 106.474 301 108.28C301 109.347 305.907 109.88 310.813 109.88L308.066 108.062L310.385 104.367Z" fill="white"/>
<defs>
<filter id="filter0_d_0_1" x="43" y="465.7" width="264" height="8.59961" filterUnits="userSpaceOnUse" color-interpolation-filters="sRGB">
<feFlood flood-opacity="0" result="BackgroundImageFix"/>
<feColorMatrix in="SourceAlpha" type="matrix" values="0 0 0 0 0 0 0 0 0 0 0 0 0 0 0 0 0 0 127 0" result="hardAlpha"/>
<feOffset dy="4"/>
<feGaussianBlur stdDeviation="2"/>
<feComposite in2="hardAlpha" operator="out"/>
<feColorMatrix type="matrix" values="0 0 0 0 0 0 0 0 0 0 0 0 0 0 0 0 0 0 0.25 0"/>
<feBlend mode="normal" in2="BackgroundImageFix" result="effect1_dropShadow_0_1"/>
<feBlend mode="normal" in="SourceGraphic" in2="effect1_dropShadow_0_1" result="shape"/>
</filter>
</defs>
</svg>
