<svg width="345" height="177" viewBox="0 0 345 177" fill="none" xmlns="http://www.w3.org/2000/svg">
<rect width="345" height="177" fill="#F5F5F5"/>
<path d="M175.832 173.001H156.969C156.692 173.001 156.425 172.927 156.228 172.793C156.032 172.66 155.922 172.48 155.922 172.292C155.922 172.103 156.032 171.923 156.228 171.79C156.425 171.657 156.692 171.582 156.969 171.582H175.832C176.11 171.582 176.377 171.657 176.573 171.79C176.77 171.923 176.88 172.103 176.88 172.292C176.88 172.48 176.77 172.66 176.573 172.793C176.377 172.927 176.11 173.001 175.832 173.001Z" fill="#EEEEEE"/>
<path d="M169.545 173.711C169.267 173.711 169.001 173.636 168.804 173.503C168.608 173.37 168.497 173.189 168.497 173.001V171.582C168.497 171.394 168.608 171.213 168.804 171.08C169.001 170.947 169.267 170.872 169.545 170.872C169.823 170.872 170.09 170.947 170.286 171.08C170.483 171.213 170.593 171.394 170.593 171.582V173.001C170.593 173.189 170.483 173.37 170.286 173.503C170.09 173.636 169.823 173.711 169.545 173.711Z" fill="#00AEEF"/>
<path d="M156.969 171.582C156.692 171.582 156.425 171.657 156.228 171.79C156.032 171.923 155.922 172.103 155.922 172.292C155.922 172.48 156.032 172.66 156.228 172.793C156.425 172.927 156.692 173.001 156.969 173.001H166.401V171.582H156.969Z" fill="#FAFAFA"/>
<path d="M207.97 170.923H204.302V174.154H207.97V170.923Z" fill="#00AEEF"/>
<path d="M201.681 172.264H196.635C196.356 172.264 196.13 172.115 196.13 171.931C196.13 171.747 196.356 171.598 196.635 171.598H201.681C201.959 171.598 202.185 171.747 202.185 171.931C202.185 172.115 201.959 172.264 201.681 172.264Z" fill="#EF0000"/>
<path d="M201.681 173.597H196.635C196.356 173.597 196.13 173.448 196.13 173.264C196.13 173.08 196.356 172.931 196.635 172.931H201.681C201.959 172.931 202.185 173.08 202.185 173.264C202.185 173.448 201.959 173.597 201.681 173.597Z" fill="#EF0000"/>
<path d="M201.681 174.931H196.635C196.356 174.931 196.13 174.782 196.13 174.598C196.13 174.414 196.356 174.265 196.635 174.265H201.681C201.959 174.265 202.185 174.414 202.185 174.598C202.185 174.782 201.959 174.931 201.681 174.931Z" fill="#EF0000"/>
<path d="M119.943 176.173V178.193H148.062V176.173L134.066 174.962L119.943 176.173Z" fill="#EEEEEE"/>
<path d="M119.943 174.558V176.577H148.062V174.558L134.066 173.347L119.943 174.558Z" fill="#DCDCDC"/>
<path d="M148.797 174.962C148.528 174.962 148.31 175.117 148.31 175.308V175.885H119.696V175.308C119.696 175.117 119.477 174.962 119.208 174.962C118.938 174.962 118.72 175.117 118.72 175.308V176.231C118.72 176.422 118.938 176.577 119.208 176.577H148.797C149.067 176.577 149.285 176.422 149.285 176.231V175.308C149.285 175.117 149.067 174.962 148.797 174.962Z" fill="#00AEEF"/>
<path d="M208.722 174.961H203.549C203.29 174.961 203.079 174.806 203.079 174.615V170.461C203.079 170.27 203.29 170.115 203.549 170.115H208.722C208.982 170.115 209.192 170.27 209.192 170.461V174.615C209.192 174.806 208.982 174.961 208.722 174.961Z" fill="black"/>
<path d="M208.746 169.597H203.195C202.916 169.597 202.69 169.448 202.69 169.264C202.69 169.08 202.916 168.931 203.195 168.931H208.746C209.024 168.931 209.25 169.08 209.25 169.264C209.25 169.448 209.024 169.597 208.746 169.597Z" fill="#EF0000"/>
<path d="M201.681 169.597H196.635C196.356 169.597 196.13 169.448 196.13 169.264C196.13 169.08 196.356 168.931 196.635 168.931H201.681C201.96 168.931 202.186 169.08 202.186 169.264C202.186 169.448 201.96 169.597 201.681 169.597Z" fill="#EF0000"/>
<path d="M201.681 170.93H196.635C196.356 170.93 196.13 170.781 196.13 170.597C196.13 170.413 196.356 170.264 196.635 170.264H201.681C201.96 170.264 202.186 170.413 202.186 170.597C202.186 170.781 201.96 170.93 201.681 170.93Z" fill="#EF0000"/>
<g filter="url(#filter0_d_0_1)">
<mask id="path-15-inside-1_0_1" fill="white">
<path d="M297 1H41V1H297V1Z"/>
</mask>
<path d="M297 1H41V1H297V1Z" fill="#231F20"/>
<path d="M297 1H41V1H297V1Z" stroke="black" stroke-width="0.6" mask="url(#path-15-inside-1_0_1)"/>
</g>
<path d="M1 14L0.999979 75" stroke="white"/>
<path d="M1 14L0.999979 75" stroke="white"/>
<path d="M168.439 8H297.417C298.596 8 299.765 8.23235 300.854 8.68379C301.944 9.13523 302.935 9.79691 303.769 10.6311C304.603 11.4652 305.265 12.4555 305.716 13.5454C306.167 14.6352 306.4 15.8033 306.4 16.983V33.152H168.439C165.103 33.152 161.905 31.827 159.546 29.4686C157.188 27.1101 155.863 23.9114 155.863 20.576C155.863 17.2406 157.188 14.0419 159.546 11.6834C161.905 9.32497 165.103 8 168.439 8Z" fill="#00AEEF"/>
<text fill="white" xml:space="preserve" style="white-space: pre" font-family="Harmattan" font-size="15" font-weight="bold" letter-spacing="0em"><tspan x="183" y="24.0872">graphic design skill</tspan></text>
<path d="M306.192 53.668C307.573 53.668 308.692 52.9964 308.692 52.168C308.692 51.3395 307.573 50.668 306.192 50.668C304.811 50.668 303.692 51.3395 303.692 52.168C303.692 52.9964 304.811 53.668 306.192 53.668Z" fill="#231F20"/>
<path d="M306.192 85.668C307.573 85.668 308.692 84.9964 308.692 84.168C308.692 83.3395 307.573 82.668 306.192 82.668C304.811 82.668 303.692 83.3395 303.692 84.168C303.692 84.9964 304.811 85.668 306.192 85.668Z" fill="#231F20"/>
<path d="M306.192 68.668C307.573 68.668 308.692 67.9964 308.692 67.168C308.692 66.3395 307.573 65.668 306.192 65.668C304.811 65.668 303.692 66.3395 303.692 67.168C303.692 67.9964 304.811 68.668 306.192 68.668Z" fill="#231F20"/>
<path d="M306.192 105.668C307.573 105.668 308.692 104.996 308.692 104.168C308.692 103.34 307.573 102.668 306.192 102.668C304.811 102.668 303.692 103.34 303.692 104.168C303.692 104.996 304.811 105.668 306.192 105.668Z" fill="#231F20"/>
<path d="M306.192 124.668C307.573 124.668 308.692 123.996 308.692 123.168C308.692 122.34 307.573 121.668 306.192 121.668C304.811 121.668 303.692 122.34 303.692 123.168C303.692 123.996 304.811 124.668 306.192 124.668Z" fill="#231F20"/>
<path d="M306.192 142.668C307.573 142.668 308.692 141.996 308.692 141.168C308.692 140.34 307.573 139.668 306.192 139.668C304.811 139.668 303.692 140.34 303.692 141.168C303.692 141.996 304.811 142.668 306.192 142.668Z" fill="#231F20"/>
<path d="M301.692 81.668H205.692V86.668H301.692V81.668Z" fill="#949598"/>
<path d="M301.692 64.668H205.692V69.668H301.692V64.668Z" fill="#949598"/>
<path d="M301.692 101.668H205.692V106.668H301.692V101.668Z" fill="#949598"/>
<path d="M301.692 120.668H205.692V125.668H301.692V120.668Z" fill="#949598"/>
<path d="M301.692 138.668H205.692V143.668H301.692V138.668Z" fill="#949598"/>
<path d="M301.692 48.668H205.692V53.668H301.692V48.668Z" fill="#949598"/>
<path d="M284.692 81.668H205.692V86.668H284.692V81.668Z" fill="#00AEEF"/>
<path d="M284.692 64.668H205.692V69.668H284.692V64.668Z" fill="#00AEEF"/>
<path d="M293.692 64.668H205.692V69.668H293.692V64.668Z" fill="#00AEEF"/>
<path d="M267.692 101.668H205.692V106.668H267.692V101.668Z" fill="#00AEEF"/>
<path d="M283.692 120.668H205.692V125.668H283.692V120.668Z" fill="#00AEEF"/>
<path d="M283.692 138.668H205.692V143.668H283.692V138.668Z" fill="#00AEEF"/>
<path d="M282.692 48.668H205.692V53.668H282.692V48.668Z" fill="#00AEEF"/>
<path d="M282.137 80.668C283.61 80.668 285.023 81.0515 286.065 81.7341C287.107 82.4167 287.692 83.3426 287.692 84.308V85.025C287.692 85.5033 287.549 85.9769 287.27 86.4189C286.991 86.8609 286.582 87.2625 286.066 87.6008C285.55 87.9391 284.938 88.2075 284.263 88.3906C283.589 88.5737 282.866 88.668 282.137 88.668C281.552 88.668 280.974 88.5925 280.435 88.446C279.895 88.2995 279.405 88.0847 278.992 87.814C278.579 87.5432 278.252 87.2219 278.029 86.8682C277.806 86.5145 277.691 86.1355 277.692 85.7528V83.5802C277.692 82.8078 278.16 82.0671 278.994 81.5209C279.827 80.9748 280.958 80.668 282.137 80.668Z" fill="black"/>
<path d="M295.692 63.668C297.018 63.668 298.29 64.0515 299.227 64.7341C300.165 65.4167 300.692 66.3426 300.692 67.308V68.025C300.692 68.5033 300.563 68.9769 300.312 69.4189C300.061 69.8609 299.693 70.2625 299.229 70.6008C298.765 70.9391 298.213 71.2075 297.606 71.3906C296.999 71.5737 296.349 71.668 295.692 71.668C295.166 71.668 294.646 71.5925 294.16 71.446C293.675 71.2995 293.234 71.0847 292.862 70.814C292.491 70.5432 292.196 70.2219 291.995 69.8682C291.794 69.5145 291.691 69.1355 291.692 68.7528V66.5802C291.692 65.8078 292.113 65.0671 292.864 64.5209C293.614 63.9748 294.631 63.668 295.692 63.668Z" fill="black"/>
<path d="M267.137 100.668C268.61 100.668 270.023 101.051 271.065 101.734C272.107 102.417 272.692 103.343 272.692 104.308V105.025C272.692 105.503 272.549 105.977 272.27 106.419C271.991 106.861 271.582 107.262 271.066 107.601C270.55 107.939 269.938 108.208 269.263 108.391C268.589 108.574 267.866 108.668 267.137 108.668C266.552 108.668 265.974 108.593 265.435 108.446C264.895 108.299 264.405 108.085 263.992 107.814C263.579 107.543 263.252 107.222 263.029 106.868C262.806 106.515 262.691 106.136 262.692 105.753V103.58C262.692 102.808 263.16 102.067 263.994 101.521C264.827 100.975 265.958 100.668 267.137 100.668Z" fill="black"/>
<path d="M283.692 119.668C285.018 119.668 286.29 120.051 287.227 120.734C288.165 121.417 288.692 122.343 288.692 123.308V124.025C288.692 124.503 288.563 124.977 288.312 125.419C288.061 125.861 287.693 126.262 287.229 126.601C286.765 126.939 286.213 127.208 285.606 127.391C284.999 127.574 284.349 127.668 283.692 127.668C283.166 127.668 282.646 127.593 282.16 127.446C281.675 127.299 281.234 127.085 280.862 126.814C280.491 126.543 280.196 126.222 279.995 125.868C279.794 125.515 279.691 125.136 279.692 124.753V122.58C279.692 121.808 280.113 121.067 280.864 120.521C281.614 119.975 282.631 119.668 283.692 119.668Z" fill="black"/>
<path d="M283.692 137.668C285.018 137.668 286.29 138.051 287.227 138.734C288.165 139.417 288.692 140.343 288.692 141.308V142.025C288.692 142.503 288.563 142.977 288.312 143.419C288.061 143.861 287.693 144.262 287.229 144.601C286.765 144.939 286.213 145.208 285.606 145.391C284.999 145.574 284.349 145.668 283.692 145.668C283.166 145.668 282.646 145.593 282.16 145.446C281.675 145.299 281.234 145.085 280.862 144.814C280.491 144.543 280.196 144.222 279.995 143.868C279.794 143.515 279.691 143.136 279.692 142.753V140.58C279.692 139.808 280.113 139.067 280.864 138.521C281.614 137.975 282.631 137.668 283.692 137.668Z" fill="black"/>
<path d="M278.137 47.668C279.61 47.668 281.023 48.0515 282.065 48.7341C283.107 49.4167 283.692 50.3426 283.692 51.308V52.025C283.692 52.5033 283.549 52.9769 283.27 53.4189C282.991 53.8609 282.582 54.2625 282.066 54.6008C281.55 54.9391 280.938 55.2075 280.263 55.3906C279.589 55.5737 278.866 55.668 278.137 55.668C277.552 55.668 276.974 55.5925 276.435 55.446C275.895 55.2995 275.405 55.0847 274.992 54.814C274.579 54.5432 274.252 54.2219 274.029 53.8682C273.806 53.5145 273.691 53.1355 273.692 52.7528V50.5802C273.692 49.8078 274.16 49.0671 274.994 48.5209C275.827 47.9748 276.958 47.668 278.137 47.668Z" fill="black"/>
<path d="M301.692 138.668H205.692V143.668H301.692V138.668Z" fill="#949598"/>
<path d="M283.692 138.668H205.692V143.668H283.692V138.668Z" fill="#00AEEF"/>
<path d="M283.692 137.668C285.018 137.668 286.29 138.051 287.227 138.734C288.165 139.417 288.692 140.343 288.692 141.308V142.025C288.692 142.503 288.563 142.977 288.312 143.419C288.061 143.861 287.693 144.262 287.229 144.601C286.765 144.939 286.213 145.208 285.606 145.391C284.999 145.574 284.349 145.668 283.692 145.668C283.166 145.668 282.646 145.593 282.16 145.446C281.675 145.299 281.234 145.085 280.862 144.814C280.491 144.543 280.196 144.222 279.995 143.868C279.794 143.515 279.691 143.136 279.692 142.753V140.58C279.692 139.808 280.113 139.067 280.864 138.521C281.614 137.975 282.631 137.668 283.692 137.668Z" fill="black"/>
<text fill="#FF0040" xml:space="preserve" style="white-space: pre" font-family="Bahij TheSansArabic" font-size="13" font-weight="500" letter-spacing="0em"><tspan x="41" y="89.261">Adobe InDesign</tspan></text>
<text fill="#FF0040" xml:space="preserve" style="white-space: pre" font-family="Bahij TheSansArabic" font-size="13" font-weight="500" letter-spacing="0em"><tspan x="41" y="108.261">Adobe Illustrator</tspan></text>
<text fill="#FF0040" xml:space="preserve" style="white-space: pre" font-family="Bahij TheSansArabic" font-size="13" font-weight="500" letter-spacing="0em"><tspan x="40" y="126.261"> Luminar Neo AI</tspan></text>
<text fill="#FF0040" xml:space="preserve" style="white-space: pre" font-family="Bahij TheSansArabic" font-size="13" font-weight="500" letter-spacing="0em"><tspan x="41" y="144.261">Adobe XD</tspan></text>
<text fill="#FF0040" xml:space="preserve" style="white-space: pre" font-family="Bahij TheSansArabic" font-size="13" font-weight="500" letter-spacing="0em"><tspan x="41" y="71.261">topaz Photo AI</tspan></text>
<text fill="#FF0040" xml:space="preserve" style="white-space: pre" font-family="Bahij TheSansArabic" font-size="13" font-weight="500" letter-spacing="0em"><tspan x="39" y="54.261">Adobe Photoshop</tspan></text>
<path d="M194 52H147V51H194V52Z" fill="#00AEEF"/>
<path d="M194 68H147V67H194V68Z" fill="#00AEEF"/>
<path d="M194 105H147V104H194V105Z" fill="#00AEEF"/>
<path d="M194 123H147V122H194V123Z" fill="#00AEEF"/>
<path d="M194 142H147V141H194V142Z" fill="#00AEEF"/>
<path d="M194 86H147V85H194V86Z" fill="#00AEEF"/>
<path d="M217.995 164.364C217.939 164.11 217.692 163.952 217.462 164.013C217.326 164.074 217.221 164.162 217.162 164.264C217.103 164.366 217.093 164.477 217.134 164.583L217.176 164.771L217.607 164.661L217.18 164.775C217.195 164.852 217.233 164.926 217.292 164.993C217.333 165.045 217.386 165.103 217.444 165.171C217.668 165.405 217.867 165.649 218.039 165.902C218.169 166.124 218.441 166.191 218.644 166.052C218.752 165.961 218.821 165.853 218.846 165.738C218.87 165.624 218.849 165.507 218.785 165.4C218.583 165.092 218.346 164.794 218.075 164.51C218.034 164.465 218.028 164.487 218.019 164.48L217.995 164.364Z" fill="#FFFFFE"/>
<path d="M216.569 165.758C216.513 166.012 216.266 166.17 216.036 166.109C215.482 165.968 215.711 165.284 216.014 164.953C216.238 164.719 216.436 164.475 216.609 164.222C216.739 164 217.011 163.933 217.214 164.072C217.322 164.164 217.391 164.272 217.415 164.386C217.439 164.501 217.419 164.617 217.355 164.724C217.173 165.034 216.598 165.574 216.563 165.758H216.569Z" fill="#FFFFFE"/>
<path d="M177.928 158.808H154.874C153.138 158.808 151.73 159.761 151.73 160.937V173.711C151.73 174.886 153.138 175.84 154.874 175.84H177.928C179.665 175.84 181.072 174.886 181.072 173.711V160.937C181.072 159.761 179.665 158.808 177.928 158.808Z" fill="#29B71C"/>
<path d="M171.065 164.96L163.729 162.476C163.57 162.422 163.393 162.396 163.214 162.401C163.036 162.406 162.862 162.442 162.71 162.505C162.557 162.569 162.432 162.657 162.344 162.763C162.257 162.868 162.21 162.987 162.21 163.108V168.7C162.211 168.827 162.263 168.95 162.358 169.059C162.454 169.168 162.591 169.257 162.755 169.317C162.907 169.379 163.081 169.411 163.258 169.41C163.454 169.41 163.647 169.373 163.813 169.303L171.149 166.195C171.308 166.128 171.437 166.033 171.524 165.921C171.61 165.809 171.651 165.683 171.641 165.556C171.631 165.431 171.573 165.31 171.472 165.206C171.37 165.101 171.23 165.016 171.065 164.96Z" fill="#EEEEEE"/>
<path d="M154.874 158.808C154.04 158.808 153.24 159.032 152.651 159.431C152.061 159.83 151.73 160.372 151.73 160.937V173.711C151.73 174.275 152.061 174.817 152.651 175.216C153.24 175.615 154.04 175.84 154.874 175.84H166.401V158.808H154.874Z" fill="#E53935"/>
<path d="M163.729 162.476C163.57 162.422 163.393 162.396 163.214 162.401C163.036 162.406 162.862 162.442 162.71 162.505C162.557 162.569 162.432 162.657 162.344 162.763C162.257 162.868 162.21 162.987 162.21 163.108V168.7C162.211 168.827 162.263 168.95 162.358 169.059C162.454 169.168 162.591 169.257 162.755 169.317C162.907 169.379 163.081 169.411 163.258 169.41C163.454 169.41 163.647 169.373 163.813 169.303L166.402 168.203V163.378L163.729 162.476Z" fill="#00AEEF"/>
<path d="M211.882 161.231H215.305L210.415 158V160.262C210.415 160.797 211.072 161.231 211.882 161.231Z" fill="#00AEEF"/>
<path d="M209.882 159.615H189.63V165.269H209.882C210.176 165.269 210.414 165.128 210.414 164.955V159.929C210.414 159.756 210.176 159.615 209.882 159.615Z" fill="#C6CACF"/>
<path d="M208.671 165.269H186.485C186.021 165.269 185.788 164.883 186.117 164.656L189.916 162.038L186.117 159.42C185.788 159.194 186.021 158.808 186.485 158.808H208.671C208.959 158.808 209.192 158.968 209.192 159.167V164.91C209.192 165.108 208.959 165.269 208.671 165.269Z" fill="#00AEEF"/>
<path d="M197.645 160.93H195.626C195.347 160.93 195.122 161.079 195.122 161.263V163.263C195.122 163.447 195.348 163.597 195.626 163.597C195.905 163.597 196.131 163.447 196.131 163.263V162.596H197.645C197.923 162.596 198.149 162.447 198.149 162.263V161.263C198.149 161.079 197.923 160.93 197.645 160.93ZM197.14 161.93H196.131V161.596H197.14V161.93Z" fill="white"/>
<path d="M200.167 160.93H199.158C198.879 160.93 198.654 161.079 198.654 161.263V163.263C198.654 163.447 198.88 163.597 199.158 163.597H201.177C201.455 163.597 201.681 163.447 201.681 163.263V161.93C201.681 161.378 201.002 160.93 200.167 160.93ZM200.672 162.93H199.663V161.596H200.167C200.446 161.596 200.672 161.746 200.672 161.93L200.672 162.93Z" fill="white"/>
<path d="M204.709 160.93H202.69C202.412 160.93 202.186 161.079 202.186 161.263V163.263C202.186 163.447 202.412 163.597 202.69 163.597C202.969 163.597 203.195 163.447 203.195 163.263V162.596H204.204C204.483 162.596 204.709 162.447 204.709 162.263C204.709 162.079 204.483 161.93 204.204 161.93H203.195V161.596H204.709C204.987 161.596 205.213 161.447 205.213 161.263C205.213 161.079 204.987 160.93 204.709 160.93Z" fill="white"/>
<path d="M209.918 176.577H195.018C194.743 176.577 194.521 176.42 194.521 176.227V166.427C194.521 166.234 194.743 166.077 195.018 166.077H209.918C210.192 166.077 210.415 166.234 210.415 166.427V176.227C210.415 176.42 210.192 176.577 209.918 176.577Z" fill="#C6CACF"/>
<path d="M195.514 175.877V166.077H195.018C194.743 166.077 194.521 166.234 194.521 166.427V176.227C194.521 176.42 194.743 176.577 195.018 176.577H209.918C210.192 176.577 210.415 176.42 210.415 176.227V175.877H195.514Z" fill="#00AEEF"/>
<path d="M208.746 168.263H203.195C202.916 168.263 202.69 168.114 202.69 167.93C202.69 167.746 202.916 167.597 203.195 167.597H208.746C209.024 167.597 209.25 167.746 209.25 167.93C209.25 168.114 209.024 168.263 208.746 168.263Z" fill="#EF0000"/>
<path d="M201.681 168.263H196.635C196.356 168.263 196.13 168.114 196.13 167.93C196.13 167.746 196.356 167.597 196.635 167.597H201.681C201.96 167.597 202.186 167.746 202.186 167.93C202.186 168.114 201.96 168.263 201.681 168.263Z" fill="#EF0000"/>
<path d="M148.062 159.615V174.154H146.228L141.949 166.884L146.228 159.615H148.062Z" fill="#EEEEEE"/>
<path d="M146.839 159.615V160.844L142.409 166.884L146.839 172.925V174.154H119.942V159.615H146.839Z" fill="white"/>
<path d="M121.166 160.423V169.637L134.003 170.923L146.84 169.637V160.423H121.166Z" fill="#29B71C"/>
<path d="M134.614 162.038V165.269C135.289 165.269 135.836 164.546 135.836 163.653C135.836 162.761 135.289 162.038 134.614 162.038Z" fill="#FE5F1A"/>
<path d="M134.125 162.038C134.395 162.038 134.614 162.761 134.614 163.653C134.614 164.546 134.395 165.269 134.125 165.269C133.045 165.269 132.169 164.546 132.169 163.653C132.169 162.761 133.045 162.038 134.125 162.038Z" fill="#00AEEF"/>
<path d="M146.84 171.731L139.504 167.692L144.957 168.337L146.84 169.639L146.84 171.731Z" fill="#027372"/>
<path d="M143.874 168.568L140.386 166.885L135.892 168.568L133.392 170.23L139.16 173.346H146.84V171.108L143.874 168.568Z" fill="#E53935"/>
<path d="M145.617 168.443L144.592 168.5L140.727 167.305V165.27L145.617 168.443Z" fill="#EEEEEE"/>
<path d="M135.836 168.5L139.966 165.27L143.172 168.5L135.836 168.5Z" fill="white"/>
<path d="M138.282 173.346H136.046L127.278 167.692L132.135 168.364L138.282 173.346Z" fill="#027372"/>
<path d="M130.563 168.568L135.837 173.346H121.166V169.871L123.019 168.568L127.266 166.885L130.563 168.568Z" fill="#00AEEF"/>
<path d="M132.169 168.443L131.144 168.5L127.278 167.305V165.27L132.169 168.443Z" fill="#EEEEEE"/>
<path d="M122.388 168.5L127.206 165.27L130.946 168.5L122.388 168.5Z" fill="white"/>
<path d="M148.797 158.808H119.208C118.939 158.808 118.72 158.954 118.72 159.135V174.634C118.72 174.815 118.939 174.961 119.208 174.961H148.797C149.067 174.961 149.285 174.815 149.285 174.634V159.135C149.285 158.954 149.067 158.808 148.797 158.808ZM148.31 174.307H119.696V159.462H148.31V174.307Z" fill="#00AEEF"/>
<path d="M137.059 163.653C137.059 162.763 135.688 162.038 134.003 162.038C132.317 162.038 130.946 162.763 130.946 163.653C130.946 164.544 132.317 165.269 134.003 165.269C135.688 165.269 137.059 164.544 137.059 163.653ZM131.912 163.653C131.912 163.044 132.85 162.548 134.003 162.548C135.156 162.548 136.094 163.044 136.094 163.653C136.094 164.263 135.156 164.759 134.003 164.759C132.85 164.759 131.912 164.263 131.912 163.653Z" fill="black"/>
<path d="M119.942 173.014C119.942 173.197 120.173 173.346 120.457 173.346H147.548C147.832 173.346 148.062 173.197 148.062 173.014V159.947C148.062 159.764 147.832 159.615 147.548 159.615H120.457C120.173 159.615 119.942 159.764 119.942 159.947V162.605C119.942 162.788 120.173 162.937 120.457 162.937C120.741 162.937 120.971 162.788 120.971 162.605V160.28H147.033V168.668L141.139 164.862C140.938 164.732 140.612 164.732 140.411 164.862L134.002 169.001L127.593 164.862C127.392 164.732 127.066 164.732 126.866 164.862L120.971 168.668V163.934C120.971 163.75 120.741 163.602 120.457 163.602C120.173 163.602 119.942 163.75 119.942 163.934V173.014ZM140.775 165.566L144.248 167.809H137.302L140.775 165.566ZM127.23 165.566L130.703 167.809H123.756L127.23 165.566ZM122.727 168.474H131.732L133.638 169.705C133.639 169.706 137.068 171.92 137.068 171.92C137.168 171.985 137.3 172.017 137.432 172.017C137.563 172.017 137.695 171.985 137.795 171.92C137.996 171.79 137.996 171.58 137.795 171.45L134.73 169.47L136.273 168.474H145.277L147.033 169.608V172.682H120.971V169.608L122.727 168.474Z" fill="black"/>
<path fill-rule="evenodd" clip-rule="evenodd" d="M105.354 162.064C105.516 162.064 105.65 162.207 105.65 162.38V168.317H105.059V162.38C105.059 162.204 105.191 162.064 105.354 162.064Z" fill="#FFFFFE"/>
<g filter="url(#filter1_d_0_1)">
<mask id="path-93-inside-2_0_1" fill="white">
<path d="M308 158H52V158H308V158Z"/>
</mask>
<path d="M308 158H52V158H308V158Z" fill="#231F20"/>
<path d="M308 158H52V158H308V158Z" stroke="black" stroke-width="0.6" mask="url(#path-93-inside-2_0_1)"/>
</g>
<path d="M344 14L344 75" stroke="white"/>
<path d="M344 14L344 75" stroke="white"/>
<defs>
<filter id="filter0_d_0_1" x="37" y="0.700195" width="264" height="8.59961" filterUnits="userSpaceOnUse" color-interpolation-filters="sRGB">
<feFlood flood-opacity="0" result="BackgroundImageFix"/>
<feColorMatrix in="SourceAlpha" type="matrix" values="0 0 0 0 0 0 0 0 0 0 0 0 0 0 0 0 0 0 127 0" result="hardAlpha"/>
<feOffset dy="4"/>
<feGaussianBlur stdDeviation="2"/>
<feComposite in2="hardAlpha" operator="out"/>
<feColorMatrix type="matrix" values="0 0 0 0 0 0 0 0 0 0 0 0 0 0 0 0 0 0 0.25 0"/>
<feBlend mode="normal" in2="BackgroundImageFix" result="effect1_dropShadow_0_1"/>
<feBlend mode="normal" in="SourceGraphic" in2="effect1_dropShadow_0_1" result="shape"/>
</filter>
<filter id="filter1_d_0_1" x="48" y="157.7" width="264" height="8.59961" filterUnits="userSpaceOnUse" color-interpolation-filters="sRGB">
<feFlood flood-opacity="0" result="BackgroundImageFix"/>
<feColorMatrix in="SourceAlpha" type="matrix" values="0 0 0 0 0 0 0 0 0 0 0 0 0 0 0 0 0 0 127 0" result="hardAlpha"/>
<feOffset dy="4"/>
<feGaussianBlur stdDeviation="2"/>
<feComposite in2="hardAlpha" operator="out"/>
<feColorMatrix type="matrix" values="0 0 0 0 0 0 0 0 0 0 0 0 0 0 0 0 0 0 0.25 0"/>
<feBlend mode="normal" in2="BackgroundImageFix" result="effect1_dropShadow_0_1"/>
<feBlend mode="normal" in="SourceGraphic" in2="effect1_dropShadow_0_1" result="shape"/>
</filter>
</defs>
</svg>
