<svg width="345" height="182" viewBox="0 0 345 182" fill="none" xmlns="http://www.w3.org/2000/svg">
<rect width="345" height="182" fill="#F5F5F5"/>
<path d="M90.7157 15H292.917C294.767 15 296.598 15.2309 298.306 15.6797C300.015 16.1284 301.568 16.7861 302.875 17.6152C304.183 18.4443 305.22 19.4286 305.928 20.5118C306.636 21.5951 307 22.7562 307 23.9287V40H90.7157C85.4867 40 80.472 38.683 76.7746 36.3388C73.0772 33.9946 71 30.8152 71 27.5C71 24.1848 73.0772 21.0054 76.7746 18.6612C80.472 16.317 85.4867 15 90.7157 15Z" fill="#00AEEF"/>
<text fill="white" xml:space="preserve" style="white-space: pre" font-family="Harmattan" font-size="15" font-weight="bold" letter-spacing="0em"><tspan x="90" y="31.0872">Mastering interactive content design</tspan></text>
<g filter="url(#filter0_d_0_1)">
<mask id="path-3-inside-1_0_1" fill="white">
<path d="M308 1H52V1H308V1Z"/>
</mask>
<path d="M308 1H52V1H308V1Z" fill="#231F20"/>
<path d="M308 1H52V1H308V1Z" stroke="black" stroke-width="0.6" mask="url(#path-3-inside-1_0_1)"/>
</g>
<path d="M306.829 68.0996C308.209 68.0996 309.329 67.2042 309.329 66.0996C309.329 64.995 308.209 64.0996 306.829 64.0996C305.448 64.0996 304.329 64.995 304.329 66.0996C304.329 67.2042 305.448 68.0996 306.829 68.0996Z" fill="#231F20"/>
<path d="M306.829 98.0996C308.209 98.0996 309.329 97.2042 309.329 96.0996C309.329 94.995 308.209 94.0996 306.829 94.0996C305.448 94.0996 304.329 94.995 304.329 96.0996C304.329 97.2042 305.448 98.0996 306.829 98.0996Z" fill="#231F20"/>
<path d="M306.829 120.1C308.209 120.1 309.329 119.204 309.329 118.1C309.329 116.995 308.209 116.1 306.829 116.1C305.448 116.1 304.329 116.995 304.329 118.1C304.329 119.204 305.448 120.1 306.829 120.1Z" fill="#231F20"/>
<path d="M306.829 140.1C308.209 140.1 309.329 139.204 309.329 138.1C309.329 136.995 308.209 136.1 306.829 136.1C305.448 136.1 304.329 136.995 304.329 138.1C304.329 139.204 305.448 140.1 306.829 140.1Z" fill="#231F20"/>
<path d="M303.329 93.0996H206.329V99.0996H303.329V93.0996Z" fill="#949598"/>
<path d="M303.329 115.1H206.329V121.1H303.329V115.1Z" fill="#949598"/>
<path d="M303.329 135.1H206.329V141.1H303.329V135.1Z" fill="#949598"/>
<path d="M303.329 62.0996H206.329V68.0996H303.329V62.0996Z" fill="#949598"/>
<path d="M298.329 93.0996H206.329V99.0996H298.329V93.0996Z" fill="#00AEEF"/>
<path d="M259.329 115.1H206.329V121.1H259.329V115.1Z" fill="#00AEEF"/>
<path d="M259.329 135.1H206.329V141.1H259.329V135.1Z" fill="#00AEEF"/>
<path d="M276.329 62.0996H206.329V68.0996H276.329V62.0996Z" fill="#00AEEF"/>
<path d="M295.773 92.0996C297.247 92.0996 298.66 92.4831 299.701 93.1657C300.743 93.8484 301.329 94.7742 301.329 95.7396V96.4567C301.329 96.9349 301.186 97.4086 300.907 97.8505C300.628 98.2925 300.219 98.6941 299.703 99.0324C299.187 99.3708 298.575 99.6391 297.9 99.8223C297.226 100.005 296.503 100.1 295.773 100.1C295.189 100.1 294.611 100.024 294.071 99.8777C293.532 99.7311 293.042 99.5163 292.629 99.2456C292.216 98.9749 291.889 98.6535 291.666 98.2998C291.443 97.9462 291.328 97.5672 291.329 97.1845V95.0118C291.329 94.2394 291.797 93.4987 292.63 92.9526C293.464 92.4064 294.594 92.0996 295.773 92.0996Z" fill="black"/>
<path d="M258.329 114.1C259.655 114.1 260.927 114.483 261.864 115.166C262.802 115.848 263.329 116.774 263.329 117.74V118.457C263.329 118.935 263.2 119.409 262.949 119.851C262.698 120.293 262.33 120.694 261.866 121.032C261.401 121.371 260.85 121.639 260.243 121.822C259.636 122.005 258.986 122.1 258.329 122.1C257.803 122.1 257.283 122.024 256.797 121.878C256.311 121.731 255.87 121.516 255.499 121.246C255.127 120.975 254.833 120.653 254.632 120.3C254.431 119.946 254.328 119.567 254.329 119.184V117.012C254.329 116.239 254.75 115.499 255.5 114.953C256.25 114.406 257.268 114.1 258.329 114.1Z" fill="black"/>
<path d="M258.329 134.1C259.655 134.1 260.927 134.483 261.864 135.166C262.802 135.848 263.329 136.774 263.329 137.74V138.457C263.329 138.935 263.2 139.409 262.949 139.851C262.698 140.293 262.33 140.694 261.866 141.032C261.401 141.371 260.85 141.639 260.243 141.822C259.636 142.005 258.986 142.1 258.329 142.1C257.803 142.1 257.283 142.024 256.797 141.878C256.311 141.731 255.87 141.516 255.499 141.246C255.127 140.975 254.833 140.653 254.632 140.3C254.431 139.946 254.328 139.567 254.329 139.184V137.012C254.329 136.239 254.75 135.499 255.5 134.953C256.25 134.406 257.268 134.1 258.329 134.1Z" fill="black"/>
<path d="M272.329 61.0996C273.655 61.0996 274.927 61.4831 275.864 62.1657C276.802 62.8484 277.329 63.7742 277.329 64.7396V65.4567C277.329 65.9349 277.2 66.4086 276.949 66.8505C276.698 67.2925 276.33 67.6941 275.866 68.0324C275.401 68.3708 274.85 68.6391 274.243 68.8223C273.636 69.0054 272.986 69.0996 272.329 69.0996C271.803 69.0996 271.283 69.0242 270.797 68.8777C270.311 68.7311 269.87 68.5163 269.499 68.2456C269.127 67.9749 268.833 67.6535 268.632 67.2998C268.431 66.9462 268.328 66.5672 268.329 66.1845V64.0118C268.329 63.2394 268.75 62.4987 269.5 61.9526C270.25 61.4064 271.268 61.0996 272.329 61.0996Z" fill="black"/>
<text fill="#FF0040" xml:space="preserve" style="white-space: pre" font-family="Bahij TheSansArabic" font-size="13" font-weight="500" letter-spacing="0em"><tspan x="39" y="99.261">Microsoft PowerPoint</tspan></text>
<text fill="#FF0040" xml:space="preserve" style="white-space: pre" font-family="Bahij TheSansArabic" font-size="13" font-weight="500" letter-spacing="0em"><tspan x="39" y="118.261">Adobe Premiere Pro</tspan></text>
<text fill="#FF0040" xml:space="preserve" style="white-space: pre" font-family="Bahij TheSansArabic" font-size="13" font-weight="500" letter-spacing="0em"><tspan x="39" y="137.261">Adobe Audition</tspan></text>
<text fill="#FF0040" xml:space="preserve" style="white-space: pre" font-family="Bahij TheSansArabic" font-size="13" font-weight="500" letter-spacing="0em"><tspan x="42" y="63.261">Articulate Storyline</tspan></text>
<text fill="black" xml:space="preserve" style="white-space: pre" font-family="Bahij TheSansArabic" font-size="7" font-weight="500" letter-spacing="0em"><tspan x="43.0801" y="72.5251">Quizzes &#38; Assessments</tspan></text>
<text fill="black" xml:space="preserve" style="white-space: pre" font-family="Harmattan" font-size="7" font-weight="500" letter-spacing="0em"><tspan x="39" y="146.441">Noise and distortion removal</tspan></text>
<path d="M214.967 167.364C214.911 167.11 214.665 166.952 214.435 167.013C214.298 167.074 214.194 167.162 214.135 167.264C214.076 167.366 214.066 167.477 214.106 167.583L214.149 167.771L214.58 167.661L214.153 167.775C214.168 167.852 214.206 167.926 214.265 167.993C214.306 168.045 214.359 168.103 214.417 168.171C214.64 168.405 214.839 168.649 215.011 168.902C215.142 169.124 215.414 169.191 215.617 169.052C215.725 168.961 215.794 168.853 215.818 168.738C215.842 168.624 215.821 168.507 215.758 168.4C215.556 168.092 215.319 167.794 215.048 167.51C215.007 167.465 215.001 167.487 214.992 167.48L214.967 167.364Z" fill="#FFFFFE"/>
<path d="M213.542 168.758C213.486 169.012 213.239 169.17 213.009 169.109C212.455 168.968 212.684 168.284 212.986 167.953C213.21 167.719 213.409 167.475 213.581 167.222C213.711 167 213.984 166.933 214.187 167.072C214.294 167.164 214.364 167.272 214.388 167.386C214.412 167.501 214.391 167.617 214.327 167.724C214.146 168.034 213.571 168.574 213.536 168.758H213.542Z" fill="#FFFFFE"/>
<path d="M174.901 161.808H151.846C150.11 161.808 148.703 162.761 148.703 163.937V176.711C148.703 177.886 150.11 178.84 151.846 178.84H174.901C176.637 178.84 178.045 177.886 178.045 176.711V163.937C178.045 162.761 176.637 161.808 174.901 161.808Z" fill="#29B71C"/>
<path d="M172.805 176.001H153.942C153.664 176.001 153.398 175.927 153.201 175.793C153.005 175.66 152.894 175.48 152.894 175.292C152.894 175.103 153.005 174.923 153.201 174.79C153.398 174.657 153.664 174.582 153.942 174.582H172.805C173.083 174.582 173.349 174.657 173.546 174.79C173.742 174.923 173.853 175.103 173.853 175.292C173.853 175.48 173.742 175.66 173.546 175.793C173.349 175.927 173.083 176.001 172.805 176.001Z" fill="#EEEEEE"/>
<path d="M166.518 176.711C166.24 176.711 165.973 176.636 165.777 176.503C165.58 176.37 165.47 176.189 165.47 176.001V174.582C165.47 174.394 165.58 174.213 165.777 174.08C165.973 173.947 166.24 173.872 166.518 173.872C166.796 173.872 167.062 173.947 167.259 174.08C167.455 174.213 167.566 174.394 167.566 174.582V176.001C167.566 176.189 167.455 176.37 167.259 176.503C167.062 176.636 166.796 176.711 166.518 176.711Z" fill="#00AEEF"/>
<path d="M168.037 167.96L160.702 165.476C160.542 165.422 160.365 165.396 160.186 165.401C160.008 165.406 159.834 165.442 159.682 165.505C159.53 165.569 159.404 165.657 159.317 165.763C159.229 165.868 159.183 165.987 159.182 166.108V171.7C159.184 171.827 159.235 171.95 159.331 172.059C159.427 172.168 159.564 172.257 159.727 172.317C159.879 172.379 160.053 172.411 160.23 172.41C160.427 172.41 160.619 172.373 160.786 172.303L168.121 169.195C168.28 169.128 168.41 169.033 168.496 168.921C168.583 168.809 168.623 168.683 168.614 168.556C168.604 168.431 168.545 168.31 168.444 168.206C168.343 168.101 168.203 168.016 168.037 167.96Z" fill="#EEEEEE"/>
<path d="M151.846 161.808C151.013 161.808 150.213 162.032 149.623 162.431C149.034 162.83 148.703 163.372 148.703 163.937V176.711C148.703 177.275 149.034 177.817 149.623 178.216C150.213 178.615 151.013 178.84 151.846 178.84H163.374V161.808H151.846Z" fill="#E53935"/>
<path d="M153.942 174.582C153.664 174.582 153.398 174.657 153.201 174.79C153.005 174.923 152.894 175.103 152.894 175.292C152.894 175.48 153.005 175.66 153.201 175.793C153.398 175.927 153.664 176.001 153.942 176.001H163.373V174.582H153.942Z" fill="#FAFAFA"/>
<path d="M160.702 165.476C160.542 165.422 160.365 165.396 160.186 165.401C160.008 165.406 159.834 165.442 159.682 165.505C159.53 165.569 159.404 165.657 159.317 165.763C159.229 165.868 159.183 165.987 159.182 166.108V171.7C159.184 171.827 159.235 171.95 159.331 172.059C159.427 172.168 159.564 172.257 159.727 172.317C159.879 172.379 160.053 172.411 160.23 172.41C160.427 172.41 160.619 172.373 160.786 172.303L163.374 171.203V166.378L160.702 165.476Z" fill="#00AEEF"/>
<path d="M208.855 164.231H212.278L207.388 161V163.262C207.388 163.797 208.044 164.231 208.855 164.231Z" fill="#00AEEF"/>
<path d="M206.854 162.615H186.603V168.269H206.854C207.149 168.269 207.387 168.128 207.387 167.955V162.929C207.387 162.756 207.149 162.615 206.854 162.615Z" fill="#C6CACF"/>
<path d="M205.644 168.269H183.458C182.994 168.269 182.761 167.883 183.089 167.656L186.889 165.038L183.089 162.42C182.761 162.194 182.994 161.808 183.458 161.808H205.644C205.932 161.808 206.165 161.968 206.165 162.167V167.91C206.165 168.108 205.932 168.269 205.644 168.269Z" fill="#00AEEF"/>
<path d="M194.617 163.93H192.599C192.32 163.93 192.094 164.079 192.094 164.263V166.263C192.094 166.447 192.32 166.597 192.599 166.597C192.878 166.597 193.103 166.447 193.103 166.263V165.596H194.617C194.896 165.596 195.122 165.447 195.122 165.263V164.263C195.122 164.079 194.896 163.93 194.617 163.93ZM194.113 164.93H193.103V164.596H194.113V164.93Z" fill="white"/>
<path d="M197.14 163.93H196.131C195.852 163.93 195.626 164.079 195.626 164.263V166.263C195.626 166.447 195.852 166.597 196.131 166.597H198.149C198.428 166.597 198.654 166.447 198.654 166.263V164.93C198.654 164.378 197.975 163.93 197.14 163.93ZM197.645 165.93H196.636V164.596H197.14C197.418 164.596 197.645 164.746 197.645 164.93L197.645 165.93Z" fill="white"/>
<path d="M201.682 163.93H199.663C199.384 163.93 199.159 164.079 199.159 164.263V166.263C199.159 166.447 199.385 166.597 199.663 166.597C199.942 166.597 200.168 166.447 200.168 166.263V165.596H201.177C201.456 165.596 201.682 165.447 201.682 165.263C201.682 165.079 201.456 164.93 201.177 164.93H200.168V164.596H201.682C201.96 164.596 202.186 164.447 202.186 164.263C202.186 164.079 201.96 163.93 201.682 163.93Z" fill="white"/>
<path d="M206.891 179.577H191.99C191.716 179.577 191.494 179.42 191.494 179.227V169.427C191.494 169.234 191.716 169.077 191.99 169.077H206.891C207.165 169.077 207.388 169.234 207.388 169.427V179.227C207.388 179.42 207.165 179.577 206.891 179.577Z" fill="#C6CACF"/>
<path d="M192.487 178.877V169.077H191.99C191.716 169.077 191.494 169.234 191.494 169.427V179.227C191.494 179.42 191.716 179.577 191.99 179.577H206.891C207.165 179.577 207.388 179.42 207.388 179.227V178.877H192.487Z" fill="#00AEEF"/>
<path d="M205.695 177.961H200.522C200.262 177.961 200.052 177.806 200.052 177.615V173.461C200.052 173.27 200.262 173.115 200.522 173.115H205.695C205.954 173.115 206.165 173.27 206.165 173.461V177.615C206.165 177.806 205.954 177.961 205.695 177.961Z" fill="black"/>
<path d="M204.942 173.923H201.274V177.154H204.942V173.923Z" fill="#00AEEF"/>
<path d="M205.718 171.263H200.168C199.889 171.263 199.663 171.114 199.663 170.93C199.663 170.746 199.889 170.597 200.168 170.597H205.718C205.997 170.597 206.223 170.746 206.223 170.93C206.223 171.114 205.997 171.263 205.718 171.263Z" fill="#EF0000"/>
<path d="M205.718 172.597H200.168C199.889 172.597 199.663 172.448 199.663 172.264C199.663 172.08 199.889 171.931 200.168 171.931H205.718C205.997 171.931 206.223 172.08 206.223 172.264C206.223 172.448 205.997 172.597 205.718 172.597Z" fill="#EF0000"/>
<path d="M198.653 171.263H193.607C193.329 171.263 193.103 171.114 193.103 170.93C193.103 170.746 193.329 170.597 193.607 170.597H198.653C198.932 170.597 199.158 170.746 199.158 170.93C199.158 171.114 198.932 171.263 198.653 171.263Z" fill="#EF0000"/>
<path d="M198.653 172.597H193.607C193.329 172.597 193.103 172.448 193.103 172.264C193.103 172.08 193.329 171.931 193.607 171.931H198.653C198.932 171.931 199.158 172.08 199.158 172.264C199.158 172.448 198.932 172.597 198.653 172.597Z" fill="#EF0000"/>
<path d="M198.653 173.93H193.607C193.329 173.93 193.103 173.781 193.103 173.597C193.103 173.413 193.329 173.264 193.607 173.264H198.653C198.932 173.264 199.158 173.413 199.158 173.597C199.158 173.781 198.932 173.93 198.653 173.93Z" fill="#EF0000"/>
<path d="M198.653 175.263H193.607C193.329 175.263 193.103 175.114 193.103 174.93C193.103 174.746 193.329 174.597 193.607 174.597H198.653C198.932 174.597 199.158 174.746 199.158 174.93C199.158 175.114 198.932 175.263 198.653 175.263Z" fill="#EF0000"/>
<path d="M198.653 176.597H193.607C193.329 176.597 193.103 176.448 193.103 176.264C193.103 176.08 193.329 175.931 193.607 175.931H198.653C198.932 175.931 199.158 176.08 199.158 176.264C199.158 176.448 198.932 176.597 198.653 176.597Z" fill="#EF0000"/>
<path d="M198.653 177.93H193.607C193.329 177.93 193.103 177.781 193.103 177.597C193.103 177.413 193.329 177.264 193.607 177.264H198.653C198.932 177.264 199.158 177.413 199.158 177.597C199.158 177.781 198.932 177.93 198.653 177.93Z" fill="#EF0000"/>
<path d="M116.915 179.173V181.193H145.035V179.173L131.039 177.962L116.915 179.173Z" fill="#EEEEEE"/>
<path d="M116.915 177.557V179.576H145.035V177.557L131.039 176.346L116.915 177.557Z" fill="#DCDCDC"/>
<path d="M145.035 162.615V177.154H143.201L138.922 169.884L143.201 162.615H145.035Z" fill="#EEEEEE"/>
<path d="M143.812 162.615V163.844L139.382 169.884L143.812 175.925V177.154H116.915V162.615H143.812Z" fill="white"/>
<path d="M118.138 163.423V172.637L130.976 173.923L143.813 172.637V163.423H118.138Z" fill="#29B71C"/>
<path d="M131.586 165.038V168.269C132.262 168.269 132.809 167.546 132.809 166.653C132.809 165.761 132.262 165.038 131.586 165.038Z" fill="#FE5F1A"/>
<path d="M131.098 165.038C131.368 165.038 131.587 165.761 131.587 166.653C131.587 167.546 131.368 168.269 131.098 168.269C130.017 168.269 129.142 167.546 129.142 166.653C129.142 165.761 130.017 165.038 131.098 165.038Z" fill="#00AEEF"/>
<path d="M143.812 174.731L136.477 170.692L141.93 171.337L143.813 172.639L143.812 174.731Z" fill="#027372"/>
<path d="M140.846 171.568L137.358 169.885L132.865 171.568L130.364 173.23L136.133 176.346H143.813V174.108L140.846 171.568Z" fill="#E53935"/>
<path d="M142.59 171.443L141.565 171.5L137.7 170.305V168.27L142.59 171.443Z" fill="#EEEEEE"/>
<path d="M132.809 171.5L136.939 168.27L140.145 171.5L132.809 171.5Z" fill="white"/>
<path d="M135.254 176.346H133.019L124.251 170.692L129.107 171.364L135.254 176.346Z" fill="#027372"/>
<path d="M127.535 171.568L132.81 176.346H118.138V172.871L119.992 171.568L124.239 169.885L127.535 171.568Z" fill="#00AEEF"/>
<path d="M129.141 171.443L128.116 171.5L124.251 170.305V168.27L129.141 171.443Z" fill="#EEEEEE"/>
<path d="M119.361 171.5L124.179 168.27L127.919 171.5L119.361 171.5Z" fill="white"/>
<path d="M145.77 180.385C145.5 180.385 145.282 180.54 145.282 180.731V181.308H116.668V180.731C116.668 180.54 116.45 180.385 116.18 180.385C115.911 180.385 115.693 180.54 115.693 180.731V181.654C115.693 181.845 115.911 182 116.18 182H145.77C146.039 182 146.258 181.845 146.258 181.654V180.731C146.258 180.54 146.039 180.385 145.77 180.385Z" fill="#00AEEF"/>
<path d="M145.77 177.962C145.5 177.962 145.282 178.117 145.282 178.308V178.885H116.668V178.308C116.668 178.117 116.45 177.962 116.18 177.962C115.911 177.962 115.693 178.117 115.693 178.308V179.231C115.693 179.422 115.911 179.577 116.18 179.577H145.77C146.039 179.577 146.258 179.422 146.258 179.231V178.308C146.258 178.117 146.039 177.962 145.77 177.962Z" fill="#00AEEF"/>
<path d="M145.77 161.808H116.18C115.911 161.808 115.693 161.954 115.693 162.135V177.634C115.693 177.815 115.911 177.961 116.18 177.961H145.77C146.039 177.961 146.258 177.815 146.258 177.634V162.135C146.258 161.954 146.039 161.808 145.77 161.808ZM145.282 177.307H116.668V162.462H145.282V177.307Z" fill="#00AEEF"/>
<path d="M134.032 166.653C134.032 165.763 132.661 165.038 130.975 165.038C129.29 165.038 127.919 165.763 127.919 166.653C127.919 167.544 129.29 168.269 130.975 168.269C132.661 168.269 134.032 167.544 134.032 166.653ZM128.884 166.653C128.884 166.044 129.822 165.548 130.975 165.548C132.129 165.548 133.067 166.044 133.067 166.653C133.067 167.263 132.129 167.759 130.975 167.759C129.822 167.759 128.884 167.263 128.884 166.653Z" fill="black"/>
<path d="M116.915 176.014C116.915 176.197 117.145 176.346 117.43 176.346H144.52C144.805 176.346 145.035 176.197 145.035 176.014V162.947C145.035 162.764 144.805 162.615 144.52 162.615H117.43C117.145 162.615 116.915 162.764 116.915 162.947V165.605C116.915 165.788 117.145 165.937 117.43 165.937C117.714 165.937 117.944 165.788 117.944 165.605V163.28H144.006V171.668L138.111 167.862C137.911 167.732 137.585 167.732 137.384 167.862L130.975 172.001L124.566 167.862C124.365 167.732 124.039 167.732 123.839 167.862L117.944 171.668V166.934C117.944 166.75 117.714 166.602 117.43 166.602C117.145 166.602 116.915 166.75 116.915 166.934V176.014ZM137.748 168.566L141.221 170.809H134.274L137.748 168.566ZM124.202 168.566L127.676 170.809H120.729L124.202 168.566ZM119.7 171.474H128.704L130.611 172.705C130.612 172.706 134.041 174.92 134.041 174.92C134.141 174.985 134.273 175.017 134.404 175.017C134.536 175.017 134.668 174.985 134.768 174.92C134.969 174.79 134.969 174.58 134.768 174.45L131.703 172.47L133.246 171.474H142.25L144.006 172.608V175.682H117.944V172.608L119.7 171.474Z" fill="black"/>
<path fill-rule="evenodd" clip-rule="evenodd" d="M102.326 165.064C102.489 165.064 102.622 165.207 102.622 165.38V171.317H102.032V165.38C102.032 165.204 102.164 165.064 102.326 165.064Z" fill="#FFFFFE"/>
<g filter="url(#filter1_d_0_1)">
<mask id="path-74-inside-2_0_1" fill="white">
<path d="M307.893 161H52.0801V161H307.893V161Z"/>
</mask>
<path d="M307.893 161H52.0801V161H307.893V161Z" fill="#231F20"/>
<path d="M307.893 161H52.0801V161H307.893V161Z" stroke="black" stroke-width="0.6" mask="url(#path-74-inside-2_0_1)"/>
</g>
<path d="M344 44L344 105" stroke="white"/>
<path d="M1 44L0.999979 105" stroke="white"/>
<defs>
<filter id="filter0_d_0_1" x="48" y="0.700195" width="264" height="8.59961" filterUnits="userSpaceOnUse" color-interpolation-filters="sRGB">
<feFlood flood-opacity="0" result="BackgroundImageFix"/>
<feColorMatrix in="SourceAlpha" type="matrix" values="0 0 0 0 0 0 0 0 0 0 0 0 0 0 0 0 0 0 127 0" result="hardAlpha"/>
<feOffset dy="4"/>
<feGaussianBlur stdDeviation="2"/>
<feComposite in2="hardAlpha" operator="out"/>
<feColorMatrix type="matrix" values="0 0 0 0 0 0 0 0 0 0 0 0 0 0 0 0 0 0 0.25 0"/>
<feBlend mode="normal" in2="BackgroundImageFix" result="effect1_dropShadow_0_1"/>
<feBlend mode="normal" in="SourceGraphic" in2="effect1_dropShadow_0_1" result="shape"/>
</filter>
<filter id="filter1_d_0_1" x="48.0801" y="160.7" width="263.813" height="8.59961" filterUnits="userSpaceOnUse" color-interpolation-filters="sRGB">
<feFlood flood-opacity="0" result="BackgroundImageFix"/>
<feColorMatrix in="SourceAlpha" type="matrix" values="0 0 0 0 0 0 0 0 0 0 0 0 0 0 0 0 0 0 127 0" result="hardAlpha"/>
<feOffset dy="4"/>
<feGaussianBlur stdDeviation="2"/>
<feComposite in2="hardAlpha" operator="out"/>
<feColorMatrix type="matrix" values="0 0 0 0 0 0 0 0 0 0 0 0 0 0 0 0 0 0 0.25 0"/>
<feBlend mode="normal" in2="BackgroundImageFix" result="effect1_dropShadow_0_1"/>
<feBlend mode="normal" in="SourceGraphic" in2="effect1_dropShadow_0_1" result="shape"/>
</filter>
</defs>
</svg>
