<svg width="809" height="400" viewBox="0 0 809 400" fill="none" xmlns="http://www.w3.org/2000/svg">
<rect width="809" height="400" fill="#F5F5F5"/>
<path d="M745.449 1L742.613 3.93501L740.44 2.8102L739.187 3.95773L743.127 6L747.187 1.7989L745.449 1Z" fill="white"/>
<path d="M730.625 25.2485C731.489 25.2485 732.333 25.0793 733.051 24.7624C733.768 24.4455 734.328 23.9951 734.658 23.4681C734.989 22.9411 735.075 22.3613 734.907 21.8018C734.738 21.2424 734.323 20.7285 733.712 20.3252C733.102 19.9218 732.324 19.6472 731.477 19.5359C730.63 19.4246 729.752 19.4817 728.955 19.7C728.157 19.9183 727.475 20.2879 726.995 20.7622C726.516 21.2365 726.26 21.7941 726.26 22.3645C726.26 23.1294 726.72 23.8629 727.538 24.4038C728.357 24.9446 729.467 25.2485 730.625 25.2485Z" fill="#00AEEF"/>
<path d="M732.141 38.912C736.468 38.9116 740.699 38.0634 744.297 36.4748C747.895 34.8861 750.699 32.6282 752.355 29.9867C754.01 27.3452 754.443 24.4386 753.599 21.6345C752.754 18.8305 750.67 16.2549 747.609 14.2334C744.549 12.2119 740.65 10.8353 736.406 10.2776C732.161 9.72 727.761 10.0064 723.763 11.1006C719.765 12.1948 716.348 14.0477 713.943 16.4249C711.539 18.8021 710.256 21.597 710.256 24.456C710.256 26.3546 710.822 28.2345 711.922 29.9885C713.022 31.7425 714.634 33.3363 716.666 34.6786C718.698 36.021 721.111 37.0858 723.766 37.8122C726.421 38.5385 729.267 38.9123 732.141 38.912Z" fill="#00AEEF" stroke="#707070"/>
<path d="M741.354 28.1751C735.163 29.4381 728.54 29.4381 722.35 28.1751L723.621 21.4531H740.075C741.39 28.3941 741.207 27.4141 741.354 28.1751Z" fill="#00AEEF" stroke="white" stroke-width="0.6"/>
<path d="M741.244 27.6161C736.365 28.3574 731.292 28.3358 726.428 27.5531C725.906 27.4681 725.449 27.2593 725.144 26.9663C724.84 26.6733 724.709 26.3167 724.777 25.9641L725.632 21.4541H740.075L741.244 27.6161Z" fill="#00AEEF" stroke="white" stroke-width="0.6"/>
<path d="M748.662 19.4851L731.851 23.3481L715.04 19.4851L731.851 15.6221L748.662 19.4851Z" fill="#00AEEF" stroke="white" stroke-width="0.6"/>
<path d="M745.512 18.761L731.851 21.902L718.19 18.764L731.851 15.625L745.512 18.761Z" fill="#00AEEF" stroke="white" stroke-width="0.6"/>
<path d="M717.963 23.8308V20.3258C717.962 20.2055 718.029 20.0893 718.151 19.9999C718.273 19.9106 718.441 19.8545 718.622 19.8428L730.317 19.0898C730.506 19.0821 730.693 19.123 730.838 19.2041C730.982 19.2852 731.074 19.4001 731.094 19.5248C731.113 19.6496 731.059 19.7745 730.942 19.8734C730.826 19.9724 730.656 20.0377 730.468 20.0558L719.432 20.7658V23.8318C719.432 23.9599 719.355 24.0827 719.218 24.1733C719.08 24.2639 718.894 24.3148 718.701 24.3148C718.507 24.3148 718.321 24.2639 718.184 24.1733C718.046 24.0827 717.969 23.9599 717.969 23.8318L717.963 23.8308Z" fill="#00AEEF" stroke="white" stroke-width="0.6"/>
<path d="M720.156 24.8022V26.7362H717.234V24.8022C717.228 24.6729 717.261 24.5441 717.33 24.4232C717.402 24.3025 717.509 24.1924 717.645 24.0993C717.782 24.0062 717.945 23.9321 718.125 23.8812C718.397 23.8051 718.697 23.7852 718.986 23.8241C719.275 23.863 719.54 23.9589 719.745 24.0992C719.882 24.192 719.989 24.3022 720.06 24.4232C720.129 24.5441 720.162 24.6729 720.156 24.8022Z" fill="#00AEEF" stroke="white" stroke-width="0.6"/>
<path d="M720.156 24.8018V26.2508C719.868 26.2509 719.583 26.2136 719.316 26.1408C719.05 26.068 718.809 25.9613 718.605 25.8268C718.401 25.6923 718.24 25.5326 718.13 25.3568C718.019 25.1808 717.963 24.9922 717.963 24.8018C717.906 24.506 717.951 24.2054 718.095 23.9228C718.317 23.8567 718.561 23.8285 718.804 23.8406C719.048 23.8528 719.282 23.9049 719.487 23.9922C719.692 24.0796 719.861 24.1994 719.978 24.3408C720.094 24.4822 720.156 24.6407 720.156 24.8018Z" fill="#00AEEF" stroke="white" stroke-width="0.6"/>
<path d="M736.332 31.885C735.25 32.485 735.536 32.199 735.03 33.116C733.642 33.28 734.11 33.116 732.976 33.749C731.588 33.416 732.106 33.454 730.706 33.619C729.797 32.904 730.238 33.093 728.85 32.759C728.602 31.837 728.85 32.146 727.892 31.397C728.374 30.523 728.346 30.866 728.088 29.905C729.221 29.277 728.907 29.553 729.39 28.674C730.752 28.524 730.333 28.674 731.444 28.041C732.832 28.374 732.315 28.336 733.715 28.171C734.623 28.886 734.182 28.697 735.571 29.031C735.819 29.953 735.571 29.644 736.529 30.393C736.047 31.267 736.076 30.921 736.332 31.885Z" fill="#00AEEF" stroke="white" stroke-width="0.6"/>
<path d="M772.246 60L772.246 121" stroke="white"/>
<path d="M772.246 60L772.246 121" stroke="white"/>
<path d="M684.275 11.5625H518.246V39.1525H684.275V11.5625Z" fill="#00AEEF"/>
<text fill="#FEFEFE" xml:space="preserve" style="white-space: pre" font-family="Harmattan" font-size="20" font-weight="bold" letter-spacing="0.11em"><tspan x="533.246" y="29.1162">&#x627;&#x644;&#x634;&#x647;&#x627;&#x62f;&#x629; &#x627;&#x644;&#x62c;&#x627;&#x645;&#x639;&#x64a;&#x629;</tspan></text>
<path d="M644.248 62H559.244C555.379 62 552.246 65.1078 552.246 68.9414V73.0586C552.246 76.8922 555.379 80 559.244 80H644.248C648.113 80 651.246 76.8922 651.246 73.0586V68.9414C651.246 65.1078 648.113 62 644.248 62Z" fill="#A6DBEC"/>
<path d="M618.1 136H578.9C575.089 136 572 139.652 572 144.156V144.844C572 149.348 575.089 153 578.9 153H618.1C621.911 153 625 149.348 625 144.844V144.156C625 139.652 621.911 136 618.1 136Z" fill="#A6DBEC"/>
<path d="M628.107 239H579.385C575.443 239 572.246 242.007 572.246 245.717V246.283C572.246 249.993 575.443 253 579.385 253H628.107C632.05 253 635.246 249.993 635.246 246.283V245.717C635.246 242.007 632.05 239 628.107 239Z" fill="#A6DBEC"/>
<path d="M634.282 293H570.21C566.364 293 563.246 296.866 563.246 301.636V302.364C563.246 307.134 566.364 311 570.21 311H634.282C638.128 311 641.246 307.134 641.246 302.364V301.636C641.246 296.866 638.128 293 634.282 293Z" fill="#A6DBEC"/>
<text fill="black" xml:space="preserve" style="white-space: pre" font-family="Harmattan" font-size="13" font-weight="bold" letter-spacing="0em"><tspan x="582.364" y="213.676">&#x62e;&#x631;&#x64a;&#x62c;2024 </tspan></text>
<text fill="black" xml:space="preserve" style="white-space: pre" font-family="Harmattan" font-size="5.2" font-weight="bold" letter-spacing="0em"><tspan x="533.246" y="192.37">&#x628;&#x643;&#x627;&#x644;&#x648;&#x631;&#x64a;&#x648;&#x633; &#x627;&#x644;&#x62a;&#x631;&#x628;&#x64a;&#x629; &#x627;&#x644;&#x646;&#x648;&#x639;&#x64a;&#x629; &#x62c;&#x627;&#x645;&#x639;&#x629; &#x627;&#x644;&#x645;&#x646;&#x635;&#x648;&#x631;&#x629; &#x628;&#x642;&#x633;&#x645; &#x2018;&#x2018;&#x625;&#x639;&#x62f;&#x627;&#x62f; &#x645;&#x639;&#x644;&#x645; &#x627;&#x644;&#x62d;&#x627;&#x633;&#x628; &#x627;&#x644;&#x623;&#x644;&#x64a;2024</tspan></text>
<text fill="black" xml:space="preserve" style="white-space: pre" font-family="Almarai" font-size="13" letter-spacing="0em"><tspan x="553.246" y="113.011">&#x643;&#x644;&#x64a;&#x629; &#x627;&#x644;&#x62a;&#x631;&#x628;&#x64a;&#x629; &#x627;&#x644;&#x646;&#x648;&#x639;&#x64a;&#x629;</tspan></text>
<text fill="black" xml:space="preserve" style="white-space: pre" font-family="Almarai" font-size="13" font-weight="bold" letter-spacing="0em"><tspan x="557.246" y="72.011">&#x62c;&#x627;&#x645;&#x639;&#x629; &#x627;&#x644;&#x645;&#x646;&#x635;&#x648;&#x631;&#x629;</tspan></text>
<text fill="black" xml:space="preserve" style="white-space: pre" font-family="Almarai" font-size="13" font-weight="bold" letter-spacing="0em"><tspan x="582.875" y="148.011">&#x628;&#x642;&#x633;&#x645;</tspan></text>
<text fill="black" xml:space="preserve" style="white-space: pre" font-family="Harmattan" font-size="13" font-weight="bold" letter-spacing="0em"><tspan x="584" y="247.676">&#x628;&#x62a;&#x642;&#x62f;&#x64a;&#x631; &#x639;&#x627;&#x645;</tspan></text>
<text fill="black" xml:space="preserve" style="white-space: pre" font-family="Harmattan" font-size="13" font-weight="bold" letter-spacing="0em"><tspan x="575" y="304.676">&#x645;&#x634;&#x631;&#x648;&#x639; &#x627;&#x644;&#x62a;&#x62e;&#x631;&#x62c;</tspan></text>
<text fill="black" xml:space="preserve" style="white-space: pre" font-family="Harmattan" font-size="14" font-weight="500" letter-spacing="0em"><tspan x="541" y="182.881">&#x627;&#x644;&#x62d;&#x627;&#x633;&#x628; &#x627;&#x644;&#x623;&#x644;&#x64a; &#x627;&#x644;&#x627;&#x626;&#x62d;&#x629; &#x627;&#x644;&#x62c;&#x62f;&#x64a;&#x62f;&#x629;</tspan></text>
<text fill="black" xml:space="preserve" style="white-space: pre" font-family="Harmattan" font-size="13" font-weight="500" letter-spacing="0em"><tspan x="548" y="273.676">&#x62c;&#x64a;&#x62f; &#x62c;&#x62f;&#x627; &#x645;&#x639; &#x645;&#x631;&#x62a;&#x628;&#x629; &#x627;&#x644;&#x634;&#x631;&#x641;</tspan></text>
<text fill="black" xml:space="preserve" style="white-space: pre" font-family="Harmattan" font-size="13" font-weight="500" letter-spacing="0em"><tspan x="537" y="332.176">&#x62d;&#x627;&#x635;&#x644; &#x639;&#x644;&#x64a; 96% &#x641;&#x64a; &#x645;&#x634;&#x631;&#x648;&#x639; &#x627;&#x644;&#x62a;&#x62e;&#x631;&#x62c;</tspan></text>
<path d="M533.246 194H670.246H533.246Z" fill="black"/>
<path d="M533.246 194H670.246" stroke="#3B1919" stroke-width="0.1"/>
<path d="M533.246 188H670.246H533.246Z" fill="black"/>
<path d="M533.246 188H670.246" stroke="#3B1919" stroke-width="0.1"/>
<path d="M429.246 60L429.246 121" stroke="white"/>
<path d="M663.241 362.364C663.185 362.11 662.938 361.952 662.708 362.013C662.572 362.074 662.467 362.162 662.408 362.264C662.35 362.366 662.34 362.477 662.38 362.583L662.422 362.771L662.853 362.661L662.427 362.775C662.442 362.852 662.48 362.926 662.539 362.993C662.579 363.045 662.632 363.103 662.69 363.171C662.914 363.405 663.113 363.649 663.285 363.902C663.415 364.124 663.687 364.191 663.89 364.052C663.998 363.961 664.068 363.853 664.092 363.738C664.116 363.624 664.095 363.507 664.031 363.4C663.83 363.092 663.592 362.794 663.321 362.51C663.28 362.465 663.274 362.487 663.265 362.48L663.241 362.364Z" fill="#FFFFFE"/>
<path d="M661.815 363.758C661.759 364.012 661.513 364.17 661.282 364.109C660.728 363.968 660.957 363.284 661.26 362.953C661.484 362.719 661.683 362.475 661.855 362.222C661.985 362 662.257 361.933 662.46 362.072C662.568 362.164 662.637 362.272 662.661 362.386C662.685 362.501 662.665 362.617 662.601 362.724C662.419 363.034 661.844 363.574 661.809 363.758H661.815Z" fill="#FFFFFE"/>
<g filter="url(#filter0_d_0_1)">
<mask id="path-37-inside-1_0_1" fill="white">
<path d="M744.246 353H488.246H744.246Z"/>
</mask>
<path d="M744.246 353H488.246H744.246Z" fill="#231F20"/>
<path d="M744.246 353H488.246H744.246Z" stroke="black" stroke-width="0.6" mask="url(#path-37-inside-1_0_1)"/>
</g>
<path d="M355.449 1L352.613 3.93501L350.44 2.8102L349.187 3.95773L353.127 6L357.187 1.7989L355.449 1Z" fill="white"/>
<path d="M340.625 25.2485C341.489 25.2485 342.333 25.0793 343.051 24.7624C343.768 24.4455 344.328 23.9951 344.658 23.4681C344.989 22.9411 345.075 22.3613 344.907 21.8018C344.738 21.2424 344.323 20.7285 343.712 20.3252C343.102 19.9218 342.324 19.6472 341.477 19.5359C340.63 19.4246 339.752 19.4817 338.955 19.7C338.157 19.9183 337.475 20.2879 336.995 20.7622C336.516 21.2365 336.26 21.7941 336.26 22.3645C336.26 23.1294 336.72 23.8629 337.538 24.4038C338.357 24.9446 339.467 25.2485 340.625 25.2485Z" fill="#00AEEF"/>
<path d="M342.141 38.912C346.468 38.9116 350.699 38.0634 354.297 36.4748C357.895 34.8861 360.699 32.6282 362.355 29.9867C364.01 27.3452 364.443 24.4386 363.599 21.6345C362.754 18.8305 360.67 16.2549 357.609 14.2334C354.549 12.2119 350.65 10.8353 346.406 10.2776C342.161 9.72 337.761 10.0064 333.763 11.1006C329.765 12.1948 326.348 14.0477 323.943 16.4249C321.539 18.8021 320.256 21.597 320.256 24.456C320.256 26.3546 320.822 28.2345 321.922 29.9885C323.022 31.7425 324.634 33.3363 326.666 34.6786C328.698 36.021 331.111 37.0858 333.766 37.8122C336.421 38.5385 339.267 38.9123 342.141 38.912Z" fill="#00AEEF" stroke="#707070"/>
<path d="M351.354 28.1751C345.163 29.4381 338.54 29.4381 332.35 28.1751L333.621 21.4531H350.075C351.39 28.3941 351.207 27.4141 351.354 28.1751Z" fill="#00AEEF" stroke="white" stroke-width="0.6"/>
<path d="M351.244 27.6161C346.365 28.3574 341.292 28.3358 336.428 27.5531C335.906 27.4681 335.449 27.2593 335.144 26.9663C334.84 26.6733 334.709 26.3167 334.777 25.9641L335.632 21.4541H350.075L351.244 27.6161Z" fill="#00AEEF" stroke="white" stroke-width="0.6"/>
<path d="M358.662 19.4851L341.851 23.3481L325.04 19.4851L341.851 15.6221L358.662 19.4851Z" fill="#00AEEF" stroke="white" stroke-width="0.6"/>
<path d="M355.512 18.761L341.851 21.902L328.19 18.764L341.851 15.625L355.512 18.761Z" fill="#00AEEF" stroke="white" stroke-width="0.6"/>
<path d="M327.963 23.8308V20.3258C327.962 20.2055 328.029 20.0893 328.151 19.9999C328.273 19.9106 328.441 19.8545 328.622 19.8428L340.317 19.0898C340.506 19.0821 340.693 19.123 340.838 19.2041C340.982 19.2852 341.074 19.4001 341.094 19.5248C341.113 19.6496 341.059 19.7745 340.942 19.8734C340.826 19.9724 340.656 20.0377 340.468 20.0558L329.432 20.7658V23.8318C329.432 23.9599 329.355 24.0827 329.218 24.1733C329.08 24.2639 328.894 24.3148 328.701 24.3148C328.507 24.3148 328.321 24.2639 328.184 24.1733C328.046 24.0827 327.969 23.9599 327.969 23.8318L327.963 23.8308Z" fill="#00AEEF" stroke="white" stroke-width="0.6"/>
<path d="M330.156 24.8022V26.7362H327.234V24.8022C327.228 24.6729 327.261 24.5441 327.33 24.4232C327.402 24.3025 327.509 24.1924 327.645 24.0993C327.782 24.0062 327.945 23.9321 328.125 23.8812C328.397 23.8051 328.697 23.7852 328.986 23.8241C329.275 23.863 329.54 23.9589 329.745 24.0992C329.882 24.192 329.989 24.3022 330.06 24.4232C330.129 24.5441 330.162 24.6729 330.156 24.8022Z" fill="#00AEEF" stroke="white" stroke-width="0.6"/>
<path d="M330.156 24.8018V26.2508C329.868 26.2509 329.583 26.2136 329.316 26.1408C329.05 26.068 328.809 25.9613 328.605 25.8268C328.401 25.6923 328.24 25.5326 328.13 25.3568C328.019 25.1808 327.963 24.9922 327.963 24.8018C327.906 24.506 327.951 24.2054 328.095 23.9228C328.317 23.8567 328.561 23.8285 328.804 23.8406C329.048 23.8528 329.282 23.9049 329.487 23.9922C329.692 24.0796 329.861 24.1994 329.978 24.3408C330.094 24.4822 330.156 24.6407 330.156 24.8018Z" fill="#00AEEF" stroke="white" stroke-width="0.6"/>
<path d="M346.332 31.885C345.25 32.485 345.536 32.199 345.03 33.116C343.642 33.28 344.11 33.116 342.976 33.749C341.588 33.416 342.106 33.454 340.706 33.619C339.797 32.904 340.238 33.093 338.85 32.759C338.602 31.837 338.85 32.146 337.892 31.397C338.374 30.523 338.346 30.866 338.088 29.905C339.221 29.277 338.907 29.553 339.39 28.674C340.752 28.524 340.333 28.674 341.444 28.041C342.832 28.374 342.315 28.336 343.715 28.171C344.623 28.886 344.182 28.697 345.571 29.031C345.819 29.953 345.571 29.644 346.529 30.393C346.047 31.267 346.076 30.921 346.332 31.885Z" fill="#00AEEF" stroke="white" stroke-width="0.6"/>
<path d="M382.246 60L382.246 121" stroke="white"/>
<path d="M382.246 60L382.246 121" stroke="white"/>
<path d="M294.275 11.5625H128.246V39.1525H294.275V11.5625Z" fill="#00AEEF"/>
<text fill="#FEFEFE" xml:space="preserve" style="white-space: pre" font-family="Harmattan" font-size="20" font-weight="bold" letter-spacing="0.11em"><tspan x="129" y="29.1162">University degree</tspan></text>
<path d="M266.023 59H156.977C152.019 59 148 62.1078 148 65.9414V70.0586C148 73.8922 152.019 77 156.977 77H266.023C270.981 77 275 73.8922 275 70.0586V65.9414C275 62.1078 270.981 59 266.023 59Z" fill="#A6DBEC"/>
<path d="M242.934 136H180.066C173.954 136 169 139.652 169 144.156V144.844C169 149.348 173.954 153 180.066 153H242.934C249.046 153 254 149.348 254 144.844V144.156C254 139.652 249.046 136 242.934 136Z" fill="#A6DBEC"/>
<path d="M242.747 239H184.745C180.051 239 176.246 242.007 176.246 245.717V246.283C176.246 249.993 180.051 253 184.745 253H242.747C247.441 253 251.246 249.993 251.246 246.283V245.717C251.246 242.007 247.441 239 242.747 239Z" fill="#A6DBEC"/>
<path d="M256.157 293H163.335C157.763 293 153.246 296.866 153.246 301.636V302.364C153.246 307.134 157.763 311 163.335 311H256.157C261.729 311 266.246 307.134 266.246 302.364V301.636C266.246 296.866 261.729 293 256.157 293Z" fill="#A6DBEC"/>
<text fill="black" xml:space="preserve" style="white-space: pre" font-family="Harmattan" font-size="13" font-weight="bold" letter-spacing="0em"><tspan x="176" y="213.676">Graduate 2024</tspan></text>
<text fill="black" xml:space="preserve" style="white-space: pre" font-family="Harmattan" font-size="5.2" font-weight="bold" letter-spacing="0em"><tspan x="112" y="192.37">Bachelor of Specific Education, Mansoura University, Computer Teacher Preparation Department, 2024</tspan></text>
<text fill="black" xml:space="preserve" style="white-space: pre" font-family="Almarai" font-size="13" letter-spacing="0em"><tspan x="129" y="108.011">College of Specific Education</tspan></text>
<text fill="black" xml:space="preserve" style="white-space: pre" font-family="Almarai" font-size="13" letter-spacing="0em"><tspan x="152.246" y="72.011">Mansoura University</tspan></text>
<text fill="black" xml:space="preserve" style="white-space: pre" font-family="Almarai" font-size="13" letter-spacing="0em"><tspan x="178" y="148.011">Department</tspan></text>
<text fill="black" xml:space="preserve" style="white-space: pre" font-family="Harmattan" font-size="13" font-weight="500" letter-spacing="0em"><tspan x="182" y="248.676">general grade</tspan></text>
<text fill="black" xml:space="preserve" style="white-space: pre" font-family="Harmattan" font-size="13" font-weight="500" letter-spacing="0em"><tspan x="166" y="304.676">Graduation Project</tspan></text>
<text fill="black" xml:space="preserve" style="white-space: pre" font-family="Harmattan" font-size="14" font-weight="500" letter-spacing="0em"><tspan x="125" y="182.881">Computer Science, New Regulations</tspan></text>
<text fill="black" xml:space="preserve" style="white-space: pre" font-family="Harmattan" font-size="13" font-weight="500" letter-spacing="0em"><tspan x="158" y="273.676">Very Good with Honors</tspan></text>
<text fill="black" xml:space="preserve" style="white-space: pre" font-family="Harmattan" font-size="13" font-weight="500" letter-spacing="0em"><tspan x="125" y="332.176">Obtained 96% in the graduation project</tspan></text>
<path d="M112.246 194H308.246H112.246Z" fill="black"/>
<path d="M112.246 194H308.246" stroke="#3B1919" stroke-width="0.1"/>
<path d="M112.246 188H308.246H112.246Z" fill="black"/>
<path d="M112.246 188H308.246" stroke="#3B1919" stroke-width="0.1"/>
<path d="M273.241 362.364C273.185 362.11 272.938 361.952 272.708 362.013C272.572 362.074 272.467 362.162 272.408 362.264C272.35 362.366 272.34 362.477 272.38 362.583L272.422 362.771L272.853 362.661L272.427 362.775C272.442 362.852 272.48 362.926 272.539 362.993C272.579 363.045 272.632 363.103 272.69 363.171C272.914 363.405 273.113 363.649 273.285 363.902C273.415 364.124 273.687 364.191 273.89 364.052C273.998 363.961 274.068 363.853 274.092 363.738C274.116 363.624 274.095 363.507 274.031 363.4C273.83 363.092 273.592 362.794 273.321 362.51C273.28 362.465 273.274 362.487 273.265 362.48L273.241 362.364Z" fill="#FFFFFE"/>
<path d="M271.815 363.758C271.759 364.012 271.513 364.17 271.282 364.109C270.728 363.968 270.957 363.284 271.26 362.953C271.484 362.719 271.683 362.475 271.855 362.222C271.985 362 272.257 361.933 272.46 362.072C272.568 362.164 272.637 362.272 272.661 362.386C272.685 362.501 272.665 362.617 272.601 362.724C272.419 363.034 271.844 363.574 271.809 363.758H271.815Z" fill="#FFFFFE"/>
<g filter="url(#filter1_d_0_1)">
<mask id="path-73-inside-2_0_1" fill="white">
<path d="M354.246 353H98.2461H354.246Z"/>
</mask>
<path d="M354.246 353H98.2461H354.246Z" fill="#231F20"/>
<path d="M354.246 353H98.2461H354.246Z" stroke="black" stroke-width="0.6" mask="url(#path-73-inside-2_0_1)"/>
</g>
<path d="M439.67 361.504H396.746C393.514 361.504 390.893 363.279 390.893 365.468V389.251C390.893 391.44 393.514 393.214 396.746 393.214H439.67C442.902 393.214 445.523 391.44 445.523 389.251V365.468C445.523 363.279 442.902 361.504 439.67 361.504Z" fill="#FF0101"/>
<path d="M435.767 387.93H400.648C400.13 387.93 399.634 387.79 399.268 387.543C398.902 387.295 398.697 386.959 398.697 386.608C398.697 386.258 398.902 385.922 399.268 385.674C399.634 385.426 400.13 385.287 400.648 385.287H435.767C436.285 385.287 436.781 385.426 437.147 385.674C437.513 385.922 437.718 386.258 437.718 386.608C437.718 386.959 437.513 387.295 437.147 387.543C436.781 387.79 436.285 387.93 435.767 387.93Z" fill="#EEEEEE"/>
<path d="M424.062 389.251C423.544 389.251 423.048 389.112 422.682 388.864C422.316 388.616 422.111 388.28 422.111 387.93V385.287C422.111 384.937 422.316 384.601 422.682 384.353C423.048 384.105 423.544 383.966 424.062 383.966C424.579 383.966 425.076 384.105 425.442 384.353C425.807 384.601 426.013 384.937 426.013 385.287V387.93C426.013 388.28 425.807 388.616 425.442 388.864C425.076 389.112 424.579 389.251 424.062 389.251Z" fill="black"/>
<path d="M396.746 361.504C395.194 361.504 393.705 361.922 392.607 362.665C391.51 363.408 390.893 364.416 390.893 365.468V389.251C390.893 390.302 391.51 391.31 392.607 392.053C393.705 392.797 395.194 393.214 396.746 393.214H418.208V361.504H396.746Z" fill="#01B2FF"/>
<path d="M400.648 385.287C400.13 385.287 399.634 385.426 399.268 385.674C398.902 385.922 398.697 386.258 398.697 386.608C398.697 386.959 398.902 387.295 399.268 387.543C399.634 387.79 400.13 387.93 400.648 387.93H418.208V385.287H400.648Z" fill="#FAFAFA"/>
<path d="M413.234 368.335C412.937 368.233 412.606 368.185 412.274 368.195C411.942 368.204 411.618 368.271 411.335 368.389C411.052 368.506 410.817 368.671 410.654 368.868C410.492 369.064 410.406 369.285 410.405 369.511V379.922C410.407 380.158 410.502 380.388 410.681 380.59C410.859 380.793 411.114 380.959 411.419 381.072C411.702 381.187 412.026 381.246 412.356 381.244C412.721 381.244 413.079 381.176 413.39 381.045L418.209 378.997V370.013L413.234 368.335Z" fill="#00AEEF"/>
<path d="M426.891 372.959L413.234 368.335C412.937 368.233 412.606 368.185 412.274 368.195C411.942 368.204 411.618 368.271 411.335 368.389C411.052 368.506 410.817 368.671 410.654 368.868C410.492 369.064 410.406 369.285 410.405 369.511V379.922C410.407 380.158 410.502 380.388 410.681 380.59C410.859 380.793 411.114 380.959 411.419 381.072C411.702 381.187 412.026 381.246 412.356 381.244C412.721 381.244 413.079 381.176 413.39 381.045L427.047 375.258C427.343 375.133 427.584 374.957 427.745 374.748C427.906 374.539 427.982 374.305 427.964 374.069C427.946 373.836 427.837 373.611 427.648 373.416C427.46 373.221 427.199 373.064 426.891 372.959Z" fill="#EEEEEE"/>
<path d="M502.885 366.015H509.259L500.154 360V364.211C500.154 365.207 501.377 366.015 502.885 366.015Z" fill="#00AEEF"/>
<path d="M499.161 363.008H461.457V373.534H499.161C499.709 373.534 500.154 373.272 500.154 372.949V363.593C500.154 363.27 499.709 363.008 499.161 363.008Z" fill="#C6CACF"/>
<path d="M496.908 373.534H455.601C454.737 373.534 454.304 372.814 454.915 372.393L461.989 367.519L454.915 362.645C454.304 362.224 454.737 361.504 455.601 361.504H496.908C497.444 361.504 497.878 361.803 497.878 362.172V372.866C497.878 373.235 497.444 373.534 496.908 373.534Z" fill="#00AEEF"/>
<path d="M476.377 365.455H472.619C472.101 365.455 471.68 365.733 471.68 366.076V369.8C471.68 370.142 472.101 370.42 472.619 370.42C473.138 370.42 473.559 370.142 473.559 369.8V368.558H476.377C476.896 368.558 477.317 368.28 477.317 367.938V366.076C477.317 365.733 476.896 365.455 476.377 365.455ZM475.438 367.317H473.559V366.696H475.438V367.317Z" fill="white"/>
<path d="M481.074 365.455H479.195C478.677 365.455 478.256 365.733 478.256 366.076V369.8C478.256 370.142 478.677 370.42 479.195 370.42H482.953C483.472 370.42 483.893 370.142 483.893 369.8V367.317C483.893 366.29 482.629 365.455 481.074 365.455ZM482.014 369.179H480.135V366.696H481.074C481.592 366.696 482.014 366.975 482.014 367.317L482.014 369.179Z" fill="white"/>
<path d="M489.53 365.455H485.772C485.253 365.455 484.832 365.733 484.832 366.076V369.8C484.832 370.142 485.253 370.42 485.772 370.42C486.29 370.42 486.711 370.142 486.711 369.8V368.558H488.59C489.109 368.558 489.53 368.28 489.53 367.938C489.53 367.595 489.109 367.317 488.59 367.317H486.711V366.696H489.53C490.048 366.696 490.469 366.418 490.469 366.076C490.469 365.733 490.048 365.455 489.53 365.455Z" fill="white"/>
<path d="M499.229 394.587H471.487C470.977 394.587 470.563 394.295 470.563 393.936V375.69C470.563 375.33 470.977 375.038 471.487 375.038H499.229C499.74 375.038 500.154 375.33 500.154 375.69V393.936C500.154 394.296 499.74 394.587 499.229 394.587Z" fill="#C6CACF"/>
<path d="M472.412 393.284V375.038H471.487C470.977 375.038 470.563 375.33 470.563 375.69V393.936C470.563 394.296 470.977 394.587 471.487 394.587H499.229C499.74 394.587 500.154 394.295 500.154 393.936V393.284H472.412Z" fill="#00AEEF"/>
<path d="M497.002 391.579H487.372C486.888 391.579 486.496 391.291 486.496 390.935V383.201C486.496 382.845 486.888 382.557 487.372 382.557H497.002C497.486 382.557 497.878 382.845 497.878 383.201V390.935C497.878 391.291 497.486 391.579 497.002 391.579Z" fill="black"/>
<path d="M495.601 384.061H488.772V390.076H495.601V384.061Z" fill="#00AEEF"/>
<path d="M497.046 379.108H486.712C486.193 379.108 485.772 378.831 485.772 378.488C485.772 378.145 486.193 377.867 486.712 377.867H497.046C497.565 377.867 497.985 378.145 497.985 378.488C497.985 378.831 497.565 379.108 497.046 379.108Z" fill="#EF0000"/>
<path d="M497.046 381.591H486.712C486.193 381.591 485.772 381.313 485.772 380.97C485.772 380.627 486.193 380.35 486.712 380.35H497.046C497.565 380.35 497.985 380.628 497.985 380.97C497.985 381.313 497.565 381.591 497.046 381.591Z" fill="#EF0000"/>
<path d="M483.893 379.108H474.498C473.979 379.108 473.558 378.831 473.558 378.488C473.558 378.145 473.979 377.867 474.498 377.867H483.893C484.412 377.867 484.832 378.145 484.832 378.488C484.832 378.831 484.411 379.108 483.893 379.108Z" fill="#EF0000"/>
<path d="M483.892 381.591H474.498C473.979 381.591 473.558 381.313 473.558 380.97C473.558 380.627 473.979 380.35 474.498 380.35H483.892C484.411 380.35 484.832 380.628 484.832 380.97C484.832 381.313 484.411 381.591 483.892 381.591Z" fill="#EF0000"/>
<path d="M483.892 384.074H474.498C473.979 384.074 473.558 383.796 473.558 383.454C473.558 383.111 473.979 382.833 474.498 382.833H483.892C484.411 382.833 484.832 383.111 484.832 383.454C484.832 383.796 484.411 384.074 483.892 384.074Z" fill="#EF0000"/>
<path d="M483.892 386.556H474.498C473.979 386.556 473.558 386.278 473.558 385.935C473.558 385.592 473.979 385.314 474.498 385.314H483.892C484.411 385.314 484.832 385.592 484.832 385.935C484.832 386.278 484.411 386.556 483.892 386.556Z" fill="#EF0000"/>
<path d="M483.892 389.039H474.498C473.979 389.039 473.558 388.761 473.558 388.418C473.558 388.076 473.979 387.798 474.498 387.798H483.892C484.411 387.798 484.832 388.076 484.832 388.418C484.832 388.761 484.411 389.039 483.892 389.039Z" fill="#EF0000"/>
<path d="M483.892 391.521H474.498C473.979 391.521 473.558 391.243 473.558 390.9C473.558 390.557 473.979 390.279 474.498 390.279H483.892C484.411 390.279 484.832 390.557 484.832 390.9C484.832 391.243 484.411 391.521 483.892 391.521Z" fill="#EF0000"/>
<path d="M331.71 393.836V397.595H384.064V393.836L358.007 391.58L331.71 393.836Z" fill="#EEEEEE"/>
<path d="M331.71 390.826V394.585H384.064V390.826L358.007 388.57L331.71 390.826Z" fill="#DCDCDC"/>
<path d="M384.065 363.008V390.076H380.65L372.683 376.542L380.65 363.008H384.065Z" fill="#EEEEEE"/>
<path d="M381.788 363.008V365.295L373.54 376.542L381.788 387.788V390.076H331.71V363.008H381.788Z" fill="white"/>
<path d="M333.988 364.511V381.666L357.889 384.06L381.789 381.666V364.511H333.988Z" fill="#29B71C"/>
<path d="M359.026 367.519V373.534C360.283 373.534 361.302 372.187 361.302 370.526C361.302 368.865 360.283 367.519 359.026 367.519Z" fill="#FE5F1A"/>
<path d="M358.116 367.519C358.618 367.519 359.026 368.865 359.026 370.526C359.026 372.187 358.618 373.534 358.116 373.534C356.104 373.534 354.474 372.187 354.474 370.526C354.474 368.865 356.104 367.519 358.116 367.519Z" fill="#00AEEF"/>
<path d="M381.788 385.565L368.131 378.046L378.284 379.246L381.789 381.671L381.788 385.565Z" fill="#027372"/>
<path d="M376.266 379.676L369.772 376.542L361.406 379.676L356.75 382.77L367.49 388.572H381.788V384.404L376.266 379.676Z" fill="#E53935"/>
<path d="M379.512 379.442L377.604 379.549L370.407 377.324V373.534L379.512 379.442Z" fill="#EEEEEE"/>
<path d="M361.302 379.549L368.991 373.534L374.959 379.549L361.302 379.549Z" fill="white"/>
<path d="M365.854 388.572H361.692L345.368 378.046L354.409 379.297L365.854 388.572Z" fill="#027372"/>
<path d="M351.483 379.676L361.303 388.572H333.988V382.102L337.438 379.676L345.345 376.542L351.483 379.676Z" fill="#00AEEF"/>
<path d="M354.473 379.442L352.565 379.549L345.368 377.324V373.534L354.473 379.442Z" fill="#EEEEEE"/>
<path d="M336.264 379.549L345.234 373.534L352.198 379.549L336.264 379.549Z" fill="white"/>
<path d="M385.433 396.091C384.931 396.091 384.525 396.379 384.525 396.735V397.809H331.251V396.735C331.251 396.379 330.844 396.091 330.343 396.091C329.841 396.091 329.434 396.379 329.434 396.735V398.454C329.434 398.81 329.841 399.098 330.343 399.098H385.433C385.934 399.098 386.341 398.81 386.341 398.454V396.735C386.341 396.379 385.934 396.091 385.433 396.091Z" fill="#00AEEF"/>
<path d="M385.433 391.58C384.931 391.58 384.525 391.869 384.525 392.225V393.299H331.251V392.225C331.251 391.869 330.844 391.58 330.343 391.58C329.841 391.58 329.434 391.869 329.434 392.225V393.943C329.434 394.299 329.841 394.588 330.343 394.588H385.433C385.934 394.588 386.341 394.299 386.341 393.943V392.225C386.341 391.869 385.934 391.58 385.433 391.58Z" fill="#00AEEF"/>
<path d="M385.433 361.504H330.343C329.841 361.504 329.434 361.777 329.434 362.114V390.97C329.434 391.307 329.841 391.58 330.343 391.58H385.433C385.934 391.58 386.341 391.307 386.341 390.97V362.114C386.341 361.777 385.934 361.504 385.433 361.504ZM384.525 390.36H331.251V362.723H384.525V390.36Z" fill="#00AEEF"/>
<path d="M363.579 370.526C363.579 368.868 361.026 367.519 357.888 367.519C354.75 367.519 352.198 368.868 352.198 370.526C352.198 372.184 354.75 373.534 357.888 373.534C361.026 373.534 363.579 372.184 363.579 370.526ZM353.995 370.526C353.995 369.391 355.741 368.468 357.888 368.468C360.035 368.468 361.782 369.391 361.782 370.526C361.782 371.661 360.035 372.584 357.888 372.584C355.741 372.584 353.995 371.661 353.995 370.526Z" fill="black"/>
<path d="M331.71 387.954C331.71 388.295 332.139 388.572 332.668 388.572H383.107C383.636 388.572 384.064 388.295 384.064 387.954V363.626C384.064 363.285 383.636 363.008 383.107 363.008H332.668C332.139 363.008 331.71 363.285 331.71 363.626V368.574C331.71 368.916 332.139 369.193 332.668 369.193C333.197 369.193 333.626 368.916 333.626 368.574V364.245H382.149V379.863L371.174 372.776C370.8 372.534 370.194 372.534 369.82 372.776L357.887 380.482L345.955 372.775C345.58 372.534 344.974 372.534 344.6 372.775L333.626 379.863V371.048C333.626 370.707 333.197 370.43 332.668 370.43C332.139 370.43 331.71 370.707 331.71 371.048V387.954ZM370.497 374.088L376.964 378.264H364.03L370.497 374.088ZM345.278 374.088L351.745 378.264H338.811L345.278 374.088ZM336.896 379.501H353.66L357.209 381.793C357.211 381.795 363.595 385.917 363.595 385.917C363.782 386.038 364.027 386.098 364.272 386.098C364.517 386.098 364.762 386.038 364.949 385.917C365.323 385.675 365.323 385.284 364.949 385.042L359.242 381.356L362.115 379.501H378.879L382.149 381.613V387.335H333.626V381.613L336.896 379.501Z" fill="black"/>
<path fill-rule="evenodd" clip-rule="evenodd" d="M304.549 367.567C304.851 367.567 305.099 367.832 305.099 368.155V379.208H304V368.155C304 367.828 304.246 367.567 304.549 367.567Z" fill="#FFFFFE"/>
<rect x="2" y="-2" width="805" height="349" transform="matrix(1 0 0 -1 0 350)" stroke="#01ADED" stroke-width="4"/>
<rect x="408" y="1" width="15" height="350" fill="url(#paint0_linear_0_1)"/>
<defs>
<filter id="filter0_d_0_1" x="484.246" y="352.7" width="264" height="8.59961" filterUnits="userSpaceOnUse" color-interpolation-filters="sRGB">
<feFlood flood-opacity="0" result="BackgroundImageFix"/>
<feColorMatrix in="SourceAlpha" type="matrix" values="0 0 0 0 0 0 0 0 0 0 0 0 0 0 0 0 0 0 127 0" result="hardAlpha"/>
<feOffset dy="4"/>
<feGaussianBlur stdDeviation="2"/>
<feComposite in2="hardAlpha" operator="out"/>
<feColorMatrix type="matrix" values="0 0 0 0 0 0 0 0 0 0 0 0 0 0 0 0 0 0 0.25 0"/>
<feBlend mode="normal" in2="BackgroundImageFix" result="effect1_dropShadow_0_1"/>
<feBlend mode="normal" in="SourceGraphic" in2="effect1_dropShadow_0_1" result="shape"/>
</filter>
<filter id="filter1_d_0_1" x="94.2461" y="352.7" width="264" height="8.59961" filterUnits="userSpaceOnUse" color-interpolation-filters="sRGB">
<feFlood flood-opacity="0" result="BackgroundImageFix"/>
<feColorMatrix in="SourceAlpha" type="matrix" values="0 0 0 0 0 0 0 0 0 0 0 0 0 0 0 0 0 0 127 0" result="hardAlpha"/>
<feOffset dy="4"/>
<feGaussianBlur stdDeviation="2"/>
<feComposite in2="hardAlpha" operator="out"/>
<feColorMatrix type="matrix" values="0 0 0 0 0 0 0 0 0 0 0 0 0 0 0 0 0 0 0.25 0"/>
<feBlend mode="normal" in2="BackgroundImageFix" result="effect1_dropShadow_0_1"/>
<feBlend mode="normal" in="SourceGraphic" in2="effect1_dropShadow_0_1" result="shape"/>
</filter>
<linearGradient id="paint0_linear_0_1" x1="423" y1="176" x2="408" y2="176" gradientUnits="userSpaceOnUse">
<stop offset="0.432692" stop-color="#FF0000"/>
<stop offset="0.475962"/>
<stop offset="0.476062" stop-color="#00B3FF"/>
</linearGradient>
</defs>
</svg>
