<svg width="345" height="145" viewBox="0 0 345 145" fill="none" xmlns="http://www.w3.org/2000/svg">
<rect width="345" height="145" fill="#F5F5F5"/>
<text fill="#FF0040" xml:space="preserve" style="white-space: pre" font-family="Bahij TheSansArabic" font-size="11" font-weight="500" letter-spacing="0em"><tspan x="43" y="71.1824">Adobe XD</tspan></text>
<text fill="#FF0040" xml:space="preserve" style="white-space: pre" font-family="Bahij TheSansArabic" font-size="11" font-weight="500" letter-spacing="0em"><tspan x="43" y="95.1824">Figma </tspan></text>
<path d="M182 93H113V92H182V93Z" fill="#00AEEF"/>
<path d="M182 69H113V68H182V69Z" fill="#00AEEF"/>
<path d="M161.439 30H290.417C291.596 30 292.765 30.2324 293.854 30.6838C294.944 31.1352 295.935 31.7969 296.769 32.6311C297.603 33.4652 298.265 34.4555 298.716 35.5454C299.167 36.6352 299.4 37.8033 299.4 38.983V55.152H161.439C158.103 55.152 154.905 53.827 152.546 51.4686C150.188 49.1101 148.863 45.9114 148.863 42.576C148.863 39.2406 150.188 36.0419 152.546 33.6834C154.905 31.325 158.103 30 161.439 30Z" fill="#00AEEF"/>
<text fill="white" xml:space="preserve" style="white-space: pre" font-family="Harmattan" font-size="15" font-weight="bold" letter-spacing="0em"><tspan x="167" y="45.0872">UI - UX Design Skill</tspan></text>
<path d="M295.692 65.668H205.692V70.668H295.692V65.668Z" fill="#949598"/>
<path d="M295.692 89.668H205.692V94.668H295.692V89.668Z" fill="#949598"/>
<path d="M277.692 65.668H205.692V70.668H277.692V65.668Z" fill="#00AEEF"/>
<path d="M277.692 89.668H205.692V94.668H277.692V89.668Z" fill="#00AEEF"/>
<path d="M278.248 64.668C279.426 64.668 280.557 65.0515 281.39 65.7341C282.224 66.4167 282.692 67.3426 282.692 68.308V69.025C282.692 69.5033 282.578 69.9769 282.355 70.4189C282.131 70.8609 281.804 71.2625 281.391 71.6008C280.979 71.9391 280.489 72.2075 279.949 72.3906C279.41 72.5737 278.832 72.668 278.248 72.668C277.78 72.668 277.318 72.5925 276.886 72.446C276.454 72.2995 276.062 72.0847 275.732 71.814C275.402 71.5432 275.14 71.2219 274.962 70.8682C274.783 70.5145 274.691 70.1355 274.692 69.7528V67.5802C274.692 66.8078 275.067 66.0671 275.733 65.5209C276.4 64.9748 277.305 64.668 278.248 64.668Z" fill="black"/>
<path d="M278.248 88.668C279.426 88.668 280.557 89.0515 281.39 89.7341C282.224 90.4167 282.692 91.3426 282.692 92.308V93.025C282.692 93.5033 282.578 93.9769 282.355 94.4189C282.131 94.8609 281.804 95.2625 281.391 95.6008C280.979 95.9391 280.489 96.2075 279.949 96.3906C279.41 96.5737 278.832 96.668 278.248 96.668C277.78 96.668 277.318 96.5925 276.886 96.446C276.454 96.2995 276.062 96.0847 275.732 95.814C275.402 95.5432 275.14 95.2219 274.962 94.8682C274.783 94.5145 274.691 94.1355 274.692 93.7528V91.5802C274.692 90.8078 275.067 90.0671 275.733 89.5209C276.4 88.9748 277.305 88.668 278.248 88.668Z" fill="black"/>
<path d="M299.192 69.668C300.573 69.668 301.692 68.9964 301.692 68.168C301.692 67.3395 300.573 66.668 299.192 66.668C297.811 66.668 296.692 67.3395 296.692 68.168C296.692 68.9964 297.811 69.668 299.192 69.668Z" fill="#231F20"/>
<path d="M299.192 93.668C300.573 93.668 301.692 92.9964 301.692 92.168C301.692 91.3395 300.573 90.668 299.192 90.668C297.811 90.668 296.692 91.3395 296.692 92.168C296.692 92.9964 297.811 93.668 299.192 93.668Z" fill="#231F20"/>
<path d="M214.968 112.364C214.912 112.11 214.665 111.952 214.435 112.013C214.298 112.074 214.194 112.162 214.135 112.264C214.076 112.366 214.066 112.477 214.106 112.583L214.149 112.771L214.58 112.661L214.153 112.775C214.168 112.852 214.206 112.926 214.265 112.993C214.306 113.045 214.359 113.103 214.417 113.171C214.641 113.405 214.839 113.649 215.012 113.902C215.142 114.124 215.414 114.191 215.617 114.052C215.725 113.961 215.794 113.853 215.818 113.738C215.842 113.624 215.822 113.507 215.758 113.4C215.556 113.092 215.319 112.794 215.048 112.51C215.007 112.465 215.001 112.487 214.992 112.48L214.968 112.364Z" fill="#FFFFFE"/>
<path d="M213.542 113.758C213.486 114.012 213.239 114.17 213.009 114.109C212.455 113.968 212.684 113.284 212.986 112.953C213.21 112.719 213.409 112.475 213.581 112.222C213.711 112 213.984 111.933 214.187 112.072C214.295 112.164 214.364 112.272 214.388 112.386C214.412 112.501 214.391 112.617 214.328 112.724C214.146 113.034 213.571 113.574 213.536 113.758H213.542Z" fill="#FFFFFE"/>
<path d="M174.901 106.808H151.846C150.11 106.808 148.703 107.761 148.703 108.937V121.711C148.703 122.886 150.11 123.84 151.846 123.84H174.901C176.637 123.84 178.045 122.886 178.045 121.711V108.937C178.045 107.761 176.637 106.808 174.901 106.808Z" fill="#29B71C"/>
<path d="M172.805 121.001H153.942C153.664 121.001 153.398 120.927 153.201 120.793C153.005 120.66 152.894 120.48 152.894 120.292C152.894 120.103 153.005 119.923 153.201 119.79C153.398 119.657 153.664 119.582 153.942 119.582H172.805C173.083 119.582 173.349 119.657 173.546 119.79C173.742 119.923 173.853 120.103 173.853 120.292C173.853 120.48 173.742 120.66 173.546 120.793C173.349 120.927 173.083 121.001 172.805 121.001Z" fill="#EEEEEE"/>
<path d="M166.518 121.711C166.24 121.711 165.973 121.636 165.777 121.503C165.58 121.37 165.47 121.189 165.47 121.001V119.582C165.47 119.394 165.58 119.213 165.777 119.08C165.973 118.947 166.24 118.872 166.518 118.872C166.796 118.872 167.062 118.947 167.259 119.08C167.455 119.213 167.566 119.394 167.566 119.582V121.001C167.566 121.189 167.455 121.37 167.259 121.503C167.062 121.636 166.796 121.711 166.518 121.711Z" fill="#00AEEF"/>
<path d="M168.037 112.96L160.702 110.476C160.542 110.422 160.365 110.396 160.186 110.401C160.008 110.406 159.834 110.442 159.682 110.505C159.53 110.569 159.404 110.657 159.317 110.763C159.229 110.868 159.183 110.987 159.182 111.108V116.7C159.184 116.827 159.235 116.95 159.331 117.059C159.427 117.168 159.564 117.257 159.727 117.317C159.879 117.379 160.053 117.411 160.23 117.41C160.427 117.41 160.619 117.373 160.786 117.303L168.121 114.195C168.28 114.128 168.41 114.033 168.496 113.921C168.583 113.809 168.623 113.683 168.614 113.556C168.604 113.431 168.545 113.31 168.444 113.206C168.343 113.101 168.203 113.016 168.037 112.96Z" fill="#EEEEEE"/>
<path d="M151.846 106.808C151.013 106.808 150.213 107.032 149.623 107.431C149.034 107.83 148.703 108.372 148.703 108.937V121.711C148.703 122.275 149.034 122.817 149.623 123.216C150.213 123.615 151.013 123.84 151.846 123.84H163.374V106.808H151.846Z" fill="#E53935"/>
<path d="M153.942 119.582C153.664 119.582 153.398 119.657 153.201 119.79C153.005 119.923 152.894 120.103 152.894 120.292C152.894 120.48 153.005 120.66 153.201 120.793C153.398 120.927 153.664 121.001 153.942 121.001H163.373V119.582H153.942Z" fill="#FAFAFA"/>
<path d="M160.702 110.476C160.542 110.422 160.365 110.396 160.186 110.401C160.008 110.406 159.834 110.442 159.682 110.505C159.53 110.569 159.404 110.657 159.317 110.763C159.229 110.868 159.183 110.987 159.182 111.108V116.7C159.184 116.827 159.235 116.95 159.331 117.059C159.427 117.168 159.564 117.257 159.727 117.317C159.879 117.379 160.053 117.411 160.23 117.41C160.427 117.41 160.619 117.373 160.786 117.303L163.374 116.203V111.378L160.702 110.476Z" fill="#00AEEF"/>
<path d="M208.855 109.231H212.278L207.388 106V108.262C207.388 108.797 208.044 109.231 208.855 109.231Z" fill="#00AEEF"/>
<path d="M206.854 107.615H186.603V113.269H206.854C207.149 113.269 207.387 113.128 207.387 112.955V107.929C207.387 107.756 207.149 107.615 206.854 107.615Z" fill="#C6CACF"/>
<path d="M205.644 113.269H183.458C182.994 113.269 182.761 112.883 183.089 112.656L186.889 110.038L183.089 107.42C182.761 107.194 182.994 106.808 183.458 106.808H205.644C205.932 106.808 206.165 106.968 206.165 107.167V112.91C206.165 113.108 205.932 113.269 205.644 113.269Z" fill="#00AEEF"/>
<path d="M194.617 108.93H192.599C192.32 108.93 192.094 109.079 192.094 109.263V111.263C192.094 111.447 192.32 111.597 192.599 111.597C192.878 111.597 193.103 111.447 193.103 111.263V110.596H194.617C194.896 110.596 195.122 110.447 195.122 110.263V109.263C195.122 109.079 194.896 108.93 194.617 108.93ZM194.113 109.93H193.103V109.596H194.113V109.93Z" fill="white"/>
<path d="M197.14 108.93H196.131C195.852 108.93 195.626 109.079 195.626 109.263V111.263C195.626 111.447 195.852 111.597 196.131 111.597H198.149C198.428 111.597 198.654 111.447 198.654 111.263V109.93C198.654 109.378 197.975 108.93 197.14 108.93ZM197.645 110.93H196.636V109.596H197.14C197.418 109.596 197.645 109.746 197.645 109.93L197.645 110.93Z" fill="white"/>
<path d="M201.682 108.93H199.663C199.384 108.93 199.159 109.079 199.159 109.263V111.263C199.159 111.447 199.385 111.597 199.663 111.597C199.942 111.597 200.168 111.447 200.168 111.263V110.596H201.177C201.456 110.596 201.682 110.447 201.682 110.263C201.682 110.079 201.456 109.93 201.177 109.93H200.168V109.596H201.682C201.96 109.596 202.186 109.447 202.186 109.263C202.186 109.079 201.96 108.93 201.682 108.93Z" fill="white"/>
<path d="M206.891 124.577H191.99C191.716 124.577 191.494 124.42 191.494 124.227V114.427C191.494 114.234 191.716 114.077 191.99 114.077H206.891C207.165 114.077 207.388 114.234 207.388 114.427V124.227C207.388 124.42 207.165 124.577 206.891 124.577Z" fill="#C6CACF"/>
<path d="M192.487 123.877V114.077H191.99C191.716 114.077 191.494 114.234 191.494 114.427V124.227C191.494 124.42 191.716 124.577 191.99 124.577H206.891C207.165 124.577 207.388 124.42 207.388 124.227V123.877H192.487Z" fill="#00AEEF"/>
<path d="M205.695 122.961H200.522C200.262 122.961 200.052 122.806 200.052 122.615V118.461C200.052 118.27 200.262 118.115 200.522 118.115H205.695C205.954 118.115 206.165 118.27 206.165 118.461V122.615C206.165 122.806 205.954 122.961 205.695 122.961Z" fill="black"/>
<path d="M204.942 118.923H201.274V122.154H204.942V118.923Z" fill="#00AEEF"/>
<path d="M205.718 116.263H200.168C199.889 116.263 199.663 116.114 199.663 115.93C199.663 115.746 199.889 115.597 200.168 115.597H205.718C205.997 115.597 206.223 115.746 206.223 115.93C206.223 116.114 205.997 116.263 205.718 116.263Z" fill="#EF0000"/>
<path d="M205.718 117.596H200.168C199.889 117.596 199.663 117.447 199.663 117.263C199.663 117.079 199.889 116.93 200.168 116.93H205.718C205.997 116.93 206.223 117.079 206.223 117.263C206.223 117.447 205.997 117.596 205.718 117.596Z" fill="#EF0000"/>
<path d="M198.653 116.263H193.607C193.329 116.263 193.103 116.114 193.103 115.93C193.103 115.746 193.329 115.597 193.607 115.597H198.653C198.932 115.597 199.158 115.746 199.158 115.93C199.158 116.114 198.932 116.263 198.653 116.263Z" fill="#EF0000"/>
<path d="M198.653 117.596H193.607C193.329 117.596 193.103 117.447 193.103 117.263C193.103 117.079 193.329 116.93 193.607 116.93H198.653C198.932 116.93 199.158 117.079 199.158 117.263C199.158 117.447 198.932 117.596 198.653 117.596Z" fill="#EF0000"/>
<path d="M198.653 118.93H193.607C193.329 118.93 193.103 118.781 193.103 118.597C193.103 118.413 193.329 118.264 193.607 118.264H198.653C198.932 118.264 199.158 118.413 199.158 118.597C199.158 118.781 198.932 118.93 198.653 118.93Z" fill="#EF0000"/>
<path d="M198.653 120.263H193.607C193.329 120.263 193.103 120.114 193.103 119.93C193.103 119.746 193.329 119.597 193.607 119.597H198.653C198.932 119.597 199.158 119.746 199.158 119.93C199.158 120.114 198.932 120.263 198.653 120.263Z" fill="#EF0000"/>
<path d="M198.653 121.597H193.607C193.329 121.597 193.103 121.448 193.103 121.264C193.103 121.08 193.329 120.931 193.607 120.931H198.653C198.932 120.931 199.158 121.08 199.158 121.264C199.158 121.448 198.932 121.597 198.653 121.597Z" fill="#EF0000"/>
<path d="M198.653 122.93H193.607C193.329 122.93 193.103 122.781 193.103 122.597C193.103 122.413 193.329 122.264 193.607 122.264H198.653C198.932 122.264 199.158 122.413 199.158 122.597C199.158 122.781 198.932 122.93 198.653 122.93Z" fill="#EF0000"/>
<path d="M116.915 124.173V126.193H145.035V124.173L131.039 122.962L116.915 124.173Z" fill="#EEEEEE"/>
<path d="M116.915 122.557V124.576H145.035V122.557L131.039 121.346L116.915 122.557Z" fill="#DCDCDC"/>
<path d="M145.035 107.615V122.154H143.201L138.922 114.884L143.201 107.615H145.035Z" fill="#EEEEEE"/>
<path d="M143.812 107.615V108.844L139.382 114.884L143.812 120.925V122.154H116.915V107.615H143.812Z" fill="white"/>
<path d="M118.138 108.423V117.637L130.976 118.923L143.813 117.637V108.423H118.138Z" fill="#29B71C"/>
<path d="M131.586 110.038V113.269C132.262 113.269 132.809 112.546 132.809 111.653C132.809 110.761 132.262 110.038 131.586 110.038Z" fill="#FE5F1A"/>
<path d="M131.098 110.038C131.368 110.038 131.587 110.761 131.587 111.653C131.587 112.546 131.368 113.269 131.098 113.269C130.017 113.269 129.142 112.546 129.142 111.653C129.142 110.761 130.017 110.038 131.098 110.038Z" fill="#00AEEF"/>
<path d="M143.812 119.731L136.477 115.692L141.93 116.337L143.813 117.639L143.812 119.731Z" fill="#027372"/>
<path d="M140.846 116.568L137.358 114.885L132.865 116.568L130.364 118.23L136.133 121.346H143.813V119.108L140.846 116.568Z" fill="#E53935"/>
<path d="M142.59 116.443L141.565 116.5L137.7 115.305V113.27L142.59 116.443Z" fill="#EEEEEE"/>
<path d="M132.809 116.5L136.939 113.27L140.145 116.5L132.809 116.5Z" fill="white"/>
<path d="M135.254 121.346H133.019L124.251 115.692L129.107 116.364L135.254 121.346Z" fill="#027372"/>
<path d="M127.535 116.568L132.81 121.346H118.138V117.871L119.992 116.568L124.239 114.885L127.535 116.568Z" fill="#00AEEF"/>
<path d="M129.141 116.443L128.116 116.5L124.251 115.305V113.27L129.141 116.443Z" fill="#EEEEEE"/>
<path d="M119.361 116.5L124.179 113.27L127.919 116.5L119.361 116.5Z" fill="white"/>
<path d="M145.77 125.385C145.5 125.385 145.282 125.54 145.282 125.731V126.308H116.668V125.731C116.668 125.54 116.45 125.385 116.18 125.385C115.911 125.385 115.693 125.54 115.693 125.731V126.654C115.693 126.845 115.911 127 116.18 127H145.77C146.039 127 146.258 126.845 146.258 126.654V125.731C146.258 125.54 146.039 125.385 145.77 125.385Z" fill="#00AEEF"/>
<path d="M145.77 122.962C145.5 122.962 145.282 123.117 145.282 123.308V123.885H116.668V123.308C116.668 123.117 116.45 122.962 116.18 122.962C115.911 122.962 115.693 123.117 115.693 123.308V124.231C115.693 124.422 115.911 124.577 116.18 124.577H145.77C146.039 124.577 146.258 124.422 146.258 124.231V123.308C146.258 123.117 146.039 122.962 145.77 122.962Z" fill="#00AEEF"/>
<path d="M145.77 106.808H116.18C115.911 106.808 115.693 106.954 115.693 107.135V122.634C115.693 122.815 115.911 122.961 116.18 122.961H145.77C146.039 122.961 146.258 122.815 146.258 122.634V107.135C146.258 106.954 146.039 106.808 145.77 106.808ZM145.282 122.307H116.668V107.462H145.282V122.307Z" fill="#00AEEF"/>
<path d="M134.032 111.653C134.032 110.763 132.661 110.038 130.975 110.038C129.29 110.038 127.919 110.763 127.919 111.653C127.919 112.544 129.29 113.269 130.975 113.269C132.661 113.269 134.032 112.544 134.032 111.653ZM128.884 111.653C128.884 111.044 129.822 110.548 130.975 110.548C132.129 110.548 133.067 111.044 133.067 111.653C133.067 112.263 132.129 112.759 130.975 112.759C129.822 112.759 128.884 112.263 128.884 111.653Z" fill="black"/>
<path d="M116.915 121.014C116.915 121.197 117.145 121.346 117.43 121.346H144.52C144.805 121.346 145.035 121.197 145.035 121.014V107.947C145.035 107.764 144.805 107.615 144.52 107.615H117.43C117.145 107.615 116.915 107.764 116.915 107.947V110.605C116.915 110.788 117.145 110.937 117.43 110.937C117.714 110.937 117.944 110.788 117.944 110.605V108.28H144.006V116.668L138.111 112.862C137.911 112.732 137.585 112.732 137.384 112.862L130.975 117.001L124.566 112.862C124.365 112.732 124.039 112.732 123.839 112.862L117.944 116.668V111.934C117.944 111.75 117.714 111.602 117.43 111.602C117.145 111.602 116.915 111.75 116.915 111.934V121.014ZM137.748 113.566L141.221 115.809H134.274L137.748 113.566ZM124.202 113.566L127.676 115.809H120.729L124.202 113.566ZM119.7 116.474H128.704L130.611 117.705C130.612 117.706 134.041 119.92 134.041 119.92C134.141 119.985 134.273 120.017 134.404 120.017C134.536 120.017 134.668 119.985 134.768 119.92C134.969 119.79 134.969 119.58 134.768 119.45L131.703 117.47L133.246 116.474H142.25L144.006 117.608V120.682H117.944V117.608L119.7 116.474Z" fill="black"/>
<path fill-rule="evenodd" clip-rule="evenodd" d="M102.326 110.064C102.489 110.064 102.622 110.207 102.622 110.38V116.317H102.032V110.38C102.032 110.204 102.164 110.064 102.326 110.064Z" fill="#FFFFFE"/>
<g filter="url(#filter0_d_0_1)">
<mask id="path-63-inside-1_0_1" fill="white">
<path d="M308 27H52V27H308V27Z"/>
</mask>
<path d="M308 27H52V27H308V27Z" fill="#231F20"/>
<path d="M308 27H52V27H308V27Z" stroke="black" stroke-width="0.6" mask="url(#path-63-inside-1_0_1)"/>
</g>
<g filter="url(#filter1_d_0_1)">
<mask id="path-64-inside-2_0_1" fill="white">
<path d="M308 106H52V106H308V106Z"/>
</mask>
<path d="M308 106H52V106H308V106Z" fill="#231F20"/>
<path d="M308 106H52V106H308V106Z" stroke="black" stroke-width="0.6" mask="url(#path-64-inside-2_0_1)"/>
</g>
<path d="M344 35L344 96" stroke="white"/>
<path d="M1 35L0.999979 96" stroke="white"/>
<defs>
<filter id="filter0_d_0_1" x="48" y="26.7002" width="264" height="8.59961" filterUnits="userSpaceOnUse" color-interpolation-filters="sRGB">
<feFlood flood-opacity="0" result="BackgroundImageFix"/>
<feColorMatrix in="SourceAlpha" type="matrix" values="0 0 0 0 0 0 0 0 0 0 0 0 0 0 0 0 0 0 127 0" result="hardAlpha"/>
<feOffset dy="4"/>
<feGaussianBlur stdDeviation="2"/>
<feComposite in2="hardAlpha" operator="out"/>
<feColorMatrix type="matrix" values="0 0 0 0 0 0 0 0 0 0 0 0 0 0 0 0 0 0 0.25 0"/>
<feBlend mode="normal" in2="BackgroundImageFix" result="effect1_dropShadow_0_1"/>
<feBlend mode="normal" in="SourceGraphic" in2="effect1_dropShadow_0_1" result="shape"/>
</filter>
<filter id="filter1_d_0_1" x="48" y="105.7" width="264" height="8.59961" filterUnits="userSpaceOnUse" color-interpolation-filters="sRGB">
<feFlood flood-opacity="0" result="BackgroundImageFix"/>
<feColorMatrix in="SourceAlpha" type="matrix" values="0 0 0 0 0 0 0 0 0 0 0 0 0 0 0 0 0 0 127 0" result="hardAlpha"/>
<feOffset dy="4"/>
<feGaussianBlur stdDeviation="2"/>
<feComposite in2="hardAlpha" operator="out"/>
<feColorMatrix type="matrix" values="0 0 0 0 0 0 0 0 0 0 0 0 0 0 0 0 0 0 0.25 0"/>
<feBlend mode="normal" in2="BackgroundImageFix" result="effect1_dropShadow_0_1"/>
<feBlend mode="normal" in="SourceGraphic" in2="effect1_dropShadow_0_1" result="shape"/>
</filter>
</defs>
</svg>
