<svg width="344" height="99" viewBox="0 0 344 99" fill="none" xmlns="http://www.w3.org/2000/svg">
<rect width="344" height="99" fill="#F5F5F5"/>
<g filter="url(#filter0_d_0_1)">
<mask id="path-1-inside-1_0_1" fill="white">
<path d="M307 1H51V1H307V1Z"/>
</mask>
<path d="M307 1H51V1H307V1Z" fill="#231F20"/>
<path d="M307 1H51V1H307V1Z" stroke="black" stroke-width="0.6" mask="url(#path-1-inside-1_0_1)"/>
</g>
<path d="M168.462 8H293.541C294.72 8 295.889 8.23235 296.978 8.68379C298.068 9.13523 299.059 9.79691 299.893 10.6311C300.727 11.4652 301.389 12.4555 301.84 13.5454C302.291 14.6352 302.524 15.8033 302.524 16.983V33.152H168.462C165.126 33.152 161.928 31.827 159.569 29.4686C157.211 27.1101 155.886 23.9114 155.886 20.576C155.886 17.2406 157.211 14.0419 159.569 11.6834C161.928 9.32497 165.126 8 168.462 8Z" fill="#00AEEF"/>
<text fill="#FEFEFE" xml:space="preserve" style="white-space: pre" font-family="Harmattan" font-size="15" font-weight="bold" letter-spacing="0em"><tspan x="222" y="24.0872">3D </tspan></text>
<path d="M300.208 50.668H247.208V55.668H300.208V50.668Z" fill="#949598"/>
<path d="M247.208 50.668H205.208V55.668H247.208V50.668Z" fill="#00AEEF"/>
<path d="M246.222 49C246.959 49 247.666 49.3835 248.186 50.0661C248.707 50.7488 249 51.6746 249 52.64V53.3571C249 53.8353 248.929 54.309 248.789 54.7509C248.65 55.1929 248.445 55.5945 248.187 55.9328C247.929 56.2711 247.623 56.5395 247.286 56.7226C246.949 56.9058 246.587 57 246.222 57C245.93 57 245.641 56.9246 245.371 56.778C245.102 56.6315 244.856 56.4167 244.65 56.146C244.444 55.8753 244.28 55.5539 244.169 55.2002C244.057 54.8466 244 54.4676 244 54.0849V51.9122C244 51.1398 244.234 50.3991 244.651 49.853C245.068 49.3068 245.633 49 246.222 49Z" fill="black"/>
<text fill="#FF0040" xml:space="preserve" style="white-space: pre" font-family="Bahij TheSansArabic" font-size="13" font-weight="500" letter-spacing="0em"><tspan x="44" y="58.261">Blender </tspan></text>
<path d="M213.967 80.3641C213.911 80.1101 213.665 79.9521 213.435 80.0131C213.298 80.0745 213.194 80.1621 213.135 80.264C213.076 80.3659 213.066 80.4773 213.106 80.5831L213.149 80.7711L213.58 80.6611L213.153 80.7751C213.168 80.852 213.206 80.9261 213.265 80.9931C213.306 81.0451 213.359 81.1031 213.417 81.1711C213.64 81.4052 213.839 81.6495 214.011 81.9021C214.142 82.1241 214.414 82.1911 214.617 82.0521C214.725 81.961 214.794 81.8526 214.818 81.7381C214.842 81.6238 214.821 81.5075 214.758 81.4001C214.556 81.0918 214.319 80.7942 214.048 80.5101C214.007 80.4651 214.001 80.4871 213.992 80.4801L213.967 80.3641Z" fill="#FFFFFE"/>
<path d="M212.542 81.7584C212.486 82.0124 212.239 82.1704 212.009 82.1094C211.455 81.9684 211.684 81.2844 211.986 80.9534C212.21 80.7193 212.409 80.475 212.581 80.2224C212.711 80.0004 212.984 79.9334 213.187 80.0724C213.294 80.1636 213.364 80.2719 213.388 80.3864C213.412 80.5007 213.391 80.6171 213.327 80.7244C213.146 81.0344 212.571 81.5744 212.536 81.7584H212.542Z" fill="#FFFFFE"/>
<path d="M173.901 78.8076H150.846C149.11 78.8076 147.703 79.7608 147.703 80.9366V93.7106C147.703 94.8864 149.11 95.8396 150.846 95.8396H173.901C175.637 95.8396 177.045 94.8864 177.045 93.7106V80.9366C177.045 79.7608 175.637 78.8076 173.901 78.8076Z" fill="#29B71C"/>
<path d="M171.805 93.0014H152.942C152.664 93.0014 152.398 92.9266 152.201 92.7935C152.005 92.6604 151.894 92.4799 151.894 92.2917C151.894 92.1035 152.005 91.923 152.201 91.7899C152.398 91.6568 152.664 91.582 152.942 91.582H171.805C172.083 91.582 172.349 91.6568 172.546 91.7899C172.742 91.923 172.853 92.1035 172.853 92.2917C172.853 92.4799 172.742 92.6604 172.546 92.7935C172.349 92.9266 172.083 93.0014 171.805 93.0014Z" fill="#EEEEEE"/>
<path d="M165.518 93.7107C165.24 93.7107 164.973 93.6359 164.777 93.5029C164.58 93.3698 164.47 93.1893 164.47 93.0011V91.5817C164.47 91.3935 164.58 91.213 164.777 91.0799C164.973 90.9469 165.24 90.8721 165.518 90.8721C165.796 90.8721 166.062 90.9469 166.259 91.0799C166.455 91.213 166.566 91.3935 166.566 91.5817V93.0011C166.566 93.1893 166.455 93.3698 166.259 93.5029C166.062 93.6359 165.796 93.7107 165.518 93.7107Z" fill="#00AEEF"/>
<path d="M167.037 84.9602L159.702 82.4763C159.542 82.4219 159.365 82.396 159.186 82.401C159.008 82.4061 158.834 82.442 158.682 82.5052C158.53 82.5685 158.404 82.6571 158.317 82.7626C158.229 82.8681 158.183 82.9869 158.182 83.1079V88.7001C158.184 88.8266 158.235 88.9505 158.331 89.059C158.427 89.1675 158.564 89.2567 158.727 89.3175C158.879 89.3792 159.053 89.4112 159.23 89.4098C159.427 89.4102 159.619 89.3733 159.786 89.3033L167.121 86.195C167.28 86.128 167.41 86.0334 167.496 85.921C167.583 85.8088 167.623 85.6828 167.614 85.5563C167.604 85.4313 167.545 85.3104 167.444 85.2056C167.343 85.101 167.203 85.0163 167.037 84.9602Z" fill="#EEEEEE"/>
<path d="M150.846 78.8076C150.013 78.8076 149.213 79.0319 148.623 79.4312C148.034 79.8304 147.703 80.372 147.703 80.9366V93.7106C147.703 94.2752 148.034 94.8167 148.623 95.216C149.213 95.6152 150.013 95.8396 150.846 95.8396H162.374V78.8076H150.846Z" fill="#E53935"/>
<path d="M152.942 91.582C152.664 91.582 152.398 91.6568 152.201 91.7899C152.005 91.923 151.894 92.1035 151.894 92.2917C151.894 92.4799 152.005 92.6604 152.201 92.7935C152.398 92.9266 152.664 93.0014 152.942 93.0014H162.373V91.582H152.942Z" fill="#FAFAFA"/>
<path d="M159.702 82.4763C159.542 82.4219 159.365 82.396 159.186 82.401C159.008 82.4061 158.834 82.442 158.682 82.5052C158.53 82.5685 158.404 82.6571 158.317 82.7626C158.229 82.8681 158.183 82.9869 158.182 83.1079V88.7001C158.184 88.8266 158.235 88.9505 158.331 89.059C158.427 89.1675 158.564 89.2567 158.727 89.3175C158.879 89.3792 159.053 89.4112 159.23 89.4098C159.427 89.4102 159.619 89.3733 159.786 89.3033L162.374 88.2033V83.3776L159.702 82.4763Z" fill="#00AEEF"/>
<path d="M207.855 81.2308H211.278L206.388 78V80.2615C206.388 80.7968 207.044 81.2308 207.855 81.2308Z" fill="#00AEEF"/>
<path d="M205.854 79.6152H185.603V85.2691H205.854C206.149 85.2691 206.387 85.1284 206.387 84.955V79.9293C206.387 79.7558 206.149 79.6152 205.854 79.6152Z" fill="#C6CACF"/>
<path d="M204.644 85.2692H182.458C181.994 85.2692 181.761 84.8825 182.089 84.6564L185.889 82.0384L182.089 79.4204C181.761 79.1943 181.994 78.8076 182.458 78.8076H204.644C204.932 78.8076 205.165 78.9684 205.165 79.1666V84.9102C205.165 85.1084 204.932 85.2692 204.644 85.2692Z" fill="#00AEEF"/>
<path d="M193.617 80.9297H191.599C191.32 80.9297 191.094 81.079 191.094 81.263V83.2632C191.094 83.4473 191.32 83.5965 191.599 83.5965C191.878 83.5965 192.103 83.4473 192.103 83.2632V82.5965H193.617C193.896 82.5965 194.122 82.4472 194.122 82.2631V81.263C194.122 81.079 193.896 80.9297 193.617 80.9297ZM193.113 81.9298H192.103V81.5964H193.113V81.9298Z" fill="white"/>
<path d="M196.14 80.9297H195.131C194.852 80.9297 194.626 81.079 194.626 81.263V83.2632C194.626 83.4473 194.852 83.5965 195.131 83.5965H197.149C197.428 83.5965 197.654 83.4473 197.654 83.2632V81.9298C197.654 81.3783 196.975 80.9297 196.14 80.9297ZM196.645 82.9298H195.636V81.5964H196.14C196.418 81.5964 196.645 81.746 196.645 81.9298L196.645 82.9298Z" fill="white"/>
<path d="M200.682 80.9297H198.663C198.384 80.9297 198.159 81.079 198.159 81.263V83.2632C198.159 83.4473 198.385 83.5965 198.663 83.5965C198.942 83.5965 199.168 83.4473 199.168 83.2632V82.5965H200.177C200.456 82.5965 200.682 82.4472 200.682 82.2631C200.682 82.079 200.456 81.9298 200.177 81.9298H199.168V81.5964H200.682C200.96 81.5964 201.186 81.4471 201.186 81.2631C201.186 81.079 200.96 80.9297 200.682 80.9297Z" fill="white"/>
<path d="M205.891 96.5771H190.99C190.716 96.5771 190.494 96.4204 190.494 96.2272V86.4271C190.494 86.2338 190.716 86.0771 190.99 86.0771H205.891C206.165 86.0771 206.388 86.2339 206.388 86.4271V96.2272C206.388 96.4205 206.165 96.5771 205.891 96.5771Z" fill="#C6CACF"/>
<path d="M191.487 95.8772V86.0771H190.99C190.716 86.0771 190.494 86.2339 190.494 86.4271V96.2272C190.494 96.4205 190.716 96.5771 190.99 96.5771H205.891C206.165 96.5771 206.388 96.4204 206.388 96.2272V95.8772H191.487Z" fill="#00AEEF"/>
<path d="M204.695 94.9614H199.522C199.262 94.9614 199.052 94.8064 199.052 94.6152V90.4614C199.052 90.2702 199.262 90.1152 199.522 90.1152H204.695C204.954 90.1152 205.165 90.2702 205.165 90.4614V94.6152C205.165 94.8064 204.954 94.9614 204.695 94.9614Z" fill="black"/>
<path d="M203.942 90.9229H200.274V94.1536H203.942V90.9229Z" fill="#00AEEF"/>
<path d="M204.718 88.2634H199.168C198.889 88.2634 198.663 88.1141 198.663 87.93C198.663 87.7459 198.889 87.5967 199.168 87.5967H204.718C204.997 87.5967 205.223 87.7459 205.223 87.93C205.223 88.1141 204.997 88.2634 204.718 88.2634Z" fill="#EF0000"/>
<path d="M204.718 89.5964H199.168C198.889 89.5964 198.663 89.4471 198.663 89.263C198.663 89.0789 198.889 88.9297 199.168 88.9297H204.718C204.997 88.9297 205.223 89.079 205.223 89.263C205.223 89.4471 204.997 89.5964 204.718 89.5964Z" fill="#EF0000"/>
<path d="M197.653 88.2634H192.607C192.329 88.2634 192.103 88.1141 192.103 87.93C192.103 87.7459 192.329 87.5967 192.607 87.5967H197.653C197.932 87.5967 198.158 87.7459 198.158 87.93C198.158 88.1141 197.932 88.2634 197.653 88.2634Z" fill="#EF0000"/>
<path d="M197.653 89.5964H192.607C192.329 89.5964 192.103 89.4471 192.103 89.263C192.103 89.0789 192.329 88.9297 192.607 88.9297H197.653C197.932 88.9297 198.158 89.079 198.158 89.263C198.158 89.4471 197.932 89.5964 197.653 89.5964Z" fill="#EF0000"/>
<path d="M197.653 90.9304H192.607C192.329 90.9304 192.103 90.7811 192.103 90.597C192.103 90.4129 192.329 90.2637 192.607 90.2637H197.653C197.932 90.2637 198.158 90.4129 198.158 90.597C198.158 90.7811 197.932 90.9304 197.653 90.9304Z" fill="#EF0000"/>
<path d="M197.653 92.2634H192.607C192.329 92.2634 192.103 92.1141 192.103 91.93C192.103 91.7459 192.329 91.5967 192.607 91.5967H197.653C197.932 91.5967 198.158 91.7459 198.158 91.93C198.158 92.1141 197.932 92.2634 197.653 92.2634Z" fill="#EF0000"/>
<path d="M197.653 93.5974H192.607C192.329 93.5974 192.103 93.4481 192.103 93.264C192.103 93.0799 192.329 92.9307 192.607 92.9307H197.653C197.932 92.9307 198.158 93.0799 198.158 93.264C198.158 93.4481 197.932 93.5974 197.653 93.5974Z" fill="#EF0000"/>
<path d="M197.653 94.9304H192.607C192.329 94.9304 192.103 94.7811 192.103 94.597C192.103 94.4129 192.329 94.2637 192.607 94.2637H197.653C197.932 94.2637 198.158 94.4129 198.158 94.597C198.158 94.7811 197.932 94.9304 197.653 94.9304Z" fill="#EF0000"/>
<path d="M115.915 96.1735V98.1927H144.035V96.1735L130.039 94.9619L115.915 96.1735Z" fill="#EEEEEE"/>
<path d="M115.915 94.5572V96.5765H144.035V94.5572L130.039 93.3457L115.915 94.5572Z" fill="#DCDCDC"/>
<path d="M144.035 79.6152V94.1537H142.201L137.922 86.8845L142.201 79.6152H144.035Z" fill="#EEEEEE"/>
<path d="M142.812 79.6152V80.8438L138.382 86.8845L142.812 92.9251V94.1537H115.915V79.6152H142.812Z" fill="white"/>
<path d="M117.138 80.4229V89.6371L129.976 90.9229L142.813 89.6371V80.4229H117.138Z" fill="#29B71C"/>
<path d="M130.586 82.0381V85.2689C131.262 85.2689 131.809 84.5456 131.809 83.6535C131.809 82.7614 131.262 82.0381 130.586 82.0381Z" fill="#FE5F1A"/>
<path d="M130.098 82.0381C130.368 82.0381 130.587 82.7614 130.587 83.6535C130.587 84.5456 130.368 85.2689 130.098 85.2689C129.017 85.2689 128.142 84.5456 128.142 83.6535C128.142 82.7614 129.017 82.0381 130.098 82.0381Z" fill="#00AEEF"/>
<path d="M142.812 91.7308L135.477 87.6924L140.93 88.3367L142.813 89.6394L142.812 91.7308Z" fill="#027372"/>
<path d="M139.846 88.5679L136.358 86.8848L131.865 88.568L129.364 90.23L135.133 93.3463H142.813V91.1078L139.846 88.5679Z" fill="#E53935"/>
<path d="M141.59 88.4426L140.565 88.5003L136.7 87.305V85.2695L141.59 88.4426Z" fill="#EEEEEE"/>
<path d="M131.809 88.5003L135.939 85.2695L139.145 88.5002L131.809 88.5003Z" fill="white"/>
<path d="M134.254 93.3462H132.019L123.251 87.6924L128.107 88.3645L134.254 93.3462Z" fill="#027372"/>
<path d="M126.535 88.5679L131.81 93.3463H117.138V89.8712L118.992 88.568L123.239 86.8848L126.535 88.5679Z" fill="#00AEEF"/>
<path d="M128.141 88.4426L127.116 88.5003L123.251 87.305V85.2695L128.141 88.4426Z" fill="#EEEEEE"/>
<path d="M118.361 88.5003L123.179 85.2695L126.919 88.5002L118.361 88.5003Z" fill="white"/>
<path d="M144.77 97.3848C144.5 97.3848 144.282 97.5397 144.282 97.7309V98.3078H115.668V97.7309C115.668 97.5397 115.45 97.3848 115.18 97.3848C114.911 97.3848 114.693 97.5397 114.693 97.7309V98.654C114.693 98.8452 114.911 99.0002 115.18 99.0002H144.77C145.039 99.0002 145.258 98.8452 145.258 98.654V97.7309C145.258 97.5397 145.039 97.3848 144.77 97.3848Z" fill="#00AEEF"/>
<path d="M144.77 94.9619C144.5 94.9619 144.282 95.1169 144.282 95.3081V95.885H115.668V95.3081C115.668 95.1169 115.45 94.9619 115.18 94.9619C114.911 94.9619 114.693 95.1169 114.693 95.3081V96.2311C114.693 96.4224 114.911 96.5773 115.18 96.5773H144.77C145.039 96.5773 145.258 96.4224 145.258 96.2311V95.3081C145.258 95.1169 145.039 94.9619 144.77 94.9619Z" fill="#00AEEF"/>
<path d="M144.77 78.8076H115.18C114.911 78.8076 114.693 78.9542 114.693 79.1351V94.634C114.693 94.8149 114.911 94.9615 115.18 94.9615H144.77C145.039 94.9615 145.258 94.8149 145.258 94.634V79.1351C145.258 78.9542 145.039 78.8076 144.77 78.8076ZM144.282 94.3066H115.668V79.4625H144.282V94.3066Z" fill="#00AEEF"/>
<path d="M133.032 83.6535C133.032 82.7628 131.661 82.0381 129.975 82.0381C128.29 82.0381 126.919 82.7628 126.919 83.6535C126.919 84.5442 128.29 85.2689 129.975 85.2689C131.661 85.2689 133.032 84.5442 133.032 83.6535ZM127.884 83.6535C127.884 83.044 128.822 82.5482 129.975 82.5482C131.129 82.5482 132.067 83.044 132.067 83.6535C132.067 84.2629 131.129 84.7587 129.975 84.7587C128.822 84.7587 127.884 84.2629 127.884 83.6535Z" fill="black"/>
<path d="M115.915 93.0138C115.915 93.1973 116.145 93.346 116.43 93.346H143.52C143.805 93.346 144.035 93.1973 144.035 93.0138V79.9474C144.035 79.7639 143.805 79.6152 143.52 79.6152H116.43C116.145 79.6152 115.915 79.7639 115.915 79.9474V82.605C115.915 82.7885 116.145 82.9372 116.43 82.9372C116.714 82.9372 116.944 82.7885 116.944 82.605V80.2796H143.006V88.6683L137.111 84.8616C136.911 84.7319 136.585 84.7319 136.384 84.8616L129.975 89.0005L123.566 84.8615C123.365 84.7318 123.039 84.7319 122.839 84.8615L116.944 88.6683V83.9338C116.944 83.7503 116.714 83.6016 116.43 83.6016C116.145 83.6016 115.915 83.7503 115.915 83.9338V93.0138ZM136.748 85.5662L140.221 87.8094H133.274L136.748 85.5662ZM123.202 85.5662L126.676 87.8094H119.729L123.202 85.5662ZM118.7 88.4738H127.704L129.611 89.7049C129.612 89.7057 133.041 91.92 133.041 91.92C133.141 91.9848 133.273 92.0172 133.404 92.0172C133.536 92.0172 133.668 91.9848 133.768 91.92C133.969 91.7902 133.969 91.5799 133.768 91.4501L130.703 89.4704L132.246 88.4738H141.25L143.006 89.608V92.6816H116.944V89.608L118.7 88.4738Z" fill="black"/>
<path fill-rule="evenodd" clip-rule="evenodd" d="M101.326 82.0645C101.489 82.0645 101.622 82.2066 101.622 82.3803V88.3168H101.032V82.3803C101.032 82.2042 101.164 82.0645 101.326 82.0645Z" fill="#FFFFFE"/>
<g filter="url(#filter1_d_0_1)">
<mask id="path-56-inside-2_0_1" fill="white">
<path d="M307 74H51V74H307V74Z"/>
</mask>
<path d="M307 74H51V74H307V74Z" fill="#231F20"/>
<path d="M307 74H51V74H307V74Z" stroke="black" stroke-width="0.6" mask="url(#path-56-inside-2_0_1)"/>
</g>
<defs>
<filter id="filter0_d_0_1" x="47" y="0.700195" width="264" height="8.59961" filterUnits="userSpaceOnUse" color-interpolation-filters="sRGB">
<feFlood flood-opacity="0" result="BackgroundImageFix"/>
<feColorMatrix in="SourceAlpha" type="matrix" values="0 0 0 0 0 0 0 0 0 0 0 0 0 0 0 0 0 0 127 0" result="hardAlpha"/>
<feOffset dy="4"/>
<feGaussianBlur stdDeviation="2"/>
<feComposite in2="hardAlpha" operator="out"/>
<feColorMatrix type="matrix" values="0 0 0 0 0 0 0 0 0 0 0 0 0 0 0 0 0 0 0.25 0"/>
<feBlend mode="normal" in2="BackgroundImageFix" result="effect1_dropShadow_0_1"/>
<feBlend mode="normal" in="SourceGraphic" in2="effect1_dropShadow_0_1" result="shape"/>
</filter>
<filter id="filter1_d_0_1" x="47" y="73.7002" width="264" height="8.59961" filterUnits="userSpaceOnUse" color-interpolation-filters="sRGB">
<feFlood flood-opacity="0" result="BackgroundImageFix"/>
<feColorMatrix in="SourceAlpha" type="matrix" values="0 0 0 0 0 0 0 0 0 0 0 0 0 0 0 0 0 0 127 0" result="hardAlpha"/>
<feOffset dy="4"/>
<feGaussianBlur stdDeviation="2"/>
<feComposite in2="hardAlpha" operator="out"/>
<feColorMatrix type="matrix" values="0 0 0 0 0 0 0 0 0 0 0 0 0 0 0 0 0 0 0.25 0"/>
<feBlend mode="normal" in2="BackgroundImageFix" result="effect1_dropShadow_0_1"/>
<feBlend mode="normal" in="SourceGraphic" in2="effect1_dropShadow_0_1" result="shape"/>
</filter>
</defs>
</svg>
