<svg width="343" height="834" viewBox="0 0 343 834" fill="none" xmlns="http://www.w3.org/2000/svg">
<rect width="343" height="834" fill="#F5F5F5"/>
<path d="M294.5 34.5C289.959 34.5 285.69 32.7317 282.479 29.5208C279.268 26.3099 277.5 22.0409 277.5 17.5C277.5 12.9591 279.268 8.69006 282.479 5.47919C285.69 2.26831 289.959 0.5 294.5 0.5C299.041 0.5 303.31 2.26831 306.521 5.47919C309.732 8.69006 311.5 12.9591 311.5 17.5C311.5 22.0409 309.732 26.3099 306.521 29.5208C303.31 32.7317 299.041 34.5 294.5 34.5Z" fill="#00AEEF"/>
<path d="M294.5 1C290.093 1 285.949 2.7163 282.833 5.83274C279.716 8.94918 278 13.0927 278 17.5C278 21.9073 279.716 26.0508 282.833 29.1673C285.949 32.2837 290.093 34 294.5 34C298.907 34 303.051 32.2837 306.167 29.1673C309.284 26.0508 311 21.9073 311 17.5C311 13.0927 309.284 8.94918 306.167 5.83274C303.051 2.7163 298.907 1 294.5 1ZM294.5 0C304.165 0 312 7.83502 312 17.5C312 27.165 304.165 35 294.5 35C284.835 35 277 27.165 277 17.5C277 7.83502 284.835 0 294.5 0Z" fill="#707070"/>
<path d="M329.042 17.0171C328.242 16.6171 326.319 18.0981 327.155 18.5171C328.489 19.1846 329.736 20.0131 330.868 20.9841C323.328 20.3991 316.458 23.5511 309.231 25.5681C304.588 26.8681 299.25 27.6091 294.94 25.2121C296.678 24.602 298.337 23.788 299.883 22.7871C301.583 21.6681 303.258 20.2261 303.688 18.1601C303.833 17.4267 303.752 16.6665 303.455 15.9803C303.159 15.2941 302.66 14.7144 302.026 14.3181C298.864 12.8411 296.654 14.0621 295.334 16.5181C294.727 15.7874 293.909 15.2632 292.991 15.0181C291.747 14.6791 289.642 14.4291 288.859 15.7941C286.783 19.4111 289.236 22.7131 292.296 24.8041C287.596 26.3671 282.236 26.2041 279.389 21.7911C279.023 21.2241 276.823 21.2551 277.008 21.5431C280.553 27.0331 287.608 27.4181 293.641 25.6301C294.292 25.9878 294.967 26.2973 295.663 26.5561C308.116 31.1391 319.5 20.4201 331.763 21.8041C331.813 21.8541 331.863 21.9041 331.914 21.9511C330.217 22.7291 328.589 23.6512 327.049 24.7071C326.76 24.9071 326.255 25.5541 326.711 25.8491C327.193 26.1601 327.869 25.7561 328.261 25.4891C329.937 24.3562 331.739 23.4204 333.629 22.7001C333.929 22.5841 335.093 21.8431 334.662 21.3601C333.083 19.567 331.175 18.0928 329.042 17.0171ZM293.38 24.1711C292.487 23.468 291.77 22.5659 291.287 21.5367C290.803 20.5075 290.567 19.3797 290.597 18.2431C290.642 17.0091 291.573 14.7221 293.144 16.4201C293.724 17.1841 294.168 18.0423 294.457 18.9571C294.633 19.3861 296.718 19.8421 296.863 19.3091C297.119 18.2916 297.476 17.3021 297.928 16.3551C298.884 14.4241 300.835 14.3981 301.259 16.5551C301.759 19.0701 299.353 20.8911 297.571 22.1551C296.33 23.0275 294.995 23.7565 293.59 24.3281C293.526 24.2771 293.454 24.2261 293.385 24.1701L293.38 24.1711Z" fill="white"/>
<path d="M309.979 26.5374C310.179 26.1004 310.36 25.6494 310.521 25.1994C311.821 24.8134 313.129 24.3944 314.394 23.9884C319.106 22.4774 323.978 20.9154 329.013 20.9154C329.637 20.9154 330.262 20.9394 330.871 20.9864C329.738 20.0164 328.492 19.188 327.159 18.5194C327.084 18.4901 327.022 18.4338 326.986 18.3615C326.95 18.2892 326.943 18.2061 326.965 18.1284C327.136 17.7994 327.387 17.5188 327.695 17.3127C328.003 17.1066 328.358 16.9816 328.727 16.9494C328.837 16.9468 328.947 16.9701 329.047 17.0174C331.182 18.0936 333.09 19.5709 334.667 21.3684C334.708 21.4123 334.737 21.4659 334.751 21.5242C334.766 21.5825 334.765 21.6435 334.749 21.7014C334.643 22.1394 333.857 22.6224 333.633 22.7084C331.743 23.4299 329.942 24.3657 328.265 25.4974C327.933 25.7584 327.536 25.9222 327.117 25.9704C326.975 25.9725 326.836 25.9333 326.717 25.8574C326.661 25.8252 326.615 25.7788 326.582 25.723C326.55 25.6672 326.533 25.6039 326.533 25.5394C326.558 25.3737 326.618 25.2151 326.707 25.0734C326.797 24.9318 326.915 24.8102 327.054 24.7164C328.594 23.6613 330.222 22.7393 331.919 21.9604C331.889 21.9304 331.859 21.9004 331.829 21.8724L331.768 21.8134C331.019 21.7297 330.267 21.688 329.514 21.6884C324.887 21.6884 320.301 23.2194 315.866 24.7004H315.853C313.932 25.3414 311.945 26.0004 309.983 26.5344L309.979 26.5374ZM277.779 22.6024C277.501 22.2685 277.244 21.9182 277.009 21.5534C277.003 21.5453 276.999 21.5357 276.998 21.5256C276.997 21.5156 276.999 21.5054 277.004 21.4964C277.042 21.4234 277.27 21.3694 277.599 21.3554C277.644 21.7684 277.705 22.1874 277.781 22.6014L277.779 22.6024Z" fill="black"/>
<path d="M299.876 751.242H325.876V784.242H299.876V751.242Z" fill="#00AEEF"/>
<path d="M308.397 769.964C308.397 770.174 308.277 770.342 308.132 770.342C307.986 770.342 307.868 770.172 307.868 769.964V760.709H302.316V779.361H303.233C303.379 779.361 303.497 779.532 303.497 779.739C303.497 779.949 303.378 780.117 303.233 780.117H302.052C301.905 780.117 301.788 779.947 301.788 779.739V760.507C301.788 760.355 301.832 760.216 301.902 760.113C301.971 760.014 302.069 759.951 302.177 759.951H307.868V752.58C307.868 752.398 307.919 752.231 308.004 752.112V752.11C308.088 751.989 308.204 751.916 308.333 751.916H317.76C317.888 751.916 318.004 751.989 318.088 752.11L318.108 752.141C318.18 752.259 318.226 752.412 318.226 752.58V759.951H323.957C324.064 759.951 324.161 760.014 324.231 760.113L324.233 760.116C324.303 760.216 324.347 760.355 324.347 760.507V779.739C324.347 779.949 324.227 780.117 324.082 780.117H322.404C322.257 780.117 322.14 779.947 322.14 779.739C322.14 779.529 322.259 779.361 322.404 779.361H323.818V760.709H318.224V769.854C318.224 770.064 318.105 770.232 317.96 770.232C317.813 770.232 317.695 770.062 317.695 769.854V752.671H308.397V769.964ZM319.623 769.901H322.542C322.566 769.901 322.586 769.922 322.586 769.946V771.179C322.586 771.206 322.566 771.227 322.542 771.227H319.623C319.599 771.227 319.579 771.206 319.579 771.179V769.946C319.579 769.922 319.599 769.901 319.623 769.901ZM303.57 769.901H306.489C306.513 769.901 306.533 769.922 306.533 769.946V771.179C306.533 771.206 306.513 771.227 306.489 771.227H303.57C303.546 771.227 303.526 771.206 303.526 771.179V769.946C303.526 769.922 303.546 769.901 303.57 769.901ZM309.583 754.138H316.511C316.627 754.138 316.722 754.275 316.722 754.44V757.67C316.722 757.836 316.627 757.972 316.511 757.972H309.583C309.467 757.972 309.372 757.836 309.372 757.67V754.44C309.37 754.275 309.465 754.138 309.583 754.138ZM319.669 779.474C319.476 778.921 319.232 778.451 318.946 778.01C319.482 778.307 320.031 778.6 320.436 778.965C321.174 779.627 321.229 780.427 321.29 781.576H317.631C317.631 781.568 317.631 781.558 317.631 781.55L317.563 780.729L317.826 781.054L319.111 779.456L319.669 779.474ZM306.576 778.178L307.04 780.13L307.273 778.97L307.159 778.792C307.108 778.684 307.097 778.59 307.125 778.509C307.187 778.333 307.315 778.367 307.435 778.367C307.56 778.367 307.716 778.333 307.754 778.558C307.767 778.635 307.751 778.713 307.714 778.795L307.6 778.973L307.833 780.133L308.254 778.181C308.314 778.259 308.4 778.325 308.5 778.383C308.465 778.488 308.433 778.595 308.406 778.711C308.334 779.007 308.288 779.335 308.268 779.7H308.27C308.27 779.708 308.27 779.718 308.268 779.726L308.167 781.579H304.806C304.604 781.558 304.501 781.408 304.485 781.151L304.554 780.128C304.575 779.763 304.646 779.477 304.762 779.257C304.839 779.112 304.934 779.005 305.039 778.921C305.373 778.645 306.273 778.569 306.576 778.178ZM306.348 775.41C306.302 775.415 306.269 775.431 306.243 775.452C306.229 775.465 306.219 775.483 306.212 775.504C306.205 775.528 306.201 775.559 306.201 775.593C306.203 775.701 306.243 775.845 306.322 776.01L306.324 776.013L306.583 776.604C306.686 776.84 306.796 777.078 306.928 777.254C307.055 777.42 307.211 777.532 307.415 777.535C307.637 777.535 307.798 777.42 307.93 777.244C308.068 777.06 308.178 776.803 308.287 776.548L308.579 775.861C308.637 775.669 308.656 775.554 308.637 775.499C308.626 775.465 308.577 775.457 308.498 775.465C308.446 775.48 308.395 775.467 308.338 775.425L308.483 774.801C307.949 774.79 307.582 774.659 307.15 774.263C307.009 774.134 306.965 773.985 306.823 773.998C306.715 774.027 306.625 774.097 306.554 774.208C306.484 774.313 306.432 774.457 306.399 774.643L306.486 775.394C306.44 775.433 306.394 775.436 306.348 775.41ZM308.663 775.223C308.725 775.249 308.771 775.302 308.801 775.381C308.845 775.509 308.828 775.698 308.746 775.966C308.744 775.971 308.742 775.976 308.74 775.982L308.445 776.677C308.331 776.947 308.213 777.218 308.057 777.427C307.894 777.645 307.694 777.79 307.418 777.79C307.161 777.79 306.968 777.648 306.811 777.441C306.658 777.241 306.543 776.987 306.434 776.737L306.175 776.147C306.078 775.94 306.029 775.751 306.025 775.596C306.023 775.52 306.032 775.452 306.052 775.391C306.073 775.328 306.106 775.273 306.148 775.234C306.168 775.213 306.192 775.197 306.219 775.184C306.203 774.869 306.197 774.478 306.208 774.147C306.214 774.066 306.225 773.987 306.24 773.906C306.306 773.567 306.473 773.294 306.678 773.108C306.752 773.043 306.831 772.987 306.915 772.943C307.415 772.686 308.075 772.825 308.43 773.373C308.575 773.596 308.665 773.893 308.683 774.284L308.663 775.223ZM311.275 772.61C311.217 772.62 311.173 772.641 311.14 772.67C311.117 772.691 311.103 772.717 311.094 772.746C311.083 772.783 311.077 772.827 311.077 772.877C311.081 773.037 311.141 773.252 311.257 773.499L311.259 773.504L311.646 774.386C311.8 774.738 311.962 775.095 312.162 775.357C312.353 775.606 312.582 775.774 312.887 775.774C313.218 775.774 313.46 775.601 313.655 775.339C313.86 775.063 314.025 774.683 314.185 774.302L314.62 773.279C314.708 772.993 314.734 772.82 314.707 772.741C314.688 772.688 314.613 772.675 314.484 772.694C314.475 772.694 314.464 772.694 314.455 772.694C314.402 772.694 314.345 772.675 314.281 772.633L314.477 771.699C313.678 771.686 313.133 771.486 312.487 770.896C312.274 770.702 312.212 770.481 311.999 770.502C311.839 770.547 311.703 770.649 311.597 770.815C311.494 770.972 311.417 771.187 311.365 771.465L311.503 772.596C311.424 772.649 311.347 772.654 311.275 772.61ZM311.635 776.737L312.329 779.653L312.678 777.923L312.507 777.656C312.43 777.496 312.414 777.354 312.456 777.233C312.548 776.971 312.74 777.021 312.918 777.021C313.106 777.021 313.337 776.971 313.396 777.304C313.416 777.417 313.39 777.532 313.335 777.656L313.164 777.923L313.513 779.653L314.141 776.737C314.595 777.32 315.76 777.438 316.26 777.834C316.396 777.942 316.519 778.076 316.623 778.246C316.625 778.228 316.629 778.207 316.636 778.191C316.691 778.036 316.805 778.065 316.911 778.065C317.023 778.065 317.161 778.036 317.196 778.236C317.207 778.301 317.192 778.372 317.161 778.446L317.06 778.606L317.268 779.634L317.001 779.936L317.089 781.587C317.064 781.972 316.911 782.193 316.61 782.227H309.168C308.867 782.193 308.714 781.972 308.689 781.587L308.793 779.642C308.823 779.099 308.929 778.669 309.104 778.341C309.217 778.126 309.361 777.965 309.518 777.839C310.016 777.438 311.182 777.32 311.635 776.737ZM314.749 772.329C314.842 772.368 314.912 772.444 314.954 772.565C315.02 772.757 314.995 773.037 314.872 773.439C314.87 773.447 314.866 773.455 314.864 773.462L314.422 774.502C314.251 774.906 314.077 775.307 313.844 775.619C313.6 775.945 313.3 776.163 312.891 776.16C312.507 776.16 312.219 775.95 311.982 775.64C311.755 775.344 311.584 774.963 311.419 774.591L311.031 773.709C310.886 773.402 310.813 773.119 310.807 772.885C310.805 772.772 310.818 772.67 310.848 772.581C310.879 772.486 310.927 772.405 310.991 772.345C311.022 772.313 311.059 772.289 311.097 772.268C311.073 771.796 311.066 771.214 311.081 770.723C311.09 770.602 311.105 770.484 311.129 770.363C311.228 769.857 311.475 769.45 311.784 769.172C311.892 769.072 312.012 768.991 312.136 768.928C312.88 768.542 313.868 768.752 314.396 769.571C314.611 769.904 314.747 770.345 314.776 770.928L314.749 772.329ZM316.094 777.141L316.72 777.118C316.39 775.661 316.5 774.323 317.297 773.184C317.433 773.809 317.736 774.326 318.252 774.706C318.498 774.969 318.736 775.284 318.968 775.648C319.008 775.407 318.852 775.116 318.663 774.814C318.837 774.937 318.999 775.11 319.113 775.444C319.245 775.829 319.243 776.155 319.199 776.575C319.179 776.769 319.146 776.953 319.098 777.118H319.57C320.067 775.596 319.751 773.336 318.734 772.379C318.422 772.085 318.198 772.095 317.831 772.095C317.413 772.095 317.198 772.114 316.838 772.455C316.309 772.956 315.982 773.822 315.847 775.024C315.819 775.625 315.801 776.661 316.094 777.141ZM319.623 767.206H322.542C322.566 767.206 322.586 767.227 322.586 767.254V768.487C322.586 768.513 322.566 768.534 322.542 768.534H319.623C319.599 768.534 319.579 768.513 319.579 768.487V767.254C319.579 767.227 319.599 767.206 319.623 767.206ZM319.623 764.509H322.542C322.566 764.509 322.586 764.53 322.586 764.556V765.789C322.586 765.816 322.566 765.837 322.542 765.837H319.623C319.599 765.837 319.579 765.816 319.579 765.789V764.556C319.579 764.53 319.599 764.509 319.623 764.509ZM303.57 767.206H306.489C306.513 767.206 306.533 767.227 306.533 767.254V768.487C306.533 768.513 306.513 768.534 306.489 768.534H303.57C303.546 768.534 303.526 768.513 303.526 768.487V767.254C303.526 767.227 303.546 767.206 303.57 767.206ZM303.57 764.509H306.489C306.513 764.509 306.533 764.53 306.533 764.556V765.789C306.533 765.816 306.513 765.837 306.489 765.837H303.57C303.546 765.837 303.526 765.816 303.526 765.789V764.556C303.526 764.53 303.546 764.509 303.57 764.509ZM314.945 764.795H316.504C316.528 764.795 316.548 764.824 316.548 764.858V767.086C316.548 767.12 316.528 767.149 316.504 767.149H314.945C314.921 767.149 314.901 767.12 314.901 767.086V764.858C314.901 764.824 314.921 764.795 314.945 764.795ZM312.267 764.795H313.825C313.849 764.795 313.869 764.824 313.869 764.858V767.086C313.869 767.12 313.849 767.149 313.825 767.149H312.267C312.243 767.149 312.223 767.12 312.223 767.086V764.858C312.223 764.824 312.243 764.795 312.267 764.795ZM309.588 764.795H311.147C311.171 764.795 311.191 764.824 311.191 764.858V767.086C311.191 767.12 311.171 767.149 311.147 767.149H309.588C309.564 767.149 309.544 767.12 309.544 767.086V764.858C309.544 764.824 309.564 764.795 309.588 764.795ZM314.945 760.473H316.504C316.528 760.473 316.548 760.502 316.548 760.536V762.764C316.548 762.798 316.528 762.827 316.504 762.827H314.945C314.921 762.827 314.901 762.798 314.901 762.764V760.536C314.901 760.499 314.921 760.473 314.945 760.473ZM312.267 760.473H313.825C313.849 760.473 313.869 760.502 313.869 760.536V762.764C313.869 762.798 313.849 762.827 313.825 762.827H312.267C312.243 762.827 312.223 762.798 312.223 762.764V760.536C312.223 760.499 312.243 760.473 312.267 760.473ZM309.588 760.473H311.147C311.171 760.473 311.191 760.502 311.191 760.536V762.764C311.191 762.798 311.171 762.827 311.147 762.827H309.588C309.564 762.827 309.544 762.798 309.544 762.764V760.536C309.544 760.499 309.564 760.473 309.588 760.473Z" fill="white"/>
<text fill="black" xml:space="preserve" style="white-space: pre" font-family="Harmattan" font-size="13" font-weight="bold" letter-spacing="0em"><tspan x="277.876" y="769.918">HR</tspan></text>
<path d="M312.388 538.717C320.043 538.18 325.813 531.534 325.275 523.872C324.738 516.211 318.097 510.435 310.442 510.972C302.787 511.509 297.018 518.155 297.555 525.817C298.092 533.478 304.733 539.253 312.388 538.717Z" fill="white"/>
<path d="M312.353 538.217C319.732 537.7 325.294 531.293 324.776 523.907C324.258 516.521 317.856 510.953 310.477 511.471C303.098 511.989 297.536 518.396 298.054 525.781C298.572 533.167 304.974 538.735 312.353 538.217Z" stroke="#707070" stroke-width="1.00045"/>
<path d="M311.353 537.231C308.911 537.231 306.525 536.507 304.495 535.15C302.465 533.794 300.882 531.866 299.948 529.61C299.014 527.354 298.769 524.872 299.245 522.478C299.722 520.083 300.897 517.883 302.624 516.157C304.939 513.842 308.079 512.541 311.353 512.541C314.628 512.541 317.768 513.842 320.083 516.157C322.398 518.472 323.699 521.612 323.699 524.886C323.699 528.161 322.398 531.301 320.083 533.616C318.939 534.766 317.578 535.677 316.08 536.298C314.581 536.918 312.975 537.235 311.353 537.231ZM310.997 517.541C309.22 517.543 307.499 518.159 306.125 519.284C304.75 520.409 303.807 521.975 303.454 523.716C303.101 525.457 303.361 527.266 304.188 528.838C305.016 530.41 306.362 531.647 307.997 532.341C309.236 532.863 310.59 533.051 311.924 532.888C313.259 532.725 314.528 532.215 315.604 531.41C316.681 530.605 317.528 529.532 318.062 528.298C318.596 527.064 318.798 525.712 318.648 524.376C318.584 523.815 318.459 523.263 318.275 522.729C318.184 522.467 318.079 522.211 317.961 521.961H317.118L316.584 522.495C316.686 522.704 316.777 522.917 316.856 523.136C317.017 523.582 317.126 524.044 317.181 524.515C317.209 524.757 317.224 525 317.224 525.244C317.222 526.681 316.723 528.072 315.813 529.184C314.902 530.295 313.636 531.058 312.228 531.342C310.82 531.627 309.356 531.417 308.086 530.747C306.815 530.077 305.814 528.989 305.254 527.666C304.854 526.719 304.695 525.687 304.791 524.664C304.887 523.64 305.234 522.656 305.802 521.799C306.371 520.943 307.142 520.24 308.048 519.754C308.954 519.268 309.966 519.013 310.994 519.013C311.237 519.013 311.481 519.028 311.723 519.056C312.193 519.111 312.656 519.22 313.102 519.381C313.32 519.46 313.534 519.551 313.743 519.654L314.277 519.119V518.274C314.026 518.155 313.77 518.051 313.508 517.96C312.975 517.775 312.423 517.65 311.862 517.587C311.575 517.556 311.286 517.54 310.997 517.541ZM310.997 520.622C310.083 520.622 309.189 520.893 308.429 521.401C307.669 521.909 307.076 522.631 306.726 523.476C306.377 524.321 306.285 525.25 306.464 526.147C306.642 527.043 307.083 527.867 307.73 528.513C308.376 529.159 309.2 529.599 310.097 529.777C310.994 529.955 311.923 529.863 312.768 529.513C313.612 529.163 314.334 528.57 314.841 527.81C315.349 527.049 315.619 526.155 315.619 525.241C315.619 525.108 315.613 524.975 315.602 524.841C315.591 524.707 315.574 524.581 315.552 524.454C315.53 524.327 315.506 524.215 315.471 524.079C315.436 523.943 315.401 523.833 315.36 523.715L314.13 524.944C314.13 524.967 314.13 524.989 314.136 525.012C314.142 525.035 314.136 525.04 314.136 525.052C314.136 525.064 314.136 525.077 314.136 525.089V525.132V525.162C314.136 525.174 314.136 525.187 314.136 525.199V525.241C314.135 525.76 314.006 526.271 313.761 526.729C313.515 527.187 313.16 527.576 312.727 527.863C312.294 528.15 311.797 528.326 311.28 528.374C310.763 528.423 310.241 528.343 309.763 528.141C309.008 527.82 308.407 527.219 308.086 526.464C307.884 525.985 307.804 525.464 307.852 524.947C307.901 524.43 308.076 523.933 308.364 523.5C308.651 523.067 309.04 522.712 309.498 522.466C309.955 522.22 310.466 522.091 310.986 522.091H311.133H311.169H311.206L311.278 522.097L312.507 520.867C312.394 520.827 312.271 520.789 312.143 520.756C312.015 520.723 311.884 520.695 311.767 520.675C311.65 520.655 311.511 520.636 311.381 520.625C311.251 520.614 311.129 520.62 310.997 520.62V520.622ZM310.997 523.703C310.791 523.702 310.587 523.743 310.397 523.824C310.164 523.922 309.959 524.076 309.799 524.272C309.64 524.468 309.531 524.7 309.483 524.948C309.434 525.196 309.448 525.452 309.521 525.694C309.595 525.936 309.727 526.156 309.906 526.334C310.085 526.513 310.305 526.645 310.546 526.718C310.788 526.792 311.044 526.805 311.292 526.756C311.54 526.707 311.772 526.598 311.968 526.439C312.164 526.279 312.318 526.074 312.416 525.841C312.496 525.651 312.537 525.447 312.537 525.241C312.537 525.196 312.537 525.151 312.531 525.109C312.525 525.067 312.522 525.024 312.514 524.98C312.506 524.936 312.497 524.89 312.487 524.855C312.477 524.82 312.462 524.769 312.45 524.734L316.565 520.619H317.765L320.445 517.939H318.298V515.797L315.618 518.477V519.677L311.508 523.788C311.464 523.772 311.424 523.76 311.387 523.751C311.35 523.742 311.313 523.733 311.262 523.724C311.211 523.715 311.177 523.711 311.133 523.707C311.089 523.703 311.041 523.703 310.997 523.703Z" fill="#00AEEF"/>
<path d="M312.432 686.596C320.052 686.596 326.23 680.418 326.23 672.798C326.23 665.178 320.052 659 312.432 659C304.811 659 298.634 665.178 298.634 672.798C298.634 680.418 304.811 686.596 312.432 686.596Z" fill="#00AEEF"/>
<path d="M323.325 672.798C323.325 670.643 322.687 668.536 321.489 666.744C320.292 664.952 318.59 663.556 316.599 662.732C314.607 661.907 312.416 661.692 310.303 662.113C308.189 662.535 306.248 663.573 304.725 665.098C302.682 667.142 301.535 669.914 301.535 672.804C301.536 675.694 302.685 678.466 304.729 680.509C306.773 682.552 309.544 683.699 312.434 683.699C315.325 683.698 318.096 682.549 320.139 680.505C321.153 679.495 321.957 678.294 322.504 676.971C323.051 675.648 323.33 674.23 323.325 672.798ZM321.619 676.522C320.721 675.715 319.657 675.113 318.502 674.759C318.568 674.107 318.602 673.453 318.602 672.797C318.602 672.142 318.568 671.487 318.502 670.835C319.657 670.482 320.721 669.88 321.619 669.073C322.588 671.462 322.588 674.134 321.619 676.522ZM307.239 672.798C307.239 672.228 307.265 671.665 307.315 671.114C308.831 671.471 310.382 671.657 311.939 671.668V673.929C310.382 673.94 308.831 674.126 307.315 674.483C307.268 673.931 307.239 673.368 307.239 672.798ZM311.939 682.667C311.252 682.466 310.618 682.115 310.082 681.64C309.546 681.165 309.122 680.578 308.839 679.92L308.793 679.834C309.714 679.154 310.8 678.733 311.939 678.616V682.667ZM312.918 678.617C314.055 678.735 315.14 679.155 316.06 679.834L316.014 679.921C315.731 680.579 315.307 681.166 314.771 681.641C314.235 682.116 313.601 682.467 312.914 682.668V678.618L312.918 678.617ZM312.918 662.93C313.605 663.132 314.239 663.483 314.775 663.958C315.311 664.432 315.735 665.02 316.018 665.677L316.064 665.763C315.144 666.443 314.059 666.863 312.922 666.98V662.929L312.918 662.93ZM311.939 666.979C310.803 666.861 309.719 666.441 308.8 665.762L308.846 665.676C309.129 665.019 309.553 664.431 310.089 663.957C310.625 663.482 311.259 663.131 311.946 662.929L311.939 666.979ZM312.918 667.961C314.202 667.852 315.433 667.404 316.486 666.661C316.942 667.773 317.257 668.937 317.425 670.127C315.95 670.492 314.438 670.68 312.919 670.689V667.961H312.918ZM316.839 665.141C316.495 664.507 316.071 663.921 315.576 663.396C316.294 663.637 316.981 663.96 317.625 664.358C317.377 664.633 317.115 664.894 316.839 665.141ZM308.022 665.141C307.747 664.894 307.486 664.633 307.239 664.358C307.883 663.961 308.57 663.638 309.287 663.397C308.792 663.922 308.367 664.508 308.023 665.141H308.022ZM311.939 667.961V670.688C310.422 670.679 308.912 670.49 307.439 670.126C307.607 668.936 307.922 667.772 308.378 666.66C309.429 667.402 310.658 667.851 311.939 667.961ZM311.939 674.905V677.631C310.655 677.74 309.424 678.189 308.371 678.931C307.918 677.821 307.605 676.658 307.439 675.47C308.912 675.105 310.422 674.916 311.939 674.905ZM308.023 680.454C308.367 681.088 308.791 681.675 309.285 682.2C308.568 681.959 307.882 681.636 307.239 681.238C307.486 680.963 307.748 680.702 308.023 680.454ZM316.84 680.454C317.116 680.702 317.379 680.963 317.627 681.238C316.983 681.636 316.296 681.959 315.578 682.2C316.072 681.675 316.497 681.088 316.84 680.454ZM312.921 677.634V674.905C314.44 674.914 315.952 675.103 317.427 675.467C317.259 676.657 316.944 677.821 316.488 678.933C315.435 678.192 314.204 677.743 312.921 677.634ZM312.921 673.928V671.668C314.478 671.657 316.029 671.471 317.545 671.114C317.595 671.665 317.621 672.228 317.621 672.798C317.621 673.368 317.595 673.931 317.545 674.482C316.029 674.125 314.478 673.939 312.921 673.928ZM321.176 668.128L321.166 668.137C320.384 668.919 319.427 669.502 318.373 669.837C318.178 668.533 317.815 667.26 317.291 666.049C317.7 665.7 318.084 665.321 318.439 664.917C319.57 665.781 320.503 666.877 321.176 668.131V668.128ZM306.425 664.917C306.78 665.321 307.164 665.699 307.573 666.048C307.049 667.259 306.685 668.532 306.49 669.836C305.436 669.501 304.479 668.918 303.697 668.136L303.687 668.127C304.361 666.874 305.294 665.78 306.425 664.917ZM303.245 669.073C304.143 669.881 305.207 670.482 306.362 670.836C306.231 672.141 306.231 673.456 306.362 674.76C305.207 675.114 304.144 675.715 303.245 676.522C302.276 674.134 302.276 671.462 303.245 669.073ZM303.687 677.464L303.697 677.454C304.479 676.673 305.437 676.09 306.49 675.754C306.685 677.059 307.048 678.332 307.572 679.542C307.163 679.892 306.779 680.27 306.424 680.673C305.294 679.811 304.361 678.717 303.687 677.465V677.464ZM318.439 680.678C318.083 680.275 317.699 679.897 317.29 679.547C317.814 678.337 318.177 677.064 318.372 675.759C319.426 676.095 320.383 676.677 321.165 677.459L321.175 677.469C320.502 678.722 319.569 679.816 318.439 680.678Z" fill="white"/>
<path d="M311.803 699.442C312.846 699.442 313.691 698.597 313.691 697.554C313.691 696.511 312.846 695.666 311.803 695.666C310.76 695.666 309.915 696.511 309.915 697.554C309.915 698.597 310.76 699.442 311.803 699.442Z" fill="#231F20"/>
<path d="M312.123 715.642C313.166 715.642 314.011 714.797 314.011 713.754C314.011 712.711 313.166 711.866 312.123 711.866C311.081 711.866 310.235 712.711 310.235 713.754C310.235 714.797 311.081 715.642 312.123 715.642Z" fill="#231F20"/>
<path d="M311.803 728.776C312.846 728.776 313.691 727.931 313.691 726.888C313.691 725.845 312.846 725 311.803 725C310.76 725 309.915 725.845 309.915 726.888C309.915 727.931 310.76 728.776 311.803 728.776Z" fill="#231F20"/>
<path d="M300.32 718.096C303.082 718.096 305.32 715.857 305.32 713.096C305.32 710.334 303.082 708.096 300.32 708.096C297.559 708.096 295.32 710.334 295.32 713.096C295.32 715.857 297.559 718.096 300.32 718.096Z" fill="#00AEEF"/>
<path d="M300 732C302.761 732 305 729.761 305 727C305 724.239 302.761 722 300 722C297.239 722 295 724.239 295 727C295 729.761 297.239 732 300 732Z" fill="#00AEEF"/>
<path fill-rule="evenodd" clip-rule="evenodd" d="M298.722 710.096C298.928 710.094 299.133 710.118 299.332 710.168C299.505 710.209 299.667 710.289 299.805 710.401C299.941 710.517 300.046 710.664 300.111 710.831C300.188 711.043 300.225 711.268 300.218 711.494C300.227 711.741 300.171 711.986 300.057 712.206C299.943 712.402 299.778 712.563 299.58 712.673C299.853 712.761 300.083 712.949 300.224 713.199C300.373 713.478 300.445 713.79 300.435 714.106C300.441 714.36 300.395 714.612 300.299 714.847C300.216 715.043 300.09 715.218 299.929 715.358C299.774 715.49 299.593 715.59 299.397 715.65C299.199 715.714 298.993 715.748 298.785 715.75H296.515V710.101H298.722V710.096ZM301.481 710.552H303.381V711.11H301.481V710.552ZM301.903 714.763C301.978 714.846 302.071 714.912 302.175 714.955C302.279 714.998 302.391 715.016 302.503 715.01C302.681 715.014 302.853 714.952 302.989 714.838C303.108 714.746 303.195 714.62 303.237 714.476H304.057C303.977 714.883 303.767 715.254 303.457 715.531C303.176 715.747 302.83 715.859 302.476 715.85C302.227 715.853 301.98 715.8 301.754 715.695C301.54 715.592 301.353 715.442 301.207 715.255C301.052 715.05 300.935 714.819 300.862 714.573C300.779 714.29 300.738 713.996 300.74 713.701C300.738 713.411 300.78 713.122 300.865 712.845C300.94 712.596 301.06 712.364 301.22 712.16C301.369 711.971 301.557 711.815 301.77 711.704C301.989 711.591 302.232 711.534 302.478 711.537C302.743 711.53 303.005 711.599 303.231 711.737C303.447 711.874 303.629 712.059 303.76 712.279C303.904 712.518 304.005 712.781 304.06 713.055C304.121 713.354 304.143 713.661 304.125 713.966H301.672C301.66 714.248 301.74 714.526 301.902 714.757L301.903 714.763ZM302.972 712.615C302.908 712.538 302.828 712.478 302.736 712.438C302.645 712.398 302.546 712.381 302.446 712.387C302.317 712.382 302.188 712.413 302.076 712.478C301.983 712.536 301.902 712.613 301.84 712.704C301.782 712.792 301.74 712.889 301.716 712.992C301.694 713.08 301.68 713.17 301.673 713.261H303.187C303.178 713.029 303.104 712.806 302.972 712.615ZM298.588 712.379C298.754 712.385 298.915 712.329 299.041 712.221C299.105 712.153 299.154 712.072 299.185 711.983C299.215 711.895 299.226 711.801 299.216 711.708C299.22 711.597 299.2 711.486 299.158 711.383C299.124 711.303 299.069 711.234 298.999 711.183C298.932 711.133 298.854 711.099 298.772 711.083C298.685 711.064 298.597 711.054 298.508 711.055H297.544V712.375H298.588V712.379ZM298.644 714.779C298.741 714.78 298.838 714.768 298.932 714.743C299.021 714.721 299.103 714.68 299.174 714.623C299.248 714.563 299.306 714.485 299.342 714.397C299.387 714.28 299.408 714.156 299.403 714.031C299.414 713.919 299.402 713.805 299.368 713.698C299.334 713.591 299.277 713.492 299.203 713.407C299.054 713.278 298.862 713.212 298.665 713.222H297.544V714.779H298.644Z" fill="white"/>
<path d="M300 702.854C302.761 702.854 305 700.615 305 697.854C305 695.092 302.761 692.854 300 692.854C297.239 692.854 295 695.092 295 697.854C295 700.615 297.239 702.854 300 702.854Z" fill="#00AEEF"/>
<path d="M299.964 693.994C298.94 694.029 297.972 694.468 297.272 695.215C296.571 695.962 296.195 696.956 296.227 697.98C296.213 698.797 296.45 699.598 296.908 700.274C297.365 700.951 298.02 701.47 298.783 701.761C298.804 701.766 298.825 701.768 298.846 701.768C298.872 701.769 298.898 701.765 298.923 701.755C298.947 701.745 298.969 701.73 298.987 701.711C299.005 701.693 299.019 701.67 299.028 701.645C299.037 701.621 299.04 701.594 299.038 701.568C299.038 701.468 299.038 701.223 299.033 700.889C298.91 700.919 298.783 700.935 298.656 700.936C298.466 700.949 298.276 700.899 298.117 700.794C297.957 700.689 297.836 700.535 297.773 700.355C297.708 700.118 297.561 699.912 297.358 699.772C297.033 699.534 297.358 699.527 297.381 699.527C297.501 699.548 297.615 699.596 297.714 699.668C297.813 699.74 297.895 699.833 297.953 699.94C298.01 700.069 298.102 700.178 298.219 700.255C298.337 700.333 298.474 700.375 298.614 700.376C298.762 700.374 298.908 700.34 299.041 700.276C299.057 700.077 299.14 699.888 299.278 699.743C299.031 699.743 298.787 699.69 298.562 699.588C298.337 699.485 298.138 699.335 297.976 699.148C297.815 698.961 297.696 698.741 297.627 698.504C297.558 698.267 297.542 698.017 297.578 697.773C297.571 697.382 297.708 697.002 297.962 696.704C297.848 696.359 297.861 695.985 297.999 695.649C298.026 695.642 298.054 695.639 298.082 695.64C298.432 695.681 298.761 695.826 299.026 696.058C299.637 695.88 300.287 695.88 300.898 696.058C301.163 695.826 301.492 695.681 301.842 695.64C301.87 695.639 301.898 695.642 301.925 695.649C302.063 695.985 302.076 696.359 301.962 696.704C302.216 697.002 302.353 697.382 302.346 697.773C302.382 698.018 302.366 698.268 302.296 698.505C302.227 698.743 302.107 698.962 301.945 699.149C301.783 699.336 301.582 699.486 301.357 699.587C301.131 699.689 300.886 699.741 300.639 699.739C300.729 699.838 300.798 699.955 300.842 700.082C300.886 700.209 300.903 700.343 300.893 700.477C300.893 701.01 300.888 701.44 300.888 701.57C300.886 701.596 300.889 701.622 300.898 701.647C300.906 701.672 300.92 701.694 300.938 701.713C300.956 701.732 300.978 701.747 301.002 701.757C301.026 701.766 301.052 701.771 301.078 701.77C301.1 701.77 301.123 701.768 301.145 701.763C301.908 701.472 302.563 700.953 303.02 700.277C303.478 699.6 303.715 698.799 303.701 697.982C303.733 696.958 303.358 695.963 302.657 695.215C301.956 694.468 300.988 694.029 299.964 693.994Z" fill="white"/>
<text fill="black" xml:space="preserve" style="white-space: pre" font-family="Harmattan" font-size="13" font-weight="bold" letter-spacing="0em"><tspan x="248" y="675.816">Websites</tspan></text>
<text fill="black" xml:space="preserve" style="white-space: pre" font-family="Harmattan" font-size="20" font-weight="bold" letter-spacing="0em"><tspan x="98" y="529.116">Vision and next step</tspan></text>
<text fill="#00FF6A" stroke="#FF0000" stroke-width="0.3" xml:space="preserve" style="white-space: pre" font-family="Arial" font-size="6" letter-spacing="0.09em"><tspan x="17.8002" y="553.08">I strive to master computer skills and modern technology through continuous learning and in-depth </tspan><tspan x="17.937" y="565.08">exploration of the latest developments in this field. My passion for computers constantly drives me </tspan><tspan x="20.0234" y="577.08">to develop my skills, keep up with the latest technologies, and analyze technical problems to find </tspan><tspan x="16.4966" y="589.08">innovative solutions. I believe that learning never stops, and I strive to be constantly evolving, able </tspan><tspan x="23.2285" y="601.08">to adapt to the rapid changes in the world of technology, and contributing to enriching this field </tspan><tspan x="125.961" y="613.08">with knowledge and creativity.&#13;&#10;</tspan><tspan x="24.118" y="625.08">The next step in my career, God willing, is to complete my postgraduate studies by obtaining a </tspan><tspan x="28.7035" y="637.08">master&#39;s degree, followed by a doctorate. This will enable me to delve deeper into scientific </tspan><tspan x="31.8602" y="649.08">research, provide innovative technical solutions, and contribute to the development of the </tspan><tspan x="121.471" y="661.08">academic and professional fields.</tspan></text>
<text fill="#FF0040" xml:space="preserve" style="white-space: pre" font-family="Harmattan" font-size="7" font-weight="500" letter-spacing="0em"><tspan x="164.508" y="698.441">https://github.com/mostafa0said0abdelwahab</tspan></text>
<text fill="#FF0040" xml:space="preserve" style="white-space: pre" font-family="Harmattan" font-size="7" font-weight="500" letter-spacing="0em"><tspan x="160.508" y="728.441">https://mostafa0said0abdelwahab.github.io/cv/</tspan></text>
<text fill="#FF0040" xml:space="preserve" style="white-space: pre" font-family="Harmattan" font-size="7" font-weight="500" letter-spacing="0em"><tspan x="244" y="715.441">mostafasaid13</tspan></text>
<path d="M89.638 103.471H22V108.725H89.638V103.471Z" fill="#949598"/>
<path d="M82.062 103.471H23V108.725H82.062V103.471Z" fill="#00AEEF"/>
<path d="M80.151 102C81.1405 102 82.0895 102.393 82.7892 103.093C83.4889 103.792 83.882 104.741 83.882 105.731V106.466C83.8824 106.956 83.7862 107.442 83.5989 107.895C83.4115 108.348 83.1368 108.759 82.7903 109.106C82.4438 109.453 82.0324 109.728 81.5795 109.916C81.1266 110.103 80.6412 110.2 80.151 110.2C79.7588 110.2 79.3704 110.123 79.008 109.972C78.6457 109.822 78.3165 109.602 78.0392 109.325C77.762 109.047 77.5422 108.718 77.3924 108.355C77.2425 107.993 77.1656 107.604 77.166 107.212V104.985C77.166 104.193 77.4805 103.434 78.0403 102.874C78.6001 102.314 79.3593 102 80.151 102Z" fill="black"/>
<path d="M89.638 294.471H22V299.725H89.638V294.471Z" fill="#949598"/>
<path d="M82.062 294.471H23V299.725H82.062V294.471Z" fill="#00AEEF"/>
<path d="M80.151 293C81.1405 293 82.0895 293.393 82.7892 294.093C83.4889 294.792 83.882 295.741 83.882 296.731V297.466C83.8824 297.956 83.7862 298.442 83.5989 298.895C83.4115 299.348 83.1368 299.759 82.7903 300.106C82.4438 300.453 82.0324 300.728 81.5795 300.916C81.1266 301.103 80.6412 301.2 80.151 301.2C79.7588 301.2 79.3704 301.123 79.008 300.972C78.6457 300.822 78.3165 300.602 78.0392 300.325C77.762 300.047 77.5422 299.718 77.3924 299.355C77.2425 298.993 77.1656 298.604 77.166 298.212V295.985C77.166 295.193 77.4805 294.434 78.0403 293.874C78.6001 293.314 79.3593 293 80.151 293Z" fill="black"/>
<text fill="black" xml:space="preserve" style="white-space: pre" font-family="Harmattan" font-size="9" font-weight="500" letter-spacing="0em"><tspan x="132.508" y="124.352">SECOND EDITION OP NOTCH </tspan></text>
<text fill="black" xml:space="preserve" style="white-space: pre" font-family="Harmattan" font-size="9" font-weight="500" letter-spacing="0em"><tspan x="141.508" y="318.352">flutter and dart cookbook</tspan></text>
<path d="M256.029 4.78711H90V32.3771H256.029V4.78711Z" fill="#00AEEF"/>
<text fill="white" xml:space="preserve" style="white-space: pre" font-family="Harmattan" font-size="20" font-weight="bold" letter-spacing="0em"><tspan x="150" y="22.1162">Hobbies</tspan></text>
<text fill="white" xml:space="preserve" style="white-space: pre" font-family="Bahij TheSansArabic" font-size="7" font-weight="500" letter-spacing="0em"><tspan x="297" y="728.525">cv</tspan></text>
<text fill="#004F6D" xml:space="preserve" style="white-space: pre" font-family="Arial" font-size="9" letter-spacing="0em"><tspan x="71.7563" y="54.1201">Translate books using artificial intelligence and Google </tspan><tspan x="79.2886" y="64.1201">Translate services, especially scanned educational </tspan><tspan x="167.241" y="74.1201">books.</tspan></text>
<text fill="#FF0000" xml:space="preserve" style="white-space: pre" font-family="Arial" font-size="11" letter-spacing="0em"><tspan x="77.3882" y="93.3135">Some books have already been translated</tspan></text>
<text fill="#FF0000" xml:space="preserve" style="white-space: pre" font-family="Arial" font-size="11" letter-spacing="0em"><tspan x="134.612" y="112.313">such as the book &#x2193;</tspan></text>
<text fill="#5500FF" xml:space="preserve" style="white-space: pre" font-family="Harmattan" font-size="9" letter-spacing="0em"><tspan x="54.7554" y="141.352">This book was for teaching English and was of poor quality. 20 It is en and not </tspan><tspan x="44.2085" y="156.352">Arabic. What was required was its Arabic translation, but it is an English educational </tspan><tspan x="47.7593" y="171.352">book. The original pages are important. The user of the book must know what is on </tspan><tspan x="46.854" y="186.352">the main page and its meaning in the original pages in English. I corrected the book </tspan><tspan x="51.3408" y="201.352">again so that there is a page on the right in English that corresponds to it on the </tspan><tspan x="50.5542" y="216.352">same page, translated and separate from it. That is, the pages are not combined. </tspan><tspan x="46.7397" y="231.352">That is, the traditional methods were not used in order to be able to print correctly </tspan><tspan x="133.633" y="246.352">with the correct numbering.</tspan></text>
<text fill="#5500FF" xml:space="preserve" style="white-space: pre" font-family="Harmattan" font-size="8" letter-spacing="0.05em"><tspan x="43.5258" y="336.646">I translated this book manually because Google Translate was translating the codes </tspan><tspan x="52.5523" y="350.646">and changing their colors, which is not required, so I decomposed the file and </tspan><tspan x="44.8117" y="364.646">translated it manually using the AI &#x200b;&#x200b;tool built into one of the translation programs. </tspan><tspan x="45.8586" y="378.646">Now the translation problem has been solved. The rest of the problem of the large </tspan><tspan x="47.393" y="392.646">number of pages, I used programming scripts from one of the programs and some </tspan><tspan x="47.168" y="406.646">other tools such as Adobe Acrobat, PDF X, 7 PDF and others, even to print a very </tspan><tspan x="51.4078" y="420.646">small booklet of 8 pages per page on both sides, as the book was printed on 25 </tspan><tspan x="49.5" y="434.646">sheets printed in duplex (on both sides). It was cut, assembled and given to the </tspan><tspan x="47.7141" y="448.646">printer. It was skinned and became a very small book, but also professional. This </tspan><tspan x="42.3227" y="462.646">was also useful in public transportation for reading and easy to carry as well. It is a </tspan><tspan x="57.1813" y="476.646">good way to learn and get away from distractions. There are many of these </tspan><tspan x="134.073" y="490.646">examples of printing skills.</tspan></text>
<text fill="#FF0000" xml:space="preserve" style="white-space: pre" font-family="Arial" font-size="11" letter-spacing="0em"><tspan x="77.3882" y="287.313">Some books have already been translated</tspan></text>
<text fill="#FF0000" xml:space="preserve" style="white-space: pre" font-family="Arial" font-size="11" letter-spacing="0em"><tspan x="134.612" y="306.313">such as the book &#x2193;</tspan></text>
</svg>
