<svg width="809" height="480" viewBox="0 0 809 480" fill="none" xmlns="http://www.w3.org/2000/svg">
<rect width="809" height="480" fill="#F5F5F5"/>
<path fill-rule="evenodd" clip-rule="evenodd" d="M745.4 32.1254C745.4 32.4321 745.272 32.7262 745.043 32.943C744.815 33.1599 744.505 33.2817 744.181 33.2817V34.7032C745.667 34.9903 747.024 35.7053 748.066 36.7508H750.276C750.599 36.7508 750.91 36.8726 751.138 37.0894C751.367 37.3063 751.495 37.6004 751.495 37.9071C751.495 38.2138 751.367 38.5079 751.138 38.7248C750.91 38.9416 750.599 39.0634 750.276 39.0634H733.212C732.889 39.0634 732.579 38.9416 732.35 38.7248C732.121 38.5079 731.993 38.2138 731.993 37.9071C731.993 37.6004 732.121 37.3063 732.35 37.0894C732.579 36.8726 732.889 36.7508 733.212 36.7508H735.42C736.462 35.7053 737.819 34.9903 739.305 34.7032V33.2817C738.982 33.2817 738.672 33.1599 738.443 32.943C738.215 32.7262 738.086 32.4321 738.086 32.1254C738.086 31.8187 738.215 31.5246 738.443 31.3077C738.672 31.0909 738.982 30.969 739.305 30.969V29.3724C738.241 28.9582 737.303 28.2989 736.575 27.4543C736.471 27.4836 736.363 27.4995 736.254 27.5015C732.863 27.5015 729.55 23.2189 729.55 20.0211C729.55 17.1066 730.931 16.2611 732.743 16.0264C732.89 15.9683 733.048 15.9383 733.207 15.9381H750.276C750.436 15.9383 750.593 15.9683 750.74 16.0264C752.554 16.2611 753.933 17.1066 753.933 20.0211C753.933 23.2205 750.618 27.5015 747.229 27.5015C747.121 27.4995 747.013 27.4836 746.908 27.4543C746.18 28.2989 745.242 28.9582 744.178 29.3724V30.969C744.338 30.9686 744.497 30.9982 744.645 31.0562C744.794 31.1141 744.928 31.1992 745.042 31.3066C745.156 31.4141 745.246 31.5417 745.307 31.6822C745.369 31.8227 745.4 31.9733 745.4 32.1254ZM741.743 9C738.285 9.00086 734.888 9.87421 731.903 11.5305C728.917 13.1868 726.45 15.5664 724.753 18.4255C723.057 21.2846 722.192 24.5202 722.249 27.8006C722.305 31.081 723.28 34.2883 725.073 37.0935C726.867 39.8988 729.414 42.2011 732.455 43.7645C735.496 45.3279 738.92 46.0961 742.377 45.9904C745.834 45.8846 749.199 44.9088 752.127 43.1628C755.055 41.4168 757.441 38.9636 759.04 36.0545C760.513 33.421 761.271 30.481 761.245 27.5C761.245 22.5935 759.191 17.8879 755.533 14.4185C751.876 10.9491 746.916 9 741.743 9Z" fill="#00AEEF" stroke="#707070"/>
<path fill-rule="evenodd" clip-rule="evenodd" d="M730.846 19.4143C730.846 18.0087 730.846 17.6188 732.331 17.5268C732.499 19.9171 733.039 22.2695 733.936 24.5047C733.08 23.9109 732.362 23.1511 731.83 22.2743C731.298 21.3976 730.962 20.4233 730.846 19.4143ZM750.159 17.5268C751.64 17.6188 751.645 18.0087 751.645 19.4143C751.528 20.4236 751.192 21.398 750.659 22.2748C750.126 23.1516 749.408 23.9112 748.551 24.5047C749.448 22.2695 749.988 19.9171 750.155 17.5268H750.159ZM746.749 27.4498C746.862 27.4816 746.979 27.4985 747.097 27.5C750.711 27.5 754.246 22.8698 754.246 19.4143C754.246 16.2634 752.774 15.3497 750.841 15.0954C750.683 15.0322 750.514 14.9998 750.343 15H732.145C731.976 15.0003 731.808 15.0327 731.651 15.0954C729.718 15.3497 728.246 16.2667 728.246 19.4143C728.246 22.8698 731.78 27.5 735.396 27.5C735.513 27.4985 735.63 27.4816 735.744 27.4498C736.517 28.3616 737.515 29.0741 738.646 29.5231V31.25C738.301 31.25 737.97 31.3817 737.727 31.6161C737.483 31.8505 737.346 32.1685 737.346 32.5C737.346 32.8315 737.483 33.1495 737.727 33.3839C737.97 33.6183 738.301 33.75 738.646 33.75V35.2861C737.063 35.5978 735.619 36.3708 734.51 37.5H732.145C731.801 37.5 731.47 37.6317 731.226 37.8661C730.983 38.1005 730.846 38.4185 730.846 38.75C730.846 39.0815 730.983 39.3995 731.226 39.6339C731.47 39.8683 731.801 40 732.145 40H750.343C750.688 40 751.019 39.8683 751.262 39.6339C751.506 39.3995 751.643 39.0815 751.643 38.75C751.643 38.4185 751.506 38.1005 751.262 37.8661C751.019 37.6317 750.688 37.5 750.343 37.5H747.986C746.875 36.3696 745.428 35.5965 743.843 35.2861V33.75C744.188 33.75 744.518 33.6183 744.762 33.3839C745.006 33.1495 745.143 32.8315 745.143 32.5C745.143 32.1685 745.006 31.8505 744.762 31.6161C744.518 31.3817 744.188 31.25 743.843 31.25V29.5231C744.974 29.0741 745.972 28.3616 746.745 27.4498H746.749Z" fill="white"/>
<path d="M677.783 12.5605H511.754V40.1505H677.783V12.5605Z" fill="#00AEEF"/>
<text fill="white" xml:space="preserve" style="white-space: pre" font-family="Harmattan" font-size="20" font-weight="bold" letter-spacing="0em"><tspan x="537.262" y="30.1162">&#x627;&#x644;&#x625;&#x646;&#x62c;&#x627;&#x632;&#x627;&#x62a; &#x627;&#x644;&#x62c;&#x627;&#x645;&#x639;&#x64a;&#x629;</tspan></text>
<path d="M630.79 60H566.718C562.872 60 559.754 65.3701 559.754 71.9945V73.0055C559.754 79.6299 562.872 85 566.718 85H630.79C634.636 85 637.754 79.6299 637.754 73.0055V71.9945C637.754 65.3701 634.636 60 630.79 60Z" fill="#A6DBEC"/>
<path d="M630.698 208H575.754C571.888 208 568.754 211.134 568.754 215V219.59C568.754 223.456 571.888 226.59 575.754 226.59H630.698C634.564 226.59 637.698 223.456 637.698 219.59V215C637.698 211.134 634.564 208 630.698 208Z" fill="black"/>
<text fill="black" xml:space="preserve" style="white-space: pre" font-family="Harmattan" font-size="14" font-weight="bold" letter-spacing="0em"><tspan x="568.262" y="72.8813">&#x645;&#x634;&#x631;&#x648;&#x639; &#x627;&#x644;&#x62a;&#x62e;&#x631;&#x62c;</tspan></text>
<text fill="black" xml:space="preserve" style="white-space: pre" font-family="Harmattan" font-size="10" font-weight="500" letter-spacing="0em"><tspan x="560.44" y="113.058">&#x62a;&#x645; &#x627;&#x62e;&#x62a;&#x64a;&#x627;&#x631; &#x645;&#x634;&#x631;&#x648;&#x639;&#x64a; &#x627;&#x644;&#x628;&#x631;&#x645;&#x62c;&#x640;&#x64a; &#x2028;</tspan><tspan x="604" y="121.058">&#x2028;</tspan><tspan x="604" y="129.058">&#10;</tspan></text>
<text fill="black" xml:space="preserve" style="white-space: pre" font-family="Harmattan" font-size="10" font-weight="500" letter-spacing="0em"><tspan x="536.798" y="138.058">&#x645;&#x646; &#x627;&#x641;&#x636;&#x644; &#x639;&#x634;&#x631; &#x645;&#x634;&#x627;&#x631;&#x64a;&#x639; &#x639;&#x644;&#x64a; &#x645;&#x633;&#x62a;&#x648;&#x64a; &#x627;&#x644;&#x62b;&#x644;&#x627;&#x62b;&#x2028;</tspan><tspan x="604" y="147.058">&#x2028;</tspan></text>
<text fill="black" xml:space="preserve" style="white-space: pre" font-family="Harmattan" font-size="10" font-weight="500" letter-spacing="0em"><tspan x="604" y="156.058">&#x2028;</tspan><tspan x="525.816" y="165.058">&#x643;&#x644;&#x64a;&#x627;&#x62a; &#x648;&#x645;&#x646;&#x627;&#x642;&#x634;&#x62a;&#x629; &#x641;&#x64a; &#x627;&#x644;&#x645;&#x624;&#x62a;&#x645;&#x631; &#x627;&#x644;&#x623;&#x648;&#x644; &#x644;&#x644;&#x62d;&#x627;&#x633;&#x628; &#x627;&#x644;&#x627;&#x644;&#x64a;&#x2028;</tspan><tspan x="604" y="172.058">&#x2028;</tspan><tspan x="604" y="179.058">&#x2028;</tspan><tspan x="571.573" y="186.058">&#x641;&#x64a; &#x62c;&#x627;&#x645;&#x639;&#x629; &#x627;&#x644;&#x645;&#x646;&#x635;&#x648;&#x631;&#x629; </tspan></text>
<path d="M624.508 314H587.26C581.806 314 577.384 317.203 577.384 321.154V325.846C577.384 329.797 581.806 333 587.26 333H624.508C629.962 333 634.384 329.797 634.384 325.846V321.154C634.384 317.203 629.962 314 624.508 314Z" fill="black"/>
<text fill="white" xml:space="preserve" style="white-space: pre" font-family="Harmattan" font-size="13" font-weight="bold" letter-spacing="0em"><tspan x="586.262" y="324.676">&#x641;&#x64a; &#x62d;&#x636;&#x648;&#x631;</tspan></text>
<text fill="#5E5E5E" xml:space="preserve" style="white-space: pre" font-family="Harmattan" font-size="10" font-weight="500" letter-spacing="0em"><tspan x="545.777" y="352.558">&#x645;&#x631;&#x643;&#x632; &#x627;&#x644;&#x62a;&#x637;&#x648;&#x64a;&#x631; &#x627;&#x644;&#x645;&#x647;&#x646;&#x64a; &#x62c;&#x627;&#x645;&#x639;&#x629; &#x627;&#x644;&#x645;&#x646;&#x635;&#x648;&#x631;&#x629; &#x2028;</tspan><tspan x="569.635" y="369.558">&#x631;&#x626;&#x6cc;&#x633; &#x62c;&#x627;&#x645;&#x639;&#x629; &#x627;&#x644;&#x645;&#x646;&#x635;&#x648;&#x631;&#x629; &#x2028;</tspan><tspan x="565.401" y="386.558">&#x634;&#x631;&#x643;&#x629; &#x62a;&#x643;&#x646;&#x648; &#x645;&#x635;&#x631; &#x644;&#x628;&#x631;&#x645;&#x62c;&#x647; &#x2028;</tspan><tspan x="592.477" y="403.558">x clan &#x2028;</tspan><tspan x="592.789" y="420.558">&#x641;&#x643;&#x631;&#x62a;&#x643;</tspan></text>
<text fill="#5E5E5E" xml:space="preserve" style="white-space: pre" font-family="Harmattan" font-size="5" font-weight="500" letter-spacing="0em"><tspan x="582.217" y="239.529">&#x631;&#x626;&#x64a;&#x633; &#x642;&#x633;&#x645; &#x627;&#x644;&#x62d;&#x627;&#x633;&#x628; &#x627;&#x644;&#x627;&#x644;&#x64a; &#x2028;</tspan><tspan x="583.73" y="248.529">&#x623;.&#x62f; // &#x623;&#x62d;&#x645;&#x62f; &#x627;&#x644;&#x633;&#x64a;&#x62f; &#x623;&#x645;&#x64a;&#x646; &#x2028;</tspan><tspan x="580.813" y="257.529">&#x648; &#x639;&#x645;&#x64a;&#x62f; &#x643;&#x644;&#x64a;&#x629; &#x627;&#x644;&#x62a;&#x631;&#x628;&#x64a;&#x629; &#x627;&#x644;&#x646;&#x648;&#x639;&#x64a;&#x629; &#x2028;</tspan><tspan x="584.807" y="266.529">&#x62f; &#x645;&#x62d;&#x649; &#x627;&#x644;&#x62f;&#x64a;&#x646; &#x625;&#x633;&#x645;&#x627;&#x639;&#x64a;&#x644; &#x2028;</tspan><tspan x="564.443" y="275.529">&#x648;&#x648;&#x643;&#x64a;&#x644; &#x627;&#x644;&#x643;&#x644;&#x64a;&#x647; &#x644;&#x634;&#x626;&#x648;&#x646; &#x627;&#x644;&#x62f;&#x631;&#x627;&#x633;&#x627;&#x62a; &#x627;&#x644;&#x639;&#x644;&#x64a;&#x627; &#x648;&#x627;&#x644;&#x628;&#x62d;&#x648;&#x62b; &#x2028;</tspan><tspan x="589.258" y="284.529">&#x623;.&#x62f;/ &#x627;&#x645;&#x627;&#x646;&#x64a; &#x627;&#x644;&#x62c;&#x645;&#x644; &#x2028;</tspan><tspan x="563.557" y="293.529">&#x648;&#x623;&#x633;&#x627;&#x62a;&#x630;&#x629; &#x642;&#x633;&#x645; &#x627;&#x644;&#x630;&#x643;&#x627;&#x621; &#x627;&#x644;&#x627;&#x635;&#x637;&#x646;&#x627;&#x639;&#x64a; &#x648;&#x627;&#x644;&#x630;&#x643;&#x627;&#x621; &#x627;&#x644;&#x639;&#x627;&#x637;&#x641;&#x64a; &#x2028;</tspan><tspan x="560.093" y="302.529">&#x623;.&#x62f; / &#x634;&#x64a;&#x645;&#x627;&#x621; &#x62e;&#x627;&#x637;&#x631; .. &#x623;.&#x62f;/ &#x631;&#x627;&#x646;&#x64a;&#x627; &#x627;&#x644;&#x639;&#x627;&#x62f;&#x64a; . &#x623;.&#x62f;/ &#x645;&#x631;&#x648;&#x629; &#x62d;&#x633;&#x64a;&#x646;</tspan></text>
<text fill="white" xml:space="preserve" style="white-space: pre" font-family="Harmattan" font-size="15" font-weight="bold" letter-spacing="0em"><tspan x="575.262" y="220.087">&#x627;&#x644;&#x645;&#x646;&#x627;&#x642;&#x634;&#x647; &#x645;&#x639;</tspan></text>
<g filter="url(#filter0_d_0_1)">
<mask id="path-14-inside-1_0_1" fill="white">
<path d="M744.246 436H488.246H744.246Z"/>
</mask>
<path d="M744.246 436H488.246H744.246Z" fill="#231F20"/>
<path d="M744.246 436H488.246H744.246Z" stroke="black" stroke-width="0.6" mask="url(#path-14-inside-1_0_1)"/>
</g>
<rect x="2" y="-2" width="805" height="432" transform="matrix(1 0 0 -1 0 432)" stroke="#01ADED" stroke-width="4"/>
<path fill-rule="evenodd" clip-rule="evenodd" d="M355.4 32.1254C355.4 32.4321 355.272 32.7262 355.043 32.943C354.815 33.1599 354.505 33.2817 354.181 33.2817V34.7032C355.667 34.9903 357.024 35.7053 358.066 36.7508H360.276C360.599 36.7508 360.91 36.8726 361.138 37.0894C361.367 37.3063 361.495 37.6004 361.495 37.9071C361.495 38.2138 361.367 38.5079 361.138 38.7248C360.91 38.9416 360.599 39.0634 360.276 39.0634H343.212C342.889 39.0634 342.579 38.9416 342.35 38.7248C342.121 38.5079 341.993 38.2138 341.993 37.9071C341.993 37.6004 342.121 37.3063 342.35 37.0894C342.579 36.8726 342.889 36.7508 343.212 36.7508H345.42C346.462 35.7053 347.819 34.9903 349.305 34.7032V33.2817C348.982 33.2817 348.672 33.1599 348.443 32.943C348.215 32.7262 348.086 32.4321 348.086 32.1254C348.086 31.8187 348.215 31.5246 348.443 31.3077C348.672 31.0909 348.982 30.969 349.305 30.969V29.3724C348.241 28.9582 347.303 28.2989 346.575 27.4543C346.471 27.4836 346.363 27.4995 346.254 27.5015C342.863 27.5015 339.55 23.2189 339.55 20.0211C339.55 17.1066 340.931 16.2611 342.743 16.0264C342.89 15.9683 343.048 15.9383 343.207 15.9381H360.276C360.436 15.9383 360.593 15.9683 360.74 16.0264C362.554 16.2611 363.933 17.1066 363.933 20.0211C363.933 23.2205 360.618 27.5015 357.229 27.5015C357.121 27.4995 357.013 27.4836 356.908 27.4543C356.18 28.2989 355.242 28.9582 354.178 29.3724V30.969C354.338 30.9686 354.497 30.9982 354.645 31.0562C354.794 31.1141 354.928 31.1992 355.042 31.3066C355.156 31.4141 355.246 31.5417 355.307 31.6822C355.369 31.8227 355.4 31.9733 355.4 32.1254ZM351.743 9C348.285 9.00086 344.888 9.87421 341.903 11.5305C338.917 13.1868 336.45 15.5664 334.753 18.4255C333.057 21.2846 332.192 24.5202 332.249 27.8006C332.305 31.081 333.28 34.2883 335.073 37.0935C336.867 39.8988 339.414 42.2011 342.455 43.7645C345.496 45.3279 348.92 46.0961 352.377 45.9904C355.834 45.8846 359.199 44.9088 362.127 43.1628C365.055 41.4168 367.441 38.9636 369.04 36.0545C370.513 33.421 371.271 30.481 371.245 27.5C371.245 22.5935 369.191 17.8879 365.533 14.4185C361.876 10.9491 356.916 9 351.743 9Z" fill="#00AEEF" stroke="#707070"/>
<path fill-rule="evenodd" clip-rule="evenodd" d="M340.846 19.4143C340.846 18.0087 340.846 17.6188 342.331 17.5268C342.499 19.9171 343.039 22.2695 343.936 24.5047C343.08 23.9109 342.362 23.1511 341.83 22.2743C341.298 21.3976 340.962 20.4233 340.846 19.4143ZM360.159 17.5268C361.64 17.6188 361.645 18.0087 361.645 19.4143C361.528 20.4236 361.192 21.398 360.659 22.2748C360.126 23.1516 359.408 23.9112 358.551 24.5047C359.448 22.2695 359.988 19.9171 360.155 17.5268H360.159ZM356.749 27.4498C356.862 27.4816 356.979 27.4985 357.097 27.5C360.711 27.5 364.246 22.8698 364.246 19.4143C364.246 16.2634 362.774 15.3497 360.841 15.0954C360.683 15.0322 360.514 14.9998 360.343 15H342.145C341.976 15.0003 341.808 15.0327 341.651 15.0954C339.718 15.3497 338.246 16.2667 338.246 19.4143C338.246 22.8698 341.78 27.5 345.396 27.5C345.513 27.4985 345.63 27.4816 345.744 27.4498C346.517 28.3616 347.515 29.0741 348.646 29.5231V31.25C348.301 31.25 347.97 31.3817 347.727 31.6161C347.483 31.8505 347.346 32.1685 347.346 32.5C347.346 32.8315 347.483 33.1495 347.727 33.3839C347.97 33.6183 348.301 33.75 348.646 33.75V35.2861C347.063 35.5978 345.619 36.3708 344.51 37.5H342.145C341.801 37.5 341.47 37.6317 341.226 37.8661C340.983 38.1005 340.846 38.4185 340.846 38.75C340.846 39.0815 340.983 39.3995 341.226 39.6339C341.47 39.8683 341.801 40 342.145 40H360.343C360.688 40 361.019 39.8683 361.262 39.6339C361.506 39.3995 361.643 39.0815 361.643 38.75C361.643 38.4185 361.506 38.1005 361.262 37.8661C361.019 37.6317 360.688 37.5 360.343 37.5H357.986C356.875 36.3696 355.428 35.5965 353.843 35.2861V33.75C354.188 33.75 354.518 33.6183 354.762 33.3839C355.006 33.1495 355.143 32.8315 355.143 32.5C355.143 32.1685 355.006 31.8505 354.762 31.6161C354.518 31.3817 354.188 31.25 353.843 31.25V29.5231C354.974 29.0741 355.972 28.3616 356.745 27.4498H356.749Z" fill="white"/>
<path d="M308 13H102V40H308V13Z" fill="#00AEEF"/>
<path d="M253.929 60H152.071C145.957 60 141 65.3701 141 71.9945V73.0055C141 79.6299 145.957 85 152.071 85H253.929C260.043 85 265 79.6299 265 73.0055V71.9945C265 65.3701 260.043 60 253.929 60Z" fill="#A6DBEC"/>
<path d="M254.035 208H167.965C161.909 208 157 211.203 157 215.154V219.846C157 223.797 161.909 227 167.965 227H254.035C260.091 227 265 223.797 265 219.846V215.154C265 211.203 260.091 208 254.035 208Z" fill="black"/>
<text fill="black" xml:space="preserve" style="white-space: pre" font-family="Harmattan" font-size="14" font-weight="500" letter-spacing="0em"><tspan x="156" y="74.8813">Graduation project</tspan></text>
<text fill="black" xml:space="preserve" style="white-space: pre" font-family="Harmattan" font-size="10" font-weight="500" letter-spacing="0em"><tspan x="124.87" y="112.558">My software project was selected as one of the </tspan><tspan x="125.954" y="133.558">top ten projects across the three faculties and </tspan><tspan x="132.81" y="154.558">discussed at the first Mansoura University </tspan><tspan x="153.894" y="175.558">Computer Science Conference.</tspan></text>
<path d="M234.508 314H197.26C191.806 314 187.384 317.203 187.384 321.154V325.846C187.384 329.797 191.806 333 197.26 333H234.508C239.962 333 244.384 329.797 244.384 325.846V321.154C244.384 317.203 239.962 314 234.508 314Z" fill="black"/>
<text fill="white" xml:space="preserve" style="white-space: pre" font-family="Harmattan" font-size="13" font-weight="500" letter-spacing="0em"><tspan x="189" y="326.676">Attendance</tspan></text>
<text fill="#5E5E5E" xml:space="preserve" style="white-space: pre" font-family="Harmattan" font-size="10" font-weight="500" letter-spacing="0em"><tspan x="120.369" y="352.558">Mansoura University Professional Development Center&#x2028;</tspan><tspan x="148.973" y="369.558"> The President of Mansoura University&#x2028;</tspan><tspan x="150.228" y="386.558"> Techno Egypt Programming Company&#x2028;</tspan><tspan x="204.441" y="403.558"> X Clan&#x2028;</tspan><tspan x="204.393" y="420.558">fekretk</tspan></text>
<text fill="#5E5E5E" xml:space="preserve" style="white-space: pre" font-family="Harmattan" font-size="5" font-weight="500" letter-spacing="0em"><tspan x="176.178" y="239.529">Head of the Computer Science Department&#x2028;</tspan><tspan x="185.853" y="248.529"> Prof. Dr. Ahmed El-Sayed Amin&#10;</tspan><tspan x="174.728" y="257.529">Dean of the College of Specialized Education&#x2028;</tspan><tspan x="192.298" y="266.529"> Dr. Mohey El-Din Ismail&#10;</tspan><tspan x="173.666" y="275.529">Vice Dean for Graduate Studies and Research&#x2028;</tspan><tspan x="191.356" y="284.529"> Prof. Dr. Amani Al-Jamal&#10;</tspan><tspan x="141.285" y="293.529">Professors of the Department of Artificial Intelligence and Emotional Intelligence:&#x2028;</tspan><tspan x="145.206" y="302.529"> Prof. Dr. Shaimaa Khater &#x2022; Prof. Dr. Rania Al-Adly &#x2022; Prof. Dr. Marwa Hussein</tspan></text>
<text fill="white" xml:space="preserve" style="white-space: pre" font-family="Harmattan" font-size="15" font-weight="500" letter-spacing="0em"><tspan x="169" y="221.087">Discussion with</tspan></text>
<g filter="url(#filter1_d_0_1)">
<path d="M354.246 436H98.2461" stroke="black" stroke-width="0.3"/>
</g>
<text fill="white" xml:space="preserve" style="white-space: pre" font-family="Harmattan" font-size="20" font-weight="bold" letter-spacing="0em"><tspan x="119" y="31.1162">University achievements</tspan></text>
<path d="M439.67 441.504H396.746C393.514 441.504 390.893 443.279 390.893 445.468V469.251C390.893 471.44 393.514 473.214 396.746 473.214H439.67C442.902 473.214 445.523 471.44 445.523 469.251V445.468C445.523 443.279 442.902 441.504 439.67 441.504Z" fill="#FF0101"/>
<path d="M435.767 467.93H400.648C400.13 467.93 399.634 467.79 399.268 467.543C398.902 467.295 398.697 466.959 398.697 466.608C398.697 466.258 398.902 465.922 399.268 465.674C399.634 465.426 400.13 465.287 400.648 465.287H435.767C436.285 465.287 436.781 465.426 437.147 465.674C437.513 465.922 437.718 466.258 437.718 466.608C437.718 466.959 437.513 467.295 437.147 467.543C436.781 467.79 436.285 467.93 435.767 467.93Z" fill="#EEEEEE"/>
<path d="M424.062 469.251C423.544 469.251 423.048 469.112 422.682 468.864C422.316 468.616 422.111 468.28 422.111 467.93V465.287C422.111 464.937 422.316 464.601 422.682 464.353C423.048 464.105 423.544 463.966 424.062 463.966C424.579 463.966 425.076 464.105 425.442 464.353C425.807 464.601 426.013 464.937 426.013 465.287V467.93C426.013 468.28 425.807 468.616 425.442 468.864C425.076 469.112 424.579 469.251 424.062 469.251Z" fill="black"/>
<path d="M396.746 441.504C395.194 441.504 393.705 441.922 392.607 442.665C391.51 443.408 390.893 444.416 390.893 445.468V469.251C390.893 470.302 391.51 471.31 392.607 472.053C393.705 472.797 395.194 473.214 396.746 473.214H418.208V441.504H396.746Z" fill="#01B2FF"/>
<path d="M400.648 465.287C400.13 465.287 399.634 465.426 399.268 465.674C398.902 465.922 398.697 466.258 398.697 466.608C398.697 466.959 398.902 467.295 399.268 467.543C399.634 467.79 400.13 467.93 400.648 467.93H418.208V465.287H400.648Z" fill="#FAFAFA"/>
<path d="M413.234 448.335C412.937 448.233 412.606 448.185 412.274 448.195C411.942 448.204 411.618 448.271 411.335 448.389C411.052 448.506 410.817 448.671 410.654 448.868C410.492 449.064 410.406 449.285 410.405 449.511V459.922C410.407 460.158 410.502 460.388 410.681 460.59C410.859 460.793 411.114 460.959 411.419 461.072C411.702 461.187 412.026 461.246 412.356 461.244C412.721 461.244 413.079 461.176 413.39 461.045L418.209 458.997V450.013L413.234 448.335Z" fill="#00AEEF"/>
<path d="M426.891 452.959L413.234 448.335C412.937 448.233 412.606 448.185 412.274 448.195C411.942 448.204 411.618 448.271 411.335 448.389C411.052 448.506 410.817 448.671 410.654 448.868C410.492 449.064 410.406 449.285 410.405 449.511V459.922C410.407 460.158 410.502 460.388 410.681 460.59C410.859 460.793 411.114 460.959 411.419 461.072C411.702 461.187 412.026 461.246 412.356 461.244C412.721 461.244 413.079 461.176 413.39 461.045L427.047 455.258C427.343 455.133 427.584 454.957 427.745 454.748C427.906 454.539 427.982 454.305 427.964 454.069C427.946 453.836 427.837 453.611 427.648 453.416C427.46 453.221 427.199 453.064 426.891 452.959Z" fill="#EEEEEE"/>
<path d="M502.885 446.015H509.259L500.154 440V444.211C500.154 445.207 501.377 446.015 502.885 446.015Z" fill="#00AEEF"/>
<path d="M499.161 443.008H461.457V453.534H499.161C499.709 453.534 500.154 453.272 500.154 452.949V443.593C500.154 443.27 499.709 443.008 499.161 443.008Z" fill="#C6CACF"/>
<path d="M496.908 453.534H455.601C454.737 453.534 454.304 452.814 454.915 452.393L461.989 447.519L454.915 442.645C454.304 442.224 454.737 441.504 455.601 441.504H496.908C497.444 441.504 497.878 441.803 497.878 442.172V452.866C497.878 453.235 497.444 453.534 496.908 453.534Z" fill="#00AEEF"/>
<path d="M476.377 445.455H472.619C472.101 445.455 471.68 445.733 471.68 446.076V449.8C471.68 450.142 472.101 450.42 472.619 450.42C473.138 450.42 473.559 450.142 473.559 449.8V448.558H476.377C476.896 448.558 477.317 448.28 477.317 447.938V446.076C477.317 445.733 476.896 445.455 476.377 445.455ZM475.438 447.317H473.559V446.696H475.438V447.317Z" fill="white"/>
<path d="M481.074 445.455H479.195C478.677 445.455 478.256 445.733 478.256 446.076V449.8C478.256 450.142 478.677 450.42 479.195 450.42H482.953C483.472 450.42 483.893 450.142 483.893 449.8V447.317C483.893 446.29 482.629 445.455 481.074 445.455ZM482.014 449.179H480.135V446.696H481.074C481.592 446.696 482.014 446.975 482.014 447.317L482.014 449.179Z" fill="white"/>
<path d="M489.53 445.455H485.772C485.253 445.455 484.832 445.733 484.832 446.076V449.8C484.832 450.142 485.253 450.42 485.772 450.42C486.29 450.42 486.711 450.142 486.711 449.8V448.558H488.59C489.109 448.558 489.53 448.28 489.53 447.938C489.53 447.595 489.109 447.317 488.59 447.317H486.711V446.696H489.53C490.048 446.696 490.469 446.418 490.469 446.076C490.469 445.733 490.048 445.455 489.53 445.455Z" fill="white"/>
<path d="M499.229 474.587H471.487C470.977 474.587 470.563 474.295 470.563 473.936V455.69C470.563 455.33 470.977 455.038 471.487 455.038H499.229C499.74 455.038 500.154 455.33 500.154 455.69V473.936C500.154 474.296 499.74 474.587 499.229 474.587Z" fill="#C6CACF"/>
<path d="M472.412 473.284V455.038H471.487C470.977 455.038 470.563 455.33 470.563 455.69V473.936C470.563 474.296 470.977 474.587 471.487 474.587H499.229C499.74 474.587 500.154 474.295 500.154 473.936V473.284H472.412Z" fill="#00AEEF"/>
<path d="M497.002 471.579H487.372C486.888 471.579 486.496 471.291 486.496 470.935V463.201C486.496 462.845 486.888 462.557 487.372 462.557H497.002C497.486 462.557 497.878 462.845 497.878 463.201V470.935C497.878 471.291 497.486 471.579 497.002 471.579Z" fill="black"/>
<path d="M495.601 464.061H488.772V470.076H495.601V464.061Z" fill="#00AEEF"/>
<path d="M497.046 459.108H486.712C486.193 459.108 485.772 458.831 485.772 458.488C485.772 458.145 486.193 457.867 486.712 457.867H497.046C497.565 457.867 497.985 458.145 497.985 458.488C497.985 458.831 497.565 459.108 497.046 459.108Z" fill="#EF0000"/>
<path d="M497.046 461.591H486.712C486.193 461.591 485.772 461.313 485.772 460.97C485.772 460.627 486.193 460.35 486.712 460.35H497.046C497.565 460.35 497.985 460.628 497.985 460.97C497.985 461.313 497.565 461.591 497.046 461.591Z" fill="#EF0000"/>
<path d="M483.893 459.108H474.498C473.979 459.108 473.558 458.831 473.558 458.488C473.558 458.145 473.979 457.867 474.498 457.867H483.893C484.412 457.867 484.832 458.145 484.832 458.488C484.832 458.831 484.411 459.108 483.893 459.108Z" fill="#EF0000"/>
<path d="M483.892 461.591H474.498C473.979 461.591 473.558 461.313 473.558 460.97C473.558 460.627 473.979 460.35 474.498 460.35H483.892C484.411 460.35 484.832 460.628 484.832 460.97C484.832 461.313 484.411 461.591 483.892 461.591Z" fill="#EF0000"/>
<path d="M483.892 464.074H474.498C473.979 464.074 473.558 463.796 473.558 463.454C473.558 463.111 473.979 462.833 474.498 462.833H483.892C484.411 462.833 484.832 463.111 484.832 463.454C484.832 463.796 484.411 464.074 483.892 464.074Z" fill="#EF0000"/>
<path d="M483.892 466.556H474.498C473.979 466.556 473.558 466.278 473.558 465.935C473.558 465.592 473.979 465.314 474.498 465.314H483.892C484.411 465.314 484.832 465.592 484.832 465.935C484.832 466.278 484.411 466.556 483.892 466.556Z" fill="#EF0000"/>
<path d="M483.892 469.039H474.498C473.979 469.039 473.558 468.761 473.558 468.418C473.558 468.076 473.979 467.798 474.498 467.798H483.892C484.411 467.798 484.832 468.076 484.832 468.418C484.832 468.761 484.411 469.039 483.892 469.039Z" fill="#EF0000"/>
<path d="M483.892 471.521H474.498C473.979 471.521 473.558 471.243 473.558 470.9C473.558 470.557 473.979 470.279 474.498 470.279H483.892C484.411 470.279 484.832 470.557 484.832 470.9C484.832 471.243 484.411 471.521 483.892 471.521Z" fill="#EF0000"/>
<path d="M331.71 473.836V477.595H384.064V473.836L358.007 471.58L331.71 473.836Z" fill="#EEEEEE"/>
<path d="M331.71 470.826V474.585H384.064V470.826L358.007 468.57L331.71 470.826Z" fill="#DCDCDC"/>
<path d="M384.065 443.008V470.076H380.65L372.683 456.542L380.65 443.008H384.065Z" fill="#EEEEEE"/>
<path d="M381.788 443.008V445.295L373.54 456.542L381.788 467.788V470.076H331.71V443.008H381.788Z" fill="white"/>
<path d="M333.988 444.511V461.666L357.889 464.06L381.789 461.666V444.511H333.988Z" fill="#29B71C"/>
<path d="M359.026 447.519V453.534C360.283 453.534 361.302 452.187 361.302 450.526C361.302 448.865 360.283 447.519 359.026 447.519Z" fill="#FE5F1A"/>
<path d="M358.116 447.519C358.618 447.519 359.026 448.865 359.026 450.526C359.026 452.187 358.618 453.534 358.116 453.534C356.104 453.534 354.474 452.187 354.474 450.526C354.474 448.865 356.104 447.519 358.116 447.519Z" fill="#00AEEF"/>
<path d="M381.788 465.565L368.131 458.046L378.284 459.246L381.789 461.671L381.788 465.565Z" fill="#027372"/>
<path d="M376.266 459.676L369.772 456.542L361.406 459.676L356.75 462.77L367.49 468.572H381.788V464.404L376.266 459.676Z" fill="#E53935"/>
<path d="M379.512 459.442L377.604 459.549L370.407 457.324V453.534L379.512 459.442Z" fill="#EEEEEE"/>
<path d="M361.302 459.549L368.991 453.534L374.959 459.549L361.302 459.549Z" fill="white"/>
<path d="M365.854 468.572H361.692L345.368 458.046L354.409 459.297L365.854 468.572Z" fill="#027372"/>
<path d="M351.483 459.676L361.303 468.572H333.988V462.102L337.438 459.676L345.345 456.542L351.483 459.676Z" fill="#00AEEF"/>
<path d="M354.473 459.442L352.565 459.549L345.368 457.324V453.534L354.473 459.442Z" fill="#EEEEEE"/>
<path d="M336.264 459.549L345.234 453.534L352.198 459.549L336.264 459.549Z" fill="white"/>
<path d="M385.433 476.091C384.931 476.091 384.525 476.379 384.525 476.735V477.809H331.251V476.735C331.251 476.379 330.844 476.091 330.343 476.091C329.841 476.091 329.434 476.379 329.434 476.735V478.454C329.434 478.81 329.841 479.098 330.343 479.098H385.433C385.934 479.098 386.341 478.81 386.341 478.454V476.735C386.341 476.379 385.934 476.091 385.433 476.091Z" fill="#00AEEF"/>
<path d="M385.433 471.58C384.931 471.58 384.525 471.869 384.525 472.225V473.299H331.251V472.225C331.251 471.869 330.844 471.58 330.343 471.58C329.841 471.58 329.434 471.869 329.434 472.225V473.943C329.434 474.299 329.841 474.588 330.343 474.588H385.433C385.934 474.588 386.341 474.299 386.341 473.943V472.225C386.341 471.869 385.934 471.58 385.433 471.58Z" fill="#00AEEF"/>
<path d="M385.433 441.504H330.343C329.841 441.504 329.434 441.777 329.434 442.114V470.97C329.434 471.307 329.841 471.58 330.343 471.58H385.433C385.934 471.58 386.341 471.307 386.341 470.97V442.114C386.341 441.777 385.934 441.504 385.433 441.504ZM384.525 470.36H331.251V442.723H384.525V470.36Z" fill="#00AEEF"/>
<path d="M363.579 450.526C363.579 448.868 361.026 447.519 357.888 447.519C354.75 447.519 352.198 448.868 352.198 450.526C352.198 452.184 354.75 453.534 357.888 453.534C361.026 453.534 363.579 452.184 363.579 450.526ZM353.995 450.526C353.995 449.391 355.741 448.468 357.888 448.468C360.035 448.468 361.782 449.391 361.782 450.526C361.782 451.661 360.035 452.584 357.888 452.584C355.741 452.584 353.995 451.661 353.995 450.526Z" fill="black"/>
<path d="M331.71 467.954C331.71 468.295 332.139 468.572 332.668 468.572H383.107C383.636 468.572 384.064 468.295 384.064 467.954V443.626C384.064 443.285 383.636 443.008 383.107 443.008H332.668C332.139 443.008 331.71 443.285 331.71 443.626V448.574C331.71 448.916 332.139 449.193 332.668 449.193C333.197 449.193 333.626 448.916 333.626 448.574V444.245H382.149V459.863L371.174 452.776C370.8 452.534 370.194 452.534 369.82 452.776L357.887 460.482L345.955 452.775C345.58 452.534 344.974 452.534 344.6 452.775L333.626 459.863V451.048C333.626 450.707 333.197 450.43 332.668 450.43C332.139 450.43 331.71 450.707 331.71 451.048V467.954ZM370.497 454.088L376.964 458.264H364.03L370.497 454.088ZM345.278 454.088L351.745 458.264H338.811L345.278 454.088ZM336.896 459.501H353.66L357.209 461.793C357.211 461.795 363.595 465.917 363.595 465.917C363.782 466.038 364.027 466.098 364.272 466.098C364.517 466.098 364.762 466.038 364.949 465.917C365.323 465.675 365.323 465.284 364.949 465.042L359.242 461.356L362.115 459.501H378.879L382.149 461.613V467.335H333.626V461.613L336.896 459.501Z" fill="black"/>
<path fill-rule="evenodd" clip-rule="evenodd" d="M304.549 447.567C304.851 447.567 305.099 447.832 305.099 448.155V459.208H304V448.155C304 447.828 304.246 447.567 304.549 447.567Z" fill="#FFFFFE"/>
<rect x="408" y="3" width="15" height="430" fill="url(#paint0_linear_0_1)"/>
<defs>
<filter id="filter0_d_0_1" x="484.246" y="435.7" width="264" height="8.59961" filterUnits="userSpaceOnUse" color-interpolation-filters="sRGB">
<feFlood flood-opacity="0" result="BackgroundImageFix"/>
<feColorMatrix in="SourceAlpha" type="matrix" values="0 0 0 0 0 0 0 0 0 0 0 0 0 0 0 0 0 0 127 0" result="hardAlpha"/>
<feOffset dy="4"/>
<feGaussianBlur stdDeviation="2"/>
<feComposite in2="hardAlpha" operator="out"/>
<feColorMatrix type="matrix" values="0 0 0 0 0 0 0 0 0 0 0 0 0 0 0 0 0 0 0.25 0"/>
<feBlend mode="normal" in2="BackgroundImageFix" result="effect1_dropShadow_0_1"/>
<feBlend mode="normal" in="SourceGraphic" in2="effect1_dropShadow_0_1" result="shape"/>
</filter>
<filter id="filter1_d_0_1" x="94.2461" y="435.85" width="264" height="8.30078" filterUnits="userSpaceOnUse" color-interpolation-filters="sRGB">
<feFlood flood-opacity="0" result="BackgroundImageFix"/>
<feColorMatrix in="SourceAlpha" type="matrix" values="0 0 0 0 0 0 0 0 0 0 0 0 0 0 0 0 0 0 127 0" result="hardAlpha"/>
<feOffset dy="4"/>
<feGaussianBlur stdDeviation="2"/>
<feComposite in2="hardAlpha" operator="out"/>
<feColorMatrix type="matrix" values="0 0 0 0 0 0 0 0 0 0 0 0 0 0 0 0 0 0 0.25 0"/>
<feBlend mode="normal" in2="BackgroundImageFix" result="effect1_dropShadow_0_1"/>
<feBlend mode="normal" in="SourceGraphic" in2="effect1_dropShadow_0_1" result="shape"/>
</filter>
<linearGradient id="paint0_linear_0_1" x1="423" y1="218" x2="408" y2="218" gradientUnits="userSpaceOnUse">
<stop offset="0.432692" stop-color="#FF0000"/>
<stop offset="0.475962"/>
<stop offset="0.476062" stop-color="#00B3FF"/>
</linearGradient>
</defs>
</svg>
