<svg width="809" height="855" viewBox="0 0 809 855" fill="none" xmlns="http://www.w3.org/2000/svg">
<rect width="809" height="855" fill="#F5F5F5"/>
<path d="M684.76 14H509.76V42H684.76V14Z" fill="#00AEEF"/>
<text fill="white" xml:space="preserve" style="white-space: pre" font-family="Harmattan" font-size="20" font-weight="bold" letter-spacing="0em"><tspan x="535.731" y="32.1162">&#x627;&#x644;&#x634;&#x647;&#x627;&#x62f;&#x627;&#x62a; &#x627;&#x644;&#x645;&#x639;&#x62a;&#x645;&#x62f;&#x629;</tspan></text>
<text fill="black" xml:space="preserve" style="white-space: pre" font-family="Harmattan" font-size="20" font-weight="500" letter-spacing="0em"><tspan x="514.938" y="104.116">&#x645;&#x639;&#x62a;&#x645;&#x62f;&#x629; &#x645;&#x648;&#x62b;&#x642;&#x647; &#x645;&#x646; &#x62c;&#x627;&#x645;&#x639;&#x629; &#x627;&#x644;&#x645;&#x646;&#x635;&#x648;&#x631;&#x629;</tspan></text>
<text fill="#FF0000" xml:space="preserve" style="white-space: pre" font-family="Harmattan" font-size="20" font-weight="500" letter-spacing="0em"><tspan x="470.023" y="81.1162">&#x628;&#x627;&#x643;&#x644;&#x648;&#x631;&#x64a;&#x648;&#x633; &#x62a;&#x631;&#x628;&#x648;&#x64a; &#x627;&#x639;&#x62f;&#x627;&#x62f; &#x645;&#x639;&#x644;&#x645; &#x62d;&#x627;&#x633;&#x628; &#x623;&#x644;&#x64a; </tspan></text>
<text fill="#F30000" xml:space="preserve" style="white-space: pre" font-family="Harmattan" font-size="20" font-weight="bold" letter-spacing="0em"><tspan x="588.781" y="203.116">ENGLISH 3 LEVELS </tspan></text>
<path d="M735.758 14.5967H733.409C728.19 14.5967 723.185 15.9663 719.494 18.4043C715.804 20.8423 713.731 24.1489 713.731 27.5967V29.1517C713.731 32.5995 715.804 35.9061 719.494 38.3441C723.185 40.7821 728.19 42.1517 733.409 42.1517H735.763C738.347 42.1517 740.906 41.8154 743.293 41.1621C745.681 40.5088 747.85 39.5512 749.677 38.3441C751.504 37.1369 752.954 35.7038 753.943 34.1266C754.932 32.5493 755.441 30.8589 755.441 29.1517V27.5967C755.441 25.8892 754.931 24.1985 753.942 22.6211C752.953 21.0437 751.503 19.6104 749.675 18.4032C747.848 17.196 745.678 16.2385 743.29 15.5854C740.902 14.9323 738.343 14.5963 735.758 14.5967Z" fill="#00AEEF" stroke="#707070"/>
<path d="M721.763 21.6045C722.706 21.6045 723.514 22.3475 724.061 23.5475C725.084 26.1856 725.084 28.9515 724.061 31.5895C723.514 32.7895 722.698 33.5325 721.763 33.5325C720.827 33.5325 720.012 32.7895 719.465 31.5895C718.444 28.9513 718.444 26.1857 719.465 23.5475C720.012 22.3475 720.82 21.6045 721.763 21.6045ZM722.234 25.2655C722.017 24.7915 721.757 24.4975 721.501 24.4975C721.245 24.4975 720.985 24.7905 720.768 25.2655C720.199 26.7758 720.199 28.3552 720.768 29.8655C720.983 30.3395 721.245 30.6335 721.501 30.6335C721.757 30.6335 722.017 30.3405 722.234 29.8655C722.803 28.3552 722.803 26.7758 722.234 25.2655Z" fill="#FFFFFE"/>
<path d="M736.046 29.5303C736.329 29.545 736.602 29.6081 736.837 29.7132C737.072 29.8184 737.262 29.9621 737.389 30.1303C737.749 30.5712 737.938 31.0647 737.937 31.5659C737.935 32.0672 737.744 32.5602 737.381 33.0003C737.262 33.1686 737.073 33.3111 736.836 33.4109C736.599 33.5107 736.323 33.5637 736.042 33.5637C735.761 33.5637 735.486 33.5107 735.248 33.4109C735.011 33.3111 734.822 33.1686 734.703 33.0003C734.335 32.5613 734.141 32.0678 734.14 31.5659C734.139 31.0641 734.33 30.5701 734.696 30.1303C734.823 29.9617 735.014 29.8178 735.251 29.7127C735.488 29.6075 735.762 29.5447 736.046 29.5303ZM736.71 30.8403C736.648 30.7563 736.553 30.6846 736.435 30.6323C736.323 30.5727 736.184 30.5402 736.04 30.5402C735.896 30.5402 735.757 30.5727 735.645 30.6323C735.527 30.6846 735.432 30.7563 735.369 30.8403C735.187 31.0604 735.091 31.3073 735.091 31.5583C735.091 31.8093 735.187 32.0562 735.369 32.2763C735.432 32.3603 735.527 32.432 735.645 32.4843C735.757 32.5439 735.896 32.5764 736.04 32.5764C736.184 32.5764 736.323 32.5439 736.435 32.4843C736.553 32.432 736.648 32.3603 736.71 32.2763C736.893 32.0562 736.989 31.8093 736.989 31.5583C736.989 31.3073 736.893 31.0604 736.71 30.8403Z" fill="#FFFFFE"/>
<path fill-rule="evenodd" clip-rule="evenodd" d="M736.951 29.8225C738.446 30.2225 738.67 31.3885 738.478 32.9295C739.592 33.0295 741.531 33.1735 742.659 33.3465C744.268 33.5957 745.855 33.9032 747.414 34.2675C747.466 34.2834 747.524 34.2915 747.582 34.2915C748.464 34.2915 749.219 33.4855 749.728 32.2565C750.233 30.9317 750.482 29.5697 750.467 28.2035C750.493 26.9215 750.255 25.6431 749.76 24.4035C749.253 23.2585 748.499 22.5505 747.618 22.5505H747.585C747.561 22.5495 747.537 22.5495 747.513 22.5505C743.98 22.9445 740.46 23.7005 736.952 23.7655L736.951 29.8225ZM734.915 23.7855H734.885C730.693 23.7855 726.51 23.0215 722.332 22.5525C721.975 22.5135 721.655 22.7915 721.619 23.1735C721.582 23.5555 721.843 23.8965 722.199 23.9355C722.725 23.9942 723.253 24.0498 723.78 24.1025C723.829 24.1978 723.876 24.2978 723.921 24.4025C724.919 27.0413 724.919 29.8017 723.921 32.4405L723.909 32.4665H723.923C723.317 32.6058 722.712 32.7578 722.106 32.9225C721.908 33.016 721.757 33.1468 721.673 33.298C721.589 33.4491 721.576 33.6134 721.635 33.7695C721.725 34.1425 722.079 34.3695 722.427 34.2695C724.292 33.7587 726.227 33.3683 728.205 33.1035C729.999 32.9016 731.81 32.7744 733.628 32.7225C733.488 32.2257 733.531 31.7138 733.755 31.2305C733.979 30.7473 734.377 30.3071 734.915 29.9475V23.7855Z" fill="#FFFFFE"/>
<text fill="#FF0000" xml:space="preserve" style="white-space: pre" font-family="Harmattan" font-size="20" font-weight="bold" letter-spacing="0em"><tspan x="589.973" y="280.116">Digital marketing </tspan></text>
<text fill="black" xml:space="preserve" style="white-space: pre" font-family="Harmattan" font-size="17" font-weight="500" letter-spacing="0.05em"><tspan x="458.322" y="306.499">&#x62d;&#x627;&#x635;&#x644; &#x639;&#x644;&#x64a; &#x634;&#x647;&#x627;&#x62f;&#x629; &#x645;&#x639;&#x62a;&#x645;&#x62f;&#x629; &#x648;&#x645;&#x648;&#x62b;&#x642;&#x647; &#x645;&#x646; &#x643;&#x644;&#x64a;&#x629;&#x2028;</tspan><tspan x="471.451" y="328.499">&#x627;&#x644;&#x647;&#x646;&#x62f;&#x633;&#x629; &#x62c;&#x627;&#x645;&#x639;&#x629; &#x627;&#x644;&#x645;&#x646;&#x635;&#x648;&#x631;&#x629; &#x639;&#x644;&#x64a; &#x642;&#x64a;&#x62f; &#x627;&#x644;&#x648;&#x635;&#x648;&#x644;</tspan></text>
<text fill="black" xml:space="preserve" style="white-space: pre" font-family="Harmattan" font-size="17" font-weight="500" letter-spacing="0.05em"><tspan x="458.322" y="413.499">&#x62d;&#x627;&#x635;&#x644; &#x639;&#x644;&#x64a; &#x634;&#x647;&#x627;&#x62f;&#x629; &#x645;&#x639;&#x62a;&#x645;&#x62f;&#x629; &#x648;&#x645;&#x648;&#x62b;&#x642;&#x647; &#x645;&#x646; &#x643;&#x644;&#x64a;&#x629;&#x2028;</tspan><tspan x="471.451" y="435.499">&#x627;&#x644;&#x647;&#x646;&#x62f;&#x633;&#x629; &#x62c;&#x627;&#x645;&#x639;&#x629; &#x627;&#x644;&#x645;&#x646;&#x635;&#x648;&#x631;&#x629; &#x639;&#x644;&#x64a; &#x642;&#x64a;&#x62f; &#x627;&#x644;&#x648;&#x635;&#x648;&#x644;</tspan></text>
<text fill="black" xml:space="preserve" style="white-space: pre" font-family="Harmattan" font-size="17" font-weight="500" letter-spacing="0.05em"><tspan x="458.322" y="497.499">&#x62d;&#x627;&#x635;&#x644; &#x639;&#x644;&#x64a; &#x634;&#x647;&#x627;&#x62f;&#x629; &#x645;&#x639;&#x62a;&#x645;&#x62f;&#x629; &#x648;&#x645;&#x648;&#x62b;&#x642;&#x647; &#x645;&#x646; &#x643;&#x644;&#x64a;&#x629;&#x2028;</tspan><tspan x="471.451" y="519.499">&#x627;&#x644;&#x647;&#x646;&#x62f;&#x633;&#x629; &#x62c;&#x627;&#x645;&#x639;&#x629; &#x627;&#x644;&#x645;&#x646;&#x635;&#x648;&#x631;&#x629; &#x639;&#x644;&#x64a; &#x642;&#x64a;&#x62f; &#x627;&#x644;&#x648;&#x635;&#x648;&#x644;</tspan></text>
<text fill="black" xml:space="preserve" style="white-space: pre" font-family="Harmattan" font-size="17" font-weight="500" letter-spacing="0.05em"><tspan x="458.322" y="578.499">&#x62d;&#x627;&#x635;&#x644; &#x639;&#x644;&#x64a; &#x634;&#x647;&#x627;&#x62f;&#x629; &#x645;&#x639;&#x62a;&#x645;&#x62f;&#x629; &#x648;&#x645;&#x648;&#x62b;&#x642;&#x647; &#x645;&#x646; &#x643;&#x644;&#x64a;&#x629;&#x2028;</tspan><tspan x="471.451" y="600.499">&#x627;&#x644;&#x647;&#x646;&#x62f;&#x633;&#x629; &#x62c;&#x627;&#x645;&#x639;&#x629; &#x627;&#x644;&#x645;&#x646;&#x635;&#x648;&#x631;&#x629; &#x639;&#x644;&#x64a; &#x642;&#x64a;&#x62f; &#x627;&#x644;&#x648;&#x635;&#x648;&#x644;</tspan></text>
<text fill="black" xml:space="preserve" style="white-space: pre" font-family="Harmattan" font-size="17" font-weight="500" letter-spacing="0.05em"><tspan x="458.322" y="728.499">&#x62d;&#x627;&#x635;&#x644; &#x639;&#x644;&#x64a; &#x634;&#x647;&#x627;&#x62f;&#x629; &#x645;&#x639;&#x62a;&#x645;&#x62f;&#x629; &#x648;&#x645;&#x648;&#x62b;&#x642;&#x647; &#x645;&#x646; &#x643;&#x644;&#x64a;&#x629;&#x2028;</tspan><tspan x="471.451" y="750.499">&#x627;&#x644;&#x647;&#x646;&#x62f;&#x633;&#x629; &#x62c;&#x627;&#x645;&#x639;&#x629; &#x627;&#x644;&#x645;&#x646;&#x635;&#x648;&#x631;&#x629; &#x639;&#x644;&#x64a; &#x642;&#x64a;&#x62f; &#x627;&#x644;&#x648;&#x635;&#x648;&#x644;</tspan></text>
<text fill="black" xml:space="preserve" style="white-space: pre" font-family="Harmattan" font-size="17" font-weight="500" letter-spacing="0.05em"><tspan x="458.322" y="223.499">&#x62d;&#x627;&#x635;&#x644; &#x639;&#x644;&#x64a; &#x634;&#x647;&#x627;&#x62f;&#x629; &#x645;&#x639;&#x62a;&#x645;&#x62f;&#x629; &#x648;&#x645;&#x648;&#x62b;&#x642;&#x647; &#x645;&#x646; &#x643;&#x644;&#x64a;&#x629;&#x2028;</tspan><tspan x="466.832" y="245.499">&#x627;&#x644;&#x647;&#x646;&#x62f;&#x633;&#x629; &#x62c;&#x627;&#x645;&#x639;&#x629; &#x627;&#x644;&#x645;&#x646;&#x635;&#x648;&#x631;&#x629; &#x639;&#x644;&#x64a; &#x642;&#x64a;&#x62f; &#x627;&#x644;&#x648;&#x635;&#x648;&#x644; </tspan></text>
<text fill="#FF0000" xml:space="preserve" style="white-space: pre" font-family="Harmattan" font-size="16" font-weight="bold" letter-spacing="0.06em"><tspan x="484.58" y="368.293">ICDL (WIN-WORD-EXCEL-ACCESS-</tspan><tspan x="505.643" y="390.293">POWERPOINT - INTERNET - IT) </tspan></text>
<text fill="#FF0000" xml:space="preserve" style="white-space: pre" font-family="Harmattan" font-size="20" font-weight="bold" letter-spacing="0em"><tspan x="577.066" y="474.116">MANGMENT SKILLS </tspan></text>
<text fill="#FF0000" xml:space="preserve" style="white-space: pre" font-family="Harmattan" font-size="20" font-weight="bold" letter-spacing="0em"><tspan x="587" y="562.116">PERSONAL SKILLS </tspan></text>
<text fill="#FF0000" xml:space="preserve" style="white-space: pre" font-family="Harmattan" font-size="20" font-weight="bold" letter-spacing="0em"><tspan x="623" y="707.116">Graphic design</tspan></text>
<text fill="#FF0000" xml:space="preserve" style="white-space: pre" font-family="Harmattan" font-size="20" font-weight="bold" letter-spacing="0em"><tspan x="584" y="634.116">&#x627;&#x644;&#x633;&#x644;&#x627;&#x645;&#x647; &#x648;&#x627;&#x644;&#x635;&#x62d;&#x629; &#x627;&#x644;&#x645;&#x647;&#x646;&#x64a;&#x629;</tspan></text>
<text fill="black" xml:space="preserve" style="white-space: pre" font-family="Harmattan" font-size="13" font-weight="500" letter-spacing="0em"><tspan x="450.736" y="653.676">&#x62d;&#x627;&#x635;&#x644; &#x639;&#x644;&#x64a; &#x627;&#x644;&#x634;&#x647;&#x627;&#x62f;&#x629; &#x627;&#x644;&#x62f;&#x648;&#x644;&#x64a;&#x629; &#x627;&#x644;&#x623;&#x645;&#x631;&#x64a;&#x643;&#x64a;&#x629; &#x648;&#x645;&#x648;&#x62b;&#x642;&#x647; &#x645;&#x646; &#x648;&#x632;&#x627;&#x631;&#x629; &#x627;&#x644;&#x62e;&#x627;&#x631;&#x62c;&#x64a;&#x629; &#x627;&#x644;&#x645;&#x635;&#x631;&#x64a;&#x629;&#x2028;</tspan><tspan x="624.294" y="675.676"> + &#x627;&#x644;&#x643;&#x627;&#x631;&#x646;&#x64a;&#x629; &#x627;&#x644;&#x62f;&#x648;&#x644;&#x64a; &#x627;&#x644;&#x627;&#x645;&#x631;&#x64a;&#x643;&#x64a;</tspan></text>
<text fill="#FF0000" xml:space="preserve" style="white-space: pre" font-family="Harmattan" font-size="15" font-weight="500" letter-spacing="0em"><tspan x="473.684" y="128.587">&#x62d;&#x633;&#x627;&#x628; &#x645;&#x648;&#x62d;&#x62f; + &#x643;&#x648;&#x62f; &#x627;&#x644;&#x645;&#x639;&#x644;&#x645; &#x627;&#x644;&#x62e;&#x627;&#x635; &#x628;&#x645;&#x639;&#x644;&#x645; &#x641;&#x64a; &#x645;&#x627;&#x62f;&#x62a;&#x64a; </tspan><tspan x="601.477" y="145.587">&#x627;&#x644;&#x631;&#x64a;&#x627;&#x636;&#x64a;&#x627;&#x62a; &#x648;&#x627;&#x644;&#x62d;&#x627;&#x633;&#x628; &#x627;&#x644;&#x627;&#x644;&#x64a;</tspan></text>
<text fill="black" xml:space="preserve" style="white-space: pre" font-family="Harmattan" font-size="13" font-weight="500" letter-spacing="0em"><tspan x="539.527" y="162.676">&#x641;&#x64a; &#x648;&#x632;&#x627;&#x631;&#x629; &#x627;&#x644;&#x62a;&#x631;&#x628;&#x64a;&#x629; &#x648;&#x627;&#x644;&#x62a;&#x639;&#x644;&#x64a;&#x645; &#x62c;&#x645;&#x647;&#x648;&#x631;&#x64a;&#x629; &#x645;&#x635;&#x631; &#x627;&#x644;&#x639;&#x631;&#x628;&#x64a;&#x629;</tspan></text>
<path d="M520.526 165.006L522.953 163.32L527.153 164.973L532.638 160.666L536 161.832L528.146 168L520.526 165.006ZM517.489 165.288L521.642 166.921C519.103 167.058 516.549 167.125 513.993 167.123L517.489 165.288ZM496 164.805C496 162.181 501.77 158.658 509.552 157.629C507.856 156.966 506.485 156.137 505.535 155.198C504.585 154.26 504.078 153.234 504.05 152.193C503.919 150.882 504.891 149.599 506.752 148.626C508.613 147.652 511.213 147.068 513.982 147C516.751 147.068 519.35 147.653 521.211 148.626C523.072 149.599 524.044 150.882 523.914 152.193C523.888 153.234 523.383 154.259 522.436 155.197C521.488 156.136 520.12 156.966 518.427 157.629C522.765 158.239 526.547 159.52 529.169 161.267L526.597 163.285L522.505 161.671L518.817 164.232L514.783 159.133H514.815L516.465 158.146C515.676 158.301 514.833 158.383 513.98 158.389C513.126 158.382 512.283 158.3 511.493 158.146L513.134 159.133H513.181L508.941 164.49L513.98 167.123C504.99 167.121 496 166.351 496 164.805Z" fill="#CB9B00"/>
<path d="M744.993 81C746.377 81.0009 747.731 80.7379 748.884 80.244C750.036 79.7501 750.934 79.0477 751.465 78.2255C751.996 77.4033 752.136 76.4983 751.866 75.6251C751.597 74.7519 750.931 73.9495 749.952 73.3197C748.974 72.6899 747.726 72.2608 746.368 72.0868C745.01 71.9127 743.602 72.0018 742.323 72.3422C741.043 72.6827 739.95 73.2594 739.18 73.9995C738.411 74.7396 738 75.6097 738 76.4999C738.001 77.6924 738.738 78.8359 740.049 79.6796C741.36 80.5232 743.138 80.9981 744.993 81Z" fill="#00AEEF"/>
<path d="M744.993 203C746.377 203.001 747.731 202.738 748.884 202.244C750.036 201.75 750.934 201.048 751.465 200.225C751.996 199.403 752.136 198.498 751.866 197.625C751.597 196.752 750.931 195.95 749.952 195.32C748.974 194.69 747.726 194.261 746.368 194.087C745.01 193.913 743.602 194.002 742.323 194.342C741.043 194.683 739.95 195.259 739.18 196C738.411 196.74 738 197.61 738 198.5C738.001 199.692 738.738 200.836 740.049 201.68C741.36 202.523 743.138 202.998 744.993 203Z" fill="#00AEEF"/>
<path d="M744.993 280C746.377 280.001 747.731 279.738 748.884 279.244C750.036 278.75 750.934 278.048 751.465 277.225C751.996 276.403 752.136 275.498 751.866 274.625C751.597 273.752 750.931 272.95 749.952 272.32C748.974 271.69 747.726 271.261 746.368 271.087C745.01 270.913 743.602 271.002 742.323 271.342C741.043 271.683 739.95 272.259 739.18 273C738.411 273.74 738 274.61 738 275.5C738.001 276.692 738.738 277.836 740.049 278.68C741.36 279.523 743.138 279.998 744.993 280Z" fill="#00AEEF"/>
<path d="M744.993 370C746.377 370.001 747.731 369.738 748.884 369.244C750.036 368.75 750.934 368.048 751.465 367.225C751.996 366.403 752.136 365.498 751.866 364.625C751.597 363.752 750.931 362.95 749.952 362.32C748.974 361.69 747.726 361.261 746.368 361.087C745.01 360.913 743.602 361.002 742.323 361.342C741.043 361.683 739.95 362.259 739.18 363C738.411 363.74 738 364.61 738 365.5C738.001 366.692 738.738 367.836 740.049 368.68C741.36 369.523 743.138 369.998 744.993 370Z" fill="#00AEEF"/>
<path d="M744.993 475C746.377 475.001 747.731 474.738 748.884 474.244C750.036 473.75 750.934 473.048 751.465 472.225C751.996 471.403 752.136 470.498 751.866 469.625C751.597 468.752 750.931 467.95 749.952 467.32C748.974 466.69 747.726 466.261 746.368 466.087C745.01 465.913 743.602 466.002 742.323 466.342C741.043 466.683 739.95 467.259 739.18 468C738.411 468.74 738 469.61 738 470.5C738.001 471.692 738.738 472.836 740.049 473.68C741.36 474.523 743.138 474.998 744.993 475Z" fill="#00AEEF"/>
<path d="M744.993 562C746.377 562.001 747.731 561.738 748.884 561.244C750.036 560.75 750.934 560.048 751.465 559.225C751.996 558.403 752.136 557.498 751.866 556.625C751.597 555.752 750.931 554.95 749.952 554.32C748.974 553.69 747.726 553.261 746.368 553.087C745.01 552.913 743.602 553.002 742.323 553.342C741.043 553.683 739.95 554.259 739.18 555C738.411 555.74 738 556.61 738 557.5C738.001 558.692 738.738 559.836 740.049 560.68C741.36 561.523 743.138 561.998 744.993 562Z" fill="#00AEEF"/>
<path d="M744.993 634C746.377 634.001 747.731 633.738 748.884 633.244C750.036 632.75 750.934 632.048 751.465 631.225C751.996 630.403 752.136 629.498 751.866 628.625C751.597 627.752 750.931 626.95 749.952 626.32C748.974 625.69 747.726 625.261 746.368 625.087C745.01 624.913 743.602 625.002 742.323 625.342C741.043 625.683 739.95 626.259 739.18 627C738.411 627.74 738 628.61 738 629.5C738.001 630.692 738.738 631.836 740.049 632.68C741.36 633.523 743.138 633.998 744.993 634Z" fill="#00AEEF"/>
<path d="M744.993 707C746.377 707.001 747.731 706.738 748.884 706.244C750.036 705.75 750.934 705.048 751.465 704.225C751.996 703.403 752.136 702.498 751.866 701.625C751.597 700.752 750.931 699.95 749.952 699.32C748.974 698.69 747.726 698.261 746.368 698.087C745.01 697.913 743.602 698.002 742.323 698.342C741.043 698.683 739.95 699.259 739.18 700C738.411 700.74 738 701.61 738 702.5C738.001 703.692 738.738 704.836 740.049 705.68C741.36 706.523 743.138 706.998 744.993 707Z" fill="#00AEEF"/>
<path d="M744.993 790C746.377 790.001 747.731 789.738 748.884 789.244C750.036 788.75 750.934 788.048 751.465 787.225C751.996 786.403 752.136 785.498 751.866 784.625C751.597 783.752 750.931 782.95 749.952 782.32C748.974 781.69 747.726 781.261 746.368 781.087C745.01 780.913 743.602 781.002 742.323 781.342C741.043 781.683 739.95 782.259 739.18 783C738.411 783.74 738 784.61 738 785.5C738.001 786.692 738.738 787.836 740.049 788.68C741.36 789.523 743.138 789.998 744.993 790Z" fill="#00AEEF"/>
<text fill="#FF0000" xml:space="preserve" style="white-space: pre" font-family="Harmattan" font-size="20" font-weight="bold" letter-spacing="0em"><tspan x="450" y="788.116">&#x62d;&#x636;&#x648;&#x631; &#x62f;&#x628;&#x644;&#x648;&#x645;&#x629; &#x623; &#x645;&#x62d;&#x645;&#x62f; &#x631;&#x62c;&#x628; &#x627;&#x644;&#x644;&#x645;&#x635;&#x645;&#x645; &#x627;&#x644;&#x639;&#x627;&#x644;&#x645;&#x64a;</tspan></text>
<path d="M665.275 850.364C665.219 850.11 664.972 849.952 664.742 850.013C664.605 850.074 664.501 850.162 664.442 850.264C664.383 850.366 664.373 850.477 664.413 850.583L664.456 850.771L664.887 850.661L664.46 850.775C664.475 850.852 664.513 850.926 664.572 850.993C664.613 851.045 664.666 851.103 664.724 851.171C664.948 851.405 665.146 851.649 665.319 851.902C665.449 852.124 665.721 852.191 665.924 852.052C666.032 851.961 666.101 851.853 666.125 851.738C666.149 851.624 666.129 851.507 666.065 851.4C665.863 851.092 665.626 850.794 665.355 850.51C665.314 850.465 665.308 850.487 665.299 850.48L665.275 850.364Z" fill="#FFFFFE"/>
<path d="M663.849 851.758C663.793 852.012 663.546 852.17 663.316 852.109C662.762 851.968 662.991 851.284 663.293 850.953C663.517 850.719 663.716 850.475 663.888 850.222C664.018 850 664.291 849.933 664.494 850.072C664.602 850.164 664.671 850.272 664.695 850.386C664.719 850.501 664.698 850.617 664.635 850.724C664.453 851.034 663.878 851.574 663.843 851.758H663.849Z" fill="#FFFFFE"/>
<path d="M579.448 854.443L578.423 854.5L574.558 853.305V851.27L579.448 854.443Z" fill="#EEEEEE"/>
<path fill-rule="evenodd" clip-rule="evenodd" d="M566.085 848.064C566.247 848.064 566.381 848.207 566.381 848.38V854.317H565.79V848.38C565.79 848.204 565.922 848.064 566.085 848.064Z" fill="#FFFFFE"/>
<text fill="black" xml:space="preserve" style="white-space: pre" font-family="Harmattan" font-size="14" font-weight="500" letter-spacing="0em"><tspan x="466.459" y="812.881">&#x644;&#x644;&#x645;&#x635;&#x645;&#x645; &#x627;&#x644;&#x639;&#x631;&#x628;&#x64a; &#x623; / &#x645;&#x62d;&#x645;&#x62f; &#x631;&#x62c;&#x628; &#x641;&#x64a; &#x641;&#x646; &#x627;&#x644;&#x62a;&#x635;&#x645;&#x64a;&#x645; &#x644;&#x62c;&#x631;&#x627;&#x641;&#x64a;&#x643;&#x64a;</tspan></text>
<rect x="2" y="-2" width="805" height="838" transform="matrix(1 0 0 -1 0 838)" stroke="#01ADED" stroke-width="4"/>
<path d="M294.268 14H119.268V42H294.268V14Z" fill="#00AEEF"/>
<text fill="white" xml:space="preserve" style="white-space: pre" font-family="Harmattan" font-size="20" font-weight="bold" letter-spacing="0em"><tspan x="123" y="32.1162">Accredited certificates</tspan></text>
<text fill="black" xml:space="preserve" style="white-space: pre" font-family="Harmattan" font-size="14" font-weight="500" letter-spacing="0em"><tspan x="91.8281" y="97.8813">- Accredited and certified by Mansoura University</tspan></text>
<text fill="#FF0000" xml:space="preserve" style="white-space: pre" font-family="Harmattan" font-size="15" font-weight="500" letter-spacing="0em"><tspan x="51.709" y="76.0872">Bachelor of Education in Computer Teacher Training</tspan></text>
<text fill="#F30000" xml:space="preserve" style="white-space: pre" font-family="Harmattan" font-size="20" font-weight="500" letter-spacing="0em"><tspan x="196.668" y="203.116">ENGLISH 3 LEVELS </tspan></text>
<path d="M345.266 14.5967H342.917C337.698 14.5967 332.693 15.9663 329.002 18.4043C325.312 20.8423 323.239 24.1489 323.239 27.5967V29.1517C323.239 32.5995 325.312 35.9061 329.002 38.3441C332.693 40.7821 337.698 42.1517 342.917 42.1517H345.27C347.855 42.1517 350.413 41.8154 352.801 41.1621C355.188 40.5088 357.358 39.5512 359.185 38.3441C361.012 37.1369 362.462 35.7038 363.451 34.1266C364.439 32.5493 364.948 30.8589 364.948 29.1517V27.5967C364.948 25.8892 364.439 24.1985 363.45 22.6211C362.461 21.0437 361.011 19.6104 359.183 18.4032C357.356 17.196 355.186 16.2385 352.798 15.5854C350.41 14.9323 347.85 14.5963 345.266 14.5967Z" fill="#00AEEF" stroke="#707070"/>
<path d="M331.271 21.6045C332.214 21.6045 333.022 22.3475 333.568 23.5475C334.592 26.1856 334.592 28.9515 333.568 31.5895C333.022 32.7895 332.206 33.5325 331.271 33.5325C330.335 33.5325 329.519 32.7895 328.973 31.5895C327.952 28.9513 327.952 26.1857 328.973 23.5475C329.519 22.3475 330.328 21.6045 331.271 21.6045ZM331.741 25.2655C331.525 24.7915 331.265 24.4975 331.009 24.4975C330.753 24.4975 330.493 24.7905 330.276 25.2655C329.707 26.7758 329.707 28.3552 330.276 29.8655C330.491 30.3395 330.753 30.6335 331.009 30.6335C331.265 30.6335 331.525 30.3405 331.741 29.8655C332.311 28.3552 332.311 26.7758 331.741 25.2655Z" fill="#FFFFFE"/>
<path d="M345.554 29.5303C345.837 29.545 346.11 29.6081 346.345 29.7132C346.58 29.8184 346.77 29.9621 346.896 30.1303C347.257 30.5712 347.446 31.0647 347.444 31.5659C347.443 32.0672 347.252 32.5602 346.889 33.0003C346.77 33.1686 346.581 33.3111 346.344 33.4109C346.106 33.5107 345.831 33.5637 345.55 33.5637C345.269 33.5637 344.993 33.5107 344.756 33.4109C344.519 33.3111 344.33 33.1686 344.211 33.0003C343.843 32.5613 343.649 32.0678 343.648 31.5659C343.647 31.0641 343.838 30.5701 344.204 30.1303C344.331 29.9617 344.522 29.8178 344.759 29.7127C344.996 29.6075 345.269 29.5447 345.554 29.5303ZM346.218 30.8403C346.155 30.7563 346.06 30.6846 345.943 30.6323C345.831 30.5727 345.691 30.5402 345.548 30.5402C345.404 30.5402 345.265 30.5727 345.153 30.6323C345.035 30.6846 344.94 30.7563 344.877 30.8403C344.694 31.0604 344.599 31.3073 344.599 31.5583C344.599 31.8093 344.694 32.0562 344.877 32.2763C344.94 32.3603 345.035 32.432 345.153 32.4843C345.265 32.5439 345.404 32.5764 345.548 32.5764C345.691 32.5764 345.831 32.5439 345.943 32.4843C346.06 32.432 346.155 32.3603 346.218 32.2763C346.401 32.0562 346.497 31.8093 346.497 31.5583C346.497 31.3073 346.401 31.0604 346.218 30.8403Z" fill="#FFFFFE"/>
<path fill-rule="evenodd" clip-rule="evenodd" d="M346.459 29.8225C347.954 30.2225 348.178 31.3885 347.986 32.9295C349.1 33.0295 351.039 33.1735 352.167 33.3465C353.776 33.5957 355.363 33.9032 356.921 34.2675C356.974 34.2834 357.031 34.2915 357.089 34.2915C357.972 34.2915 358.727 33.4855 359.236 32.2565C359.741 30.9317 359.99 29.5697 359.974 28.2035C360.001 26.9215 359.763 25.6431 359.268 24.4035C358.76 23.2585 358.007 22.5505 357.126 22.5505H357.092C357.069 22.5495 357.045 22.5495 357.021 22.5505C353.488 22.9445 349.967 23.7005 346.46 23.7655L346.459 29.8225ZM344.423 23.7855H344.393C340.201 23.7855 336.017 23.0215 331.84 22.5525C331.482 22.5135 331.163 22.7915 331.127 23.1735C331.09 23.5555 331.351 23.8965 331.706 23.9355C332.233 23.9942 332.76 24.0498 333.288 24.1025C333.337 24.1978 333.384 24.2978 333.429 24.4025C334.427 27.0413 334.427 29.8017 333.429 32.4405L333.417 32.4665H333.43C332.825 32.6058 332.22 32.7578 331.614 32.9225C331.416 33.016 331.265 33.1468 331.181 33.298C331.097 33.4491 331.084 33.6134 331.143 33.7695C331.233 34.1425 331.587 34.3695 331.935 34.2695C333.799 33.7587 335.734 33.3683 337.713 33.1035C339.507 32.9016 341.318 32.7744 343.136 32.7225C342.996 32.2257 343.039 31.7138 343.263 31.2305C343.487 30.7473 343.885 30.3071 344.423 29.9475V23.7855Z" fill="#FFFFFE"/>
<text fill="#FF0000" xml:space="preserve" style="white-space: pre" font-family="Harmattan" font-size="20" font-weight="500" letter-spacing="0em"><tspan x="208.793" y="277.116">Digital marketing </tspan></text>
<text fill="black" xml:space="preserve" style="white-space: pre" font-family="Harmattan" font-size="12" font-weight="500" letter-spacing="0.05em"><tspan x="45.8602" y="301.97">Holder of an accredited and authenticated certificate from </tspan><tspan x="52.4273" y="316.97">the Faculty of Engineering, Mansoura University, pending </tspan><tspan x="286.024" y="331.97">issuance.</tspan></text>
<text fill="black" xml:space="preserve" style="white-space: pre" font-family="Harmattan" font-size="12" font-weight="500" letter-spacing="0.05em"><tspan x="45.8602" y="425.97">Holder of an accredited and authenticated certificate from </tspan><tspan x="52.4273" y="440.97">the Faculty of Engineering, Mansoura University, pending </tspan><tspan x="286.024" y="455.97">issuance.</tspan></text>
<text fill="black" xml:space="preserve" style="white-space: pre" font-family="Harmattan" font-size="12" font-weight="500" letter-spacing="0.05em"><tspan x="45.8602" y="513.97">Holder of an accredited and authenticated certificate from </tspan><tspan x="52.4273" y="528.97">the Faculty of Engineering, Mansoura University, pending </tspan><tspan x="286.024" y="543.97">issuance.</tspan></text>
<text fill="black" xml:space="preserve" style="white-space: pre" font-family="Harmattan" font-size="12" font-weight="500" letter-spacing="0.05em"><tspan x="45.8602" y="581.97">Holder of an accredited and authenticated certificate from </tspan><tspan x="52.4273" y="596.97">the Faculty of Engineering, Mansoura University, pending </tspan><tspan x="286.024" y="611.97">issuance.</tspan></text>
<text fill="black" xml:space="preserve" style="white-space: pre" font-family="Harmattan" font-size="12" font-weight="500" letter-spacing="0.05em"><tspan x="45.8602" y="723.97">Holder of an accredited and authenticated certificate from </tspan><tspan x="52.4273" y="738.97">the Faculty of Engineering, Mansoura University, pending </tspan><tspan x="286.024" y="753.97">issuance.</tspan></text>
<text fill="black" xml:space="preserve" style="white-space: pre" font-family="Harmattan" font-size="12" font-weight="500" letter-spacing="0.05em"><tspan x="46.3524" y="218.97">Holder of an accredited and authenticated certificate from </tspan><tspan x="52.9195" y="233.97">the Faculty of Engineering, Mansoura University, pending </tspan><tspan x="286.516" y="248.97">issuance.</tspan></text>
<text fill="#FF0000" xml:space="preserve" style="white-space: pre" font-family="Harmattan" font-size="20" font-weight="500" letter-spacing="0.06em"><tspan x="39.6742" y="375.116">ICDL (WIN-WORD-EXCEL-ACCESS-</tspan><tspan x="64.6352" y="409.116">POWERPOINT - INTERNET - IT) </tspan></text>
<text fill="#FF0000" xml:space="preserve" style="white-space: pre" font-family="Harmattan" font-size="20" font-weight="500" letter-spacing="0em"><tspan x="183.148" y="494.116">MANGMENT SKILLS </tspan></text>
<text fill="#FF0000" xml:space="preserve" style="white-space: pre" font-family="Harmattan" font-size="20" font-weight="500" letter-spacing="0em"><tspan x="192" y="569.116">PERSONAL SKILLS </tspan></text>
<text fill="#FF0000" xml:space="preserve" style="white-space: pre" font-family="Harmattan" font-size="20" font-weight="500" letter-spacing="0em"><tspan x="220" y="703.116">Graphic design</tspan></text>
<text fill="#FF0000" xml:space="preserve" style="white-space: pre" font-family="Harmattan" font-size="20" font-weight="500" letter-spacing="0em"><tspan x="45" y="634.116">Occupational Safety and Health (OSHA)</tspan></text>
<text fill="black" xml:space="preserve" style="white-space: pre" font-family="Harmattan" font-size="11" font-weight="500" letter-spacing="0em"><tspan x="64.2227" y="651.764">Obtained an American international certificate, certified by the Egyptian </tspan><tspan x="109.254" y="670.764">Ministry of Foreign Affairs + the American international card</tspan></text>
<text fill="#FF0000" xml:space="preserve" style="white-space: pre" font-family="Harmattan" font-size="15" font-weight="500" letter-spacing="0em"><tspan x="70.7988" y="129.587">A unified account + teacher code for a math and </tspan><tspan x="191.121" y="146.587">computer science teacher</tspan></text>
<text fill="black" xml:space="preserve" style="white-space: pre" font-family="Harmattan" font-size="13" font-weight="500" letter-spacing="0em"><tspan x="92.8271" y="162.676">At the Ministry of Education, Arab Republic of Egypt</tspan></text>
<path d="M79.0181 165.006L81.4451 163.32L85.645 164.973L91.1297 160.666L94.4922 161.832L86.6379 168L79.0181 165.006ZM75.9816 165.288L80.1346 166.921C77.595 167.058 75.0409 167.125 72.4849 167.123L75.9816 165.288ZM54.4922 164.805C54.4922 162.181 60.2625 158.658 68.0443 157.629C66.3483 156.966 64.9775 156.137 64.0274 155.198C63.0772 154.26 62.5705 153.234 62.5425 152.193C62.4114 150.882 63.3828 149.599 65.2441 148.626C67.1054 147.652 69.7051 147.068 72.4743 147C75.2431 147.068 77.8421 147.653 79.7032 148.626C81.5642 149.599 82.536 150.882 82.4061 152.193C82.3799 153.234 81.8755 154.259 80.9279 155.197C79.9804 156.136 78.6124 156.966 76.9192 157.629C81.2574 158.239 85.0389 159.52 87.6607 161.267L85.0888 163.285L80.9976 161.671L77.3091 164.232L73.2755 159.133H73.3074L74.9567 158.146C74.1683 158.301 73.3253 158.383 72.4722 158.389C71.6186 158.382 70.7753 158.3 69.9855 158.146L71.6262 159.133H71.6731L67.4327 164.49L72.4722 167.123C63.4822 167.121 54.4922 166.351 54.4922 164.805Z" fill="#CB9B00"/>
<path d="M341.995 375C342.984 375.001 343.951 374.796 344.774 374.412C345.597 374.028 346.239 373.482 346.618 372.842C346.997 372.203 347.097 371.499 346.905 370.82C346.712 370.14 346.236 369.516 345.537 369.026C344.838 368.537 343.947 368.203 342.977 368.067C342.007 367.932 341.002 368.001 340.088 368.266C339.174 368.531 338.393 368.98 337.843 369.555C337.293 370.131 337 370.808 337 371.5C337.001 372.427 337.527 373.317 338.463 373.973C339.4 374.629 340.67 374.999 341.995 375Z" fill="#00AEEF"/>
<path d="M341.995 492C342.984 492.001 343.951 491.796 344.774 491.412C345.597 491.028 346.239 490.482 346.618 489.842C346.997 489.203 347.097 488.499 346.905 487.82C346.712 487.14 346.236 486.516 345.537 486.026C344.838 485.537 343.947 485.203 342.977 485.067C342.007 484.932 341.002 485.001 340.088 485.266C339.174 485.531 338.393 485.98 337.843 486.555C337.293 487.131 337 487.808 337 488.5C337.001 489.427 337.527 490.317 338.463 490.973C339.4 491.629 340.67 491.999 341.995 492Z" fill="#00AEEF"/>
<path d="M341.995 569C342.984 569.001 343.951 568.796 344.774 568.412C345.597 568.028 346.239 567.482 346.618 566.842C346.997 566.203 347.097 565.499 346.905 564.82C346.712 564.14 346.236 563.516 345.537 563.026C344.838 562.537 343.947 562.203 342.977 562.067C342.007 561.932 341.002 562.001 340.088 562.266C339.174 562.531 338.393 562.98 337.843 563.555C337.293 564.131 337 564.808 337 565.5C337.001 566.427 337.527 567.317 338.463 567.973C339.4 568.629 340.67 568.999 341.995 569Z" fill="#00AEEF"/>
<path d="M341.995 633C342.984 633.001 343.951 632.796 344.774 632.412C345.597 632.028 346.239 631.482 346.618 630.842C346.997 630.203 347.097 629.499 346.905 628.82C346.712 628.14 346.236 627.516 345.537 627.026C344.838 626.537 343.947 626.203 342.977 626.067C342.007 625.932 341.002 626.001 340.088 626.266C339.174 626.531 338.393 626.98 337.843 627.555C337.293 628.131 337 628.808 337 629.5C337.001 630.427 337.527 631.317 338.463 631.973C339.4 632.629 340.67 632.999 341.995 633Z" fill="#00AEEF"/>
<path d="M341.995 706C342.984 706.001 343.951 705.796 344.774 705.412C345.597 705.028 346.239 704.482 346.618 703.842C346.997 703.203 347.097 702.499 346.905 701.82C346.712 701.14 346.236 700.516 345.537 700.026C344.838 699.537 343.947 699.203 342.977 699.067C342.007 698.932 341.002 699.001 340.088 699.266C339.174 699.531 338.393 699.98 337.843 700.555C337.293 701.131 337 701.808 337 702.5C337.001 703.427 337.527 704.317 338.463 704.973C339.4 705.629 340.67 705.999 341.995 706Z" fill="#00AEEF"/>
<path d="M341.995 792C342.984 792.001 343.951 791.796 344.774 791.412C345.597 791.028 346.239 790.482 346.618 789.842C346.997 789.203 347.097 788.499 346.905 787.82C346.712 787.14 346.236 786.516 345.537 786.026C344.838 785.537 343.947 785.203 342.977 785.067C342.007 784.932 341.002 785.001 340.088 785.266C339.174 785.531 338.393 785.98 337.843 786.555C337.293 787.131 337 787.808 337 788.5C337.001 789.427 337.527 790.317 338.463 790.973C339.4 791.629 340.67 791.999 341.995 792Z" fill="#00AEEF"/>
<path d="M341.995 280C342.984 280.001 343.951 279.796 344.774 279.412C345.597 279.028 346.239 278.482 346.618 277.842C346.997 277.203 347.097 276.499 346.905 275.82C346.712 275.14 346.236 274.516 345.537 274.026C344.838 273.537 343.947 273.203 342.977 273.067C342.007 272.932 341.002 273.001 340.088 273.266C339.174 273.531 338.393 273.98 337.843 274.555C337.293 275.131 337 275.808 337 276.5C337.001 277.427 337.527 278.317 338.463 278.973C339.4 279.629 340.67 279.999 341.995 280Z" fill="#00AEEF"/>
<path d="M341.995 202C342.984 202.001 343.951 201.796 344.774 201.412C345.597 201.028 346.239 200.482 346.618 199.842C346.997 199.203 347.097 198.499 346.905 197.82C346.712 197.14 346.236 196.516 345.537 196.026C344.838 195.537 343.947 195.203 342.977 195.067C342.007 194.932 341.002 195.001 340.088 195.266C339.174 195.531 338.393 195.98 337.843 196.555C337.293 197.131 337 197.808 337 198.5C337.001 199.427 337.527 200.317 338.463 200.973C339.4 201.629 340.67 201.999 341.995 202Z" fill="#00AEEF"/>
<path d="M341.995 129C342.984 129.001 343.951 128.796 344.774 128.412C345.597 128.028 346.239 127.482 346.618 126.842C346.997 126.203 347.097 125.499 346.905 124.82C346.712 124.14 346.236 123.516 345.537 123.026C344.838 122.537 343.947 122.203 342.977 122.067C342.007 121.932 341.002 122.001 340.088 122.266C339.174 122.531 338.393 122.98 337.843 123.555C337.293 124.131 337 124.808 337 125.5C337.001 126.427 337.527 127.317 338.463 127.973C339.4 128.629 340.67 128.999 341.995 129Z" fill="#00AEEF"/>
<path d="M341.995 76C342.984 76.0007 343.951 75.7962 344.774 75.412C345.597 75.0279 346.239 74.4815 346.618 73.8421C346.997 73.2026 347.097 72.4987 346.905 71.8195C346.712 71.1403 346.236 70.5163 345.537 70.0264C344.838 69.5366 343.947 69.2028 342.977 69.0675C342.007 68.9321 341.002 69.0014 340.088 69.2662C339.174 69.531 338.393 69.9795 337.843 70.5552C337.293 71.1308 337 71.8075 337 72.4999C337.001 73.4274 337.527 74.3168 338.463 74.973C339.4 75.6292 340.67 75.9985 341.995 76Z" fill="#00AEEF"/>
<text fill="#FF0000" xml:space="preserve" style="white-space: pre" font-family="Harmattan" font-size="11" font-weight="500" letter-spacing="0em"><tspan x="54" y="789.764">Attending the diploma of Mohamed Ragab, the international designer</tspan></text>
<text fill="black" xml:space="preserve" style="white-space: pre" font-family="Harmattan" font-size="14" font-weight="500" letter-spacing="0em"><tspan x="71.9697" y="812.881">For the Arab designer Mr. Mohamed Ragab in the art </tspan><tspan x="161.049" y="830.881">of graphic design</tspan></text>
<rect x="408" y="3" width="15" height="839" fill="url(#paint0_linear_0_1)"/>
<defs>
<linearGradient id="paint0_linear_0_1" x1="423" y1="422.5" x2="408" y2="422.5" gradientUnits="userSpaceOnUse">
<stop offset="0.432692" stop-color="#FF0000"/>
<stop offset="0.475962"/>
<stop offset="0.476062" stop-color="#00B3FF"/>
</linearGradient>
</defs>
</svg>
