<svg width="345" height="179" viewBox="0 0 345 179" fill="none" xmlns="http://www.w3.org/2000/svg">
<path d="M175.325 173.001H156.462C156.184 173.001 155.917 172.926 155.721 172.793C155.524 172.66 155.414 172.48 155.414 172.291C155.414 172.103 155.524 171.923 155.721 171.79C155.917 171.656 156.184 171.582 156.462 171.582H175.325C175.603 171.582 175.869 171.656 176.066 171.79C176.262 171.923 176.373 172.103 176.373 172.291C176.373 172.48 176.262 172.66 176.066 172.793C175.869 172.926 175.603 173.001 175.325 173.001Z" fill="#EEEEEE"/>
<path d="M169.038 173.711C168.76 173.711 168.493 173.636 168.297 173.503C168.1 173.37 167.99 173.189 167.99 173.001V171.582C167.99 171.393 168.1 171.213 168.297 171.08C168.493 170.947 168.76 170.872 169.038 170.872C169.316 170.872 169.582 170.947 169.779 171.08C169.975 171.213 170.086 171.393 170.086 171.582V173.001C170.086 173.189 169.975 173.37 169.779 173.503C169.582 173.636 169.316 173.711 169.038 173.711Z" fill="#00AEEF"/>
<path d="M156.462 171.582C156.184 171.582 155.917 171.656 155.721 171.79C155.524 171.923 155.414 172.103 155.414 172.291C155.414 172.48 155.524 172.66 155.721 172.793C155.917 172.926 156.184 173.001 156.462 173.001H165.893V171.582H156.462Z" fill="#FAFAFA"/>
<path d="M207.462 170.923H203.794V174.154H207.462V170.923Z" fill="#00AEEF"/>
<path d="M201.173 172.264H196.127C195.848 172.264 195.622 172.115 195.622 171.931C195.622 171.747 195.848 171.597 196.127 171.597H201.173C201.452 171.597 201.677 171.747 201.677 171.931C201.677 172.115 201.452 172.264 201.173 172.264Z" fill="#EF0000"/>
<path d="M201.173 173.597H196.127C195.848 173.597 195.622 173.448 195.622 173.264C195.622 173.08 195.848 172.931 196.127 172.931H201.173C201.452 172.931 201.677 173.08 201.677 173.264C201.677 173.448 201.452 173.597 201.173 173.597Z" fill="#EF0000"/>
<path d="M201.173 174.931H196.127C195.848 174.931 195.622 174.782 195.622 174.598C195.622 174.413 195.848 174.264 196.127 174.264H201.173C201.452 174.264 201.677 174.413 201.677 174.598C201.677 174.782 201.452 174.931 201.173 174.931Z" fill="#EF0000"/>
<path d="M119.435 176.173V178.192H147.554V176.173L133.559 174.962L119.435 176.173Z" fill="#EEEEEE"/>
<path d="M119.435 174.558V176.577H147.554V174.558L133.559 173.346L119.435 174.558Z" fill="#DCDCDC"/>
<path d="M148.289 177.385C148.02 177.385 147.802 177.54 147.802 177.731V178.308H119.188V177.731C119.188 177.54 118.97 177.385 118.7 177.385C118.431 177.385 118.212 177.54 118.212 177.731V178.654C118.212 178.845 118.431 179 118.7 179H148.289C148.559 179 148.777 178.845 148.777 178.654V177.731C148.777 177.54 148.559 177.385 148.289 177.385Z" fill="#00AEEF"/>
<path d="M148.289 174.962C148.02 174.962 147.802 175.116 147.802 175.308V175.885H119.188V175.308C119.188 175.116 118.97 174.962 118.7 174.962C118.431 174.962 118.212 175.116 118.212 175.308V176.231C118.212 176.422 118.431 176.577 118.7 176.577H148.289C148.559 176.577 148.777 176.422 148.777 176.231V175.308C148.777 175.116 148.559 174.962 148.289 174.962Z" fill="#00AEEF"/>
<g filter="url(#filter0_d_74_7557)">
<mask id="path-12-inside-1_74_7557" fill="white">
<path d="M296.492 1H40.4922V1H296.492V1Z"/>
</mask>
<path d="M296.492 1H40.4922V1H296.492V1Z" fill="#231F20"/>
<path d="M296.492 0.7H40.4922V1.3H296.492V0.7ZM40.4922 1.3H296.492V0.7H40.4922V1.3Z" fill="black" mask="url(#path-12-inside-1_74_7557)"/>
</g>
<path d="M0.492188 14L0.492166 75" stroke="white"/>
<path d="M0.492188 14L0.492166 75" stroke="white"/>
<path d="M167.931 8H296.909C298.089 8 299.257 8.23235 300.347 8.68379C301.436 9.13523 302.427 9.79691 303.261 10.6311C304.095 11.4652 304.757 12.4555 305.208 13.5454C305.66 14.6352 305.892 15.8033 305.892 16.983V33.152H167.931C164.596 33.152 161.397 31.827 159.038 29.4686C156.68 27.1101 155.355 23.9114 155.355 20.576C155.355 17.2406 156.68 14.0419 159.038 11.6834C161.397 9.32497 164.596 8 167.931 8Z" fill="#00AEEF"/>
<path d="M187.619 24.1685C186.481 24.1685 185.583 24.0586 184.924 23.8389C184.27 23.6191 183.803 23.3311 183.525 22.9746C183.251 22.6133 183.115 22.2227 183.115 21.8027C183.115 21.4023 183.208 21.0264 183.393 20.6748C183.583 20.3184 183.864 19.9644 184.235 19.6128C184.333 19.6372 184.445 19.6958 184.572 19.7886C184.699 19.8765 184.792 19.9619 184.851 20.0449C184.709 20.2939 184.604 20.5234 184.536 20.7334C184.472 20.9434 184.44 21.1338 184.44 21.3047C184.44 21.7051 184.594 22.02 184.902 22.2495C185.214 22.479 185.632 22.6426 186.154 22.7402C186.677 22.8379 187.26 22.8867 187.905 22.8867C188.793 22.8867 189.499 22.8159 190.021 22.6743C190.549 22.5278 190.847 22.23 190.915 21.7808C190.954 21.5317 190.974 21.1973 190.974 20.7773C190.974 20.1914 190.947 19.5273 190.893 18.7852C190.844 18.0381 190.793 17.2251 190.739 16.3462C190.822 16.1753 191.008 16.0239 191.296 15.8921C191.589 15.7603 191.889 15.6821 192.197 15.6577C192.221 15.8188 192.238 16.0703 192.248 16.4121C192.258 16.7539 192.263 17.291 192.263 18.0234C192.263 18.9316 192.255 19.6812 192.241 20.272C192.231 20.8579 192.211 21.3315 192.182 21.6929C192.153 22.0542 192.111 22.3398 192.058 22.5498C192.009 22.7549 191.943 22.9307 191.86 23.0771C191.762 23.2529 191.56 23.4263 191.252 23.5972C190.944 23.7632 190.495 23.8999 189.904 24.0073C189.318 24.1147 188.557 24.1685 187.619 24.1685ZM186.711 21.8247C186.516 21.7563 186.376 21.6367 186.293 21.4658C186.21 21.2949 186.169 21.1533 186.169 21.041C186.516 21.0215 186.813 21.002 187.062 20.9824C187.312 20.958 187.585 20.9067 187.883 20.8286C187.224 20.6772 186.782 20.4868 186.557 20.2573C186.337 20.0278 186.228 19.791 186.228 19.5469C186.228 19.127 186.391 18.8169 186.718 18.6167C187.05 18.4165 187.438 18.3164 187.883 18.3164C188.181 18.3164 188.505 18.3628 188.857 18.4556C188.862 18.4751 188.867 18.5093 188.872 18.5581C188.881 18.6069 188.886 18.6729 188.886 18.7559C188.886 18.8242 188.879 18.9097 188.864 19.0122C188.854 19.1099 188.83 19.1807 188.791 19.2246C188.625 19.1709 188.471 19.1343 188.33 19.1147C188.193 19.0952 188.063 19.0854 187.941 19.0854C187.697 19.0854 187.497 19.1221 187.341 19.1953C187.185 19.2637 187.106 19.376 187.106 19.5322C187.106 19.6299 187.155 19.7251 187.253 19.8179C187.355 19.9058 187.548 19.9985 187.832 20.0962C188.115 20.189 188.532 20.2939 189.084 20.4111C189.089 20.4453 189.091 20.4795 189.091 20.5137C189.091 20.543 189.091 20.5771 189.091 20.6162C189.091 20.6748 189.089 20.7603 189.084 20.8726C189.079 20.98 189.072 21.0679 189.062 21.1362C188.94 21.229 188.74 21.3291 188.461 21.4365C188.188 21.5391 187.89 21.627 187.568 21.7002C187.25 21.7734 186.965 21.8149 186.711 21.8247ZM192.834 24.0732C192.458 24.0732 192.133 24.0342 191.86 23.9561C191.591 23.8779 191.354 23.7363 191.149 23.5312L191.772 22.4253C191.884 22.562 192.026 22.6572 192.197 22.7109C192.373 22.7646 192.585 22.7915 192.834 22.7915H193.273V24.0732H192.834ZM192.98 24.0732V22.7915H193.127C193.532 22.7915 193.83 22.7256 194.021 22.5938C194.216 22.457 194.34 22.3179 194.394 22.1763C194.453 22.0298 194.482 21.9419 194.482 21.9126C194.482 21.8735 194.472 21.7905 194.453 21.6636C194.433 21.5366 194.411 21.4121 194.387 21.29C194.367 21.1631 194.357 21.0874 194.357 21.063C194.494 20.9946 194.704 20.9287 194.987 20.8652C195.275 20.7969 195.527 20.7603 195.742 20.7554C195.878 21.3071 196.03 21.7319 196.196 22.0298C196.362 22.3228 196.542 22.5229 196.738 22.6304C196.938 22.7378 197.15 22.7915 197.375 22.7915H197.521V24.0732H197.375C196.96 24.0732 196.569 23.9927 196.203 23.8315C195.837 23.6655 195.527 23.3774 195.273 22.9673C195.092 23.3579 194.804 23.6411 194.409 23.8169C194.018 23.9878 193.591 24.0732 193.127 24.0732H192.98ZM196.049 26.6953C195.791 26.5098 195.549 26.3145 195.324 26.1094C195.104 25.9043 194.98 25.7676 194.951 25.6992L195.888 24.6665L197.082 25.6479C196.882 25.9214 196.672 26.1582 196.452 26.3584C196.237 26.5635 196.103 26.6758 196.049 26.6953ZM194.401 26.8198C194.143 26.6343 193.903 26.439 193.684 26.2339C193.464 26.0337 193.337 25.897 193.303 25.8237L194.24 24.791L195.434 25.7798C195.161 26.1265 194.934 26.3828 194.753 26.5488C194.572 26.7148 194.455 26.8052 194.401 26.8198ZM199.697 24.0806C199.292 24.0806 198.996 24.0806 198.811 24.0806C198.625 24.0806 198.496 24.0781 198.422 24.0732C198.354 24.0732 198.295 24.0732 198.247 24.0732C198.198 24.0732 198.112 24.0732 197.99 24.0732C197.873 24.0732 197.668 24.0732 197.375 24.0732H197.229V22.7915H197.375C197.917 22.7915 198.33 22.7915 198.613 22.7915C198.896 22.7915 199.121 22.7939 199.287 22.7988C199.458 22.7988 199.643 22.7988 199.843 22.7988C200.322 22.7988 200.69 22.7769 200.949 22.7329C201.213 22.6841 201.411 22.5156 201.542 22.2275C201.386 22.3057 201.186 22.3594 200.942 22.3887C200.698 22.4131 200.517 22.4253 200.4 22.4253C199.887 22.4204 199.467 22.313 199.14 22.103C198.818 21.8882 198.579 21.6172 198.422 21.29C198.271 20.9629 198.195 20.6284 198.195 20.2866C198.195 19.9546 198.281 19.6299 198.452 19.3125C198.627 18.9902 198.879 18.7241 199.206 18.5142C199.538 18.3042 199.936 18.1992 200.4 18.1992C200.996 18.1992 201.503 18.3848 201.923 18.7559C202.343 19.127 202.644 19.7471 202.824 20.6162L203.212 20.499C203.242 20.5674 203.264 20.6675 203.278 20.7993C203.293 20.9263 203.3 21.0459 203.3 21.1582C203.3 21.3389 203.269 21.5562 203.205 21.8101L202.868 21.9126C202.741 22.5376 202.517 23.0063 202.194 23.3188C201.877 23.6265 201.501 23.8315 201.066 23.9341C200.632 24.0317 200.175 24.0806 199.697 24.0806ZM200.554 21.1582C200.827 21.1582 201.015 21.146 201.118 21.1216C201.225 21.0972 201.379 21.0581 201.579 21.0044C201.511 20.4966 201.369 20.106 201.154 19.8325C200.939 19.5591 200.659 19.4224 200.312 19.4224C200.073 19.4224 199.873 19.498 199.711 19.6494C199.55 19.8008 199.47 20.001 199.47 20.25C199.47 20.5039 199.56 20.7188 199.741 20.8945C199.926 21.0703 200.197 21.1582 200.554 21.1582ZM200.283 17.7378C200.009 17.5376 199.758 17.3325 199.528 17.1226C199.299 16.9126 199.167 16.771 199.133 16.6978L200.107 15.5405L201.359 16.5659C201.037 16.9663 200.791 17.2568 200.62 17.4375C200.454 17.6182 200.341 17.7183 200.283 17.7378ZM204.655 24.4614C204.66 24.3052 204.663 24.1318 204.663 23.9414C204.667 23.7461 204.67 23.541 204.67 23.3262C204.67 22.8281 204.663 22.2886 204.648 21.7075C204.633 21.1216 204.614 20.5405 204.589 19.9644C204.57 19.3882 204.548 18.8584 204.523 18.375C204.499 17.8867 204.479 17.4863 204.465 17.1738C204.45 16.8613 204.443 16.6831 204.443 16.6392C204.501 16.4487 204.631 16.2974 204.831 16.1851C205.036 16.0679 205.249 15.98 205.468 15.9214C205.688 15.8579 205.852 15.8188 205.959 15.8042C205.969 15.8628 205.976 15.9702 205.981 16.1265C205.986 16.2827 205.988 16.4365 205.988 16.5879C205.993 16.7344 205.996 16.8223 205.996 16.8516C205.996 17.0957 205.993 17.4473 205.988 17.9062C205.988 18.3604 205.983 18.873 205.974 19.4443C205.969 20.0156 205.961 20.5942 205.952 21.1802C205.942 21.7612 205.93 22.3008 205.915 22.7988C205.9 23.2969 205.886 23.7021 205.871 24.0146C205.773 24.1416 205.59 24.2417 205.322 24.3149C205.058 24.3882 204.836 24.437 204.655 24.4614ZM205.534 29.0977C205.334 28.9707 205.17 28.7998 205.043 28.585C204.917 28.3701 204.846 28.1113 204.831 27.8086C205.378 27.6084 205.859 27.3423 206.274 27.0103C206.689 26.6782 207.014 26.2412 207.248 25.6992C207.487 25.1621 207.607 24.4834 207.607 23.6631C207.607 23.209 207.58 22.7939 207.526 22.418C207.473 22.0371 207.419 21.6465 207.365 21.2461C207.512 21.168 207.727 21.085 208.01 20.9971C208.293 20.9043 208.532 20.853 208.728 20.8433C208.928 21.4341 209.152 21.9077 209.401 22.2642C209.65 22.6157 210.034 22.7915 210.551 22.7915H210.698V24.0732H210.551C210.151 24.0732 209.809 24.0122 209.526 23.8901C209.248 23.7632 209.016 23.6045 208.83 23.4141C208.84 23.5215 208.847 23.6216 208.852 23.7144C208.857 23.8022 208.859 23.917 208.859 24.0586C208.859 25.2158 208.574 26.2217 208.002 27.0762C207.431 27.9355 206.608 28.6094 205.534 29.0977ZM210.412 24.0732V22.7915H210.559C210.993 22.7915 211.406 22.7231 211.796 22.5864C212.192 22.4448 212.614 22.2764 213.063 22.0811C213.518 21.8857 214.05 21.7026 214.66 21.5317C214.26 21.2681 213.952 21.1021 213.737 21.0337C213.527 20.9604 213.305 20.9238 213.071 20.9238C212.822 20.9238 212.565 20.98 212.302 21.0923C212.038 21.2046 211.765 21.356 211.481 21.5464C211.398 21.5122 211.306 21.4609 211.203 21.3926C211.101 21.3193 211.02 21.2437 210.961 21.1655C211.342 20.5991 211.755 20.1816 212.199 19.9131C212.644 19.6396 213.044 19.5029 213.4 19.5029C213.767 19.5029 214.096 19.5859 214.389 19.752C214.687 19.918 214.982 20.1182 215.275 20.3525C215.568 20.582 215.896 20.8018 216.257 21.0117C216.618 21.2168 217.048 21.3633 217.546 21.4512C217.517 21.6074 217.458 21.8003 217.37 22.0298C217.282 22.2593 217.189 22.4277 217.092 22.5352C216.779 22.4619 216.486 22.4253 216.213 22.4253C215.754 22.4253 215.288 22.5083 214.814 22.6743C214.34 22.8403 213.867 23.0332 213.393 23.2529C212.919 23.4678 212.448 23.6582 211.979 23.8242C211.516 23.9902 211.059 24.0732 210.61 24.0732C210.546 24.0732 210.51 24.0732 210.5 24.0732C210.485 24.0732 210.456 24.0732 210.412 24.0732ZM217.744 24.0732C216.743 24.0732 216.013 23.9292 215.554 23.6411C215.1 23.353 214.807 22.9624 214.675 22.4692L215.861 22.3447C215.9 22.4766 216.032 22.5742 216.257 22.6377C216.486 22.7012 216.743 22.7427 217.026 22.7622C217.309 22.7817 217.548 22.7915 217.744 22.7915H217.949V24.0732H217.744ZM213.378 26.2705C213.105 26.0703 212.854 25.8652 212.624 25.6553C212.395 25.4453 212.263 25.3037 212.229 25.2305L213.203 24.0732L214.455 25.0986C214.133 25.499 213.886 25.7896 213.715 25.9702C213.549 26.1509 213.437 26.251 213.378 26.2705ZM217.663 24.0732V22.7915H217.81C218.273 22.7915 218.608 22.7476 218.813 22.6597C219.023 22.5669 219.155 22.4375 219.208 22.2715C219.267 22.1055 219.296 21.9126 219.296 21.6929C219.296 21.5269 219.289 21.2656 219.274 20.9092C219.265 20.5527 219.248 20.1548 219.223 19.7153C219.204 19.271 219.184 18.8364 219.165 18.4116C219.145 17.9819 219.125 17.606 219.106 17.2837C219.091 16.9614 219.079 16.7466 219.069 16.6392C219.152 16.4683 219.345 16.3047 219.648 16.1484C219.951 15.9922 220.256 15.9019 220.563 15.8774C220.578 15.936 220.588 16.0752 220.593 16.2949C220.598 16.5098 220.6 16.749 220.6 17.0127C220.6 17.2764 220.6 17.5083 220.6 17.7085C220.6 18.314 220.605 18.9634 220.615 19.6567C220.629 20.3501 220.637 21.1411 220.637 22.0298C220.637 22.3911 220.544 22.728 220.358 23.0405C220.173 23.3481 219.873 23.5972 219.458 23.7876C219.042 23.978 218.493 24.0732 217.81 24.0732H217.663ZM222.058 24.4614C222.062 24.3052 222.065 24.1318 222.065 23.9414C222.07 23.7461 222.072 23.541 222.072 23.3262C222.072 22.8281 222.065 22.2886 222.05 21.7075C222.036 21.1216 222.016 20.5405 221.992 19.9644C221.972 19.3882 221.95 18.8584 221.926 18.375C221.901 17.8867 221.882 17.4863 221.867 17.1738C221.853 16.8613 221.845 16.6831 221.845 16.6392C221.904 16.4487 222.033 16.2974 222.233 16.1851C222.438 16.0679 222.651 15.98 222.871 15.9214C223.09 15.8579 223.254 15.8188 223.361 15.8042C223.371 15.8628 223.378 15.9702 223.383 16.1265C223.388 16.2827 223.391 16.4365 223.391 16.5879C223.396 16.7344 223.398 16.8223 223.398 16.8516C223.398 17.0957 223.396 17.4473 223.391 17.9062C223.391 18.3604 223.386 18.873 223.376 19.4443C223.371 20.0156 223.364 20.5942 223.354 21.1802C223.344 21.7612 223.332 22.3008 223.317 22.7988C223.303 23.2969 223.288 23.7021 223.273 24.0146C223.176 24.1416 222.993 24.2417 222.724 24.3149C222.46 24.3882 222.238 24.437 222.058 24.4614ZM227.727 28.5264C227.575 28.4287 227.446 28.2603 227.338 28.021C227.226 27.7817 227.155 27.5449 227.126 27.3105C227.766 27.1006 228.251 26.8418 228.583 26.5342C228.916 26.2266 229.143 25.8359 229.265 25.3623C229.387 24.8887 229.448 24.3003 229.448 23.5972C229.448 22.7964 229.484 22.1665 229.558 21.7075C229.631 21.2437 229.782 20.8481 230.012 20.521C230.212 20.2329 230.485 20.0107 230.832 19.8545C231.179 19.6982 231.542 19.6201 231.923 19.6201C232.343 19.6201 232.736 19.7153 233.103 19.9058C233.469 20.0913 233.764 20.3745 233.989 20.7554C234.218 21.1313 234.333 21.605 234.333 22.1763C234.333 22.6353 234.228 23.021 234.018 23.3335C233.808 23.646 233.535 23.8828 233.198 24.0439C232.861 24.2051 232.504 24.2856 232.128 24.2856C231.723 24.2856 231.328 24.1904 230.942 24C230.561 23.8096 230.249 23.519 230.004 23.1284L230.517 21.8247C230.6 22.2104 230.795 22.5107 231.103 22.7256C231.416 22.9355 231.726 23.0405 232.033 23.0405C232.351 23.0405 232.604 22.9697 232.795 22.8281C232.99 22.6816 233.088 22.457 233.088 22.1543C233.088 21.7393 232.978 21.4097 232.758 21.1655C232.543 20.9214 232.258 20.7993 231.901 20.7993C231.569 20.7993 231.315 20.8896 231.14 21.0703C230.964 21.2461 230.844 21.4854 230.781 21.7881C230.722 22.0859 230.693 22.4204 230.693 22.7915C230.693 23.0015 230.695 23.2188 230.7 23.4434C230.71 23.6631 230.715 23.8804 230.715 24.0952C230.715 24.9253 230.571 25.6431 230.283 26.2485C230 26.854 229.631 27.3472 229.177 27.728C228.723 28.1089 228.239 28.375 227.727 28.5264ZM235.483 24.0732C235.087 24.0732 234.768 24.0439 234.523 23.9854C234.284 23.9219 234.086 23.8364 233.93 23.729C233.779 23.6216 233.632 23.4946 233.491 23.3481L234.135 22.2715C234.262 22.4668 234.418 22.6035 234.604 22.6816C234.794 22.7549 235.087 22.7915 235.483 22.7915H235.629V24.0732H235.483ZM235.344 24.0732V22.7915H235.49C235.896 22.7915 236.193 22.7256 236.384 22.5938C236.579 22.457 236.704 22.3179 236.757 22.1763C236.816 22.0298 236.845 21.9419 236.845 21.9126C236.845 21.8735 236.835 21.7905 236.816 21.6636C236.796 21.5366 236.774 21.4121 236.75 21.29C236.73 21.1631 236.721 21.0874 236.721 21.063C236.857 20.9946 237.067 20.9287 237.351 20.8652C237.639 20.7969 237.89 20.7603 238.105 20.7554C238.242 21.3071 238.393 21.7319 238.559 22.0298C238.725 22.3228 238.906 22.5229 239.101 22.6304C239.301 22.7378 239.514 22.7915 239.738 22.7915H239.885V24.0732H239.738C239.323 24.0732 238.933 23.9927 238.566 23.8315C238.2 23.6655 237.89 23.3774 237.636 22.9673C237.456 23.3579 237.167 23.6411 236.772 23.8169C236.381 23.9878 235.954 24.0732 235.49 24.0732H235.344ZM238.413 26.6953C238.154 26.5098 237.912 26.3145 237.688 26.1094C237.468 25.9043 237.343 25.7676 237.314 25.6992L238.251 24.6665L239.445 25.6479C239.245 25.9214 239.035 26.1582 238.815 26.3584C238.601 26.5635 238.466 26.6758 238.413 26.6953ZM236.765 26.8198C236.506 26.6343 236.267 26.439 236.047 26.2339C235.827 26.0337 235.7 25.897 235.666 25.8237L236.604 24.791L237.797 25.7798C237.524 26.1265 237.297 26.3828 237.116 26.5488C236.936 26.7148 236.818 26.8052 236.765 26.8198ZM243.415 24.3003C243.02 24.3003 242.68 24.2319 242.397 24.0952C242.119 23.9634 241.887 23.8071 241.701 23.6265C241.521 23.4409 241.376 23.2749 241.269 23.1284L241.782 21.8247C241.84 22.0835 241.953 22.3032 242.119 22.4839C242.29 22.6646 242.482 22.8037 242.697 22.9014C242.912 22.9941 243.112 23.0405 243.298 23.0405C243.615 23.0405 243.869 22.9746 244.06 22.8428C244.255 22.7109 244.353 22.4814 244.353 22.1543C244.353 21.7002 244.235 21.3608 244.001 21.1362C243.767 20.9116 243.488 20.7993 243.166 20.7993C242.834 20.7993 242.58 20.8896 242.404 21.0703C242.229 21.2461 242.109 21.4854 242.045 21.7881C241.987 22.0859 241.958 22.4204 241.958 22.7915C241.85 23.2896 241.608 23.6289 241.232 23.8096C240.861 23.9902 240.368 24.0781 239.753 24.0732C239.733 24.0732 239.709 24.0732 239.68 24.0732C239.646 24.0732 239.616 24.0732 239.592 24.0732V22.7915C239.616 22.7915 239.641 22.7915 239.665 22.7915C239.685 22.7915 239.709 22.7915 239.738 22.7915C240.158 22.7915 240.437 22.7524 240.573 22.6743C240.71 22.5913 240.778 22.4985 240.778 22.396C240.778 22.3569 240.778 22.3203 240.778 22.2861C240.778 22.2471 240.781 22.1958 240.786 22.1323C240.81 21.9321 240.842 21.7246 240.881 21.5098C240.925 21.29 241 21.0679 241.108 20.8433C241.313 20.394 241.616 20.0791 242.016 19.8984C242.417 19.7129 242.807 19.6201 243.188 19.6201C243.642 19.6201 244.05 19.7227 244.411 19.9277C244.777 20.1328 245.065 20.4258 245.275 20.8066C245.49 21.1875 245.598 21.644 245.598 22.1763C245.598 22.645 245.488 23.0381 245.268 23.3555C245.048 23.668 244.77 23.9023 244.433 24.0586C244.101 24.2197 243.762 24.3003 243.415 24.3003ZM246.894 24.0732C246.494 24.0732 246.171 24.0439 245.927 23.9854C245.683 23.9219 245.483 23.8364 245.327 23.729C245.175 23.6216 245.029 23.4946 244.887 23.3481L245.532 22.2715C245.659 22.4668 245.817 22.6035 246.008 22.6816C246.198 22.7549 246.494 22.7915 246.894 22.7915H247.041V24.0732H246.894ZM251.896 24.1831C251.276 24.1831 250.715 24.1221 250.212 24C249.714 23.8828 249.211 23.6973 248.703 23.4434C248.249 23.7412 247.878 23.9219 247.59 23.9854C247.307 24.0439 247.089 24.0732 246.938 24.0732H246.755V22.7915H246.909C247.363 22.7915 247.712 22.6475 247.956 22.3594C247.922 22.0127 247.888 21.7588 247.854 21.5977C247.824 21.4316 247.783 21.2266 247.729 20.9824C247.875 20.8457 248.061 20.7212 248.286 20.6089C248.515 20.4966 248.742 20.4136 248.967 20.3599C248.991 20.4771 249.011 20.6016 249.025 20.7334C249.045 20.8604 249.064 21.0044 249.084 21.1655C249.396 20.9067 249.748 20.6553 250.139 20.4111C250.529 20.167 250.939 19.9668 251.369 19.8105C251.799 19.6494 252.224 19.5688 252.644 19.5688C253.19 19.5688 253.637 19.6836 253.984 19.9131C254.335 20.1377 254.597 20.4233 254.768 20.77C254.938 21.1118 255.024 21.4585 255.024 21.8101C255.024 22.0981 254.963 22.3716 254.841 22.6304C255.041 22.7378 255.366 22.7915 255.815 22.7915H255.961V24.0732H255.815C255.41 24.0732 255.063 24.0269 254.775 23.9341C254.492 23.8364 254.25 23.7095 254.05 23.5532C253.771 23.7485 253.447 23.9023 253.076 24.0146C252.709 24.127 252.316 24.1831 251.896 24.1831ZM251.743 22.894C252.343 22.894 252.817 22.7988 253.164 22.6084C253.515 22.4131 253.691 22.1494 253.691 21.8174C253.691 21.5537 253.583 21.3242 253.369 21.1289C253.154 20.9336 252.834 20.8359 252.409 20.8359C252.121 20.8359 251.826 20.897 251.523 21.019C251.22 21.1411 250.93 21.29 250.651 21.4658C250.373 21.6416 250.124 21.8174 249.904 21.9932C249.685 22.1689 249.516 22.313 249.399 22.4253C249.702 22.5425 250.048 22.6499 250.439 22.7476C250.834 22.8452 251.269 22.894 251.743 22.894ZM255.676 24.0732V22.7915H255.822C256.228 22.7915 256.525 22.7256 256.716 22.5938C256.911 22.457 257.036 22.3179 257.089 22.1763C257.148 22.0298 257.177 21.9419 257.177 21.9126C257.177 21.8735 257.167 21.7905 257.148 21.6636C257.128 21.5366 257.106 21.4121 257.082 21.29C257.062 21.1631 257.053 21.0874 257.053 21.063C257.189 20.9946 257.399 20.9287 257.683 20.8652C257.971 20.7969 258.222 20.7603 258.437 20.7554C258.574 21.3071 258.725 21.7319 258.891 22.0298C259.057 22.3228 259.238 22.5229 259.433 22.6304C259.633 22.7378 259.846 22.7915 260.07 22.7915H260.217V24.0732H260.07C259.655 24.0732 259.265 23.9927 258.898 23.8315C258.532 23.6655 258.222 23.3774 257.968 22.9673C257.788 23.3579 257.5 23.6411 257.104 23.8169C256.713 23.9878 256.286 24.0732 255.822 24.0732H255.676ZM258.32 19.979C258.061 19.7935 257.819 19.5981 257.595 19.3931C257.375 19.188 257.25 19.0513 257.221 18.9829L258.159 17.9502L259.353 18.9316C259.152 19.2051 258.942 19.4443 258.723 19.6494C258.508 19.8496 258.374 19.9595 258.32 19.979ZM256.672 20.1035C256.413 19.918 256.174 19.7251 255.954 19.5249C255.734 19.3198 255.607 19.1807 255.573 19.1074L256.511 18.0747L257.705 19.0635C257.431 19.4102 257.204 19.6665 257.023 19.8325C256.843 19.9985 256.726 20.0889 256.672 20.1035ZM259.924 24.0732V22.7915H260.07C260.534 22.7915 260.869 22.7476 261.074 22.6597C261.284 22.5669 261.416 22.4375 261.469 22.2715C261.528 22.1055 261.557 21.9126 261.557 21.6929C261.557 21.5269 261.55 21.2656 261.535 20.9092C261.525 20.5527 261.508 20.1548 261.484 19.7153C261.464 19.271 261.445 18.8364 261.425 18.4116C261.406 17.9819 261.386 17.606 261.367 17.2837C261.352 16.9614 261.34 16.7466 261.33 16.6392C261.413 16.4683 261.606 16.3047 261.909 16.1484C262.211 15.9922 262.517 15.9019 262.824 15.8774C262.839 15.936 262.849 16.0752 262.854 16.2949C262.858 16.5098 262.861 16.749 262.861 17.0127C262.861 17.2764 262.861 17.5083 262.861 17.7085C262.861 18.314 262.866 18.9634 262.875 19.6567C262.89 20.3501 262.897 21.1411 262.897 22.0298C262.897 22.3911 262.805 22.728 262.619 23.0405C262.434 23.3481 262.133 23.5972 261.718 23.7876C261.303 23.978 260.754 24.0732 260.07 24.0732H259.924ZM264.318 24.4614C264.323 24.3052 264.326 24.1318 264.326 23.9414C264.331 23.7461 264.333 23.541 264.333 23.3262C264.333 22.8281 264.326 22.2886 264.311 21.7075C264.296 21.1216 264.277 20.5405 264.252 19.9644C264.233 19.3882 264.211 18.8584 264.187 18.375C264.162 17.8867 264.143 17.4863 264.128 17.1738C264.113 16.8613 264.106 16.6831 264.106 16.6392C264.165 16.4487 264.294 16.2974 264.494 16.1851C264.699 16.0679 264.912 15.98 265.131 15.9214C265.351 15.8579 265.515 15.8188 265.622 15.8042C265.632 15.8628 265.639 15.9702 265.644 16.1265C265.649 16.2827 265.651 16.4365 265.651 16.5879C265.656 16.7344 265.659 16.8223 265.659 16.8516C265.659 17.0957 265.656 17.4473 265.651 17.9062C265.651 18.3604 265.646 18.873 265.637 19.4443C265.632 20.0156 265.625 20.5942 265.615 21.1802C265.605 21.7612 265.593 22.3008 265.578 22.7988C265.563 23.2969 265.549 23.7021 265.534 24.0146C265.437 24.1416 265.253 24.2417 264.985 24.3149C264.721 24.3882 264.499 24.437 264.318 24.4614ZM272.551 24.2563C272.053 24.2563 271.63 24.1636 271.284 23.978C270.942 23.7876 270.681 23.5386 270.5 23.231C270.319 22.9233 270.229 22.5913 270.229 22.2349C270.229 21.8003 270.368 21.3682 270.646 20.9385C270.925 20.5088 271.359 20.1523 271.95 19.8691L272.778 20.5796C272.333 20.814 272.004 21.063 271.789 21.3267C271.579 21.5854 271.474 21.8418 271.474 22.0957C271.474 22.4082 271.579 22.645 271.789 22.8062C271.999 22.9624 272.231 23.0405 272.485 23.0405C272.734 23.0405 272.961 22.9648 273.166 22.8135C273.371 22.6572 273.474 22.4302 273.474 22.1323C273.474 21.9468 273.408 21.749 273.276 21.5391C273.149 21.3242 272.922 21.0996 272.595 20.8652C272.272 20.6309 271.816 20.3892 271.225 20.1401C271.323 19.9399 271.469 19.7642 271.665 19.6128C271.865 19.4565 272.055 19.3564 272.236 19.3125C272.895 19.625 273.4 19.9424 273.752 20.2646C274.108 20.5869 274.353 20.9116 274.484 21.2388C274.621 21.5659 274.689 21.8979 274.689 22.2349C274.689 22.6646 274.584 23.0308 274.375 23.3335C274.169 23.6362 273.903 23.8657 273.576 24.022C273.249 24.1782 272.907 24.2563 272.551 24.2563ZM273.071 18.668C272.812 18.4824 272.57 18.2871 272.346 18.082C272.126 17.877 272.001 17.7402 271.972 17.6719L272.91 16.6392L274.104 17.6206C273.903 17.894 273.693 18.1333 273.474 18.3384C273.259 18.5386 273.125 18.6484 273.071 18.668ZM271.423 18.7925C271.164 18.6069 270.925 18.4141 270.705 18.2139C270.485 18.0088 270.358 17.8696 270.324 17.7964L271.262 16.7637L272.456 17.7524C272.182 18.0991 271.955 18.3555 271.774 18.5215C271.594 18.6875 271.477 18.7778 271.423 18.7925ZM274.206 29.1709C273.952 29.0049 273.771 28.8096 273.664 28.585C273.552 28.3604 273.474 28.1504 273.43 27.9551C274.226 27.6768 274.838 27.3252 275.268 26.9004C275.703 26.4805 276.005 26.0093 276.176 25.4868C276.347 24.9644 276.433 24.4199 276.433 23.8535C276.433 23.4336 276.401 22.999 276.337 22.5498C276.274 22.1006 276.201 21.6733 276.118 21.2681C276.259 21.1411 276.457 21.041 276.711 20.9678C276.965 20.8896 277.209 20.8481 277.443 20.8433C277.556 21.2925 277.634 21.7856 277.678 22.3228C277.727 22.855 277.751 23.3481 277.751 23.8022C277.751 24.4956 277.639 25.189 277.414 25.8823C277.194 26.5757 276.826 27.208 276.308 27.7793C275.791 28.3555 275.09 28.8193 274.206 29.1709ZM281.853 24.0732C281.159 24.0732 280.622 23.9829 280.241 23.8022C279.865 23.6216 279.599 23.3896 279.443 23.1064C279.292 22.8184 279.204 22.5181 279.179 22.2056C279.16 21.9321 279.143 21.5854 279.128 21.1655C279.113 20.7407 279.099 20.2915 279.084 19.8179C279.074 19.3394 279.064 18.8779 279.055 18.4336C279.045 17.9893 279.035 17.606 279.025 17.2837C279.021 16.9614 279.013 16.7466 279.003 16.6392C279.062 16.4731 279.189 16.3315 279.384 16.2144C279.584 16.0972 279.792 16.0044 280.007 15.936C280.227 15.8628 280.39 15.8188 280.498 15.8042C280.507 15.8628 280.515 15.9653 280.52 16.1118C280.524 16.2534 280.527 16.3975 280.527 16.5439C280.532 16.6855 280.534 16.7881 280.534 16.8516C280.534 17.252 280.529 17.7085 280.52 18.2212C280.515 18.729 280.507 19.2466 280.498 19.7739C280.488 20.2964 280.483 20.7871 280.483 21.2461C280.483 21.8027 280.571 22.2007 280.747 22.4399C280.927 22.6743 281.296 22.7915 281.853 22.7915H281.999V24.0732H281.853ZM285.654 27.6768C285.024 27.6768 284.484 27.4839 284.035 27.0981C283.591 26.7173 283.249 26.2119 283.01 25.582C282.771 24.9521 282.651 24.2686 282.651 23.5312C282.651 23.0234 282.719 22.5156 282.856 22.0078C282.998 21.4951 283.198 21.0288 283.457 20.6089C283.72 20.189 284.04 19.8521 284.416 19.5981C284.797 19.3442 285.224 19.2173 285.698 19.2173C286.176 19.2173 286.56 19.3638 286.848 19.6567C287.136 19.9448 287.28 20.2915 287.28 20.6968C287.28 21.0874 287.175 21.4805 286.965 21.876C286.76 22.2666 286.496 22.5913 286.174 22.8501C286.623 22.8208 286.982 22.8037 287.25 22.7988C287.524 22.7939 287.832 22.7915 288.173 22.7915H288.32V24.0732C288.247 24.0732 288.195 24.0732 288.166 24.0732C288.142 24.0732 288.11 24.0732 288.071 24.0732C287.539 24.0732 287.143 24.0684 286.884 24.0586C286.625 24.0488 286.369 24.0342 286.115 24.0146C286.516 24.2393 286.818 24.5542 287.023 24.9595C287.233 25.3647 287.338 25.7432 287.338 26.0947C287.338 26.3633 287.268 26.6172 287.126 26.8564C286.984 27.1006 286.787 27.2983 286.533 27.4497C286.284 27.6011 285.991 27.6768 285.654 27.6768ZM281.706 24.0732V22.7915H281.853C282.053 22.7915 282.219 22.7891 282.351 22.7842C282.482 22.7793 282.617 22.772 282.753 22.7622C282.89 22.7476 283.063 22.728 283.273 22.7036L283.186 23.978C282.937 24.0122 282.727 24.0366 282.556 24.0513C282.39 24.0659 282.155 24.0732 281.853 24.0732H281.706ZM285.588 26.5049C285.759 26.5049 285.896 26.4561 285.998 26.3584C286.105 26.2607 286.159 26.1313 286.159 25.9702C286.159 25.8726 286.101 25.7041 285.983 25.4648C285.871 25.2305 285.654 24.9692 285.332 24.6812C285.009 24.3979 284.541 24.1392 283.925 23.9048L283.859 22.6963C284.274 22.6768 284.638 22.5693 284.951 22.374C285.268 22.1787 285.515 21.9419 285.69 21.6636C285.871 21.3804 285.961 21.1069 285.961 20.8433C285.961 20.5552 285.8 20.4111 285.478 20.4111C285.268 20.4111 285.068 20.5015 284.877 20.6821C284.687 20.8579 284.519 21.0947 284.372 21.3926C284.226 21.6855 284.111 22.0078 284.028 22.3594C283.945 22.7061 283.903 23.0527 283.903 23.3994C283.903 23.9316 283.979 24.4346 284.13 24.9082C284.287 25.3818 284.492 25.7651 284.746 26.0581C285.004 26.356 285.285 26.5049 285.588 26.5049ZM291.857 24.3003C291.462 24.3003 291.123 24.2319 290.839 24.0952C290.561 23.9634 290.329 23.8071 290.144 23.6265C289.963 23.4409 289.819 23.2749 289.711 23.1284L290.224 21.8247C290.283 22.0835 290.395 22.3032 290.561 22.4839C290.732 22.6646 290.925 22.8037 291.14 22.9014C291.354 22.9941 291.555 23.0405 291.74 23.0405C292.058 23.0405 292.312 22.9746 292.502 22.8428C292.697 22.7109 292.795 22.4814 292.795 22.1543C292.795 21.7002 292.678 21.3608 292.443 21.1362C292.209 20.9116 291.931 20.7993 291.608 20.7993C291.276 20.7993 291.022 20.8896 290.847 21.0703C290.671 21.2461 290.551 21.4854 290.488 21.7881C290.429 22.0859 290.4 22.4204 290.4 22.7915C290.292 23.2896 290.051 23.6289 289.675 23.8096C289.304 23.9902 288.811 24.0781 288.195 24.0732C288.176 24.0732 288.151 24.0732 288.122 24.0732C288.088 24.0732 288.059 24.0732 288.034 24.0732V22.7915C288.059 22.7915 288.083 22.7915 288.107 22.7915C288.127 22.7915 288.151 22.7915 288.181 22.7915C288.601 22.7915 288.879 22.7524 289.016 22.6743C289.152 22.5913 289.221 22.4985 289.221 22.396C289.221 22.3569 289.221 22.3203 289.221 22.2861C289.221 22.2471 289.223 22.1958 289.228 22.1323C289.252 21.9321 289.284 21.7246 289.323 21.5098C289.367 21.29 289.443 21.0679 289.55 20.8433C289.755 20.394 290.058 20.0669 290.458 19.8618C290.859 19.6567 291.25 19.5542 291.63 19.5542C292.309 19.5542 292.88 19.7837 293.344 20.2427C293.808 20.7017 294.04 21.3462 294.04 22.1763C294.04 22.645 293.93 23.0381 293.71 23.3555C293.491 23.668 293.212 23.9023 292.875 24.0586C292.543 24.2197 292.204 24.3003 291.857 24.3003Z" fill="white"/>
<path d="M305.684 53.668C307.065 53.668 308.184 52.9964 308.184 52.168C308.184 51.3395 307.065 50.668 305.684 50.668C304.303 50.668 303.184 51.3395 303.184 52.168C303.184 52.9964 304.303 53.668 305.684 53.668Z" fill="#231F20"/>
<path d="M305.684 85.668C307.065 85.668 308.184 84.9964 308.184 84.168C308.184 83.3395 307.065 82.668 305.684 82.668C304.303 82.668 303.184 83.3395 303.184 84.168C303.184 84.9964 304.303 85.668 305.684 85.668Z" fill="#231F20"/>
<path d="M305.684 68.668C307.065 68.668 308.184 67.9964 308.184 67.168C308.184 66.3395 307.065 65.668 305.684 65.668C304.303 65.668 303.184 66.3395 303.184 67.168C303.184 67.9964 304.303 68.668 305.684 68.668Z" fill="#231F20"/>
<path d="M305.684 105.668C307.065 105.668 308.184 104.996 308.184 104.168C308.184 103.34 307.065 102.668 305.684 102.668C304.303 102.668 303.184 103.34 303.184 104.168C303.184 104.996 304.303 105.668 305.684 105.668Z" fill="#231F20"/>
<path d="M305.684 124.668C307.065 124.668 308.184 123.996 308.184 123.168C308.184 122.34 307.065 121.668 305.684 121.668C304.303 121.668 303.184 122.34 303.184 123.168C303.184 123.996 304.303 124.668 305.684 124.668Z" fill="#231F20"/>
<path d="M305.684 142.668C307.065 142.668 308.184 141.996 308.184 141.168C308.184 140.34 307.065 139.668 305.684 139.668C304.303 139.668 303.184 140.34 303.184 141.168C303.184 141.996 304.303 142.668 305.684 142.668Z" fill="#231F20"/>
<path d="M301.184 81.668H205.184V86.668H301.184V81.668Z" fill="#949598"/>
<path d="M301.184 64.668H205.184V69.668H301.184V64.668Z" fill="#949598"/>
<path d="M301.184 101.668H205.184V106.668H301.184V101.668Z" fill="#949598"/>
<path d="M301.184 120.668H205.184V125.668H301.184V120.668Z" fill="#949598"/>
<path d="M301.184 138.668H205.184V143.668H301.184V138.668Z" fill="#949598"/>
<path d="M301.184 48.668H205.184V53.668H301.184V48.668Z" fill="#949598"/>
<path d="M284.184 81.668H205.184V86.668H284.184V81.668Z" fill="#00AEEF"/>
<path d="M284.184 64.668H205.184V69.668H284.184V64.668Z" fill="#00AEEF"/>
<path d="M293.184 64.668H205.184V69.668H293.184V64.668Z" fill="#00AEEF"/>
<path d="M267.184 101.668H205.184V106.668H267.184V101.668Z" fill="#00AEEF"/>
<path d="M283.184 120.668H205.184V125.668H283.184V120.668Z" fill="#00AEEF"/>
<path d="M283.184 138.668H205.184V143.668H283.184V138.668Z" fill="#00AEEF"/>
<path d="M282.184 48.668H205.184V53.668H282.184V48.668Z" fill="#00AEEF"/>
<path d="M281.629 80.668C283.102 80.668 284.515 81.0515 285.557 81.7341C286.599 82.4167 287.184 83.3426 287.184 84.308V85.025C287.185 85.5033 287.041 85.9769 286.762 86.4189C286.484 86.8609 286.074 87.2625 285.559 87.6008C285.043 87.9391 284.43 88.2075 283.756 88.3906C283.081 88.5737 282.359 88.668 281.629 88.668C281.045 88.668 280.466 88.5925 279.927 88.446C279.387 88.2995 278.897 88.0847 278.484 87.814C278.072 87.5432 277.744 87.2219 277.521 86.8682C277.298 86.5145 277.183 86.1355 277.184 85.7528V83.5802C277.184 82.8078 277.652 82.0671 278.486 81.5209C279.319 80.9748 280.45 80.668 281.629 80.668Z" fill="black"/>
<path d="M295.184 63.668C296.51 63.668 297.782 64.0515 298.72 64.7341C299.657 65.4167 300.184 66.3426 300.184 67.308V68.025C300.185 68.5033 300.056 68.9769 299.805 69.4189C299.554 69.8609 299.185 70.2625 298.721 70.6008C298.257 70.9391 297.705 71.2075 297.099 71.3906C296.492 71.5737 295.841 71.668 295.184 71.668C294.659 71.668 294.138 71.5925 293.653 71.446C293.167 71.2995 292.726 71.0847 292.354 70.814C291.983 70.5432 291.688 70.2219 291.487 69.8682C291.287 69.5145 291.184 69.1355 291.184 68.7528V66.5802C291.184 65.8078 291.606 65.0671 292.356 64.5209C293.106 63.9748 294.123 63.668 295.184 63.668Z" fill="black"/>
<path d="M266.629 100.668C268.102 100.668 269.515 101.051 270.557 101.734C271.599 102.417 272.184 103.343 272.184 104.308V105.025C272.185 105.503 272.041 105.977 271.762 106.419C271.484 106.861 271.074 107.262 270.559 107.601C270.043 107.939 269.43 108.208 268.756 108.391C268.081 108.574 267.359 108.668 266.629 108.668C266.045 108.668 265.466 108.593 264.927 108.446C264.387 108.299 263.897 108.085 263.484 107.814C263.072 107.543 262.744 107.222 262.521 106.868C262.298 106.515 262.183 106.136 262.184 105.753V103.58C262.184 102.808 262.652 102.067 263.486 101.521C264.319 100.975 265.45 100.668 266.629 100.668Z" fill="black"/>
<path d="M283.184 119.668C284.51 119.668 285.782 120.051 286.72 120.734C287.657 121.417 288.184 122.343 288.184 123.308V124.025C288.185 124.503 288.056 124.977 287.805 125.419C287.554 125.861 287.185 126.262 286.721 126.601C286.257 126.939 285.705 127.208 285.099 127.391C284.492 127.574 283.841 127.668 283.184 127.668C282.659 127.668 282.138 127.593 281.653 127.446C281.167 127.299 280.726 127.085 280.354 126.814C279.983 126.543 279.688 126.222 279.487 125.868C279.287 125.515 279.184 125.136 279.184 124.753V122.58C279.184 121.808 279.606 121.067 280.356 120.521C281.106 119.975 282.123 119.668 283.184 119.668Z" fill="black"/>
<path d="M283.184 137.668C284.51 137.668 285.782 138.051 286.72 138.734C287.657 139.417 288.184 140.343 288.184 141.308V142.025C288.185 142.503 288.056 142.977 287.805 143.419C287.554 143.861 287.185 144.262 286.721 144.601C286.257 144.939 285.705 145.208 285.099 145.391C284.492 145.574 283.841 145.668 283.184 145.668C282.659 145.668 282.138 145.593 281.653 145.446C281.167 145.299 280.726 145.085 280.354 144.814C279.983 144.543 279.688 144.222 279.487 143.868C279.287 143.515 279.184 143.136 279.184 142.753V140.58C279.184 139.808 279.606 139.067 280.356 138.521C281.106 137.975 282.123 137.668 283.184 137.668Z" fill="black"/>
<path d="M277.629 47.668C279.102 47.668 280.515 48.0515 281.557 48.7341C282.599 49.4167 283.184 50.3426 283.184 51.308V52.025C283.185 52.5033 283.041 52.9769 282.762 53.4189C282.484 53.8609 282.074 54.2625 281.559 54.6008C281.043 54.9391 280.43 55.2075 279.756 55.3906C279.081 55.5737 278.359 55.668 277.629 55.668C277.045 55.668 276.466 55.5925 275.927 55.446C275.387 55.2995 274.897 55.0847 274.484 54.814C274.072 54.5432 273.744 54.2219 273.521 53.8682C273.298 53.5145 273.183 53.1355 273.184 52.7528V50.5802C273.184 49.8078 273.652 49.0671 274.486 48.5209C275.319 47.9748 276.45 47.668 277.629 47.668Z" fill="black"/>
<path d="M301.184 138.668H205.184V143.668H301.184V138.668Z" fill="#949598"/>
<path d="M283.184 138.668H205.184V143.668H283.184V138.668Z" fill="#00AEEF"/>
<path d="M283.184 137.668C284.51 137.668 285.782 138.051 286.72 138.734C287.657 139.417 288.184 140.343 288.184 141.308V142.025C288.185 142.503 288.056 142.977 287.805 143.419C287.554 143.861 287.185 144.262 286.721 144.601C286.257 144.939 285.705 145.208 285.099 145.391C284.492 145.574 283.841 145.668 283.184 145.668C282.659 145.668 282.138 145.593 281.653 145.446C281.167 145.299 280.726 145.085 280.354 144.814C279.983 144.543 279.688 144.222 279.487 143.868C279.287 143.515 279.184 143.136 279.184 142.753V140.58C279.184 139.808 279.606 139.067 280.356 138.521C281.106 137.975 282.123 137.668 283.184 137.668Z" fill="black"/>
<path d="M46.7446 89L46.1479 87.2036H42.8218L42.2061 89H40.5049L43.5327 80.2275H45.5259L48.6172 89H46.7446ZM44.8213 83.2554C44.6689 82.7941 44.5526 82.39 44.4722 82.043H44.4595C44.3198 82.5635 44.2056 82.9676 44.1167 83.2554L43.2217 85.8643H45.7163L44.8213 83.2554ZM53.1685 89C53.1685 88.6318 53.1938 88.2721 53.2446 87.9209H53.2192C52.8341 88.7376 52.1549 89.146 51.1816 89.146C50.4115 89.146 49.8211 88.8709 49.4106 88.3208C49.0213 87.7961 48.8267 87.0597 48.8267 86.1118C48.8267 85.0073 49.1292 84.1208 49.7344 83.4521C50.3522 82.7666 51.1901 82.4238 52.248 82.4238C52.54 82.4238 52.813 82.4408 53.0669 82.4746V79.5103H54.7173V89H53.1685ZM53.0669 83.8394C52.7453 83.7716 52.4533 83.7378 52.1909 83.7378C51.1076 83.7378 50.5659 84.4699 50.5659 85.9341C50.5659 87.1528 50.9362 87.7622 51.6768 87.7622C52.0957 87.7622 52.4364 87.5485 52.6987 87.1211C52.9442 86.7191 53.0669 86.2282 53.0669 85.6484V83.8394ZM62.3789 85.6484C62.3789 86.6598 62.07 87.4935 61.4521 88.1494C60.8301 88.8011 60.0387 89.127 59.0781 89.127C57.0596 89.127 56.0503 88.0436 56.0503 85.877C56.0503 84.8656 56.355 84.0361 56.9644 83.3887C57.5822 82.737 58.3778 82.4111 59.3511 82.4111C60.3032 82.4111 61.0396 82.6714 61.5601 83.1919C62.106 83.7463 62.3789 84.5651 62.3789 85.6484ZM60.665 85.7373C60.665 84.4551 60.189 83.814 59.2368 83.814C58.8306 83.814 58.492 83.9642 58.2212 84.2646C57.9165 84.6074 57.7642 85.0898 57.7642 85.7119C57.7642 87.0449 58.2466 87.7114 59.2114 87.7114C59.6388 87.7114 59.9837 87.5464 60.2461 87.2163C60.5254 86.8651 60.665 86.3721 60.665 85.7373ZM69.5581 85.439C69.5581 86.5519 69.2534 87.4406 68.644 88.105C68.0135 88.7863 67.1523 89.127 66.0605 89.127C65.1973 89.127 64.3953 89.0233 63.6548 88.8159V79.5103H65.3179V82.2905C65.3179 82.7729 65.284 83.194 65.2163 83.5537H65.229C65.5802 82.792 66.2298 82.4111 67.1777 82.4111C67.9437 82.4111 68.534 82.6756 68.9487 83.2046C69.355 83.7293 69.5581 84.4741 69.5581 85.439ZM67.8125 85.604C67.8125 84.3937 67.4443 83.7886 66.708 83.7886C66.2891 83.7886 65.9484 84.0002 65.686 84.4233C65.4406 84.8211 65.3179 85.3014 65.3179 85.8643V87.686C65.5506 87.7664 65.8405 87.8066 66.1875 87.8066C67.2708 87.8066 67.8125 87.0724 67.8125 85.604ZM76.3057 85.1533C76.3057 85.5384 76.2845 85.8494 76.2422 86.0864H72.2495C72.2495 87.2502 72.8441 87.832 74.0332 87.832C74.6595 87.832 75.2837 87.7051 75.9058 87.4512L76.0835 88.7144C75.3345 88.9894 74.5558 89.127 73.7476 89.127C71.6232 89.127 70.561 88.0267 70.561 85.8262C70.561 84.8317 70.8319 84.0213 71.3735 83.395C71.9364 82.7391 72.6875 82.4111 73.627 82.4111C74.5241 82.4111 75.2075 82.6756 75.6772 83.2046C76.0962 83.6828 76.3057 84.3324 76.3057 85.1533ZM74.6553 84.9819C74.6807 84.0806 74.3083 83.6299 73.5381 83.6299C72.7848 83.6299 72.3595 84.0806 72.2622 84.9819H74.6553ZM80.2476 89V80.2275H81.936V89H80.2476ZM87.5664 89V84.8677C87.5664 84.1567 87.2977 83.8013 86.7603 83.8013C86.3455 83.8013 85.9922 84.0065 85.7002 84.417C85.4082 84.8232 85.2622 85.3099 85.2622 85.877V89H83.5991V82.5381H85.1733C85.1733 82.9951 85.1416 83.3802 85.0781 83.6934H85.0972C85.5373 82.8385 86.2694 82.4111 87.2935 82.4111C88.5757 82.4111 89.2168 83.0946 89.2168 84.4614V89H87.5664ZM98.3193 84.4614C98.3193 85.9299 97.8708 87.0703 96.9736 87.8828C96.1146 88.6615 94.9508 89.0508 93.4824 89.0508C93.0889 89.0508 92.2743 89.0296 91.0386 88.9873V80.2402C92.1854 80.1937 93.1291 80.1704 93.8696 80.1704C96.8361 80.1704 98.3193 81.6007 98.3193 84.4614ZM96.4976 84.5947C96.4976 82.5931 95.5835 81.5923 93.7554 81.5923C93.3449 81.5923 93.0021 81.605 92.7271 81.6304V87.5464C92.9894 87.5887 93.2983 87.6099 93.6538 87.6099C94.5171 87.6099 95.1963 87.3665 95.6914 86.8799C96.2288 86.3551 96.4976 85.5934 96.4976 84.5947ZM105.048 85.1533C105.048 85.5384 105.027 85.8494 104.984 86.0864H100.992C100.992 87.2502 101.586 87.832 102.775 87.832C103.402 87.832 104.026 87.7051 104.648 87.4512L104.826 88.7144C104.077 88.9894 103.298 89.127 102.49 89.127C100.365 89.127 99.3032 88.0267 99.3032 85.8262C99.3032 84.8317 99.5741 84.0213 100.116 83.395C100.679 82.7391 101.43 82.4111 102.369 82.4111C103.266 82.4111 103.95 82.6756 104.419 83.2046C104.838 83.6828 105.048 84.3324 105.048 85.1533ZM103.397 84.9819C103.423 84.0806 103.05 83.6299 102.28 83.6299C101.527 83.6299 101.102 84.0806 101.004 84.9819H103.397ZM110.424 86.9878C110.424 87.631 110.164 88.1494 109.644 88.543C109.123 88.9323 108.435 89.127 107.581 89.127C107.018 89.127 106.535 89.0719 106.133 88.9619L106.254 87.5718C106.652 87.7453 107.111 87.832 107.631 87.832C108.325 87.832 108.672 87.5972 108.672 87.1274C108.672 86.882 108.535 86.6852 108.26 86.5371C108.234 86.5244 107.934 86.408 107.358 86.188C106.482 85.8579 106.044 85.2824 106.044 84.4614C106.044 83.8563 106.267 83.3696 106.711 83.0015C107.202 82.5994 107.894 82.3984 108.787 82.3984C109.163 82.3984 109.553 82.4408 109.955 82.5254L109.878 83.8267C109.498 83.7124 109.108 83.6553 108.71 83.6553C108.076 83.6553 107.758 83.8774 107.758 84.3218C107.758 84.5545 107.898 84.7471 108.177 84.8994L109.091 85.2676C109.98 85.6188 110.424 86.1922 110.424 86.9878ZM113.706 80.5767C113.706 80.8517 113.604 81.0866 113.401 81.2812C113.194 81.4801 112.949 81.5796 112.665 81.5796C112.377 81.5796 112.134 81.4823 111.935 81.2876C111.736 81.0929 111.637 80.856 111.637 80.5767C111.637 80.2974 111.736 80.0583 111.935 79.8594C112.134 79.6605 112.377 79.561 112.665 79.561C112.953 79.561 113.198 79.6584 113.401 79.853C113.604 80.0519 113.706 80.2931 113.706 80.5767ZM111.833 89V82.5381H113.497V89H111.833ZM121.146 89.6919C121.146 90.4071 120.822 91.008 120.174 91.4946C119.506 92.0067 118.647 92.2627 117.597 92.2627C116.73 92.2627 116.055 92.0998 115.572 91.7739C115.077 91.4396 114.83 90.9614 114.83 90.3394C114.83 89.6411 115.164 89.1121 115.833 88.7524C115.405 88.5535 115.191 88.2235 115.191 87.7622C115.191 87.2163 115.447 86.8312 115.959 86.6069C115.32 86.2599 115.001 85.6717 115.001 84.8423C115.001 84.1525 115.24 83.5812 115.718 83.1284C116.235 82.6418 116.943 82.3984 117.845 82.3984C118.179 82.3984 118.53 82.445 118.898 82.5381H121.095V83.8394H120.212C120.428 84.0425 120.536 84.3154 120.536 84.6582C120.536 85.3691 120.306 85.9299 119.844 86.3403C119.358 86.772 118.666 86.9878 117.769 86.9878C117.591 86.9878 117.422 86.9688 117.261 86.9307C117.053 87.0238 116.95 87.1634 116.95 87.3496C116.95 87.4977 117.022 87.5993 117.166 87.6543C117.305 87.7051 117.568 87.7368 117.953 87.7495L118.949 87.7939C120.413 87.8447 121.146 88.4774 121.146 89.6919ZM119.495 89.9077C119.495 89.3787 119.157 89.1016 118.479 89.0762L117.064 89.0381C116.666 89.3258 116.467 89.6559 116.467 90.0283C116.467 90.3245 116.592 90.5594 116.842 90.7329C117.091 90.9022 117.426 90.9868 117.845 90.9868C118.369 90.9868 118.78 90.8831 119.076 90.6758C119.355 90.4811 119.495 90.2251 119.495 89.9077ZM118.949 84.7471C118.949 83.9854 118.56 83.6045 117.781 83.6045C117.413 83.6045 117.119 83.7124 116.899 83.9282C116.687 84.1356 116.582 84.4043 116.582 84.7344C116.582 85.4792 116.981 85.8516 117.781 85.8516C118.56 85.8516 118.949 85.4834 118.949 84.7471ZM126.389 89V84.8677C126.389 84.1567 126.12 83.8013 125.583 83.8013C125.168 83.8013 124.814 84.0065 124.522 84.417C124.23 84.8232 124.084 85.3099 124.084 85.877V89H122.421V82.5381H123.996C123.996 82.9951 123.964 83.3802 123.9 83.6934H123.919C124.36 82.8385 125.092 82.4111 126.116 82.4111C127.398 82.4111 128.039 83.0946 128.039 84.4614V89H126.389Z" fill="#FF0040"/>
<path d="M46.7446 108L46.1479 106.204H42.8218L42.2061 108H40.5049L43.5327 99.2275H45.5259L48.6172 108H46.7446ZM44.8213 102.255C44.6689 101.794 44.5526 101.39 44.4722 101.043H44.4595C44.3198 101.563 44.2056 101.968 44.1167 102.255L43.2217 104.864H45.7163L44.8213 102.255ZM53.1685 108C53.1685 107.632 53.1938 107.272 53.2446 106.921H53.2192C52.8341 107.738 52.1549 108.146 51.1816 108.146C50.4115 108.146 49.8211 107.871 49.4106 107.321C49.0213 106.796 48.8267 106.06 48.8267 105.112C48.8267 104.007 49.1292 103.121 49.7344 102.452C50.3522 101.767 51.1901 101.424 52.248 101.424C52.54 101.424 52.813 101.441 53.0669 101.475V98.5103H54.7173V108H53.1685ZM53.0669 102.839C52.7453 102.772 52.4533 102.738 52.1909 102.738C51.1076 102.738 50.5659 103.47 50.5659 104.934C50.5659 106.153 50.9362 106.762 51.6768 106.762C52.0957 106.762 52.4364 106.549 52.6987 106.121C52.9442 105.719 53.0669 105.228 53.0669 104.648V102.839ZM62.3789 104.648C62.3789 105.66 62.07 106.493 61.4521 107.149C60.8301 107.801 60.0387 108.127 59.0781 108.127C57.0596 108.127 56.0503 107.044 56.0503 104.877C56.0503 103.866 56.355 103.036 56.9644 102.389C57.5822 101.737 58.3778 101.411 59.3511 101.411C60.3032 101.411 61.0396 101.671 61.5601 102.192C62.106 102.746 62.3789 103.565 62.3789 104.648ZM60.665 104.737C60.665 103.455 60.189 102.814 59.2368 102.814C58.8306 102.814 58.492 102.964 58.2212 103.265C57.9165 103.607 57.7642 104.09 57.7642 104.712C57.7642 106.045 58.2466 106.711 59.2114 106.711C59.6388 106.711 59.9837 106.546 60.2461 106.216C60.5254 105.865 60.665 105.372 60.665 104.737ZM69.5581 104.439C69.5581 105.552 69.2534 106.441 68.644 107.105C68.0135 107.786 67.1523 108.127 66.0605 108.127C65.1973 108.127 64.3953 108.023 63.6548 107.816V98.5103H65.3179V101.291C65.3179 101.773 65.284 102.194 65.2163 102.554H65.229C65.5802 101.792 66.2298 101.411 67.1777 101.411C67.9437 101.411 68.534 101.676 68.9487 102.205C69.355 102.729 69.5581 103.474 69.5581 104.439ZM67.8125 104.604C67.8125 103.394 67.4443 102.789 66.708 102.789C66.2891 102.789 65.9484 103 65.686 103.423C65.4406 103.821 65.3179 104.301 65.3179 104.864V106.686C65.5506 106.766 65.8405 106.807 66.1875 106.807C67.2708 106.807 67.8125 106.072 67.8125 104.604ZM76.3057 104.153C76.3057 104.538 76.2845 104.849 76.2422 105.086H72.2495C72.2495 106.25 72.8441 106.832 74.0332 106.832C74.6595 106.832 75.2837 106.705 75.9058 106.451L76.0835 107.714C75.3345 107.989 74.5558 108.127 73.7476 108.127C71.6232 108.127 70.561 107.027 70.561 104.826C70.561 103.832 70.8319 103.021 71.3735 102.395C71.9364 101.739 72.6875 101.411 73.627 101.411C74.5241 101.411 75.2075 101.676 75.6772 102.205C76.0962 102.683 76.3057 103.332 76.3057 104.153ZM74.6553 103.982C74.6807 103.081 74.3083 102.63 73.5381 102.63C72.7848 102.63 72.3595 103.081 72.2622 103.982H74.6553ZM80.2476 108V99.2275H81.936V108H80.2476ZM83.7388 108V98.5103H85.4019V108H83.7388ZM87.2554 108V98.5103H88.9185V108H87.2554ZM94.6504 108C94.6504 107.501 94.6758 107.116 94.7266 106.845H94.7139C94.2695 107.7 93.5374 108.127 92.5176 108.127C91.2354 108.127 90.5942 107.444 90.5942 106.077V101.538H92.2446V105.67C92.2446 106.381 92.5133 106.737 93.0508 106.737C93.4697 106.737 93.8252 106.532 94.1172 106.121C94.4049 105.719 94.5488 105.232 94.5488 104.661V101.538H96.2119V108H94.6504ZM101.995 105.988C101.995 106.631 101.734 107.149 101.214 107.543C100.693 107.932 100.006 108.127 99.1509 108.127C98.5881 108.127 98.1056 108.072 97.7036 107.962L97.8242 106.572C98.222 106.745 98.6812 106.832 99.2017 106.832C99.8957 106.832 100.243 106.597 100.243 106.127C100.243 105.882 100.105 105.685 99.8301 105.537C99.8047 105.524 99.5042 105.408 98.9287 105.188C98.0527 104.858 97.6147 104.282 97.6147 103.461C97.6147 102.856 97.8369 102.37 98.2812 102.001C98.7721 101.599 99.464 101.398 100.357 101.398C100.734 101.398 101.123 101.441 101.525 101.525L101.449 102.827C101.068 102.712 100.679 102.655 100.281 102.655C99.646 102.655 99.3286 102.877 99.3286 103.322C99.3286 103.555 99.4683 103.747 99.7476 103.899L100.662 104.268C101.55 104.619 101.995 105.192 101.995 105.988ZM106.952 107.949C106.47 108.068 106.002 108.127 105.549 108.127C104.838 108.127 104.347 107.979 104.077 107.683C103.81 107.386 103.677 106.86 103.677 106.102V102.827H102.56V101.538H103.677V99.5513L105.327 99.1069V101.538H106.901V102.827H105.327V105.658C105.327 106.072 105.384 106.354 105.499 106.502C105.609 106.65 105.807 106.724 106.095 106.724C106.383 106.724 106.631 106.694 106.838 106.635L106.952 107.949ZM111.751 103.036C110.553 102.799 109.955 103.574 109.955 105.359V108H108.292V101.538H109.866C109.866 101.949 109.826 102.382 109.745 102.839H109.771C110.168 101.794 110.854 101.318 111.827 101.411L111.751 103.036ZM116.404 108C116.404 107.556 116.425 107.192 116.467 106.908L116.455 106.896C116.103 107.716 115.416 108.127 114.392 108.127C113.82 108.127 113.365 107.951 113.027 107.6C112.705 107.262 112.544 106.824 112.544 106.286C112.544 105.537 112.883 104.97 113.56 104.585C114.203 104.217 115.109 104.033 116.277 104.033V103.798C116.277 103.4 116.19 103.114 116.017 102.941C115.839 102.759 115.541 102.668 115.122 102.668C114.504 102.668 113.852 102.816 113.167 103.112L112.894 101.836C113.63 101.544 114.444 101.398 115.337 101.398C116.298 101.398 116.981 101.597 117.388 101.995C117.756 102.351 117.94 102.909 117.94 103.671V106.337C117.94 106.972 117.957 107.526 117.991 108H116.404ZM116.277 105.125C114.855 105.125 114.144 105.45 114.144 106.102C114.144 106.318 114.214 106.496 114.354 106.635C114.497 106.783 114.688 106.857 114.925 106.857C115.314 106.857 115.64 106.694 115.902 106.369C116.152 106.06 116.277 105.702 116.277 105.296V105.125ZM123.164 107.949C122.682 108.068 122.214 108.127 121.761 108.127C121.05 108.127 120.559 107.979 120.289 107.683C120.022 107.386 119.889 106.86 119.889 106.102V102.827H118.771V101.538H119.889V99.5513L121.539 99.1069V101.538H123.113V102.827H121.539V105.658C121.539 106.072 121.596 106.354 121.71 106.502C121.82 106.65 122.019 106.724 122.307 106.724C122.595 106.724 122.842 106.694 123.05 106.635L123.164 107.949ZM130.261 104.648C130.261 105.66 129.952 106.493 129.334 107.149C128.712 107.801 127.921 108.127 126.96 108.127C124.941 108.127 123.932 107.044 123.932 104.877C123.932 103.866 124.237 103.036 124.846 102.389C125.464 101.737 126.26 101.411 127.233 101.411C128.185 101.411 128.921 101.671 129.442 102.192C129.988 102.746 130.261 103.565 130.261 104.648ZM128.547 104.737C128.547 103.455 128.071 102.814 127.119 102.814C126.712 102.814 126.374 102.964 126.103 103.265C125.798 103.607 125.646 104.09 125.646 104.712C125.646 106.045 126.128 106.711 127.093 106.711C127.521 106.711 127.866 106.546 128.128 106.216C128.407 105.865 128.547 105.372 128.547 104.737ZM134.933 103.036C133.735 102.799 133.136 103.574 133.136 105.359V108H131.473V101.538H133.047C133.047 101.949 133.007 102.382 132.927 102.839H132.952C133.35 101.794 134.035 101.318 135.009 101.411L134.933 103.036Z" fill="#FF0040"/>
<path d="M42.939 126V117.228H44.6274V124.521H47.4775V126H42.939ZM52.3779 126C52.3779 125.501 52.4033 125.116 52.4541 124.845H52.4414C51.9971 125.7 51.265 126.127 50.2451 126.127C48.9629 126.127 48.3218 125.444 48.3218 124.077V119.538H49.9722V123.67C49.9722 124.381 50.2409 124.737 50.7783 124.737C51.1973 124.737 51.5527 124.532 51.8447 124.121C52.1325 123.719 52.2764 123.232 52.2764 122.661V119.538H53.9395V126H52.3779ZM63.5371 126V121.918C63.5371 121.174 63.2811 120.801 62.769 120.801C62.384 120.801 62.0454 120.994 61.7534 121.379C61.4403 121.789 61.2837 122.299 61.2837 122.909V126H59.646V121.906C59.646 121.169 59.3921 120.801 58.8843 120.801C58.4907 120.801 58.1479 121 57.856 121.398C57.5513 121.813 57.3989 122.316 57.3989 122.909V126H55.7358V119.538H57.3101C57.3101 119.944 57.2847 120.329 57.2339 120.693L57.2466 120.706C57.6698 119.843 58.3786 119.411 59.373 119.411C60.3464 119.411 60.9409 119.839 61.1567 120.693C61.5672 119.839 62.2697 119.411 63.2642 119.411C64.5549 119.411 65.2002 120.126 65.2002 121.557V126H63.5371ZM68.8438 117.577C68.8438 117.852 68.7422 118.087 68.5391 118.281C68.3317 118.48 68.0863 118.58 67.8027 118.58C67.515 118.58 67.2716 118.482 67.0728 118.288C66.8739 118.093 66.7744 117.856 66.7744 117.577C66.7744 117.297 66.8739 117.058 67.0728 116.859C67.2716 116.66 67.515 116.561 67.8027 116.561C68.0905 116.561 68.3359 116.658 68.5391 116.853C68.7422 117.052 68.8438 117.293 68.8438 117.577ZM66.9712 126V119.538H68.6343V126H66.9712ZM74.3916 126V121.868C74.3916 121.157 74.1229 120.801 73.5854 120.801C73.1707 120.801 72.8174 121.007 72.5254 121.417C72.2334 121.823 72.0874 122.31 72.0874 122.877V126H70.4243V119.538H71.9985C71.9985 119.995 71.9668 120.38 71.9033 120.693H71.9224C72.3625 119.839 73.0946 119.411 74.1187 119.411C75.4009 119.411 76.042 120.095 76.042 121.461V126H74.3916ZM81.2788 126C81.2788 125.556 81.3 125.192 81.3423 124.908L81.3296 124.896C80.9784 125.716 80.2907 126.127 79.2666 126.127C78.6953 126.127 78.2404 125.951 77.9019 125.6C77.5802 125.262 77.4194 124.824 77.4194 124.286C77.4194 123.537 77.758 122.97 78.4351 122.585C79.0783 122.217 79.9839 122.033 81.1519 122.033V121.798C81.1519 121.4 81.0651 121.114 80.8916 120.941C80.7139 120.759 80.4155 120.668 79.9966 120.668C79.3787 120.668 78.7271 120.816 78.0415 121.112L77.7686 119.836C78.5049 119.544 79.3195 119.398 80.2124 119.398C81.173 119.398 81.8564 119.597 82.2627 119.995C82.6309 120.351 82.8149 120.909 82.8149 121.671V124.337C82.8149 124.972 82.8319 125.526 82.8657 126H81.2788ZM81.1519 123.125C79.73 123.125 79.019 123.45 79.019 124.102C79.019 124.318 79.0889 124.496 79.2285 124.635C79.3724 124.783 79.5628 124.857 79.7998 124.857C80.1891 124.857 80.515 124.694 80.7773 124.369C81.027 124.06 81.1519 123.702 81.1519 123.296V123.125ZM88.0264 121.036C86.8288 120.799 86.23 121.574 86.23 123.359V126H84.5669V119.538H86.1411C86.1411 119.949 86.1009 120.382 86.0205 120.839H86.0459C86.4437 119.794 87.1292 119.318 88.1025 119.411L88.0264 121.036ZM96.7734 126L94.0566 121.163C93.6842 120.435 93.424 119.864 93.2759 119.449C93.3351 120.342 93.3647 121.732 93.3647 123.62V126H91.7397V117.228H93.9741L96.6274 121.944C96.9237 122.464 97.2051 123.05 97.4717 123.702C97.4124 122.67 97.3828 121.248 97.3828 119.437V117.228H99.0078V126H96.7734ZM105.863 122.153C105.863 122.538 105.842 122.849 105.8 123.086H101.807C101.807 124.25 102.402 124.832 103.591 124.832C104.217 124.832 104.841 124.705 105.463 124.451L105.641 125.714C104.892 125.989 104.113 126.127 103.305 126.127C101.181 126.127 100.119 125.027 100.119 122.826C100.119 121.832 100.389 121.021 100.931 120.395C101.494 119.739 102.245 119.411 103.185 119.411C104.082 119.411 104.765 119.676 105.235 120.205C105.654 120.683 105.863 121.332 105.863 122.153ZM104.213 121.982C104.238 121.081 103.866 120.63 103.096 120.63C102.342 120.63 101.917 121.081 101.82 121.982H104.213ZM113.163 122.648C113.163 123.66 112.854 124.493 112.236 125.149C111.614 125.801 110.823 126.127 109.862 126.127C107.844 126.127 106.834 125.044 106.834 122.877C106.834 121.866 107.139 121.036 107.749 120.389C108.366 119.737 109.162 119.411 110.135 119.411C111.087 119.411 111.824 119.671 112.344 120.192C112.89 120.746 113.163 121.565 113.163 122.648ZM111.449 122.737C111.449 121.455 110.973 120.814 110.021 120.814C109.615 120.814 109.276 120.964 109.005 121.265C108.701 121.607 108.548 122.09 108.548 122.712C108.548 124.045 109.031 124.711 109.996 124.711C110.423 124.711 110.768 124.546 111.03 124.216C111.31 123.865 111.449 123.372 111.449 122.737ZM122.386 126L121.79 124.204H118.463L117.848 126H116.146L119.174 117.228H121.167L124.259 126H122.386ZM120.463 120.255C120.311 119.794 120.194 119.39 120.114 119.043H120.101C119.961 119.563 119.847 119.968 119.758 120.255L118.863 122.864H121.358L120.463 120.255ZM125.179 126V117.228H126.868V126H125.179Z" fill="#FF0040"/>
<path d="M46.7446 144L46.1479 142.204H42.8218L42.2061 144H40.5049L43.5327 135.228H45.5259L48.6172 144H46.7446ZM44.8213 138.255C44.6689 137.794 44.5526 137.39 44.4722 137.043H44.4595C44.3198 137.563 44.2056 137.968 44.1167 138.255L43.2217 140.864H45.7163L44.8213 138.255ZM53.1685 144C53.1685 143.632 53.1938 143.272 53.2446 142.921H53.2192C52.8341 143.738 52.1549 144.146 51.1816 144.146C50.4115 144.146 49.8211 143.871 49.4106 143.321C49.0213 142.796 48.8267 142.06 48.8267 141.112C48.8267 140.007 49.1292 139.121 49.7344 138.452C50.3522 137.767 51.1901 137.424 52.248 137.424C52.54 137.424 52.813 137.441 53.0669 137.475V134.51H54.7173V144H53.1685ZM53.0669 138.839C52.7453 138.772 52.4533 138.738 52.1909 138.738C51.1076 138.738 50.5659 139.47 50.5659 140.934C50.5659 142.153 50.9362 142.762 51.6768 142.762C52.0957 142.762 52.4364 142.549 52.6987 142.121C52.9442 141.719 53.0669 141.228 53.0669 140.648V138.839ZM62.3789 140.648C62.3789 141.66 62.07 142.493 61.4521 143.149C60.8301 143.801 60.0387 144.127 59.0781 144.127C57.0596 144.127 56.0503 143.044 56.0503 140.877C56.0503 139.866 56.355 139.036 56.9644 138.389C57.5822 137.737 58.3778 137.411 59.3511 137.411C60.3032 137.411 61.0396 137.671 61.5601 138.192C62.106 138.746 62.3789 139.565 62.3789 140.648ZM60.665 140.737C60.665 139.455 60.189 138.814 59.2368 138.814C58.8306 138.814 58.492 138.964 58.2212 139.265C57.9165 139.607 57.7642 140.09 57.7642 140.712C57.7642 142.045 58.2466 142.711 59.2114 142.711C59.6388 142.711 59.9837 142.546 60.2461 142.216C60.5254 141.865 60.665 141.372 60.665 140.737ZM69.5581 140.439C69.5581 141.552 69.2534 142.441 68.644 143.105C68.0135 143.786 67.1523 144.127 66.0605 144.127C65.1973 144.127 64.3953 144.023 63.6548 143.816V134.51H65.3179V137.291C65.3179 137.773 65.284 138.194 65.2163 138.554H65.229C65.5802 137.792 66.2298 137.411 67.1777 137.411C67.9437 137.411 68.534 137.676 68.9487 138.205C69.355 138.729 69.5581 139.474 69.5581 140.439ZM67.8125 140.604C67.8125 139.394 67.4443 138.789 66.708 138.789C66.2891 138.789 65.9484 139 65.686 139.423C65.4406 139.821 65.3179 140.301 65.3179 140.864V142.686C65.5506 142.766 65.8405 142.807 66.1875 142.807C67.2708 142.807 67.8125 142.072 67.8125 140.604ZM76.3057 140.153C76.3057 140.538 76.2845 140.849 76.2422 141.086H72.2495C72.2495 142.25 72.8441 142.832 74.0332 142.832C74.6595 142.832 75.2837 142.705 75.9058 142.451L76.0835 143.714C75.3345 143.989 74.5558 144.127 73.7476 144.127C71.6232 144.127 70.561 143.027 70.561 140.826C70.561 139.832 70.8319 139.021 71.3735 138.395C71.9364 137.739 72.6875 137.411 73.627 137.411C74.5241 137.411 75.2075 137.676 75.6772 138.205C76.0962 138.683 76.3057 139.332 76.3057 140.153ZM74.6553 139.982C74.6807 139.081 74.3083 138.63 73.5381 138.63C72.7848 138.63 72.3595 139.081 72.2622 139.982H74.6553ZM85.2368 144L83.3516 140.775L81.4663 144H79.4668L82.2598 139.512L79.6382 135.228H81.5996L83.377 138.268L85.1479 135.228H87.0713L84.4878 139.5L87.3696 144H85.2368ZM95.6914 139.461C95.6914 140.93 95.2428 142.07 94.3457 142.883C93.4867 143.661 92.3229 144.051 90.8545 144.051C90.4609 144.051 89.6463 144.03 88.4106 143.987V135.24C89.5575 135.194 90.5011 135.17 91.2417 135.17C94.2082 135.17 95.6914 136.601 95.6914 139.461ZM93.8696 139.595C93.8696 137.593 92.9556 136.592 91.1274 136.592C90.717 136.592 90.3742 136.605 90.0991 136.63V142.546C90.3615 142.589 90.6704 142.61 91.0259 142.61C91.8892 142.61 92.5684 142.367 93.0635 141.88C93.6009 141.355 93.8696 140.593 93.8696 139.595Z" fill="#FF0040"/>
<path d="M44.9609 70.9492C44.4785 71.0677 44.0109 71.127 43.5581 71.127C42.8472 71.127 42.3563 70.9788 42.0854 70.6826C41.8188 70.3864 41.6855 69.8595 41.6855 69.1021V65.8267H40.5684V64.5381H41.6855V62.5513L43.3359 62.1069V64.5381H44.9102V65.8267H43.3359V68.6577C43.3359 69.0724 43.3931 69.3538 43.5073 69.502C43.6174 69.6501 43.8162 69.7241 44.104 69.7241C44.3918 69.7241 44.6393 69.6945 44.8467 69.6353L44.9609 70.9492ZM52.0576 67.6484C52.0576 68.6598 51.7487 69.4935 51.1309 70.1494C50.5088 70.8011 49.7174 71.127 48.7568 71.127C46.7383 71.127 45.729 70.0436 45.729 67.877C45.729 66.8656 46.0337 66.0361 46.6431 65.3887C47.2609 64.737 48.0565 64.4111 49.0298 64.4111C49.9819 64.4111 50.7183 64.6714 51.2388 65.1919C51.7847 65.7463 52.0576 66.5651 52.0576 67.6484ZM50.3438 67.7373C50.3438 66.4551 49.8677 65.814 48.9155 65.814C48.5093 65.814 48.1707 65.9642 47.8999 66.2646C47.5952 66.6074 47.4429 67.0898 47.4429 67.7119C47.4429 69.0449 47.9253 69.7114 48.8901 69.7114C49.3175 69.7114 49.6624 69.5464 49.9248 69.2163C50.2041 68.8651 50.3438 68.3721 50.3438 67.7373ZM59.1987 67.4263C59.1987 68.5688 58.911 69.4596 58.3354 70.0986C57.7388 70.7588 56.8903 71.0889 55.79 71.0889C55.4769 71.0889 55.1997 71.0719 54.9585 71.0381V74.1357H53.2954V64.5381H54.8442C54.8442 64.9782 54.821 65.3379 54.7744 65.6172H54.8062C55.1955 64.8132 55.8704 64.4111 56.8311 64.4111C57.5928 64.4111 58.1789 64.6735 58.5894 65.1982C58.9956 65.723 59.1987 66.4657 59.1987 67.4263ZM57.4531 67.604C57.4531 66.3853 57.085 65.7759 56.3486 65.7759C55.9297 65.7759 55.589 65.9896 55.3267 66.417C55.0812 66.8232 54.9585 67.3162 54.9585 67.896V69.686C55.2209 69.7664 55.5107 69.8066 55.8281 69.8066C56.9115 69.8066 57.4531 69.0724 57.4531 67.604ZM64.0737 71C64.0737 70.5557 64.0949 70.1917 64.1372 69.9082L64.1245 69.8955C63.7733 70.7165 63.0856 71.127 62.0615 71.127C61.4902 71.127 61.0353 70.9513 60.6968 70.6001C60.3752 70.2616 60.2144 69.8236 60.2144 69.2861C60.2144 68.5371 60.5529 67.9701 61.23 67.585C61.8732 67.2168 62.7788 67.0327 63.9468 67.0327V66.7979C63.9468 66.4001 63.86 66.1144 63.6865 65.9409C63.5088 65.759 63.2104 65.668 62.7915 65.668C62.1737 65.668 61.522 65.8161 60.8364 66.1123L60.5635 64.8364C61.2998 64.5444 62.1144 64.3984 63.0073 64.3984C63.9679 64.3984 64.6514 64.5973 65.0576 64.9951C65.4258 65.3506 65.6099 65.9092 65.6099 66.6709V69.3369C65.6099 69.9717 65.6268 70.526 65.6606 71H64.0737ZM63.9468 68.1245C62.5249 68.1245 61.814 68.4504 61.814 69.1021C61.814 69.3179 61.8838 69.4956 62.0234 69.6353C62.1673 69.7834 62.3577 69.8574 62.5947 69.8574C62.984 69.8574 63.3099 69.6945 63.5723 69.3687C63.8219 69.0597 63.9468 68.7021 63.9468 68.2959V68.1245ZM67.127 71V69.8193L69.7295 66.0107C69.3994 66.0277 68.9403 66.0361 68.3521 66.0361H67.2031V64.5381H71.729V65.7251L69.1836 69.4893C69.3656 69.4808 69.8543 69.4766 70.6499 69.4766H71.7798V71H67.127ZM81.625 64.8745C81.625 65.7928 81.3288 66.5355 80.7363 67.1025C80.1058 67.6992 79.2404 67.9976 78.1401 67.9976C77.9243 67.9976 77.7212 67.9891 77.5308 67.9722V71H75.8423V62.2275C76.6463 62.1895 77.4652 62.1704 78.2988 62.1704C79.3695 62.1704 80.1925 62.4053 80.7681 62.875C81.3394 63.3447 81.625 64.0112 81.625 64.8745ZM79.873 65.0459C79.873 64.0599 79.3102 63.5669 78.1846 63.5669C77.9645 63.5669 77.7466 63.5711 77.5308 63.5796V66.5249C77.7466 66.5715 77.9857 66.5947 78.248 66.5947C79.3314 66.5947 79.873 66.0785 79.873 65.0459ZM86.7412 71V66.8677C86.7412 66.1567 86.4725 65.8013 85.9351 65.8013C85.5203 65.8013 85.167 66.0065 84.875 66.417C84.583 66.8275 84.437 67.3205 84.437 67.896V71H82.7739V61.5103H84.437V64.2905C84.437 64.8322 84.3989 65.2702 84.3228 65.6045H84.3481C84.7671 64.8089 85.4738 64.4111 86.4683 64.4111C87.7505 64.4111 88.3916 65.0946 88.3916 66.4614V71H86.7412ZM96.0342 67.6484C96.0342 68.6598 95.7253 69.4935 95.1074 70.1494C94.4854 70.8011 93.694 71.127 92.7334 71.127C90.7148 71.127 89.7056 70.0436 89.7056 67.877C89.7056 66.8656 90.0103 66.0361 90.6196 65.3887C91.2375 64.737 92.033 64.4111 93.0063 64.4111C93.9585 64.4111 94.6948 64.6714 95.2153 65.1919C95.7612 65.7463 96.0342 66.5651 96.0342 67.6484ZM94.3203 67.7373C94.3203 66.4551 93.8442 65.814 92.8921 65.814C92.4858 65.814 92.1473 65.9642 91.8765 66.2646C91.5718 66.6074 91.4194 67.0898 91.4194 67.7119C91.4194 69.0449 91.9019 69.7114 92.8667 69.7114C93.2941 69.7114 93.639 69.5464 93.9014 69.2163C94.1807 68.8651 94.3203 68.3721 94.3203 67.7373ZM100.846 70.9492C100.363 71.0677 99.8957 71.127 99.4429 71.127C98.7319 71.127 98.241 70.9788 97.9702 70.6826C97.7036 70.3864 97.5703 69.8595 97.5703 69.1021V65.8267H96.4531V64.5381H97.5703V62.5513L99.2207 62.1069V64.5381H100.795V65.8267H99.2207V68.6577C99.2207 69.0724 99.2778 69.3538 99.3921 69.502C99.5021 69.6501 99.701 69.7241 99.9888 69.7241C100.277 69.7241 100.524 69.6945 100.731 69.6353L100.846 70.9492ZM107.942 67.6484C107.942 68.6598 107.633 69.4935 107.016 70.1494C106.394 70.8011 105.602 71.127 104.642 71.127C102.623 71.127 101.614 70.0436 101.614 67.877C101.614 66.8656 101.918 66.0361 102.528 65.3887C103.146 64.737 103.941 64.4111 104.915 64.4111C105.867 64.4111 106.603 64.6714 107.124 65.1919C107.669 65.7463 107.942 66.5651 107.942 67.6484ZM106.229 67.7373C106.229 66.4551 105.752 65.814 104.8 65.814C104.394 65.814 104.056 65.9642 103.785 66.2646C103.48 66.6074 103.328 67.0898 103.328 67.7119C103.328 69.0449 103.81 69.7114 104.775 69.7114C105.202 69.7114 105.547 69.5464 105.81 69.2163C106.089 68.8651 106.229 68.3721 106.229 67.7373ZM117.166 71L116.569 69.2036H113.243L112.627 71H110.926L113.954 62.2275H115.947L119.038 71H117.166ZM115.242 65.2554C115.09 64.7941 114.973 64.39 114.893 64.043H114.88C114.741 64.5635 114.626 64.9676 114.538 65.2554L113.643 67.8643H116.137L115.242 65.2554ZM119.958 71V62.2275H121.647V71H119.958Z" fill="#FF0040"/>
<path d="M44.7446 54L44.1479 52.2036H40.8218L40.2061 54H38.5049L41.5327 45.2275H43.5259L46.6172 54H44.7446ZM42.8213 48.2554C42.6689 47.7941 42.5526 47.39 42.4722 47.043H42.4595C42.3198 47.5635 42.2056 47.9676 42.1167 48.2554L41.2217 50.8643H43.7163L42.8213 48.2554ZM51.1685 54C51.1685 53.6318 51.1938 53.2721 51.2446 52.9209H51.2192C50.8341 53.7376 50.1549 54.146 49.1816 54.146C48.4115 54.146 47.8211 53.8709 47.4106 53.3208C47.0213 52.7961 46.8267 52.0597 46.8267 51.1118C46.8267 50.0073 47.1292 49.1208 47.7344 48.4521C48.3522 47.7666 49.1901 47.4238 50.248 47.4238C50.54 47.4238 50.813 47.4408 51.0669 47.4746V44.5103H52.7173V54H51.1685ZM51.0669 48.8394C50.7453 48.7716 50.4533 48.7378 50.1909 48.7378C49.1076 48.7378 48.5659 49.4699 48.5659 50.9341C48.5659 52.1528 48.9362 52.7622 49.6768 52.7622C50.0957 52.7622 50.4364 52.5485 50.6987 52.1211C50.9442 51.7191 51.0669 51.2282 51.0669 50.6484V48.8394ZM60.3789 50.6484C60.3789 51.6598 60.07 52.4935 59.4521 53.1494C58.8301 53.8011 58.0387 54.127 57.0781 54.127C55.0596 54.127 54.0503 53.0436 54.0503 50.877C54.0503 49.8656 54.355 49.0361 54.9644 48.3887C55.5822 47.737 56.3778 47.4111 57.3511 47.4111C58.3032 47.4111 59.0396 47.6714 59.5601 48.1919C60.106 48.7463 60.3789 49.5651 60.3789 50.6484ZM58.665 50.7373C58.665 49.4551 58.189 48.814 57.2368 48.814C56.8306 48.814 56.492 48.9642 56.2212 49.2646C55.9165 49.6074 55.7642 50.0898 55.7642 50.7119C55.7642 52.0449 56.2466 52.7114 57.2114 52.7114C57.6388 52.7114 57.9837 52.5464 58.2461 52.2163C58.5254 51.8651 58.665 51.3721 58.665 50.7373ZM67.5581 50.439C67.5581 51.5519 67.2534 52.4406 66.644 53.105C66.0135 53.7863 65.1523 54.127 64.0605 54.127C63.1973 54.127 62.3953 54.0233 61.6548 53.8159V44.5103H63.3179V47.2905C63.3179 47.7729 63.284 48.194 63.2163 48.5537H63.229C63.5802 47.792 64.2298 47.4111 65.1777 47.4111C65.9437 47.4111 66.534 47.6756 66.9487 48.2046C67.355 48.7293 67.5581 49.4741 67.5581 50.439ZM65.8125 50.604C65.8125 49.3937 65.4443 48.7886 64.708 48.7886C64.2891 48.7886 63.9484 49.0002 63.686 49.4233C63.4406 49.8211 63.3179 50.3014 63.3179 50.8643V52.686C63.5506 52.7664 63.8405 52.8066 64.1875 52.8066C65.2708 52.8066 65.8125 52.0724 65.8125 50.604ZM74.3057 50.1533C74.3057 50.5384 74.2845 50.8494 74.2422 51.0864H70.2495C70.2495 52.2502 70.8441 52.832 72.0332 52.832C72.6595 52.832 73.2837 52.7051 73.9058 52.4512L74.0835 53.7144C73.3345 53.9894 72.5558 54.127 71.7476 54.127C69.6232 54.127 68.561 53.0267 68.561 50.8262C68.561 49.8317 68.8319 49.0213 69.3735 48.395C69.9364 47.7391 70.6875 47.4111 71.627 47.4111C72.5241 47.4111 73.2075 47.6756 73.6772 48.2046C74.0962 48.6828 74.3057 49.3324 74.3057 50.1533ZM72.6553 49.9819C72.6807 49.0806 72.3083 48.6299 71.5381 48.6299C70.7848 48.6299 70.3595 49.0806 70.2622 49.9819H72.6553ZM84.0303 47.8745C84.0303 48.7928 83.734 49.5355 83.1416 50.1025C82.5111 50.6992 81.6457 50.9976 80.5454 50.9976C80.3296 50.9976 80.1265 50.9891 79.936 50.9722V54H78.2476V45.2275C79.0516 45.1895 79.8704 45.1704 80.7041 45.1704C81.7747 45.1704 82.5978 45.4053 83.1733 45.875C83.7446 46.3447 84.0303 47.0112 84.0303 47.8745ZM82.2783 48.0459C82.2783 47.0599 81.7155 46.5669 80.5898 46.5669C80.3698 46.5669 80.1519 46.5711 79.936 46.5796V49.5249C80.1519 49.5715 80.391 49.5947 80.6533 49.5947C81.7367 49.5947 82.2783 49.0785 82.2783 48.0459ZM89.1465 54V49.8677C89.1465 49.1567 88.8778 48.8013 88.3403 48.8013C87.9256 48.8013 87.5723 49.0065 87.2803 49.417C86.9883 49.8275 86.8423 50.3205 86.8423 50.896V54H85.1792V44.5103H86.8423V47.2905C86.8423 47.8322 86.8042 48.2702 86.728 48.6045H86.7534C87.1724 47.8089 87.8791 47.4111 88.8735 47.4111C90.1558 47.4111 90.7969 48.0946 90.7969 49.4614V54H89.1465ZM98.4395 50.6484C98.4395 51.6598 98.1305 52.4935 97.5127 53.1494C96.8906 53.8011 96.0993 54.127 95.1387 54.127C93.1201 54.127 92.1108 53.0436 92.1108 50.877C92.1108 49.8656 92.4155 49.0361 93.0249 48.3887C93.6427 47.737 94.4383 47.4111 95.4116 47.4111C96.3638 47.4111 97.1001 47.6714 97.6206 48.1919C98.1665 48.7463 98.4395 49.5651 98.4395 50.6484ZM96.7256 50.7373C96.7256 49.4551 96.2495 48.814 95.2974 48.814C94.8911 48.814 94.5526 48.9642 94.2817 49.2646C93.9771 49.6074 93.8247 50.0898 93.8247 50.7119C93.8247 52.0449 94.3071 52.7114 95.272 52.7114C95.6994 52.7114 96.0443 52.5464 96.3066 52.2163C96.5859 51.8651 96.7256 51.3721 96.7256 50.7373ZM103.251 53.9492C102.769 54.0677 102.301 54.127 101.848 54.127C101.137 54.127 100.646 53.9788 100.375 53.6826C100.109 53.3864 99.9756 52.8595 99.9756 52.1021V48.8267H98.8584V47.5381H99.9756V45.5513L101.626 45.1069V47.5381H103.2V48.8267H101.626V51.6577C101.626 52.0724 101.683 52.3538 101.797 52.502C101.907 52.6501 102.106 52.7241 102.394 52.7241C102.682 52.7241 102.929 52.6945 103.137 52.6353L103.251 53.9492ZM110.348 50.6484C110.348 51.6598 110.039 52.4935 109.421 53.1494C108.799 53.8011 108.007 54.127 107.047 54.127C105.028 54.127 104.019 53.0436 104.019 50.877C104.019 49.8656 104.324 49.0361 104.933 48.3887C105.551 47.737 106.347 47.4111 107.32 47.4111C108.272 47.4111 109.008 47.6714 109.529 48.1919C110.075 48.7463 110.348 49.5651 110.348 50.6484ZM108.634 50.7373C108.634 49.4551 108.158 48.814 107.206 48.814C106.799 48.814 106.461 48.9642 106.19 49.2646C105.885 49.6074 105.733 50.0898 105.733 50.7119C105.733 52.0449 106.215 52.7114 107.18 52.7114C107.608 52.7114 107.952 52.5464 108.215 52.2163C108.494 51.8651 108.634 51.3721 108.634 50.7373ZM115.686 51.9878C115.686 52.631 115.426 53.1494 114.905 53.543C114.385 53.9323 113.697 54.127 112.842 54.127C112.279 54.127 111.797 54.0719 111.395 53.9619L111.516 52.5718C111.913 52.7453 112.373 52.832 112.893 52.832C113.587 52.832 113.934 52.5972 113.934 52.1274C113.934 51.882 113.797 51.6852 113.521 51.5371C113.496 51.5244 113.196 51.408 112.62 51.188C111.744 50.8579 111.306 50.2824 111.306 49.4614C111.306 48.8563 111.528 48.3696 111.973 48.0015C112.464 47.5994 113.155 47.3984 114.048 47.3984C114.425 47.3984 114.814 47.4408 115.216 47.5254L115.14 48.8267C114.759 48.7124 114.37 48.6553 113.972 48.6553C113.337 48.6553 113.02 48.8774 113.02 49.3218C113.02 49.5545 113.16 49.7471 113.439 49.8994L114.353 50.2676C115.242 50.6188 115.686 51.1922 115.686 51.9878ZM121.037 54V49.8677C121.037 49.1567 120.768 48.8013 120.231 48.8013C119.816 48.8013 119.463 49.0065 119.171 49.417C118.879 49.8275 118.733 50.3205 118.733 50.896V54H117.07V44.5103H118.733V47.2905C118.733 47.8322 118.695 48.2702 118.619 48.6045H118.644C119.063 47.8089 119.77 47.4111 120.764 47.4111C122.046 47.4111 122.688 48.0946 122.688 49.4614V54H121.037ZM130.33 50.6484C130.33 51.6598 130.021 52.4935 129.403 53.1494C128.781 53.8011 127.99 54.127 127.029 54.127C125.011 54.127 124.001 53.0436 124.001 50.877C124.001 49.8656 124.306 49.0361 124.916 48.3887C125.533 47.737 126.329 47.4111 127.302 47.4111C128.254 47.4111 128.991 47.6714 129.511 48.1919C130.057 48.7463 130.33 49.5651 130.33 50.6484ZM128.616 50.7373C128.616 49.4551 128.14 48.814 127.188 48.814C126.782 48.814 126.443 48.9642 126.172 49.2646C125.868 49.6074 125.715 50.0898 125.715 50.7119C125.715 52.0449 126.198 52.7114 127.163 52.7114C127.59 52.7114 127.935 52.5464 128.197 52.2163C128.477 51.8651 128.616 51.3721 128.616 50.7373ZM137.471 50.4263C137.471 51.5688 137.183 52.4596 136.608 53.0986C136.011 53.7588 135.163 54.0889 134.062 54.0889C133.749 54.0889 133.472 54.0719 133.231 54.0381V57.1357H131.568V47.5381H133.117C133.117 47.9782 133.093 48.3379 133.047 48.6172H133.079C133.468 47.8132 134.143 47.4111 135.104 47.4111C135.865 47.4111 136.451 47.6735 136.862 48.1982C137.268 48.723 137.471 49.4657 137.471 50.4263ZM135.726 50.604C135.726 49.3853 135.357 48.7759 134.621 48.7759C134.202 48.7759 133.861 48.9896 133.599 49.417C133.354 49.8232 133.231 50.3162 133.231 50.896V52.686C133.493 52.7664 133.783 52.8066 134.101 52.8066C135.184 52.8066 135.726 52.0724 135.726 50.604Z" fill="#FF0040"/>
<path d="M193.492 52H146.492V51H193.492V52Z" fill="#00AEEF"/>
<path d="M193.492 68H146.492V67H193.492V68Z" fill="#00AEEF"/>
<path d="M193.492 105H146.492V104H193.492V105Z" fill="#00AEEF"/>
<path d="M193.492 123H146.492V122H193.492V123Z" fill="#00AEEF"/>
<path d="M193.492 142H146.492V141H193.492V142Z" fill="#00AEEF"/>
<path d="M193.492 86H146.492V85H193.492V86Z" fill="#00AEEF"/>
<path d="M217.487 164.365C217.431 164.111 217.184 163.953 216.954 164.014C216.818 164.075 216.713 164.163 216.654 164.264C216.596 164.366 216.586 164.478 216.626 164.584L216.668 164.772L217.1 164.662L216.673 164.776C216.688 164.852 216.726 164.927 216.785 164.994C216.826 165.046 216.879 165.104 216.936 165.172C217.16 165.406 217.359 165.65 217.531 165.903C217.661 166.125 217.934 166.192 218.136 166.053C218.244 165.961 218.314 165.853 218.338 165.739C218.362 165.624 218.341 165.508 218.277 165.401C218.076 165.092 217.838 164.795 217.567 164.511C217.526 164.466 217.52 164.488 217.511 164.481L217.487 164.365Z" fill="#FFFFFE"/>
<path d="M216.061 165.758C216.005 166.012 215.759 166.17 215.529 166.109C214.975 165.968 215.203 165.284 215.506 164.953C215.73 164.719 215.929 164.475 216.101 164.222C216.231 164 216.503 163.933 216.706 164.072C216.814 164.164 216.883 164.272 216.908 164.386C216.932 164.501 216.911 164.617 216.847 164.724C216.665 165.034 216.09 165.574 216.055 165.758H216.061Z" fill="#FFFFFE"/>
<path d="M177.421 158.808H154.366C152.63 158.808 151.222 159.761 151.222 160.937V173.711C151.222 174.886 152.63 175.84 154.366 175.84H177.421C179.157 175.84 180.564 174.886 180.564 173.711V160.937C180.564 159.761 179.157 158.808 177.421 158.808Z" fill="#29B71C"/>
<path d="M170.557 164.96L163.222 162.477C163.062 162.422 162.885 162.396 162.706 162.401C162.528 162.406 162.354 162.442 162.202 162.505C162.05 162.569 161.924 162.657 161.836 162.763C161.749 162.868 161.703 162.987 161.702 163.108V168.7C161.704 168.827 161.755 168.951 161.851 169.059C161.946 169.168 162.083 169.257 162.247 169.318C162.399 169.379 162.573 169.411 162.75 169.41C162.946 169.41 163.139 169.374 163.305 169.304L170.641 166.195C170.8 166.128 170.929 166.034 171.016 165.921C171.103 165.809 171.143 165.683 171.134 165.557C171.124 165.432 171.065 165.311 170.964 165.206C170.863 165.101 170.722 165.017 170.557 164.96Z" fill="#EEEEEE"/>
<path d="M154.366 158.808C153.532 158.808 152.733 159.032 152.143 159.431C151.553 159.83 151.222 160.372 151.222 160.937V173.711C151.222 174.275 151.553 174.817 152.143 175.216C152.733 175.615 153.532 175.84 154.366 175.84H165.893V158.808H154.366Z" fill="#E53935"/>
<path d="M163.222 162.477C163.062 162.422 162.885 162.396 162.706 162.401C162.528 162.406 162.354 162.442 162.202 162.505C162.05 162.569 161.924 162.657 161.836 162.763C161.749 162.868 161.703 162.987 161.702 163.108V168.7C161.704 168.827 161.755 168.951 161.851 169.059C161.946 169.168 162.083 169.257 162.247 169.318C162.399 169.379 162.573 169.411 162.75 169.41C162.946 169.41 163.139 169.374 163.305 169.304L165.894 168.204V163.378L163.222 162.477Z" fill="#00AEEF"/>
<path d="M211.374 161.231H214.798L209.907 158V160.262C209.907 160.797 210.564 161.231 211.374 161.231Z" fill="#00AEEF"/>
<path d="M209.374 159.615H189.123V165.269H209.374C209.668 165.269 209.907 165.129 209.907 164.955V159.929C209.907 159.756 209.668 159.615 209.374 159.615Z" fill="#C6CACF"/>
<path d="M208.163 165.269H185.977C185.513 165.269 185.28 164.883 185.609 164.656L189.408 162.038L185.609 159.42C185.28 159.194 185.513 158.808 185.977 158.808H208.163C208.451 158.808 208.684 158.968 208.684 159.167V164.91C208.684 165.108 208.451 165.269 208.163 165.269Z" fill="#00AEEF"/>
<path d="M197.137 160.93H195.118C194.84 160.93 194.614 161.079 194.614 161.263V163.263C194.614 163.447 194.84 163.597 195.118 163.597C195.397 163.597 195.623 163.447 195.623 163.263V162.596H197.137C197.415 162.596 197.641 162.447 197.641 162.263V161.263C197.641 161.079 197.415 160.93 197.137 160.93ZM196.632 161.93H195.623V161.596H196.632V161.93Z" fill="white"/>
<path d="M199.66 160.93H198.65C198.372 160.93 198.146 161.079 198.146 161.263V163.263C198.146 163.447 198.372 163.597 198.65 163.597H200.669C200.947 163.597 201.173 163.447 201.173 163.263V161.93C201.173 161.378 200.494 160.93 199.66 160.93ZM200.164 162.93H199.155V161.596H199.659C199.938 161.596 200.164 161.746 200.164 161.93L200.164 162.93Z" fill="white"/>
<path d="M204.201 160.93H202.183C201.904 160.93 201.678 161.079 201.678 161.263V163.263C201.678 163.447 201.904 163.597 202.183 163.597C202.461 163.597 202.687 163.447 202.687 163.263V162.596H203.696C203.975 162.596 204.201 162.447 204.201 162.263C204.201 162.079 203.975 161.93 203.696 161.93H202.687V161.596H204.201C204.48 161.596 204.706 161.447 204.706 161.263C204.706 161.079 204.48 160.93 204.201 160.93Z" fill="white"/>
<path d="M209.41 176.577H194.51C194.236 176.577 194.013 176.42 194.013 176.227V166.427C194.013 166.234 194.236 166.077 194.51 166.077H209.41C209.685 166.077 209.907 166.234 209.907 166.427V176.227C209.907 176.42 209.684 176.577 209.41 176.577Z" fill="#C6CACF"/>
<path d="M195.007 175.877V166.077H194.51C194.236 166.077 194.013 166.234 194.013 166.427V176.227C194.013 176.42 194.236 176.577 194.51 176.577H209.41C209.685 176.577 209.907 176.42 209.907 176.227V175.877H195.007Z" fill="#00AEEF"/>
<path d="M208.214 174.962H203.041C202.782 174.962 202.571 174.807 202.571 174.615V170.461C202.571 170.27 202.782 170.115 203.041 170.115H208.214C208.474 170.115 208.684 170.27 208.684 170.461V174.615C208.684 174.807 208.474 174.962 208.214 174.962Z" fill="black"/>
<path d="M208.238 168.264H202.687C202.409 168.264 202.183 168.114 202.183 167.93C202.183 167.746 202.409 167.597 202.687 167.597H208.238C208.517 167.597 208.742 167.746 208.742 167.93C208.742 168.114 208.516 168.264 208.238 168.264Z" fill="#EF0000"/>
<path d="M208.238 169.597H202.687C202.409 169.597 202.183 169.448 202.183 169.264C202.183 169.08 202.409 168.93 202.687 168.93H208.238C208.517 168.93 208.742 169.08 208.742 169.264C208.742 169.448 208.516 169.597 208.238 169.597Z" fill="#EF0000"/>
<path d="M201.173 168.264H196.127C195.848 168.264 195.623 168.114 195.623 167.93C195.623 167.746 195.849 167.597 196.127 167.597H201.173C201.452 167.597 201.678 167.746 201.678 167.93C201.678 168.114 201.452 168.264 201.173 168.264Z" fill="#EF0000"/>
<path d="M201.173 169.597H196.127C195.848 169.597 195.623 169.448 195.623 169.264C195.623 169.08 195.849 168.93 196.127 168.93H201.173C201.452 168.93 201.678 169.08 201.678 169.264C201.678 169.448 201.452 169.597 201.173 169.597Z" fill="#EF0000"/>
<path d="M201.173 170.931H196.127C195.848 170.931 195.623 170.781 195.623 170.597C195.623 170.413 195.849 170.264 196.127 170.264H201.173C201.452 170.264 201.678 170.413 201.678 170.597C201.678 170.781 201.452 170.931 201.173 170.931Z" fill="#EF0000"/>
<path d="M147.554 159.615V174.154H145.72L141.441 166.885L145.72 159.615H147.554Z" fill="#EEEEEE"/>
<path d="M146.332 159.615V160.844L141.902 166.885L146.332 172.925V174.154H119.435V159.615H146.332Z" fill="white"/>
<path d="M120.658 160.423V169.637L133.495 170.923L146.333 169.637V160.423H120.658Z" fill="#29B71C"/>
<path d="M134.106 162.038V165.269C134.781 165.269 135.329 164.546 135.329 163.654C135.329 162.762 134.781 162.038 134.106 162.038Z" fill="#FE5F1A"/>
<path d="M133.617 162.038C133.887 162.038 134.106 162.762 134.106 163.654C134.106 164.546 133.887 165.269 133.617 165.269C132.537 165.269 131.661 164.546 131.661 163.654C131.661 162.762 132.537 162.038 133.617 162.038Z" fill="#00AEEF"/>
<path d="M146.332 171.731L138.997 167.692L144.45 168.337L146.332 169.639L146.332 171.731Z" fill="#027372"/>
<path d="M143.366 168.568L139.878 166.885L135.385 168.568L132.884 170.23L138.653 173.346H146.332V171.108L143.366 168.568Z" fill="#E53935"/>
<path d="M145.11 168.442L144.085 168.5L140.219 167.305V165.269L145.11 168.442Z" fill="#EEEEEE"/>
<path d="M135.329 168.5L139.458 165.269L142.664 168.5L135.329 168.5Z" fill="white"/>
<path d="M137.774 173.346H135.538L126.771 167.692L131.627 168.364L137.774 173.346Z" fill="#027372"/>
<path d="M130.055 168.568L135.329 173.346H120.658V169.871L122.511 168.568L126.758 166.885L130.055 168.568Z" fill="#00AEEF"/>
<path d="M131.661 168.442L130.636 168.5L126.771 167.305V165.269L131.661 168.442Z" fill="#EEEEEE"/>
<path d="M121.88 168.5L126.698 165.269L130.439 168.5L121.88 168.5Z" fill="white"/>
<path d="M148.289 158.808H118.7C118.431 158.808 118.212 158.954 118.212 159.135V174.634C118.212 174.815 118.431 174.961 118.7 174.961H148.289C148.559 174.961 148.777 174.815 148.777 174.634V159.135C148.777 158.954 148.559 158.808 148.289 158.808ZM147.802 174.307H119.188V159.462H147.802V174.307Z" fill="#00AEEF"/>
<path d="M136.551 163.654C136.551 162.763 135.18 162.038 133.495 162.038C131.81 162.038 130.438 162.763 130.438 163.654C130.438 164.545 131.81 165.269 133.495 165.269C135.18 165.269 136.551 164.545 136.551 163.654ZM131.404 163.654C131.404 163.044 132.342 162.549 133.495 162.549C134.648 162.549 135.586 163.044 135.586 163.654C135.586 164.263 134.648 164.759 133.495 164.759C132.342 164.759 131.404 164.263 131.404 163.654Z" fill="black"/>
<path d="M119.435 173.014C119.435 173.197 119.665 173.346 119.949 173.346H147.04C147.324 173.346 147.554 173.197 147.554 173.014V159.948C147.554 159.764 147.324 159.615 147.04 159.615H119.949C119.665 159.615 119.435 159.764 119.435 159.948V162.605C119.435 162.789 119.665 162.937 119.949 162.937C120.233 162.937 120.463 162.789 120.463 162.605V160.28H146.525V168.668L140.631 164.862C140.43 164.732 140.104 164.732 139.903 164.862L133.494 169.001L127.085 164.862C126.884 164.732 126.559 164.732 126.358 164.862L120.463 168.668V163.934C120.463 163.75 120.233 163.602 119.949 163.602C119.665 163.602 119.435 163.75 119.435 163.934V173.014ZM140.267 165.566L143.74 167.81H136.794L140.267 165.566ZM126.722 165.566L130.195 167.81H123.248L126.722 165.566ZM122.22 168.474H131.224L133.13 169.705C133.131 169.706 136.56 171.92 136.56 171.92C136.66 171.985 136.792 172.017 136.924 172.017C137.055 172.017 137.187 171.985 137.288 171.92C137.488 171.79 137.488 171.58 137.288 171.45L134.222 169.471L135.765 168.474H144.769L146.526 169.608V172.682H120.463V169.608L122.22 168.474Z" fill="black"/>
<path fill-rule="evenodd" clip-rule="evenodd" d="M104.846 162.065C105.009 162.065 105.142 162.207 105.142 162.381V168.317H104.551V162.381C104.551 162.205 104.683 162.065 104.846 162.065Z" fill="#FFFFFE"/>
<g filter="url(#filter1_d_74_7557)">
<mask id="path-95-inside-2_74_7557" fill="white">
<path d="M307.492 158H51.4922V158H307.492V158Z"/>
</mask>
<path d="M307.492 158H51.4922V158H307.492V158Z" fill="#231F20"/>
<path d="M307.492 157.7H51.4922V158.3H307.492V157.7ZM51.4922 158.3H307.492V157.7H51.4922V158.3Z" fill="black" mask="url(#path-95-inside-2_74_7557)"/>
</g>
<path d="M343.492 14L343.492 75" stroke="white"/>
<path d="M343.492 14L343.492 75" stroke="white"/>
<defs>
<filter id="filter0_d_74_7557" x="36.4922" y="0.700012" width="264" height="8.59998" filterUnits="userSpaceOnUse" color-interpolation-filters="sRGB">
<feFlood flood-opacity="0" result="BackgroundImageFix"/>
<feColorMatrix in="SourceAlpha" type="matrix" values="0 0 0 0 0 0 0 0 0 0 0 0 0 0 0 0 0 0 127 0" result="hardAlpha"/>
<feOffset dy="4"/>
<feGaussianBlur stdDeviation="2"/>
<feComposite in2="hardAlpha" operator="out"/>
<feColorMatrix type="matrix" values="0 0 0 0 0 0 0 0 0 0 0 0 0 0 0 0 0 0 0.25 0"/>
<feBlend mode="normal" in2="BackgroundImageFix" result="effect1_dropShadow_74_7557"/>
<feBlend mode="normal" in="SourceGraphic" in2="effect1_dropShadow_74_7557" result="shape"/>
</filter>
<filter id="filter1_d_74_7557" x="47.4922" y="157.7" width="264" height="8.6001" filterUnits="userSpaceOnUse" color-interpolation-filters="sRGB">
<feFlood flood-opacity="0" result="BackgroundImageFix"/>
<feColorMatrix in="SourceAlpha" type="matrix" values="0 0 0 0 0 0 0 0 0 0 0 0 0 0 0 0 0 0 127 0" result="hardAlpha"/>
<feOffset dy="4"/>
<feGaussianBlur stdDeviation="2"/>
<feComposite in2="hardAlpha" operator="out"/>
<feColorMatrix type="matrix" values="0 0 0 0 0 0 0 0 0 0 0 0 0 0 0 0 0 0 0.25 0"/>
<feBlend mode="normal" in2="BackgroundImageFix" result="effect1_dropShadow_74_7557"/>
<feBlend mode="normal" in="SourceGraphic" in2="effect1_dropShadow_74_7557" result="shape"/>
</filter>
</defs>
</svg>
