<svg width="809" height="204" viewBox="0 0 809 204" fill="none" xmlns="http://www.w3.org/2000/svg">
<rect width="809" height="204" fill="#F5F5F5"/>
<g filter="url(#filter0_d_0_1)">
<mask id="path-1-inside-1_0_1" fill="white">
<path d="M725.492 1H469.492H725.492Z"/>
</mask>
<path d="M725.492 1H469.492H725.492Z" fill="#231F20"/>
<path d="M725.492 1H469.492H725.492Z" stroke="black" stroke-width="0.6" mask="url(#path-1-inside-1_0_1)"/>
</g>
<path d="M429.492 14L429.492 75" stroke="white"/>
<path d="M429.492 14L429.492 75" stroke="white"/>
<path d="M596.931 8H725.909C727.089 8 728.257 8.23235 729.347 8.68379C730.436 9.13523 731.427 9.79691 732.261 10.6311C733.095 11.4652 733.757 12.4555 734.208 13.5454C734.66 14.6352 734.892 15.8033 734.892 16.983V33.152H596.931C593.596 33.152 590.397 31.827 588.038 29.4686C585.68 27.1101 584.355 23.9114 584.355 20.576C584.355 17.2406 585.68 14.0419 588.038 11.6834C590.397 9.32497 593.596 8 596.931 8Z" fill="#00AEEF"/>
<text fill="white" xml:space="preserve" style="white-space: pre" font-family="Harmattan" font-size="15" font-weight="bold" letter-spacing="0em"><tspan x="611.492" y="24.0872">&#x645;&#x647;&#x627;&#x631;&#x629; &#x627;&#x644;&#x62a;&#x635;&#x645;&#x64a;&#x645; &#x627;&#x644;&#x62c;&#x631;&#x627;&#x641;&#x64a;&#x643;</tspan></text>
<path d="M734.684 53.668C736.065 53.668 737.184 52.9964 737.184 52.168C737.184 51.3395 736.065 50.668 734.684 50.668C733.303 50.668 732.184 51.3395 732.184 52.168C732.184 52.9964 733.303 53.668 734.684 53.668Z" fill="#231F20"/>
<path d="M734.684 85.668C736.065 85.668 737.184 84.9964 737.184 84.168C737.184 83.3395 736.065 82.668 734.684 82.668C733.303 82.668 732.184 83.3395 732.184 84.168C732.184 84.9964 733.303 85.668 734.684 85.668Z" fill="#231F20"/>
<path d="M734.684 68.668C736.065 68.668 737.184 67.9964 737.184 67.168C737.184 66.3395 736.065 65.668 734.684 65.668C733.303 65.668 732.184 66.3395 732.184 67.168C732.184 67.9964 733.303 68.668 734.684 68.668Z" fill="#231F20"/>
<path d="M734.684 105.668C736.065 105.668 737.184 104.996 737.184 104.168C737.184 103.34 736.065 102.668 734.684 102.668C733.303 102.668 732.184 103.34 732.184 104.168C732.184 104.996 733.303 105.668 734.684 105.668Z" fill="#231F20"/>
<path d="M734.684 124.668C736.065 124.668 737.184 123.996 737.184 123.168C737.184 122.34 736.065 121.668 734.684 121.668C733.303 121.668 732.184 122.34 732.184 123.168C732.184 123.996 733.303 124.668 734.684 124.668Z" fill="#231F20"/>
<path d="M734.684 142.668C736.065 142.668 737.184 141.996 737.184 141.168C737.184 140.34 736.065 139.668 734.684 139.668C733.303 139.668 732.184 140.34 732.184 141.168C732.184 141.996 733.303 142.668 734.684 142.668Z" fill="#231F20"/>
<path d="M730.184 81.668H634.184V86.668H730.184V81.668Z" fill="#949598"/>
<path d="M730.184 64.668H634.184V69.668H730.184V64.668Z" fill="#949598"/>
<path d="M730.184 101.668H634.184V106.668H730.184V101.668Z" fill="#949598"/>
<path d="M730.184 120.668H634.184V125.668H730.184V120.668Z" fill="#949598"/>
<path d="M730.184 138.668H634.184V143.668H730.184V138.668Z" fill="#949598"/>
<path d="M730.184 48.668H634.184V53.668H730.184V48.668Z" fill="#949598"/>
<path d="M713.184 81.668H634.184V86.668H713.184V81.668Z" fill="#00AEEF"/>
<path d="M713.184 64.668H634.184V69.668H713.184V64.668Z" fill="#00AEEF"/>
<path d="M722.184 64.668H634.184V69.668H722.184V64.668Z" fill="#00AEEF"/>
<path d="M696.184 101.668H634.184V106.668H696.184V101.668Z" fill="#00AEEF"/>
<path d="M712.184 120.668H634.184V125.668H712.184V120.668Z" fill="#00AEEF"/>
<path d="M712.184 138.668H634.184V143.668H712.184V138.668Z" fill="#00AEEF"/>
<path d="M711.184 48.668H634.184V53.668H711.184V48.668Z" fill="#00AEEF"/>
<path d="M710.629 80.668C712.102 80.668 713.515 81.0515 714.557 81.7341C715.599 82.4167 716.184 83.3426 716.184 84.308V85.025C716.185 85.5033 716.041 85.9769 715.762 86.4189C715.484 86.8609 715.074 87.2625 714.559 87.6008C714.043 87.9391 713.43 88.2075 712.756 88.3906C712.081 88.5737 711.359 88.668 710.629 88.668C710.045 88.668 709.466 88.5925 708.927 88.446C708.387 88.2995 707.897 88.0847 707.484 87.814C707.072 87.5432 706.744 87.2219 706.521 86.8682C706.298 86.5145 706.183 86.1355 706.184 85.7528V83.5802C706.184 82.8078 706.652 82.0671 707.486 81.5209C708.319 80.9748 709.45 80.668 710.629 80.668Z" fill="black"/>
<path d="M724.184 63.668C725.51 63.668 726.782 64.0515 727.72 64.7341C728.657 65.4167 729.184 66.3426 729.184 67.308V68.025C729.185 68.5033 729.056 68.9769 728.805 69.4189C728.554 69.8609 728.185 70.2625 727.721 70.6008C727.257 70.9391 726.705 71.2075 726.099 71.3906C725.492 71.5737 724.841 71.668 724.184 71.668C723.659 71.668 723.138 71.5925 722.653 71.446C722.167 71.2995 721.726 71.0847 721.354 70.814C720.983 70.5432 720.688 70.2219 720.487 69.8682C720.287 69.5145 720.184 69.1355 720.184 68.7528V66.5802C720.184 65.8078 720.606 65.0671 721.356 64.5209C722.106 63.9748 723.123 63.668 724.184 63.668Z" fill="black"/>
<path d="M695.629 100.668C697.102 100.668 698.515 101.051 699.557 101.734C700.599 102.417 701.184 103.343 701.184 104.308V105.025C701.185 105.503 701.041 105.977 700.762 106.419C700.484 106.861 700.074 107.262 699.559 107.601C699.043 107.939 698.43 108.208 697.756 108.391C697.081 108.574 696.359 108.668 695.629 108.668C695.045 108.668 694.466 108.593 693.927 108.446C693.387 108.299 692.897 108.085 692.484 107.814C692.072 107.543 691.744 107.222 691.521 106.868C691.298 106.515 691.183 106.136 691.184 105.753V103.58C691.184 102.808 691.652 102.067 692.486 101.521C693.319 100.975 694.45 100.668 695.629 100.668Z" fill="black"/>
<path d="M712.184 119.668C713.51 119.668 714.782 120.051 715.72 120.734C716.657 121.417 717.184 122.343 717.184 123.308V124.025C717.185 124.503 717.056 124.977 716.805 125.419C716.554 125.861 716.185 126.262 715.721 126.601C715.257 126.939 714.705 127.208 714.099 127.391C713.492 127.574 712.841 127.668 712.184 127.668C711.659 127.668 711.138 127.593 710.653 127.446C710.167 127.299 709.726 127.085 709.354 126.814C708.983 126.543 708.688 126.222 708.487 125.868C708.287 125.515 708.184 125.136 708.184 124.753V122.58C708.184 121.808 708.606 121.067 709.356 120.521C710.106 119.975 711.123 119.668 712.184 119.668Z" fill="black"/>
<path d="M712.184 137.668C713.51 137.668 714.782 138.051 715.72 138.734C716.657 139.417 717.184 140.343 717.184 141.308V142.025C717.185 142.503 717.056 142.977 716.805 143.419C716.554 143.861 716.185 144.262 715.721 144.601C715.257 144.939 714.705 145.208 714.099 145.391C713.492 145.574 712.841 145.668 712.184 145.668C711.659 145.668 711.138 145.593 710.653 145.446C710.167 145.299 709.726 145.085 709.354 144.814C708.983 144.543 708.688 144.222 708.487 143.868C708.287 143.515 708.184 143.136 708.184 142.753V140.58C708.184 139.808 708.606 139.067 709.356 138.521C710.106 137.975 711.123 137.668 712.184 137.668Z" fill="black"/>
<path d="M706.629 47.668C708.102 47.668 709.515 48.0515 710.557 48.7341C711.599 49.4167 712.184 50.3426 712.184 51.308V52.025C712.185 52.5033 712.041 52.9769 711.762 53.4189C711.484 53.8609 711.074 54.2625 710.559 54.6008C710.043 54.9391 709.43 55.2075 708.756 55.3906C708.081 55.5737 707.359 55.668 706.629 55.668C706.045 55.668 705.466 55.5925 704.927 55.446C704.387 55.2995 703.897 55.0847 703.484 54.814C703.072 54.5432 702.744 54.2219 702.521 53.8682C702.298 53.5145 702.183 53.1355 702.184 52.7528V50.5802C702.184 49.8078 702.652 49.0671 703.486 48.5209C704.319 47.9748 705.45 47.668 706.629 47.668Z" fill="black"/>
<path d="M730.184 138.668H634.184V143.668H730.184V138.668Z" fill="#949598"/>
<path d="M712.184 138.668H634.184V143.668H712.184V138.668Z" fill="#00AEEF"/>
<path d="M712.184 137.668C713.51 137.668 714.782 138.051 715.72 138.734C716.657 139.417 717.184 140.343 717.184 141.308V142.025C717.185 142.503 717.056 142.977 716.805 143.419C716.554 143.861 716.185 144.262 715.721 144.601C715.257 144.939 714.705 145.208 714.099 145.391C713.492 145.574 712.841 145.668 712.184 145.668C711.659 145.668 711.138 145.593 710.653 145.446C710.167 145.299 709.726 145.085 709.354 144.814C708.983 144.543 708.688 144.222 708.487 143.868C708.287 143.515 708.184 143.136 708.184 142.753V140.58C708.184 139.808 708.606 139.067 709.356 138.521C710.106 137.975 711.123 137.668 712.184 137.668Z" fill="black"/>
<text fill="#FF0040" xml:space="preserve" style="white-space: pre" font-family="Bahij TheSansArabic" font-size="13" font-weight="500" letter-spacing="0em"><tspan x="469.492" y="89.261">Adobe InDesign</tspan></text>
<text fill="#FF0040" xml:space="preserve" style="white-space: pre" font-family="Bahij TheSansArabic" font-size="13" font-weight="500" letter-spacing="0em"><tspan x="469.492" y="108.261">Adobe Illustrator</tspan></text>
<text fill="#FF0040" xml:space="preserve" style="white-space: pre" font-family="Bahij TheSansArabic" font-size="13" font-weight="500" letter-spacing="0em"><tspan x="468.492" y="126.261"> Luminar Neo AI</tspan></text>
<text fill="#FF0040" xml:space="preserve" style="white-space: pre" font-family="Bahij TheSansArabic" font-size="13" font-weight="500" letter-spacing="0em"><tspan x="469.492" y="144.261">Adobe XD</tspan></text>
<text fill="#FF0040" xml:space="preserve" style="white-space: pre" font-family="Bahij TheSansArabic" font-size="13" font-weight="500" letter-spacing="0em"><tspan x="469.492" y="71.261">topaz Photo AI</tspan></text>
<text fill="#FF0040" xml:space="preserve" style="white-space: pre" font-family="Bahij TheSansArabic" font-size="13" font-weight="500" letter-spacing="0em"><tspan x="467.492" y="54.261">Adobe Photoshop</tspan></text>
<path d="M622.492 52H575.492V51H622.492V52Z" fill="#00AEEF"/>
<path d="M622.492 68H575.492V67H622.492V68Z" fill="#00AEEF"/>
<path d="M622.492 105H575.492V104H622.492V105Z" fill="#00AEEF"/>
<path d="M622.492 123H575.492V122H622.492V123Z" fill="#00AEEF"/>
<path d="M622.492 142H575.492V141H622.492V142Z" fill="#00AEEF"/>
<path d="M622.492 86H575.492V85H622.492V86Z" fill="#00AEEF"/>
<path d="M772.492 14L772.492 75" stroke="white"/>
<path d="M772.492 14L772.492 75" stroke="white"/>
<g filter="url(#filter1_d_0_1)">
<mask id="path-48-inside-2_0_1" fill="white">
<path d="M335 1H79H335Z"/>
</mask>
<path d="M335 1H79H335Z" fill="#231F20"/>
<path d="M335 1H79H335Z" stroke="black" stroke-width="0.6" mask="url(#path-48-inside-2_0_1)"/>
</g>
<path d="M39 14L39 75" stroke="white"/>
<path d="M39 14L39 75" stroke="white"/>
<path d="M206.439 8H335.417C336.596 8 337.765 8.23235 338.854 8.68379C339.944 9.13523 340.935 9.79691 341.769 10.6311C342.603 11.4652 343.265 12.4555 343.716 13.5454C344.167 14.6352 344.4 15.8033 344.4 16.983V33.152H206.439C203.103 33.152 199.905 31.827 197.546 29.4686C195.188 27.1101 193.863 23.9114 193.863 20.576C193.863 17.2406 195.188 14.0419 197.546 11.6834C199.905 9.32497 203.103 8 206.439 8Z" fill="#00AEEF"/>
<text fill="white" xml:space="preserve" style="white-space: pre" font-family="Harmattan" font-size="15" font-weight="bold" letter-spacing="0em"><tspan x="221" y="24.0872">graphic design skill</tspan></text>
<path d="M344.192 53.668C345.573 53.668 346.692 52.9964 346.692 52.168C346.692 51.3395 345.573 50.668 344.192 50.668C342.811 50.668 341.692 51.3395 341.692 52.168C341.692 52.9964 342.811 53.668 344.192 53.668Z" fill="#231F20"/>
<path d="M344.192 85.668C345.573 85.668 346.692 84.9964 346.692 84.168C346.692 83.3395 345.573 82.668 344.192 82.668C342.811 82.668 341.692 83.3395 341.692 84.168C341.692 84.9964 342.811 85.668 344.192 85.668Z" fill="#231F20"/>
<path d="M344.192 68.668C345.573 68.668 346.692 67.9964 346.692 67.168C346.692 66.3395 345.573 65.668 344.192 65.668C342.811 65.668 341.692 66.3395 341.692 67.168C341.692 67.9964 342.811 68.668 344.192 68.668Z" fill="#231F20"/>
<path d="M344.192 105.668C345.573 105.668 346.692 104.996 346.692 104.168C346.692 103.34 345.573 102.668 344.192 102.668C342.811 102.668 341.692 103.34 341.692 104.168C341.692 104.996 342.811 105.668 344.192 105.668Z" fill="#231F20"/>
<path d="M344.192 124.668C345.573 124.668 346.692 123.996 346.692 123.168C346.692 122.34 345.573 121.668 344.192 121.668C342.811 121.668 341.692 122.34 341.692 123.168C341.692 123.996 342.811 124.668 344.192 124.668Z" fill="#231F20"/>
<path d="M344.192 142.668C345.573 142.668 346.692 141.996 346.692 141.168C346.692 140.34 345.573 139.668 344.192 139.668C342.811 139.668 341.692 140.34 341.692 141.168C341.692 141.996 342.811 142.668 344.192 142.668Z" fill="#231F20"/>
<path d="M339.692 81.668H243.692V86.668H339.692V81.668Z" fill="#949598"/>
<path d="M339.692 64.668H243.692V69.668H339.692V64.668Z" fill="#949598"/>
<path d="M339.692 101.668H243.692V106.668H339.692V101.668Z" fill="#949598"/>
<path d="M339.692 120.668H243.692V125.668H339.692V120.668Z" fill="#949598"/>
<path d="M339.692 138.668H243.692V143.668H339.692V138.668Z" fill="#949598"/>
<path d="M339.692 48.668H243.692V53.668H339.692V48.668Z" fill="#949598"/>
<path d="M322.692 81.668H243.692V86.668H322.692V81.668Z" fill="#00AEEF"/>
<path d="M322.692 64.668H243.692V69.668H322.692V64.668Z" fill="#00AEEF"/>
<path d="M331.692 64.668H243.692V69.668H331.692V64.668Z" fill="#00AEEF"/>
<path d="M305.692 101.668H243.692V106.668H305.692V101.668Z" fill="#00AEEF"/>
<path d="M321.692 120.668H243.692V125.668H321.692V120.668Z" fill="#00AEEF"/>
<path d="M321.692 138.668H243.692V143.668H321.692V138.668Z" fill="#00AEEF"/>
<path d="M320.692 48.668H243.692V53.668H320.692V48.668Z" fill="#00AEEF"/>
<path d="M320.137 80.668C321.61 80.668 323.023 81.0515 324.065 81.7341C325.107 82.4167 325.692 83.3426 325.692 84.308V85.025C325.692 85.5033 325.549 85.9769 325.27 86.4189C324.991 86.8609 324.582 87.2625 324.066 87.6008C323.55 87.9391 322.938 88.2075 322.263 88.3906C321.589 88.5737 320.866 88.668 320.137 88.668C319.552 88.668 318.974 88.5925 318.435 88.446C317.895 88.2995 317.405 88.0847 316.992 87.814C316.579 87.5432 316.252 87.2219 316.029 86.8682C315.806 86.5145 315.691 86.1355 315.692 85.7528V83.5802C315.692 82.8078 316.16 82.0671 316.994 81.5209C317.827 80.9748 318.958 80.668 320.137 80.668Z" fill="black"/>
<path d="M333.692 63.668C335.018 63.668 336.29 64.0515 337.227 64.7341C338.165 65.4167 338.692 66.3426 338.692 67.308V68.025C338.692 68.5033 338.563 68.9769 338.312 69.4189C338.061 69.8609 337.693 70.2625 337.229 70.6008C336.765 70.9391 336.213 71.2075 335.606 71.3906C334.999 71.5737 334.349 71.668 333.692 71.668C333.166 71.668 332.646 71.5925 332.16 71.446C331.675 71.2995 331.234 71.0847 330.862 70.814C330.491 70.5432 330.196 70.2219 329.995 69.8682C329.794 69.5145 329.691 69.1355 329.692 68.7528V66.5802C329.692 65.8078 330.113 65.0671 330.864 64.5209C331.614 63.9748 332.631 63.668 333.692 63.668Z" fill="black"/>
<path d="M305.137 100.668C306.61 100.668 308.023 101.051 309.065 101.734C310.107 102.417 310.692 103.343 310.692 104.308V105.025C310.692 105.503 310.549 105.977 310.27 106.419C309.991 106.861 309.582 107.262 309.066 107.601C308.55 107.939 307.938 108.208 307.263 108.391C306.589 108.574 305.866 108.668 305.137 108.668C304.552 108.668 303.974 108.593 303.435 108.446C302.895 108.299 302.405 108.085 301.992 107.814C301.579 107.543 301.252 107.222 301.029 106.868C300.806 106.515 300.691 106.136 300.692 105.753V103.58C300.692 102.808 301.16 102.067 301.994 101.521C302.827 100.975 303.958 100.668 305.137 100.668Z" fill="black"/>
<path d="M321.692 119.668C323.018 119.668 324.29 120.051 325.227 120.734C326.165 121.417 326.692 122.343 326.692 123.308V124.025C326.692 124.503 326.563 124.977 326.312 125.419C326.061 125.861 325.693 126.262 325.229 126.601C324.765 126.939 324.213 127.208 323.606 127.391C322.999 127.574 322.349 127.668 321.692 127.668C321.166 127.668 320.646 127.593 320.16 127.446C319.675 127.299 319.234 127.085 318.862 126.814C318.491 126.543 318.196 126.222 317.995 125.868C317.794 125.515 317.691 125.136 317.692 124.753V122.58C317.692 121.808 318.113 121.067 318.864 120.521C319.614 119.975 320.631 119.668 321.692 119.668Z" fill="black"/>
<path d="M321.692 137.668C323.018 137.668 324.29 138.051 325.227 138.734C326.165 139.417 326.692 140.343 326.692 141.308V142.025C326.692 142.503 326.563 142.977 326.312 143.419C326.061 143.861 325.693 144.262 325.229 144.601C324.765 144.939 324.213 145.208 323.606 145.391C322.999 145.574 322.349 145.668 321.692 145.668C321.166 145.668 320.646 145.593 320.16 145.446C319.675 145.299 319.234 145.085 318.862 144.814C318.491 144.543 318.196 144.222 317.995 143.868C317.794 143.515 317.691 143.136 317.692 142.753V140.58C317.692 139.808 318.113 139.067 318.864 138.521C319.614 137.975 320.631 137.668 321.692 137.668Z" fill="black"/>
<path d="M316.137 47.668C317.61 47.668 319.023 48.0515 320.065 48.7341C321.107 49.4167 321.692 50.3426 321.692 51.308V52.025C321.692 52.5033 321.549 52.9769 321.27 53.4189C320.991 53.8609 320.582 54.2625 320.066 54.6008C319.55 54.9391 318.938 55.2075 318.263 55.3906C317.589 55.5737 316.866 55.668 316.137 55.668C315.552 55.668 314.974 55.5925 314.435 55.446C313.895 55.2995 313.405 55.0847 312.992 54.814C312.579 54.5432 312.252 54.2219 312.029 53.8682C311.806 53.5145 311.691 53.1355 311.692 52.7528V50.5802C311.692 49.8078 312.16 49.0671 312.994 48.5209C313.827 47.9748 314.958 47.668 316.137 47.668Z" fill="black"/>
<path d="M339.692 138.668H243.692V143.668H339.692V138.668Z" fill="#949598"/>
<path d="M321.692 138.668H243.692V143.668H321.692V138.668Z" fill="#00AEEF"/>
<path d="M321.692 137.668C323.018 137.668 324.29 138.051 325.227 138.734C326.165 139.417 326.692 140.343 326.692 141.308V142.025C326.692 142.503 326.563 142.977 326.312 143.419C326.061 143.861 325.693 144.262 325.229 144.601C324.765 144.939 324.213 145.208 323.606 145.391C322.999 145.574 322.349 145.668 321.692 145.668C321.166 145.668 320.646 145.593 320.16 145.446C319.675 145.299 319.234 145.085 318.862 144.814C318.491 144.543 318.196 144.222 317.995 143.868C317.794 143.515 317.691 143.136 317.692 142.753V140.58C317.692 139.808 318.113 139.067 318.864 138.521C319.614 137.975 320.631 137.668 321.692 137.668Z" fill="black"/>
<text fill="#FF0040" xml:space="preserve" style="white-space: pre" font-family="Bahij TheSansArabic" font-size="13" font-weight="500" letter-spacing="0em"><tspan x="79" y="89.261">Adobe InDesign</tspan></text>
<text fill="#FF0040" xml:space="preserve" style="white-space: pre" font-family="Bahij TheSansArabic" font-size="13" font-weight="500" letter-spacing="0em"><tspan x="79" y="108.261">Adobe Illustrator</tspan></text>
<text fill="#FF0040" xml:space="preserve" style="white-space: pre" font-family="Bahij TheSansArabic" font-size="13" font-weight="500" letter-spacing="0em"><tspan x="78" y="126.261"> Luminar Neo AI</tspan></text>
<text fill="#FF0040" xml:space="preserve" style="white-space: pre" font-family="Bahij TheSansArabic" font-size="13" font-weight="500" letter-spacing="0em"><tspan x="79" y="144.261">Adobe XD</tspan></text>
<text fill="#FF0040" xml:space="preserve" style="white-space: pre" font-family="Bahij TheSansArabic" font-size="13" font-weight="500" letter-spacing="0em"><tspan x="79" y="71.261">topaz Photo AI</tspan></text>
<text fill="#FF0040" xml:space="preserve" style="white-space: pre" font-family="Bahij TheSansArabic" font-size="13" font-weight="500" letter-spacing="0em"><tspan x="77" y="54.261">Adobe Photoshop</tspan></text>
<path d="M232 52H185V51H232V52Z" fill="#00AEEF"/>
<path d="M232 68H185V67H232V68Z" fill="#00AEEF"/>
<path d="M232 105H185V104H232V105Z" fill="#00AEEF"/>
<path d="M232 123H185V122H232V123Z" fill="#00AEEF"/>
<path d="M232 142H185V141H232V142Z" fill="#00AEEF"/>
<path d="M232 86H185V85H232V86Z" fill="#00AEEF"/>
<path d="M382 14L382 75" stroke="white"/>
<path d="M382 14L382 75" stroke="white"/>
<rect x="408" y="2" width="15" height="155" fill="url(#paint0_linear_0_1)"/>
<rect x="2" y="-2" width="805" height="152" transform="matrix(1 0 0 -1 0 153)" stroke="#01ADED" stroke-width="4"/>
<path d="M439.67 165.504H396.746C393.514 165.504 390.893 167.279 390.893 169.468V193.251C390.893 195.44 393.514 197.214 396.746 197.214H439.67C442.902 197.214 445.523 195.44 445.523 193.251V169.468C445.523 167.279 442.902 165.504 439.67 165.504Z" fill="#FF0101"/>
<path d="M435.767 191.93H400.648C400.13 191.93 399.634 191.79 399.268 191.543C398.902 191.295 398.697 190.959 398.697 190.608C398.697 190.258 398.902 189.922 399.268 189.674C399.634 189.426 400.13 189.287 400.648 189.287H435.767C436.285 189.287 436.781 189.426 437.147 189.674C437.513 189.922 437.718 190.258 437.718 190.608C437.718 190.959 437.513 191.295 437.147 191.543C436.781 191.79 436.285 191.93 435.767 191.93Z" fill="#EEEEEE"/>
<path d="M424.062 193.251C423.544 193.251 423.048 193.112 422.682 192.864C422.316 192.616 422.111 192.28 422.111 191.93V189.287C422.111 188.937 422.316 188.601 422.682 188.353C423.048 188.105 423.544 187.966 424.062 187.966C424.579 187.966 425.076 188.105 425.442 188.353C425.807 188.601 426.013 188.937 426.013 189.287V191.93C426.013 192.28 425.807 192.616 425.442 192.864C425.076 193.112 424.579 193.251 424.062 193.251Z" fill="black"/>
<path d="M396.746 165.504C395.194 165.504 393.705 165.922 392.607 166.665C391.51 167.408 390.893 168.416 390.893 169.468V193.251C390.893 194.302 391.51 195.31 392.607 196.053C393.705 196.797 395.194 197.214 396.746 197.214H418.208V165.504H396.746Z" fill="#01B2FF"/>
<path d="M400.648 189.287C400.13 189.287 399.634 189.426 399.268 189.674C398.902 189.922 398.697 190.258 398.697 190.608C398.697 190.959 398.902 191.295 399.268 191.543C399.634 191.79 400.13 191.93 400.648 191.93H418.208V189.287H400.648Z" fill="#FAFAFA"/>
<path d="M413.234 172.335C412.937 172.233 412.606 172.185 412.274 172.195C411.942 172.204 411.618 172.271 411.335 172.389C411.052 172.506 410.817 172.671 410.654 172.868C410.492 173.064 410.406 173.285 410.405 173.511V183.922C410.407 184.158 410.502 184.388 410.681 184.59C410.859 184.793 411.114 184.959 411.419 185.072C411.702 185.187 412.026 185.246 412.356 185.244C412.721 185.244 413.079 185.176 413.39 185.045L418.209 182.997V174.013L413.234 172.335Z" fill="#00AEEF"/>
<path d="M426.891 176.959L413.234 172.335C412.937 172.233 412.606 172.185 412.274 172.195C411.942 172.204 411.618 172.271 411.335 172.389C411.052 172.506 410.817 172.671 410.654 172.868C410.492 173.064 410.406 173.285 410.405 173.511V183.922C410.407 184.158 410.502 184.388 410.681 184.59C410.859 184.793 411.114 184.959 411.419 185.072C411.702 185.187 412.026 185.246 412.356 185.244C412.721 185.244 413.079 185.176 413.39 185.045L427.047 179.258C427.343 179.133 427.584 178.957 427.745 178.748C427.906 178.539 427.982 178.305 427.964 178.069C427.946 177.836 427.837 177.611 427.648 177.416C427.46 177.221 427.199 177.064 426.891 176.959Z" fill="#EEEEEE"/>
<path d="M502.885 170.015H509.259L500.154 164V168.211C500.154 169.207 501.377 170.015 502.885 170.015Z" fill="#00AEEF"/>
<path d="M499.161 167.008H461.457V177.534H499.161C499.709 177.534 500.154 177.272 500.154 176.949V167.593C500.154 167.27 499.709 167.008 499.161 167.008Z" fill="#C6CACF"/>
<path d="M496.908 177.534H455.601C454.737 177.534 454.304 176.814 454.915 176.393L461.989 171.519L454.915 166.645C454.304 166.224 454.737 165.504 455.601 165.504H496.908C497.444 165.504 497.878 165.803 497.878 166.172V176.866C497.878 177.235 497.444 177.534 496.908 177.534Z" fill="#00AEEF"/>
<path d="M476.377 169.455H472.619C472.101 169.455 471.68 169.733 471.68 170.076V173.8C471.68 174.142 472.101 174.42 472.619 174.42C473.138 174.42 473.559 174.142 473.559 173.8V172.558H476.377C476.896 172.558 477.317 172.28 477.317 171.938V170.076C477.317 169.733 476.896 169.455 476.377 169.455ZM475.438 171.317H473.559V170.696H475.438V171.317Z" fill="white"/>
<path d="M481.074 169.455H479.195C478.677 169.455 478.256 169.733 478.256 170.076V173.8C478.256 174.142 478.677 174.42 479.195 174.42H482.953C483.472 174.42 483.893 174.142 483.893 173.8V171.317C483.893 170.29 482.629 169.455 481.074 169.455ZM482.014 173.179H480.135V170.696H481.074C481.592 170.696 482.014 170.975 482.014 171.317L482.014 173.179Z" fill="white"/>
<path d="M489.53 169.455H485.772C485.253 169.455 484.832 169.733 484.832 170.076V173.8C484.832 174.142 485.253 174.42 485.772 174.42C486.29 174.42 486.711 174.142 486.711 173.8V172.558H488.59C489.109 172.558 489.53 172.28 489.53 171.938C489.53 171.595 489.109 171.317 488.59 171.317H486.711V170.696H489.53C490.048 170.696 490.469 170.418 490.469 170.076C490.469 169.733 490.048 169.455 489.53 169.455Z" fill="white"/>
<path d="M499.229 198.587H471.487C470.977 198.587 470.563 198.295 470.563 197.936V179.69C470.563 179.33 470.977 179.038 471.487 179.038H499.229C499.74 179.038 500.154 179.33 500.154 179.69V197.936C500.154 198.296 499.74 198.587 499.229 198.587Z" fill="#C6CACF"/>
<path d="M472.412 197.284V179.038H471.487C470.977 179.038 470.563 179.33 470.563 179.69V197.936C470.563 198.296 470.977 198.587 471.487 198.587H499.229C499.74 198.587 500.154 198.295 500.154 197.936V197.284H472.412Z" fill="#00AEEF"/>
<path d="M497.002 195.579H487.372C486.888 195.579 486.496 195.291 486.496 194.935V187.201C486.496 186.845 486.888 186.557 487.372 186.557H497.002C497.486 186.557 497.878 186.845 497.878 187.201V194.935C497.878 195.291 497.486 195.579 497.002 195.579Z" fill="black"/>
<path d="M495.601 188.061H488.772V194.076H495.601V188.061Z" fill="#00AEEF"/>
<path d="M497.046 183.108H486.712C486.193 183.108 485.772 182.831 485.772 182.488C485.772 182.145 486.193 181.867 486.712 181.867H497.046C497.565 181.867 497.985 182.145 497.985 182.488C497.985 182.831 497.565 183.108 497.046 183.108Z" fill="#EF0000"/>
<path d="M497.046 185.591H486.712C486.193 185.591 485.772 185.313 485.772 184.97C485.772 184.627 486.193 184.35 486.712 184.35H497.046C497.565 184.35 497.985 184.628 497.985 184.97C497.985 185.313 497.565 185.591 497.046 185.591Z" fill="#EF0000"/>
<path d="M483.893 183.108H474.498C473.979 183.108 473.558 182.831 473.558 182.488C473.558 182.145 473.979 181.867 474.498 181.867H483.893C484.412 181.867 484.832 182.145 484.832 182.488C484.832 182.831 484.411 183.108 483.893 183.108Z" fill="#EF0000"/>
<path d="M483.892 185.591H474.498C473.979 185.591 473.558 185.313 473.558 184.97C473.558 184.627 473.979 184.35 474.498 184.35H483.892C484.411 184.35 484.832 184.628 484.832 184.97C484.832 185.313 484.411 185.591 483.892 185.591Z" fill="#EF0000"/>
<path d="M483.892 188.074H474.498C473.979 188.074 473.558 187.796 473.558 187.454C473.558 187.111 473.979 186.833 474.498 186.833H483.892C484.411 186.833 484.832 187.111 484.832 187.454C484.832 187.796 484.411 188.074 483.892 188.074Z" fill="#EF0000"/>
<path d="M483.892 190.556H474.498C473.979 190.556 473.558 190.278 473.558 189.935C473.558 189.592 473.979 189.314 474.498 189.314H483.892C484.411 189.314 484.832 189.592 484.832 189.935C484.832 190.278 484.411 190.556 483.892 190.556Z" fill="#EF0000"/>
<path d="M483.892 193.039H474.498C473.979 193.039 473.558 192.761 473.558 192.418C473.558 192.076 473.979 191.798 474.498 191.798H483.892C484.411 191.798 484.832 192.076 484.832 192.418C484.832 192.761 484.411 193.039 483.892 193.039Z" fill="#EF0000"/>
<path d="M483.892 195.521H474.498C473.979 195.521 473.558 195.243 473.558 194.9C473.558 194.557 473.979 194.279 474.498 194.279H483.892C484.411 194.279 484.832 194.557 484.832 194.9C484.832 195.243 484.411 195.521 483.892 195.521Z" fill="#EF0000"/>
<path d="M331.71 197.836V201.595H384.064V197.836L358.007 195.58L331.71 197.836Z" fill="#EEEEEE"/>
<path d="M331.71 194.826V198.585H384.064V194.826L358.007 192.57L331.71 194.826Z" fill="#DCDCDC"/>
<path d="M384.065 167.008V194.076H380.65L372.683 180.542L380.65 167.008H384.065Z" fill="#EEEEEE"/>
<path d="M381.788 167.008V169.295L373.54 180.542L381.788 191.788V194.076H331.71V167.008H381.788Z" fill="white"/>
<path d="M333.988 168.511V185.666L357.889 188.06L381.789 185.666V168.511H333.988Z" fill="#29B71C"/>
<path d="M359.026 171.519V177.534C360.283 177.534 361.302 176.187 361.302 174.526C361.302 172.865 360.283 171.519 359.026 171.519Z" fill="#FE5F1A"/>
<path d="M358.116 171.519C358.618 171.519 359.026 172.865 359.026 174.526C359.026 176.187 358.618 177.534 358.116 177.534C356.104 177.534 354.474 176.187 354.474 174.526C354.474 172.865 356.104 171.519 358.116 171.519Z" fill="#00AEEF"/>
<path d="M381.788 189.565L368.131 182.046L378.284 183.246L381.789 185.671L381.788 189.565Z" fill="#027372"/>
<path d="M376.266 183.676L369.772 180.542L361.406 183.676L356.75 186.77L367.49 192.572H381.788V188.404L376.266 183.676Z" fill="#E53935"/>
<path d="M379.512 183.442L377.604 183.549L370.407 181.324V177.534L379.512 183.442Z" fill="#EEEEEE"/>
<path d="M361.302 183.549L368.991 177.534L374.959 183.549L361.302 183.549Z" fill="white"/>
<path d="M365.854 192.572H361.692L345.368 182.046L354.409 183.297L365.854 192.572Z" fill="#027372"/>
<path d="M351.483 183.676L361.303 192.572H333.988V186.102L337.438 183.676L345.345 180.542L351.483 183.676Z" fill="#00AEEF"/>
<path d="M354.473 183.442L352.565 183.549L345.368 181.324V177.534L354.473 183.442Z" fill="#EEEEEE"/>
<path d="M336.264 183.549L345.234 177.534L352.198 183.549L336.264 183.549Z" fill="white"/>
<path d="M385.433 200.091C384.931 200.091 384.525 200.379 384.525 200.735V201.809H331.251V200.735C331.251 200.379 330.844 200.091 330.343 200.091C329.841 200.091 329.434 200.379 329.434 200.735V202.454C329.434 202.81 329.841 203.098 330.343 203.098H385.433C385.934 203.098 386.341 202.81 386.341 202.454V200.735C386.341 200.379 385.934 200.091 385.433 200.091Z" fill="#00AEEF"/>
<path d="M385.433 195.58C384.931 195.58 384.525 195.869 384.525 196.225V197.299H331.251V196.225C331.251 195.869 330.844 195.58 330.343 195.58C329.841 195.58 329.434 195.869 329.434 196.225V197.943C329.434 198.299 329.841 198.588 330.343 198.588H385.433C385.934 198.588 386.341 198.299 386.341 197.943V196.225C386.341 195.869 385.934 195.58 385.433 195.58Z" fill="#00AEEF"/>
<path d="M385.433 165.504H330.343C329.841 165.504 329.434 165.777 329.434 166.114V194.97C329.434 195.307 329.841 195.58 330.343 195.58H385.433C385.934 195.58 386.341 195.307 386.341 194.97V166.114C386.341 165.777 385.934 165.504 385.433 165.504ZM384.525 194.36H331.251V166.723H384.525V194.36Z" fill="#00AEEF"/>
<path d="M363.579 174.526C363.579 172.868 361.026 171.519 357.888 171.519C354.75 171.519 352.198 172.868 352.198 174.526C352.198 176.184 354.75 177.534 357.888 177.534C361.026 177.534 363.579 176.184 363.579 174.526ZM353.995 174.526C353.995 173.391 355.741 172.468 357.888 172.468C360.035 172.468 361.782 173.391 361.782 174.526C361.782 175.661 360.035 176.584 357.888 176.584C355.741 176.584 353.995 175.661 353.995 174.526Z" fill="black"/>
<path d="M331.71 191.954C331.71 192.295 332.139 192.572 332.668 192.572H383.107C383.636 192.572 384.064 192.295 384.064 191.954V167.626C384.064 167.285 383.636 167.008 383.107 167.008H332.668C332.139 167.008 331.71 167.285 331.71 167.626V172.574C331.71 172.916 332.139 173.193 332.668 173.193C333.197 173.193 333.626 172.916 333.626 172.574V168.245H382.149V183.863L371.174 176.776C370.8 176.534 370.194 176.534 369.82 176.776L357.887 184.482L345.955 176.775C345.58 176.534 344.974 176.534 344.6 176.775L333.626 183.863V175.048C333.626 174.707 333.197 174.43 332.668 174.43C332.139 174.43 331.71 174.707 331.71 175.048V191.954ZM370.497 178.088L376.964 182.264H364.03L370.497 178.088ZM345.278 178.088L351.745 182.264H338.811L345.278 178.088ZM336.896 183.501H353.66L357.209 185.793C357.211 185.795 363.595 189.917 363.595 189.917C363.782 190.038 364.027 190.098 364.272 190.098C364.517 190.098 364.762 190.038 364.949 189.917C365.323 189.675 365.323 189.284 364.949 189.042L359.242 185.356L362.115 183.501H378.879L382.149 185.613V191.335H333.626V185.613L336.896 183.501Z" fill="black"/>
<path fill-rule="evenodd" clip-rule="evenodd" d="M304.549 171.567C304.851 171.567 305.099 171.832 305.099 172.155V183.208H304V172.155C304 171.828 304.246 171.567 304.549 171.567Z" fill="#FFFFFE"/>
<defs>
<filter id="filter0_d_0_1" x="465.492" y="0.700195" width="264" height="8.59961" filterUnits="userSpaceOnUse" color-interpolation-filters="sRGB">
<feFlood flood-opacity="0" result="BackgroundImageFix"/>
<feColorMatrix in="SourceAlpha" type="matrix" values="0 0 0 0 0 0 0 0 0 0 0 0 0 0 0 0 0 0 127 0" result="hardAlpha"/>
<feOffset dy="4"/>
<feGaussianBlur stdDeviation="2"/>
<feComposite in2="hardAlpha" operator="out"/>
<feColorMatrix type="matrix" values="0 0 0 0 0 0 0 0 0 0 0 0 0 0 0 0 0 0 0.25 0"/>
<feBlend mode="normal" in2="BackgroundImageFix" result="effect1_dropShadow_0_1"/>
<feBlend mode="normal" in="SourceGraphic" in2="effect1_dropShadow_0_1" result="shape"/>
</filter>
<filter id="filter1_d_0_1" x="75" y="0.700195" width="264" height="8.59961" filterUnits="userSpaceOnUse" color-interpolation-filters="sRGB">
<feFlood flood-opacity="0" result="BackgroundImageFix"/>
<feColorMatrix in="SourceAlpha" type="matrix" values="0 0 0 0 0 0 0 0 0 0 0 0 0 0 0 0 0 0 127 0" result="hardAlpha"/>
<feOffset dy="4"/>
<feGaussianBlur stdDeviation="2"/>
<feComposite in2="hardAlpha" operator="out"/>
<feColorMatrix type="matrix" values="0 0 0 0 0 0 0 0 0 0 0 0 0 0 0 0 0 0 0.25 0"/>
<feBlend mode="normal" in2="BackgroundImageFix" result="effect1_dropShadow_0_1"/>
<feBlend mode="normal" in="SourceGraphic" in2="effect1_dropShadow_0_1" result="shape"/>
</filter>
<linearGradient id="paint0_linear_0_1" x1="423" y1="79.5" x2="408" y2="79.5" gradientUnits="userSpaceOnUse">
<stop offset="0.432692" stop-color="#FF0000"/>
<stop offset="0.475962"/>
<stop offset="0.476062" stop-color="#00B3FF"/>
</linearGradient>
</defs>
</svg>
