<svg width="809" height="157" viewBox="0 0 809 157" fill="none" xmlns="http://www.w3.org/2000/svg">
<rect width="809" height="157" fill="#F5F5F5"/>
<g filter="url(#filter0_d_0_1)">
<mask id="path-1-inside-1_0_1" fill="white">
<path d="M725.492 1H469.492H725.492Z"/>
</mask>
<path d="M725.492 1H469.492H725.492Z" fill="#231F20"/>
<path d="M725.492 1H469.492H725.492Z" stroke="black" stroke-width="0.6" mask="url(#path-1-inside-1_0_1)"/>
</g>
<path d="M429.492 14L429.492 75" stroke="white"/>
<path d="M429.492 14L429.492 75" stroke="white"/>
<path d="M596.931 8H725.909C727.089 8 728.257 8.23235 729.347 8.68379C730.436 9.13523 731.427 9.79691 732.261 10.6311C733.095 11.4652 733.757 12.4555 734.208 13.5454C734.66 14.6352 734.892 15.8033 734.892 16.983V33.152H596.931C593.596 33.152 590.397 31.827 588.038 29.4686C585.68 27.1101 584.355 23.9114 584.355 20.576C584.355 17.2406 585.68 14.0419 588.038 11.6834C590.397 9.32497 593.596 8 596.931 8Z" fill="#00AEEF"/>
<text fill="white" xml:space="preserve" style="white-space: pre" font-family="Harmattan" font-size="15" font-weight="bold" letter-spacing="0em"><tspan x="611.492" y="24.0872">&#x645;&#x647;&#x627;&#x631;&#x629; &#x627;&#x644;&#x62a;&#x635;&#x645;&#x64a;&#x645; &#x627;&#x644;&#x62c;&#x631;&#x627;&#x641;&#x64a;&#x643;</tspan></text>
<path d="M734.684 53.668C736.065 53.668 737.184 52.9964 737.184 52.168C737.184 51.3395 736.065 50.668 734.684 50.668C733.303 50.668 732.184 51.3395 732.184 52.168C732.184 52.9964 733.303 53.668 734.684 53.668Z" fill="#231F20"/>
<path d="M734.684 85.668C736.065 85.668 737.184 84.9964 737.184 84.168C737.184 83.3395 736.065 82.668 734.684 82.668C733.303 82.668 732.184 83.3395 732.184 84.168C732.184 84.9964 733.303 85.668 734.684 85.668Z" fill="#231F20"/>
<path d="M734.684 68.668C736.065 68.668 737.184 67.9964 737.184 67.168C737.184 66.3395 736.065 65.668 734.684 65.668C733.303 65.668 732.184 66.3395 732.184 67.168C732.184 67.9964 733.303 68.668 734.684 68.668Z" fill="#231F20"/>
<path d="M734.684 105.668C736.065 105.668 737.184 104.996 737.184 104.168C737.184 103.34 736.065 102.668 734.684 102.668C733.303 102.668 732.184 103.34 732.184 104.168C732.184 104.996 733.303 105.668 734.684 105.668Z" fill="#231F20"/>
<path d="M734.684 124.668C736.065 124.668 737.184 123.996 737.184 123.168C737.184 122.34 736.065 121.668 734.684 121.668C733.303 121.668 732.184 122.34 732.184 123.168C732.184 123.996 733.303 124.668 734.684 124.668Z" fill="#231F20"/>
<path d="M734.684 142.668C736.065 142.668 737.184 141.996 737.184 141.168C737.184 140.34 736.065 139.668 734.684 139.668C733.303 139.668 732.184 140.34 732.184 141.168C732.184 141.996 733.303 142.668 734.684 142.668Z" fill="#231F20"/>
<path d="M730.184 81.668H634.184V86.668H730.184V81.668Z" fill="#949598"/>
<path d="M730.184 64.668H634.184V69.668H730.184V64.668Z" fill="#949598"/>
<path d="M730.184 101.668H634.184V106.668H730.184V101.668Z" fill="#949598"/>
<path d="M730.184 120.668H634.184V125.668H730.184V120.668Z" fill="#949598"/>
<path d="M730.184 138.668H634.184V143.668H730.184V138.668Z" fill="#949598"/>
<path d="M730.184 48.668H634.184V53.668H730.184V48.668Z" fill="#949598"/>
<path d="M713.184 81.668H634.184V86.668H713.184V81.668Z" fill="#00AEEF"/>
<path d="M713.184 64.668H634.184V69.668H713.184V64.668Z" fill="#00AEEF"/>
<path d="M722.184 64.668H634.184V69.668H722.184V64.668Z" fill="#00AEEF"/>
<path d="M696.184 101.668H634.184V106.668H696.184V101.668Z" fill="#00AEEF"/>
<path d="M712.184 120.668H634.184V125.668H712.184V120.668Z" fill="#00AEEF"/>
<path d="M712.184 138.668H634.184V143.668H712.184V138.668Z" fill="#00AEEF"/>
<path d="M711.184 48.668H634.184V53.668H711.184V48.668Z" fill="#00AEEF"/>
<path d="M710.629 80.668C712.102 80.668 713.515 81.0515 714.557 81.7341C715.599 82.4167 716.184 83.3426 716.184 84.308V85.025C716.185 85.5033 716.041 85.9769 715.762 86.4189C715.484 86.8609 715.074 87.2625 714.559 87.6008C714.043 87.9391 713.43 88.2075 712.756 88.3906C712.081 88.5737 711.359 88.668 710.629 88.668C710.045 88.668 709.466 88.5925 708.927 88.446C708.387 88.2995 707.897 88.0847 707.484 87.814C707.072 87.5432 706.744 87.2219 706.521 86.8682C706.298 86.5145 706.183 86.1355 706.184 85.7528V83.5802C706.184 82.8078 706.652 82.0671 707.486 81.5209C708.319 80.9748 709.45 80.668 710.629 80.668Z" fill="black"/>
<path d="M724.184 63.668C725.51 63.668 726.782 64.0515 727.72 64.7341C728.657 65.4167 729.184 66.3426 729.184 67.308V68.025C729.185 68.5033 729.056 68.9769 728.805 69.4189C728.554 69.8609 728.185 70.2625 727.721 70.6008C727.257 70.9391 726.705 71.2075 726.099 71.3906C725.492 71.5737 724.841 71.668 724.184 71.668C723.659 71.668 723.138 71.5925 722.653 71.446C722.167 71.2995 721.726 71.0847 721.354 70.814C720.983 70.5432 720.688 70.2219 720.487 69.8682C720.287 69.5145 720.184 69.1355 720.184 68.7528V66.5802C720.184 65.8078 720.606 65.0671 721.356 64.5209C722.106 63.9748 723.123 63.668 724.184 63.668Z" fill="black"/>
<path d="M695.629 100.668C697.102 100.668 698.515 101.051 699.557 101.734C700.599 102.417 701.184 103.343 701.184 104.308V105.025C701.185 105.503 701.041 105.977 700.762 106.419C700.484 106.861 700.074 107.262 699.559 107.601C699.043 107.939 698.43 108.208 697.756 108.391C697.081 108.574 696.359 108.668 695.629 108.668C695.045 108.668 694.466 108.593 693.927 108.446C693.387 108.299 692.897 108.085 692.484 107.814C692.072 107.543 691.744 107.222 691.521 106.868C691.298 106.515 691.183 106.136 691.184 105.753V103.58C691.184 102.808 691.652 102.067 692.486 101.521C693.319 100.975 694.45 100.668 695.629 100.668Z" fill="black"/>
<path d="M712.184 119.668C713.51 119.668 714.782 120.051 715.72 120.734C716.657 121.417 717.184 122.343 717.184 123.308V124.025C717.185 124.503 717.056 124.977 716.805 125.419C716.554 125.861 716.185 126.262 715.721 126.601C715.257 126.939 714.705 127.208 714.099 127.391C713.492 127.574 712.841 127.668 712.184 127.668C711.659 127.668 711.138 127.593 710.653 127.446C710.167 127.299 709.726 127.085 709.354 126.814C708.983 126.543 708.688 126.222 708.487 125.868C708.287 125.515 708.184 125.136 708.184 124.753V122.58C708.184 121.808 708.606 121.067 709.356 120.521C710.106 119.975 711.123 119.668 712.184 119.668Z" fill="black"/>
<path d="M712.184 137.668C713.51 137.668 714.782 138.051 715.72 138.734C716.657 139.417 717.184 140.343 717.184 141.308V142.025C717.185 142.503 717.056 142.977 716.805 143.419C716.554 143.861 716.185 144.262 715.721 144.601C715.257 144.939 714.705 145.208 714.099 145.391C713.492 145.574 712.841 145.668 712.184 145.668C711.659 145.668 711.138 145.593 710.653 145.446C710.167 145.299 709.726 145.085 709.354 144.814C708.983 144.543 708.688 144.222 708.487 143.868C708.287 143.515 708.184 143.136 708.184 142.753V140.58C708.184 139.808 708.606 139.067 709.356 138.521C710.106 137.975 711.123 137.668 712.184 137.668Z" fill="black"/>
<path d="M706.629 47.668C708.102 47.668 709.515 48.0515 710.557 48.7341C711.599 49.4167 712.184 50.3426 712.184 51.308V52.025C712.185 52.5033 712.041 52.9769 711.762 53.4189C711.484 53.8609 711.074 54.2625 710.559 54.6008C710.043 54.9391 709.43 55.2075 708.756 55.3906C708.081 55.5737 707.359 55.668 706.629 55.668C706.045 55.668 705.466 55.5925 704.927 55.446C704.387 55.2995 703.897 55.0847 703.484 54.814C703.072 54.5432 702.744 54.2219 702.521 53.8682C702.298 53.5145 702.183 53.1355 702.184 52.7528V50.5802C702.184 49.8078 702.652 49.0671 703.486 48.5209C704.319 47.9748 705.45 47.668 706.629 47.668Z" fill="black"/>
<path d="M730.184 138.668H634.184V143.668H730.184V138.668Z" fill="#949598"/>
<path d="M712.184 138.668H634.184V143.668H712.184V138.668Z" fill="#00AEEF"/>
<path d="M712.184 137.668C713.51 137.668 714.782 138.051 715.72 138.734C716.657 139.417 717.184 140.343 717.184 141.308V142.025C717.185 142.503 717.056 142.977 716.805 143.419C716.554 143.861 716.185 144.262 715.721 144.601C715.257 144.939 714.705 145.208 714.099 145.391C713.492 145.574 712.841 145.668 712.184 145.668C711.659 145.668 711.138 145.593 710.653 145.446C710.167 145.299 709.726 145.085 709.354 144.814C708.983 144.543 708.688 144.222 708.487 143.868C708.287 143.515 708.184 143.136 708.184 142.753V140.58C708.184 139.808 708.606 139.067 709.356 138.521C710.106 137.975 711.123 137.668 712.184 137.668Z" fill="black"/>
<text fill="#FF0040" xml:space="preserve" style="white-space: pre" font-family="Bahij TheSansArabic" font-size="13" font-weight="500" letter-spacing="0em"><tspan x="469.492" y="89.261">Adobe InDesign</tspan></text>
<text fill="#FF0040" xml:space="preserve" style="white-space: pre" font-family="Bahij TheSansArabic" font-size="13" font-weight="500" letter-spacing="0em"><tspan x="469.492" y="108.261">Adobe Illustrator</tspan></text>
<text fill="#FF0040" xml:space="preserve" style="white-space: pre" font-family="Bahij TheSansArabic" font-size="13" font-weight="500" letter-spacing="0em"><tspan x="468.492" y="126.261"> Luminar Neo AI</tspan></text>
<text fill="#FF0040" xml:space="preserve" style="white-space: pre" font-family="Bahij TheSansArabic" font-size="13" font-weight="500" letter-spacing="0em"><tspan x="469.492" y="144.261">Adobe XD</tspan></text>
<text fill="#FF0040" xml:space="preserve" style="white-space: pre" font-family="Bahij TheSansArabic" font-size="13" font-weight="500" letter-spacing="0em"><tspan x="469.492" y="71.261">topaz Photo AI</tspan></text>
<text fill="#FF0040" xml:space="preserve" style="white-space: pre" font-family="Bahij TheSansArabic" font-size="13" font-weight="500" letter-spacing="0em"><tspan x="467.492" y="54.261">Adobe Photoshop</tspan></text>
<path d="M622.492 52H575.492V51H622.492V52Z" fill="#00AEEF"/>
<path d="M622.492 68H575.492V67H622.492V68Z" fill="#00AEEF"/>
<path d="M622.492 105H575.492V104H622.492V105Z" fill="#00AEEF"/>
<path d="M622.492 123H575.492V122H622.492V123Z" fill="#00AEEF"/>
<path d="M622.492 142H575.492V141H622.492V142Z" fill="#00AEEF"/>
<path d="M622.492 86H575.492V85H622.492V86Z" fill="#00AEEF"/>
<path d="M772.492 14L772.492 75" stroke="white"/>
<path d="M772.492 14L772.492 75" stroke="white"/>
<g filter="url(#filter1_d_0_1)">
<mask id="path-48-inside-2_0_1" fill="white">
<path d="M335 1H79H335Z"/>
</mask>
<path d="M335 1H79H335Z" fill="#231F20"/>
<path d="M335 1H79H335Z" stroke="black" stroke-width="0.6" mask="url(#path-48-inside-2_0_1)"/>
</g>
<path d="M39 14L39 75" stroke="white"/>
<path d="M39 14L39 75" stroke="white"/>
<path d="M206.439 8H335.417C336.596 8 337.765 8.23235 338.854 8.68379C339.944 9.13523 340.935 9.79691 341.769 10.6311C342.603 11.4652 343.265 12.4555 343.716 13.5454C344.167 14.6352 344.4 15.8033 344.4 16.983V33.152H206.439C203.103 33.152 199.905 31.827 197.546 29.4686C195.188 27.1101 193.863 23.9114 193.863 20.576C193.863 17.2406 195.188 14.0419 197.546 11.6834C199.905 9.32497 203.103 8 206.439 8Z" fill="#00AEEF"/>
<text fill="white" xml:space="preserve" style="white-space: pre" font-family="Harmattan" font-size="15" font-weight="bold" letter-spacing="0em"><tspan x="221" y="24.0872">graphic design skill</tspan></text>
<path d="M344.192 53.668C345.573 53.668 346.692 52.9964 346.692 52.168C346.692 51.3395 345.573 50.668 344.192 50.668C342.811 50.668 341.692 51.3395 341.692 52.168C341.692 52.9964 342.811 53.668 344.192 53.668Z" fill="#231F20"/>
<path d="M344.192 85.668C345.573 85.668 346.692 84.9964 346.692 84.168C346.692 83.3395 345.573 82.668 344.192 82.668C342.811 82.668 341.692 83.3395 341.692 84.168C341.692 84.9964 342.811 85.668 344.192 85.668Z" fill="#231F20"/>
<path d="M344.192 68.668C345.573 68.668 346.692 67.9964 346.692 67.168C346.692 66.3395 345.573 65.668 344.192 65.668C342.811 65.668 341.692 66.3395 341.692 67.168C341.692 67.9964 342.811 68.668 344.192 68.668Z" fill="#231F20"/>
<path d="M344.192 105.668C345.573 105.668 346.692 104.996 346.692 104.168C346.692 103.34 345.573 102.668 344.192 102.668C342.811 102.668 341.692 103.34 341.692 104.168C341.692 104.996 342.811 105.668 344.192 105.668Z" fill="#231F20"/>
<path d="M344.192 124.668C345.573 124.668 346.692 123.996 346.692 123.168C346.692 122.34 345.573 121.668 344.192 121.668C342.811 121.668 341.692 122.34 341.692 123.168C341.692 123.996 342.811 124.668 344.192 124.668Z" fill="#231F20"/>
<path d="M344.192 142.668C345.573 142.668 346.692 141.996 346.692 141.168C346.692 140.34 345.573 139.668 344.192 139.668C342.811 139.668 341.692 140.34 341.692 141.168C341.692 141.996 342.811 142.668 344.192 142.668Z" fill="#231F20"/>
<path d="M339.692 81.668H243.692V86.668H339.692V81.668Z" fill="#949598"/>
<path d="M339.692 64.668H243.692V69.668H339.692V64.668Z" fill="#949598"/>
<path d="M339.692 101.668H243.692V106.668H339.692V101.668Z" fill="#949598"/>
<path d="M339.692 120.668H243.692V125.668H339.692V120.668Z" fill="#949598"/>
<path d="M339.692 138.668H243.692V143.668H339.692V138.668Z" fill="#949598"/>
<path d="M339.692 48.668H243.692V53.668H339.692V48.668Z" fill="#949598"/>
<path d="M322.692 81.668H243.692V86.668H322.692V81.668Z" fill="#00AEEF"/>
<path d="M322.692 64.668H243.692V69.668H322.692V64.668Z" fill="#00AEEF"/>
<path d="M331.692 64.668H243.692V69.668H331.692V64.668Z" fill="#00AEEF"/>
<path d="M305.692 101.668H243.692V106.668H305.692V101.668Z" fill="#00AEEF"/>
<path d="M321.692 120.668H243.692V125.668H321.692V120.668Z" fill="#00AEEF"/>
<path d="M321.692 138.668H243.692V143.668H321.692V138.668Z" fill="#00AEEF"/>
<path d="M320.692 48.668H243.692V53.668H320.692V48.668Z" fill="#00AEEF"/>
<path d="M320.137 80.668C321.61 80.668 323.023 81.0515 324.065 81.7341C325.107 82.4167 325.692 83.3426 325.692 84.308V85.025C325.692 85.5033 325.549 85.9769 325.27 86.4189C324.991 86.8609 324.582 87.2625 324.066 87.6008C323.55 87.9391 322.938 88.2075 322.263 88.3906C321.589 88.5737 320.866 88.668 320.137 88.668C319.552 88.668 318.974 88.5925 318.435 88.446C317.895 88.2995 317.405 88.0847 316.992 87.814C316.579 87.5432 316.252 87.2219 316.029 86.8682C315.806 86.5145 315.691 86.1355 315.692 85.7528V83.5802C315.692 82.8078 316.16 82.0671 316.994 81.5209C317.827 80.9748 318.958 80.668 320.137 80.668Z" fill="black"/>
<path d="M333.692 63.668C335.018 63.668 336.29 64.0515 337.227 64.7341C338.165 65.4167 338.692 66.3426 338.692 67.308V68.025C338.692 68.5033 338.563 68.9769 338.312 69.4189C338.061 69.8609 337.693 70.2625 337.229 70.6008C336.765 70.9391 336.213 71.2075 335.606 71.3906C334.999 71.5737 334.349 71.668 333.692 71.668C333.166 71.668 332.646 71.5925 332.16 71.446C331.675 71.2995 331.234 71.0847 330.862 70.814C330.491 70.5432 330.196 70.2219 329.995 69.8682C329.794 69.5145 329.691 69.1355 329.692 68.7528V66.5802C329.692 65.8078 330.113 65.0671 330.864 64.5209C331.614 63.9748 332.631 63.668 333.692 63.668Z" fill="black"/>
<path d="M305.137 100.668C306.61 100.668 308.023 101.051 309.065 101.734C310.107 102.417 310.692 103.343 310.692 104.308V105.025C310.692 105.503 310.549 105.977 310.27 106.419C309.991 106.861 309.582 107.262 309.066 107.601C308.55 107.939 307.938 108.208 307.263 108.391C306.589 108.574 305.866 108.668 305.137 108.668C304.552 108.668 303.974 108.593 303.435 108.446C302.895 108.299 302.405 108.085 301.992 107.814C301.579 107.543 301.252 107.222 301.029 106.868C300.806 106.515 300.691 106.136 300.692 105.753V103.58C300.692 102.808 301.16 102.067 301.994 101.521C302.827 100.975 303.958 100.668 305.137 100.668Z" fill="black"/>
<path d="M321.692 119.668C323.018 119.668 324.29 120.051 325.227 120.734C326.165 121.417 326.692 122.343 326.692 123.308V124.025C326.692 124.503 326.563 124.977 326.312 125.419C326.061 125.861 325.693 126.262 325.229 126.601C324.765 126.939 324.213 127.208 323.606 127.391C322.999 127.574 322.349 127.668 321.692 127.668C321.166 127.668 320.646 127.593 320.16 127.446C319.675 127.299 319.234 127.085 318.862 126.814C318.491 126.543 318.196 126.222 317.995 125.868C317.794 125.515 317.691 125.136 317.692 124.753V122.58C317.692 121.808 318.113 121.067 318.864 120.521C319.614 119.975 320.631 119.668 321.692 119.668Z" fill="black"/>
<path d="M321.692 137.668C323.018 137.668 324.29 138.051 325.227 138.734C326.165 139.417 326.692 140.343 326.692 141.308V142.025C326.692 142.503 326.563 142.977 326.312 143.419C326.061 143.861 325.693 144.262 325.229 144.601C324.765 144.939 324.213 145.208 323.606 145.391C322.999 145.574 322.349 145.668 321.692 145.668C321.166 145.668 320.646 145.593 320.16 145.446C319.675 145.299 319.234 145.085 318.862 144.814C318.491 144.543 318.196 144.222 317.995 143.868C317.794 143.515 317.691 143.136 317.692 142.753V140.58C317.692 139.808 318.113 139.067 318.864 138.521C319.614 137.975 320.631 137.668 321.692 137.668Z" fill="black"/>
<path d="M316.137 47.668C317.61 47.668 319.023 48.0515 320.065 48.7341C321.107 49.4167 321.692 50.3426 321.692 51.308V52.025C321.692 52.5033 321.549 52.9769 321.27 53.4189C320.991 53.8609 320.582 54.2625 320.066 54.6008C319.55 54.9391 318.938 55.2075 318.263 55.3906C317.589 55.5737 316.866 55.668 316.137 55.668C315.552 55.668 314.974 55.5925 314.435 55.446C313.895 55.2995 313.405 55.0847 312.992 54.814C312.579 54.5432 312.252 54.2219 312.029 53.8682C311.806 53.5145 311.691 53.1355 311.692 52.7528V50.5802C311.692 49.8078 312.16 49.0671 312.994 48.5209C313.827 47.9748 314.958 47.668 316.137 47.668Z" fill="black"/>
<path d="M339.692 138.668H243.692V143.668H339.692V138.668Z" fill="#949598"/>
<path d="M321.692 138.668H243.692V143.668H321.692V138.668Z" fill="#00AEEF"/>
<path d="M321.692 137.668C323.018 137.668 324.29 138.051 325.227 138.734C326.165 139.417 326.692 140.343 326.692 141.308V142.025C326.692 142.503 326.563 142.977 326.312 143.419C326.061 143.861 325.693 144.262 325.229 144.601C324.765 144.939 324.213 145.208 323.606 145.391C322.999 145.574 322.349 145.668 321.692 145.668C321.166 145.668 320.646 145.593 320.16 145.446C319.675 145.299 319.234 145.085 318.862 144.814C318.491 144.543 318.196 144.222 317.995 143.868C317.794 143.515 317.691 143.136 317.692 142.753V140.58C317.692 139.808 318.113 139.067 318.864 138.521C319.614 137.975 320.631 137.668 321.692 137.668Z" fill="black"/>
<text fill="#FF0040" xml:space="preserve" style="white-space: pre" font-family="Bahij TheSansArabic" font-size="13" font-weight="500" letter-spacing="0em"><tspan x="79" y="89.261">Adobe InDesign</tspan></text>
<text fill="#FF0040" xml:space="preserve" style="white-space: pre" font-family="Bahij TheSansArabic" font-size="13" font-weight="500" letter-spacing="0em"><tspan x="79" y="108.261">Adobe Illustrator</tspan></text>
<text fill="#FF0040" xml:space="preserve" style="white-space: pre" font-family="Bahij TheSansArabic" font-size="13" font-weight="500" letter-spacing="0em"><tspan x="78" y="126.261"> Luminar Neo AI</tspan></text>
<text fill="#FF0040" xml:space="preserve" style="white-space: pre" font-family="Bahij TheSansArabic" font-size="13" font-weight="500" letter-spacing="0em"><tspan x="79" y="144.261">Adobe XD</tspan></text>
<text fill="#FF0040" xml:space="preserve" style="white-space: pre" font-family="Bahij TheSansArabic" font-size="13" font-weight="500" letter-spacing="0em"><tspan x="79" y="71.261">topaz Photo AI</tspan></text>
<text fill="#FF0040" xml:space="preserve" style="white-space: pre" font-family="Bahij TheSansArabic" font-size="13" font-weight="500" letter-spacing="0em"><tspan x="77" y="54.261">Adobe Photoshop</tspan></text>
<path d="M232 52H185V51H232V52Z" fill="#00AEEF"/>
<path d="M232 68H185V67H232V68Z" fill="#00AEEF"/>
<path d="M232 105H185V104H232V105Z" fill="#00AEEF"/>
<path d="M232 123H185V122H232V123Z" fill="#00AEEF"/>
<path d="M232 142H185V141H232V142Z" fill="#00AEEF"/>
<path d="M232 86H185V85H232V86Z" fill="#00AEEF"/>
<path d="M382 14L382 75" stroke="white"/>
<path d="M382 14L382 75" stroke="white"/>
<rect x="408" y="2" width="15" height="155" fill="url(#paint0_linear_0_1)"/>
<rect x="2" y="-2" width="805" height="152" transform="matrix(1 0 0 -1 0 153)" stroke="#01ADED" stroke-width="4"/>
<defs>
<filter id="filter0_d_0_1" x="465.492" y="0.700195" width="264" height="8.59961" filterUnits="userSpaceOnUse" color-interpolation-filters="sRGB">
<feFlood flood-opacity="0" result="BackgroundImageFix"/>
<feColorMatrix in="SourceAlpha" type="matrix" values="0 0 0 0 0 0 0 0 0 0 0 0 0 0 0 0 0 0 127 0" result="hardAlpha"/>
<feOffset dy="4"/>
<feGaussianBlur stdDeviation="2"/>
<feComposite in2="hardAlpha" operator="out"/>
<feColorMatrix type="matrix" values="0 0 0 0 0 0 0 0 0 0 0 0 0 0 0 0 0 0 0.25 0"/>
<feBlend mode="normal" in2="BackgroundImageFix" result="effect1_dropShadow_0_1"/>
<feBlend mode="normal" in="SourceGraphic" in2="effect1_dropShadow_0_1" result="shape"/>
</filter>
<filter id="filter1_d_0_1" x="75" y="0.700195" width="264" height="8.59961" filterUnits="userSpaceOnUse" color-interpolation-filters="sRGB">
<feFlood flood-opacity="0" result="BackgroundImageFix"/>
<feColorMatrix in="SourceAlpha" type="matrix" values="0 0 0 0 0 0 0 0 0 0 0 0 0 0 0 0 0 0 127 0" result="hardAlpha"/>
<feOffset dy="4"/>
<feGaussianBlur stdDeviation="2"/>
<feComposite in2="hardAlpha" operator="out"/>
<feColorMatrix type="matrix" values="0 0 0 0 0 0 0 0 0 0 0 0 0 0 0 0 0 0 0.25 0"/>
<feBlend mode="normal" in2="BackgroundImageFix" result="effect1_dropShadow_0_1"/>
<feBlend mode="normal" in="SourceGraphic" in2="effect1_dropShadow_0_1" result="shape"/>
</filter>
<linearGradient id="paint0_linear_0_1" x1="423" y1="79.5" x2="408" y2="79.5" gradientUnits="userSpaceOnUse">
<stop offset="0.432692" stop-color="#535353"/>
<stop offset="0.475962"/>
<stop offset="0.476062" stop-color="#00B3FF"/>
</linearGradient>
</defs>
</svg>
