<svg width="809" height="208" viewBox="0 0 809 208" fill="none" xmlns="http://www.w3.org/2000/svg">
<rect width="809" height="208" fill="#F5F5F5"/>
<path d="M578.815 15H725.325C726.665 15 727.992 15.2309 729.23 15.6797C730.468 16.1284 731.593 16.7861 732.541 17.6152C733.488 18.4443 734.24 19.4286 734.753 20.5118C735.265 21.5951 735.529 22.7562 735.529 23.9287V40H578.815C575.026 40 571.392 38.683 568.713 36.3388C566.034 33.9946 564.529 30.8152 564.529 27.5C564.529 24.1848 566.034 21.0054 568.713 18.6612C571.392 16.317 575.026 15 578.815 15Z" fill="#00AEEF"/>
<text fill="white" xml:space="preserve" style="white-space: pre" font-family="Harmattan" font-size="15" font-weight="bold" letter-spacing="0em"><tspan x="581.492" y="32.0872">&#x627;&#x62a;&#x642;&#x627;&#x646; &#x62a;&#x635;&#x645;&#x64a;&#x645; &#x627;&#x644;&#x645;&#x62d;&#x62a;&#x648;&#x649; &#x627;&#x644;&#x62a;&#x641;&#x627;&#x639;&#x644;&#x64a;</tspan></text>
<g filter="url(#filter0_d_0_1)">
<mask id="path-3-inside-1_0_1" fill="white">
<path d="M736.492 1H480.492H736.492Z"/>
</mask>
<path d="M736.492 1H480.492H736.492Z" fill="#231F20"/>
<path d="M736.492 1H480.492H736.492Z" stroke="black" stroke-width="0.6" mask="url(#path-3-inside-1_0_1)"/>
</g>
<path d="M735.321 68.0996C736.702 68.0996 737.821 67.2042 737.821 66.0996C737.821 64.995 736.702 64.0996 735.321 64.0996C733.94 64.0996 732.821 64.995 732.821 66.0996C732.821 67.2042 733.94 68.0996 735.321 68.0996Z" fill="#231F20"/>
<path d="M735.321 98.0996C736.702 98.0996 737.821 97.2042 737.821 96.0996C737.821 94.995 736.702 94.0996 735.321 94.0996C733.94 94.0996 732.821 94.995 732.821 96.0996C732.821 97.2042 733.94 98.0996 735.321 98.0996Z" fill="#231F20"/>
<path d="M735.321 120.1C736.702 120.1 737.821 119.204 737.821 118.1C737.821 116.995 736.702 116.1 735.321 116.1C733.94 116.1 732.821 116.995 732.821 118.1C732.821 119.204 733.94 120.1 735.321 120.1Z" fill="#231F20"/>
<path d="M735.321 140.1C736.702 140.1 737.821 139.204 737.821 138.1C737.821 136.995 736.702 136.1 735.321 136.1C733.94 136.1 732.821 136.995 732.821 138.1C732.821 139.204 733.94 140.1 735.321 140.1Z" fill="#231F20"/>
<path d="M731.821 93.0996H634.821V99.0996H731.821V93.0996Z" fill="#949598"/>
<path d="M731.821 115.1H634.821V121.1H731.821V115.1Z" fill="#949598"/>
<path d="M731.821 135.1H634.821V141.1H731.821V135.1Z" fill="#949598"/>
<path d="M731.821 62.0996H634.821V68.0996H731.821V62.0996Z" fill="#949598"/>
<path d="M726.821 93.0996H634.821V99.0996H726.821V93.0996Z" fill="#00AEEF"/>
<path d="M687.821 115.1H634.821V121.1H687.821V115.1Z" fill="#00AEEF"/>
<path d="M687.821 135.1H634.821V141.1H687.821V135.1Z" fill="#00AEEF"/>
<path d="M704.821 62.0996H634.821V68.0996H704.821V62.0996Z" fill="#00AEEF"/>
<path d="M724.265 92.0996C725.739 92.0996 727.152 92.4831 728.194 93.1657C729.236 93.8484 729.821 94.7742 729.821 95.7396V96.4567C729.821 96.9349 729.678 97.4086 729.399 97.8505C729.12 98.2925 728.711 98.6941 728.195 99.0324C727.679 99.3708 727.067 99.6391 726.392 99.8223C725.718 100.005 724.995 100.1 724.265 100.1C723.681 100.1 723.103 100.024 722.564 99.8777C722.024 99.7311 721.534 99.5163 721.121 99.2456C720.708 98.9749 720.381 98.6535 720.158 98.2998C719.935 97.9462 719.82 97.5672 719.821 97.1845V95.0118C719.821 94.2394 720.289 93.4987 721.123 92.9526C721.956 92.4064 723.087 92.0996 724.265 92.0996Z" fill="black"/>
<path d="M686.821 114.1C688.147 114.1 689.419 114.483 690.356 115.166C691.294 115.848 691.821 116.774 691.821 117.74V118.457C691.821 118.935 691.692 119.409 691.441 119.851C691.19 120.293 690.822 120.694 690.358 121.032C689.893 121.371 689.342 121.639 688.735 121.822C688.128 122.005 687.478 122.1 686.821 122.1C686.295 122.1 685.775 122.024 685.289 121.878C684.804 121.731 684.362 121.516 683.991 121.246C683.619 120.975 683.325 120.653 683.124 120.3C682.923 119.946 682.82 119.567 682.821 119.184V117.012C682.821 116.239 683.242 115.499 683.992 114.953C684.743 114.406 685.76 114.1 686.821 114.1Z" fill="black"/>
<path d="M686.821 134.1C688.147 134.1 689.419 134.483 690.356 135.166C691.294 135.848 691.821 136.774 691.821 137.74V138.457C691.821 138.935 691.692 139.409 691.441 139.851C691.19 140.293 690.822 140.694 690.358 141.032C689.893 141.371 689.342 141.639 688.735 141.822C688.128 142.005 687.478 142.1 686.821 142.1C686.295 142.1 685.775 142.024 685.289 141.878C684.804 141.731 684.362 141.516 683.991 141.246C683.619 140.975 683.325 140.653 683.124 140.3C682.923 139.946 682.82 139.567 682.821 139.184V137.012C682.821 136.239 683.242 135.499 683.992 134.953C684.743 134.406 685.76 134.1 686.821 134.1Z" fill="black"/>
<path d="M700.821 61.0996C702.147 61.0996 703.419 61.4831 704.356 62.1657C705.294 62.8484 705.821 63.7742 705.821 64.7396V65.4567C705.821 65.9349 705.692 66.4086 705.441 66.8505C705.19 67.2925 704.822 67.6941 704.358 68.0324C703.893 68.3708 703.342 68.6391 702.735 68.8223C702.128 69.0054 701.478 69.0996 700.821 69.0996C700.295 69.0996 699.775 69.0242 699.289 68.8777C698.804 68.7311 698.362 68.5163 697.991 68.2456C697.619 67.9749 697.325 67.6535 697.124 67.2998C696.923 66.9462 696.82 66.5672 696.821 66.1845V64.0118C696.821 63.2394 697.242 62.4987 697.992 61.9526C698.743 61.4064 699.76 61.0996 700.821 61.0996Z" fill="black"/>
<text fill="#FF0040" xml:space="preserve" style="white-space: pre" font-family="Bahij TheSansArabic" font-size="13" font-weight="500" letter-spacing="0em"><tspan x="467.492" y="99.261">Microsoft PowerPoint</tspan></text>
<text fill="#FF0040" xml:space="preserve" style="white-space: pre" font-family="Bahij TheSansArabic" font-size="13" font-weight="500" letter-spacing="0em"><tspan x="467.492" y="118.261">Adobe Premiere Pro</tspan></text>
<text fill="#FF0040" xml:space="preserve" style="white-space: pre" font-family="Bahij TheSansArabic" font-size="13" font-weight="500" letter-spacing="0em"><tspan x="467.492" y="137.261">Adobe Audition</tspan></text>
<text fill="#FF0040" xml:space="preserve" style="white-space: pre" font-family="Bahij TheSansArabic" font-size="13" font-weight="500" letter-spacing="0em"><tspan x="470.492" y="63.261">Articulate Storyline</tspan></text>
<text fill="black" xml:space="preserve" style="white-space: pre" font-family="Bahij TheSansArabic" font-size="7" font-weight="500" letter-spacing="0em"><tspan x="471.572" y="72.5251">Quizzes &#38; Assessments</tspan></text>
<text fill="black" xml:space="preserve" style="white-space: pre" font-family="Harmattan" font-size="7" font-weight="500" letter-spacing="0em"><tspan x="467.492" y="146.441">&#x625;&#x632;&#x627;&#x644;&#x629; &#x627;&#x644;&#x636;&#x648;&#x636;&#x627;&#x621; &#x648;&#x627;&#x644;&#x62a;&#x634;&#x648;&#x64a;&#x634;</tspan></text>
<path d="M772.492 44L772.492 105" stroke="white"/>
<path d="M429.492 44L429.492 105" stroke="white"/>
<rect x="408" y="2" width="15" height="162" fill="url(#paint0_linear_0_1)"/>
<path d="M128.716 15H330.917C332.767 15 334.598 15.2309 336.306 15.6797C338.015 16.1284 339.568 16.7861 340.875 17.6152C342.183 18.4443 343.22 19.4286 343.928 20.5118C344.636 21.5951 345 22.7562 345 23.9287V40H128.716C123.487 40 118.472 38.683 114.775 36.3388C111.077 33.9946 109 30.8152 109 27.5C109 24.1848 111.077 21.0054 114.775 18.6612C118.472 16.317 123.487 15 128.716 15Z" fill="#00AEEF"/>
<text fill="white" xml:space="preserve" style="white-space: pre" font-family="Harmattan" font-size="15" font-weight="bold" letter-spacing="0em"><tspan x="128" y="31.0872">Mastering interactive content design</tspan></text>
<g filter="url(#filter1_d_0_1)">
<mask id="path-31-inside-2_0_1" fill="white">
<path d="M346 1H90H346Z"/>
</mask>
<path d="M346 1H90H346Z" fill="#231F20"/>
<path d="M346 1H90H346Z" stroke="black" stroke-width="0.6" mask="url(#path-31-inside-2_0_1)"/>
</g>
<path d="M344.829 68.0996C346.209 68.0996 347.329 67.2042 347.329 66.0996C347.329 64.995 346.209 64.0996 344.829 64.0996C343.448 64.0996 342.329 64.995 342.329 66.0996C342.329 67.2042 343.448 68.0996 344.829 68.0996Z" fill="#231F20"/>
<path d="M344.829 98.0996C346.209 98.0996 347.329 97.2042 347.329 96.0996C347.329 94.995 346.209 94.0996 344.829 94.0996C343.448 94.0996 342.329 94.995 342.329 96.0996C342.329 97.2042 343.448 98.0996 344.829 98.0996Z" fill="#231F20"/>
<path d="M344.829 120.1C346.209 120.1 347.329 119.204 347.329 118.1C347.329 116.995 346.209 116.1 344.829 116.1C343.448 116.1 342.329 116.995 342.329 118.1C342.329 119.204 343.448 120.1 344.829 120.1Z" fill="#231F20"/>
<path d="M344.829 140.1C346.209 140.1 347.329 139.204 347.329 138.1C347.329 136.995 346.209 136.1 344.829 136.1C343.448 136.1 342.329 136.995 342.329 138.1C342.329 139.204 343.448 140.1 344.829 140.1Z" fill="#231F20"/>
<path d="M341.329 93.0996H244.329V99.0996H341.329V93.0996Z" fill="#949598"/>
<path d="M341.329 115.1H244.329V121.1H341.329V115.1Z" fill="#949598"/>
<path d="M341.329 135.1H244.329V141.1H341.329V135.1Z" fill="#949598"/>
<path d="M341.329 62.0996H244.329V68.0996H341.329V62.0996Z" fill="#949598"/>
<path d="M336.329 93.0996H244.329V99.0996H336.329V93.0996Z" fill="#00AEEF"/>
<path d="M297.329 115.1H244.329V121.1H297.329V115.1Z" fill="#00AEEF"/>
<path d="M297.329 135.1H244.329V141.1H297.329V135.1Z" fill="#00AEEF"/>
<path d="M314.329 62.0996H244.329V68.0996H314.329V62.0996Z" fill="#00AEEF"/>
<path d="M333.773 92.0996C335.247 92.0996 336.66 92.4831 337.701 93.1657C338.743 93.8484 339.329 94.7742 339.329 95.7396V96.4567C339.329 96.9349 339.186 97.4086 338.907 97.8505C338.628 98.2925 338.219 98.6941 337.703 99.0324C337.187 99.3708 336.575 99.6391 335.9 99.8223C335.226 100.005 334.503 100.1 333.773 100.1C333.189 100.1 332.611 100.024 332.071 99.8777C331.532 99.7311 331.042 99.5163 330.629 99.2456C330.216 98.9749 329.889 98.6535 329.666 98.2998C329.443 97.9462 329.328 97.5672 329.329 97.1845V95.0118C329.329 94.2394 329.797 93.4987 330.63 92.9526C331.464 92.4064 332.594 92.0996 333.773 92.0996Z" fill="black"/>
<path d="M296.329 114.1C297.655 114.1 298.927 114.483 299.864 115.166C300.802 115.848 301.329 116.774 301.329 117.74V118.457C301.329 118.935 301.2 119.409 300.949 119.851C300.698 120.293 300.33 120.694 299.866 121.032C299.401 121.371 298.85 121.639 298.243 121.822C297.636 122.005 296.986 122.1 296.329 122.1C295.803 122.1 295.283 122.024 294.797 121.878C294.311 121.731 293.87 121.516 293.499 121.246C293.127 120.975 292.833 120.653 292.632 120.3C292.431 119.946 292.328 119.567 292.329 119.184V117.012C292.329 116.239 292.75 115.499 293.5 114.953C294.25 114.406 295.268 114.1 296.329 114.1Z" fill="black"/>
<path d="M296.329 134.1C297.655 134.1 298.927 134.483 299.864 135.166C300.802 135.848 301.329 136.774 301.329 137.74V138.457C301.329 138.935 301.2 139.409 300.949 139.851C300.698 140.293 300.33 140.694 299.866 141.032C299.401 141.371 298.85 141.639 298.243 141.822C297.636 142.005 296.986 142.1 296.329 142.1C295.803 142.1 295.283 142.024 294.797 141.878C294.311 141.731 293.87 141.516 293.499 141.246C293.127 140.975 292.833 140.653 292.632 140.3C292.431 139.946 292.328 139.567 292.329 139.184V137.012C292.329 136.239 292.75 135.499 293.5 134.953C294.25 134.406 295.268 134.1 296.329 134.1Z" fill="black"/>
<path d="M310.329 61.0996C311.655 61.0996 312.927 61.4831 313.864 62.1657C314.802 62.8484 315.329 63.7742 315.329 64.7396V65.4567C315.329 65.9349 315.2 66.4086 314.949 66.8505C314.698 67.2925 314.33 67.6941 313.866 68.0324C313.401 68.3708 312.85 68.6391 312.243 68.8223C311.636 69.0054 310.986 69.0996 310.329 69.0996C309.803 69.0996 309.283 69.0242 308.797 68.8777C308.311 68.7311 307.87 68.5163 307.499 68.2456C307.127 67.9749 306.833 67.6535 306.632 67.2998C306.431 66.9462 306.328 66.5672 306.329 66.1845V64.0118C306.329 63.2394 306.75 62.4987 307.5 61.9526C308.25 61.4064 309.268 61.0996 310.329 61.0996Z" fill="black"/>
<text fill="#FF0040" xml:space="preserve" style="white-space: pre" font-family="Bahij TheSansArabic" font-size="13" font-weight="500" letter-spacing="0em"><tspan x="77" y="99.261">Microsoft PowerPoint</tspan></text>
<text fill="#FF0040" xml:space="preserve" style="white-space: pre" font-family="Bahij TheSansArabic" font-size="13" font-weight="500" letter-spacing="0em"><tspan x="77" y="118.261">Adobe Premiere Pro</tspan></text>
<text fill="#FF0040" xml:space="preserve" style="white-space: pre" font-family="Bahij TheSansArabic" font-size="13" font-weight="500" letter-spacing="0em"><tspan x="77" y="137.261">Adobe Audition</tspan></text>
<text fill="#FF0040" xml:space="preserve" style="white-space: pre" font-family="Bahij TheSansArabic" font-size="13" font-weight="500" letter-spacing="0em"><tspan x="80" y="63.261">Articulate Storyline</tspan></text>
<text fill="black" xml:space="preserve" style="white-space: pre" font-family="Bahij TheSansArabic" font-size="7" font-weight="500" letter-spacing="0em"><tspan x="81.0801" y="72.5251">Quizzes &#38; Assessments</tspan></text>
<text fill="black" xml:space="preserve" style="white-space: pre" font-family="Harmattan" font-size="7" font-weight="500" letter-spacing="0em"><tspan x="77" y="146.441">Noise and distortion removal</tspan></text>
<path d="M382 44L382 105" stroke="white"/>
<path d="M39 44L39 105" stroke="white"/>
<rect x="2" y="-2" width="805" height="159" transform="matrix(1 0 0 -1 0 160)" stroke="#01ADED" stroke-width="4"/>
<path d="M439.67 169.504H396.746C393.514 169.504 390.893 171.279 390.893 173.468V197.251C390.893 199.44 393.514 201.214 396.746 201.214H439.67C442.902 201.214 445.523 199.44 445.523 197.251V173.468C445.523 171.279 442.902 169.504 439.67 169.504Z" fill="#FF0101"/>
<path d="M435.767 195.93H400.648C400.13 195.93 399.634 195.79 399.268 195.543C398.902 195.295 398.697 194.959 398.697 194.608C398.697 194.258 398.902 193.922 399.268 193.674C399.634 193.426 400.13 193.287 400.648 193.287H435.767C436.285 193.287 436.781 193.426 437.147 193.674C437.513 193.922 437.718 194.258 437.718 194.608C437.718 194.959 437.513 195.295 437.147 195.543C436.781 195.79 436.285 195.93 435.767 195.93Z" fill="#EEEEEE"/>
<path d="M424.062 197.251C423.544 197.251 423.048 197.112 422.682 196.864C422.316 196.616 422.111 196.28 422.111 195.93V193.287C422.111 192.937 422.316 192.601 422.682 192.353C423.048 192.105 423.544 191.966 424.062 191.966C424.579 191.966 425.076 192.105 425.442 192.353C425.807 192.601 426.013 192.937 426.013 193.287V195.93C426.013 196.28 425.807 196.616 425.442 196.864C425.076 197.112 424.579 197.251 424.062 197.251Z" fill="black"/>
<path d="M396.746 169.504C395.194 169.504 393.705 169.922 392.607 170.665C391.51 171.408 390.893 172.416 390.893 173.468V197.251C390.893 198.302 391.51 199.31 392.607 200.053C393.705 200.797 395.194 201.214 396.746 201.214H418.208V169.504H396.746Z" fill="#01B2FF"/>
<path d="M400.648 193.287C400.13 193.287 399.634 193.426 399.268 193.674C398.902 193.922 398.697 194.258 398.697 194.608C398.697 194.959 398.902 195.295 399.268 195.543C399.634 195.79 400.13 195.93 400.648 195.93H418.208V193.287H400.648Z" fill="#FAFAFA"/>
<path d="M413.234 176.335C412.937 176.233 412.606 176.185 412.274 176.195C411.942 176.204 411.618 176.271 411.335 176.389C411.052 176.506 410.817 176.671 410.654 176.868C410.492 177.064 410.406 177.285 410.405 177.511V187.922C410.407 188.158 410.502 188.388 410.681 188.59C410.859 188.793 411.114 188.959 411.419 189.072C411.702 189.187 412.026 189.246 412.356 189.244C412.721 189.244 413.079 189.176 413.39 189.045L418.209 186.997V178.013L413.234 176.335Z" fill="#00AEEF"/>
<path d="M426.891 180.959L413.234 176.335C412.937 176.233 412.606 176.185 412.274 176.195C411.942 176.204 411.618 176.271 411.335 176.389C411.052 176.506 410.817 176.671 410.654 176.868C410.492 177.064 410.406 177.285 410.405 177.511V187.922C410.407 188.158 410.502 188.388 410.681 188.59C410.859 188.793 411.114 188.959 411.419 189.072C411.702 189.187 412.026 189.246 412.356 189.244C412.721 189.244 413.079 189.176 413.39 189.045L427.047 183.258C427.343 183.133 427.584 182.957 427.745 182.748C427.906 182.539 427.982 182.305 427.964 182.069C427.946 181.836 427.837 181.611 427.648 181.416C427.46 181.221 427.199 181.064 426.891 180.959Z" fill="#EEEEEE"/>
<path d="M502.885 174.015H509.259L500.154 168V172.211C500.154 173.207 501.377 174.015 502.885 174.015Z" fill="#00AEEF"/>
<path d="M499.161 171.008H461.457V181.534H499.161C499.709 181.534 500.154 181.272 500.154 180.949V171.593C500.154 171.27 499.709 171.008 499.161 171.008Z" fill="#C6CACF"/>
<path d="M496.908 181.534H455.601C454.737 181.534 454.304 180.814 454.915 180.393L461.989 175.519L454.915 170.645C454.304 170.224 454.737 169.504 455.601 169.504H496.908C497.444 169.504 497.878 169.803 497.878 170.172V180.866C497.878 181.235 497.444 181.534 496.908 181.534Z" fill="#00AEEF"/>
<path d="M476.377 173.455H472.619C472.101 173.455 471.68 173.733 471.68 174.076V177.8C471.68 178.142 472.101 178.42 472.619 178.42C473.138 178.42 473.559 178.142 473.559 177.8V176.558H476.377C476.896 176.558 477.317 176.28 477.317 175.938V174.076C477.317 173.733 476.896 173.455 476.377 173.455ZM475.438 175.317H473.559V174.696H475.438V175.317Z" fill="white"/>
<path d="M481.074 173.455H479.195C478.677 173.455 478.256 173.733 478.256 174.076V177.8C478.256 178.142 478.677 178.42 479.195 178.42H482.953C483.472 178.42 483.893 178.142 483.893 177.8V175.317C483.893 174.29 482.629 173.455 481.074 173.455ZM482.014 177.179H480.135V174.696H481.074C481.592 174.696 482.014 174.975 482.014 175.317L482.014 177.179Z" fill="white"/>
<path d="M489.53 173.455H485.772C485.253 173.455 484.832 173.733 484.832 174.076V177.8C484.832 178.142 485.253 178.42 485.772 178.42C486.29 178.42 486.711 178.142 486.711 177.8V176.558H488.59C489.109 176.558 489.53 176.28 489.53 175.938C489.53 175.595 489.109 175.317 488.59 175.317H486.711V174.696H489.53C490.048 174.696 490.469 174.418 490.469 174.076C490.469 173.733 490.048 173.455 489.53 173.455Z" fill="white"/>
<path d="M499.229 202.587H471.487C470.977 202.587 470.563 202.295 470.563 201.936V183.69C470.563 183.33 470.977 183.038 471.487 183.038H499.229C499.74 183.038 500.154 183.33 500.154 183.69V201.936C500.154 202.296 499.74 202.587 499.229 202.587Z" fill="#C6CACF"/>
<path d="M472.412 201.284V183.038H471.487C470.977 183.038 470.563 183.33 470.563 183.69V201.936C470.563 202.296 470.977 202.587 471.487 202.587H499.229C499.74 202.587 500.154 202.295 500.154 201.936V201.284H472.412Z" fill="#00AEEF"/>
<path d="M497.002 199.579H487.372C486.888 199.579 486.496 199.291 486.496 198.935V191.201C486.496 190.845 486.888 190.557 487.372 190.557H497.002C497.486 190.557 497.878 190.845 497.878 191.201V198.935C497.878 199.291 497.486 199.579 497.002 199.579Z" fill="black"/>
<path d="M495.601 192.061H488.772V198.076H495.601V192.061Z" fill="#00AEEF"/>
<path d="M497.046 187.108H486.712C486.193 187.108 485.772 186.831 485.772 186.488C485.772 186.145 486.193 185.867 486.712 185.867H497.046C497.565 185.867 497.985 186.145 497.985 186.488C497.985 186.831 497.565 187.108 497.046 187.108Z" fill="#EF0000"/>
<path d="M497.046 189.591H486.712C486.193 189.591 485.772 189.313 485.772 188.97C485.772 188.627 486.193 188.35 486.712 188.35H497.046C497.565 188.35 497.985 188.628 497.985 188.97C497.985 189.313 497.565 189.591 497.046 189.591Z" fill="#EF0000"/>
<path d="M483.893 187.108H474.498C473.979 187.108 473.558 186.831 473.558 186.488C473.558 186.145 473.979 185.867 474.498 185.867H483.893C484.412 185.867 484.832 186.145 484.832 186.488C484.832 186.831 484.411 187.108 483.893 187.108Z" fill="#EF0000"/>
<path d="M483.892 189.591H474.498C473.979 189.591 473.558 189.313 473.558 188.97C473.558 188.627 473.979 188.35 474.498 188.35H483.892C484.411 188.35 484.832 188.628 484.832 188.97C484.832 189.313 484.411 189.591 483.892 189.591Z" fill="#EF0000"/>
<path d="M483.892 192.074H474.498C473.979 192.074 473.558 191.796 473.558 191.454C473.558 191.111 473.979 190.833 474.498 190.833H483.892C484.411 190.833 484.832 191.111 484.832 191.454C484.832 191.796 484.411 192.074 483.892 192.074Z" fill="#EF0000"/>
<path d="M483.892 194.556H474.498C473.979 194.556 473.558 194.278 473.558 193.935C473.558 193.592 473.979 193.314 474.498 193.314H483.892C484.411 193.314 484.832 193.592 484.832 193.935C484.832 194.278 484.411 194.556 483.892 194.556Z" fill="#EF0000"/>
<path d="M483.892 197.039H474.498C473.979 197.039 473.558 196.761 473.558 196.418C473.558 196.076 473.979 195.798 474.498 195.798H483.892C484.411 195.798 484.832 196.076 484.832 196.418C484.832 196.761 484.411 197.039 483.892 197.039Z" fill="#EF0000"/>
<path d="M483.892 199.521H474.498C473.979 199.521 473.558 199.243 473.558 198.9C473.558 198.557 473.979 198.279 474.498 198.279H483.892C484.411 198.279 484.832 198.557 484.832 198.9C484.832 199.243 484.411 199.521 483.892 199.521Z" fill="#EF0000"/>
<path d="M331.71 201.836V205.595H384.064V201.836L358.007 199.58L331.71 201.836Z" fill="#EEEEEE"/>
<path d="M331.71 198.826V202.585H384.064V198.826L358.007 196.57L331.71 198.826Z" fill="#DCDCDC"/>
<path d="M384.065 171.008V198.076H380.65L372.683 184.542L380.65 171.008H384.065Z" fill="#EEEEEE"/>
<path d="M381.788 171.008V173.295L373.54 184.542L381.788 195.788V198.076H331.71V171.008H381.788Z" fill="white"/>
<path d="M333.988 172.511V189.666L357.889 192.06L381.789 189.666V172.511H333.988Z" fill="#29B71C"/>
<path d="M359.026 175.519V181.534C360.283 181.534 361.302 180.187 361.302 178.526C361.302 176.865 360.283 175.519 359.026 175.519Z" fill="#FE5F1A"/>
<path d="M358.116 175.519C358.618 175.519 359.026 176.865 359.026 178.526C359.026 180.187 358.618 181.534 358.116 181.534C356.104 181.534 354.474 180.187 354.474 178.526C354.474 176.865 356.104 175.519 358.116 175.519Z" fill="#00AEEF"/>
<path d="M381.788 193.565L368.131 186.046L378.284 187.246L381.789 189.671L381.788 193.565Z" fill="#027372"/>
<path d="M376.266 187.676L369.772 184.542L361.406 187.676L356.75 190.77L367.49 196.572H381.788V192.404L376.266 187.676Z" fill="#E53935"/>
<path d="M379.512 187.442L377.604 187.549L370.407 185.324V181.534L379.512 187.442Z" fill="#EEEEEE"/>
<path d="M361.302 187.549L368.991 181.534L374.959 187.549L361.302 187.549Z" fill="white"/>
<path d="M365.854 196.572H361.692L345.368 186.046L354.409 187.297L365.854 196.572Z" fill="#027372"/>
<path d="M351.483 187.676L361.303 196.572H333.988V190.102L337.438 187.676L345.345 184.542L351.483 187.676Z" fill="#00AEEF"/>
<path d="M354.473 187.442L352.565 187.549L345.368 185.324V181.534L354.473 187.442Z" fill="#EEEEEE"/>
<path d="M336.264 187.549L345.234 181.534L352.198 187.549L336.264 187.549Z" fill="white"/>
<path d="M385.433 204.091C384.931 204.091 384.525 204.379 384.525 204.735V205.809H331.251V204.735C331.251 204.379 330.844 204.091 330.343 204.091C329.841 204.091 329.434 204.379 329.434 204.735V206.454C329.434 206.81 329.841 207.098 330.343 207.098H385.433C385.934 207.098 386.341 206.81 386.341 206.454V204.735C386.341 204.379 385.934 204.091 385.433 204.091Z" fill="#00AEEF"/>
<path d="M385.433 199.58C384.931 199.58 384.525 199.869 384.525 200.225V201.299H331.251V200.225C331.251 199.869 330.844 199.58 330.343 199.58C329.841 199.58 329.434 199.869 329.434 200.225V201.943C329.434 202.299 329.841 202.588 330.343 202.588H385.433C385.934 202.588 386.341 202.299 386.341 201.943V200.225C386.341 199.869 385.934 199.58 385.433 199.58Z" fill="#00AEEF"/>
<path d="M385.433 169.504H330.343C329.841 169.504 329.434 169.777 329.434 170.114V198.97C329.434 199.307 329.841 199.58 330.343 199.58H385.433C385.934 199.58 386.341 199.307 386.341 198.97V170.114C386.341 169.777 385.934 169.504 385.433 169.504ZM384.525 198.36H331.251V170.723H384.525V198.36Z" fill="#00AEEF"/>
<path d="M363.579 178.526C363.579 176.868 361.026 175.519 357.888 175.519C354.75 175.519 352.198 176.868 352.198 178.526C352.198 180.184 354.75 181.534 357.888 181.534C361.026 181.534 363.579 180.184 363.579 178.526ZM353.995 178.526C353.995 177.391 355.741 176.468 357.888 176.468C360.035 176.468 361.782 177.391 361.782 178.526C361.782 179.661 360.035 180.584 357.888 180.584C355.741 180.584 353.995 179.661 353.995 178.526Z" fill="black"/>
<path d="M331.71 195.954C331.71 196.295 332.139 196.572 332.668 196.572H383.107C383.636 196.572 384.064 196.295 384.064 195.954V171.626C384.064 171.285 383.636 171.008 383.107 171.008H332.668C332.139 171.008 331.71 171.285 331.71 171.626V176.574C331.71 176.916 332.139 177.193 332.668 177.193C333.197 177.193 333.626 176.916 333.626 176.574V172.245H382.149V187.863L371.174 180.776C370.8 180.534 370.194 180.534 369.82 180.776L357.887 188.482L345.955 180.775C345.58 180.534 344.974 180.534 344.6 180.775L333.626 187.863V179.048C333.626 178.707 333.197 178.43 332.668 178.43C332.139 178.43 331.71 178.707 331.71 179.048V195.954ZM370.497 182.088L376.964 186.264H364.03L370.497 182.088ZM345.278 182.088L351.745 186.264H338.811L345.278 182.088ZM336.896 187.501H353.66L357.209 189.793C357.211 189.795 363.595 193.917 363.595 193.917C363.782 194.038 364.027 194.098 364.272 194.098C364.517 194.098 364.762 194.038 364.949 193.917C365.323 193.675 365.323 193.284 364.949 193.042L359.242 189.356L362.115 187.501H378.879L382.149 189.613V195.335H333.626V189.613L336.896 187.501Z" fill="black"/>
<path fill-rule="evenodd" clip-rule="evenodd" d="M304.549 175.567C304.851 175.567 305.099 175.832 305.099 176.155V187.208H304V176.155C304 175.828 304.246 175.567 304.549 175.567Z" fill="#FFFFFE"/>
<defs>
<filter id="filter0_d_0_1" x="476.492" y="0.700195" width="264" height="8.59961" filterUnits="userSpaceOnUse" color-interpolation-filters="sRGB">
<feFlood flood-opacity="0" result="BackgroundImageFix"/>
<feColorMatrix in="SourceAlpha" type="matrix" values="0 0 0 0 0 0 0 0 0 0 0 0 0 0 0 0 0 0 127 0" result="hardAlpha"/>
<feOffset dy="4"/>
<feGaussianBlur stdDeviation="2"/>
<feComposite in2="hardAlpha" operator="out"/>
<feColorMatrix type="matrix" values="0 0 0 0 0 0 0 0 0 0 0 0 0 0 0 0 0 0 0.25 0"/>
<feBlend mode="normal" in2="BackgroundImageFix" result="effect1_dropShadow_0_1"/>
<feBlend mode="normal" in="SourceGraphic" in2="effect1_dropShadow_0_1" result="shape"/>
</filter>
<filter id="filter1_d_0_1" x="86" y="0.700195" width="264" height="8.59961" filterUnits="userSpaceOnUse" color-interpolation-filters="sRGB">
<feFlood flood-opacity="0" result="BackgroundImageFix"/>
<feColorMatrix in="SourceAlpha" type="matrix" values="0 0 0 0 0 0 0 0 0 0 0 0 0 0 0 0 0 0 127 0" result="hardAlpha"/>
<feOffset dy="4"/>
<feGaussianBlur stdDeviation="2"/>
<feComposite in2="hardAlpha" operator="out"/>
<feColorMatrix type="matrix" values="0 0 0 0 0 0 0 0 0 0 0 0 0 0 0 0 0 0 0.25 0"/>
<feBlend mode="normal" in2="BackgroundImageFix" result="effect1_dropShadow_0_1"/>
<feBlend mode="normal" in="SourceGraphic" in2="effect1_dropShadow_0_1" result="shape"/>
</filter>
<linearGradient id="paint0_linear_0_1" x1="423" y1="83" x2="408" y2="83" gradientUnits="userSpaceOnUse">
<stop offset="0.432692" stop-color="#FF0000"/>
<stop offset="0.475962"/>
<stop offset="0.476062" stop-color="#00B3FF"/>
</linearGradient>
</defs>
</svg>
