<svg width="809" height="165" viewBox="0 0 809 165" fill="none" xmlns="http://www.w3.org/2000/svg">
<rect width="809" height="165" fill="#F5F5F5"/>
<path d="M578.815 15H725.325C726.665 15 727.992 15.2309 729.23 15.6797C730.468 16.1284 731.593 16.7861 732.541 17.6152C733.488 18.4443 734.24 19.4286 734.753 20.5118C735.265 21.5951 735.529 22.7562 735.529 23.9287V40H578.815C575.026 40 571.392 38.683 568.713 36.3388C566.034 33.9946 564.529 30.8152 564.529 27.5C564.529 24.1848 566.034 21.0054 568.713 18.6612C571.392 16.317 575.026 15 578.815 15Z" fill="#00AEEF"/>
<text fill="white" xml:space="preserve" style="white-space: pre" font-family="Harmattan" font-size="15" font-weight="bold" letter-spacing="0em"><tspan x="581.492" y="32.0872">&#x627;&#x62a;&#x642;&#x627;&#x646; &#x62a;&#x635;&#x645;&#x64a;&#x645; &#x627;&#x644;&#x645;&#x62d;&#x62a;&#x648;&#x649; &#x627;&#x644;&#x62a;&#x641;&#x627;&#x639;&#x644;&#x64a;</tspan></text>
<g filter="url(#filter0_d_0_1)">
<mask id="path-3-inside-1_0_1" fill="white">
<path d="M736.492 1H480.492H736.492Z"/>
</mask>
<path d="M736.492 1H480.492H736.492Z" fill="#231F20"/>
<path d="M736.492 1H480.492H736.492Z" stroke="black" stroke-width="0.6" mask="url(#path-3-inside-1_0_1)"/>
</g>
<path d="M735.321 68.0996C736.702 68.0996 737.821 67.2042 737.821 66.0996C737.821 64.995 736.702 64.0996 735.321 64.0996C733.94 64.0996 732.821 64.995 732.821 66.0996C732.821 67.2042 733.94 68.0996 735.321 68.0996Z" fill="#231F20"/>
<path d="M735.321 98.0996C736.702 98.0996 737.821 97.2042 737.821 96.0996C737.821 94.995 736.702 94.0996 735.321 94.0996C733.94 94.0996 732.821 94.995 732.821 96.0996C732.821 97.2042 733.94 98.0996 735.321 98.0996Z" fill="#231F20"/>
<path d="M735.321 120.1C736.702 120.1 737.821 119.204 737.821 118.1C737.821 116.995 736.702 116.1 735.321 116.1C733.94 116.1 732.821 116.995 732.821 118.1C732.821 119.204 733.94 120.1 735.321 120.1Z" fill="#231F20"/>
<path d="M735.321 140.1C736.702 140.1 737.821 139.204 737.821 138.1C737.821 136.995 736.702 136.1 735.321 136.1C733.94 136.1 732.821 136.995 732.821 138.1C732.821 139.204 733.94 140.1 735.321 140.1Z" fill="#231F20"/>
<path d="M731.821 93.0996H634.821V99.0996H731.821V93.0996Z" fill="#949598"/>
<path d="M731.821 115.1H634.821V121.1H731.821V115.1Z" fill="#949598"/>
<path d="M731.821 135.1H634.821V141.1H731.821V135.1Z" fill="#949598"/>
<path d="M731.821 62.0996H634.821V68.0996H731.821V62.0996Z" fill="#949598"/>
<path d="M726.821 93.0996H634.821V99.0996H726.821V93.0996Z" fill="#00AEEF"/>
<path d="M687.821 115.1H634.821V121.1H687.821V115.1Z" fill="#00AEEF"/>
<path d="M687.821 135.1H634.821V141.1H687.821V135.1Z" fill="#00AEEF"/>
<path d="M704.821 62.0996H634.821V68.0996H704.821V62.0996Z" fill="#00AEEF"/>
<path d="M724.265 92.0996C725.739 92.0996 727.152 92.4831 728.194 93.1657C729.236 93.8484 729.821 94.7742 729.821 95.7396V96.4567C729.821 96.9349 729.678 97.4086 729.399 97.8505C729.12 98.2925 728.711 98.6941 728.195 99.0324C727.679 99.3708 727.067 99.6391 726.392 99.8223C725.718 100.005 724.995 100.1 724.265 100.1C723.681 100.1 723.103 100.024 722.564 99.8777C722.024 99.7311 721.534 99.5163 721.121 99.2456C720.708 98.9749 720.381 98.6535 720.158 98.2998C719.935 97.9462 719.82 97.5672 719.821 97.1845V95.0118C719.821 94.2394 720.289 93.4987 721.123 92.9526C721.956 92.4064 723.087 92.0996 724.265 92.0996Z" fill="black"/>
<path d="M686.821 114.1C688.147 114.1 689.419 114.483 690.356 115.166C691.294 115.848 691.821 116.774 691.821 117.74V118.457C691.821 118.935 691.692 119.409 691.441 119.851C691.19 120.293 690.822 120.694 690.358 121.032C689.893 121.371 689.342 121.639 688.735 121.822C688.128 122.005 687.478 122.1 686.821 122.1C686.295 122.1 685.775 122.024 685.289 121.878C684.804 121.731 684.362 121.516 683.991 121.246C683.619 120.975 683.325 120.653 683.124 120.3C682.923 119.946 682.82 119.567 682.821 119.184V117.012C682.821 116.239 683.242 115.499 683.992 114.953C684.743 114.406 685.76 114.1 686.821 114.1Z" fill="black"/>
<path d="M686.821 134.1C688.147 134.1 689.419 134.483 690.356 135.166C691.294 135.848 691.821 136.774 691.821 137.74V138.457C691.821 138.935 691.692 139.409 691.441 139.851C691.19 140.293 690.822 140.694 690.358 141.032C689.893 141.371 689.342 141.639 688.735 141.822C688.128 142.005 687.478 142.1 686.821 142.1C686.295 142.1 685.775 142.024 685.289 141.878C684.804 141.731 684.362 141.516 683.991 141.246C683.619 140.975 683.325 140.653 683.124 140.3C682.923 139.946 682.82 139.567 682.821 139.184V137.012C682.821 136.239 683.242 135.499 683.992 134.953C684.743 134.406 685.76 134.1 686.821 134.1Z" fill="black"/>
<path d="M700.821 61.0996C702.147 61.0996 703.419 61.4831 704.356 62.1657C705.294 62.8484 705.821 63.7742 705.821 64.7396V65.4567C705.821 65.9349 705.692 66.4086 705.441 66.8505C705.19 67.2925 704.822 67.6941 704.358 68.0324C703.893 68.3708 703.342 68.6391 702.735 68.8223C702.128 69.0054 701.478 69.0996 700.821 69.0996C700.295 69.0996 699.775 69.0242 699.289 68.8777C698.804 68.7311 698.362 68.5163 697.991 68.2456C697.619 67.9749 697.325 67.6535 697.124 67.2998C696.923 66.9462 696.82 66.5672 696.821 66.1845V64.0118C696.821 63.2394 697.242 62.4987 697.992 61.9526C698.743 61.4064 699.76 61.0996 700.821 61.0996Z" fill="black"/>
<text fill="#FF0040" xml:space="preserve" style="white-space: pre" font-family="Bahij TheSansArabic" font-size="13" font-weight="500" letter-spacing="0em"><tspan x="467.492" y="99.261">Microsoft PowerPoint</tspan></text>
<text fill="#FF0040" xml:space="preserve" style="white-space: pre" font-family="Bahij TheSansArabic" font-size="13" font-weight="500" letter-spacing="0em"><tspan x="467.492" y="118.261">Adobe Premiere Pro</tspan></text>
<text fill="#FF0040" xml:space="preserve" style="white-space: pre" font-family="Bahij TheSansArabic" font-size="13" font-weight="500" letter-spacing="0em"><tspan x="467.492" y="137.261">Adobe Audition</tspan></text>
<text fill="#FF0040" xml:space="preserve" style="white-space: pre" font-family="Bahij TheSansArabic" font-size="13" font-weight="500" letter-spacing="0em"><tspan x="470.492" y="63.261">Articulate Storyline</tspan></text>
<text fill="black" xml:space="preserve" style="white-space: pre" font-family="Bahij TheSansArabic" font-size="7" font-weight="500" letter-spacing="0em"><tspan x="471.572" y="72.5251">Quizzes &#38; Assessments</tspan></text>
<text fill="black" xml:space="preserve" style="white-space: pre" font-family="Harmattan" font-size="7" font-weight="500" letter-spacing="0em"><tspan x="467.492" y="146.441">&#x625;&#x632;&#x627;&#x644;&#x629; &#x627;&#x644;&#x636;&#x648;&#x636;&#x627;&#x621; &#x648;&#x627;&#x644;&#x62a;&#x634;&#x648;&#x64a;&#x634;</tspan></text>
<path d="M772.492 44L772.492 105" stroke="white"/>
<path d="M429.492 44L429.492 105" stroke="white"/>
<rect x="408" y="2" width="15" height="162" fill="url(#paint0_linear_0_1)"/>
<path d="M128.716 15H330.917C332.767 15 334.598 15.2309 336.306 15.6797C338.015 16.1284 339.568 16.7861 340.875 17.6152C342.183 18.4443 343.22 19.4286 343.928 20.5118C344.636 21.5951 345 22.7562 345 23.9287V40H128.716C123.487 40 118.472 38.683 114.775 36.3388C111.077 33.9946 109 30.8152 109 27.5C109 24.1848 111.077 21.0054 114.775 18.6612C118.472 16.317 123.487 15 128.716 15Z" fill="#00AEEF"/>
<text fill="white" xml:space="preserve" style="white-space: pre" font-family="Harmattan" font-size="15" font-weight="bold" letter-spacing="0em"><tspan x="128" y="31.0872">Mastering interactive content design</tspan></text>
<g filter="url(#filter1_d_0_1)">
<mask id="path-31-inside-2_0_1" fill="white">
<path d="M346 1H90H346Z"/>
</mask>
<path d="M346 1H90H346Z" fill="#231F20"/>
<path d="M346 1H90H346Z" stroke="black" stroke-width="0.6" mask="url(#path-31-inside-2_0_1)"/>
</g>
<path d="M344.829 68.0996C346.209 68.0996 347.329 67.2042 347.329 66.0996C347.329 64.995 346.209 64.0996 344.829 64.0996C343.448 64.0996 342.329 64.995 342.329 66.0996C342.329 67.2042 343.448 68.0996 344.829 68.0996Z" fill="#231F20"/>
<path d="M344.829 98.0996C346.209 98.0996 347.329 97.2042 347.329 96.0996C347.329 94.995 346.209 94.0996 344.829 94.0996C343.448 94.0996 342.329 94.995 342.329 96.0996C342.329 97.2042 343.448 98.0996 344.829 98.0996Z" fill="#231F20"/>
<path d="M344.829 120.1C346.209 120.1 347.329 119.204 347.329 118.1C347.329 116.995 346.209 116.1 344.829 116.1C343.448 116.1 342.329 116.995 342.329 118.1C342.329 119.204 343.448 120.1 344.829 120.1Z" fill="#231F20"/>
<path d="M344.829 140.1C346.209 140.1 347.329 139.204 347.329 138.1C347.329 136.995 346.209 136.1 344.829 136.1C343.448 136.1 342.329 136.995 342.329 138.1C342.329 139.204 343.448 140.1 344.829 140.1Z" fill="#231F20"/>
<path d="M341.329 93.0996H244.329V99.0996H341.329V93.0996Z" fill="#949598"/>
<path d="M341.329 115.1H244.329V121.1H341.329V115.1Z" fill="#949598"/>
<path d="M341.329 135.1H244.329V141.1H341.329V135.1Z" fill="#949598"/>
<path d="M341.329 62.0996H244.329V68.0996H341.329V62.0996Z" fill="#949598"/>
<path d="M336.329 93.0996H244.329V99.0996H336.329V93.0996Z" fill="#00AEEF"/>
<path d="M297.329 115.1H244.329V121.1H297.329V115.1Z" fill="#00AEEF"/>
<path d="M297.329 135.1H244.329V141.1H297.329V135.1Z" fill="#00AEEF"/>
<path d="M314.329 62.0996H244.329V68.0996H314.329V62.0996Z" fill="#00AEEF"/>
<path d="M333.773 92.0996C335.247 92.0996 336.66 92.4831 337.701 93.1657C338.743 93.8484 339.329 94.7742 339.329 95.7396V96.4567C339.329 96.9349 339.186 97.4086 338.907 97.8505C338.628 98.2925 338.219 98.6941 337.703 99.0324C337.187 99.3708 336.575 99.6391 335.9 99.8223C335.226 100.005 334.503 100.1 333.773 100.1C333.189 100.1 332.611 100.024 332.071 99.8777C331.532 99.7311 331.042 99.5163 330.629 99.2456C330.216 98.9749 329.889 98.6535 329.666 98.2998C329.443 97.9462 329.328 97.5672 329.329 97.1845V95.0118C329.329 94.2394 329.797 93.4987 330.63 92.9526C331.464 92.4064 332.594 92.0996 333.773 92.0996Z" fill="black"/>
<path d="M296.329 114.1C297.655 114.1 298.927 114.483 299.864 115.166C300.802 115.848 301.329 116.774 301.329 117.74V118.457C301.329 118.935 301.2 119.409 300.949 119.851C300.698 120.293 300.33 120.694 299.866 121.032C299.401 121.371 298.85 121.639 298.243 121.822C297.636 122.005 296.986 122.1 296.329 122.1C295.803 122.1 295.283 122.024 294.797 121.878C294.311 121.731 293.87 121.516 293.499 121.246C293.127 120.975 292.833 120.653 292.632 120.3C292.431 119.946 292.328 119.567 292.329 119.184V117.012C292.329 116.239 292.75 115.499 293.5 114.953C294.25 114.406 295.268 114.1 296.329 114.1Z" fill="black"/>
<path d="M296.329 134.1C297.655 134.1 298.927 134.483 299.864 135.166C300.802 135.848 301.329 136.774 301.329 137.74V138.457C301.329 138.935 301.2 139.409 300.949 139.851C300.698 140.293 300.33 140.694 299.866 141.032C299.401 141.371 298.85 141.639 298.243 141.822C297.636 142.005 296.986 142.1 296.329 142.1C295.803 142.1 295.283 142.024 294.797 141.878C294.311 141.731 293.87 141.516 293.499 141.246C293.127 140.975 292.833 140.653 292.632 140.3C292.431 139.946 292.328 139.567 292.329 139.184V137.012C292.329 136.239 292.75 135.499 293.5 134.953C294.25 134.406 295.268 134.1 296.329 134.1Z" fill="black"/>
<path d="M310.329 61.0996C311.655 61.0996 312.927 61.4831 313.864 62.1657C314.802 62.8484 315.329 63.7742 315.329 64.7396V65.4567C315.329 65.9349 315.2 66.4086 314.949 66.8505C314.698 67.2925 314.33 67.6941 313.866 68.0324C313.401 68.3708 312.85 68.6391 312.243 68.8223C311.636 69.0054 310.986 69.0996 310.329 69.0996C309.803 69.0996 309.283 69.0242 308.797 68.8777C308.311 68.7311 307.87 68.5163 307.499 68.2456C307.127 67.9749 306.833 67.6535 306.632 67.2998C306.431 66.9462 306.328 66.5672 306.329 66.1845V64.0118C306.329 63.2394 306.75 62.4987 307.5 61.9526C308.25 61.4064 309.268 61.0996 310.329 61.0996Z" fill="black"/>
<text fill="#FF0040" xml:space="preserve" style="white-space: pre" font-family="Bahij TheSansArabic" font-size="13" font-weight="500" letter-spacing="0em"><tspan x="77" y="99.261">Microsoft PowerPoint</tspan></text>
<text fill="#FF0040" xml:space="preserve" style="white-space: pre" font-family="Bahij TheSansArabic" font-size="13" font-weight="500" letter-spacing="0em"><tspan x="77" y="118.261">Adobe Premiere Pro</tspan></text>
<text fill="#FF0040" xml:space="preserve" style="white-space: pre" font-family="Bahij TheSansArabic" font-size="13" font-weight="500" letter-spacing="0em"><tspan x="77" y="137.261">Adobe Audition</tspan></text>
<text fill="#FF0040" xml:space="preserve" style="white-space: pre" font-family="Bahij TheSansArabic" font-size="13" font-weight="500" letter-spacing="0em"><tspan x="80" y="63.261">Articulate Storyline</tspan></text>
<text fill="black" xml:space="preserve" style="white-space: pre" font-family="Bahij TheSansArabic" font-size="7" font-weight="500" letter-spacing="0em"><tspan x="81.0801" y="72.5251">Quizzes &#38; Assessments</tspan></text>
<text fill="black" xml:space="preserve" style="white-space: pre" font-family="Harmattan" font-size="7" font-weight="500" letter-spacing="0em"><tspan x="77" y="146.441">Noise and distortion removal</tspan></text>
<path d="M382 44L382 105" stroke="white"/>
<path d="M39 44L39 105" stroke="white"/>
<rect x="2" y="-2" width="805" height="159" transform="matrix(1 0 0 -1 0 160)" stroke="#01ADED" stroke-width="4"/>
<defs>
<filter id="filter0_d_0_1" x="476.492" y="0.700195" width="264" height="8.59961" filterUnits="userSpaceOnUse" color-interpolation-filters="sRGB">
<feFlood flood-opacity="0" result="BackgroundImageFix"/>
<feColorMatrix in="SourceAlpha" type="matrix" values="0 0 0 0 0 0 0 0 0 0 0 0 0 0 0 0 0 0 127 0" result="hardAlpha"/>
<feOffset dy="4"/>
<feGaussianBlur stdDeviation="2"/>
<feComposite in2="hardAlpha" operator="out"/>
<feColorMatrix type="matrix" values="0 0 0 0 0 0 0 0 0 0 0 0 0 0 0 0 0 0 0.25 0"/>
<feBlend mode="normal" in2="BackgroundImageFix" result="effect1_dropShadow_0_1"/>
<feBlend mode="normal" in="SourceGraphic" in2="effect1_dropShadow_0_1" result="shape"/>
</filter>
<filter id="filter1_d_0_1" x="86" y="0.700195" width="264" height="8.59961" filterUnits="userSpaceOnUse" color-interpolation-filters="sRGB">
<feFlood flood-opacity="0" result="BackgroundImageFix"/>
<feColorMatrix in="SourceAlpha" type="matrix" values="0 0 0 0 0 0 0 0 0 0 0 0 0 0 0 0 0 0 127 0" result="hardAlpha"/>
<feOffset dy="4"/>
<feGaussianBlur stdDeviation="2"/>
<feComposite in2="hardAlpha" operator="out"/>
<feColorMatrix type="matrix" values="0 0 0 0 0 0 0 0 0 0 0 0 0 0 0 0 0 0 0.25 0"/>
<feBlend mode="normal" in2="BackgroundImageFix" result="effect1_dropShadow_0_1"/>
<feBlend mode="normal" in="SourceGraphic" in2="effect1_dropShadow_0_1" result="shape"/>
</filter>
<linearGradient id="paint0_linear_0_1" x1="423" y1="83" x2="408" y2="83" gradientUnits="userSpaceOnUse">
<stop offset="0.432692" stop-color="#535353"/>
<stop offset="0.475962"/>
<stop offset="0.476062" stop-color="#00B3FF"/>
</linearGradient>
</defs>
</svg>
