<svg width="809" height="163" viewBox="0 0 809 163" fill="none" xmlns="http://www.w3.org/2000/svg">
<rect width="809" height="163" fill="#F5F5F5"/>
<rect x="408" y="8" width="15" height="112" fill="url(#paint0_linear_0_1)"/>
<rect x="2" y="-2" width="805" height="109" transform="matrix(1 0 0 -1 0 116)" stroke="#01ADED" stroke-width="4"/>
<text fill="#FF0040" xml:space="preserve" style="white-space: pre" font-family="Bahij TheSansArabic" font-size="11" font-weight="500" letter-spacing="0em"><tspan x="471.492" y="67.1824">Adobe XD</tspan></text>
<text fill="#FF0040" xml:space="preserve" style="white-space: pre" font-family="Bahij TheSansArabic" font-size="11" font-weight="500" letter-spacing="0em"><tspan x="471.492" y="91.1824">Figma </tspan></text>
<path d="M610.492 89H541.492V88H610.492V89Z" fill="#00AEEF"/>
<path d="M610.492 65H541.492V64H610.492V65Z" fill="#00AEEF"/>
<path d="M589.931 15H718.909C720.089 15 721.257 15.2324 722.347 15.6838C723.436 16.1352 724.427 16.7969 725.261 17.6311C726.095 18.4652 726.757 19.4555 727.208 20.5454C727.66 21.6352 727.892 22.8033 727.892 23.983V40.152H589.931C586.596 40.152 583.397 38.827 581.038 36.4686C578.68 34.1101 577.355 30.9114 577.355 27.576C577.355 24.2406 578.68 21.0419 581.038 18.6834C583.397 16.325 586.596 15 589.931 15Z" fill="#00AEEF"/>
<text fill="white" xml:space="preserve" style="white-space: pre" font-family="Harmattan" font-size="15" font-weight="bold" letter-spacing="0em"><tspan x="595.492" y="30.0872">UI - UX &#x645;&#x647;&#x627;&#x631;&#x629; &#x627;&#x644;&#x62a;&#x635;&#x645;&#x64a;&#x645;</tspan></text>
<path d="M724.184 61.668H634.184V66.668H724.184V61.668Z" fill="#949598"/>
<path d="M724.184 85.668H634.184V90.668H724.184V85.668Z" fill="#949598"/>
<path d="M706.184 61.668H634.184V66.668H706.184V61.668Z" fill="#00AEEF"/>
<path d="M706.184 85.668H634.184V90.668H706.184V85.668Z" fill="#00AEEF"/>
<path d="M706.74 60.668C707.918 60.668 709.049 61.0515 709.882 61.7341C710.716 62.4167 711.184 63.3426 711.184 64.308V65.025C711.185 65.5033 711.07 65.9769 710.847 66.4189C710.624 66.8609 710.296 67.2625 709.884 67.6008C709.471 67.9391 708.981 68.2075 708.441 68.3906C707.902 68.5737 707.324 68.668 706.74 68.668C706.273 68.668 705.81 68.5925 705.378 68.446C704.947 68.2995 704.554 68.0847 704.224 67.814C703.894 67.5432 703.632 67.2219 703.454 66.8682C703.275 66.5145 703.184 66.1355 703.184 65.7528V63.5802C703.184 62.8078 703.559 62.0671 704.226 61.5209C704.892 60.9748 705.797 60.668 706.74 60.668Z" fill="black"/>
<path d="M706.74 84.668C707.918 84.668 709.049 85.0515 709.882 85.7341C710.716 86.4167 711.184 87.3426 711.184 88.308V89.025C711.185 89.5033 711.07 89.9769 710.847 90.4189C710.624 90.8609 710.296 91.2625 709.884 91.6008C709.471 91.9391 708.981 92.2075 708.441 92.3906C707.902 92.5737 707.324 92.668 706.74 92.668C706.273 92.668 705.81 92.5925 705.378 92.446C704.947 92.2995 704.554 92.0847 704.224 91.814C703.894 91.5432 703.632 91.2219 703.454 90.8682C703.275 90.5145 703.184 90.1355 703.184 89.7528V87.5802C703.184 86.8078 703.559 86.0671 704.226 85.5209C704.892 84.9748 705.797 84.668 706.74 84.668Z" fill="black"/>
<path d="M727.684 65.668C729.065 65.668 730.184 64.9964 730.184 64.168C730.184 63.3395 729.065 62.668 727.684 62.668C726.303 62.668 725.184 63.3395 725.184 64.168C725.184 64.9964 726.303 65.668 727.684 65.668Z" fill="#231F20"/>
<path d="M727.684 89.668C729.065 89.668 730.184 88.9964 730.184 88.168C730.184 87.3395 729.065 86.668 727.684 86.668C726.303 86.668 725.184 87.3395 725.184 88.168C725.184 88.9964 726.303 89.668 727.684 89.668Z" fill="#231F20"/>
<path d="M772.492 20L772.492 81" stroke="white"/>
<path d="M429.492 20L429.492 81" stroke="white"/>
<text fill="#FF0040" xml:space="preserve" style="white-space: pre" font-family="Bahij TheSansArabic" font-size="11" font-weight="500" letter-spacing="0em"><tspan x="81" y="70.1824">Adobe XD</tspan></text>
<text fill="#FF0040" xml:space="preserve" style="white-space: pre" font-family="Bahij TheSansArabic" font-size="11" font-weight="500" letter-spacing="0em"><tspan x="81" y="94.1824">Figma </tspan></text>
<path d="M220 92H151V91H220V92Z" fill="#00AEEF"/>
<path d="M220 68H151V67H220V68Z" fill="#00AEEF"/>
<path d="M199.439 15H328.417C329.596 15 330.765 15.2324 331.854 15.6838C332.944 16.1352 333.935 16.7969 334.769 17.6311C335.603 18.4652 336.265 19.4555 336.716 20.5454C337.167 21.6352 337.4 22.8033 337.4 23.983V40.152H199.439C196.103 40.152 192.905 38.827 190.546 36.4686C188.188 34.1101 186.863 30.9114 186.863 27.576C186.863 24.2406 188.188 21.0419 190.546 18.6834C192.905 16.325 196.103 15 199.439 15Z" fill="#00AEEF"/>
<text fill="white" xml:space="preserve" style="white-space: pre" font-family="Harmattan" font-size="15" font-weight="bold" letter-spacing="0em"><tspan x="205" y="30.0872">UI - UX Design Skill</tspan></text>
<path d="M333.692 64.668H243.692V69.668H333.692V64.668Z" fill="#949598"/>
<path d="M333.692 88.668H243.692V93.668H333.692V88.668Z" fill="#949598"/>
<path d="M315.692 64.668H243.692V69.668H315.692V64.668Z" fill="#00AEEF"/>
<path d="M315.692 88.668H243.692V93.668H315.692V88.668Z" fill="#00AEEF"/>
<path d="M316.248 63.668C317.426 63.668 318.557 64.0515 319.39 64.7341C320.224 65.4167 320.692 66.3426 320.692 67.308V68.025C320.692 68.5033 320.578 68.9769 320.355 69.4189C320.131 69.8609 319.804 70.2625 319.391 70.6008C318.979 70.9391 318.489 71.2075 317.949 71.3906C317.41 71.5737 316.832 71.668 316.248 71.668C315.78 71.668 315.318 71.5925 314.886 71.446C314.454 71.2995 314.062 71.0847 313.732 70.814C313.402 70.5432 313.14 70.2219 312.962 69.8682C312.783 69.5145 312.691 69.1355 312.692 68.7528V66.5802C312.692 65.8078 313.067 65.0671 313.733 64.5209C314.4 63.9748 315.305 63.668 316.248 63.668Z" fill="black"/>
<path d="M316.248 87.668C317.426 87.668 318.557 88.0515 319.39 88.7341C320.224 89.4167 320.692 90.3426 320.692 91.308V92.025C320.692 92.5033 320.578 92.9769 320.355 93.4189C320.131 93.8609 319.804 94.2625 319.391 94.6008C318.979 94.9391 318.489 95.2075 317.949 95.3906C317.41 95.5737 316.832 95.668 316.248 95.668C315.78 95.668 315.318 95.5925 314.886 95.446C314.454 95.2995 314.062 95.0847 313.732 94.814C313.402 94.5432 313.14 94.2219 312.962 93.8682C312.783 93.5145 312.691 93.1355 312.692 92.7528V90.5802C312.692 89.8078 313.067 89.0671 313.733 88.5209C314.4 87.9748 315.305 87.668 316.248 87.668Z" fill="black"/>
<path d="M337.192 68.668C338.573 68.668 339.692 67.9964 339.692 67.168C339.692 66.3395 338.573 65.668 337.192 65.668C335.811 65.668 334.692 66.3395 334.692 67.168C334.692 67.9964 335.811 68.668 337.192 68.668Z" fill="#231F20"/>
<path d="M337.192 92.668C338.573 92.668 339.692 91.9964 339.692 91.168C339.692 90.3395 338.573 89.668 337.192 89.668C335.811 89.668 334.692 90.3395 334.692 91.168C334.692 91.9964 335.811 92.668 337.192 92.668Z" fill="#231F20"/>
<path d="M382 20L382 81" stroke="white"/>
<path d="M39 20L39 81" stroke="white"/>
<path d="M439.67 124.504H396.746C393.514 124.504 390.893 126.279 390.893 128.468V152.251C390.893 154.44 393.514 156.214 396.746 156.214H439.67C442.902 156.214 445.523 154.44 445.523 152.251V128.468C445.523 126.279 442.902 124.504 439.67 124.504Z" fill="#FF0101"/>
<path d="M435.767 150.93H400.648C400.13 150.93 399.634 150.79 399.268 150.543C398.902 150.295 398.697 149.959 398.697 149.608C398.697 149.258 398.902 148.922 399.268 148.674C399.634 148.426 400.13 148.287 400.648 148.287H435.767C436.285 148.287 436.781 148.426 437.147 148.674C437.513 148.922 437.718 149.258 437.718 149.608C437.718 149.959 437.513 150.295 437.147 150.543C436.781 150.79 436.285 150.93 435.767 150.93Z" fill="#EEEEEE"/>
<path d="M424.062 152.251C423.544 152.251 423.048 152.112 422.682 151.864C422.316 151.616 422.111 151.28 422.111 150.93V148.287C422.111 147.937 422.316 147.601 422.682 147.353C423.048 147.105 423.544 146.966 424.062 146.966C424.579 146.966 425.076 147.105 425.442 147.353C425.807 147.601 426.013 147.937 426.013 148.287V150.93C426.013 151.28 425.807 151.616 425.442 151.864C425.076 152.112 424.579 152.251 424.062 152.251Z" fill="black"/>
<path d="M396.746 124.504C395.194 124.504 393.705 124.922 392.607 125.665C391.51 126.408 390.893 127.416 390.893 128.468V152.251C390.893 153.302 391.51 154.31 392.607 155.053C393.705 155.797 395.194 156.214 396.746 156.214H418.208V124.504H396.746Z" fill="#01B2FF"/>
<path d="M400.648 148.287C400.13 148.287 399.634 148.426 399.268 148.674C398.902 148.922 398.697 149.258 398.697 149.608C398.697 149.959 398.902 150.295 399.268 150.543C399.634 150.79 400.13 150.93 400.648 150.93H418.208V148.287H400.648Z" fill="#FAFAFA"/>
<path d="M413.234 131.335C412.937 131.233 412.606 131.185 412.274 131.195C411.942 131.204 411.618 131.271 411.335 131.389C411.052 131.506 410.817 131.671 410.654 131.868C410.492 132.064 410.406 132.285 410.405 132.511V142.922C410.407 143.158 410.502 143.388 410.681 143.59C410.859 143.793 411.114 143.959 411.419 144.072C411.702 144.187 412.026 144.246 412.356 144.244C412.721 144.244 413.079 144.176 413.39 144.045L418.209 141.997V133.013L413.234 131.335Z" fill="#00AEEF"/>
<path d="M426.891 135.959L413.234 131.335C412.937 131.233 412.606 131.185 412.274 131.195C411.942 131.204 411.618 131.271 411.335 131.389C411.052 131.506 410.817 131.671 410.654 131.868C410.492 132.064 410.406 132.285 410.405 132.511V142.922C410.407 143.158 410.502 143.388 410.681 143.59C410.859 143.793 411.114 143.959 411.419 144.072C411.702 144.187 412.026 144.246 412.356 144.244C412.721 144.244 413.079 144.176 413.39 144.045L427.047 138.258C427.343 138.133 427.584 137.957 427.745 137.748C427.906 137.539 427.982 137.305 427.964 137.069C427.946 136.836 427.837 136.611 427.648 136.416C427.46 136.221 427.199 136.064 426.891 135.959Z" fill="#EEEEEE"/>
<path d="M502.885 129.015H509.259L500.154 123V127.211C500.154 128.207 501.377 129.015 502.885 129.015Z" fill="#00AEEF"/>
<path d="M499.161 126.008H461.457V136.534H499.161C499.709 136.534 500.154 136.272 500.154 135.949V126.593C500.154 126.27 499.709 126.008 499.161 126.008Z" fill="#C6CACF"/>
<path d="M496.908 136.534H455.601C454.737 136.534 454.304 135.814 454.915 135.393L461.989 130.519L454.915 125.645C454.304 125.224 454.737 124.504 455.601 124.504H496.908C497.444 124.504 497.878 124.803 497.878 125.172V135.866C497.878 136.235 497.444 136.534 496.908 136.534Z" fill="#00AEEF"/>
<path d="M476.377 128.455H472.619C472.101 128.455 471.68 128.733 471.68 129.076V132.8C471.68 133.142 472.101 133.42 472.619 133.42C473.138 133.42 473.559 133.142 473.559 132.8V131.558H476.377C476.896 131.558 477.317 131.28 477.317 130.938V129.076C477.317 128.733 476.896 128.455 476.377 128.455ZM475.438 130.317H473.559V129.696H475.438V130.317Z" fill="white"/>
<path d="M481.074 128.455H479.195C478.677 128.455 478.256 128.733 478.256 129.076V132.8C478.256 133.142 478.677 133.42 479.195 133.42H482.953C483.472 133.42 483.893 133.142 483.893 132.8V130.317C483.893 129.29 482.629 128.455 481.074 128.455ZM482.014 132.179H480.135V129.696H481.074C481.592 129.696 482.014 129.975 482.014 130.317L482.014 132.179Z" fill="white"/>
<path d="M489.53 128.455H485.772C485.253 128.455 484.832 128.733 484.832 129.076V132.8C484.832 133.142 485.253 133.42 485.772 133.42C486.29 133.42 486.711 133.142 486.711 132.8V131.558H488.59C489.109 131.558 489.53 131.28 489.53 130.938C489.53 130.595 489.109 130.317 488.59 130.317H486.711V129.696H489.53C490.048 129.696 490.469 129.418 490.469 129.076C490.469 128.733 490.048 128.455 489.53 128.455Z" fill="white"/>
<path d="M499.229 157.587H471.487C470.977 157.587 470.563 157.295 470.563 156.936V138.69C470.563 138.33 470.977 138.038 471.487 138.038H499.229C499.74 138.038 500.154 138.33 500.154 138.69V156.936C500.154 157.296 499.74 157.587 499.229 157.587Z" fill="#C6CACF"/>
<path d="M472.412 156.284V138.038H471.487C470.977 138.038 470.563 138.33 470.563 138.69V156.936C470.563 157.296 470.977 157.587 471.487 157.587H499.229C499.74 157.587 500.154 157.295 500.154 156.936V156.284H472.412Z" fill="#00AEEF"/>
<path d="M497.002 154.579H487.372C486.888 154.579 486.496 154.291 486.496 153.935V146.201C486.496 145.845 486.888 145.557 487.372 145.557H497.002C497.486 145.557 497.878 145.845 497.878 146.201V153.935C497.878 154.291 497.486 154.579 497.002 154.579Z" fill="black"/>
<path d="M495.601 147.061H488.772V153.076H495.601V147.061Z" fill="#00AEEF"/>
<path d="M497.046 142.108H486.712C486.193 142.108 485.772 141.831 485.772 141.488C485.772 141.145 486.193 140.867 486.712 140.867H497.046C497.565 140.867 497.985 141.145 497.985 141.488C497.985 141.831 497.565 142.108 497.046 142.108Z" fill="#EF0000"/>
<path d="M497.046 144.591H486.712C486.193 144.591 485.772 144.313 485.772 143.97C485.772 143.627 486.193 143.35 486.712 143.35H497.046C497.565 143.35 497.985 143.628 497.985 143.97C497.985 144.313 497.565 144.591 497.046 144.591Z" fill="#EF0000"/>
<path d="M483.893 142.108H474.498C473.979 142.108 473.558 141.831 473.558 141.488C473.558 141.145 473.979 140.867 474.498 140.867H483.893C484.412 140.867 484.832 141.145 484.832 141.488C484.832 141.831 484.411 142.108 483.893 142.108Z" fill="#EF0000"/>
<path d="M483.892 144.591H474.498C473.979 144.591 473.558 144.313 473.558 143.97C473.558 143.627 473.979 143.35 474.498 143.35H483.892C484.411 143.35 484.832 143.628 484.832 143.97C484.832 144.313 484.411 144.591 483.892 144.591Z" fill="#EF0000"/>
<path d="M483.892 147.074H474.498C473.979 147.074 473.558 146.796 473.558 146.454C473.558 146.111 473.979 145.833 474.498 145.833H483.892C484.411 145.833 484.832 146.111 484.832 146.454C484.832 146.796 484.411 147.074 483.892 147.074Z" fill="#EF0000"/>
<path d="M483.892 149.556H474.498C473.979 149.556 473.558 149.278 473.558 148.935C473.558 148.592 473.979 148.314 474.498 148.314H483.892C484.411 148.314 484.832 148.592 484.832 148.935C484.832 149.278 484.411 149.556 483.892 149.556Z" fill="#EF0000"/>
<path d="M483.892 152.039H474.498C473.979 152.039 473.558 151.761 473.558 151.418C473.558 151.076 473.979 150.798 474.498 150.798H483.892C484.411 150.798 484.832 151.076 484.832 151.418C484.832 151.761 484.411 152.039 483.892 152.039Z" fill="#EF0000"/>
<path d="M483.892 154.521H474.498C473.979 154.521 473.558 154.243 473.558 153.9C473.558 153.557 473.979 153.279 474.498 153.279H483.892C484.411 153.279 484.832 153.557 484.832 153.9C484.832 154.243 484.411 154.521 483.892 154.521Z" fill="#EF0000"/>
<path d="M331.71 156.836V160.595H384.064V156.836L358.007 154.58L331.71 156.836Z" fill="#EEEEEE"/>
<path d="M331.71 153.826V157.585H384.064V153.826L358.007 151.57L331.71 153.826Z" fill="#DCDCDC"/>
<path d="M384.065 126.008V153.076H380.65L372.683 139.542L380.65 126.008H384.065Z" fill="#EEEEEE"/>
<path d="M381.788 126.008V128.295L373.54 139.542L381.788 150.788V153.076H331.71V126.008H381.788Z" fill="white"/>
<path d="M333.988 127.511V144.666L357.889 147.06L381.789 144.666V127.511H333.988Z" fill="#29B71C"/>
<path d="M359.026 130.519V136.534C360.283 136.534 361.302 135.187 361.302 133.526C361.302 131.865 360.283 130.519 359.026 130.519Z" fill="#FE5F1A"/>
<path d="M358.116 130.519C358.618 130.519 359.026 131.865 359.026 133.526C359.026 135.187 358.618 136.534 358.116 136.534C356.104 136.534 354.474 135.187 354.474 133.526C354.474 131.865 356.104 130.519 358.116 130.519Z" fill="#00AEEF"/>
<path d="M381.788 148.565L368.131 141.046L378.284 142.246L381.789 144.671L381.788 148.565Z" fill="#027372"/>
<path d="M376.266 142.676L369.772 139.542L361.406 142.676L356.75 145.77L367.49 151.572H381.788V147.404L376.266 142.676Z" fill="#E53935"/>
<path d="M379.512 142.442L377.604 142.549L370.407 140.324V136.534L379.512 142.442Z" fill="#EEEEEE"/>
<path d="M361.302 142.549L368.991 136.534L374.959 142.549L361.302 142.549Z" fill="white"/>
<path d="M365.854 151.572H361.692L345.368 141.046L354.409 142.297L365.854 151.572Z" fill="#027372"/>
<path d="M351.483 142.676L361.303 151.572H333.988V145.102L337.438 142.676L345.345 139.542L351.483 142.676Z" fill="#00AEEF"/>
<path d="M354.473 142.442L352.565 142.549L345.368 140.324V136.534L354.473 142.442Z" fill="#EEEEEE"/>
<path d="M336.264 142.549L345.234 136.534L352.198 142.549L336.264 142.549Z" fill="white"/>
<path d="M385.433 159.091C384.931 159.091 384.525 159.379 384.525 159.735V160.809H331.251V159.735C331.251 159.379 330.844 159.091 330.343 159.091C329.841 159.091 329.434 159.379 329.434 159.735V161.454C329.434 161.81 329.841 162.098 330.343 162.098H385.433C385.934 162.098 386.341 161.81 386.341 161.454V159.735C386.341 159.379 385.934 159.091 385.433 159.091Z" fill="#00AEEF"/>
<path d="M385.433 154.58C384.931 154.58 384.525 154.869 384.525 155.225V156.299H331.251V155.225C331.251 154.869 330.844 154.58 330.343 154.58C329.841 154.58 329.434 154.869 329.434 155.225V156.943C329.434 157.299 329.841 157.588 330.343 157.588H385.433C385.934 157.588 386.341 157.299 386.341 156.943V155.225C386.341 154.869 385.934 154.58 385.433 154.58Z" fill="#00AEEF"/>
<path d="M385.433 124.504H330.343C329.841 124.504 329.434 124.777 329.434 125.114V153.97C329.434 154.307 329.841 154.58 330.343 154.58H385.433C385.934 154.58 386.341 154.307 386.341 153.97V125.114C386.341 124.777 385.934 124.504 385.433 124.504ZM384.525 153.36H331.251V125.723H384.525V153.36Z" fill="#00AEEF"/>
<path d="M363.579 133.526C363.579 131.868 361.026 130.519 357.888 130.519C354.75 130.519 352.198 131.868 352.198 133.526C352.198 135.184 354.75 136.534 357.888 136.534C361.026 136.534 363.579 135.184 363.579 133.526ZM353.995 133.526C353.995 132.391 355.741 131.468 357.888 131.468C360.035 131.468 361.782 132.391 361.782 133.526C361.782 134.661 360.035 135.584 357.888 135.584C355.741 135.584 353.995 134.661 353.995 133.526Z" fill="black"/>
<path d="M331.71 150.954C331.71 151.295 332.139 151.572 332.668 151.572H383.107C383.636 151.572 384.064 151.295 384.064 150.954V126.626C384.064 126.285 383.636 126.008 383.107 126.008H332.668C332.139 126.008 331.71 126.285 331.71 126.626V131.574C331.71 131.916 332.139 132.193 332.668 132.193C333.197 132.193 333.626 131.916 333.626 131.574V127.245H382.149V142.863L371.174 135.776C370.8 135.534 370.194 135.534 369.82 135.776L357.887 143.482L345.955 135.775C345.58 135.534 344.974 135.534 344.6 135.775L333.626 142.863V134.048C333.626 133.707 333.197 133.43 332.668 133.43C332.139 133.43 331.71 133.707 331.71 134.048V150.954ZM370.497 137.088L376.964 141.264H364.03L370.497 137.088ZM345.278 137.088L351.745 141.264H338.811L345.278 137.088ZM336.896 142.501H353.66L357.209 144.793C357.211 144.795 363.595 148.917 363.595 148.917C363.782 149.038 364.027 149.098 364.272 149.098C364.517 149.098 364.762 149.038 364.949 148.917C365.323 148.675 365.323 148.284 364.949 148.042L359.242 144.356L362.115 142.501H378.879L382.149 144.613V150.335H333.626V144.613L336.896 142.501Z" fill="black"/>
<path fill-rule="evenodd" clip-rule="evenodd" d="M304.549 130.567C304.851 130.567 305.099 130.832 305.099 131.155V142.208H304V131.155C304 130.828 304.246 130.567 304.549 130.567Z" fill="#FFFFFE"/>
<defs>
<linearGradient id="paint0_linear_0_1" x1="423" y1="64" x2="408" y2="64" gradientUnits="userSpaceOnUse">
<stop offset="0.432692" stop-color="#FF0000"/>
<stop offset="0.475962"/>
<stop offset="0.476062" stop-color="#00B3FF"/>
</linearGradient>
</defs>
</svg>
