<svg width="345" height="145" viewBox="0 0 345 145" fill="none" xmlns="http://www.w3.org/2000/svg">
<path d="M47.7827 71L47.2778 69.48H44.4634L43.9424 71H42.5029L45.0649 63.5771H46.7515L49.3672 71H47.7827ZM46.1553 66.1392C46.0264 65.7489 45.9279 65.4069 45.8599 65.1133H45.8491C45.731 65.5537 45.6343 65.8957 45.5591 66.1392L44.8018 68.3467H46.9126L46.1553 66.1392ZM53.2183 71C53.2183 70.6885 53.2397 70.3841 53.2827 70.0869H53.2612C52.9354 70.778 52.3607 71.1235 51.5371 71.1235C50.8854 71.1235 50.3859 70.8908 50.0386 70.4253C49.7091 69.9813 49.5444 69.3582 49.5444 68.5562C49.5444 67.6216 49.8005 66.8714 50.3125 66.3057C50.8353 65.7256 51.5443 65.4355 52.4395 65.4355C52.6865 65.4355 52.9175 65.4499 53.1323 65.4785V62.9702H54.5288V71H53.2183ZM53.1323 66.6333C52.8602 66.576 52.6131 66.5474 52.3911 66.5474C51.4744 66.5474 51.0161 67.1668 51.0161 68.4058C51.0161 69.437 51.3294 69.9526 51.9561 69.9526C52.3105 69.9526 52.5988 69.7718 52.8208 69.4102C53.0285 69.07 53.1323 68.6546 53.1323 68.1641V66.6333ZM61.0117 68.1641C61.0117 69.0199 60.7503 69.7253 60.2275 70.2803C59.7012 70.8317 59.0316 71.1074 58.2188 71.1074C56.5107 71.1074 55.6567 70.1908 55.6567 68.3574C55.6567 67.5016 55.9146 66.7998 56.4302 66.252C56.953 65.7005 57.6261 65.4248 58.4497 65.4248C59.2554 65.4248 59.8784 65.645 60.3188 66.0854C60.7808 66.5545 61.0117 67.2474 61.0117 68.1641ZM59.5615 68.2393C59.5615 67.1543 59.1587 66.6118 58.353 66.6118C58.0093 66.6118 57.7228 66.7389 57.4937 66.9932C57.2358 67.2832 57.1069 67.6914 57.1069 68.2178C57.1069 69.3457 57.5151 69.9097 58.3315 69.9097C58.6932 69.9097 58.985 69.77 59.207 69.4907C59.4434 69.1935 59.5615 68.7764 59.5615 68.2393ZM67.0864 67.9868C67.0864 68.9285 66.8286 69.6805 66.313 70.2427C65.7795 70.8192 65.0508 71.1074 64.127 71.1074C63.3965 71.1074 62.7179 71.0197 62.0913 70.8442V62.9702H63.4985V65.3228C63.4985 65.731 63.4699 66.0872 63.4126 66.3916H63.4233C63.7205 65.7471 64.2702 65.4248 65.0723 65.4248C65.7204 65.4248 66.2199 65.6486 66.5708 66.0962C66.9146 66.5402 67.0864 67.1704 67.0864 67.9868ZM65.6094 68.1265C65.6094 67.1024 65.2979 66.5903 64.6748 66.5903C64.3203 66.5903 64.0321 66.7694 63.8101 67.1274C63.6024 67.464 63.4985 67.8704 63.4985 68.3467V69.8882C63.6955 69.9562 63.9408 69.9902 64.2344 69.9902C65.151 69.9902 65.6094 69.369 65.6094 68.1265ZM72.7959 67.7451C72.7959 68.071 72.778 68.3341 72.7422 68.5347H69.3638C69.3638 69.5194 69.8669 70.0117 70.873 70.0117C71.403 70.0117 71.9312 69.9043 72.4575 69.6895L72.6079 70.7583C71.9741 70.991 71.3153 71.1074 70.6313 71.1074C68.8338 71.1074 67.9351 70.1764 67.9351 68.3145C67.9351 67.473 68.1642 66.7873 68.6226 66.2573C69.0988 65.7023 69.7344 65.4248 70.5293 65.4248C71.2884 65.4248 71.8667 65.6486 72.2642 66.0962C72.6187 66.5008 72.7959 67.0505 72.7959 67.7451ZM71.3994 67.6001C71.4209 66.8374 71.1058 66.4561 70.4541 66.4561C69.8167 66.4561 69.4569 66.8374 69.3745 67.6001H71.3994ZM80.353 71L78.7578 68.2715L77.1626 71H75.4707L77.834 67.2026L75.6157 63.5771H77.2754L78.7793 66.1499L80.2778 63.5771H81.9053L79.7192 67.1919L82.1577 71H80.353ZM89.1992 67.1597C89.1992 68.4022 88.8197 69.3672 88.0605 70.0547C87.3337 70.7135 86.349 71.043 85.1064 71.043C84.7734 71.043 84.0841 71.0251 83.0386 70.9893V63.5879C84.009 63.5485 84.8075 63.5288 85.4341 63.5288C87.9442 63.5288 89.1992 64.7391 89.1992 67.1597ZM87.6577 67.2725C87.6577 65.5788 86.8843 64.7319 85.3374 64.7319C84.9901 64.7319 84.7 64.7427 84.4673 64.7642V69.77C84.6893 69.8058 84.9507 69.8237 85.2515 69.8237C85.9819 69.8237 86.5566 69.6178 86.9756 69.2061C87.4303 68.762 87.6577 68.1175 87.6577 67.2725Z" fill="#FF0040"/>
<path d="M44.689 88.7964V90.6978H47.0898V91.874H44.689V95H43.2603V87.5771H47.2295V88.7964H44.689ZM49.8184 87.8726C49.8184 88.1053 49.7324 88.304 49.5605 88.4688C49.3851 88.637 49.1774 88.7212 48.9375 88.7212C48.694 88.7212 48.4881 88.6388 48.3198 88.4741C48.1515 88.3094 48.0674 88.1089 48.0674 87.8726C48.0674 87.6362 48.1515 87.4339 48.3198 87.2656C48.4881 87.0973 48.694 87.0132 48.9375 87.0132C49.181 87.0132 49.3887 87.0955 49.5605 87.2603C49.7324 87.4285 49.8184 87.6326 49.8184 87.8726ZM48.2339 95V89.5322H49.6411V95H48.2339ZM56.1133 95.5854C56.1133 96.1906 55.8394 96.6991 55.2915 97.1108C54.7257 97.5441 53.9989 97.7607 53.1108 97.7607C52.3768 97.7607 51.8057 97.6229 51.3975 97.3472C50.9785 97.0643 50.769 96.6597 50.769 96.1333C50.769 95.5425 51.0519 95.0949 51.6177 94.7905C51.256 94.6222 51.0752 94.3429 51.0752 93.9526C51.0752 93.4907 51.2918 93.1649 51.7251 92.9751C51.1844 92.6815 50.9141 92.1838 50.9141 91.4819C50.9141 90.8983 51.1164 90.4149 51.521 90.0317C51.9578 89.62 52.5576 89.4141 53.3203 89.4141C53.6032 89.4141 53.9004 89.4535 54.2119 89.5322H56.0703V90.6333H55.3237C55.5063 90.8052 55.5977 91.0361 55.5977 91.3262C55.5977 91.9277 55.4025 92.4022 55.0122 92.7495C54.6004 93.1147 54.015 93.2974 53.2559 93.2974C53.1055 93.2974 52.9622 93.2812 52.8262 93.249C52.6507 93.3278 52.563 93.446 52.563 93.6035C52.563 93.7288 52.6239 93.8148 52.7456 93.8613C52.8638 93.9043 53.0858 93.9312 53.4116 93.9419L54.2549 93.9795C55.4938 94.0225 56.1133 94.5578 56.1133 95.5854ZM54.7168 95.7681C54.7168 95.3205 54.4303 95.0859 53.8574 95.0645L52.6597 95.0322C52.3231 95.2757 52.1548 95.555 52.1548 95.8701C52.1548 96.1208 52.2604 96.3195 52.4717 96.4663C52.6829 96.6095 52.9658 96.6812 53.3203 96.6812C53.7643 96.6812 54.1117 96.5934 54.3623 96.418C54.5986 96.2533 54.7168 96.0366 54.7168 95.7681ZM54.2549 91.4014C54.2549 90.7568 53.9255 90.4346 53.2666 90.4346C52.9551 90.4346 52.7062 90.5259 52.52 90.7085C52.341 90.884 52.2515 91.1113 52.2515 91.3906C52.2515 92.0208 52.5898 92.3359 53.2666 92.3359C53.9255 92.3359 54.2549 92.0244 54.2549 91.4014ZM63.7939 95V91.5464C63.7939 90.9162 63.5773 90.6011 63.144 90.6011C62.8182 90.6011 62.5317 90.764 62.2847 91.0898C62.0197 91.4372 61.8872 91.8687 61.8872 92.3843V95H60.5015V91.5356C60.5015 90.9126 60.2866 90.6011 59.8569 90.6011C59.5239 90.6011 59.2339 90.7694 58.9868 91.106C58.729 91.4569 58.6001 91.883 58.6001 92.3843V95H57.1929V89.5322H58.5249C58.5249 89.876 58.5034 90.2018 58.4604 90.5098L58.4712 90.5205C58.8293 89.79 59.429 89.4248 60.2705 89.4248C61.0941 89.4248 61.5972 89.7865 61.7798 90.5098C62.1271 89.7865 62.7215 89.4248 63.563 89.4248C64.6551 89.4248 65.2012 90.0299 65.2012 91.2402V95H63.7939ZM69.6216 95C69.6216 94.624 69.6395 94.3161 69.6753 94.0762L69.6646 94.0654C69.3674 94.7601 68.7855 95.1074 67.9189 95.1074C67.4355 95.1074 67.0506 94.9588 66.7642 94.6616C66.492 94.3752 66.356 94.0046 66.356 93.5498C66.356 92.916 66.6424 92.4362 67.2153 92.1104C67.7596 91.7988 68.5259 91.6431 69.5142 91.6431V91.4443C69.5142 91.1077 69.4408 90.866 69.2939 90.7192C69.1436 90.5653 68.8911 90.4883 68.5366 90.4883C68.0138 90.4883 67.4624 90.6136 66.8823 90.8643L66.6514 89.7847C67.2744 89.5376 67.9637 89.4141 68.7192 89.4141C69.5321 89.4141 70.1104 89.5824 70.4541 89.9189C70.7656 90.2197 70.9214 90.6924 70.9214 91.3369V93.5928C70.9214 94.1299 70.9357 94.599 70.9644 95H69.6216ZM69.5142 92.5669C68.311 92.5669 67.7095 92.8426 67.7095 93.394C67.7095 93.5767 67.7686 93.7271 67.8867 93.8452C68.0085 93.9705 68.1696 94.0332 68.3701 94.0332C68.6995 94.0332 68.9753 93.8953 69.1973 93.6196C69.4085 93.3582 69.5142 93.0557 69.5142 92.7119V92.5669Z" fill="#FF0040"/>
<path d="M181.492 93H112.492V92H181.492V93Z" fill="#00AEEF"/>
<path d="M181.492 69H112.492V68H181.492V69Z" fill="#00AEEF"/>
<path d="M160.931 30H289.909C291.089 30 292.257 30.2324 293.347 30.6838C294.436 31.1352 295.427 31.7969 296.261 32.6311C297.095 33.4652 297.757 34.4555 298.208 35.5454C298.66 36.6352 298.892 37.8033 298.892 38.983V55.152H160.931C157.596 55.152 154.397 53.827 152.038 51.4686C149.68 49.1101 148.355 45.9114 148.355 42.576C148.355 39.2406 149.68 36.0419 152.038 33.6834C154.397 31.325 157.596 30 160.931 30Z" fill="#00AEEF"/>
<path d="M170.528 45.1318C169.488 45.1318 168.704 44.8633 168.177 44.3262C167.654 43.7842 167.393 43.0664 167.393 42.1729V39.375C167.393 38.833 167.388 38.3545 167.378 37.9395C167.374 37.5195 167.352 37.1997 167.312 36.98H168.96V41.9238C168.96 42.5146 169.068 42.9883 169.283 43.3447C169.502 43.7012 169.917 43.8794 170.528 43.8794C171.124 43.8794 171.529 43.7012 171.744 43.3447C171.958 42.9883 172.066 42.5146 172.066 41.9238V36.98H173.714C173.68 37.1997 173.658 37.5122 173.648 37.9175C173.638 38.3179 173.633 38.8037 173.633 39.375V42.1729C173.633 43.0664 173.372 43.7842 172.85 44.3262C172.332 44.8633 171.558 45.1318 170.528 45.1318ZM175.391 45V43.8794H176.709V38.1079H175.391V36.98H179.595V38.1079H178.277V43.8794H179.595V45H175.391ZM184.188 42.0923V40.9937H188.223V42.0923H184.188ZM196.031 45.1318C194.991 45.1318 194.207 44.8633 193.68 44.3262C193.157 43.7842 192.896 43.0664 192.896 42.1729V39.375C192.896 38.833 192.891 38.3545 192.881 37.9395C192.876 37.5195 192.854 37.1997 192.815 36.98H194.463V41.9238C194.463 42.5146 194.571 42.9883 194.786 43.3447C195.005 43.7012 195.42 43.8794 196.031 43.8794C196.626 43.8794 197.032 43.7012 197.247 43.3447C197.461 42.9883 197.569 42.5146 197.569 41.9238V36.98H199.217C199.183 37.1997 199.161 37.5122 199.151 37.9175C199.141 38.3179 199.136 38.8037 199.136 39.375V42.1729C199.136 43.0664 198.875 43.7842 198.353 44.3262C197.835 44.8633 197.061 45.1318 196.031 45.1318ZM205.618 45L201.912 38.9062C201.683 38.5254 201.49 38.2227 201.333 37.998C201.182 37.7734 201.05 37.5854 200.938 37.4341C200.826 37.2827 200.711 37.1313 200.594 36.98H202.381L206.131 43.1543C206.365 43.54 206.553 43.8403 206.695 44.0552C206.836 44.27 206.956 44.4434 207.054 44.5752C207.156 44.707 207.264 44.8486 207.376 45H205.618ZM200.345 45C200.462 44.8438 200.572 44.6973 200.674 44.5605C200.777 44.4238 200.896 44.248 201.033 44.0332C201.175 43.8184 201.358 43.5181 201.583 43.1323L203.501 39.7998L204.029 41.6602L202.103 45H200.345ZM204.3 41.6602L203.78 39.7998L205.398 36.98H207.186C207.01 37.1899 206.827 37.4292 206.636 37.6978C206.451 37.9663 206.204 38.3691 205.896 38.9062L204.3 41.6602ZM211.316 49.5264C211.165 49.4287 211.036 49.2603 210.928 49.021C210.816 48.7817 210.745 48.5449 210.716 48.3105C211.355 48.1006 211.841 47.8418 212.173 47.5342C212.505 47.2266 212.732 46.8359 212.854 46.3623C212.977 45.8887 213.038 45.3003 213.038 44.5972C213.038 43.7964 213.074 43.1665 213.147 42.7075C213.221 42.2437 213.372 41.8481 213.602 41.521C213.802 41.2329 214.075 41.0107 214.422 40.8545C214.769 40.6982 215.132 40.6201 215.513 40.6201C215.933 40.6201 216.326 40.7153 216.692 40.9058C217.059 41.0913 217.354 41.3745 217.579 41.7554C217.808 42.1313 217.923 42.605 217.923 43.1763C217.923 43.6353 217.818 44.021 217.608 44.3335C217.398 44.646 217.125 44.8828 216.788 45.0439C216.451 45.2051 216.094 45.2856 215.718 45.2856C215.313 45.2856 214.917 45.1904 214.532 45C214.151 44.8096 213.838 44.519 213.594 44.1284L214.107 42.8247C214.19 43.2104 214.385 43.5107 214.693 43.7256C215.005 43.9355 215.315 44.0405 215.623 44.0405C215.94 44.0405 216.194 43.9697 216.385 43.8281C216.58 43.6816 216.678 43.457 216.678 43.1543C216.678 42.7393 216.568 42.4097 216.348 42.1655C216.133 41.9214 215.848 41.7993 215.491 41.7993C215.159 41.7993 214.905 41.8896 214.729 42.0703C214.554 42.2461 214.434 42.4854 214.371 42.7881C214.312 43.0859 214.283 43.4204 214.283 43.7915C214.283 44.0015 214.285 44.2188 214.29 44.4434C214.3 44.6631 214.305 44.8804 214.305 45.0952C214.305 45.9253 214.161 46.6431 213.873 47.2485C213.589 47.854 213.221 48.3472 212.767 48.728C212.312 49.1089 211.829 49.375 211.316 49.5264ZM219.073 45.0732C218.677 45.0732 218.357 45.0439 218.113 44.9854C217.874 44.9219 217.676 44.8364 217.52 44.729C217.369 44.6216 217.222 44.4946 217.081 44.3481L217.725 43.2715C217.852 43.4668 218.008 43.6035 218.194 43.6816C218.384 43.7549 218.677 43.7915 219.073 43.7915H219.219V45.0732H219.073ZM218.934 45.0732V43.7915H219.08C219.485 43.7915 219.783 43.7256 219.974 43.5938C220.169 43.457 220.293 43.3179 220.347 43.1763C220.406 43.0298 220.435 42.9419 220.435 42.9126C220.435 42.8735 220.425 42.7905 220.406 42.6636C220.386 42.5366 220.364 42.4121 220.34 42.29C220.32 42.1631 220.311 42.0874 220.311 42.063C220.447 41.9946 220.657 41.9287 220.94 41.8652C221.229 41.7969 221.48 41.7603 221.695 41.7554C221.832 42.3071 221.983 42.7319 222.149 43.0298C222.315 43.3228 222.496 43.5229 222.691 43.6304C222.891 43.7378 223.104 43.7915 223.328 43.7915H223.475V45.0732H223.328C222.913 45.0732 222.522 44.9927 222.156 44.8315C221.79 44.6655 221.48 44.3774 221.226 43.9673C221.045 44.3579 220.757 44.6411 220.362 44.8169C219.971 44.9878 219.544 45.0732 219.08 45.0732H218.934ZM222.002 47.6953C221.744 47.5098 221.502 47.3145 221.277 47.1094C221.058 46.9043 220.933 46.7676 220.904 46.6992L221.841 45.6665L223.035 46.6479C222.835 46.9214 222.625 47.1582 222.405 47.3584C222.19 47.5635 222.056 47.6758 222.002 47.6953ZM220.354 47.8198C220.096 47.6343 219.856 47.439 219.637 47.2339C219.417 47.0337 219.29 46.897 219.256 46.8237L220.193 45.791L221.387 46.7798C221.114 47.1265 220.887 47.3828 220.706 47.5488C220.525 47.7148 220.408 47.8052 220.354 47.8198ZM227.005 45.3003C226.609 45.3003 226.27 45.2319 225.987 45.0952C225.708 44.9634 225.477 44.8071 225.291 44.6265C225.11 44.4409 224.966 44.2749 224.859 44.1284L225.372 42.8247C225.43 43.0835 225.542 43.3032 225.708 43.4839C225.879 43.6646 226.072 43.8037 226.287 43.9014C226.502 43.9941 226.702 44.0405 226.888 44.0405C227.205 44.0405 227.459 43.9746 227.649 43.8428C227.845 43.7109 227.942 43.4814 227.942 43.1543C227.942 42.7002 227.825 42.3608 227.591 42.1362C227.356 41.9116 227.078 41.7993 226.756 41.7993C226.424 41.7993 226.17 41.8896 225.994 42.0703C225.818 42.2461 225.699 42.4854 225.635 42.7881C225.577 43.0859 225.547 43.4204 225.547 43.7915C225.44 44.2896 225.198 44.6289 224.822 44.8096C224.451 44.9902 223.958 45.0781 223.343 45.0732C223.323 45.0732 223.299 45.0732 223.27 45.0732C223.235 45.0732 223.206 45.0732 223.182 45.0732V43.7915C223.206 43.7915 223.23 43.7915 223.255 43.7915C223.274 43.7915 223.299 43.7915 223.328 43.7915C223.748 43.7915 224.026 43.7524 224.163 43.6743C224.3 43.5913 224.368 43.4985 224.368 43.396C224.368 43.3569 224.368 43.3203 224.368 43.2861C224.368 43.2471 224.371 43.1958 224.375 43.1323C224.4 42.9321 224.432 42.7246 224.471 42.5098C224.515 42.29 224.59 42.0679 224.698 41.8433C224.903 41.394 225.206 41.0791 225.606 40.8984C226.006 40.7129 226.397 40.6201 226.778 40.6201C227.232 40.6201 227.64 40.7227 228.001 40.9277C228.367 41.1328 228.655 41.4258 228.865 41.8066C229.08 42.1875 229.188 42.644 229.188 43.1763C229.188 43.645 229.078 44.0381 228.858 44.3555C228.638 44.668 228.36 44.9023 228.023 45.0586C227.691 45.2197 227.352 45.3003 227.005 45.3003ZM230.484 45.0732C230.083 45.0732 229.761 45.0439 229.517 44.9854C229.273 44.9219 229.073 44.8364 228.917 44.729C228.765 44.6216 228.619 44.4946 228.477 44.3481L229.122 43.2715C229.249 43.4668 229.407 43.6035 229.598 43.6816C229.788 43.7549 230.083 43.7915 230.484 43.7915H230.63V45.0732H230.484ZM235.486 45.1831C234.866 45.1831 234.305 45.1221 233.802 45C233.304 44.8828 232.801 44.6973 232.293 44.4434C231.839 44.7412 231.468 44.9219 231.18 44.9854C230.896 45.0439 230.679 45.0732 230.528 45.0732H230.345V43.7915H230.499C230.953 43.7915 231.302 43.6475 231.546 43.3594C231.512 43.0127 231.478 42.7588 231.443 42.5977C231.414 42.4316 231.373 42.2266 231.319 41.9824C231.465 41.8457 231.651 41.7212 231.875 41.6089C232.105 41.4966 232.332 41.4136 232.557 41.3599C232.581 41.4771 232.601 41.6016 232.615 41.7334C232.635 41.8604 232.654 42.0044 232.674 42.1655C232.986 41.9067 233.338 41.6553 233.729 41.4111C234.119 41.167 234.529 40.9668 234.959 40.8105C235.389 40.6494 235.813 40.5688 236.233 40.5688C236.78 40.5688 237.227 40.6836 237.574 40.9131C237.925 41.1377 238.187 41.4233 238.357 41.77C238.528 42.1118 238.614 42.4585 238.614 42.8101C238.614 43.0981 238.553 43.3716 238.431 43.6304C238.631 43.7378 238.956 43.7915 239.405 43.7915H239.551V45.0732H239.405C239 45.0732 238.653 45.0269 238.365 44.9341C238.082 44.8364 237.84 44.7095 237.64 44.5532C237.361 44.7485 237.037 44.9023 236.666 45.0146C236.299 45.127 235.906 45.1831 235.486 45.1831ZM235.333 43.894C235.933 43.894 236.407 43.7988 236.753 43.6084C237.105 43.4131 237.281 43.1494 237.281 42.8174C237.281 42.5537 237.173 42.3242 236.958 42.1289C236.744 41.9336 236.424 41.8359 235.999 41.8359C235.711 41.8359 235.416 41.897 235.113 42.019C234.81 42.1411 234.52 42.29 234.241 42.4658C233.963 42.6416 233.714 42.8174 233.494 42.9932C233.274 43.1689 233.106 43.313 232.989 43.4253C233.292 43.5425 233.638 43.6499 234.029 43.7476C234.424 43.8452 234.859 43.894 235.333 43.894ZM239.266 45.0732V43.7915H239.412C239.817 43.7915 240.115 43.7256 240.306 43.5938C240.501 43.457 240.625 43.3179 240.679 43.1763C240.738 43.0298 240.767 42.9419 240.767 42.9126C240.767 42.8735 240.757 42.7905 240.738 42.6636C240.718 42.5366 240.696 42.4121 240.672 42.29C240.652 42.1631 240.643 42.0874 240.643 42.063C240.779 41.9946 240.989 41.9287 241.272 41.8652C241.561 41.7969 241.812 41.7603 242.027 41.7554C242.164 42.3071 242.315 42.7319 242.481 43.0298C242.647 43.3228 242.828 43.5229 243.023 43.6304C243.223 43.7378 243.436 43.7915 243.66 43.7915H243.807V45.0732H243.66C243.245 45.0732 242.854 44.9927 242.488 44.8315C242.122 44.6655 241.812 44.3774 241.558 43.9673C241.377 44.3579 241.089 44.6411 240.694 44.8169C240.303 44.9878 239.876 45.0732 239.412 45.0732H239.266ZM241.91 40.979C241.651 40.7935 241.409 40.5981 241.185 40.3931C240.965 40.188 240.84 40.0513 240.811 39.9829L241.749 38.9502L242.942 39.9316C242.742 40.2051 242.532 40.4443 242.312 40.6494C242.098 40.8496 241.963 40.9595 241.91 40.979ZM240.262 41.1035C240.003 40.918 239.764 40.7251 239.544 40.5249C239.324 40.3198 239.197 40.1807 239.163 40.1074L240.101 39.0747L241.294 40.0635C241.021 40.4102 240.794 40.6665 240.613 40.8325C240.433 40.9985 240.315 41.0889 240.262 41.1035ZM243.514 45.0732V43.7915H243.66C244.124 43.7915 244.458 43.7476 244.664 43.6597C244.874 43.5669 245.005 43.4375 245.059 43.2715C245.118 43.1055 245.147 42.9126 245.147 42.6929C245.147 42.5269 245.14 42.2656 245.125 41.9092C245.115 41.5527 245.098 41.1548 245.074 40.7153C245.054 40.271 245.035 39.8364 245.015 39.4116C244.996 38.9819 244.976 38.606 244.957 38.2837C244.942 37.9614 244.93 37.7466 244.92 37.6392C245.003 37.4683 245.196 37.3047 245.499 37.1484C245.801 36.9922 246.106 36.9019 246.414 36.8774C246.429 36.936 246.438 37.0752 246.443 37.2949C246.448 37.5098 246.451 37.749 246.451 38.0127C246.451 38.2764 246.451 38.5083 246.451 38.7085C246.451 39.314 246.456 39.9634 246.465 40.6567C246.48 41.3501 246.487 42.1411 246.487 43.0298C246.487 43.3911 246.395 43.728 246.209 44.0405C246.023 44.3481 245.723 44.5972 245.308 44.7876C244.893 44.978 244.344 45.0732 243.66 45.0732H243.514ZM247.908 45.4614C247.913 45.3052 247.916 45.1318 247.916 44.9414C247.92 44.7461 247.923 44.541 247.923 44.3262C247.923 43.8281 247.916 43.2886 247.901 42.7075C247.886 42.1216 247.867 41.5405 247.842 40.9644C247.823 40.3882 247.801 39.8584 247.776 39.375C247.752 38.8867 247.732 38.4863 247.718 38.1738C247.703 37.8613 247.696 37.6831 247.696 37.6392C247.754 37.4487 247.884 37.2974 248.084 37.1851C248.289 37.0679 248.501 36.98 248.721 36.9214C248.941 36.8579 249.104 36.8188 249.212 36.8042C249.222 36.8628 249.229 36.9702 249.234 37.1265C249.239 37.2827 249.241 37.4365 249.241 37.5879C249.246 37.7344 249.249 37.8223 249.249 37.8516C249.249 38.0957 249.246 38.4473 249.241 38.9062C249.241 39.3604 249.236 39.873 249.227 40.4443C249.222 41.0156 249.214 41.5942 249.205 42.1802C249.195 42.7612 249.183 43.3008 249.168 43.7988C249.153 44.2969 249.139 44.7021 249.124 45.0146C249.026 45.1416 248.843 45.2417 248.575 45.3149C248.311 45.3882 248.089 45.437 247.908 45.4614ZM256.141 45.2563C255.643 45.2563 255.22 45.1636 254.874 44.978C254.532 44.7876 254.271 44.5386 254.09 44.231C253.909 43.9233 253.819 43.5913 253.819 43.2349C253.819 42.8003 253.958 42.3682 254.236 41.9385C254.515 41.5088 254.949 41.1523 255.54 40.8691L256.368 41.5796C255.923 41.814 255.594 42.063 255.379 42.3267C255.169 42.5854 255.064 42.8418 255.064 43.0957C255.064 43.4082 255.169 43.645 255.379 43.8062C255.589 43.9624 255.821 44.0405 256.075 44.0405C256.324 44.0405 256.551 43.9648 256.756 43.8135C256.961 43.6572 257.063 43.4302 257.063 43.1323C257.063 42.9468 256.998 42.749 256.866 42.5391C256.739 42.3242 256.512 42.0996 256.185 41.8652C255.862 41.6309 255.406 41.3892 254.815 41.1401C254.913 40.9399 255.059 40.7642 255.254 40.6128C255.455 40.4565 255.645 40.3564 255.826 40.3125C256.485 40.625 256.99 40.9424 257.342 41.2646C257.698 41.5869 257.942 41.9116 258.074 42.2388C258.211 42.5659 258.279 42.8979 258.279 43.2349C258.279 43.6646 258.174 44.0308 257.964 44.3335C257.759 44.6362 257.493 44.8657 257.166 45.022C256.839 45.1782 256.497 45.2563 256.141 45.2563ZM256.661 39.668C256.402 39.4824 256.16 39.2871 255.936 39.082C255.716 38.877 255.591 38.7402 255.562 38.6719L256.5 37.6392L257.693 38.6206C257.493 38.894 257.283 39.1333 257.063 39.3384C256.849 39.5386 256.714 39.6484 256.661 39.668ZM255.013 39.7925C254.754 39.6069 254.515 39.4141 254.295 39.2139C254.075 39.0088 253.948 38.8696 253.914 38.7964L254.852 37.7637L256.045 38.7524C255.772 39.0991 255.545 39.3555 255.364 39.5215C255.184 39.6875 255.066 39.7778 255.013 39.7925ZM257.796 50.1709C257.542 50.0049 257.361 49.8096 257.254 49.585C257.142 49.3604 257.063 49.1504 257.02 48.9551C257.815 48.6768 258.428 48.3252 258.858 47.9004C259.292 47.4805 259.595 47.0093 259.766 46.4868C259.937 45.9644 260.022 45.4199 260.022 44.8535C260.022 44.4336 259.991 43.999 259.927 43.5498C259.864 43.1006 259.791 42.6733 259.708 42.2681C259.849 42.1411 260.047 42.041 260.301 41.9678C260.555 41.8896 260.799 41.8481 261.033 41.8433C261.146 42.2925 261.224 42.7856 261.268 43.3228C261.316 43.855 261.341 44.3481 261.341 44.8022C261.341 45.4956 261.229 46.189 261.004 46.8823C260.784 47.5757 260.416 48.208 259.898 48.7793C259.38 49.3555 258.68 49.8193 257.796 50.1709ZM265.442 45.0732C264.749 45.0732 264.212 44.9829 263.831 44.8022C263.455 44.6216 263.189 44.3896 263.033 44.1064C262.881 43.8184 262.793 43.5181 262.769 43.2056C262.75 42.9321 262.732 42.5854 262.718 42.1655C262.703 41.7407 262.688 41.2915 262.674 40.8179C262.664 40.3394 262.654 39.8779 262.645 39.4336C262.635 38.9893 262.625 38.606 262.615 38.2837C262.61 37.9614 262.603 37.7466 262.593 37.6392C262.652 37.4731 262.779 37.3315 262.974 37.2144C263.174 37.0972 263.382 37.0044 263.597 36.936C263.816 36.8628 263.98 36.8188 264.087 36.8042C264.097 36.8628 264.104 36.9653 264.109 37.1118C264.114 37.2534 264.117 37.3975 264.117 37.5439C264.122 37.6855 264.124 37.7881 264.124 37.8516C264.124 38.252 264.119 38.7085 264.109 39.2212C264.104 39.729 264.097 40.2466 264.087 40.7739C264.078 41.2964 264.073 41.7871 264.073 42.2461C264.073 42.8027 264.161 43.2007 264.336 43.4399C264.517 43.6743 264.886 43.7915 265.442 43.7915H265.589V45.0732H265.442ZM269.244 48.6768C268.614 48.6768 268.074 48.4839 267.625 48.0981C267.181 47.7173 266.839 47.2119 266.6 46.582C266.36 45.9521 266.241 45.2686 266.241 44.5312C266.241 44.0234 266.309 43.5156 266.446 43.0078C266.587 42.4951 266.788 42.0288 267.046 41.6089C267.31 41.189 267.63 40.8521 268.006 40.5981C268.387 40.3442 268.814 40.2173 269.288 40.2173C269.766 40.2173 270.149 40.3638 270.438 40.6567C270.726 40.9448 270.87 41.2915 270.87 41.6968C270.87 42.0874 270.765 42.4805 270.555 42.876C270.35 43.2666 270.086 43.5913 269.764 43.8501C270.213 43.8208 270.572 43.8037 270.84 43.7988C271.114 43.7939 271.421 43.7915 271.763 43.7915H271.91V45.0732C271.836 45.0732 271.785 45.0732 271.756 45.0732C271.731 45.0732 271.7 45.0732 271.661 45.0732C271.128 45.0732 270.733 45.0684 270.474 45.0586C270.215 45.0488 269.959 45.0342 269.705 45.0146C270.105 45.2393 270.408 45.5542 270.613 45.9595C270.823 46.3647 270.928 46.7432 270.928 47.0947C270.928 47.3633 270.857 47.6172 270.716 47.8564C270.574 48.1006 270.376 48.2983 270.123 48.4497C269.874 48.6011 269.581 48.6768 269.244 48.6768ZM265.296 45.0732V43.7915H265.442C265.643 43.7915 265.809 43.7891 265.94 43.7842C266.072 43.7793 266.207 43.772 266.343 43.7622C266.48 43.7476 266.653 43.728 266.863 43.7036L266.775 44.978C266.526 45.0122 266.316 45.0366 266.146 45.0513C265.979 45.0659 265.745 45.0732 265.442 45.0732H265.296ZM269.178 47.5049C269.349 47.5049 269.485 47.4561 269.588 47.3584C269.695 47.2607 269.749 47.1313 269.749 46.9702C269.749 46.8726 269.69 46.7041 269.573 46.4648C269.461 46.2305 269.244 45.9692 268.921 45.6812C268.599 45.3979 268.13 45.1392 267.515 44.9048L267.449 43.6963C267.864 43.6768 268.228 43.5693 268.541 43.374C268.858 43.1787 269.104 42.9419 269.28 42.6636C269.461 42.3804 269.551 42.1069 269.551 41.8433C269.551 41.5552 269.39 41.4111 269.068 41.4111C268.858 41.4111 268.658 41.5015 268.467 41.6821C268.277 41.8579 268.108 42.0947 267.962 42.3926C267.815 42.6855 267.701 43.0078 267.618 43.3594C267.535 43.7061 267.493 44.0527 267.493 44.3994C267.493 44.9316 267.569 45.4346 267.72 45.9082C267.876 46.3818 268.082 46.7651 268.335 47.0581C268.594 47.356 268.875 47.5049 269.178 47.5049ZM275.447 45.3003C275.052 45.3003 274.712 45.2319 274.429 45.0952C274.151 44.9634 273.919 44.8071 273.733 44.6265C273.553 44.4409 273.409 44.2749 273.301 44.1284L273.814 42.8247C273.873 43.0835 273.985 43.3032 274.151 43.4839C274.322 43.6646 274.515 43.8037 274.729 43.9014C274.944 43.9941 275.145 44.0405 275.33 44.0405C275.647 44.0405 275.901 43.9746 276.092 43.8428C276.287 43.7109 276.385 43.4814 276.385 43.1543C276.385 42.7002 276.268 42.3608 276.033 42.1362C275.799 41.9116 275.521 41.7993 275.198 41.7993C274.866 41.7993 274.612 41.8896 274.437 42.0703C274.261 42.2461 274.141 42.4854 274.078 42.7881C274.019 43.0859 273.99 43.4204 273.99 43.7915C273.882 44.2896 273.641 44.6289 273.265 44.8096C272.894 44.9902 272.4 45.0781 271.785 45.0732C271.766 45.0732 271.741 45.0732 271.712 45.0732C271.678 45.0732 271.648 45.0732 271.624 45.0732V43.7915C271.648 43.7915 271.673 43.7915 271.697 43.7915C271.717 43.7915 271.741 43.7915 271.771 43.7915C272.19 43.7915 272.469 43.7524 272.605 43.6743C272.742 43.5913 272.811 43.4985 272.811 43.396C272.811 43.3569 272.811 43.3203 272.811 43.2861C272.811 43.2471 272.813 43.1958 272.818 43.1323C272.842 42.9321 272.874 42.7246 272.913 42.5098C272.957 42.29 273.033 42.0679 273.14 41.8433C273.345 41.394 273.648 41.0669 274.048 40.8618C274.449 40.6567 274.839 40.5542 275.22 40.5542C275.899 40.5542 276.47 40.7837 276.934 41.2427C277.398 41.7017 277.63 42.3462 277.63 43.1763C277.63 43.645 277.52 44.0381 277.3 44.3555C277.081 44.668 276.802 44.9023 276.465 45.0586C276.133 45.2197 275.794 45.3003 275.447 45.3003Z" fill="white"/>
<path d="M295.184 65.668H205.184V70.668H295.184V65.668Z" fill="#949598"/>
<path d="M295.184 89.668H205.184V94.668H295.184V89.668Z" fill="#949598"/>
<path d="M277.184 65.668H205.184V70.668H277.184V65.668Z" fill="#00AEEF"/>
<path d="M277.184 89.668H205.184V94.668H277.184V89.668Z" fill="#00AEEF"/>
<path d="M277.74 64.668C278.918 64.668 280.049 65.0515 280.882 65.7341C281.716 66.4167 282.184 67.3426 282.184 68.308V69.025C282.185 69.5033 282.07 69.9769 281.847 70.4189C281.624 70.8609 281.296 71.2625 280.884 71.6008C280.471 71.9391 279.981 72.2075 279.441 72.3906C278.902 72.5737 278.324 72.668 277.74 72.668C277.273 72.668 276.81 72.5925 276.378 72.446C275.947 72.2995 275.554 72.0847 275.224 71.814C274.894 71.5432 274.632 71.2219 274.454 70.8682C274.275 70.5145 274.184 70.1355 274.184 69.7528V67.5802C274.184 66.8078 274.559 66.0671 275.226 65.5209C275.892 64.9748 276.797 64.668 277.74 64.668Z" fill="black"/>
<path d="M277.74 88.668C278.918 88.668 280.049 89.0515 280.882 89.7341C281.716 90.4167 282.184 91.3426 282.184 92.308V93.025C282.185 93.5033 282.07 93.9769 281.847 94.4189C281.624 94.8609 281.296 95.2625 280.884 95.6008C280.471 95.9391 279.981 96.2075 279.441 96.3906C278.902 96.5737 278.324 96.668 277.74 96.668C277.273 96.668 276.81 96.5925 276.378 96.446C275.947 96.2995 275.554 96.0847 275.224 95.814C274.894 95.5432 274.632 95.2219 274.454 94.8682C274.275 94.5145 274.184 94.1355 274.184 93.7528V91.5802C274.184 90.8078 274.559 90.0671 275.226 89.5209C275.892 88.9748 276.797 88.668 277.74 88.668Z" fill="black"/>
<path d="M298.684 69.668C300.065 69.668 301.184 68.9964 301.184 68.168C301.184 67.3395 300.065 66.668 298.684 66.668C297.303 66.668 296.184 67.3395 296.184 68.168C296.184 68.9964 297.303 69.668 298.684 69.668Z" fill="#231F20"/>
<path d="M298.684 93.668C300.065 93.668 301.184 92.9964 301.184 92.168C301.184 91.3395 300.065 90.668 298.684 90.668C297.303 90.668 296.184 91.3395 296.184 92.168C296.184 92.9964 297.303 93.668 298.684 93.668Z" fill="#231F20"/>
<path d="M214.46 112.364C214.404 112.11 214.157 111.952 213.927 112.013C213.791 112.075 213.686 112.162 213.627 112.264C213.569 112.366 213.559 112.478 213.599 112.583L213.641 112.771L214.072 112.661L213.646 112.775C213.661 112.852 213.699 112.926 213.758 112.993C213.798 113.045 213.851 113.103 213.909 113.171C214.133 113.406 214.332 113.65 214.504 113.902C214.634 114.124 214.906 114.191 215.109 114.052C215.217 113.961 215.287 113.853 215.311 113.738C215.335 113.624 215.314 113.508 215.25 113.4C215.049 113.092 214.811 112.795 214.54 112.51C214.499 112.465 214.493 112.487 214.484 112.48L214.46 112.364Z" fill="#FFFFFE"/>
<path d="M213.034 113.758C212.978 114.012 212.731 114.17 212.501 114.109C211.947 113.968 212.176 113.284 212.478 112.953C212.703 112.719 212.901 112.475 213.073 112.222C213.204 112 213.476 111.933 213.679 112.072C213.787 112.164 213.856 112.272 213.88 112.386C213.904 112.501 213.883 112.617 213.82 112.724C213.638 113.034 213.063 113.574 213.028 113.758H213.034Z" fill="#FFFFFE"/>
<path d="M174.393 106.808H151.339C149.602 106.808 148.195 107.761 148.195 108.937V121.711C148.195 122.887 149.602 123.84 151.339 123.84H174.393C176.13 123.84 177.537 122.887 177.537 121.711V108.937C177.537 107.761 176.13 106.808 174.393 106.808Z" fill="#29B71C"/>
<path d="M172.297 121.001H153.434C153.156 121.001 152.89 120.926 152.693 120.793C152.497 120.66 152.386 120.48 152.386 120.291C152.386 120.103 152.497 119.923 152.693 119.79C152.89 119.656 153.156 119.582 153.434 119.582H172.297C172.575 119.582 172.842 119.656 173.038 119.79C173.235 119.923 173.345 120.103 173.345 120.291C173.345 120.48 173.235 120.66 173.038 120.793C172.842 120.926 172.575 121.001 172.297 121.001Z" fill="#EEEEEE"/>
<path d="M166.01 121.711C165.732 121.711 165.466 121.636 165.269 121.503C165.073 121.37 164.962 121.189 164.962 121.001V119.582C164.962 119.393 165.073 119.213 165.269 119.08C165.466 118.947 165.732 118.872 166.01 118.872C166.288 118.872 166.555 118.947 166.751 119.08C166.948 119.213 167.058 119.393 167.058 119.582V121.001C167.058 121.189 166.948 121.37 166.751 121.503C166.555 121.636 166.288 121.711 166.01 121.711Z" fill="#00AEEF"/>
<path d="M167.53 112.961L160.194 110.477C160.035 110.422 159.857 110.396 159.679 110.401C159.5 110.406 159.327 110.442 159.174 110.506C159.022 110.569 158.896 110.657 158.809 110.763C158.721 110.868 158.675 110.987 158.675 111.108V116.7C158.676 116.827 158.727 116.951 158.823 117.059C158.919 117.168 159.056 117.257 159.219 117.318C159.371 117.38 159.545 117.412 159.722 117.41C159.919 117.411 160.111 117.374 160.278 117.304L167.613 114.195C167.772 114.128 167.902 114.034 167.988 113.921C168.075 113.809 168.116 113.683 168.106 113.557C168.096 113.432 168.038 113.311 167.936 113.206C167.835 113.101 167.695 113.017 167.53 112.961Z" fill="#EEEEEE"/>
<path d="M151.339 106.808C150.505 106.808 149.705 107.032 149.116 107.431C148.526 107.831 148.195 108.372 148.195 108.937V121.711C148.195 122.275 148.526 122.817 149.116 123.216C149.705 123.615 150.505 123.84 151.339 123.84H162.866V106.808H151.339Z" fill="#E53935"/>
<path d="M153.434 119.582C153.156 119.582 152.89 119.656 152.693 119.79C152.497 119.923 152.386 120.103 152.386 120.291C152.386 120.48 152.497 120.66 152.693 120.793C152.89 120.926 153.156 121.001 153.434 121.001H162.866V119.582H153.434Z" fill="#FAFAFA"/>
<path d="M160.194 110.477C160.035 110.422 159.857 110.396 159.679 110.401C159.5 110.406 159.327 110.442 159.174 110.506C159.022 110.569 158.896 110.657 158.809 110.763C158.721 110.868 158.675 110.987 158.675 111.108V116.7C158.676 116.827 158.727 116.951 158.823 117.059C158.919 117.168 159.056 117.257 159.219 117.318C159.371 117.38 159.545 117.412 159.722 117.41C159.919 117.411 160.111 117.374 160.278 117.304L162.866 116.204V111.378L160.194 110.477Z" fill="#00AEEF"/>
<path d="M208.347 109.231H211.77L206.88 106V108.262C206.88 108.797 207.536 109.231 208.347 109.231Z" fill="#00AEEF"/>
<path d="M206.347 107.615H186.095V113.269H206.347C206.641 113.269 206.88 113.129 206.88 112.955V107.929C206.88 107.756 206.641 107.615 206.347 107.615Z" fill="#C6CACF"/>
<path d="M205.136 113.269H182.95C182.486 113.269 182.253 112.883 182.582 112.656L186.381 110.039L182.582 107.421C182.253 107.194 182.486 106.808 182.95 106.808H205.136C205.424 106.808 205.657 106.968 205.657 107.167V112.91C205.657 113.109 205.424 113.269 205.136 113.269Z" fill="#00AEEF"/>
<path d="M194.109 108.93H192.091C191.812 108.93 191.586 109.079 191.586 109.263V111.263C191.586 111.447 191.812 111.597 192.091 111.597C192.37 111.597 192.596 111.447 192.596 111.263V110.596H194.109C194.388 110.596 194.614 110.447 194.614 110.263V109.263C194.614 109.079 194.388 108.93 194.109 108.93ZM193.605 109.93H192.596V109.596H193.605V109.93Z" fill="white"/>
<path d="M196.632 108.93H195.623C195.345 108.93 195.119 109.079 195.119 109.263V111.263C195.119 111.447 195.345 111.597 195.623 111.597H197.642C197.92 111.597 198.146 111.447 198.146 111.263V109.93C198.146 109.378 197.467 108.93 196.632 108.93ZM197.137 110.93H196.128V109.596H196.632C196.911 109.596 197.137 109.746 197.137 109.93L197.137 110.93Z" fill="white"/>
<path d="M201.174 108.93H199.155C198.877 108.93 198.651 109.079 198.651 109.263V111.263C198.651 111.447 198.877 111.597 199.155 111.597C199.434 111.597 199.66 111.447 199.66 111.263V110.596H200.669C200.948 110.596 201.174 110.447 201.174 110.263C201.174 110.079 200.948 109.93 200.669 109.93H199.66V109.596H201.174C201.453 109.596 201.678 109.447 201.678 109.263C201.678 109.079 201.452 108.93 201.174 108.93Z" fill="white"/>
<path d="M206.383 124.577H191.483C191.208 124.577 190.986 124.42 190.986 124.227V114.427C190.986 114.234 191.208 114.077 191.483 114.077H206.383C206.657 114.077 206.88 114.234 206.88 114.427V124.227C206.88 124.42 206.657 124.577 206.383 124.577Z" fill="#C6CACF"/>
<path d="M191.979 123.877V114.077H191.483C191.208 114.077 190.986 114.234 190.986 114.427V124.227C190.986 124.42 191.208 124.577 191.483 124.577H206.383C206.657 124.577 206.88 124.42 206.88 124.227V123.877H191.979Z" fill="#00AEEF"/>
<path d="M205.187 122.962H200.014C199.755 122.962 199.544 122.807 199.544 122.615V118.461C199.544 118.27 199.755 118.115 200.014 118.115H205.187C205.447 118.115 205.657 118.27 205.657 118.461V122.615C205.657 122.807 205.447 122.962 205.187 122.962Z" fill="black"/>
<path d="M204.434 118.923H200.767V122.154H204.434V118.923Z" fill="#00AEEF"/>
<path d="M205.21 116.264H199.66C199.381 116.264 199.155 116.114 199.155 115.93C199.155 115.746 199.381 115.597 199.66 115.597H205.21C205.489 115.597 205.715 115.746 205.715 115.93C205.715 116.114 205.489 116.264 205.21 116.264Z" fill="#EF0000"/>
<path d="M205.21 117.597H199.66C199.381 117.597 199.155 117.448 199.155 117.264C199.155 117.08 199.381 116.93 199.66 116.93H205.21C205.489 116.93 205.715 117.08 205.715 117.264C205.715 117.448 205.489 117.597 205.21 117.597Z" fill="#EF0000"/>
<path d="M198.146 116.264H193.1C192.821 116.264 192.595 116.114 192.595 115.93C192.595 115.746 192.821 115.597 193.1 115.597H198.146C198.424 115.597 198.65 115.746 198.65 115.93C198.65 116.114 198.424 116.264 198.146 116.264Z" fill="#EF0000"/>
<path d="M198.145 117.597H193.099C192.821 117.597 192.595 117.448 192.595 117.264C192.595 117.08 192.821 116.93 193.099 116.93H198.145C198.424 116.93 198.65 117.08 198.65 117.264C198.65 117.448 198.424 117.597 198.145 117.597Z" fill="#EF0000"/>
<path d="M198.145 118.931H193.099C192.821 118.931 192.595 118.781 192.595 118.597C192.595 118.413 192.821 118.264 193.099 118.264H198.145C198.424 118.264 198.65 118.413 198.65 118.597C198.65 118.781 198.424 118.931 198.145 118.931Z" fill="#EF0000"/>
<path d="M198.145 120.264H193.099C192.821 120.264 192.595 120.115 192.595 119.931C192.595 119.747 192.821 119.597 193.099 119.597H198.145C198.424 119.597 198.65 119.747 198.65 119.931C198.65 120.115 198.424 120.264 198.145 120.264Z" fill="#EF0000"/>
<path d="M198.145 121.597H193.099C192.821 121.597 192.595 121.448 192.595 121.264C192.595 121.08 192.821 120.931 193.099 120.931H198.145C198.424 120.931 198.65 121.08 198.65 121.264C198.65 121.448 198.424 121.597 198.145 121.597Z" fill="#EF0000"/>
<path d="M198.145 122.931H193.099C192.821 122.931 192.595 122.782 192.595 122.598C192.595 122.413 192.821 122.264 193.099 122.264H198.145C198.424 122.264 198.65 122.413 198.65 122.598C198.65 122.782 198.424 122.931 198.145 122.931Z" fill="#EF0000"/>
<path d="M116.407 124.173V126.192H144.527V124.173L130.531 122.962L116.407 124.173Z" fill="#EEEEEE"/>
<path d="M116.407 122.558V124.577H144.527V122.558L130.531 121.346L116.407 122.558Z" fill="#DCDCDC"/>
<path d="M144.527 107.615V122.154H142.693L138.414 114.885L142.693 107.615H144.527Z" fill="#EEEEEE"/>
<path d="M143.305 107.615V108.844L138.874 114.885L143.305 120.925V122.154H116.407V107.615H143.305Z" fill="white"/>
<path d="M117.631 108.423V117.637L130.468 118.923L143.305 117.637V108.423H117.631Z" fill="#29B71C"/>
<path d="M131.079 110.038V113.269C131.754 113.269 132.301 112.546 132.301 111.654C132.301 110.762 131.754 110.038 131.079 110.038Z" fill="#FE5F1A"/>
<path d="M130.59 110.038C130.86 110.038 131.079 110.762 131.079 111.654C131.079 112.546 130.86 113.269 130.59 113.269C129.51 113.269 128.634 112.546 128.634 111.654C128.634 110.762 129.51 110.038 130.59 110.038Z" fill="#00AEEF"/>
<path d="M143.304 119.731L135.969 115.692L141.422 116.337L143.305 117.639L143.304 119.731Z" fill="#027372"/>
<path d="M140.339 116.568L136.85 114.885L132.357 116.568L129.856 118.23L135.625 121.346H143.305V119.108L140.339 116.568Z" fill="#E53935"/>
<path d="M142.082 116.442L141.057 116.5L137.192 115.305V113.269L142.082 116.442Z" fill="#EEEEEE"/>
<path d="M132.301 116.5L136.431 113.269L139.637 116.5L132.301 116.5Z" fill="white"/>
<path d="M134.746 121.346H132.511L123.743 115.692L128.599 116.364L134.746 121.346Z" fill="#027372"/>
<path d="M127.027 116.568L132.302 121.346H117.631V117.871L119.484 116.568L123.731 114.885L127.027 116.568Z" fill="#00AEEF"/>
<path d="M128.634 116.442L127.608 116.5L123.743 115.305V113.269L128.634 116.442Z" fill="#EEEEEE"/>
<path d="M118.853 116.5L123.671 113.269L127.411 116.5L118.853 116.5Z" fill="white"/>
<path d="M145.262 125.385C144.993 125.385 144.774 125.54 144.774 125.731V126.308H116.161V125.731C116.161 125.54 115.942 125.385 115.673 125.385C115.403 125.385 115.185 125.54 115.185 125.731V126.654C115.185 126.845 115.403 127 115.673 127H145.262C145.532 127 145.75 126.845 145.75 126.654V125.731C145.75 125.54 145.532 125.385 145.262 125.385Z" fill="#00AEEF"/>
<path d="M145.262 122.962C144.993 122.962 144.774 123.116 144.774 123.308V123.885H116.161V123.308C116.161 123.116 115.942 122.962 115.673 122.962C115.403 122.962 115.185 123.116 115.185 123.308V124.231C115.185 124.422 115.403 124.577 115.673 124.577H145.262C145.532 124.577 145.75 124.422 145.75 124.231V123.308C145.75 123.116 145.532 122.962 145.262 122.962Z" fill="#00AEEF"/>
<path d="M145.262 106.808H115.673C115.403 106.808 115.185 106.954 115.185 107.135V122.634C115.185 122.815 115.403 122.962 115.673 122.962H145.262C145.532 122.962 145.75 122.815 145.75 122.634V107.135C145.75 106.954 145.532 106.808 145.262 106.808ZM144.774 122.307H116.161V107.463H144.774V122.307Z" fill="#00AEEF"/>
<path d="M133.524 111.654C133.524 110.763 132.153 110.038 130.468 110.038C128.782 110.038 127.411 110.763 127.411 111.654C127.411 112.545 128.782 113.269 130.468 113.269C132.153 113.269 133.524 112.545 133.524 111.654ZM128.376 111.654C128.376 111.044 129.314 110.549 130.468 110.549C131.621 110.549 132.559 111.044 132.559 111.654C132.559 112.263 131.621 112.759 130.468 112.759C129.314 112.759 128.376 112.263 128.376 111.654Z" fill="black"/>
<path d="M116.407 121.014C116.407 121.197 116.638 121.346 116.922 121.346H144.013C144.297 121.346 144.527 121.197 144.527 121.014V107.948C144.527 107.764 144.297 107.615 144.013 107.615H116.922C116.638 107.615 116.407 107.764 116.407 107.948V110.605C116.407 110.789 116.638 110.937 116.922 110.937C117.206 110.937 117.436 110.789 117.436 110.605V108.28H143.498V116.668L137.604 112.862C137.403 112.732 137.077 112.732 136.876 112.862L130.467 117.001L124.058 112.862C123.857 112.732 123.532 112.732 123.331 112.862L117.436 116.668V111.934C117.436 111.75 117.206 111.602 116.922 111.602C116.638 111.602 116.407 111.75 116.407 111.934V121.014ZM137.24 113.566L140.713 115.81H133.767L137.24 113.566ZM123.695 113.566L127.168 115.81H120.221L123.695 113.566ZM119.192 116.474H128.197L130.103 117.705C130.104 117.706 133.533 119.92 133.533 119.92C133.633 119.985 133.765 120.017 133.897 120.017C134.028 120.017 134.16 119.985 134.26 119.92C134.461 119.79 134.461 119.58 134.26 119.45L131.195 117.471L132.738 116.474H141.742L143.498 117.608V120.682H117.436V117.608L119.192 116.474Z" fill="black"/>
<path fill-rule="evenodd" clip-rule="evenodd" d="M101.819 110.065C101.981 110.065 102.114 110.207 102.114 110.381V116.317H101.524V110.381C101.524 110.205 101.656 110.065 101.819 110.065Z" fill="#FFFFFE"/>
<g filter="url(#filter0_d_74_7897)">
<mask id="path-63-inside-1_74_7897" fill="white">
<path d="M307.492 27H51.4922V27H307.492V27Z"/>
</mask>
<path d="M307.492 27H51.4922V27H307.492V27Z" fill="#231F20"/>
<path d="M307.492 26.7H51.4922V27.3H307.492V26.7ZM51.4922 27.3H307.492V26.7H51.4922V27.3Z" fill="black" mask="url(#path-63-inside-1_74_7897)"/>
</g>
<g filter="url(#filter1_d_74_7897)">
<mask id="path-65-inside-2_74_7897" fill="white">
<path d="M307.492 106H51.4922V106H307.492V106Z"/>
</mask>
<path d="M307.492 106H51.4922V106H307.492V106Z" fill="#231F20"/>
<path d="M307.492 105.7H51.4922V106.3H307.492V105.7ZM51.4922 106.3H307.492V105.7H51.4922V106.3Z" fill="black" mask="url(#path-65-inside-2_74_7897)"/>
</g>
<path d="M343.492 35L343.492 96" stroke="white"/>
<path d="M0.492188 35L0.492166 96" stroke="white"/>
<defs>
<filter id="filter0_d_74_7897" x="47.4922" y="26.7" width="264" height="8.6001" filterUnits="userSpaceOnUse" color-interpolation-filters="sRGB">
<feFlood flood-opacity="0" result="BackgroundImageFix"/>
<feColorMatrix in="SourceAlpha" type="matrix" values="0 0 0 0 0 0 0 0 0 0 0 0 0 0 0 0 0 0 127 0" result="hardAlpha"/>
<feOffset dy="4"/>
<feGaussianBlur stdDeviation="2"/>
<feComposite in2="hardAlpha" operator="out"/>
<feColorMatrix type="matrix" values="0 0 0 0 0 0 0 0 0 0 0 0 0 0 0 0 0 0 0.25 0"/>
<feBlend mode="normal" in2="BackgroundImageFix" result="effect1_dropShadow_74_7897"/>
<feBlend mode="normal" in="SourceGraphic" in2="effect1_dropShadow_74_7897" result="shape"/>
</filter>
<filter id="filter1_d_74_7897" x="47.4922" y="105.7" width="264" height="8.6001" filterUnits="userSpaceOnUse" color-interpolation-filters="sRGB">
<feFlood flood-opacity="0" result="BackgroundImageFix"/>
<feColorMatrix in="SourceAlpha" type="matrix" values="0 0 0 0 0 0 0 0 0 0 0 0 0 0 0 0 0 0 127 0" result="hardAlpha"/>
<feOffset dy="4"/>
<feGaussianBlur stdDeviation="2"/>
<feComposite in2="hardAlpha" operator="out"/>
<feColorMatrix type="matrix" values="0 0 0 0 0 0 0 0 0 0 0 0 0 0 0 0 0 0 0.25 0"/>
<feBlend mode="normal" in2="BackgroundImageFix" result="effect1_dropShadow_74_7897"/>
<feBlend mode="normal" in="SourceGraphic" in2="effect1_dropShadow_74_7897" result="shape"/>
</filter>
</defs>
</svg>
