<svg width="454" height="204" viewBox="0 0 454 204" fill="none" xmlns="http://www.w3.org/2000/svg">
<path d="M201.462 43H326.541C327.72 43 328.889 43.2324 329.978 43.6838C331.068 44.1352 332.059 44.7969 332.893 45.6311C333.727 46.4652 334.389 47.4555 334.84 48.5454C335.291 49.6352 335.524 50.8033 335.524 51.983V68.152H201.462C198.126 68.152 194.928 66.827 192.569 64.4686C190.211 62.1101 188.886 58.9114 188.886 55.576C188.886 52.2406 190.211 49.0419 192.569 46.6834C194.928 44.325 198.126 43 201.462 43Z" fill="#00AEEF"/>
<text fill="#FEFEFE" xml:space="preserve" style="white-space: pre" font-family="Harmattan" font-size="20" font-weight="bold" letter-spacing="0em"><tspan x="253" y="60.1162">3D </tspan></text>
<path d="M333.208 85.668H280.208V90.668H333.208V85.668Z" fill="#949598"/>
<path d="M280.208 85.668H238.208V90.668H280.208V85.668Z" fill="#00AEEF"/>
<path d="M279.222 84C279.959 84 280.666 84.3835 281.186 85.0661C281.707 85.7488 282 86.6746 282 87.64V88.3571C282 88.8353 281.929 89.309 281.789 89.7509C281.65 90.1929 281.445 90.5945 281.187 90.9328C280.929 91.2711 280.623 91.5395 280.286 91.7226C279.949 91.9058 279.587 92 279.222 92C278.93 92 278.641 91.9246 278.371 91.778C278.102 91.6315 277.856 91.4167 277.65 91.146C277.444 90.8753 277.28 90.5539 277.169 90.2002C277.057 89.8466 277 89.4676 277 89.0849V86.9122C277 86.1398 277.234 85.3991 277.651 84.853C278.068 84.3068 278.633 84 279.222 84Z" fill="black"/>
<text fill="#FF0040" xml:space="preserve" style="white-space: pre" font-family="Bahij TheSansArabic" font-size="20" font-weight="500" letter-spacing="0em"><tspan x="77" y="93.2861">Blender </tspan></text>
<path d="M246.967 115.364C246.911 115.11 246.665 114.952 246.435 115.013C246.298 115.074 246.194 115.162 246.135 115.264C246.076 115.366 246.066 115.477 246.106 115.583L246.149 115.771L246.58 115.661L246.153 115.775C246.168 115.852 246.206 115.926 246.265 115.993C246.306 116.045 246.359 116.103 246.417 116.171C246.64 116.405 246.839 116.649 247.011 116.902C247.142 117.124 247.414 117.191 247.617 117.052C247.725 116.961 247.794 116.853 247.818 116.738C247.842 116.624 247.821 116.507 247.758 116.4C247.556 116.092 247.319 115.794 247.048 115.51C247.007 115.465 247.001 115.487 246.992 115.48L246.967 115.364Z" fill="#FFFFFE"/>
</svg>
