<svg width="454" height="504" viewBox="0 0 454 504" fill="none" xmlns="http://www.w3.org/2000/svg">
<path d="M360.88 54.7166C368.535 54.1797 374.305 47.5336 373.768 39.8722C373.23 32.2108 366.589 26.4353 358.934 26.9722C351.28 27.5091 345.51 34.1551 346.047 41.8165C346.585 49.4779 353.226 55.2535 360.88 54.7166Z" fill="white"/>
<path d="M360.845 54.2174C368.224 53.6999 373.786 47.2929 373.268 39.9071C372.75 32.5213 366.348 26.9535 358.969 27.471C351.59 27.9886 346.028 34.3956 346.546 41.7814C347.064 49.1672 353.466 54.735 360.845 54.2174Z" stroke="#707070" stroke-width="1.00045"/>
<path d="M359.845 53.2309C357.403 53.2308 355.017 52.5067 352.987 51.1502C350.957 49.7937 349.375 47.8658 348.44 45.6101C347.506 43.3544 347.261 40.8723 347.738 38.4776C348.214 36.083 349.39 33.8834 351.116 32.1569C353.431 29.8417 356.571 28.541 359.846 28.541C363.12 28.541 366.26 29.8417 368.575 32.1569C370.89 34.4721 372.191 37.6122 372.191 40.8864C372.191 44.1606 370.89 47.3007 368.575 49.6159C367.431 50.7657 366.071 51.6773 364.572 52.2978C363.074 52.9183 361.467 53.2355 359.845 53.2309ZM359.489 33.5409C357.713 33.5431 355.992 34.1589 354.617 35.2842C353.243 36.4095 352.299 37.975 351.946 39.716C351.593 41.4569 351.853 43.2664 352.681 44.838C353.508 46.4097 354.854 47.6471 356.489 48.3409C357.728 48.8626 359.082 49.0512 360.417 48.8879C361.751 48.7246 363.02 48.215 364.096 47.4098C365.173 46.6047 366.021 45.5319 366.554 44.298C367.088 43.064 367.29 41.7119 367.14 40.3759C367.076 39.8149 366.951 39.2626 366.767 38.7289C366.676 38.4674 366.571 38.2111 366.453 37.9609H365.61L365.076 38.4949C365.178 38.7035 365.269 38.9175 365.348 39.1359C365.509 39.5816 365.618 40.0443 365.673 40.5149C365.701 40.7569 365.716 41.0003 365.716 41.2439C365.714 42.6805 365.215 44.0722 364.305 45.1836C363.394 46.2949 362.128 47.0575 360.72 47.3424C359.312 47.6273 357.849 47.417 356.578 46.7471C355.307 46.0771 354.307 44.9886 353.746 43.6659C353.346 42.7187 353.187 41.6873 353.283 40.6637C353.379 39.6402 353.726 38.6562 354.295 37.7995C354.863 36.9428 355.634 36.24 356.54 35.7538C357.446 35.2676 358.458 35.0131 359.486 35.0129C359.73 35.0132 359.973 35.0275 360.215 35.0559C360.686 35.111 361.148 35.2201 361.594 35.3809C361.813 35.4599 362.027 35.551 362.235 35.6539L362.769 35.1189V34.2739C362.519 34.1554 362.262 34.0506 362 33.9599C361.467 33.7754 360.915 33.6503 360.354 33.5869C360.067 33.5558 359.778 33.5404 359.489 33.5409ZM359.489 36.6219C358.575 36.6219 357.681 36.893 356.921 37.401C356.161 37.9091 355.568 38.6311 355.219 39.4758C354.869 40.3206 354.777 41.25 354.956 42.1467C355.135 43.0434 355.575 43.8669 356.222 44.5132C356.869 45.1595 357.692 45.5994 358.589 45.7774C359.486 45.9555 360.415 45.8635 361.26 45.5132C362.104 45.1629 362.826 44.57 363.334 43.8096C363.841 43.0491 364.112 42.1552 364.111 41.2409C364.111 41.1079 364.105 40.9749 364.094 40.8409C364.083 40.7069 364.066 40.5809 364.044 40.4539C364.022 40.3269 363.998 40.2149 363.963 40.0789C363.928 39.9429 363.893 39.8329 363.852 39.7149L362.622 40.9439C362.622 40.9669 362.622 40.9889 362.628 41.0119C362.634 41.0349 362.628 41.0399 362.628 41.0519C362.628 41.0639 362.628 41.0769 362.628 41.0889V41.1319V41.1619C362.628 41.1739 362.628 41.1869 362.628 41.1989V41.2409C362.628 41.7603 362.499 42.2715 362.253 42.729C362.007 43.1865 361.652 43.5762 361.219 43.8632C360.786 44.1503 360.289 44.3258 359.772 44.3743C359.255 44.4227 358.734 44.3425 358.255 44.1409C357.5 43.8197 356.899 43.2186 356.578 42.4639C356.376 41.9853 356.296 41.4642 356.345 40.9471C356.393 40.4299 356.569 39.9328 356.856 39.5C357.143 39.0671 357.532 38.712 357.99 38.4661C358.447 38.2203 358.959 38.0914 359.478 38.0909H359.625H359.661H359.698L359.77 38.0969L360.999 36.8669C360.886 36.8269 360.763 36.7889 360.635 36.7559C360.507 36.7229 360.376 36.6949 360.259 36.6749C360.142 36.6549 360.003 36.6359 359.873 36.6249C359.743 36.6139 359.621 36.6199 359.489 36.6199V36.6219ZM359.489 39.7029C359.283 39.7021 359.079 39.7433 358.889 39.8239C358.656 39.922 358.451 40.0759 358.292 40.272C358.132 40.468 358.023 40.7003 357.975 40.9483C357.926 41.1963 357.94 41.4524 358.014 41.6941C358.087 41.9358 358.219 42.1556 358.398 42.3342C358.577 42.5128 358.797 42.6447 359.039 42.7183C359.28 42.7918 359.537 42.8048 359.785 42.7561C360.032 42.7073 360.265 42.5984 360.461 42.4388C360.656 42.2792 360.81 42.0739 360.908 41.8409C360.988 41.6511 361.03 41.447 361.029 41.2409C361.029 41.1959 361.029 41.1509 361.023 41.1089C361.017 41.0669 361.014 41.0239 361.006 40.9799C360.998 40.9359 360.989 40.8899 360.979 40.8549C360.969 40.8199 360.954 40.7689 360.942 40.7339L365.057 36.6189H366.257L368.937 33.9389H366.79V31.7969L364.11 34.4769V35.6769L360 39.7879C359.956 39.7719 359.916 39.7599 359.879 39.7509C359.842 39.7419 359.805 39.7329 359.754 39.7239C359.703 39.7149 359.669 39.7109 359.625 39.7069C359.581 39.7029 359.533 39.7029 359.489 39.7029Z" fill="#00AEEF"/>
<text fill="black" xml:space="preserve" style="white-space: pre" font-family="Harmattan" font-size="20" font-weight="bold" letter-spacing="0em"><tspan x="146" y="45.1162">Vision and next step</tspan></text>
<text fill="black" xml:space="preserve" style="white-space: pre" font-family="Harmattan" font-size="13" font-weight="bold" letter-spacing="0.09em"><tspan x="56.5003" y="109.296">I strive to master computer skills and modern technology </tspan><tspan x="47.6232" y="135.296">through continuous learning and in-depth exploration of the </tspan><tspan x="50.5114" y="161.296">latest developments in this field. My passion for computers </tspan><tspan x="51.8634" y="187.296">constantly drives me to develop my skills, keep up with the </tspan><tspan x="51.6603" y="213.296">latest technologies, and analyze technical problems to find </tspan><tspan x="39.6645" y="239.296">innovative solutions. I believe that learning never stops, and I </tspan><tspan x="52.0846" y="265.296">strive to be constantly evolving, able to adapt to the rapid </tspan><tspan x="62.0301" y="291.296">changes in the world of technology, and contributing to </tspan><tspan x="77.2568" y="317.296">enriching this field with knowledge and creativity.&#10;</tspan><tspan x="54.8478" y="343.296">The next step in my career, God willing, is to complete my </tspan><tspan x="41.5718" y="369.296">postgraduate studies by obtaining a master&#39;s degree, followed </tspan><tspan x="61.6926" y="395.296">by a doctorate. This will enable me to delve deeper into </tspan><tspan x="39.7407" y="421.296">scientific research, provide innovative technical solutions, and </tspan><tspan x="38.0034" y="447.296">contribute to the development of the academic and professional </tspan><tspan x="207.238" y="473.296">fields.</tspan></text>
</svg>
