<svg width="468" height="227" viewBox="0 0 468 227" fill="none" xmlns="http://www.w3.org/2000/svg">
<path d="M129.716 46H331.917C333.767 46 335.598 46.2309 337.306 46.6797C339.015 47.1284 340.568 47.7861 341.875 48.6152C343.183 49.4443 344.22 50.4286 344.928 51.5118C345.636 52.5951 346 53.7562 346 54.9287V71H129.716C124.487 71 119.472 69.683 115.775 67.3388C112.077 64.9946 110 61.8152 110 58.5C110 55.1848 112.077 52.0054 115.775 49.6612C119.472 47.317 124.487 46 129.716 46Z" fill="#00AEEF"/>
<text fill="white" xml:space="preserve" style="white-space: pre" font-family="Harmattan" font-size="15" font-weight="bold" letter-spacing="0em"><tspan x="129" y="62.0872">Mastering interactive content design</tspan></text>
<path d="M345.829 99.0996C347.209 99.0996 348.329 98.2042 348.329 97.0996C348.329 95.995 347.209 95.0996 345.829 95.0996C344.448 95.0996 343.329 95.995 343.329 97.0996C343.329 98.2042 344.448 99.0996 345.829 99.0996Z" fill="#231F20"/>
<path d="M345.829 129.1C347.209 129.1 348.329 128.204 348.329 127.1C348.329 125.995 347.209 125.1 345.829 125.1C344.448 125.1 343.329 125.995 343.329 127.1C343.329 128.204 344.448 129.1 345.829 129.1Z" fill="#231F20"/>
<path d="M345.829 151.1C347.209 151.1 348.329 150.204 348.329 149.1C348.329 147.995 347.209 147.1 345.829 147.1C344.448 147.1 343.329 147.995 343.329 149.1C343.329 150.204 344.448 151.1 345.829 151.1Z" fill="#231F20"/>
<path d="M345.829 171.1C347.209 171.1 348.329 170.204 348.329 169.1C348.329 167.995 347.209 167.1 345.829 167.1C344.448 167.1 343.329 167.995 343.329 169.1C343.329 170.204 344.448 171.1 345.829 171.1Z" fill="#231F20"/>
<path d="M342.329 124.1H245.329V130.1H342.329V124.1Z" fill="#949598"/>
<path d="M342.329 146.1H245.329V152.1H342.329V146.1Z" fill="#949598"/>
<path d="M342.329 166.1H245.329V172.1H342.329V166.1Z" fill="#949598"/>
<path d="M342.329 93.0996H245.329V99.0996H342.329V93.0996Z" fill="#949598"/>
<path d="M337.329 124.1H245.329V130.1H337.329V124.1Z" fill="#00AEEF"/>
<path d="M298.329 146.1H245.329V152.1H298.329V146.1Z" fill="#00AEEF"/>
<path d="M298.329 166.1H245.329V172.1H298.329V166.1Z" fill="#00AEEF"/>
<path d="M315.329 93.0996H245.329V99.0996H315.329V93.0996Z" fill="#00AEEF"/>
<path d="M334.773 123.1C336.247 123.1 337.66 123.483 338.701 124.166C339.743 124.848 340.329 125.774 340.329 126.74V127.457C340.329 127.935 340.186 128.409 339.907 128.851C339.628 129.293 339.219 129.694 338.703 130.032C338.187 130.371 337.575 130.639 336.9 130.822C336.226 131.005 335.503 131.1 334.773 131.1C334.189 131.1 333.611 131.024 333.071 130.878C332.532 130.731 332.042 130.516 331.629 130.246C331.216 129.975 330.889 129.653 330.666 129.3C330.443 128.946 330.328 128.567 330.329 128.184V126.012C330.329 125.239 330.797 124.499 331.63 123.953C332.464 123.406 333.594 123.1 334.773 123.1Z" fill="black"/>
<path d="M297.329 145.1C298.655 145.1 299.927 145.483 300.864 146.166C301.802 146.848 302.329 147.774 302.329 148.74V149.457C302.329 149.935 302.2 150.409 301.949 150.851C301.698 151.293 301.33 151.694 300.866 152.032C300.401 152.371 299.85 152.639 299.243 152.822C298.636 153.005 297.986 153.1 297.329 153.1C296.803 153.1 296.283 153.024 295.797 152.878C295.311 152.731 294.87 152.516 294.499 152.246C294.127 151.975 293.833 151.653 293.632 151.3C293.431 150.946 293.328 150.567 293.329 150.184V148.012C293.329 147.239 293.75 146.499 294.5 145.953C295.25 145.406 296.268 145.1 297.329 145.1Z" fill="black"/>
<path d="M297.329 165.1C298.655 165.1 299.927 165.483 300.864 166.166C301.802 166.848 302.329 167.774 302.329 168.74V169.457C302.329 169.935 302.2 170.409 301.949 170.851C301.698 171.293 301.33 171.694 300.866 172.032C300.401 172.371 299.85 172.639 299.243 172.822C298.636 173.005 297.986 173.1 297.329 173.1C296.803 173.1 296.283 173.024 295.797 172.878C295.311 172.731 294.87 172.516 294.499 172.246C294.127 171.975 293.833 171.653 293.632 171.3C293.431 170.946 293.328 170.567 293.329 170.184V168.012C293.329 167.239 293.75 166.499 294.5 165.953C295.25 165.406 296.268 165.1 297.329 165.1Z" fill="black"/>
<path d="M311.329 92.0996C312.655 92.0996 313.927 92.4831 314.864 93.1657C315.802 93.8484 316.329 94.7742 316.329 95.7396V96.4567C316.329 96.9349 316.2 97.4086 315.949 97.8505C315.698 98.2925 315.33 98.6941 314.866 99.0324C314.401 99.3708 313.85 99.6391 313.243 99.8223C312.636 100.005 311.986 100.1 311.329 100.1C310.803 100.1 310.283 100.024 309.797 99.8777C309.311 99.7311 308.87 99.5163 308.499 99.2456C308.127 98.9749 307.833 98.6535 307.632 98.2998C307.431 97.9462 307.328 97.5672 307.329 97.1845V95.0118C307.329 94.2394 307.75 93.4987 308.5 92.9526C309.25 92.4064 310.268 92.0996 311.329 92.0996Z" fill="black"/>
<text fill="#FF0040" xml:space="preserve" style="white-space: pre" font-family="Bahij TheSansArabic" font-size="13" font-weight="500" letter-spacing="0em"><tspan x="78" y="130.261">Microsoft PowerPoint</tspan></text>
<text fill="#FF0040" xml:space="preserve" style="white-space: pre" font-family="Bahij TheSansArabic" font-size="13" font-weight="500" letter-spacing="0em"><tspan x="78" y="149.261">Adobe Premiere Pro</tspan></text>
<text fill="#FF0040" xml:space="preserve" style="white-space: pre" font-family="Bahij TheSansArabic" font-size="13" font-weight="500" letter-spacing="0em"><tspan x="78" y="168.261">Adobe Audition</tspan></text>
<text fill="#FF0040" xml:space="preserve" style="white-space: pre" font-family="Bahij TheSansArabic" font-size="13" font-weight="500" letter-spacing="0em"><tspan x="81" y="94.261">Articulate Storyline</tspan></text>
<text fill="black" xml:space="preserve" style="white-space: pre" font-family="Bahij TheSansArabic" font-size="7" font-weight="500" letter-spacing="0em"><tspan x="82.0801" y="103.525">Quizzes &#38; Assessments</tspan></text>
<text fill="black" xml:space="preserve" style="white-space: pre" font-family="Harmattan" font-size="7" font-weight="500" letter-spacing="0em"><tspan x="78" y="177.441">Noise and distortion removal</tspan></text>
</svg>
