<svg width="454" height="204" viewBox="0 0 454 204" fill="none" xmlns="http://www.w3.org/2000/svg">
<path d="M287.97 40H413.049C414.228 40 415.396 40.2324 416.486 40.6838C417.576 41.1352 418.566 41.7969 419.4 42.6311C420.235 43.4652 420.896 44.4555 421.348 45.5454C421.799 46.6352 422.032 47.8033 422.032 48.983V65.152H287.97C284.634 65.152 281.435 63.827 279.077 61.4686C276.719 59.1101 275.394 55.9114 275.394 52.576C275.394 49.2406 276.719 46.0419 279.077 43.6834C281.435 41.325 284.634 40 287.97 40Z" fill="#00AEEF"/>
<text fill="#FEFEFE" xml:space="preserve" style="white-space: pre" font-family="Harmattan" font-size="20" font-weight="bold" letter-spacing="0em"><tspan x="342.016" y="57.1162">3D </tspan></text>
<path d="M419.715 82.668H366.715V87.668H419.715V82.668Z" fill="#949598"/>
<path d="M366.715 82.668H324.715V87.668H366.715V82.668Z" fill="#00AEEF"/>
<path d="M365.73 81C366.467 81 367.173 81.3835 367.694 82.0661C368.215 82.7488 368.508 83.6746 368.508 84.64V85.3571C368.508 85.8353 368.436 86.309 368.297 86.7509C368.158 87.1929 367.953 87.5945 367.695 87.9328C367.437 88.2711 367.131 88.5395 366.794 88.7226C366.456 88.9058 366.095 89 365.73 89C365.438 89 365.149 88.9246 364.879 88.778C364.609 88.6315 364.364 88.4167 364.158 88.146C363.952 87.8753 363.788 87.5539 363.676 87.2002C363.565 86.8466 363.508 86.4676 363.508 86.0849V83.9122C363.508 83.1398 363.742 82.3991 364.159 81.853C364.575 81.3068 365.141 81 365.73 81Z" fill="black"/>
<text fill="#FF0040" xml:space="preserve" style="white-space: pre" font-family="Bahij TheSansArabic" font-size="20" font-weight="500" letter-spacing="0em"><tspan x="163.508" y="90.2861">Blender </tspan></text>
</svg>
