<svg width="446" height="380" viewBox="0 0 446 380" fill="none" xmlns="http://www.w3.org/2000/svg">
<path d="M356.449 8.95898L353.613 11.7747L351.44 10.6956L350.187 11.7965L354.127 13.7557L358.187 9.7254L356.449 8.95898Z" fill="white"/>
<path d="M341.625 32.222C342.489 32.222 343.333 32.0597 344.051 31.7557C344.768 31.4517 345.328 31.0196 345.658 30.514C345.989 30.0085 346.075 29.4522 345.907 28.9155C345.738 28.3788 345.323 27.8858 344.712 27.4988C344.102 27.1119 343.324 26.8484 342.477 26.7416C341.63 26.6349 340.752 26.6897 339.955 26.8991C339.157 27.1085 338.475 27.4631 337.995 27.9181C337.516 28.3731 337.26 28.908 337.26 29.4552C337.26 30.189 337.72 30.8928 338.538 31.4116C339.357 31.9305 340.467 32.222 341.625 32.222Z" fill="#00AEEF"/>
<path d="M343.141 45.3305C347.468 45.3301 351.699 44.5164 355.297 42.9923C358.895 41.4682 361.699 39.3021 363.355 36.768C365.01 34.2338 365.443 31.4454 364.599 28.7553C363.754 26.0653 361.67 23.5944 358.609 21.655C355.549 19.7157 351.65 18.3951 347.406 17.8601C343.161 17.3251 338.761 17.5999 334.763 18.6496C330.765 19.6993 327.348 21.4769 324.943 23.7575C322.539 26.0381 321.256 28.7193 321.256 31.4621C321.256 33.2835 321.822 35.087 322.922 36.7697C324.022 38.4525 325.634 39.9814 327.666 41.2692C329.698 42.557 332.111 43.5785 334.766 44.2753C337.421 44.9722 340.267 45.3307 343.141 45.3305Z" fill="#00AEEF" stroke="#707070"/>
<path d="M352.354 35.0298C346.163 36.2415 339.54 36.2415 333.35 35.0298L334.621 28.5811H351.075C352.39 35.2399 352.207 34.2997 352.354 35.0298Z" fill="#00AEEF" stroke="white" stroke-width="0.6"/>
<path d="M352.244 34.4935C347.365 35.2047 342.292 35.184 337.428 34.4331C336.906 34.3516 336.449 34.1512 336.144 33.8702C335.84 33.5891 335.709 33.2469 335.777 32.9087L336.632 28.582H351.075L352.244 34.4935Z" fill="#00AEEF" stroke="white" stroke-width="0.6"/>
<path d="M359.662 26.6933L342.851 30.3992L326.04 26.6933L342.851 22.9873L359.662 26.6933Z" fill="#00AEEF" stroke="white" stroke-width="0.6"/>
<path d="M356.512 25.9987L342.851 29.0121L329.19 26.0016L342.851 22.9902L356.512 25.9987Z" fill="#00AEEF" stroke="white" stroke-width="0.6"/>
<path d="M328.963 30.8617V27.4991C328.962 27.3838 329.029 27.2723 329.151 27.1865C329.273 27.1008 329.441 27.047 329.622 27.0358L341.317 26.3134C341.506 26.306 341.693 26.3453 341.838 26.423C341.982 26.5008 342.074 26.6111 342.094 26.7307C342.113 26.8504 342.059 26.9702 341.942 27.0651C341.826 27.1601 341.656 27.2228 341.468 27.2401L330.432 27.9213V30.8626C330.432 30.9855 330.355 31.1034 330.218 31.1903C330.08 31.2772 329.894 31.326 329.701 31.326C329.507 31.326 329.321 31.2772 329.184 31.1903C329.046 31.1034 328.969 30.9855 328.969 30.8626L328.963 30.8617Z" fill="#00AEEF" stroke="white" stroke-width="0.6"/>
<path d="M331.156 31.7939V33.6493H328.234V31.7939C328.228 31.6698 328.261 31.5463 328.33 31.4303C328.402 31.3145 328.509 31.2088 328.645 31.1196C328.782 31.0303 328.945 30.9591 329.125 30.9103C329.397 30.8373 329.697 30.8182 329.986 30.8555C330.275 30.8929 330.54 30.9849 330.745 31.1195C330.882 31.2085 330.989 31.3142 331.06 31.4303C331.129 31.5463 331.162 31.6698 331.156 31.7939Z" fill="#00AEEF" stroke="white" stroke-width="0.6"/>
<path d="M331.156 31.7939V33.184C330.868 33.1841 330.583 33.1482 330.316 33.0784C330.05 33.0086 329.809 32.9063 329.605 32.7772C329.401 32.6482 329.24 32.4949 329.13 32.3263C329.019 32.1575 328.963 31.9765 328.963 31.7939C328.906 31.5101 328.951 31.2217 329.095 30.9506C329.317 30.8872 329.561 30.8601 329.804 30.8718C330.048 30.8834 330.282 30.9334 330.487 31.0172C330.692 31.101 330.861 31.216 330.978 31.3516C331.094 31.4873 331.156 31.6393 331.156 31.7939Z" fill="#00AEEF" stroke="white" stroke-width="0.6"/>
<path d="M347.332 38.5891C346.25 39.1647 346.536 38.8903 346.03 39.7701C344.642 39.9274 345.11 39.7701 343.976 40.3773C342.588 40.0579 343.106 40.0943 341.706 40.2526C340.797 39.5667 341.238 39.748 339.85 39.4276C339.602 38.543 339.85 38.8395 338.892 38.1209C339.374 37.2825 339.346 37.6115 339.088 36.6896C340.221 36.0871 339.907 36.3519 340.39 35.5086C341.752 35.3647 341.333 35.5086 342.444 34.9014C343.832 35.2208 343.315 35.1844 344.715 35.0261C345.623 35.712 345.182 35.5307 346.571 35.8511C346.819 36.7356 346.571 36.4392 347.529 37.1577C347.047 37.9962 347.076 37.6643 347.332 38.5891Z" fill="#00AEEF" stroke="white" stroke-width="0.6"/>
<path d="M383.246 65.5605L383.246 124.081" stroke="white"/>
<path d="M383.246 65.5605L383.246 124.081" stroke="white"/>
<path d="M295.275 19.0928H129.246V45.5612H295.275V19.0928Z" fill="#00AEEF"/>
<text fill="#FEFEFE" xml:space="preserve" style="white-space: pre" font-family="Harmattan" font-size="20" font-weight="bold" letter-spacing="0.11em"><tspan x="144.246" y="36.791">&#x627;&#x644;&#x634;&#x647;&#x627;&#x62f;&#x629; &#x627;&#x644;&#x62c;&#x627;&#x645;&#x639;&#x64a;&#x629;</tspan></text>
<path d="M255.248 67.4795H170.244C166.379 67.4795 163.246 70.4609 163.246 74.1387V78.0886C163.246 81.7664 166.379 84.7478 170.244 84.7478H255.248C259.113 84.7478 262.246 81.7664 262.246 78.0886V74.1387C262.246 70.4609 259.113 67.4795 255.248 67.4795Z" fill="#A6DBEC"/>
<path d="M229.1 138.472H189.9C186.089 138.472 183 141.975 183 146.296V146.956C183 151.277 186.089 154.781 189.9 154.781H229.1C232.911 154.781 236 151.277 236 146.956V146.296C236 141.975 232.911 138.472 229.1 138.472Z" fill="#A6DBEC"/>
<path d="M239.107 237.284H190.385C186.443 237.284 183.246 240.169 183.246 243.728V244.271C183.246 247.83 186.443 250.715 190.385 250.715H239.107C243.05 250.715 246.246 247.83 246.246 244.271V243.728C246.246 240.169 243.05 237.284 239.107 237.284Z" fill="#A6DBEC"/>
<path d="M245.282 289.09H181.21C177.364 289.09 174.246 292.799 174.246 297.375V298.073C174.246 302.649 177.364 306.358 181.21 306.358H245.282C249.128 306.358 252.246 302.649 252.246 298.073V297.375C252.246 292.799 249.128 289.09 245.282 289.09Z" fill="#A6DBEC"/>
<text fill="black" xml:space="preserve" style="white-space: pre" font-family="Harmattan" font-size="13" font-weight="bold" letter-spacing="0em"><tspan x="193.364" y="213.546">&#x62e;&#x631;&#x64a;&#x62c;2024 </tspan></text>
<text fill="black" xml:space="preserve" style="white-space: pre" font-family="Harmattan" font-size="5.2" font-weight="bold" letter-spacing="0em"><tspan x="144.246" y="192.776">&#x628;&#x643;&#x627;&#x644;&#x648;&#x631;&#x64a;&#x648;&#x633; &#x627;&#x644;&#x62a;&#x631;&#x628;&#x64a;&#x629; &#x627;&#x644;&#x646;&#x648;&#x639;&#x64a;&#x629; &#x62c;&#x627;&#x645;&#x639;&#x629; &#x627;&#x644;&#x645;&#x646;&#x635;&#x648;&#x631;&#x629; &#x628;&#x642;&#x633;&#x645; &#x2018;&#x2018;&#x625;&#x639;&#x62f;&#x627;&#x62f; &#x645;&#x639;&#x644;&#x645; &#x627;&#x644;&#x62d;&#x627;&#x633;&#x628; &#x627;&#x644;&#x623;&#x644;&#x64a;2024</tspan></text>
<text fill="black" xml:space="preserve" style="white-space: pre" font-family="Almarai" font-size="13" letter-spacing="0em"><tspan x="164.246" y="116.906">&#x643;&#x644;&#x64a;&#x629; &#x627;&#x644;&#x62a;&#x631;&#x628;&#x64a;&#x629; &#x627;&#x644;&#x646;&#x648;&#x639;&#x64a;&#x629;</tspan></text>
<text fill="black" xml:space="preserve" style="white-space: pre" font-family="Almarai" font-size="13" font-weight="bold" letter-spacing="0em"><tspan x="168.246" y="77.5715">&#x62c;&#x627;&#x645;&#x639;&#x629; &#x627;&#x644;&#x645;&#x646;&#x635;&#x648;&#x631;&#x629;</tspan></text>
<text fill="black" xml:space="preserve" style="white-space: pre" font-family="Almarai" font-size="13" font-weight="bold" letter-spacing="0em"><tspan x="193.875" y="150.483">&#x628;&#x642;&#x633;&#x645;</tspan></text>
<text fill="black" xml:space="preserve" style="white-space: pre" font-family="Harmattan" font-size="13" font-weight="bold" letter-spacing="0em"><tspan x="195" y="246.164">&#x628;&#x62a;&#x642;&#x62f;&#x64a;&#x631; &#x639;&#x627;&#x645;</tspan></text>
<text fill="black" xml:space="preserve" style="white-space: pre" font-family="Harmattan" font-size="13" font-weight="bold" letter-spacing="0em"><tspan x="186" y="300.846">&#x645;&#x634;&#x631;&#x648;&#x639; &#x627;&#x644;&#x62a;&#x62e;&#x631;&#x62c;</tspan></text>
<text fill="black" xml:space="preserve" style="white-space: pre" font-family="Harmattan" font-size="14" font-weight="500" letter-spacing="0em"><tspan x="152" y="184.052">&#x627;&#x644;&#x62d;&#x627;&#x633;&#x628; &#x627;&#x644;&#x623;&#x644;&#x64a; &#x627;&#x644;&#x627;&#x626;&#x62d;&#x629; &#x627;&#x644;&#x62c;&#x62f;&#x64a;&#x62f;&#x629;</tspan></text>
<text fill="black" xml:space="preserve" style="white-space: pre" font-family="Harmattan" font-size="13" font-weight="500" letter-spacing="0em"><tspan x="159" y="271.106">&#x62c;&#x64a;&#x62f; &#x62c;&#x62f;&#x627; &#x645;&#x639; &#x645;&#x631;&#x62a;&#x628;&#x629; &#x627;&#x644;&#x634;&#x631;&#x641;</tspan></text>
<text fill="black" xml:space="preserve" style="white-space: pre" font-family="Harmattan" font-size="13" font-weight="500" letter-spacing="0em"><tspan x="148" y="326.781">&#x62d;&#x627;&#x635;&#x644; &#x639;&#x644;&#x64a; 96% &#x641;&#x64a; &#x645;&#x634;&#x631;&#x648;&#x639; &#x627;&#x644;&#x62a;&#x62e;&#x631;&#x62c;</tspan></text>
<path d="M144.246 194.114H281.246Z" fill="black"/>
<path d="M144.246 194.114H281.246" stroke="#3B1919" stroke-width="0.1"/>
<path d="M144.246 188.357H281.246Z" fill="black"/>
<path d="M144.246 188.357H281.246" stroke="#3B1919" stroke-width="0.1"/>
<path d="M40.2461 65.5605L40.2461 124.081" stroke="white"/>
<path d="M274.241 355.633C274.185 355.39 273.938 355.238 273.708 355.297C273.572 355.356 273.467 355.44 273.408 355.537C273.35 355.635 273.34 355.742 273.38 355.844L273.422 356.024L273.853 355.918L273.427 356.028C273.442 356.102 273.48 356.173 273.539 356.237C273.579 356.287 273.632 356.342 273.69 356.408C273.914 356.632 274.113 356.867 274.285 357.109C274.415 357.322 274.687 357.386 274.89 357.253C274.998 357.165 275.068 357.061 275.092 356.952C275.116 356.842 275.095 356.73 275.031 356.627C274.83 356.332 274.592 356.046 274.321 355.774C274.28 355.73 274.274 355.751 274.265 355.745L274.241 355.633Z" fill="#FFFFFE"/>
<path d="M272.815 356.971C272.759 357.215 272.513 357.366 272.282 357.308C271.728 357.173 271.957 356.516 272.26 356.199C272.484 355.974 272.683 355.74 272.855 355.498C272.985 355.285 273.257 355.22 273.46 355.354C273.568 355.441 273.637 355.545 273.661 355.655C273.685 355.764 273.665 355.876 273.601 355.979C273.419 356.277 272.844 356.795 272.809 356.971H272.815Z" fill="#FFFFFE"/>
</svg>
