<svg width="454" height="453" viewBox="0 0 454 453" fill="none" xmlns="http://www.w3.org/2000/svg">
<path fill-rule="evenodd" clip-rule="evenodd" d="M363.154 32.1254C363.154 32.4321 363.026 32.7262 362.797 32.943C362.568 33.1599 362.258 33.2817 361.935 33.2817V34.7032C363.421 34.9903 364.778 35.7053 365.82 36.7508H368.03C368.353 36.7508 368.663 36.8726 368.892 37.0894C369.121 37.3063 369.249 37.6004 369.249 37.9071C369.249 38.2138 369.121 38.5079 368.892 38.7248C368.663 38.9416 368.353 39.0635 368.03 39.0635H350.966C350.643 39.0635 350.332 38.9416 350.104 38.7248C349.875 38.5079 349.747 38.2138 349.747 37.9071C349.747 37.6004 349.875 37.3063 350.104 37.0894C350.332 36.8726 350.643 36.7508 350.966 36.7508H353.174C354.216 35.7053 355.573 34.9903 357.059 34.7032V33.2817C356.736 33.2817 356.426 33.1599 356.197 32.943C355.969 32.7262 355.84 32.4321 355.84 32.1254C355.84 31.8187 355.969 31.5246 356.197 31.3077C356.426 31.0909 356.736 30.969 357.059 30.969V29.3724C355.995 28.9582 355.057 28.2989 354.329 27.4543C354.225 27.4836 354.116 27.4995 354.008 27.5015C350.617 27.5015 347.304 23.2189 347.304 20.0211C347.304 17.1066 348.685 16.2611 350.497 16.0264C350.644 15.9683 350.802 15.9383 350.961 15.9381H368.03C368.189 15.9383 368.347 15.9683 368.494 16.0264C370.307 16.2611 371.687 17.1066 371.687 20.0211C371.687 23.2205 368.372 27.5015 364.983 27.5015C364.875 27.4995 364.767 27.4836 364.662 27.4543C363.934 28.2989 362.996 28.9582 361.932 29.3724V30.969C362.092 30.9686 362.251 30.9982 362.399 31.0562C362.548 31.1141 362.682 31.1992 362.796 31.3066C362.909 31.4141 363 31.5417 363.061 31.6822C363.122 31.8227 363.154 31.9733 363.154 32.1254ZM359.497 9C356.039 9.00086 352.642 9.87421 349.657 11.5305C346.671 13.1868 344.204 15.5664 342.507 18.4255C340.811 21.2846 339.946 24.5202 340.003 27.8006C340.059 31.081 341.034 34.2883 342.827 37.0935C344.621 39.8988 347.168 42.2011 350.209 43.7645C353.25 45.3279 356.674 46.0961 360.131 45.9904C363.588 45.8846 366.953 44.9088 369.881 43.1628C372.809 41.4168 375.195 38.9636 376.794 36.0545C378.267 33.421 379.025 30.481 378.999 27.5C378.999 22.5935 376.945 17.8879 373.287 14.4185C369.63 10.9491 364.669 9 359.497 9Z" fill="#00AEEF" stroke="#707070"/>
<path fill-rule="evenodd" clip-rule="evenodd" d="M348.599 19.4143C348.599 18.0087 348.599 17.6188 350.085 17.5268C350.252 19.9171 350.793 22.2695 351.69 24.5047C350.833 23.9109 350.116 23.1511 349.584 22.2743C349.052 21.3976 348.716 20.4233 348.599 19.4143ZM367.913 17.5268C369.394 17.6188 369.399 18.0087 369.399 19.4143C369.282 20.4236 368.946 21.398 368.413 22.2748C367.88 23.1515 367.162 23.9112 366.305 24.5047C367.201 22.2695 367.742 19.9171 367.909 17.5268H367.913ZM364.503 27.4498C364.616 27.4816 364.733 27.4985 364.851 27.5C368.464 27.5 372 22.8698 372 19.4143C372 16.2634 370.528 15.3497 368.595 15.0954C368.437 15.0322 368.268 14.9998 368.097 15H349.899C349.73 15.0003 349.562 15.0327 349.405 15.0954C347.472 15.3497 346 16.2667 346 19.4143C346 22.8698 349.534 27.5 353.149 27.5C353.267 27.4985 353.384 27.4816 353.497 27.4498C354.271 28.3616 355.268 29.0741 356.4 29.5231V31.25C356.055 31.25 355.724 31.3817 355.481 31.6161C355.237 31.8505 355.1 32.1685 355.1 32.5C355.1 32.8315 355.237 33.1495 355.481 33.3839C355.724 33.6183 356.055 33.75 356.4 33.75V35.2861C354.817 35.5978 353.373 36.3708 352.264 37.5H349.899C349.555 37.5 349.224 37.6317 348.98 37.8661C348.736 38.1005 348.599 38.4185 348.599 38.75C348.599 39.0815 348.736 39.3995 348.98 39.6339C349.224 39.8683 349.555 40 349.899 40H368.097C368.442 40 368.773 39.8683 369.016 39.6339C369.26 39.3995 369.397 39.0815 369.397 38.75C369.397 38.4185 369.26 38.1005 369.016 37.8661C368.773 37.6317 368.442 37.5 368.097 37.5H365.74C364.629 36.3696 363.182 35.5965 361.597 35.2861V33.75C361.942 33.75 362.272 33.6183 362.516 33.3839C362.76 33.1495 362.897 32.8315 362.897 32.5C362.897 32.1685 362.76 31.8505 362.516 31.6161C362.272 31.3817 361.942 31.25 361.597 31.25V29.5231C362.728 29.0741 363.725 28.3616 364.499 27.4498H364.503Z" fill="white"/>
<path d="M295.537 12.5605H129.508V40.1505H295.537V12.5605Z" fill="#00AEEF"/>
<text fill="white" xml:space="preserve" style="white-space: pre" font-family="Harmattan" font-size="20" font-weight="bold" letter-spacing="0em"><tspan x="155.016" y="30.1162">&#x627;&#x644;&#x625;&#x646;&#x62c;&#x627;&#x632;&#x627;&#x62a; &#x627;&#x644;&#x62c;&#x627;&#x645;&#x639;&#x64a;&#x629;</tspan></text>
<path d="M248.544 60H184.472C180.626 60 177.508 65.3701 177.508 71.9945V73.0055C177.508 79.6299 180.626 85 184.472 85H248.544C252.39 85 255.508 79.6299 255.508 73.0055V71.9945C255.508 65.3701 252.39 60 248.544 60Z" fill="#A6DBEC"/>
<path d="M248.452 208H193.508C189.642 208 186.508 211.134 186.508 215V219.59C186.508 223.456 189.642 226.59 193.508 226.59H248.452C252.318 226.59 255.452 223.456 255.452 219.59V215C255.452 211.134 252.318 208 248.452 208Z" fill="black"/>
<text fill="black" xml:space="preserve" style="white-space: pre" font-family="Harmattan" font-size="14" font-weight="bold" letter-spacing="0em"><tspan x="186.016" y="72.8813">&#x645;&#x634;&#x631;&#x648;&#x639; &#x627;&#x644;&#x62a;&#x62e;&#x631;&#x62c;</tspan></text>
<text fill="black" xml:space="preserve" style="white-space: pre" font-family="Harmattan" font-size="10" font-weight="500" letter-spacing="0em"><tspan x="178.194" y="113.058">&#x62a;&#x645; &#x627;&#x62e;&#x62a;&#x64a;&#x627;&#x631; &#x645;&#x634;&#x631;&#x648;&#x639;&#x64a; &#x627;&#x644;&#x628;&#x631;&#x645;&#x62c;&#x640;&#x64a; &#x2028;</tspan><tspan x="221.754" y="121.058">&#x2028;</tspan><tspan x="221.754" y="129.058">&#10;</tspan></text>
<text fill="black" xml:space="preserve" style="white-space: pre" font-family="Harmattan" font-size="10" font-weight="500" letter-spacing="0em"><tspan x="154.552" y="138.058">&#x645;&#x646; &#x627;&#x641;&#x636;&#x644; &#x639;&#x634;&#x631; &#x645;&#x634;&#x627;&#x631;&#x64a;&#x639; &#x639;&#x644;&#x64a; &#x645;&#x633;&#x62a;&#x648;&#x64a; &#x627;&#x644;&#x62b;&#x644;&#x627;&#x62b;&#x2028;</tspan><tspan x="221.754" y="147.058">&#x2028;</tspan></text>
<text fill="black" xml:space="preserve" style="white-space: pre" font-family="Harmattan" font-size="10" font-weight="500" letter-spacing="0em"><tspan x="221.754" y="156.058">&#x2028;</tspan><tspan x="143.57" y="165.058">&#x643;&#x644;&#x64a;&#x627;&#x62a; &#x648;&#x645;&#x646;&#x627;&#x642;&#x634;&#x62a;&#x629; &#x641;&#x64a; &#x627;&#x644;&#x645;&#x624;&#x62a;&#x645;&#x631; &#x627;&#x644;&#x623;&#x648;&#x644; &#x644;&#x644;&#x62d;&#x627;&#x633;&#x628; &#x627;&#x644;&#x627;&#x644;&#x64a;&#x2028;</tspan><tspan x="221.754" y="172.058">&#x2028;</tspan><tspan x="221.754" y="179.058">&#x2028;</tspan><tspan x="189.327" y="186.058">&#x641;&#x64a; &#x62c;&#x627;&#x645;&#x639;&#x629; &#x627;&#x644;&#x645;&#x646;&#x635;&#x648;&#x631;&#x629; </tspan></text>
<path d="M242.261 314H205.014C199.559 314 195.138 317.203 195.138 321.154V325.846C195.138 329.797 199.559 333 205.014 333H242.261C247.716 333 252.138 329.797 252.138 325.846V321.154C252.138 317.203 247.716 314 242.261 314Z" fill="black"/>
<text fill="white" xml:space="preserve" style="white-space: pre" font-family="Harmattan" font-size="13" font-weight="bold" letter-spacing="0em"><tspan x="204.016" y="324.676">&#x641;&#x64a; &#x62d;&#x636;&#x648;&#x631;</tspan></text>
<text fill="#5E5E5E" xml:space="preserve" style="white-space: pre" font-family="Harmattan" font-size="10" font-weight="500" letter-spacing="0em"><tspan x="163.531" y="352.558">&#x645;&#x631;&#x643;&#x632; &#x627;&#x644;&#x62a;&#x637;&#x648;&#x64a;&#x631; &#x627;&#x644;&#x645;&#x647;&#x646;&#x64a; &#x62c;&#x627;&#x645;&#x639;&#x629; &#x627;&#x644;&#x645;&#x646;&#x635;&#x648;&#x631;&#x629; &#x2028;</tspan><tspan x="187.389" y="369.558">&#x631;&#x626;&#x6cc;&#x633; &#x62c;&#x627;&#x645;&#x639;&#x629; &#x627;&#x644;&#x645;&#x646;&#x635;&#x648;&#x631;&#x629; &#x2028;</tspan><tspan x="183.155" y="386.558">&#x634;&#x631;&#x643;&#x629; &#x62a;&#x643;&#x646;&#x648; &#x645;&#x635;&#x631; &#x644;&#x628;&#x631;&#x645;&#x62c;&#x647; &#x2028;</tspan><tspan x="210.23" y="403.558">x clan &#x2028;</tspan><tspan x="210.543" y="420.558">&#x641;&#x643;&#x631;&#x62a;&#x643;</tspan></text>
<text fill="#5E5E5E" xml:space="preserve" style="white-space: pre" font-family="Harmattan" font-size="5" font-weight="500" letter-spacing="0em"><tspan x="199.971" y="239.529">&#x631;&#x626;&#x64a;&#x633; &#x642;&#x633;&#x645; &#x627;&#x644;&#x62d;&#x627;&#x633;&#x628; &#x627;&#x644;&#x627;&#x644;&#x64a; &#x2028;</tspan><tspan x="201.484" y="248.529">&#x623;.&#x62f; // &#x623;&#x62d;&#x645;&#x62f; &#x627;&#x644;&#x633;&#x64a;&#x62f; &#x623;&#x645;&#x64a;&#x646; &#x2028;</tspan><tspan x="198.567" y="257.529">&#x648; &#x639;&#x645;&#x64a;&#x62f; &#x643;&#x644;&#x64a;&#x629; &#x627;&#x644;&#x62a;&#x631;&#x628;&#x64a;&#x629; &#x627;&#x644;&#x646;&#x648;&#x639;&#x64a;&#x629; &#x2028;</tspan><tspan x="202.561" y="266.529">&#x62f; &#x645;&#x62d;&#x649; &#x627;&#x644;&#x62f;&#x64a;&#x646; &#x625;&#x633;&#x645;&#x627;&#x639;&#x64a;&#x644; &#x2028;</tspan><tspan x="182.197" y="275.529">&#x648;&#x648;&#x643;&#x64a;&#x644; &#x627;&#x644;&#x643;&#x644;&#x64a;&#x647; &#x644;&#x634;&#x626;&#x648;&#x646; &#x627;&#x644;&#x62f;&#x631;&#x627;&#x633;&#x627;&#x62a; &#x627;&#x644;&#x639;&#x644;&#x64a;&#x627; &#x648;&#x627;&#x644;&#x628;&#x62d;&#x648;&#x62b; &#x2028;</tspan><tspan x="207.012" y="284.529">&#x623;.&#x62f;/ &#x627;&#x645;&#x627;&#x646;&#x64a; &#x627;&#x644;&#x62c;&#x645;&#x644; &#x2028;</tspan><tspan x="181.311" y="293.529">&#x648;&#x623;&#x633;&#x627;&#x62a;&#x630;&#x629; &#x642;&#x633;&#x645; &#x627;&#x644;&#x630;&#x643;&#x627;&#x621; &#x627;&#x644;&#x627;&#x635;&#x637;&#x646;&#x627;&#x639;&#x64a; &#x648;&#x627;&#x644;&#x630;&#x643;&#x627;&#x621; &#x627;&#x644;&#x639;&#x627;&#x637;&#x641;&#x64a; &#x2028;</tspan><tspan x="177.847" y="302.529">&#x623;.&#x62f; / &#x634;&#x64a;&#x645;&#x627;&#x621; &#x62e;&#x627;&#x637;&#x631; .. &#x623;.&#x62f;/ &#x631;&#x627;&#x646;&#x64a;&#x627; &#x627;&#x644;&#x639;&#x627;&#x62f;&#x64a; . &#x623;.&#x62f;/ &#x645;&#x631;&#x648;&#x629; &#x62d;&#x633;&#x64a;&#x646;</tspan></text>
<text fill="white" xml:space="preserve" style="white-space: pre" font-family="Harmattan" font-size="15" font-weight="bold" letter-spacing="0em"><tspan x="193.016" y="220.087">&#x627;&#x644;&#x645;&#x646;&#x627;&#x642;&#x634;&#x647; &#x645;&#x639;</tspan></text>
</svg>
