<svg width="454" height="1205" viewBox="0 0 454 1205" fill="none" xmlns="http://www.w3.org/2000/svg">
<path d="M289.76 14H114.76V42H289.76V14Z" fill="#00AEEF"/>
<text fill="white" xml:space="preserve" style="white-space: pre" font-family="Harmattan" font-size="20" font-weight="bold" letter-spacing="0em"><tspan x="140.731" y="32.1162">&#x627;&#x644;&#x634;&#x647;&#x627;&#x62f;&#x627;&#x62a; &#x627;&#x644;&#x645;&#x639;&#x62a;&#x645;&#x62f;&#x629;</tspan></text>
<text fill="black" xml:space="preserve" style="white-space: pre" font-family="Harmattan" font-size="20" font-weight="500" letter-spacing="0em"><tspan x="119.938" y="104.116">&#x645;&#x639;&#x62a;&#x645;&#x62f;&#x629; &#x645;&#x648;&#x62b;&#x642;&#x647; &#x645;&#x646; &#x62c;&#x627;&#x645;&#x639;&#x629; &#x627;&#x644;&#x645;&#x646;&#x635;&#x648;&#x631;&#x629;</tspan></text>
<text fill="#FF0000" xml:space="preserve" style="white-space: pre" font-family="Harmattan" font-size="20" font-weight="500" letter-spacing="0em"><tspan x="75.0234" y="81.1162">&#x628;&#x627;&#x643;&#x644;&#x648;&#x631;&#x64a;&#x648;&#x633; &#x62a;&#x631;&#x628;&#x648;&#x64a; &#x627;&#x639;&#x62f;&#x627;&#x62f; &#x645;&#x639;&#x644;&#x645; &#x62d;&#x627;&#x633;&#x628; &#x623;&#x644;&#x64a; </tspan></text>
<text fill="#F30000" xml:space="preserve" style="white-space: pre" font-family="Harmattan" font-size="20" font-weight="bold" letter-spacing="0em"><tspan x="193.781" y="203.116">ENGLISH 3 LEVELS </tspan></text>
<path d="M340.758 14.5967H338.409C333.19 14.5967 328.185 15.9663 324.494 18.4043C320.804 20.8423 318.731 24.1489 318.731 27.5967V29.1517C318.731 32.5995 320.804 35.9061 324.494 38.3441C328.185 40.7821 333.19 42.1517 338.409 42.1517H340.763C343.347 42.1517 345.906 41.8154 348.293 41.1621C350.681 40.5088 352.85 39.5512 354.677 38.3441C356.504 37.1369 357.954 35.7038 358.943 34.1266C359.932 32.5493 360.441 30.8589 360.441 29.1517V27.5967C360.441 25.8892 359.931 24.1985 358.942 22.6211C357.953 21.0437 356.503 19.6104 354.675 18.4032C352.848 17.196 350.678 16.2385 348.29 15.5854C345.902 14.9323 343.343 14.5963 340.758 14.5967Z" fill="#00AEEF" stroke="#707070"/>
<path d="M326.763 21.6045C327.706 21.6045 328.514 22.3475 329.061 23.5475C330.084 26.1856 330.084 28.9515 329.061 31.5895C328.514 32.7895 327.698 33.5325 326.763 33.5325C325.827 33.5325 325.012 32.7895 324.465 31.5895C323.444 28.9513 323.444 26.1857 324.465 23.5475C325.012 22.3475 325.82 21.6045 326.763 21.6045ZM327.234 25.2655C327.017 24.7915 326.757 24.4975 326.501 24.4975C326.245 24.4975 325.985 24.7905 325.768 25.2655C325.199 26.7758 325.199 28.3552 325.768 29.8655C325.983 30.3395 326.245 30.6335 326.501 30.6335C326.757 30.6335 327.017 30.3405 327.234 29.8655C327.803 28.3552 327.803 26.7758 327.234 25.2655Z" fill="#FFFFFE"/>
<path d="M341.046 29.5303C341.329 29.545 341.602 29.6081 341.837 29.7132C342.072 29.8184 342.262 29.9621 342.389 30.1303C342.749 30.5712 342.938 31.0647 342.937 31.5659C342.935 32.0672 342.744 32.5602 342.381 33.0003C342.262 33.1686 342.073 33.3111 341.836 33.4109C341.599 33.5107 341.323 33.5637 341.042 33.5637C340.761 33.5637 340.486 33.5107 340.248 33.4109C340.011 33.3111 339.822 33.1686 339.703 33.0003C339.335 32.5613 339.141 32.0678 339.14 31.5659C339.139 31.0641 339.33 30.5701 339.696 30.1303C339.823 29.9617 340.014 29.8178 340.251 29.7127C340.488 29.6075 340.762 29.5447 341.046 29.5303ZM341.71 30.8403C341.648 30.7563 341.553 30.6846 341.435 30.6323C341.323 30.5727 341.184 30.5402 341.04 30.5402C340.896 30.5402 340.757 30.5727 340.645 30.6323C340.527 30.6846 340.432 30.7563 340.369 30.8403C340.187 31.0604 340.091 31.3073 340.091 31.5583C340.091 31.8093 340.187 32.0562 340.369 32.2763C340.432 32.3603 340.527 32.432 340.645 32.4843C340.757 32.5439 340.896 32.5764 341.04 32.5764C341.184 32.5764 341.323 32.5439 341.435 32.4843C341.553 32.432 341.648 32.3603 341.71 32.2763C341.893 32.0562 341.989 31.8093 341.989 31.5583C341.989 31.3073 341.893 31.0604 341.71 30.8403Z" fill="#FFFFFE"/>
<path fill-rule="evenodd" clip-rule="evenodd" d="M341.951 29.8225C343.446 30.2225 343.67 31.3885 343.478 32.9295C344.592 33.0295 346.531 33.1735 347.659 33.3465C349.268 33.5957 350.855 33.9032 352.414 34.2675C352.466 34.2834 352.524 34.2915 352.582 34.2915C353.464 34.2915 354.219 33.4855 354.728 32.2565C355.233 30.9317 355.482 29.5697 355.467 28.2035C355.493 26.9215 355.255 25.6431 354.76 24.4035C354.253 23.2585 353.499 22.5505 352.618 22.5505H352.585C352.561 22.5495 352.537 22.5495 352.513 22.5505C348.98 22.9445 345.46 23.7005 341.952 23.7655L341.951 29.8225ZM339.915 23.7855H339.885C335.693 23.7855 331.51 23.0215 327.332 22.5525C326.975 22.5135 326.655 22.7915 326.619 23.1735C326.582 23.5555 326.843 23.8965 327.199 23.9355C327.725 23.9942 328.253 24.0498 328.78 24.1025C328.829 24.1978 328.876 24.2978 328.921 24.4025C329.919 27.0413 329.919 29.8017 328.921 32.4405L328.909 32.4665H328.923C328.317 32.6058 327.712 32.7578 327.106 32.9225C326.908 33.016 326.757 33.1468 326.673 33.298C326.589 33.4491 326.576 33.6134 326.635 33.7695C326.725 34.1425 327.079 34.3695 327.427 34.2695C329.292 33.7587 331.227 33.3683 333.205 33.1035C334.999 32.9016 336.81 32.7744 338.628 32.7225C338.488 32.2257 338.531 31.7138 338.755 31.2305C338.979 30.7473 339.377 30.3071 339.915 29.9475V23.7855Z" fill="#FFFFFE"/>
<text fill="#FF0000" xml:space="preserve" style="white-space: pre" font-family="Harmattan" font-size="20" font-weight="bold" letter-spacing="0em"><tspan x="194.973" y="280.116">Digital marketing </tspan></text>
<text fill="black" xml:space="preserve" style="white-space: pre" font-family="Harmattan" font-size="17" font-weight="500" letter-spacing="0.05em"><tspan x="63.3223" y="306.499">&#x62d;&#x627;&#x635;&#x644; &#x639;&#x644;&#x64a; &#x634;&#x647;&#x627;&#x62f;&#x629; &#x645;&#x639;&#x62a;&#x645;&#x62f;&#x629; &#x648;&#x645;&#x648;&#x62b;&#x642;&#x647; &#x645;&#x646; &#x643;&#x644;&#x64a;&#x629;&#x2028;</tspan><tspan x="76.4508" y="328.499">&#x627;&#x644;&#x647;&#x646;&#x62f;&#x633;&#x629; &#x62c;&#x627;&#x645;&#x639;&#x629; &#x627;&#x644;&#x645;&#x646;&#x635;&#x648;&#x631;&#x629; &#x639;&#x644;&#x64a; &#x642;&#x64a;&#x62f; &#x627;&#x644;&#x648;&#x635;&#x648;&#x644;</tspan></text>
<text fill="black" xml:space="preserve" style="white-space: pre" font-family="Harmattan" font-size="17" font-weight="500" letter-spacing="0.05em"><tspan x="63.3223" y="413.499">&#x62d;&#x627;&#x635;&#x644; &#x639;&#x644;&#x64a; &#x634;&#x647;&#x627;&#x62f;&#x629; &#x645;&#x639;&#x62a;&#x645;&#x62f;&#x629; &#x648;&#x645;&#x648;&#x62b;&#x642;&#x647; &#x645;&#x646; &#x643;&#x644;&#x64a;&#x629;&#x2028;</tspan><tspan x="76.4508" y="435.499">&#x627;&#x644;&#x647;&#x646;&#x62f;&#x633;&#x629; &#x62c;&#x627;&#x645;&#x639;&#x629; &#x627;&#x644;&#x645;&#x646;&#x635;&#x648;&#x631;&#x629; &#x639;&#x644;&#x64a; &#x642;&#x64a;&#x62f; &#x627;&#x644;&#x648;&#x635;&#x648;&#x644;</tspan></text>
<text fill="black" xml:space="preserve" style="white-space: pre" font-family="Harmattan" font-size="17" font-weight="500" letter-spacing="0.05em"><tspan x="63.3223" y="497.499">&#x62d;&#x627;&#x635;&#x644; &#x639;&#x644;&#x64a; &#x634;&#x647;&#x627;&#x62f;&#x629; &#x645;&#x639;&#x62a;&#x645;&#x62f;&#x629; &#x648;&#x645;&#x648;&#x62b;&#x642;&#x647; &#x645;&#x646; &#x643;&#x644;&#x64a;&#x629;&#x2028;</tspan><tspan x="76.4508" y="519.499">&#x627;&#x644;&#x647;&#x646;&#x62f;&#x633;&#x629; &#x62c;&#x627;&#x645;&#x639;&#x629; &#x627;&#x644;&#x645;&#x646;&#x635;&#x648;&#x631;&#x629; &#x639;&#x644;&#x64a; &#x642;&#x64a;&#x62f; &#x627;&#x644;&#x648;&#x635;&#x648;&#x644;</tspan></text>
<text fill="black" xml:space="preserve" style="white-space: pre" font-family="Harmattan" font-size="17" font-weight="500" letter-spacing="0.05em"><tspan x="63.3223" y="578.499">&#x62d;&#x627;&#x635;&#x644; &#x639;&#x644;&#x64a; &#x634;&#x647;&#x627;&#x62f;&#x629; &#x645;&#x639;&#x62a;&#x645;&#x62f;&#x629; &#x648;&#x645;&#x648;&#x62b;&#x642;&#x647; &#x645;&#x646; &#x643;&#x644;&#x64a;&#x629;&#x2028;</tspan><tspan x="76.4508" y="600.499">&#x627;&#x644;&#x647;&#x646;&#x62f;&#x633;&#x629; &#x62c;&#x627;&#x645;&#x639;&#x629; &#x627;&#x644;&#x645;&#x646;&#x635;&#x648;&#x631;&#x629; &#x639;&#x644;&#x64a; &#x642;&#x64a;&#x62f; &#x627;&#x644;&#x648;&#x635;&#x648;&#x644;</tspan></text>
<text fill="black" xml:space="preserve" style="white-space: pre" font-family="Harmattan" font-size="17" font-weight="500" letter-spacing="0.05em"><tspan x="63.3223" y="728.499">&#x62d;&#x627;&#x635;&#x644; &#x639;&#x644;&#x64a; &#x634;&#x647;&#x627;&#x62f;&#x629; &#x645;&#x639;&#x62a;&#x645;&#x62f;&#x629; &#x648;&#x645;&#x648;&#x62b;&#x642;&#x647; &#x645;&#x646; &#x643;&#x644;&#x64a;&#x629;&#x2028;</tspan><tspan x="76.4508" y="750.499">&#x627;&#x644;&#x647;&#x646;&#x62f;&#x633;&#x629; &#x62c;&#x627;&#x645;&#x639;&#x629; &#x627;&#x644;&#x645;&#x646;&#x635;&#x648;&#x631;&#x629; &#x639;&#x644;&#x64a; &#x642;&#x64a;&#x62f; &#x627;&#x644;&#x648;&#x635;&#x648;&#x644;</tspan></text>
<text fill="black" xml:space="preserve" style="white-space: pre" font-family="Harmattan" font-size="17" font-weight="500" letter-spacing="0.05em"><tspan x="63.3223" y="223.499">&#x62d;&#x627;&#x635;&#x644; &#x639;&#x644;&#x64a; &#x634;&#x647;&#x627;&#x62f;&#x629; &#x645;&#x639;&#x62a;&#x645;&#x62f;&#x629; &#x648;&#x645;&#x648;&#x62b;&#x642;&#x647; &#x645;&#x646; &#x643;&#x644;&#x64a;&#x629;&#x2028;</tspan><tspan x="71.8322" y="245.499">&#x627;&#x644;&#x647;&#x646;&#x62f;&#x633;&#x629; &#x62c;&#x627;&#x645;&#x639;&#x629; &#x627;&#x644;&#x645;&#x646;&#x635;&#x648;&#x631;&#x629; &#x639;&#x644;&#x64a; &#x642;&#x64a;&#x62f; &#x627;&#x644;&#x648;&#x635;&#x648;&#x644; </tspan></text>
<text fill="#FF0000" xml:space="preserve" style="white-space: pre" font-family="Harmattan" font-size="16" font-weight="bold" letter-spacing="0.06em"><tspan x="89.58" y="368.293">ICDL (WIN-WORD-EXCEL-ACCESS-</tspan><tspan x="110.643" y="390.293">POWERPOINT - INTERNET - IT) </tspan></text>
<text fill="#FF0000" xml:space="preserve" style="white-space: pre" font-family="Harmattan" font-size="20" font-weight="bold" letter-spacing="0em"><tspan x="182.066" y="474.116">MANGMENT SKILLS </tspan></text>
<text fill="#FF0000" xml:space="preserve" style="white-space: pre" font-family="Harmattan" font-size="20" font-weight="bold" letter-spacing="0em"><tspan x="192" y="562.116">PERSONAL SKILLS </tspan></text>
<text fill="#FF0000" xml:space="preserve" style="white-space: pre" font-family="Harmattan" font-size="20" font-weight="bold" letter-spacing="0em"><tspan x="228" y="707.116">Graphic design</tspan></text>
<text fill="#FF0000" xml:space="preserve" style="white-space: pre" font-family="Harmattan" font-size="20" font-weight="bold" letter-spacing="0em"><tspan x="189" y="634.116">&#x627;&#x644;&#x633;&#x644;&#x627;&#x645;&#x647; &#x648;&#x627;&#x644;&#x635;&#x62d;&#x629; &#x627;&#x644;&#x645;&#x647;&#x646;&#x64a;&#x629;</tspan></text>
<text fill="black" xml:space="preserve" style="white-space: pre" font-family="Harmattan" font-size="13" font-weight="500" letter-spacing="0em"><tspan x="55.7363" y="653.676">&#x62d;&#x627;&#x635;&#x644; &#x639;&#x644;&#x64a; &#x627;&#x644;&#x634;&#x647;&#x627;&#x62f;&#x629; &#x627;&#x644;&#x62f;&#x648;&#x644;&#x64a;&#x629; &#x627;&#x644;&#x623;&#x645;&#x631;&#x64a;&#x643;&#x64a;&#x629; &#x648;&#x645;&#x648;&#x62b;&#x642;&#x647; &#x645;&#x646; &#x648;&#x632;&#x627;&#x631;&#x629; &#x627;&#x644;&#x62e;&#x627;&#x631;&#x62c;&#x64a;&#x629; &#x627;&#x644;&#x645;&#x635;&#x631;&#x64a;&#x629;&#x2028;</tspan><tspan x="229.294" y="675.676"> + &#x627;&#x644;&#x643;&#x627;&#x631;&#x646;&#x64a;&#x629; &#x627;&#x644;&#x62f;&#x648;&#x644;&#x64a; &#x627;&#x644;&#x627;&#x645;&#x631;&#x64a;&#x643;&#x64a;</tspan></text>
<text fill="#FF0000" xml:space="preserve" style="white-space: pre" font-family="Harmattan" font-size="15" font-weight="500" letter-spacing="0em"><tspan x="78.6836" y="128.587">&#x62d;&#x633;&#x627;&#x628; &#x645;&#x648;&#x62d;&#x62f; + &#x643;&#x648;&#x62f; &#x627;&#x644;&#x645;&#x639;&#x644;&#x645; &#x627;&#x644;&#x62e;&#x627;&#x635; &#x628;&#x645;&#x639;&#x644;&#x645; &#x641;&#x64a; &#x645;&#x627;&#x62f;&#x62a;&#x64a; </tspan><tspan x="206.477" y="145.587">&#x627;&#x644;&#x631;&#x64a;&#x627;&#x636;&#x64a;&#x627;&#x62a; &#x648;&#x627;&#x644;&#x62d;&#x627;&#x633;&#x628; &#x627;&#x644;&#x627;&#x644;&#x64a;</tspan></text>
<text fill="black" xml:space="preserve" style="white-space: pre" font-family="Harmattan" font-size="13" font-weight="500" letter-spacing="0em"><tspan x="144.527" y="162.676">&#x641;&#x64a; &#x648;&#x632;&#x627;&#x631;&#x629; &#x627;&#x644;&#x62a;&#x631;&#x628;&#x64a;&#x629; &#x648;&#x627;&#x644;&#x62a;&#x639;&#x644;&#x64a;&#x645; &#x62c;&#x645;&#x647;&#x648;&#x631;&#x64a;&#x629; &#x645;&#x635;&#x631; &#x627;&#x644;&#x639;&#x631;&#x628;&#x64a;&#x629;</tspan></text>
<path d="M125.526 165.006L127.953 163.32L132.153 164.973L137.638 160.666L141 161.832L133.146 168L125.526 165.006ZM122.489 165.288L126.642 166.921C124.103 167.058 121.549 167.125 118.993 167.123L122.489 165.288ZM101 164.805C101 162.181 106.77 158.658 114.552 157.629C112.856 156.966 111.485 156.137 110.535 155.198C109.585 154.26 109.078 153.234 109.05 152.193C108.919 150.882 109.891 149.599 111.752 148.626C113.613 147.652 116.213 147.068 118.982 147C121.751 147.068 124.35 147.653 126.211 148.626C128.072 149.599 129.044 150.882 128.914 152.193C128.888 153.234 128.383 154.259 127.436 155.197C126.488 156.136 125.12 156.966 123.427 157.629C127.765 158.239 131.547 159.52 134.169 161.267L131.597 163.285L127.505 161.671L123.817 164.232L119.783 159.133H119.815L121.465 158.146C120.676 158.301 119.833 158.383 118.98 158.389C118.126 158.382 117.283 158.3 116.493 158.146L118.134 159.133H118.181L113.941 164.49L118.98 167.123C109.99 167.121 101 166.351 101 164.805Z" fill="#CB9B00"/>
<path d="M349.993 81C351.377 81.0009 352.731 80.7379 353.884 80.244C355.036 79.7501 355.934 79.0477 356.465 78.2255C356.996 77.4033 357.136 76.4983 356.866 75.6251C356.597 74.7519 355.931 73.9495 354.952 73.3197C353.974 72.6899 352.726 72.2608 351.368 72.0868C350.01 71.9127 348.602 72.0018 347.323 72.3422C346.043 72.6827 344.95 73.2594 344.18 73.9995C343.411 74.7396 343 75.6097 343 76.4999C343.001 77.6924 343.738 78.8359 345.049 79.6796C346.36 80.5232 348.138 80.9981 349.993 81Z" fill="#00AEEF"/>
<path d="M349.993 203C351.377 203.001 352.731 202.738 353.884 202.244C355.036 201.75 355.934 201.048 356.465 200.225C356.996 199.403 357.136 198.498 356.866 197.625C356.597 196.752 355.931 195.95 354.952 195.32C353.974 194.69 352.726 194.261 351.368 194.087C350.01 193.913 348.602 194.002 347.323 194.342C346.043 194.683 344.95 195.259 344.18 196C343.411 196.74 343 197.61 343 198.5C343.001 199.692 343.738 200.836 345.049 201.68C346.36 202.523 348.138 202.998 349.993 203Z" fill="#00AEEF"/>
<path d="M349.993 280C351.377 280.001 352.731 279.738 353.884 279.244C355.036 278.75 355.934 278.048 356.465 277.225C356.996 276.403 357.136 275.498 356.866 274.625C356.597 273.752 355.931 272.95 354.952 272.32C353.974 271.69 352.726 271.261 351.368 271.087C350.01 270.913 348.602 271.002 347.323 271.342C346.043 271.683 344.95 272.259 344.18 273C343.411 273.74 343 274.61 343 275.5C343.001 276.692 343.738 277.836 345.049 278.68C346.36 279.523 348.138 279.998 349.993 280Z" fill="#00AEEF"/>
<path d="M349.993 370C351.377 370.001 352.731 369.738 353.884 369.244C355.036 368.75 355.934 368.048 356.465 367.225C356.996 366.403 357.136 365.498 356.866 364.625C356.597 363.752 355.931 362.95 354.952 362.32C353.974 361.69 352.726 361.261 351.368 361.087C350.01 360.913 348.602 361.002 347.323 361.342C346.043 361.683 344.95 362.259 344.18 363C343.411 363.74 343 364.61 343 365.5C343.001 366.692 343.738 367.836 345.049 368.68C346.36 369.523 348.138 369.998 349.993 370Z" fill="#00AEEF"/>
<path d="M349.993 475C351.377 475.001 352.731 474.738 353.884 474.244C355.036 473.75 355.934 473.048 356.465 472.225C356.996 471.403 357.136 470.498 356.866 469.625C356.597 468.752 355.931 467.95 354.952 467.32C353.974 466.69 352.726 466.261 351.368 466.087C350.01 465.913 348.602 466.002 347.323 466.342C346.043 466.683 344.95 467.259 344.18 468C343.411 468.74 343 469.61 343 470.5C343.001 471.692 343.738 472.836 345.049 473.68C346.36 474.523 348.138 474.998 349.993 475Z" fill="#00AEEF"/>
<path d="M349.993 562C351.377 562.001 352.731 561.738 353.884 561.244C355.036 560.75 355.934 560.048 356.465 559.225C356.996 558.403 357.136 557.498 356.866 556.625C356.597 555.752 355.931 554.95 354.952 554.32C353.974 553.69 352.726 553.261 351.368 553.087C350.01 552.913 348.602 553.002 347.323 553.342C346.043 553.683 344.95 554.259 344.18 555C343.411 555.74 343 556.61 343 557.5C343.001 558.692 343.738 559.836 345.049 560.68C346.36 561.523 348.138 561.998 349.993 562Z" fill="#00AEEF"/>
<path d="M349.993 634C351.377 634.001 352.731 633.738 353.884 633.244C355.036 632.75 355.934 632.048 356.465 631.225C356.996 630.403 357.136 629.498 356.866 628.625C356.597 627.752 355.931 626.95 354.952 626.32C353.974 625.69 352.726 625.261 351.368 625.087C350.01 624.913 348.602 625.002 347.323 625.342C346.043 625.683 344.95 626.259 344.18 627C343.411 627.74 343 628.61 343 629.5C343.001 630.692 343.738 631.836 345.049 632.68C346.36 633.523 348.138 633.998 349.993 634Z" fill="#00AEEF"/>
<path d="M349.993 707C351.377 707.001 352.731 706.738 353.884 706.244C355.036 705.75 355.934 705.048 356.465 704.225C356.996 703.403 357.136 702.498 356.866 701.625C356.597 700.752 355.931 699.95 354.952 699.32C353.974 698.69 352.726 698.261 351.368 698.087C350.01 697.913 348.602 698.002 347.323 698.342C346.043 698.683 344.95 699.259 344.18 700C343.411 700.74 343 701.61 343 702.5C343.001 703.692 343.738 704.836 345.049 705.68C346.36 706.523 348.138 706.998 349.993 707Z" fill="#00AEEF"/>
<path d="M349.993 790C351.377 790.001 352.731 789.738 353.884 789.244C355.036 788.75 355.934 788.048 356.465 787.225C356.996 786.403 357.136 785.498 356.866 784.625C356.597 783.752 355.931 782.95 354.952 782.32C353.974 781.69 352.726 781.261 351.368 781.087C350.01 780.913 348.602 781.002 347.323 781.342C346.043 781.683 344.95 782.259 344.18 783C343.411 783.74 343 784.61 343 785.5C343.001 786.692 343.738 787.836 345.049 788.68C346.36 789.523 348.138 789.998 349.993 790Z" fill="#00AEEF"/>
<text fill="#FF0000" xml:space="preserve" style="white-space: pre" font-family="Harmattan" font-size="20" font-weight="bold" letter-spacing="0em"><tspan x="55" y="788.116">&#x62d;&#x636;&#x648;&#x631; &#x62f;&#x628;&#x644;&#x648;&#x645;&#x629; &#x623; &#x645;&#x62d;&#x645;&#x62f; &#x631;&#x62c;&#x628; &#x627;&#x644;&#x644;&#x645;&#x635;&#x645;&#x645; &#x627;&#x644;&#x639;&#x627;&#x644;&#x645;&#x64a;</tspan></text>
<path d="M270.275 850.364C270.219 850.11 269.972 849.952 269.742 850.013C269.605 850.074 269.501 850.162 269.442 850.264C269.383 850.366 269.373 850.477 269.413 850.583L269.456 850.771L269.887 850.661L269.46 850.775C269.475 850.852 269.513 850.926 269.572 850.993C269.613 851.045 269.666 851.103 269.724 851.171C269.948 851.405 270.146 851.649 270.319 851.902C270.449 852.124 270.721 852.191 270.924 852.052C271.032 851.961 271.101 851.853 271.125 851.738C271.149 851.624 271.129 851.507 271.065 851.4C270.863 851.092 270.626 850.794 270.355 850.51C270.314 850.465 270.308 850.487 270.299 850.48L270.275 850.364Z" fill="#FFFFFE"/>
<path d="M268.849 851.758C268.793 852.012 268.546 852.17 268.316 852.109C267.762 851.968 267.991 851.284 268.293 850.953C268.517 850.719 268.716 850.475 268.888 850.222C269.018 850 269.291 849.933 269.494 850.072C269.602 850.164 269.671 850.272 269.695 850.386C269.719 850.501 269.698 850.617 269.635 850.724C269.453 851.034 268.878 851.574 268.843 851.758H268.849Z" fill="#FFFFFE"/>
<path d="M184.448 854.443L183.423 854.5L179.558 853.305V851.27L184.448 854.443Z" fill="#EEEEEE"/>
<path fill-rule="evenodd" clip-rule="evenodd" d="M171.085 848.064C171.247 848.064 171.381 848.207 171.381 848.38V854.317H170.79V848.38C170.79 848.204 170.922 848.064 171.085 848.064Z" fill="#FFFFFE"/>
<text fill="black" xml:space="preserve" style="white-space: pre" font-family="Harmattan" font-size="14" font-weight="500" letter-spacing="0em"><tspan x="71.459" y="812.881">&#x644;&#x644;&#x645;&#x635;&#x645;&#x645; &#x627;&#x644;&#x639;&#x631;&#x628;&#x64a; &#x623; / &#x645;&#x62d;&#x645;&#x62f; &#x631;&#x62c;&#x628; &#x641;&#x64a; &#x641;&#x646; &#x627;&#x644;&#x62a;&#x635;&#x645;&#x64a;&#x645; &#x644;&#x62c;&#x631;&#x627;&#x641;&#x64a;&#x643;&#x64a;</tspan></text>
<path d="M349.993 893C351.377 893.001 352.731 892.738 353.884 892.244C355.036 891.75 355.934 891.048 356.465 890.225C356.996 889.403 357.136 888.498 356.866 887.625C356.597 886.752 355.931 885.95 354.952 885.32C353.974 884.69 352.726 884.261 351.368 884.087C350.01 883.913 348.602 884.002 347.323 884.342C346.043 884.683 344.95 885.259 344.18 886C343.411 886.74 343 887.61 343 888.5C343.001 889.692 343.738 890.836 345.049 891.68C346.36 892.523 348.138 892.998 349.993 893Z" fill="#00AEEF"/>
<text fill="#FF0000" xml:space="preserve" style="white-space: pre" font-family="Harmattan" font-size="20" font-weight="bold" letter-spacing="0em"><tspan x="86.0215" y="888.616">&#x62c;&#x627;&#x631;&#x64a; &#x627;&#x644;&#x62f;&#x631;&#x627;&#x633;&#x629; &#x627;&#x644;&#x623;&#x646; 40 &#x633;&#x627;&#x639;&#x629; &#x645;&#x639;&#x62a;&#x645;&#x62f;&#x629; &#x2028;</tspan><tspan x="190.992" y="915.616">&#x641;&#x64a;&#x2028;</tspan><tspan x="136.363" y="942.616">&#34;&#x627;&#x644;&#x630;&#x643;&#x627;&#x621; &#x627;&#x644;&#x627;&#x635;&#x637;&#x646;&#x627;&#x639;&#x64a;&#34;&#x2028;</tspan><tspan x="190.641" y="969.616">&#x645;&#x646;&#x2028;</tspan><tspan x="23.4434" y="996.616">&#x627;&#x644;&#x645;&#x639;&#x647;&#x62f; &#x627;&#x644;&#x642;&#x648;&#x645;&#x64a; &#x644;&#x644;&#x627;&#x62a;&#x635;&#x627;&#x644;&#x627;&#x62a; NTI - &#x627;&#x644;&#x62a;&#x627;&#x628;&#x639; &#x644;&#x648;&#x632;&#x627;&#x631;&#x629; &#x627;&#x644;&#x627;&#x62a;&#x635;&#x627;&#x644;&#x627;&#x62a; </tspan><tspan x="33.5312" y="1023.62">&#x648;&#x62a;&#x643;&#x646;&#x648;&#x644;&#x648;&#x62c;&#x64a;&#x627; &#x627;&#x644;&#x645;&#x639;&#x644;&#x648;&#x645;&#x627;&#x62a; &#x648;&#34;&#x645;&#x647;&#x646;&#x62f;&#x633;&#x648;&#x646; &#x645;&#x646; &#x623;&#x62c;&#x644; &#x645;&#x635;&#x631; </tspan><tspan x="148.336" y="1050.62">&#x627;&#x644;&#x645;&#x633;&#x62a;&#x62f;&#x627;&#x645;&#x629;&#34; ESE&#x2028;</tspan><tspan x="53.6289" y="1077.62">&#x648;&#x628;&#x647;&#x627; &#x634;&#x647;&#x627;&#x62f;&#x629; &#x645;&#x639;&#x62a;&#x645;&#x62f;&#x629; &#x648;&#x645;&#x648;&#x62b;&#x642;&#x647; &#x645;&#x646; &#x627;&#x644; NTI - ESE&#x2028;</tspan></text>
</svg>
