<svg width="454" height="503" viewBox="0 0 454 503" fill="none" xmlns="http://www.w3.org/2000/svg">
<path d="M244.874 378H158.874V377H244.874V378Z" fill="#00AEEF"/>
<path d="M244.874 352H158.874V351H244.874V352Z" fill="#00AEEF"/>
<path d="M244.874 427H158.874V426H244.874V427Z" fill="#00AEEF"/>
<path d="M244.874 454H158.874V453H244.874V454Z" fill="#00AEEF"/>
<path d="M244.874 401H158.874V400H244.874V401Z" fill="#00AEEF"/>
<path d="M221.475 20.0051H262.674C263.095 20.0049 263.511 20.2634 263.899 20.7658C264.287 21.2681 264.64 22.0044 264.937 22.9328C265.234 23.8611 265.47 24.9632 265.631 26.1761C265.791 27.389 265.874 28.689 265.874 30.0019V47.9949H221.475C220.877 48.0453 220.282 47.7205 219.724 47.0398C219.167 46.3591 218.658 45.3363 218.229 44.0318C217.8 42.7273 217.46 41.1675 217.227 39.4445C216.994 37.7215 216.874 35.8702 216.874 34C216.874 32.1297 216.994 30.2785 217.227 28.5555C217.46 26.8325 217.8 25.2727 218.229 23.9682C218.658 22.6637 219.167 21.6409 219.724 20.9602C220.282 20.2795 220.877 19.9547 221.475 20.0051Z" fill="#058931"/>
<path d="M90.2758 370.233C90.4302 370.267 90.5901 370.27 90.7457 370.241C90.9013 370.213 91.0496 370.153 91.1817 370.066C91.6658 369.598 92.0791 369.063 92.4086 368.476C92.7176 368.035 91.4607 367.985 91.1839 368.38C91.0876 368.518 90.9949 368.668 90.8989 368.823C90.7484 368.042 90.7616 367.238 90.9379 366.463C91.1142 365.687 91.4496 364.957 91.9229 364.318C93.5547 361.805 97.0318 360.029 100.725 359.01L99.9585 359.895C99.6908 360.203 100.783 360.528 101.05 360.223L102.446 358.615C102.67 358.357 102.041 358.205 101.798 358.178L99.3567 357.916C99.1473 357.893 98.8227 357.981 98.8897 358.157C98.9626 358.346 99.2874 358.431 99.5674 358.46L100.764 358.589C94.443 360.589 88.9968 365.046 89.8984 369.338C89.5344 369.229 89.1809 369.108 88.8381 368.977C88.6892 368.925 88.5314 368.903 88.3738 368.912C88.2163 368.921 88.0622 368.962 87.9204 369.031C87.6743 369.157 87.6051 369.389 87.8498 369.482C88.6413 369.785 89.4516 370.036 90.2758 370.233Z" fill="#00AEEF" stroke="#707070" stroke-width="0.299962"/>
<path d="M356.56 66.776C357.603 66.776 358.448 65.9307 358.448 64.888C358.448 63.8453 357.603 63 356.56 63C355.517 63 354.672 63.8453 354.672 64.888C354.672 65.9307 355.517 66.776 356.56 66.776Z" fill="#231F20"/>
<path d="M356.56 95.1256C357.603 95.1256 358.448 94.2803 358.448 93.2376C358.448 92.1949 357.603 91.3496 356.56 91.3496C355.517 91.3496 354.672 92.1949 354.672 93.2376C354.672 94.2803 355.517 95.1256 356.56 95.1256Z" fill="#231F20"/>
<path d="M356.874 278C357.979 278 358.874 277.105 358.874 276C358.874 274.895 357.979 274 356.874 274C355.769 274 354.874 274.895 354.874 276C354.874 277.105 355.769 278 356.874 278Z" fill="#231F20"/>
<path d="M354.099 353.568C355.48 353.568 356.599 352.673 356.599 351.568C356.599 350.464 355.48 349.568 354.099 349.568C352.718 349.568 351.599 350.464 351.599 351.568C351.599 352.673 352.718 353.568 354.099 353.568Z" fill="#231F20"/>
<path d="M354.099 379.568C355.48 379.568 356.599 378.673 356.599 377.568C356.599 376.464 355.48 375.568 354.099 375.568C352.718 375.568 351.599 376.464 351.599 377.568C351.599 378.673 352.718 379.568 354.099 379.568Z" fill="#231F20"/>
<path d="M354.099 404.568C355.48 404.568 356.599 403.673 356.599 402.568C356.599 401.464 355.48 400.568 354.099 400.568C352.718 400.568 351.599 401.464 351.599 402.568C351.599 403.673 352.718 404.568 354.099 404.568Z" fill="#231F20"/>
<path d="M354.099 428.568C355.48 428.568 356.599 427.673 356.599 426.568C356.599 425.464 355.48 424.568 354.099 424.568C352.718 424.568 351.599 425.464 351.599 426.568C351.599 427.673 352.718 428.568 354.099 428.568Z" fill="#231F20"/>
<path d="M354.099 455.568C355.48 455.568 356.599 454.673 356.599 453.568C356.599 452.464 355.48 451.568 354.099 451.568C352.718 451.568 351.599 452.464 351.599 453.568C351.599 454.673 352.718 455.568 354.099 455.568Z" fill="#231F20"/>
<text fill="white" xml:space="preserve" style="white-space: pre" font-family="Harmattan" font-size="15" font-weight="bold" letter-spacing="0em"><tspan x="223.874" y="36.0872">&#x627;&#x644;&#x62a;&#x648;&#x627;&#x635;&#x644;</tspan></text>
<path d="M356.56 95.1256C357.603 95.1256 358.448 94.2803 358.448 93.2376C358.448 92.1949 357.603 91.3496 356.56 91.3496C355.517 91.3496 354.672 92.1949 354.672 93.2376C354.672 94.2803 355.517 95.1256 356.56 95.1256Z" fill="#231F20"/>
<text fill="#058931" xml:space="preserve" style="white-space: pre" font-family="Bahij TheSansArabic" font-size="12" font-weight="500" letter-spacing="0em"><tspan x="247.874" y="98.4717">01065606206</tspan></text>
<text fill="#058931" xml:space="preserve" style="white-space: pre" font-family="Bahij TheSansArabic" font-size="8" font-weight="500" letter-spacing="0em"><tspan x="179.874" y="68.8115">mostafa.said.abdelwahab@outlook.com</tspan></text>
<path d="M334.379 69.3409C334.379 69.6592 334.505 69.9644 334.73 70.1895C334.955 70.4145 335.261 70.5409 335.579 70.5409H345.793C346.111 70.5409 346.416 70.4145 346.641 70.1895C346.866 69.9644 346.993 69.6592 346.993 69.3409V60.3279C346.993 60.0097 346.866 59.7044 346.641 59.4794C346.416 59.2544 346.111 59.1279 345.793 59.1279H335.579C335.261 59.1279 334.955 59.2544 334.73 59.4794C334.505 59.7044 334.379 60.0097 334.379 60.3279V69.3409Z" fill="#03A9F4"/>
<path d="M346.995 60.9147V60.3287C346.995 60.0814 346.918 59.8402 346.775 59.6387L340.008 63.8027L335.477 61.0027L335.055 62.1277L340.137 65.1277L346.995 60.9147Z" fill="#B3E5FC"/>
<path d="M337.983 75.624L325.367 73.221V56.4L337.983 54V75.624Z" fill="#0277BD"/>
<path d="M334.509 61.7168C334.19 61.342 333.791 61.044 333.34 60.8451C332.89 60.6461 332.401 60.5513 331.909 60.5678C331.392 60.5484 330.877 60.6463 330.403 60.8541C329.93 61.0619 329.509 61.3743 329.173 61.7678C328.456 62.6573 328.088 63.7783 328.14 64.9198C328.09 66.0117 328.453 67.0825 329.155 67.9198C329.481 68.2942 329.886 68.5915 330.341 68.7904C330.796 68.9893 331.289 69.0847 331.785 69.0698C332.294 69.0872 332.799 68.9895 333.265 68.7839C333.73 68.5784 334.143 68.2704 334.473 67.8828C335.191 67.005 335.557 65.8923 335.502 64.7598C335.555 63.6581 335.202 62.5752 334.509 61.7168ZM333.209 66.7778C333.049 66.9942 332.84 67.1697 332.599 67.2899C332.358 67.4101 332.092 67.4717 331.823 67.4696C331.553 67.4676 331.289 67.402 331.049 67.2781C330.81 67.1542 330.604 66.9756 330.447 66.7568C330.07 66.1866 329.887 65.5103 329.924 64.8278C329.891 64.1433 330.074 63.4655 330.447 62.8908C330.603 62.6604 330.814 62.473 331.061 62.3457C331.309 62.2185 331.584 62.1556 331.862 62.1628C332.131 62.1544 332.397 62.215 332.636 62.3387C332.874 62.4625 333.077 62.6454 333.225 62.8698C333.591 63.4663 333.765 64.1604 333.725 64.8588C333.764 65.5376 333.582 66.2107 333.207 66.7778H333.209Z" fill="white"/>
<path d="M336.874 103C342.397 103 346.874 98.5228 346.874 93C346.874 87.4772 342.397 83 336.874 83C331.351 83 326.874 87.4772 326.874 93C326.874 98.5228 331.351 103 336.874 103Z" fill="#10EC00"/>
<path d="M341.107 93.7191C341.077 93.7049 339.97 93.1599 339.773 93.0891C339.691 93.0555 339.604 93.0363 339.516 93.0324C339.44 93.0338 339.366 93.0549 339.3 93.0936C339.235 93.1324 339.181 93.1874 339.143 93.2533C339.032 93.4199 338.698 93.8091 338.595 93.9258C338.582 93.9416 338.563 93.9599 338.552 93.9599C338.54 93.9599 338.371 93.8891 338.318 93.8666C337.424 93.4129 336.662 92.7361 336.107 91.9016C336.098 91.8885 336.092 91.8738 336.088 91.8583C336.106 91.8298 336.128 91.804 336.153 91.7816C336.213 91.7216 336.279 91.6433 336.342 91.5674C336.372 91.5316 336.402 91.4949 336.432 91.4616C336.505 91.3756 336.565 91.2797 336.612 91.1766L336.637 91.1266C336.674 91.0506 336.693 90.9666 336.69 90.8818C336.687 90.7971 336.664 90.7143 336.622 90.6408C336.596 90.5883 336.128 89.4608 336.078 89.3424C335.959 89.0566 335.801 88.9258 335.578 88.9258C335.558 88.9258 335.578 88.9258 335.495 88.9258C335.178 88.9491 334.867 89.0292 334.578 89.1624C334.335 89.3573 334.142 89.6084 334.017 89.8941C333.893 90.1797 333.839 90.4914 333.861 90.8024C333.914 91.5132 334.181 92.1912 334.627 92.7474L334.658 92.7933C335.408 93.9684 336.482 94.901 337.751 95.4783C338.337 95.7564 338.971 95.9185 339.618 95.9558C339.72 95.955 339.821 95.9488 339.922 95.9374L339.977 95.9324C340.262 95.8827 340.532 95.7706 340.769 95.604C341.006 95.4375 341.203 95.2207 341.346 94.9691C341.487 94.6521 341.516 94.2966 341.429 93.9608C341.348 93.8503 341.236 93.7662 341.107 93.7191Z" fill="white"/>
<path d="M337.599 85C335.63 84.9947 333.739 85.7708 332.341 87.1581C330.943 88.5454 330.152 90.4306 330.143 92.4C330.142 93.7166 330.495 95.0092 331.165 96.1425L329.884 99.9167C329.873 99.9515 329.871 99.9889 329.879 100.025C329.888 100.06 329.906 100.093 329.932 100.119C329.958 100.145 329.991 100.163 330.026 100.172C330.062 100.18 330.099 100.178 330.134 100.167L334.073 98.9167C335.206 99.5203 336.475 99.8219 337.758 99.7925C339.041 99.763 340.294 99.4035 341.398 98.7486C342.501 98.0937 343.418 97.1655 344.058 96.0535C344.698 94.9415 345.042 93.6832 345.054 92.4C345.045 90.4309 344.254 88.546 342.857 87.1587C341.459 85.7715 339.568 84.9951 337.599 85ZM337.599 98.2584C336.444 98.2599 335.315 97.923 334.349 97.2892C334.325 97.2733 334.297 97.2629 334.269 97.2589C334.24 97.2549 334.21 97.2572 334.183 97.2659L332.207 97.8942L332.843 96.015C332.854 95.9849 332.857 95.9526 332.852 95.9209C332.848 95.8893 332.836 95.8592 332.817 95.8334C332.085 94.8385 331.691 93.6352 331.693 92.4C331.683 91.23 332.022 90.0835 332.665 89.1061C333.308 88.1286 334.227 87.3643 335.305 86.91C336.384 86.4557 337.572 86.332 338.721 86.5544C339.87 86.7769 340.927 87.3356 341.757 88.1596C342.588 88.9837 343.155 90.0359 343.387 91.1828C343.619 92.3297 343.505 93.5196 343.059 94.6015C342.614 95.6834 341.857 96.6086 340.884 97.2597C339.912 97.9107 338.769 98.2583 337.599 98.2584Z" fill="white"/>
<path d="M220.202 144H347.085C349.698 144 352.205 145.038 354.053 146.886C355.901 148.734 356.939 151.241 356.939 153.854V171.59H220.202C216.544 171.59 213.035 170.137 210.447 167.552C207.86 164.966 206.405 161.458 206.402 157.8C206.402 154.14 207.856 150.63 210.444 148.042C213.032 145.454 216.542 144 220.202 144Z" fill="#00AEEF"/>
<text fill="white" xml:space="preserve" style="white-space: pre" font-family="Harmattan" font-size="15" letter-spacing="0em"><tspan x="223.874" y="161.087">&#x625;&#x62a;&#x642;&#x627;&#x646; &#x627;&#x633;&#x62a;&#x62e;&#x62f;&#x627;&#x645; &#x627;&#x644;&#x643;&#x645;&#x628;&#x64a;&#x648;&#x62a;&#x631;</tspan></text>
<path d="M355 272.438H254V279.438H355V272.438Z" fill="#949598"/>
<path d="M348 272.438H254V279.438H348V272.438Z" fill="#00AEEF"/>
<path d="M349.985 271C351.017 271 352.006 271.479 352.735 272.333C353.464 273.186 353.874 274.343 353.874 275.55V276.446C353.874 277.044 353.774 277.636 353.579 278.189C353.384 278.741 353.097 279.243 352.736 279.666C352.375 280.089 351.946 280.424 351.474 280.653C351.002 280.882 350.496 281 349.985 281C349.576 281 349.172 280.906 348.794 280.723C348.416 280.539 348.073 280.271 347.784 279.933C347.495 279.594 347.266 279.192 347.11 278.75C346.954 278.308 346.874 277.834 346.874 277.356V274.64C346.874 273.675 347.202 272.749 347.785 272.066C348.369 271.384 349.16 271 349.985 271Z" fill="black"/>
<path d="M356.874 277C357.979 277 358.874 276.105 358.874 275C358.874 273.895 357.979 273 356.874 273C355.769 273 354.874 273.895 354.874 275C354.874 276.105 355.769 277 356.874 277Z" fill="#231F20"/>
<path d="M355 183.438H254V190.438H355V183.438Z" fill="#949598"/>
<path d="M355 206.438H254V212.437H355V206.438Z" fill="#949598"/>
<path d="M355 227.438H254V232.438H355V227.438Z" fill="#949598"/>
<path d="M355 250.438H254V256.437H355V250.438Z" fill="#949598"/>
<path d="M348 183.438H254V190.438H348V183.438Z" fill="#00AEEF"/>
<path d="M329 206.438H254V212.437H329V206.438Z" fill="#00AEEF"/>
<path d="M318 227.438H254V232.438H318V227.438Z" fill="#00AEEF"/>
<path d="M318 250.438H254V256.437H318V250.438Z" fill="#00AEEF"/>
<path d="M356.874 189C357.979 189 358.874 188.105 358.874 187C358.874 185.895 357.979 185 356.874 185C355.769 185 354.874 185.895 354.874 187C354.874 188.105 355.769 189 356.874 189Z" fill="#231F20"/>
<path d="M357 211.438C358.105 211.438 359 210.542 359 209.438C359 208.333 358.105 207.438 357 207.438C355.895 207.438 355 208.333 355 209.438C355 210.542 355.895 211.438 357 211.438Z" fill="#231F20"/>
<path d="M346.111 181.438C347.143 181.438 348.132 181.917 348.861 182.77C349.59 183.623 350 184.781 350 185.988V186.884C350 187.482 349.9 188.074 349.705 188.626C349.51 189.179 349.223 189.681 348.862 190.104C348.501 190.526 348.072 190.862 347.6 191.091C347.128 191.32 346.622 191.438 346.111 191.438C345.702 191.438 345.298 191.343 344.92 191.16C344.542 190.977 344.199 190.708 343.91 190.37C343.621 190.032 343.392 189.63 343.236 189.188C343.08 188.746 343 188.272 343 187.794V185.078C343 184.112 343.328 183.186 343.911 182.504C344.495 181.821 345.286 181.438 346.111 181.438Z" fill="black"/>
<path d="M329.111 204.438C330.143 204.438 331.132 204.869 331.861 205.637C332.59 206.405 333 207.446 333 208.533V209.339C333 209.877 332.9 210.41 332.705 210.907C332.51 211.405 332.223 211.856 331.862 212.237C331.501 212.618 331.072 212.919 330.6 213.125C330.128 213.331 329.622 213.438 329.111 213.438C328.702 213.438 328.298 213.353 327.92 213.188C327.542 213.023 327.199 212.781 326.91 212.477C326.621 212.172 326.392 211.811 326.236 211.413C326.08 211.015 326 210.589 326 210.158V207.714C326 206.845 326.328 206.011 326.911 205.397C327.495 204.783 328.286 204.438 329.111 204.438Z" fill="black"/>
<path d="M320.985 225.438C322.017 225.438 323.006 225.869 323.735 226.637C324.464 227.405 324.874 228.446 324.874 229.533V230.339C324.874 230.877 324.774 231.41 324.579 231.907C324.384 232.405 324.097 232.856 323.736 233.237C323.375 233.618 322.946 233.919 322.474 234.125C322.002 234.331 321.496 234.438 320.985 234.438C320.576 234.438 320.172 234.353 319.794 234.188C319.416 234.023 319.073 233.781 318.784 233.477C318.495 233.172 318.266 232.811 318.11 232.413C317.954 232.015 317.874 231.589 317.874 231.158V228.714C317.874 227.845 318.202 227.011 318.785 226.397C319.369 225.783 320.16 225.438 320.985 225.438Z" fill="black"/>
<path d="M318.985 248.438C320.017 248.438 321.006 248.917 321.735 249.77C322.464 250.623 322.874 251.781 322.874 252.988V253.884C322.874 254.482 322.774 255.074 322.579 255.626C322.384 256.179 322.097 256.681 321.736 257.104C321.375 257.526 320.946 257.862 320.474 258.091C320.002 258.32 319.496 258.438 318.985 258.438C318.576 258.438 318.172 258.343 317.794 258.16C317.416 257.977 317.073 257.708 316.784 257.37C316.495 257.032 316.266 256.63 316.11 256.188C315.954 255.746 315.874 255.272 315.874 254.794V252.078C315.874 251.112 316.202 250.186 316.785 249.504C317.369 248.821 318.16 248.438 318.985 248.438Z" fill="black"/>
<path d="M357 232.438C358.105 232.438 359 231.318 359 229.938C359 228.557 358.105 227.438 357 227.438C355.895 227.438 355 228.557 355 229.938C355 231.318 355.895 232.438 357 232.438Z" fill="#231F20"/>
<path d="M357 255.438C358.105 255.438 359 254.542 359 253.438C359 252.333 358.105 251.438 357 251.438C355.895 251.438 355 252.333 355 253.438C355 254.542 355.895 255.438 357 255.438Z" fill="#231F20"/>
<text fill="#FF0040" xml:space="preserve" style="white-space: pre" font-family="Bahij TheSansArabic" font-size="13" font-weight="500" letter-spacing="0em"><tspan x="85" y="191.698">Microsoft Word</tspan></text>
<text fill="#FF0040" xml:space="preserve" style="white-space: pre" font-family="Bahij TheSansArabic" font-size="13" font-weight="500" letter-spacing="0em"><tspan x="86" y="214.698">Microsoft Excel</tspan></text>
<text fill="#FF0040" xml:space="preserve" style="white-space: pre" font-family="Bahij TheSansArabic" font-size="13" font-weight="500" letter-spacing="0em"><tspan x="86" y="235.698">Microsoft Excel VBA</tspan></text>
<text fill="#FF0040" xml:space="preserve" style="white-space: pre" font-family="Bahij TheSansArabic" font-size="13" font-weight="500" letter-spacing="0em"><tspan x="86" y="258.698">Microsoft PowerPoint </tspan></text>
<text fill="#FF0040" xml:space="preserve" style="white-space: pre" font-family="Harmattan" font-size="14" font-weight="bold" letter-spacing="-0.05em"><tspan x="86.3818" y="278.881">&#x627;&#x644;&#x643;&#x62a;&#x627;&#x628;&#x629; &#x627;&#x644;&#x633;&#x631;&#x64a;&#x639;&#x647; &#x639;&#x644;&#x64a; &#x644;&#x648;&#x62d;&#x629; &#x627;&#x644;&#x645;&#x641;&#x627;&#x62a;&#x64a;&#x62d;</tspan></text>
<path d="M217.45 304H346.428C347.608 304 348.776 304.232 349.866 304.684C350.956 305.135 351.946 305.797 352.78 306.631C353.614 307.465 354.276 308.455 354.727 309.545C355.179 310.635 355.411 311.803 355.411 312.983V329.152H217.45C214.115 329.152 210.916 327.827 208.557 325.469C206.199 323.11 204.874 319.911 204.874 316.576C204.874 313.241 206.199 310.042 208.557 307.683C210.916 305.325 214.115 304 217.45 304Z" fill="#00AEEF"/>
<text fill="white" xml:space="preserve" style="white-space: pre" font-family="Harmattan" font-size="15" font-weight="bold" letter-spacing="0em"><tspan x="269.011" y="320.087">&#x627;&#x644;&#x628;&#x631;&#x645;&#x62c;&#x629;</tspan></text>
<text fill="#FF0040" xml:space="preserve" style="white-space: pre" font-family="Bahij TheSansArabic" font-size="13" font-weight="500" letter-spacing="0em"><tspan x="86.9072" y="358.261">DART</tspan></text>
<text fill="#FF0040" xml:space="preserve" style="white-space: pre" font-family="Bahij TheSansArabic" font-size="13" font-weight="500" letter-spacing="0em"><tspan x="92.9502" y="382.261">LUTTER</tspan></text>
<text fill="#00BBFF" xml:space="preserve" style="white-space: pre" font-family="Bahij TheSansArabic" font-size="13" font-weight="500" letter-spacing="0em"><tspan x="86.9072" y="382.261">F</tspan></text>
<text fill="#FF0040" xml:space="preserve" style="white-space: pre" font-family="Bahij TheSansArabic" font-size="13" font-weight="500" letter-spacing="0em"><tspan x="86.9072" y="403.261">C#</tspan></text>
<text fill="#FF0040" xml:space="preserve" style="white-space: pre" font-family="Bahij TheSansArabic" font-size="13" font-weight="500" letter-spacing="0em"><tspan x="86.9072" y="430.261">Visual Basic</tspan></text>
<text fill="#FF0040" xml:space="preserve" style="white-space: pre" font-family="Bahij TheSansArabic" font-size="13" font-weight="500" letter-spacing="0em"><tspan x="86.9072" y="456.261">Python </tspan></text>
<path d="M349.599 348.568H253.599V354.568H349.599V348.568Z" fill="#949598"/>
<path d="M349.599 374.568H253.599V380.568H349.599V374.568Z" fill="#949598"/>
<path d="M349.599 399.568H253.599V405.568H349.599V399.568Z" fill="#949598"/>
<path d="M349.599 423.568H253.599V428.568H349.599V423.568Z" fill="#949598"/>
<path d="M349.599 450.568H253.599V455.568H349.599V450.568Z" fill="#949598"/>
<path d="M308.599 348.568H253.599V354.568H308.599V348.568Z" fill="#00AEEF"/>
<path d="M318.599 374.568H253.599V380.568H318.599V374.568Z" fill="#00AEEF"/>
<path d="M301.599 399.568H253.599V405.568H301.599V399.568Z" fill="#00AEEF"/>
<path d="M303.599 423.568H253.599V428.568H303.599V423.568Z" fill="#00AEEF"/>
<path d="M282.599 450.568H253.599V455.568H282.599V450.568Z" fill="#00AEEF"/>
<path d="M312.599 347.568C313.925 347.568 315.197 347.952 316.135 348.634C317.072 349.317 317.599 350.243 317.599 351.208V351.925C317.6 352.404 317.471 352.877 317.22 353.319C316.969 353.761 316.6 354.163 316.136 354.501C315.672 354.84 315.12 355.108 314.514 355.291C313.907 355.474 313.256 355.568 312.599 355.568C312.074 355.568 311.553 355.493 311.068 355.346C310.582 355.2 310.141 354.985 309.769 354.714C309.398 354.444 309.103 354.122 308.902 353.769C308.702 353.415 308.599 353.036 308.599 352.653V350.481C308.599 349.708 309.021 348.967 309.771 348.421C310.521 347.875 311.538 347.568 312.599 347.568Z" fill="black"/>
<path d="M317.599 373.568C318.925 373.568 320.197 373.952 321.135 374.634C322.072 375.317 322.599 376.243 322.599 377.208V377.925C322.6 378.404 322.471 378.877 322.22 379.319C321.969 379.761 321.6 380.163 321.136 380.501C320.672 380.84 320.12 381.108 319.514 381.291C318.907 381.474 318.256 381.568 317.599 381.568C317.074 381.568 316.553 381.493 316.068 381.346C315.582 381.2 315.141 380.985 314.769 380.714C314.398 380.444 314.103 380.122 313.902 379.769C313.702 379.415 313.599 379.036 313.599 378.653V376.481C313.599 375.708 314.021 374.967 314.771 374.421C315.521 373.875 316.538 373.568 317.599 373.568Z" fill="black"/>
<path d="M296.599 397.568C297.925 397.568 299.197 398 300.135 398.768C301.072 399.536 301.599 400.577 301.599 401.663V402.47C301.6 403.008 301.471 403.541 301.22 404.038C300.969 404.535 300.6 404.987 300.136 405.368C299.672 405.748 299.12 406.05 298.514 406.256C297.907 406.462 297.256 406.568 296.599 406.568C296.074 406.568 295.553 406.484 295.068 406.319C294.582 406.154 294.141 405.912 293.769 405.608C293.398 405.303 293.103 404.941 292.902 404.544C292.702 404.146 292.599 403.719 292.599 403.289V400.845C292.599 399.976 293.021 399.142 293.771 398.528C294.521 397.914 295.538 397.568 296.599 397.568Z" fill="black"/>
<path d="M304.044 421.568C305.517 421.568 306.93 422 307.972 422.768C309.014 423.536 309.599 424.577 309.599 425.663V426.47C309.6 427.008 309.456 427.541 309.178 428.038C308.899 428.535 308.489 428.987 307.974 429.368C307.458 429.748 306.845 430.05 306.171 430.256C305.496 430.462 304.774 430.568 304.044 430.568C303.46 430.568 302.881 430.484 302.342 430.319C301.802 430.154 301.312 429.912 300.899 429.608C300.487 429.303 300.159 428.941 299.936 428.544C299.713 428.146 299.599 427.719 299.599 427.289V424.845C299.599 423.976 300.067 423.142 300.901 422.528C301.734 421.914 302.865 421.568 304.044 421.568Z" fill="black"/>
<path d="M279.599 448.568C280.925 448.568 282.197 449 283.135 449.768C284.072 450.536 284.599 451.577 284.599 452.663V453.47C284.6 454.008 284.471 454.541 284.22 455.038C283.969 455.535 283.6 455.987 283.136 456.368C282.672 456.748 282.12 457.05 281.514 457.256C280.907 457.462 280.256 457.568 279.599 457.568C279.074 457.568 278.553 457.484 278.068 457.319C277.582 457.154 277.141 456.912 276.769 456.608C276.398 456.303 276.103 455.941 275.902 455.544C275.702 455.146 275.599 454.719 275.599 454.289V451.845C275.599 450.976 276.021 450.142 276.771 449.528C277.521 448.914 278.538 448.568 279.599 448.568Z" fill="black"/>
<path d="M354.099 353.568C355.48 353.568 356.599 352.673 356.599 351.568C356.599 350.464 355.48 349.568 354.099 349.568C352.718 349.568 351.599 350.464 351.599 351.568C351.599 352.673 352.718 353.568 354.099 353.568Z" fill="#231F20"/>
<path d="M354.099 379.568C355.48 379.568 356.599 378.673 356.599 377.568C356.599 376.464 355.48 375.568 354.099 375.568C352.718 375.568 351.599 376.464 351.599 377.568C351.599 378.673 352.718 379.568 354.099 379.568Z" fill="#231F20"/>
<path d="M354.099 404.568C355.48 404.568 356.599 403.673 356.599 402.568C356.599 401.464 355.48 400.568 354.099 400.568C352.718 400.568 351.599 401.464 351.599 402.568C351.599 403.673 352.718 404.568 354.099 404.568Z" fill="#231F20"/>
<path d="M354.099 427.568C355.48 427.568 356.599 426.673 356.599 425.568C356.599 424.464 355.48 423.568 354.099 423.568C352.718 423.568 351.599 424.464 351.599 425.568C351.599 426.673 352.718 427.568 354.099 427.568Z" fill="#231F20"/>
<path d="M354.099 454.568C355.48 454.568 356.599 453.673 356.599 452.568C356.599 451.464 355.48 450.568 354.099 450.568C352.718 450.568 351.599 451.464 351.599 452.568C351.599 453.673 352.718 454.568 354.099 454.568Z" fill="#231F20"/>
<path d="M265.869 460.364C265.813 460.11 265.566 459.952 265.336 460.013C265.2 460.074 265.095 460.162 265.036 460.264C264.977 460.366 264.967 460.477 265.008 460.583L265.05 460.771L265.481 460.661L265.054 460.775C265.069 460.852 265.108 460.926 265.166 460.993C265.207 461.045 265.26 461.103 265.318 461.171C265.542 461.405 265.741 461.649 265.913 461.902C266.043 462.124 266.315 462.191 266.518 462.052C266.626 461.961 266.695 461.853 266.72 461.738C266.744 461.624 266.723 461.507 266.659 461.4C266.457 461.092 266.22 460.794 265.949 460.51C265.908 460.465 265.902 460.487 265.893 460.48L265.869 460.364Z" fill="#FFFFFE"/>
<path d="M264.443 461.758C264.387 462.012 264.14 462.17 263.91 462.109C263.356 461.968 263.585 461.284 263.888 460.953C264.112 460.719 264.31 460.475 264.483 460.222C264.613 460 264.885 459.933 265.088 460.072C265.196 460.164 265.265 460.272 265.289 460.386C265.313 460.501 265.293 460.617 265.229 460.724C265.047 461.034 264.472 461.574 264.437 461.758H264.443Z" fill="#FFFFFE"/>
<path d="M355.572 45C359.614 45 363.564 44.2083 366.925 42.7249C370.285 41.2415 372.905 39.133 374.451 36.6662C375.998 34.1994 376.403 31.485 375.614 28.8663C374.826 26.2475 372.879 23.8421 370.022 21.9541C367.164 20.0661 363.523 18.7803 359.559 18.2594C355.595 17.7385 351.486 18.0058 347.752 19.0276C344.018 20.0494 340.826 21.7798 338.581 23.9998C336.336 26.2199 335.137 28.83 335.137 31.5C335.137 35.0804 337.29 38.5142 341.122 41.0459C344.955 43.5777 350.152 45 355.572 45Z" fill="#14903D"/>
<path d="M355.572 44.5C359.464 44.5 363.268 43.7376 366.504 42.3091C369.74 40.8807 372.263 38.8503 373.752 36.4749C375.241 34.0995 375.631 31.4856 374.872 28.9638C374.113 26.4421 372.238 24.1257 369.486 22.3076C366.734 20.4895 363.228 19.2514 359.411 18.7498C355.594 18.2482 351.637 18.5056 348.042 19.4896C344.446 20.4735 341.373 22.1398 339.21 24.2776C337.048 26.4154 335.894 28.9289 335.894 31.5C335.894 34.9478 337.967 38.2544 341.658 40.6924C345.348 43.1304 350.353 44.5 355.572 44.5Z" stroke="#707070"/>
<path d="M347.332 23.9888H368.417C368.85 24.0211 369.247 24.1642 369.522 24.3874C369.797 24.6106 369.928 24.8962 369.888 25.1828V37.8548C369.891 38.0887 369.803 38.3192 369.634 38.5248C369.605 38.5866 369.557 38.644 369.495 38.6938C369.456 38.7245 369.409 38.7508 369.357 38.7718C369.236 38.8565 369.091 38.9244 368.93 38.9718C368.769 39.0198 368.594 39.0457 368.417 39.0478H355.94C356.03 38.746 356.066 38.4382 356.046 38.1308H368.042L360.208 31.4548L357.622 33.2438C357.576 33.277 357.52 33.3036 357.458 33.3218C357.396 33.3403 357.329 33.3498 357.261 33.3498C357.192 33.3498 357.125 33.3403 357.063 33.3218C357.001 33.3036 356.945 33.277 356.899 33.2438L354.187 31.4548L351.726 33.4548C351.4 33.2732 351.018 33.1417 350.606 33.0698L353.309 30.8698L348.296 27.5568C348.275 27.3202 348.217 27.0856 348.123 26.8568L347.922 26.1378L357.248 32.3078L367.945 24.9078H347.593L347.332 23.9888ZM343.093 29.7608C343.326 30.8106 343.729 31.8409 344.295 32.8338C344.93 33.9205 345.824 34.9333 346.943 35.8338C346.977 35.8654 347.022 35.8905 347.076 35.9068C347.129 35.9229 347.187 35.9298 347.245 35.9268C347.429 35.9078 347.603 35.8605 347.754 35.7888C347.942 35.7045 348.12 35.6109 348.287 35.5088C349.084 35.0598 350.065 34.5008 350.901 35.1278C350.917 35.1421 350.934 35.1558 350.952 35.1688L353.606 37.5478C353.615 37.5568 353.624 37.5658 353.631 37.5748C353.787 37.7533 353.885 37.9509 353.919 38.1555C353.954 38.36 353.924 38.5671 353.833 38.7638C353.639 39.2042 353.297 39.6099 352.832 39.9508C352.314 40.3436 351.596 40.5973 350.814 40.6638C350.111 40.7162 349.4 40.6884 348.71 40.5818C347.64 40.4277 346.648 40.0916 345.834 39.6068C344.88 39.0303 344.038 38.3773 343.329 37.6628L343.269 37.6028C342.883 37.2318 342.467 36.8338 342.077 36.3908C340.511 34.5457 339.44 32.5354 338.912 30.4488C338.401 28.745 338.606 26.9812 339.504 25.3488C339.903 24.5859 340.718 23.9487 341.79 23.5618C342.281 23.4175 342.818 23.3539 343.355 23.3765C343.892 23.3992 344.412 23.5073 344.872 23.6918C344.942 23.7181 345.001 23.755 345.046 23.7995C345.09 23.8441 345.117 23.8949 345.126 23.9478L346.068 27.3698C346.155 27.5352 346.183 27.712 346.148 27.8858C346.113 28.0597 346.016 28.2257 345.865 28.3698C345.585 28.6078 345.206 28.7867 344.775 28.8848C344.618 28.9367 344.457 28.9828 344.292 29.0228C343.715 29.1758 343.057 29.3548 343.09 29.7748L343.093 29.7608ZM361.053 30.8608L368.741 37.4018V25.5508L361.065 30.8698L361.053 30.8608Z" fill="white"/>
<path d="M357.873 132.958C361.72 132.958 365.482 132.204 368.681 130.792C371.88 129.38 374.373 127.373 375.846 125.024C377.318 122.676 377.704 120.092 376.953 117.599C376.202 115.106 374.349 112.816 371.629 111.018C368.908 109.221 365.442 107.997 361.668 107.501C357.894 107.005 353.983 107.259 350.428 108.232C346.873 109.205 343.835 110.852 341.698 112.966C339.56 115.079 338.419 117.564 338.419 120.106C338.419 123.514 340.469 126.783 344.117 129.194C347.765 131.604 352.713 132.958 357.873 132.958Z" fill="#00AEEF" stroke="#707070"/>
<path d="M359.259 121.367H359.233L358.339 120.685C359.21 120.908 360.178 120.908 361.05 120.685L360.141 121.367H360.125L362.327 124.885L364.339 123.122L366.57 124.23L367.973 122.84C366.481 121.607 364.425 120.726 362.112 120.33C363.015 119.899 363.754 119.337 364.274 118.687C364.793 118.036 365.079 117.316 365.108 116.581C365.108 115.631 364.537 114.72 363.52 114.049C362.504 113.377 361.125 113 359.688 113C358.251 113 356.872 113.377 355.856 114.049C354.839 114.72 354.268 115.631 354.268 116.581C354.298 117.316 354.584 118.037 355.105 118.687C355.626 119.337 356.366 119.899 357.27 120.33C353.032 121.04 349.874 123.474 349.874 125.28C349.874 126.347 354.781 126.88 359.687 126.88L356.94 125.062L359.259 121.367Z" fill="white"/>
</svg>
