<svg width="454" height="227" viewBox="0 0 454 227" fill="none" xmlns="http://www.w3.org/2000/svg">
<path d="M220.439 33H349.417C350.596 33 351.765 33.2324 352.854 33.6838C353.944 34.1352 354.935 34.7969 355.769 35.6311C356.603 36.4652 357.265 37.4555 357.716 38.5454C358.167 39.6352 358.4 40.8033 358.4 41.983V58.152H220.439C217.103 58.152 213.905 56.827 211.546 54.4686C209.188 52.1101 207.863 48.9114 207.863 45.576C207.863 42.2406 209.188 39.0419 211.546 36.6834C213.905 34.325 217.103 33 220.439 33Z" fill="#00AEEF"/>
<text fill="white" xml:space="preserve" style="white-space: pre" font-family="Harmattan" font-size="15" font-weight="bold" letter-spacing="0em"><tspan x="235" y="49.0872">&#x645;&#x647;&#x627;&#x631;&#x629; &#x627;&#x644;&#x62a;&#x635;&#x645;&#x64a;&#x645; &#x627;&#x644;&#x62c;&#x631;&#x627;&#x641;&#x64a;&#x643;</tspan></text>
<path d="M358.192 53.668C359.573 53.668 360.692 52.9964 360.692 52.168C360.692 51.3395 359.573 50.668 358.192 50.668C356.811 50.668 355.692 51.3395 355.692 52.168C355.692 52.9964 356.811 53.668 358.192 53.668Z" fill="#231F20"/>
<path d="M358.192 85.668C359.573 85.668 360.692 84.9964 360.692 84.168C360.692 83.3395 359.573 82.668 358.192 82.668C356.811 82.668 355.692 83.3395 355.692 84.168C355.692 84.9964 356.811 85.668 358.192 85.668Z" fill="#231F20"/>
<path d="M358.192 68.668C359.573 68.668 360.692 67.9964 360.692 67.168C360.692 66.3395 359.573 65.668 358.192 65.668C356.811 65.668 355.692 66.3395 355.692 67.168C355.692 67.9964 356.811 68.668 358.192 68.668Z" fill="#231F20"/>
<path d="M358.192 105.668C359.573 105.668 360.692 104.996 360.692 104.168C360.692 103.34 359.573 102.668 358.192 102.668C356.811 102.668 355.692 103.34 355.692 104.168C355.692 104.996 356.811 105.668 358.192 105.668Z" fill="#231F20"/>
<path d="M358.192 124.668C359.573 124.668 360.692 123.996 360.692 123.168C360.692 122.34 359.573 121.668 358.192 121.668C356.811 121.668 355.692 122.34 355.692 123.168C355.692 123.996 356.811 124.668 358.192 124.668Z" fill="#231F20"/>
<path d="M358.192 142.668C359.573 142.668 360.692 141.996 360.692 141.168C360.692 140.34 359.573 139.668 358.192 139.668C356.811 139.668 355.692 140.34 355.692 141.168C355.692 141.996 356.811 142.668 358.192 142.668Z" fill="#231F20"/>
<path d="M353.692 106.668H257.692V111.668H353.692V106.668Z" fill="#949598"/>
<path d="M353.692 89.668H257.692V94.668H353.692V89.668Z" fill="#949598"/>
<path d="M353.692 126.668H257.692V131.668H353.692V126.668Z" fill="#949598"/>
<path d="M353.692 145.668H257.692V150.668H353.692V145.668Z" fill="#949598"/>
<path d="M353.692 163.668H257.692V168.668H353.692V163.668Z" fill="#949598"/>
<path d="M353.692 73.668H257.692V78.668H353.692V73.668Z" fill="#949598"/>
<path d="M336.692 106.668H257.692V111.668H336.692V106.668Z" fill="#00AEEF"/>
<path d="M336.692 89.668H257.692V94.668H336.692V89.668Z" fill="#00AEEF"/>
<path d="M345.692 89.668H257.692V94.668H345.692V89.668Z" fill="#00AEEF"/>
<path d="M319.692 126.668H257.692V131.668H319.692V126.668Z" fill="#00AEEF"/>
<path d="M335.692 145.668H257.692V150.668H335.692V145.668Z" fill="#00AEEF"/>
<path d="M335.692 163.668H257.692V168.668H335.692V163.668Z" fill="#00AEEF"/>
<path d="M334.692 73.668H257.692V78.668H334.692V73.668Z" fill="#00AEEF"/>
<path d="M334.137 105.668C335.61 105.668 337.023 106.051 338.065 106.734C339.107 107.417 339.692 108.343 339.692 109.308V110.025C339.692 110.503 339.549 110.977 339.27 111.419C338.991 111.861 338.582 112.262 338.066 112.601C337.55 112.939 336.938 113.208 336.263 113.391C335.589 113.574 334.866 113.668 334.137 113.668C333.552 113.668 332.974 113.593 332.435 113.446C331.895 113.299 331.405 113.085 330.992 112.814C330.579 112.543 330.252 112.222 330.029 111.868C329.806 111.515 329.691 111.136 329.692 110.753V108.58C329.692 107.808 330.16 107.067 330.994 106.521C331.827 105.975 332.958 105.668 334.137 105.668Z" fill="black"/>
<path d="M347.692 63.668C349.018 63.668 350.29 64.0515 351.227 64.7341C352.165 65.4167 352.692 66.3426 352.692 67.308V68.025C352.692 68.5033 352.563 68.9769 352.312 69.4189C352.061 69.8609 351.693 70.2625 351.229 70.6008C350.765 70.9391 350.213 71.2075 349.606 71.3906C348.999 71.5737 348.349 71.668 347.692 71.668C347.166 71.668 346.646 71.5925 346.16 71.446C345.675 71.2995 345.234 71.0847 344.862 70.814C344.491 70.5432 344.196 70.2219 343.995 69.8682C343.794 69.5145 343.691 69.1355 343.692 68.7528V66.5802C343.692 65.8078 344.113 65.0671 344.864 64.5209C345.614 63.9748 346.631 63.668 347.692 63.668Z" fill="black"/>
<path d="M319.137 125.668C320.61 125.668 322.023 126.051 323.065 126.734C324.107 127.417 324.692 128.343 324.692 129.308V130.025C324.692 130.503 324.549 130.977 324.27 131.419C323.991 131.861 323.582 132.262 323.066 132.601C322.55 132.939 321.938 133.208 321.263 133.391C320.589 133.574 319.866 133.668 319.137 133.668C318.552 133.668 317.974 133.593 317.435 133.446C316.895 133.299 316.405 133.085 315.992 132.814C315.579 132.543 315.252 132.222 315.029 131.868C314.806 131.515 314.691 131.136 314.692 130.753V128.58C314.692 127.808 315.16 127.067 315.994 126.521C316.827 125.975 317.958 125.668 319.137 125.668Z" fill="black"/>
<path d="M335.692 144.668C337.018 144.668 338.29 145.051 339.227 145.734C340.165 146.417 340.692 147.343 340.692 148.308V149.025C340.692 149.503 340.563 149.977 340.312 150.419C340.061 150.861 339.693 151.262 339.229 151.601C338.765 151.939 338.213 152.208 337.606 152.391C336.999 152.574 336.349 152.668 335.692 152.668C335.166 152.668 334.646 152.593 334.16 152.446C333.675 152.299 333.234 152.085 332.862 151.814C332.491 151.543 332.196 151.222 331.995 150.868C331.794 150.515 331.691 150.136 331.692 149.753V147.58C331.692 146.808 332.113 146.067 332.864 145.521C333.614 144.975 334.631 144.668 335.692 144.668Z" fill="black"/>
<path d="M335.692 162.668C337.018 162.668 338.29 163.051 339.227 163.734C340.165 164.417 340.692 165.343 340.692 166.308V167.025C340.692 167.503 340.563 167.977 340.312 168.419C340.061 168.861 339.693 169.262 339.229 169.601C338.765 169.939 338.213 170.208 337.606 170.391C336.999 170.574 336.349 170.668 335.692 170.668C335.166 170.668 334.646 170.593 334.16 170.446C333.675 170.299 333.234 170.085 332.862 169.814C332.491 169.543 332.196 169.222 331.995 168.868C331.794 168.515 331.691 168.136 331.692 167.753V165.58C331.692 164.808 332.113 164.067 332.864 163.521C333.614 162.975 334.631 162.668 335.692 162.668Z" fill="black"/>
<path d="M330.137 72.668C331.61 72.668 333.023 73.0515 334.065 73.7341C335.107 74.4167 335.692 75.3426 335.692 76.308V77.025C335.692 77.5033 335.549 77.9769 335.27 78.4189C334.991 78.8609 334.582 79.2625 334.066 79.6008C333.55 79.9391 332.938 80.2075 332.263 80.3906C331.589 80.5737 330.866 80.668 330.137 80.668C329.552 80.668 328.974 80.5925 328.435 80.446C327.895 80.2995 327.405 80.0847 326.992 79.814C326.579 79.5432 326.252 79.2219 326.029 78.8682C325.806 78.5145 325.691 78.1355 325.692 77.7528V75.5802C325.692 74.8078 326.16 74.0671 326.994 73.5209C327.827 72.9748 328.958 72.668 330.137 72.668Z" fill="black"/>
<path d="M353.692 163.668H257.692V168.668H353.692V163.668Z" fill="#949598"/>
<path d="M335.692 163.668H257.692V168.668H335.692V163.668Z" fill="#00AEEF"/>
<path d="M335.692 162.668C337.018 162.668 338.29 163.051 339.227 163.734C340.165 164.417 340.692 165.343 340.692 166.308V167.025C340.692 167.503 340.563 167.977 340.312 168.419C340.061 168.861 339.693 169.262 339.229 169.601C338.765 169.939 338.213 170.208 337.606 170.391C336.999 170.574 336.349 170.668 335.692 170.668C335.166 170.668 334.646 170.593 334.16 170.446C333.675 170.299 333.234 170.085 332.862 169.814C332.491 169.543 332.196 169.222 331.995 168.868C331.794 168.515 331.691 168.136 331.692 167.753V165.58C331.692 164.808 332.113 164.067 332.864 163.521C333.614 162.975 334.631 162.668 335.692 162.668Z" fill="black"/>
<text fill="#FF0040" xml:space="preserve" style="white-space: pre" font-family="Bahij TheSansArabic" font-size="13" font-weight="500" letter-spacing="0em"><tspan x="93" y="114.261">Adobe InDesign</tspan></text>
<text fill="#FF0040" xml:space="preserve" style="white-space: pre" font-family="Bahij TheSansArabic" font-size="13" font-weight="500" letter-spacing="0em"><tspan x="93" y="133.261">Adobe Illustrator</tspan></text>
<text fill="#FF0040" xml:space="preserve" style="white-space: pre" font-family="Bahij TheSansArabic" font-size="13" font-weight="500" letter-spacing="0em"><tspan x="92" y="151.261"> Luminar Neo AI</tspan></text>
<text fill="#FF0040" xml:space="preserve" style="white-space: pre" font-family="Bahij TheSansArabic" font-size="13" font-weight="500" letter-spacing="0em"><tspan x="93" y="169.261">Adobe XD</tspan></text>
<text fill="#FF0040" xml:space="preserve" style="white-space: pre" font-family="Bahij TheSansArabic" font-size="13" font-weight="500" letter-spacing="0em"><tspan x="93" y="96.261">topaz Photo AI</tspan></text>
<text fill="#FF0040" xml:space="preserve" style="white-space: pre" font-family="Bahij TheSansArabic" font-size="13" font-weight="500" letter-spacing="0em"><tspan x="91" y="79.261">Adobe Photoshop</tspan></text>
<path d="M246 77H199V76H246V77Z" fill="#00AEEF"/>
<path d="M246 93H199V92H246V93Z" fill="#00AEEF"/>
<path d="M246 130H199V129H246V130Z" fill="#00AEEF"/>
<path d="M246 148H199V147H246V148Z" fill="#00AEEF"/>
<path d="M246 167H199V166H246V167Z" fill="#00AEEF"/>
<path d="M246 111H199V110H246V111Z" fill="#00AEEF"/>
<path d="M396 14L396 75" stroke="white"/>
<path d="M396 14L396 75" stroke="white"/>
</svg>
