<svg width="454" height="204" viewBox="0 0 454 204" fill="none" xmlns="http://www.w3.org/2000/svg">
<text fill="#FF0040" xml:space="preserve" style="white-space: pre" font-family="Bahij TheSansArabic" font-size="20" font-weight="500" letter-spacing="0em"><tspan x="95.5078" y="97.2861">Adobe XD</tspan></text>
<text fill="#FF0040" xml:space="preserve" style="white-space: pre" font-family="Bahij TheSansArabic" font-size="20" font-weight="500" letter-spacing="0em"><tspan x="95.5078" y="118.286">Figma </tspan></text>
<path d="M269 116H200V115H269V116Z" fill="#00AEEF"/>
<path d="M269 92H200V91H269V92Z" fill="#00AEEF"/>
<path d="M206.044 39H355.125C356.488 39 357.838 39.3049 359.098 39.8971C360.358 40.4894 361.503 41.3576 362.467 42.452C363.431 43.5464 364.196 44.8457 364.717 46.2756C365.239 47.7056 365.508 49.2382 365.508 50.7859V72H206.044C202.189 72 198.491 70.2616 195.765 67.1673C193.039 64.0729 191.508 59.8761 191.508 55.5C191.508 51.1239 193.039 46.9271 195.765 43.8327C198.491 40.7384 202.189 39 206.044 39Z" fill="#00AEEF"/>
<text fill="white" xml:space="preserve" style="white-space: pre" font-family="Harmattan" font-size="20" font-weight="bold" letter-spacing="0em"><tspan x="211.508" y="59.1162">UI - UX &#x645;&#x647;&#x627;&#x631;&#x629; &#x627;&#x644;&#x62a;&#x635;&#x645;&#x64a;&#x645;</tspan></text>
<path d="M382.692 88.668H292.692V93.668H382.692V88.668Z" fill="#949598"/>
<path d="M382.692 112.668H292.692V117.668H382.692V112.668Z" fill="#949598"/>
<path d="M364.692 88.668H292.692V93.668H364.692V88.668Z" fill="#00AEEF"/>
<path d="M364.692 112.668H292.692V117.668H364.692V112.668Z" fill="#00AEEF"/>
<path d="M365.248 87.668C366.426 87.668 367.557 88.0515 368.39 88.7341C369.224 89.4167 369.692 90.3426 369.692 91.308V92.025C369.692 92.5033 369.578 92.9769 369.355 93.4189C369.131 93.8609 368.804 94.2625 368.391 94.6008C367.979 94.9391 367.489 95.2075 366.949 95.3906C366.41 95.5737 365.832 95.668 365.248 95.668C364.78 95.668 364.318 95.5925 363.886 95.446C363.454 95.2995 363.062 95.0847 362.732 94.814C362.402 94.5432 362.14 94.2219 361.962 93.8682C361.783 93.5145 361.691 93.1355 361.692 92.7528V90.5802C361.692 89.8078 362.067 89.0671 362.733 88.5209C363.4 87.9748 364.305 87.668 365.248 87.668Z" fill="black"/>
<path d="M365.248 111.668C366.426 111.668 367.557 112.051 368.39 112.734C369.224 113.417 369.692 114.343 369.692 115.308V116.025C369.692 116.503 369.578 116.977 369.355 117.419C369.131 117.861 368.804 118.262 368.391 118.601C367.979 118.939 367.489 119.208 366.949 119.391C366.41 119.574 365.832 119.668 365.248 119.668C364.78 119.668 364.318 119.593 363.886 119.446C363.454 119.299 363.062 119.085 362.732 118.814C362.402 118.543 362.14 118.222 361.962 117.868C361.783 117.515 361.691 117.136 361.692 116.753V114.58C361.692 113.808 362.067 113.067 362.733 112.521C363.4 111.975 364.305 111.668 365.248 111.668Z" fill="black"/>
<path d="M386.192 92.668C387.573 92.668 388.692 91.9964 388.692 91.168C388.692 90.3395 387.573 89.668 386.192 89.668C384.811 89.668 383.692 90.3395 383.692 91.168C383.692 91.9964 384.811 92.668 386.192 92.668Z" fill="#231F20"/>
<path d="M386.192 116.668C387.573 116.668 388.692 115.996 388.692 115.168C388.692 114.34 387.573 113.668 386.192 113.668C384.811 113.668 383.692 114.34 383.692 115.168C383.692 115.996 384.811 116.668 386.192 116.668Z" fill="#231F20"/>
</svg>
