<svg width="344" height="834" viewBox="0 0 344 834" fill="none" xmlns="http://www.w3.org/2000/svg">
<rect width="344" height="834" fill="#F5F5F5"/>
<path d="M294.992 34.5C290.451 34.5 286.182 32.7317 282.971 29.5208C279.76 26.3099 277.992 22.0409 277.992 17.5C277.992 12.9591 279.76 8.69006 282.971 5.47919C286.182 2.26831 290.451 0.5 294.992 0.5C299.533 0.5 303.802 2.26831 307.013 5.47919C310.224 8.69006 311.992 12.9591 311.992 17.5C311.992 22.0409 310.224 26.3099 307.013 29.5208C303.802 32.7317 299.533 34.5 294.992 34.5Z" fill="#00AEEF"/>
<path d="M294.992 1C290.585 1 286.441 2.7163 283.325 5.83274C280.208 8.94918 278.492 13.0927 278.492 17.5C278.492 21.9073 280.208 26.0508 283.325 29.1673C286.441 32.2837 290.585 34 294.992 34C299.399 34 303.543 32.2837 306.659 29.1673C309.776 26.0508 311.492 21.9073 311.492 17.5C311.492 13.0927 309.776 8.94918 306.659 5.83274C303.543 2.7163 299.399 1 294.992 1ZM294.992 0C304.657 0 312.492 7.83502 312.492 17.5C312.492 27.165 304.657 35 294.992 35C285.327 35 277.492 27.165 277.492 17.5C277.492 7.83502 285.327 0 294.992 0Z" fill="#707070"/>
<path d="M329.534 17.0171C328.734 16.6171 326.811 18.0981 327.647 18.5171C328.981 19.1846 330.228 20.0131 331.36 20.9841C323.82 20.3991 316.95 23.5511 309.723 25.5681C305.08 26.8681 299.742 27.6091 295.432 25.2121C297.17 24.602 298.829 23.788 300.375 22.7871C302.075 21.6681 303.75 20.2261 304.18 18.1601C304.326 17.4267 304.244 16.6665 303.948 15.9803C303.651 15.2941 303.152 14.7144 302.518 14.3181C299.356 12.8411 297.146 14.0621 295.826 16.5181C295.22 15.7874 294.401 15.2632 293.483 15.0181C292.239 14.6791 290.134 14.4291 289.351 15.7941C287.275 19.4111 289.728 22.7131 292.788 24.8041C288.088 26.3671 282.728 26.2041 279.881 21.7911C279.515 21.2241 277.315 21.2551 277.5 21.5431C281.045 27.0331 288.1 27.4181 294.133 25.6301C294.784 25.9878 295.46 26.2973 296.155 26.5561C308.608 31.1391 319.992 20.4201 332.255 21.8041C332.305 21.8541 332.355 21.9041 332.406 21.9511C330.709 22.7291 329.081 23.6512 327.541 24.7071C327.252 24.9071 326.747 25.5541 327.203 25.8491C327.685 26.1601 328.361 25.7561 328.753 25.4891C330.429 24.3562 332.231 23.4204 334.121 22.7001C334.421 22.5841 335.585 21.8431 335.154 21.3601C333.575 19.567 331.668 18.0928 329.534 17.0171ZM293.872 24.1711C292.979 23.468 292.262 22.5659 291.779 21.5367C291.296 20.5075 291.059 19.3797 291.089 18.2431C291.134 17.0091 292.065 14.7221 293.636 16.4201C294.216 17.1841 294.661 18.0423 294.949 18.9571C295.125 19.3861 297.21 19.8421 297.355 19.3091C297.612 18.2916 297.968 17.3021 298.42 16.3551C299.376 14.4241 301.327 14.3981 301.751 16.5551C302.251 19.0701 299.845 20.8911 298.063 22.1551C296.823 23.0275 295.487 23.7565 294.082 24.3281C294.018 24.2771 293.946 24.2261 293.877 24.1701L293.872 24.1711Z" fill="white"/>
<path d="M310.471 26.5374C310.671 26.1004 310.852 25.6494 311.013 25.1994C312.313 24.8134 313.621 24.3944 314.886 23.9884C319.598 22.4774 324.47 20.9154 329.505 20.9154C330.129 20.9154 330.754 20.9394 331.363 20.9864C330.23 20.0164 328.984 19.188 327.651 18.5194C327.576 18.4901 327.514 18.4338 327.478 18.3615C327.442 18.2892 327.435 18.2061 327.457 18.1284C327.628 17.7994 327.879 17.5188 328.187 17.3127C328.495 17.1066 328.85 16.9816 329.219 16.9494C329.33 16.9468 329.439 16.9701 329.539 17.0174C331.674 18.0936 333.582 19.5709 335.159 21.3684C335.2 21.4123 335.229 21.4659 335.244 21.5242C335.258 21.5825 335.257 21.6435 335.241 21.7014C335.135 22.1394 334.349 22.6224 334.125 22.7084C332.235 23.4299 330.434 24.3657 328.757 25.4974C328.426 25.7584 328.028 25.9222 327.609 25.9704C327.468 25.9725 327.329 25.9333 327.209 25.8574C327.153 25.8252 327.107 25.7788 327.075 25.723C327.042 25.6672 327.025 25.6039 327.025 25.5394C327.05 25.3737 327.11 25.2151 327.199 25.0734C327.289 24.9318 327.407 24.8102 327.546 24.7164C329.087 23.6613 330.714 22.7393 332.411 21.9604C332.381 21.9304 332.351 21.9004 332.321 21.8724L332.26 21.8134C331.512 21.7297 330.759 21.688 330.006 21.6884C325.379 21.6884 320.793 23.2194 316.358 24.7004H316.345C314.424 25.3414 312.437 26.0004 310.475 26.5344L310.471 26.5374ZM278.271 22.6024C277.994 22.2685 277.737 21.9182 277.501 21.5534C277.495 21.5453 277.491 21.5357 277.49 21.5256C277.49 21.5156 277.492 21.5054 277.496 21.4964C277.534 21.4234 277.762 21.3694 278.091 21.3554C278.136 21.7684 278.197 22.1874 278.273 22.6014L278.271 22.6024Z" fill="black"/>
<path d="M300.368 751.242H326.368V784.242H300.368V751.242Z" fill="#00AEEF"/>
<path d="M308.889 769.964C308.889 770.174 308.77 770.342 308.625 770.342C308.478 770.342 308.36 770.172 308.36 769.964V760.709H302.809V779.361H303.725C303.872 779.361 303.989 779.532 303.989 779.739C303.989 779.949 303.87 780.117 303.725 780.117H302.544C302.397 780.117 302.28 779.947 302.28 779.739V760.507C302.28 760.355 302.324 760.216 302.394 760.113C302.464 760.014 302.561 759.951 302.669 759.951H308.36V752.58C308.36 752.398 308.412 752.231 308.496 752.112V752.11C308.581 751.989 308.696 751.916 308.825 751.916H318.252C318.38 751.916 318.496 751.989 318.58 752.11L318.601 752.141C318.672 752.259 318.718 752.412 318.718 752.58V759.951H324.45C324.556 759.951 324.653 760.014 324.723 760.113L324.725 760.116C324.795 760.216 324.839 760.355 324.839 760.507V779.739C324.839 779.949 324.719 780.117 324.574 780.117H322.896C322.75 780.117 322.632 779.947 322.632 779.739C322.632 779.529 322.751 779.361 322.896 779.361H324.31V760.709H318.716V769.854C318.716 770.064 318.597 770.232 318.452 770.232C318.305 770.232 318.187 770.062 318.187 769.854V752.671H308.889V769.964ZM320.115 769.901H323.034C323.058 769.901 323.078 769.922 323.078 769.946V771.179C323.078 771.206 323.058 771.227 323.034 771.227H320.115C320.091 771.227 320.071 771.206 320.071 771.179V769.946C320.071 769.922 320.091 769.901 320.115 769.901ZM304.063 769.901H306.982C307.005 769.901 307.026 769.922 307.026 769.946V771.179C307.026 771.206 307.005 771.227 306.982 771.227H304.063C304.039 771.227 304.018 771.206 304.018 771.179V769.946C304.018 769.922 304.039 769.901 304.063 769.901ZM310.075 754.138H317.003C317.119 754.138 317.215 754.275 317.215 754.44V757.67C317.215 757.836 317.119 757.972 317.003 757.972H310.075C309.959 757.972 309.864 757.836 309.864 757.67V754.44C309.862 754.275 309.957 754.138 310.075 754.138ZM320.161 779.474C319.968 778.921 319.724 778.451 319.438 778.01C319.974 778.307 320.523 778.6 320.928 778.965C321.666 779.627 321.721 780.427 321.782 781.576H318.123C318.123 781.568 318.123 781.558 318.123 781.55L318.055 780.729L318.318 781.054L319.603 779.456L320.161 779.474ZM307.068 778.178L307.532 780.13L307.765 778.97L307.652 778.792C307.6 778.684 307.589 778.59 307.617 778.509C307.679 778.333 307.808 778.367 307.927 778.367C308.052 778.367 308.208 778.333 308.246 778.558C308.259 778.635 308.243 778.713 308.206 778.795L308.092 778.973L308.325 780.133L308.746 778.181C308.806 778.259 308.893 778.325 308.992 778.383C308.957 778.488 308.926 778.595 308.898 778.711C308.827 779.007 308.781 779.335 308.76 779.7H308.762C308.762 779.708 308.762 779.718 308.76 779.726L308.659 781.579H305.298C305.096 781.558 304.993 781.408 304.977 781.151L305.047 780.128C305.067 779.763 305.138 779.477 305.254 779.257C305.331 779.112 305.427 779.005 305.531 778.921C305.865 778.645 306.765 778.569 307.068 778.178ZM306.84 775.41C306.794 775.415 306.761 775.431 306.736 775.452C306.721 775.465 306.712 775.483 306.704 775.504C306.697 775.528 306.693 775.559 306.693 775.593C306.695 775.701 306.736 775.845 306.814 776.01L306.816 776.013L307.075 776.604C307.178 776.84 307.288 777.078 307.42 777.254C307.547 777.42 307.703 777.532 307.907 777.535C308.129 777.535 308.29 777.42 308.423 777.244C308.56 777.06 308.67 776.803 308.779 776.548L309.071 775.861C309.129 775.669 309.148 775.554 309.129 775.499C309.118 775.465 309.069 775.457 308.99 775.465C308.939 775.48 308.887 775.467 308.83 775.425L308.975 774.801C308.441 774.79 308.074 774.659 307.642 774.263C307.501 774.134 307.457 773.985 307.316 773.998C307.207 774.027 307.117 774.097 307.046 774.208C306.976 774.313 306.925 774.457 306.892 774.643L306.978 775.394C306.932 775.433 306.886 775.436 306.84 775.41ZM309.155 775.223C309.218 775.249 309.263 775.302 309.293 775.381C309.337 775.509 309.32 775.698 309.238 775.966C309.236 775.971 309.234 775.976 309.232 775.982L308.937 776.677C308.823 776.947 308.705 777.218 308.549 777.427C308.386 777.645 308.186 777.79 307.91 777.79C307.653 777.79 307.461 777.648 307.303 777.441C307.15 777.241 307.035 776.987 306.926 776.737L306.668 776.147C306.57 775.94 306.521 775.751 306.517 775.596C306.515 775.52 306.524 775.452 306.545 775.391C306.565 775.328 306.598 775.273 306.64 775.234C306.66 775.213 306.684 775.197 306.712 775.184C306.695 774.869 306.69 774.478 306.701 774.147C306.706 774.066 306.717 773.987 306.732 773.906C306.798 773.567 306.965 773.294 307.171 773.108C307.244 773.043 307.323 772.987 307.407 772.943C307.907 772.686 308.568 772.825 308.922 773.373C309.067 773.596 309.157 773.893 309.175 774.284L309.155 775.223ZM311.768 772.61C311.709 772.62 311.665 772.641 311.632 772.67C311.61 772.691 311.595 772.717 311.586 772.746C311.575 772.783 311.569 772.827 311.569 772.877C311.573 773.037 311.634 773.252 311.749 773.499L311.751 773.504L312.138 774.386C312.293 774.738 312.454 775.095 312.654 775.357C312.845 775.606 313.075 775.774 313.379 775.774C313.71 775.774 313.952 775.601 314.147 775.339C314.352 775.063 314.518 774.683 314.677 774.302L315.112 773.279C315.201 772.993 315.226 772.82 315.199 772.741C315.18 772.688 315.105 772.675 314.977 772.694C314.967 772.694 314.956 772.694 314.947 772.694C314.894 772.694 314.837 772.675 314.773 772.633L314.969 771.699C314.171 771.686 313.625 771.486 312.979 770.896C312.766 770.702 312.704 770.481 312.491 770.502C312.331 770.547 312.195 770.649 312.089 770.815C311.986 770.972 311.909 771.187 311.858 771.465L311.995 772.596C311.916 772.649 311.839 772.654 311.768 772.61ZM312.127 776.737L312.821 779.653L313.17 777.923L312.999 777.656C312.922 777.496 312.906 777.354 312.948 777.233C313.04 776.971 313.233 777.021 313.411 777.021C313.598 777.021 313.829 776.971 313.888 777.304C313.908 777.417 313.882 777.532 313.827 777.656L313.657 777.923L314.005 779.653L314.633 776.737C315.087 777.32 316.253 777.438 316.752 777.834C316.888 777.942 317.011 778.076 317.115 778.246C317.117 778.228 317.121 778.207 317.128 778.191C317.183 778.036 317.297 778.065 317.404 778.065C317.516 778.065 317.653 778.036 317.688 778.236C317.699 778.301 317.684 778.372 317.653 778.446L317.552 778.606L317.76 779.634L317.494 779.936L317.582 781.587C317.556 781.972 317.404 782.193 317.103 782.227H309.66C309.359 782.193 309.207 781.972 309.181 781.587L309.286 779.642C309.315 779.099 309.421 778.669 309.596 778.341C309.71 778.126 309.853 777.965 310.011 777.839C310.508 777.438 311.674 777.32 312.127 776.737ZM315.241 772.329C315.335 772.368 315.404 772.444 315.447 772.565C315.513 772.757 315.487 773.037 315.364 773.439C315.362 773.447 315.358 773.455 315.357 773.462L314.914 774.502C314.743 774.906 314.569 775.307 314.336 775.619C314.092 775.945 313.792 776.163 313.383 776.16C312.999 776.16 312.711 775.95 312.474 775.64C312.247 775.344 312.076 774.963 311.911 774.591L311.523 773.709C311.378 773.402 311.305 773.119 311.299 772.885C311.298 772.772 311.31 772.67 311.34 772.581C311.371 772.486 311.419 772.405 311.483 772.345C311.514 772.313 311.551 772.289 311.589 772.268C311.566 771.796 311.558 771.214 311.573 770.723C311.582 770.602 311.597 770.484 311.621 770.363C311.72 769.857 311.968 769.45 312.276 769.172C312.384 769.072 312.504 768.991 312.629 768.928C313.372 768.542 314.36 768.752 314.888 769.571C315.103 769.904 315.239 770.345 315.269 770.928L315.241 772.329ZM316.587 777.141L317.213 777.118C316.882 775.661 316.992 774.323 317.789 773.184C317.925 773.809 318.228 774.326 318.744 774.706C318.99 774.969 319.228 775.284 319.46 775.648C319.5 775.407 319.344 775.116 319.155 774.814C319.329 774.937 319.491 775.11 319.605 775.444C319.737 775.829 319.735 776.155 319.691 776.575C319.671 776.769 319.638 776.953 319.59 777.118H320.062C320.559 775.596 320.244 773.336 319.227 772.379C318.914 772.085 318.691 772.095 318.323 772.095C317.905 772.095 317.69 772.114 317.33 772.455C316.801 772.956 316.475 773.822 316.339 775.024C316.311 775.625 316.293 776.661 316.587 777.141ZM320.115 767.206H323.034C323.058 767.206 323.078 767.227 323.078 767.254V768.487C323.078 768.513 323.058 768.534 323.034 768.534H320.115C320.091 768.534 320.071 768.513 320.071 768.487V767.254C320.071 767.227 320.091 767.206 320.115 767.206ZM320.115 764.509H323.034C323.058 764.509 323.078 764.53 323.078 764.556V765.789C323.078 765.816 323.058 765.837 323.034 765.837H320.115C320.091 765.837 320.071 765.816 320.071 765.789V764.556C320.071 764.53 320.091 764.509 320.115 764.509ZM304.063 767.206H306.982C307.005 767.206 307.026 767.227 307.026 767.254V768.487C307.026 768.513 307.005 768.534 306.982 768.534H304.063C304.039 768.534 304.018 768.513 304.018 768.487V767.254C304.018 767.227 304.039 767.206 304.063 767.206ZM304.063 764.509H306.982C307.005 764.509 307.026 764.53 307.026 764.556V765.789C307.026 765.816 307.005 765.837 306.982 765.837H304.063C304.039 765.837 304.018 765.816 304.018 765.789V764.556C304.018 764.53 304.039 764.509 304.063 764.509ZM315.437 764.795H316.996C317.02 764.795 317.04 764.824 317.04 764.858V767.086C317.04 767.12 317.02 767.149 316.996 767.149H315.437C315.414 767.149 315.393 767.12 315.393 767.086V764.858C315.393 764.824 315.414 764.795 315.437 764.795ZM312.759 764.795H314.318C314.341 764.795 314.362 764.824 314.362 764.858V767.086C314.362 767.12 314.341 767.149 314.318 767.149H312.759C312.735 767.149 312.715 767.12 312.715 767.086V764.858C312.715 764.824 312.735 764.795 312.759 764.795ZM310.08 764.795H311.639C311.663 764.795 311.683 764.824 311.683 764.858V767.086C311.683 767.12 311.663 767.149 311.639 767.149H310.08C310.057 767.149 310.036 767.12 310.036 767.086V764.858C310.036 764.824 310.057 764.795 310.08 764.795ZM315.437 760.473H316.996C317.02 760.473 317.04 760.502 317.04 760.536V762.764C317.04 762.798 317.02 762.827 316.996 762.827H315.437C315.414 762.827 315.393 762.798 315.393 762.764V760.536C315.393 760.499 315.414 760.473 315.437 760.473ZM312.759 760.473H314.318C314.341 760.473 314.362 760.502 314.362 760.536V762.764C314.362 762.798 314.341 762.827 314.318 762.827H312.759C312.735 762.827 312.715 762.798 312.715 762.764V760.536C312.715 760.499 312.735 760.473 312.759 760.473ZM310.08 760.473H311.639C311.663 760.473 311.683 760.502 311.683 760.536V762.764C311.683 762.798 311.663 762.827 311.639 762.827H310.08C310.057 762.827 310.036 762.798 310.036 762.764V760.536C310.036 760.499 310.057 760.473 310.08 760.473Z" fill="white"/>
<text fill="black" xml:space="preserve" style="white-space: pre" font-family="Harmattan" font-size="13" font-weight="bold" letter-spacing="0em"><tspan x="278.368" y="769.918">HR</tspan></text>
<path d="M312.88 538.717C320.535 538.18 326.305 531.534 325.768 523.872C325.23 516.211 318.589 510.435 310.934 510.972C303.28 511.509 297.51 518.155 298.047 525.817C298.585 533.478 305.226 539.253 312.88 538.717Z" fill="white"/>
<path d="M312.845 538.217C320.224 537.7 325.786 531.293 325.268 523.907C324.75 516.521 318.348 510.953 310.969 511.471C303.59 511.989 298.028 518.396 298.546 525.781C299.064 533.167 305.466 538.735 312.845 538.217Z" stroke="#707070" stroke-width="1.00045"/>
<path d="M311.845 537.231C309.403 537.231 307.017 536.507 304.987 535.15C302.957 533.794 301.375 531.866 300.44 529.61C299.506 527.354 299.261 524.872 299.738 522.478C300.214 520.083 301.39 517.883 303.116 516.157C305.431 513.842 308.571 512.541 311.846 512.541C315.12 512.541 318.26 513.842 320.575 516.157C322.89 518.472 324.191 521.612 324.191 524.886C324.191 528.161 322.89 531.301 320.575 533.616C319.431 534.766 318.071 535.677 316.572 536.298C315.074 536.918 313.467 537.235 311.845 537.231ZM311.489 517.541C309.713 517.543 307.992 518.159 306.617 519.284C305.243 520.409 304.299 521.975 303.946 523.716C303.593 525.457 303.853 527.266 304.681 528.838C305.508 530.41 306.854 531.647 308.489 532.341C309.728 532.863 311.082 533.051 312.417 532.888C313.751 532.725 315.02 532.215 316.096 531.41C317.173 530.605 318.021 529.532 318.554 528.298C319.088 527.064 319.29 525.712 319.14 524.376C319.076 523.815 318.951 523.263 318.767 522.729C318.676 522.467 318.571 522.211 318.453 521.961H317.61L317.076 522.495C317.178 522.704 317.269 522.917 317.348 523.136C317.509 523.582 317.618 524.044 317.673 524.515C317.701 524.757 317.716 525 317.716 525.244C317.714 526.681 317.215 528.072 316.305 529.184C315.394 530.295 314.128 531.058 312.72 531.342C311.312 531.627 309.849 531.417 308.578 530.747C307.307 530.077 306.307 528.989 305.746 527.666C305.346 526.719 305.187 525.687 305.283 524.664C305.379 523.64 305.726 522.656 306.295 521.799C306.863 520.943 307.634 520.24 308.54 519.754C309.446 519.268 310.458 519.013 311.486 519.013C311.73 519.013 311.973 519.028 312.215 519.056C312.686 519.111 313.148 519.22 313.594 519.381C313.813 519.46 314.027 519.551 314.235 519.654L314.769 519.119V518.274C314.519 518.155 314.262 518.051 314 517.96C313.467 517.775 312.915 517.65 312.354 517.587C312.067 517.556 311.778 517.54 311.489 517.541ZM311.489 520.622C310.575 520.622 309.681 520.893 308.921 521.401C308.161 521.909 307.568 522.631 307.219 523.476C306.869 524.321 306.777 525.25 306.956 526.147C307.135 527.043 307.575 527.867 308.222 528.513C308.869 529.159 309.692 529.599 310.589 529.777C311.486 529.955 312.415 529.863 313.26 529.513C314.104 529.163 314.826 528.57 315.334 527.81C315.841 527.049 316.112 526.155 316.111 525.241C316.111 525.108 316.105 524.975 316.094 524.841C316.083 524.707 316.066 524.581 316.044 524.454C316.022 524.327 315.998 524.215 315.963 524.079C315.928 523.943 315.893 523.833 315.852 523.715L314.622 524.944C314.622 524.967 314.622 524.989 314.628 525.012C314.634 525.035 314.628 525.04 314.628 525.052C314.628 525.064 314.628 525.077 314.628 525.089V525.132V525.162C314.628 525.174 314.628 525.187 314.628 525.199V525.241C314.628 525.76 314.499 526.271 314.253 526.729C314.007 527.187 313.652 527.576 313.219 527.863C312.786 528.15 312.289 528.326 311.772 528.374C311.255 528.423 310.734 528.343 310.255 528.141C309.5 527.82 308.899 527.219 308.578 526.464C308.376 525.985 308.296 525.464 308.345 524.947C308.393 524.43 308.569 523.933 308.856 523.5C309.143 523.067 309.532 522.712 309.99 522.466C310.447 522.22 310.959 522.091 311.478 522.091H311.625H311.661H311.698L311.77 522.097L312.999 520.867C312.886 520.827 312.763 520.789 312.635 520.756C312.507 520.723 312.376 520.695 312.259 520.675C312.142 520.655 312.003 520.636 311.873 520.625C311.743 520.614 311.621 520.62 311.489 520.62V520.622ZM311.489 523.703C311.283 523.702 311.079 523.743 310.889 523.824C310.656 523.922 310.451 524.076 310.292 524.272C310.132 524.468 310.023 524.7 309.975 524.948C309.926 525.196 309.94 525.452 310.014 525.694C310.087 525.936 310.219 526.156 310.398 526.334C310.577 526.513 310.797 526.645 311.039 526.718C311.28 526.792 311.537 526.805 311.785 526.756C312.032 526.707 312.265 526.598 312.461 526.439C312.656 526.279 312.81 526.074 312.908 525.841C312.988 525.651 313.03 525.447 313.029 525.241C313.029 525.196 313.029 525.151 313.023 525.109C313.017 525.067 313.014 525.024 313.006 524.98C312.998 524.936 312.989 524.89 312.979 524.855C312.969 524.82 312.954 524.769 312.942 524.734L317.057 520.619H318.257L320.937 517.939H318.79V515.797L316.11 518.477V519.677L312 523.788C311.956 523.772 311.916 523.76 311.879 523.751C311.842 523.742 311.805 523.733 311.754 523.724C311.703 523.715 311.669 523.711 311.625 523.707C311.581 523.703 311.533 523.703 311.489 523.703Z" fill="#00AEEF"/>
<path d="M312.924 686.596C320.544 686.596 326.722 680.418 326.722 672.798C326.722 665.178 320.544 659 312.924 659C305.304 659 299.126 665.178 299.126 672.798C299.126 680.418 305.304 686.596 312.924 686.596Z" fill="#00AEEF"/>
<path d="M323.817 672.798C323.818 670.643 323.179 668.536 321.981 666.744C320.784 664.952 319.082 663.556 317.091 662.732C315.1 661.907 312.908 661.692 310.795 662.113C308.681 662.535 306.74 663.573 305.217 665.098C303.174 667.142 302.027 669.914 302.027 672.804C302.028 675.694 303.177 678.466 305.221 680.509C307.265 682.552 310.037 683.699 312.927 683.699C315.817 683.698 318.588 682.549 320.631 680.505C321.646 679.495 322.45 678.294 322.996 676.971C323.543 675.648 323.822 674.23 323.817 672.798ZM322.111 676.522C321.213 675.715 320.149 675.113 318.994 674.759C319.06 674.107 319.094 673.453 319.094 672.797C319.094 672.142 319.06 671.487 318.994 670.835C320.149 670.482 321.213 669.88 322.111 669.073C323.08 671.462 323.08 674.134 322.111 676.522ZM307.731 672.798C307.731 672.228 307.757 671.665 307.807 671.114C309.323 671.471 310.874 671.657 312.431 671.668V673.929C310.874 673.94 309.323 674.126 307.807 674.483C307.76 673.931 307.731 673.368 307.731 672.798ZM312.431 682.667C311.744 682.466 311.11 682.115 310.574 681.64C310.039 681.165 309.614 680.578 309.331 679.92L309.285 679.834C310.206 679.154 311.292 678.733 312.431 678.616V682.667ZM313.41 678.617C314.548 678.735 315.633 679.155 316.552 679.834L316.506 679.921C316.223 680.579 315.799 681.166 315.263 681.641C314.727 682.116 314.093 682.467 313.406 682.668V678.618L313.41 678.617ZM313.41 662.93C314.097 663.132 314.731 663.483 315.267 663.958C315.803 664.432 316.227 665.02 316.51 665.677L316.556 665.763C315.637 666.443 314.552 666.863 313.414 666.98V662.929L313.41 662.93ZM312.431 666.979C311.295 666.861 310.211 666.441 309.292 665.762L309.338 665.676C309.621 665.019 310.046 664.431 310.581 663.957C311.117 663.482 311.751 663.131 312.438 662.929L312.431 666.979ZM313.41 667.961C314.694 667.852 315.925 667.404 316.978 666.661C317.434 667.773 317.749 668.937 317.917 670.127C316.443 670.492 314.93 670.68 313.411 670.689V667.961H313.41ZM317.331 665.141C316.987 664.507 316.563 663.921 316.068 663.396C316.786 663.637 317.473 663.96 318.117 664.358C317.869 664.633 317.607 664.894 317.331 665.141ZM308.514 665.141C308.24 664.894 307.978 664.633 307.731 664.358C308.375 663.961 309.062 663.638 309.779 663.397C309.284 663.922 308.859 664.508 308.515 665.141H308.514ZM312.431 667.961V670.688C310.914 670.679 309.404 670.49 307.931 670.126C308.099 668.936 308.414 667.772 308.87 666.66C309.921 667.402 311.15 667.851 312.431 667.961ZM312.431 674.905V677.631C311.148 677.74 309.916 678.189 308.863 678.931C308.41 677.821 308.097 676.658 307.931 675.47C309.404 675.105 310.914 674.916 312.431 674.905ZM308.515 680.454C308.859 681.088 309.283 681.675 309.777 682.2C309.061 681.959 308.374 681.636 307.731 681.238C307.979 680.963 308.24 680.702 308.515 680.454ZM317.332 680.454C317.608 680.702 317.871 680.963 318.119 681.238C317.475 681.636 316.788 681.959 316.07 682.2C316.564 681.675 316.989 681.088 317.332 680.454ZM313.413 677.634V674.905C314.932 674.914 316.445 675.103 317.919 675.467C317.751 676.657 317.436 677.821 316.98 678.933C315.927 678.192 314.696 677.743 313.413 677.634ZM313.413 673.928V671.668C314.97 671.657 316.521 671.471 318.037 671.114C318.087 671.665 318.113 672.228 318.113 672.798C318.113 673.368 318.087 673.931 318.037 674.482C316.521 674.125 314.97 673.939 313.413 673.928ZM321.668 668.128L321.658 668.137C320.877 668.919 319.919 669.502 318.865 669.837C318.671 668.533 318.307 667.26 317.783 666.049C318.192 665.7 318.576 665.321 318.931 664.917C320.062 665.781 320.995 666.877 321.668 668.131V668.128ZM306.917 664.917C307.273 665.321 307.656 665.699 308.065 666.048C307.541 667.259 307.177 668.532 306.982 669.836C305.929 669.501 304.971 668.918 304.189 668.136L304.179 668.127C304.853 666.874 305.786 665.78 306.917 664.917ZM303.737 669.073C304.636 669.881 305.699 670.482 306.854 670.836C306.723 672.141 306.723 673.456 306.854 674.76C305.699 675.114 304.636 675.715 303.737 676.522C302.768 674.134 302.768 671.462 303.737 669.073ZM304.179 677.464L304.189 677.454C304.971 676.673 305.929 676.09 306.982 675.754C307.177 677.059 307.541 678.332 308.064 679.542C307.655 679.892 307.272 680.27 306.916 680.673C305.786 679.811 304.853 678.717 304.179 677.465V677.464ZM318.931 680.678C318.575 680.275 318.191 679.897 317.782 679.547C318.306 678.337 318.67 677.064 318.864 675.759C319.918 676.095 320.876 676.677 321.657 677.459L321.667 677.469C320.994 678.722 320.061 679.816 318.931 680.678Z" fill="white"/>
<path d="M312.295 699.442C313.338 699.442 314.183 698.597 314.183 697.554C314.183 696.511 313.338 695.666 312.295 695.666C311.253 695.666 310.407 696.511 310.407 697.554C310.407 698.597 311.253 699.442 312.295 699.442Z" fill="#231F20"/>
<path d="M312.616 715.642C313.658 715.642 314.504 714.797 314.504 713.754C314.504 712.711 313.658 711.866 312.616 711.866C311.573 711.866 310.728 712.711 310.728 713.754C310.728 714.797 311.573 715.642 312.616 715.642Z" fill="#231F20"/>
<path d="M312.295 728.776C313.338 728.776 314.183 727.931 314.183 726.888C314.183 725.845 313.338 725 312.295 725C311.253 725 310.407 725.845 310.407 726.888C310.407 727.931 311.253 728.776 312.295 728.776Z" fill="#231F20"/>
<path d="M300.812 718.096C303.574 718.096 305.812 715.857 305.812 713.096C305.812 710.334 303.574 708.096 300.812 708.096C298.051 708.096 295.812 710.334 295.812 713.096C295.812 715.857 298.051 718.096 300.812 718.096Z" fill="#00AEEF"/>
<path d="M300.492 732C303.254 732 305.492 729.761 305.492 727C305.492 724.239 303.254 722 300.492 722C297.731 722 295.492 724.239 295.492 727C295.492 729.761 297.731 732 300.492 732Z" fill="#00AEEF"/>
<path fill-rule="evenodd" clip-rule="evenodd" d="M299.214 710.096C299.42 710.094 299.625 710.118 299.824 710.168C299.997 710.209 300.159 710.289 300.297 710.401C300.433 710.517 300.538 710.664 300.603 710.831C300.68 711.043 300.717 711.268 300.71 711.494C300.719 711.741 300.664 711.986 300.549 712.206C300.435 712.402 300.271 712.563 300.072 712.673C300.345 712.761 300.575 712.949 300.716 713.199C300.865 713.478 300.937 713.79 300.927 714.106C300.933 714.36 300.887 714.612 300.791 714.847C300.708 715.043 300.582 715.218 300.421 715.358C300.266 715.49 300.085 715.59 299.889 715.65C299.692 715.714 299.485 715.748 299.277 715.75H297.007V710.101H299.214V710.096ZM301.973 710.552H303.873V711.11H301.973V710.552ZM302.395 714.763C302.47 714.846 302.563 714.912 302.667 714.955C302.771 714.998 302.883 715.016 302.995 715.01C303.173 715.014 303.346 714.952 303.481 714.838C303.6 714.746 303.687 714.62 303.729 714.476H304.549C304.469 714.883 304.259 715.254 303.949 715.531C303.669 715.747 303.322 715.859 302.968 715.85C302.719 715.853 302.472 715.8 302.246 715.695C302.033 715.592 301.846 715.442 301.699 715.255C301.544 715.05 301.427 714.819 301.354 714.573C301.271 714.29 301.23 713.996 301.232 713.701C301.23 713.411 301.272 713.122 301.357 712.845C301.432 712.596 301.552 712.364 301.712 712.16C301.862 711.971 302.049 711.815 302.262 711.704C302.481 711.591 302.724 711.534 302.97 711.537C303.235 711.53 303.497 711.599 303.723 711.737C303.94 711.874 304.121 712.059 304.252 712.279C304.396 712.518 304.498 712.781 304.552 713.055C304.614 713.354 304.635 713.661 304.617 713.966H302.164C302.152 714.248 302.233 714.526 302.394 714.757L302.395 714.763ZM303.464 712.615C303.401 712.538 303.32 712.478 303.229 712.438C303.137 712.398 303.038 712.381 302.938 712.387C302.809 712.382 302.681 712.413 302.568 712.478C302.475 712.536 302.394 712.613 302.332 712.704C302.274 712.792 302.232 712.889 302.208 712.992C302.186 713.08 302.172 713.17 302.165 713.261H303.679C303.671 713.029 303.596 712.806 303.464 712.615ZM299.08 712.379C299.246 712.385 299.408 712.329 299.533 712.221C299.598 712.153 299.647 712.072 299.677 711.983C299.707 711.895 299.718 711.801 299.708 711.708C299.712 711.597 299.692 711.486 299.65 711.383C299.616 711.303 299.561 711.234 299.491 711.183C299.424 711.133 299.346 711.099 299.264 711.083C299.178 711.064 299.089 711.054 299 711.055H298.036V712.375H299.08V712.379ZM299.136 714.779C299.234 714.78 299.33 714.768 299.424 714.743C299.513 714.721 299.595 714.68 299.666 714.623C299.74 714.563 299.798 714.485 299.834 714.397C299.879 714.28 299.9 714.156 299.895 714.031C299.906 713.919 299.895 713.805 299.86 713.698C299.826 713.591 299.77 713.492 299.695 713.407C299.546 713.278 299.354 713.212 299.157 713.222H298.036V714.779H299.136Z" fill="white"/>
<path d="M300.492 702.854C303.254 702.854 305.492 700.615 305.492 697.854C305.492 695.092 303.254 692.854 300.492 692.854C297.731 692.854 295.492 695.092 295.492 697.854C295.492 700.615 297.731 702.854 300.492 702.854Z" fill="#00AEEF"/>
<path d="M300.456 693.994C299.432 694.029 298.464 694.468 297.764 695.215C297.063 695.962 296.688 696.956 296.719 697.98C296.705 698.797 296.942 699.598 297.4 700.274C297.857 700.951 298.512 701.47 299.275 701.761C299.296 701.766 299.317 701.768 299.338 701.768C299.364 701.769 299.39 701.765 299.415 701.755C299.439 701.745 299.461 701.73 299.479 701.711C299.497 701.693 299.511 701.67 299.52 701.645C299.529 701.621 299.532 701.594 299.53 701.568C299.53 701.468 299.53 701.223 299.525 700.889C299.402 700.919 299.275 700.935 299.148 700.936C298.958 700.949 298.768 700.899 298.609 700.794C298.449 700.689 298.329 700.535 298.265 700.355C298.2 700.118 298.053 699.912 297.85 699.772C297.525 699.534 297.85 699.527 297.873 699.527C297.993 699.548 298.107 699.596 298.207 699.668C298.306 699.74 298.387 699.833 298.445 699.94C298.502 700.069 298.594 700.178 298.711 700.255C298.829 700.333 298.966 700.375 299.106 700.376C299.254 700.374 299.4 700.34 299.533 700.276C299.549 700.077 299.632 699.888 299.77 699.743C299.523 699.743 299.279 699.69 299.054 699.588C298.83 699.485 298.63 699.335 298.468 699.148C298.307 698.961 298.188 698.741 298.119 698.504C298.05 698.267 298.034 698.017 298.07 697.773C298.063 697.382 298.2 697.002 298.454 696.704C298.34 696.359 298.353 695.985 298.491 695.649C298.518 695.642 298.546 695.639 298.574 695.64C298.924 695.681 299.253 695.826 299.518 696.058C300.129 695.88 300.779 695.88 301.39 696.058C301.655 695.826 301.984 695.681 302.334 695.64C302.362 695.639 302.39 695.642 302.417 695.649C302.555 695.985 302.568 696.359 302.454 696.704C302.709 697.002 302.845 697.382 302.838 697.773C302.875 698.018 302.858 698.268 302.789 698.505C302.719 698.743 302.6 698.962 302.437 699.149C302.275 699.336 302.074 699.486 301.849 699.587C301.623 699.689 301.379 699.741 301.131 699.739C301.221 699.838 301.29 699.955 301.334 700.082C301.378 700.209 301.395 700.343 301.385 700.477C301.385 701.01 301.38 701.44 301.38 701.57C301.378 701.596 301.381 701.622 301.39 701.647C301.398 701.672 301.412 701.694 301.43 701.713C301.448 701.732 301.47 701.747 301.494 701.757C301.518 701.766 301.544 701.771 301.57 701.77C301.593 701.77 301.615 701.768 301.637 701.763C302.4 701.472 303.055 700.953 303.513 700.277C303.97 699.6 304.208 698.799 304.193 697.982C304.225 696.958 303.85 695.963 303.149 695.215C302.449 694.468 301.48 694.029 300.456 693.994Z" fill="white"/>
<text fill="black" xml:space="preserve" style="white-space: pre" font-family="Harmattan" font-size="13" font-weight="bold" letter-spacing="0em"><tspan x="256.492" y="675.816">&#x627;&#x644;&#x645;&#x648;&#x627;&#x642;&#x639;</tspan></text>
<text fill="black" xml:space="preserve" style="white-space: pre" font-family="Harmattan" font-size="20" font-weight="bold" letter-spacing="0em"><tspan x="98.4922" y="529.116">&#x627;&#x644;&#x631;&#x624;&#x64a;&#x629; &#x648;&#x627;&#x644;&#x62e;&#x637;&#x648;&#x629; &#x627;&#x644;&#x642;&#x627;&#x62f;&#x645;&#x629;</tspan></text>
<text fill="#00FF09" stroke="#FF0000" stroke-width="0.5" xml:space="preserve" style="white-space: pre" font-family="Harmattan" font-size="7" letter-spacing="0.09em"><tspan x="19.9393" y="553.441">&#x623;&#x633;&#x639;&#x649; &#x625;&#x644;&#x649; &#x625;&#x62a;&#x642;&#x627;&#x646; &#x645;&#x647;&#x627;&#x631;&#x627;&#x62a; &#x627;&#x644;&#x62d;&#x627;&#x633;&#x648;&#x628; &#x648;&#x627;&#x644;&#x62a;&#x643;&#x646;&#x648;&#x644;&#x648;&#x62c;&#x64a;&#x627; &#x627;&#x644;&#x62d;&#x62f;&#x64a;&#x62b;&#x629; &#x645;&#x646; &#x62e;&#x644;&#x627;&#x644; &#x627;&#x644;&#x62a;&#x639;&#x644;&#x645; &#x627;&#x644;&#x645;&#x633;&#x62a;&#x645;&#x631; &#x648;&#x627;&#x644;&#x627;&#x633;&#x62a;&#x643;&#x634;&#x627;&#x641; &#x627;&#x644;&#x639;&#x645;&#x64a;&#x642; &#x644;&#x643;&#x644; &#x645;&#x627; &#x647;&#x648; </tspan><tspan x="30.8317" y="567.441">&#x62c;&#x62f;&#x64a;&#x62f; &#x641;&#x64a; &#x647;&#x630;&#x627; &#x627;&#x644;&#x645;&#x62c;&#x627;&#x644;. &#x634;&#x63a;&#x641;&#x64a; &#x628;&#x627;&#x644;&#x62d;&#x627;&#x633;&#x648;&#x628; &#x64a;&#x62f;&#x641;&#x639;&#x646;&#x64a; &#x62f;&#x627;&#x626;&#x645;&#x64b;&#x627; &#x625;&#x644;&#x649; &#x62a;&#x637;&#x648;&#x64a;&#x631; &#x645;&#x647;&#x627;&#x631;&#x627;&#x62a;&#x64a;&#x60c; &#x645;&#x648;&#x627;&#x643;&#x628;&#x629; &#x623;&#x62d;&#x62f;&#x62b; &#x627;&#x644;&#x62a;&#x642;&#x646;&#x64a;&#x627;&#x62a;&#x60c; &#x648;&#x62a;&#x62d;&#x644;&#x64a;&#x644; </tspan><tspan x="23.3916" y="581.441">&#x627;&#x644;&#x645;&#x634;&#x643;&#x644;&#x627;&#x62a; &#x627;&#x644;&#x62a;&#x642;&#x646;&#x64a;&#x629; &#x644;&#x625;&#x64a;&#x62c;&#x627;&#x62f; &#x62d;&#x644;&#x648;&#x644; &#x645;&#x628;&#x62a;&#x643;&#x631;&#x629;. &#x623;&#x624;&#x645;&#x646; &#x628;&#x623;&#x646; &#x627;&#x644;&#x62a;&#x639;&#x644;&#x645; &#x644;&#x627; &#x64a;&#x62a;&#x648;&#x642;&#x641;&#x60c; &#x648;&#x623;&#x633;&#x639;&#x649; &#x625;&#x644;&#x649; &#x623;&#x646; &#x623;&#x643;&#x648;&#x646; &#x62f;&#x627;&#x626;&#x645; &#x627;&#x644;&#x62a;&#x637;&#x648;&#x631;&#x60c; &#x642;&#x627;&#x62f;&#x631;&#x64b;&#x627; &#x639;&#x644;&#x649; </tspan><tspan x="44.6875" y="595.441">&#x627;&#x644;&#x62a;&#x643;&#x64a;&#x641; &#x645;&#x639; &#x627;&#x644;&#x62a;&#x63a;&#x64a;&#x631;&#x627;&#x62a; &#x627;&#x644;&#x633;&#x631;&#x64a;&#x639;&#x629; &#x641;&#x64a; &#x639;&#x627;&#x644;&#x645; &#x627;&#x644;&#x62a;&#x642;&#x646;&#x64a;&#x629;&#x60c; &#x648;&#x645;&#x633;&#x627;&#x647;&#x645;&#x64b;&#x627; &#x641;&#x64a; &#x625;&#x62b;&#x631;&#x627;&#x621; &#x647;&#x630;&#x627; &#x627;&#x644;&#x645;&#x62c;&#x627;&#x644; &#x628;&#x627;&#x644;&#x645;&#x639;&#x631;&#x641;&#x629; &#x648;&#x627;&#x644;&#x625;&#x628;&#x62f;&#x627;&#x639;.&#13;&#10;</tspan><tspan x="21.1705" y="609.441">&#x627;&#x644;&#x62e;&#x637;&#x648;&#x629; &#x627;&#x644;&#x642;&#x627;&#x62f;&#x645;&#x629; &#x641;&#x64a; &#x645;&#x633;&#x64a;&#x631;&#x62a;&#x64a; &#x628;&#x627;&#x630;&#x646; &#x627;&#x644;&#x644;&#x647; &#x647;&#x64a; &#x627;&#x633;&#x62a;&#x643;&#x645;&#x627;&#x644; &#x62f;&#x631;&#x627;&#x633;&#x627;&#x62a;&#x64a; &#x627;&#x644;&#x639;&#x644;&#x64a;&#x627; &#x628;&#x627;&#x644;&#x62d;&#x635;&#x648;&#x644; &#x639;&#x644;&#x649; &#x62f;&#x631;&#x62c;&#x629; &#x627;&#x644;&#x645;&#x627;&#x62c;&#x633;&#x62a;&#x64a;&#x631;&#x60c; &#x62b;&#x645; &#x627;&#x644;&#x62f;&#x643;&#x62a;&#x648;&#x631;&#x627;&#x647;&#x60c; &#x645;&#x645;&#x627; </tspan><tspan x="27.7868" y="623.441">&#x633;&#x64a;&#x645;&#x643;&#x646;&#x646;&#x64a; &#x645;&#x646; &#x627;&#x644;&#x62a;&#x639;&#x645;&#x642; &#x641;&#x64a; &#x627;&#x644;&#x628;&#x62d;&#x62b; &#x627;&#x644;&#x639;&#x644;&#x645;&#x64a;&#x60c; &#x62a;&#x642;&#x62f;&#x64a;&#x645; &#x62d;&#x644;&#x648;&#x644; &#x62a;&#x642;&#x646;&#x64a;&#x629; &#x645;&#x628;&#x62a;&#x643;&#x631;&#x629;&#x60c; &#x648;&#x627;&#x644;&#x645;&#x633;&#x627;&#x647;&#x645;&#x629; &#x641;&#x64a; &#x62a;&#x64d;&#x637;&#x648;&#x64a;&#x631; &#x627;&#x644;&#x645;&#x62c;&#x627;&#x644; &#x627;&#x644;&#x623;&#x643;&#x627;&#x62f;&#x64a;&#x645;&#x64a; </tspan><tspan x="164.415" y="637.441">&#x648;&#x627;&#x644;&#x645;&#x647;&#x646;&#x64a;</tspan></text>
<text fill="#FF0040" xml:space="preserve" style="white-space: pre" font-family="Harmattan" font-size="7" font-weight="500" letter-spacing="0em"><tspan x="165" y="698.441">https://github.com/mostafa0said0abdelwahab</tspan></text>
<text fill="#FF0040" xml:space="preserve" style="white-space: pre" font-family="Harmattan" font-size="7" font-weight="500" letter-spacing="0em"><tspan x="161" y="728.441">https://mostafa0said0abdelwahab.github.io/cv/</tspan></text>
<text fill="#FF0040" xml:space="preserve" style="white-space: pre" font-family="Harmattan" font-size="7" font-weight="500" letter-spacing="0em"><tspan x="244.492" y="715.441">mostafasaid13</tspan></text>
<path d="M90.1302 103.471H22.4922V108.725H90.1302V103.471Z" fill="#949598"/>
<path d="M82.5542 103.471H23.4922V108.725H82.5542V103.471Z" fill="#00AEEF"/>
<path d="M80.6432 102C81.6327 102 82.5817 102.393 83.2814 103.093C83.9811 103.792 84.3742 104.741 84.3742 105.731V106.466C84.3746 106.956 84.2784 107.442 84.0911 107.895C83.9037 108.348 83.629 108.759 83.2825 109.106C82.936 109.453 82.5246 109.728 82.0717 109.916C81.6188 110.103 81.1334 110.2 80.6432 110.2C80.251 110.2 79.8626 110.123 79.5002 109.972C79.1378 109.822 78.8087 109.602 78.5314 109.325C78.2542 109.047 78.0344 108.718 77.8846 108.355C77.7347 107.993 77.6578 107.604 77.6582 107.212V104.985C77.6582 104.193 77.9727 103.434 78.5325 102.874C79.0923 102.314 79.8515 102 80.6432 102Z" fill="black"/>
<path d="M90.1302 294.471H22.4922V299.725H90.1302V294.471Z" fill="#949598"/>
<path d="M82.5542 294.471H23.4922V299.725H82.5542V294.471Z" fill="#00AEEF"/>
<path d="M80.6432 293C81.6327 293 82.5817 293.393 83.2814 294.093C83.9811 294.792 84.3742 295.741 84.3742 296.731V297.466C84.3746 297.956 84.2784 298.442 84.0911 298.895C83.9037 299.348 83.629 299.759 83.2825 300.106C82.936 300.453 82.5246 300.728 82.0717 300.916C81.6188 301.103 81.1334 301.2 80.6432 301.2C80.251 301.2 79.8626 301.123 79.5002 300.972C79.1378 300.822 78.8087 300.602 78.5314 300.325C78.2542 300.047 78.0344 299.718 77.8846 299.355C77.7347 298.993 77.6578 298.604 77.6582 298.212V295.985C77.6582 295.193 77.9727 294.434 78.5325 293.874C79.0923 293.314 79.8515 293 80.6432 293Z" fill="black"/>
<text fill="black" xml:space="preserve" style="white-space: pre" font-family="Harmattan" font-size="9" font-weight="bold" letter-spacing="0em"><tspan x="133" y="124.352">SECOND EDITION OP NOTCH </tspan></text>
<text fill="black" xml:space="preserve" style="white-space: pre" font-family="Harmattan" font-size="9" font-weight="bold" letter-spacing="0em"><tspan x="142" y="322.352">flutter and dart cookbook</tspan></text>
<path d="M256.521 4.78711H90.4922V32.3771H256.521V4.78711Z" fill="#00AEEF"/>
<text fill="white" xml:space="preserve" style="white-space: pre" font-family="Harmattan" font-size="20" font-weight="bold" letter-spacing="0em"><tspan x="150.492" y="22.1162">&#x627;&#x644;&#x647;&#x648;&#x627;&#x64a;&#x627;&#x62a;</tspan></text>
<text fill="white" xml:space="preserve" style="white-space: pre" font-family="Bahij TheSansArabic" font-size="7" font-weight="500" letter-spacing="0em"><tspan x="297.492" y="728.525">cv</tspan></text>
<text fill="#004F6D" xml:space="preserve" style="white-space: pre" font-family="Harmattan" font-size="11" font-weight="bold" letter-spacing="0em"><tspan x="72.2676" y="57.7639">&#x62a;&#x631;&#x62c;&#x645;&#x629; &#x627;&#x644;&#x643;&#x62a;&#x628; &#x628;&#x627;&#x633;&#x62a;&#x62e;&#x62f;&#x627;&#x645; &#x627;&#x644;&#x630;&#x643;&#x627;&#x621; &#x627;&#x644;&#x627;&#x635;&#x637;&#x646;&#x627;&#x639;&#x64a; &#x648;&#x62e;&#x62f;&#x645;&#x627;&#x62a; &#x62c;&#x648;&#x62c;&#x644; </tspan><tspan x="85.8081" y="76.7639">&#x627;&#x644;&#x645;&#x62a;&#x631;&#x62c;&#x645;&#x629;. &#x648;&#x62e;&#x627;&#x635;&#x62a;&#x627; &#x627;&#x644;&#x643;&#x62a;&#x628; &#x627;&#x644;&#x62a;&#x639;&#x644;&#x64a;&#x645;&#x64a;&#x629; &#x627;&#x644;&#x645;&#x645;&#x633;&#x648;&#x62d;&#x629; &#x641;&#x648;&#x644;&#x64a;&#x627; </tspan></text>
<text fill="#FF0000" xml:space="preserve" style="white-space: pre" font-family="Harmattan" font-size="11" font-weight="bold" letter-spacing="0em"><tspan x="125.576" y="94.7639">&#x62a;&#x645; &#x62a;&#x631;&#x62c;&#x645;&#x629; &#x628;&#x639;&#x636; &#x627;&#x644;&#x643;&#x62a;&#x628; &#x628;&#x627;&#x644;&#x641;&#x639;&#x644; </tspan></text>
<text fill="#FF0000" xml:space="preserve" style="white-space: pre" font-family="Harmattan" font-size="11" font-weight="bold" letter-spacing="0em"><tspan x="155.466" y="113.764">&#x645;&#x62b;&#x644; &#x643;&#x62a;&#x627;&#x628;  &#x2193;</tspan></text>
<text fill="#0004FF" xml:space="preserve" style="white-space: pre" font-family="Harmattan" font-size="9" letter-spacing="0em"><tspan x="142.338" y="141.352">&#x648;&#x647;&#x648;&#x644;&#x62a;&#x639;&#x644;&#x64a;&#x645; &#x627;&#x644;&#x644;&#x63a;&#x629; &#x627;&#x644;&#x625;&#x646;&#x62c;&#x644;&#x64a;&#x632;&#x64a;&#x629; &#x2028;</tspan><tspan x="99.9224" y="156.352">&#x647;&#x630;&#x627; &#x627;&#x644;&#x643;&#x62a;&#x627;&#x628; &#x643;&#x627;&#x646; &#x630;&#x627; &#x62c;&#x648;&#x62f;&#x629; &#x631;&#x62f;&#x64a;&#x646;&#x629; 20 &#x648;&#x647;&#x648; en &#x648;&#x644;&#x64a;&#x633; &#x639;&#x631;&#x628;&#x64a; &#x2028;</tspan><tspan x="156.26" y="171.352">&#x627;&#x644;&#x645;&#x637;&#x644;&#x648;&#x628; &#x643;&#x627;&#x646; &#x2028;</tspan><tspan x="49.8511" y="186.352">&#x62a;&#x631;&#x62c;&#x645;&#x62a;&#x647; &#x627;&#x644;&#x639;&#x631;&#x628;&#x64a;&#x629; &#x644;&#x643;&#x646;&#x629; &#x643;&#x62a;&#x627;&#x628; &#x62a;&#x639;&#x644;&#x64a;&#x645;&#x64a; &#x627;&#x644;&#x627;&#x646;&#x62c;&#x644;&#x64a;&#x632;&#x64a;&#x629; &#x641;&#x627;&#x644;&#x635;&#x641;&#x62d;&#x627;&#x62a; &#x627;&#x644;&#x623;&#x635;&#x644;&#x64a;&#x629; &#x645;&#x647;&#x645;&#x629; &#x64a;&#x62c;&#x628; &#x639;&#x644;&#x649; &#x627;&#x644;&#x645;&#x633;&#x62a;&#x62e;&#x62f;&#x645; </tspan><tspan x="50.3081" y="201.352">&#x644;&#x644;&#x643;&#x62a;&#x627;&#x628; &#x623;&#x646; &#x64a;&#x639;&#x631;&#x641; &#x645;&#x627; &#x641;&#x64a; &#x627;&#x644;&#x635;&#x641;&#x62d;&#x647; &#x627;&#x644;&#x631;&#x626;&#x64a;&#x633;&#x64a;&#x629; &#x648;&#x645;&#x62f;&#x644;&#x648;&#x644;&#x647; &#x641;&#x64a; &#x627;&#x644;&#x635;&#x641;&#x62d;&#x627;&#x62a; &#x627;&#x644;&#x623;&#x635;&#x644;&#x64a;&#x629; &#x628;&#x627;&#x644;&#x644;&#x63a;&#x629; &#x627;&#x644;&#x625;&#x646;&#x62c;&#x644;&#x64a;&#x632;&#x64a;&#x629; &#x641;&#x642;&#x62f; </tspan><tspan x="139.899" y="216.352">&#x635;&#x62d;&#x62d;&#x62a; &#x627;&#x644;&#x643;&#x62a;&#x627;&#x628; &#x645;&#x646; &#x62c;&#x62f;&#x64a;&#x62f; &#x2028;</tspan><tspan x="69.4595" y="231.352">&#x639;&#x644;&#x649; &#x623;&#x646; &#x62a;&#x643;&#x648;&#x646; &#x647;&#x646;&#x627;&#x643; &#x635;&#x641;&#x62d;&#x647; &#x641;&#x64a; &#x627;&#x644;&#x64a;&#x645;&#x64a;&#x646; &#x628;&#x627;&#x644;&#x627;&#x646;&#x62c;&#x644;&#x64a;&#x632;&#x64a;&#x629; &#x648;&#x627;&#x644;&#x62a;&#x64a; &#x62a;&#x642;&#x627;&#x628;&#x644;&#x647;&#x627; &#x641;&#x64a; &#x646;&#x641;&#x633; &#x627;&#x644;&#x635;&#x641;&#x62d;&#x629; &#x2028;</tspan><tspan x="65.1572" y="246.352">&#x645;&#x62a;&#x631;&#x62c;&#x645;&#x647; &#x645;&#x646;&#x641;&#x635;&#x644;&#x647; &#x639;&#x646;&#x647;&#x627; &#x627;&#x64a; &#x644;&#x627; &#x64a;&#x62a;&#x645; &#x627;&#x644;&#x62f;&#x645;&#x62c; &#x627;&#x644;&#x635;&#x641;&#x62d;&#x627;&#x62a; &#x627;&#x64a; &#x644;&#x645; &#x64a;&#x62a;&#x645; &#x627;&#x633;&#x62a;&#x62e;&#x62f;&#x627;&#x645; &#x627;&#x644;&#x637;&#x631;&#x642; &#x627;&#x644;&#x62a;&#x642;&#x644;&#x64a;&#x62f;&#x64a;&#x647; &#x2028;</tspan><tspan x="111.849" y="261.352">&#x648;&#x630;&#x644;&#x643; &#x644;&#x627;&#x645;&#x643;&#x627;&#x646;&#x64a;&#x629; &#x627;&#x644;&#x637;&#x628;&#x627;&#x639;&#x647; &#x627;&#x644;&#x635;&#x62d;&#x64a;&#x62d;&#x647; &#x628;&#x627;&#x644;&#x62a;&#x631;&#x642;&#x64a;&#x645; &#x627;&#x644;&#x635;&#x64a;&#x62d;&#x64a;&#x62d;</tspan></text>
<text fill="#0004FF" xml:space="preserve" style="white-space: pre" font-family="Harmattan" font-size="8" font-weight="bold" letter-spacing="0.05em"><tspan x="43.7844" y="336.646"> &#x62a;&#x631;&#x62c;&#x645;&#x62a; &#x647;&#x630;&#x627; &#x627;&#x644;&#x643;&#x62a;&#x627;&#x628; &#x64a;&#x62f;&#x648;&#x64a;&#x627; &#x644;&#x627;&#x646; &#x62c;&#x648;&#x62c;&#x644; &#x644;&#x644;&#x62a;&#x631;&#x62c;&#x645;&#x629; &#x643;&#x627;&#x646;&#x62a; &#x62a;&#x62a;&#x631;&#x62c;&#x645; &#x627;&#x644;&#x627;&#x643;&#x648;&#x627;&#x62f; &#x627;&#x644;&#x628;&#x631;&#x645;&#x62c;&#x64a;&#x629; &#x648;&#x62a;&#x63a;&#x64a;&#x631; &#x627;&#x644;&#x648;&#x627;&#x646;&#x647;&#x627; </tspan><tspan x="45.7805" y="350.646">&#x648;&#x647;&#x648; &#x634;&#x626; &#x63a;&#x64a;&#x631; &#x645;&#x637;&#x644;&#x648;&#x628; &#x641;&#x642;&#x645;&#x62a; &#x628;&#x62a;&#x641;&#x643;&#x64a;&#x643; &#x627;&#x644;&#x645;&#x644;&#x641; &#x648;&#x62a;&#x631;&#x62c;&#x645;&#x62a;&#x647; &#x64a;&#x62f;&#x648;&#x64a;&#x627; &#x628;&#x627;&#x633;&#x62a;&#x62e;&#x62f;&#x627;&#x645; &#x623;&#x62f;&#x627;&#x629; ai &#x645;&#x62f;&#x645;&#x62c;&#x647; &#x641;&#x64a; </tspan><tspan x="144.316" y="364.646">&#x627;&#x62d;&#x62f;&#x64a; &#x627;&#x644;&#x628;&#x631;&#x627;&#x645;&#x62c; &#x644;&#x644;&#x62a;&#x631;&#x62c;&#x645;&#x629; &#x2028;</tspan><tspan x="64.0391" y="378.646">&#x627;&#x644;&#x627;&#x646; &#x642;&#x62f; &#x62d;&#x644;&#x62a; &#x627;&#x644;&#x645;&#x634;&#x643;&#x644;&#x629; &#x627;&#x644;&#x62e;&#x627;&#x635;&#x647; &#x628;&#x627;&#x644;&#x62a;&#x631;&#x62c;&#x645;&#x647; &#x628;&#x627;&#x642;&#x64a; &#x645;&#x634;&#x643;&#x644;&#x629; &#x639;&#x62f;&#x62f; &#x627;&#x644;&#x635;&#x641;&#x62d;&#x627;&#x62a; &#x627;&#x644;&#x643;&#x62b;&#x64a;&#x631;&#x629; &#x2028;</tspan><tspan x="54.3625" y="392.646">&#x627;&#x633;&#x62a;&#x62e;&#x62f;&#x645;&#x62a; &#x627;&#x633;&#x643;&#x631;&#x628;&#x62a;&#x627;&#x62a; &#x628;&#x631;&#x645;&#x62c;&#x64a;&#x629; &#x645;&#x646; &#x628;&#x627;&#x62d;&#x62f;&#x64a; &#x627;&#x644;&#x628;&#x631;&#x627;&#x645;&#x62c; &#x648;&#x628;&#x639;&#x636; &#x627;&#x644;&#x623;&#x62f;&#x648;&#x627;&#x62a; &#x627;&#x644;&#x623;&#x62e;&#x631;&#x649; &#x645;&#x62b;&#x644; &#x627;&#x62f;&#x648;&#x628;&#x64a; </tspan><tspan x="50.5961" y="406.646">&#x627;&#x643;&#x631;&#x648;&#x628;&#x627;&#x62a; &#x648; pdf x &#x648; 7 pdf &#x648;&#x63a;&#x64a;&#x631;&#x647;&#x627; &#x62d;&#x62a;&#x64a; &#x644;&#x637;&#x628;&#x627;&#x639;&#x647; &#x628;&#x648;&#x643;&#x644;&#x62a; &#x645;&#x635;&#x63a;&#x631; &#x62c;&#x62f;&#x627; 8 &#x635;&#x641;&#x62d;&#x627;&#x62a; &#x644;&#x644;&#x635;&#x641;&#x62d;&#x629; </tspan><tspan x="150.55" y="420.646">&#x627;&#x644;&#x648;&#x627;&#x62d;&#x62f;&#x629; &#x628;&#x627;&#x644;&#x648;&#x62c;&#x647;&#x64a;&#x646; &#x2028;</tspan><tspan x="43.6758" y="434.646"> &#x627;&#x630; &#x62a;&#x645; &#x637;&#x628;&#x627;&#x639;&#x629; &#x627;&#x644;&#x643;&#x62a;&#x627;&#x628; &#x641;&#x64a; 25 &#x648;&#x631;&#x642;&#x647; &#x645;&#x637;&#x628;&#x648;&#x639;&#x647; &#x628;&#x646;&#x638;&#x627;&#x645; &#x627;&#x644;&#x62f;&#x648;&#x628;&#x644;&#x643;&#x633; ( &#x639;&#x644;&#x64a; &#x643;&#x644;&#x627; &#x645;&#x646; &#x627;&#x644;&#x62c;&#x627;&#x646;&#x628;&#x64a;&#x646; ) &#x648;&#x62a;&#x645; </tspan><tspan x="47.1133" y="448.646">&#x62a;&#x642;&#x637;&#x64a;&#x639;&#x629; &#x648;&#x62a;&#x62c;&#x645;&#x64a;&#x639;&#x647; &#x648;&#x627;&#x639;&#x637;&#x64a;&#x637;&#x629; &#x644;&#x644;&#x645;&#x637;&#x628;&#x639;&#x647; &#x648;&#x62a;&#x645; &#x628;&#x634;&#x631;&#x629; &#x648;&#x627;&#x635;&#x628;&#x62d; &#x643;&#x62a;&#x627;&#x628;&#x627; &#x635;&#x63a;&#x64a;&#x631; &#x62c;&#x62f;&#x627; &#x644;&#x643;&#x646;&#x647; &#x627;&#x62d;&#x62a;&#x631;&#x627;&#x641;&#x64a; &#x623;&#x64a;&#x636;&#x627; </tspan><tspan x="44.0031" y="462.646">&#x647;&#x630;&#x627; &#x623;&#x64a;&#x636;&#x627; &#x643;&#x627;&#x646; &#x645;&#x641;&#x64a;&#x62f; &#x641;&#x64a; &#x627;&#x644;&#x645;&#x648;&#x627;&#x635;&#x644;&#x627;&#x62a; &#x627;&#x644;&#x639;&#x627;&#x645;&#x629; &#x641;&#x64a; &#x627;&#x644;&#x642;&#x631;&#x627;&#x621;&#x629; &#x648;&#x633;&#x647;&#x644; &#x627;&#x644;&#x62d;&#x645;&#x644; &#x623;&#x64a;&#x636;&#x627; &#x648;&#x647;&#x64a; &#x637;&#x631;&#x64a;&#x642;&#x629; &#x62c;&#x64a;&#x62f;&#x629; </tspan><tspan x="127.939" y="476.646">&#x644;&#x644;&#x62a;&#x639;&#x644;&#x64a;&#x645; &#x648;&#x627;&#x644;&#x627;&#x646;&#x635;&#x631;&#x627;&#x641; &#x639;&#x646; &#x627;&#x644;&#x645;&#x634;&#x62a;&#x62a;&#x627;&#x62a; &#x2028;</tspan><tspan x="111.395" y="490.646">&#x648;&#x627;&#x644;&#x643;&#x62b;&#x64a;&#x631; &#x645;&#x646; &#x647;&#x630;&#x647; &#x627;&#x644;&#x627;&#x645;&#x62b;&#x644;&#x647; &#x639;&#x644;&#x64a; &#x645;&#x647;&#x627;&#x631;&#x627;&#x62a; &#x627;&#x644;&#x637;&#x628;&#x627;&#x639;&#x629;</tspan></text>
<text fill="#FF0000" xml:space="preserve" style="white-space: pre" font-family="Harmattan" font-size="11" font-weight="bold" letter-spacing="0em"><tspan x="128.014" y="288.764">&#x62a;&#x645; &#x62a;&#x631;&#x62c;&#x645;&#x629; &#x628;&#x639;&#x636; &#x627;&#x644;&#x643;&#x62a;&#x628; &#x628;&#x627;&#x644;&#x641;&#x639;&#x644;</tspan></text>
<text fill="#FF0000" xml:space="preserve" style="white-space: pre" font-family="Harmattan" font-size="11" font-weight="bold" letter-spacing="0em"><tspan x="155.466" y="307.764">&#x645;&#x62b;&#x644; &#x643;&#x62a;&#x627;&#x628;  &#x2193;</tspan></text>
</svg>
