<svg width="819" height="706" viewBox="0 0 819 706" fill="none" xmlns="http://www.w3.org/2000/svg">
<path d="M678.772 646.327C714.575 656.258 746.427 666.172 770.568 674.048C747.211 664.392 716.301 652.235 681.228 640.004C603.48 612.89 505.48 585.481 423.964 584C338.253 582.442 234.526 609.845 152.086 637.722C110.902 651.648 75.0862 665.673 49.5659 676.217C75.8549 667.907 112.581 656.841 154.394 645.797C238.052 623.701 342.268 601.64 424.009 602C501.276 602.34 599.744 624.405 678.772 646.327Z" stroke="#01ADED" stroke-width="4"/>
<path d="M375.5 628C375.5 627.172 374.828 626.5 374 626.5C373.172 626.5 372.5 627.172 372.5 628L375.5 628ZM372.939 698.061C373.525 698.646 374.475 698.646 375.061 698.061L384.607 688.515C385.192 687.929 385.192 686.979 384.607 686.393C384.021 685.808 383.071 685.808 382.485 686.393L374 694.879L365.515 686.393C364.929 685.808 363.979 685.808 363.393 686.393C362.808 686.979 362.808 687.929 363.393 688.515L372.939 698.061ZM372.5 628L372.5 697L375.5 697L375.5 628L372.5 628Z" fill="#161616"/>
<path d="M473.5 628C473.5 627.172 472.828 626.5 472 626.5C471.172 626.5 470.5 627.172 470.5 628L473.5 628ZM470.939 698.061C471.525 698.646 472.475 698.646 473.061 698.061L482.607 688.515C483.192 687.929 483.192 686.979 482.607 686.393C482.021 685.808 481.071 685.808 480.485 686.393L472 694.879L463.515 686.393C462.929 685.808 461.979 685.808 461.393 686.393C460.808 686.979 460.808 687.929 461.393 688.515L470.939 698.061ZM470.5 628L470.5 697L473.5 697L473.5 628L470.5 628Z" fill="#161616"/>
<path d="M8 3L3 611.5L433 562L812 611.5L817 3" stroke="#01ADED" stroke-width="4"/>
<path d="M9 3.7235V2.5L433.5 69L817 2.5V3.7235" stroke="#01ADED" stroke-width="4"/>
<path d="M749.88 109.946C757.535 109.289 763.305 101.158 762.768 91.7842C762.23 82.4105 755.589 75.3441 747.934 76.001C740.28 76.6579 734.51 84.7894 735.047 94.1631C735.585 103.537 742.226 110.603 749.88 109.946Z" fill="white"/>
<path d="M749.845 109.335C757.224 108.702 762.786 100.863 762.268 91.8267C761.75 82.7902 755.348 75.9779 747.969 76.6112C740.589 77.2445 735.027 85.0834 735.545 94.12C736.063 103.157 742.465 109.969 749.845 109.335Z" stroke="#707070" stroke-width="1.00045"/>
<path d="M748.845 108.128C746.403 108.128 744.016 107.242 741.986 105.582C739.956 103.923 738.374 101.564 737.44 98.8039C736.505 96.0441 736.261 93.0072 736.737 90.0774C737.213 87.1476 738.389 84.4563 740.116 82.344C742.431 79.5113 745.571 77.9199 748.845 77.9199C752.119 77.9199 755.259 79.5113 757.575 82.344C759.89 85.1766 761.19 89.0185 761.19 93.0245C761.19 97.0305 759.89 100.872 757.575 103.705C756.431 105.112 755.07 106.227 753.572 106.986C752.073 107.746 750.466 108.134 748.845 108.128ZM748.489 84.0373C746.712 84.04 744.991 84.7935 743.617 86.1702C742.242 87.547 741.299 89.4625 740.946 91.5925C740.593 93.7226 740.852 95.9364 741.68 97.8594C742.508 99.7823 743.853 101.296 745.489 102.145C746.728 102.783 748.082 103.014 749.416 102.814C750.751 102.615 752.019 101.991 753.096 101.006C754.173 100.021 755.02 98.7083 755.554 97.1986C756.088 95.6889 756.29 94.0346 756.14 92.3999C756.076 91.7135 755.951 91.0378 755.767 90.3848C755.676 90.0649 755.571 89.7512 755.453 89.4452H754.61L754.076 90.0985C754.178 90.3538 754.268 90.6156 754.348 90.8828C754.508 91.4281 754.617 91.9942 754.673 92.57C754.701 92.866 754.715 93.1638 754.716 93.4619C754.713 95.2196 754.215 96.9224 753.304 98.2821C752.394 99.6418 751.128 100.575 749.719 100.923C748.311 101.272 746.848 101.015 745.577 100.195C744.306 99.3753 743.306 98.0436 742.746 96.4252C742.346 95.2663 742.187 94.0045 742.283 92.7521C742.378 91.4998 742.726 90.2958 743.294 89.2477C743.862 88.1995 744.634 87.3397 745.54 86.7448C746.445 86.1499 747.457 85.8385 748.486 85.8383C748.729 85.8386 748.973 85.8562 749.215 85.8909C749.685 85.9584 750.148 86.0918 750.594 86.2885C750.812 86.3852 751.026 86.4967 751.235 86.6225L751.769 85.968V84.9341C751.518 84.7892 751.261 84.6609 751 84.5499C750.466 84.3242 749.914 84.1711 749.354 84.0936C749.066 84.0555 748.777 84.0367 748.489 84.0373ZM748.489 87.8069C747.574 87.8069 746.681 88.1386 745.92 88.7602C745.16 89.3817 744.568 90.2651 744.218 91.2987C743.868 92.3322 743.777 93.4694 743.956 94.5665C744.134 95.6636 744.575 96.6712 745.221 97.4619C745.868 98.2527 746.692 98.791 747.589 99.0087C748.485 99.2265 749.415 99.114 750.259 98.6854C751.104 98.2569 751.826 97.5315 752.333 96.601C752.841 95.6706 753.111 94.5769 753.111 93.4583C753.111 93.2955 753.105 93.1328 753.094 92.9688C753.083 92.8049 753.066 92.6507 753.044 92.4954C753.022 92.34 752.998 92.2029 752.963 92.0365C752.928 91.8701 752.893 91.7356 752.852 91.5912L751.622 93.0949C751.622 93.123 751.622 93.1499 751.628 93.1781C751.634 93.2062 751.628 93.2123 751.628 93.227C751.628 93.2417 751.628 93.2576 751.628 93.2723V93.3249V93.3616C751.628 93.3763 751.628 93.3922 751.628 93.4069V93.4583C751.627 94.0937 751.498 94.7192 751.252 95.279C751.006 95.8387 750.651 96.3154 750.218 96.6667C749.786 97.0179 749.288 97.2327 748.771 97.2919C748.254 97.3512 747.733 97.2531 747.255 97.0064C746.5 96.6134 745.899 95.878 745.578 94.9546C745.376 94.369 745.296 93.7314 745.344 93.0987C745.393 92.466 745.568 91.8578 745.855 91.3282C746.142 90.7986 746.532 90.3641 746.989 90.0633C747.447 89.7625 747.958 89.6048 748.478 89.6042H748.625H748.661H748.698L748.77 89.6116L749.999 88.1067C749.886 88.0577 749.763 88.0112 749.635 87.9708C749.507 87.9305 749.376 87.8962 749.259 87.8717C749.142 87.8473 749.003 87.824 748.873 87.8106C748.743 87.7971 748.621 87.8044 748.489 87.8044V87.8069ZM748.489 91.5765C748.282 91.5755 748.078 91.6259 747.889 91.7245C747.656 91.8446 747.45 92.0328 747.291 92.2728C747.132 92.5127 747.023 92.7968 746.974 93.1003C746.926 93.4037 746.939 93.7171 747.013 94.0128C747.087 94.3085 747.219 94.5774 747.398 94.7959C747.576 95.0144 747.796 95.1758 748.038 95.2658C748.28 95.3558 748.536 95.3717 748.784 95.3121C749.032 95.2525 749.264 95.1191 749.46 94.9239C749.656 94.7286 749.81 94.4774 749.908 94.1924C749.988 93.9602 750.029 93.7104 750.029 93.4583C750.029 93.4032 750.029 93.3481 750.023 93.2967C750.017 93.2454 750.014 93.1928 750.006 93.1389C749.998 93.0851 749.989 93.0288 749.979 92.986C749.969 92.9432 749.954 92.8808 749.942 92.8379L754.057 87.8032H755.257L757.937 84.5242H755.79V81.9035L753.11 85.1825V86.6507L749 91.6805C748.956 91.6609 748.916 91.6462 748.879 91.6352C748.842 91.6242 748.805 91.6132 748.754 91.6022C748.703 91.5912 748.669 91.5863 748.625 91.5814C748.581 91.5765 748.533 91.5765 748.489 91.5765Z" fill="#00AEEF"/>
<text fill="black" xml:space="preserve" style="white-space: pre" font-family="Harmattan" font-size="20" font-weight="bold" letter-spacing="0em"><tspan x="535.492" y="93.4805">&#x627;&#x644;&#x631;&#x624;&#x64a;&#x629; &#x648;&#x627;&#x644;&#x62e;&#x637;&#x648;&#x629; &#x627;&#x644;&#x642;&#x627;&#x62f;&#x645;&#x629;</tspan></text>
<text fill="black" xml:space="preserve" style="white-space: pre" font-family="Harmattan" font-size="15" font-weight="bold" letter-spacing="0.09em"><tspan x="480.091" y="157.087">&#x623;&#x633;&#x639;&#x649; &#x625;&#x644;&#x649; &#x625;&#x62a;&#x642;&#x627;&#x646; &#x645;&#x647;&#x627;&#x631;&#x627;&#x62a; &#x627;&#x644;&#x62d;&#x627;&#x633;&#x648;&#x628; &#x648;&#x627;&#x644;&#x62a;&#x643;&#x646;&#x648;&#x644;&#x648;&#x62c;&#x64a;&#x627; </tspan><tspan x="464.101" y="187.087">&#x627;&#x644;&#x62d;&#x62f;&#x64a;&#x62b;&#x629; &#x645;&#x646; &#x62e;&#x644;&#x627;&#x644; &#x627;&#x644;&#x62a;&#x639;&#x644;&#x645; &#x627;&#x644;&#x645;&#x633;&#x62a;&#x645;&#x631; &#x648;&#x627;&#x644;&#x627;&#x633;&#x62a;&#x643;&#x634;&#x627;&#x641; &#x627;&#x644;&#x639;&#x645;&#x64a;&#x642; </tspan><tspan x="473.311" y="217.087">&#x644;&#x643;&#x644; &#x645;&#x627; &#x647;&#x648; &#x62c;&#x62f;&#x64a;&#x62f; &#x641;&#x64a; &#x647;&#x630;&#x627; &#x627;&#x644;&#x645;&#x62c;&#x627;&#x644;. &#x634;&#x63a;&#x641;&#x64a; &#x628;&#x627;&#x644;&#x62d;&#x627;&#x633;&#x648;&#x628; </tspan><tspan x="481.533" y="247.087">&#x64a;&#x62f;&#x641;&#x639;&#x646;&#x64a; &#x62f;&#x627;&#x626;&#x645;&#x64b;&#x627; &#x625;&#x644;&#x649; &#x62a;&#x637;&#x648;&#x64a;&#x631; &#x645;&#x647;&#x627;&#x631;&#x627;&#x62a;&#x64a;&#x60c; &#x645;&#x648;&#x627;&#x643;&#x628;&#x629; &#x623;&#x62d;&#x62f;&#x62b; </tspan><tspan x="478.049" y="277.087">&#x627;&#x644;&#x62a;&#x642;&#x646;&#x64a;&#x627;&#x62a;&#x60c; &#x648;&#x62a;&#x62d;&#x644;&#x64a;&#x644; &#x627;&#x644;&#x645;&#x634;&#x643;&#x644;&#x627;&#x62a; &#x627;&#x644;&#x62a;&#x642;&#x646;&#x64a;&#x629; &#x644;&#x625;&#x64a;&#x62c;&#x627;&#x62f; &#x62d;&#x644;&#x648;&#x644; </tspan><tspan x="472.622" y="307.087">&#x645;&#x628;&#x62a;&#x643;&#x631;&#x629;. &#x623;&#x624;&#x645;&#x646; &#x628;&#x623;&#x646; &#x627;&#x644;&#x62a;&#x639;&#x644;&#x645; &#x644;&#x627; &#x64a;&#x62a;&#x648;&#x642;&#x641;&#x60c; &#x648;&#x623;&#x633;&#x639;&#x649; &#x625;&#x644;&#x649; &#x623;&#x646; </tspan><tspan x="474.053" y="337.087">&#x623;&#x643;&#x648;&#x646; &#x62f;&#x627;&#x626;&#x645; &#x627;&#x644;&#x62a;&#x637;&#x648;&#x631;&#x60c; &#x642;&#x627;&#x62f;&#x631;&#x64b;&#x627; &#x639;&#x644;&#x649; &#x627;&#x644;&#x62a;&#x643;&#x64a;&#x641; &#x645;&#x639; &#x627;&#x644;&#x62a;&#x63a;&#x64a;&#x631;&#x627;&#x62a; </tspan><tspan x="479.84" y="367.087">&#x627;&#x644;&#x633;&#x631;&#x64a;&#x639;&#x629; &#x641;&#x64a; &#x639;&#x627;&#x644;&#x645; &#x627;&#x644;&#x62a;&#x642;&#x646;&#x64a;&#x629;&#x60c; &#x648;&#x645;&#x633;&#x627;&#x647;&#x645;&#x64b;&#x627; &#x641;&#x64a; &#x625;&#x62b;&#x631;&#x627;&#x621; &#x647;&#x630;&#x627; </tspan><tspan x="549.38" y="397.087">&#x627;&#x644;&#x645;&#x62c;&#x627;&#x644; &#x628;&#x627;&#x644;&#x645;&#x639;&#x631;&#x641;&#x629; &#x648;&#x627;&#x644;&#x625;&#x628;&#x62f;&#x627;&#x639;.&#13;&#10;</tspan><tspan x="474.429" y="427.087">&#x627;&#x644;&#x62e;&#x637;&#x648;&#x629; &#x627;&#x644;&#x642;&#x627;&#x62f;&#x645;&#x629; &#x641;&#x64a; &#x645;&#x633;&#x64a;&#x631;&#x62a;&#x64a; &#x628;&#x627;&#x630;&#x646; &#x627;&#x644;&#x644;&#x647; &#x647;&#x64a; &#x627;&#x633;&#x62a;&#x643;&#x645;&#x627;&#x644; </tspan><tspan x="483.307" y="457.087">&#x62f;&#x631;&#x627;&#x633;&#x627;&#x62a;&#x64a; &#x627;&#x644;&#x639;&#x644;&#x64a;&#x627; &#x628;&#x627;&#x644;&#x62d;&#x635;&#x648;&#x644; &#x639;&#x644;&#x649; &#x62f;&#x631;&#x62c;&#x629; &#x627;&#x644;&#x645;&#x627;&#x62c;&#x633;&#x62a;&#x64a;&#x631;&#x60c; &#x62b;&#x645; </tspan><tspan x="482.176" y="487.087">&#x627;&#x644;&#x62f;&#x643;&#x62a;&#x648;&#x631;&#x627;&#x647;&#x60c; &#x645;&#x645;&#x627; &#x633;&#x64a;&#x645;&#x643;&#x646;&#x646;&#x64a; &#x645;&#x646; &#x627;&#x644;&#x62a;&#x639;&#x645;&#x642; &#x641;&#x64a; &#x627;&#x644;&#x628;&#x62d;&#x62b; </tspan><tspan x="474.034" y="517.087">&#x627;&#x644;&#x639;&#x644;&#x645;&#x64a;&#x60c; &#x62a;&#x642;&#x62f;&#x64a;&#x645; &#x62d;&#x644;&#x648;&#x644; &#x62a;&#x642;&#x646;&#x64a;&#x629; &#x645;&#x628;&#x62a;&#x643;&#x631;&#x629;&#x60c; &#x648;&#x627;&#x644;&#x645;&#x633;&#x627;&#x647;&#x645;&#x629; &#x641;&#x64a; </tspan><tspan x="528.969" y="547.087">&#x62a;&#x64d;&#x637;&#x648;&#x64a;&#x631; &#x627;&#x644;&#x645;&#x62c;&#x627;&#x644; &#x627;&#x644;&#x623;&#x643;&#x627;&#x62f;&#x64a;&#x645;&#x64a; &#x648;&#x627;&#x644;&#x645;&#x647;&#x646;&#x64a;</tspan></text>
<path d="M330.88 109.946C338.535 109.289 344.305 101.158 343.768 91.7842C343.23 82.4105 336.589 75.3441 328.934 76.001C321.28 76.6579 315.51 84.7894 316.047 94.1631C316.585 103.537 323.226 110.603 330.88 109.946Z" fill="white"/>
<path d="M330.845 109.335C338.224 108.702 343.786 100.863 343.268 91.8267C342.75 82.7902 336.348 75.9779 328.969 76.6112C321.589 77.2445 316.027 85.0834 316.545 94.12C317.063 103.157 323.465 109.969 330.845 109.335Z" stroke="#707070" stroke-width="1.00045"/>
<path d="M329.845 108.128C327.403 108.128 325.016 107.242 322.986 105.582C320.956 103.923 319.374 101.564 318.44 98.8039C317.505 96.0441 317.261 93.0072 317.737 90.0774C318.213 87.1476 319.389 84.4563 321.116 82.344C323.431 79.5113 326.571 77.9199 329.845 77.9199C333.119 77.9199 336.259 79.5113 338.575 82.344C340.89 85.1766 342.19 89.0185 342.19 93.0245C342.19 97.0305 340.89 100.872 338.575 103.705C337.431 105.112 336.07 106.227 334.572 106.986C333.073 107.746 331.466 108.134 329.845 108.128ZM329.489 84.0373C327.712 84.04 325.991 84.7935 324.617 86.1702C323.242 87.547 322.299 89.4625 321.946 91.5925C321.593 93.7226 321.852 95.9364 322.68 97.8594C323.508 99.7823 324.853 101.296 326.489 102.145C327.728 102.783 329.082 103.014 330.416 102.814C331.751 102.615 333.019 101.991 334.096 101.006C335.173 100.021 336.02 98.7083 336.554 97.1986C337.088 95.6889 337.29 94.0346 337.14 92.3999C337.076 91.7135 336.951 91.0378 336.767 90.3848C336.676 90.0649 336.571 89.7512 336.453 89.4452H335.61L335.076 90.0985C335.178 90.3538 335.268 90.6156 335.348 90.8828C335.508 91.4281 335.617 91.9942 335.673 92.57C335.701 92.866 335.715 93.1638 335.716 93.4619C335.713 95.2196 335.215 96.9224 334.304 98.2821C333.394 99.6418 332.128 100.575 330.719 100.923C329.311 101.272 327.848 101.015 326.577 100.195C325.306 99.3753 324.306 98.0436 323.746 96.4252C323.346 95.2663 323.187 94.0045 323.283 92.7521C323.378 91.4998 323.726 90.2958 324.294 89.2477C324.862 88.1995 325.634 87.3397 326.54 86.7448C327.445 86.1499 328.457 85.8385 329.486 85.8383C329.729 85.8386 329.973 85.8562 330.215 85.8909C330.685 85.9584 331.148 86.0918 331.594 86.2885C331.812 86.3852 332.026 86.4967 332.235 86.6225L332.769 85.968V84.9341C332.518 84.7892 332.261 84.6609 332 84.5499C331.466 84.3242 330.914 84.1711 330.354 84.0936C330.066 84.0555 329.777 84.0367 329.489 84.0373ZM329.489 87.8069C328.574 87.8069 327.681 88.1386 326.92 88.7602C326.16 89.3817 325.568 90.2651 325.218 91.2987C324.868 92.3322 324.777 93.4694 324.956 94.5665C325.134 95.6636 325.575 96.6712 326.221 97.4619C326.868 98.2527 327.692 98.791 328.589 99.0087C329.485 99.2265 330.415 99.114 331.259 98.6854C332.104 98.2569 332.826 97.5315 333.333 96.601C333.841 95.6706 334.111 94.5769 334.111 93.4583C334.111 93.2955 334.105 93.1328 334.094 92.9688C334.083 92.8049 334.066 92.6507 334.044 92.4954C334.022 92.34 333.998 92.2029 333.963 92.0365C333.928 91.8701 333.893 91.7356 333.852 91.5912L332.622 93.0949C332.622 93.123 332.622 93.1499 332.628 93.1781C332.634 93.2062 332.628 93.2123 332.628 93.227C332.628 93.2417 332.628 93.2576 332.628 93.2723V93.3249V93.3616C332.628 93.3763 332.628 93.3922 332.628 93.4069V93.4583C332.627 94.0937 332.498 94.7192 332.252 95.279C332.006 95.8387 331.651 96.3154 331.218 96.6667C330.786 97.0179 330.288 97.2327 329.771 97.2919C329.254 97.3512 328.733 97.2531 328.255 97.0064C327.5 96.6134 326.899 95.878 326.578 94.9546C326.376 94.369 326.296 93.7314 326.344 93.0987C326.393 92.466 326.568 91.8578 326.855 91.3282C327.142 90.7986 327.532 90.3641 327.989 90.0633C328.447 89.7625 328.958 89.6048 329.478 89.6042H329.625H329.661H329.698L329.77 89.6116L330.999 88.1067C330.886 88.0577 330.763 88.0112 330.635 87.9708C330.507 87.9305 330.376 87.8962 330.259 87.8717C330.142 87.8473 330.003 87.824 329.873 87.8106C329.743 87.7971 329.621 87.8044 329.489 87.8044V87.8069ZM329.489 91.5765C329.282 91.5755 329.078 91.6259 328.889 91.7245C328.656 91.8446 328.45 92.0328 328.291 92.2728C328.132 92.5127 328.023 92.7968 327.974 93.1003C327.926 93.4037 327.939 93.7171 328.013 94.0128C328.087 94.3085 328.219 94.5774 328.398 94.7959C328.576 95.0144 328.796 95.1758 329.038 95.2658C329.28 95.3558 329.536 95.3717 329.784 95.3121C330.032 95.2525 330.264 95.1191 330.46 94.9239C330.656 94.7286 330.81 94.4774 330.908 94.1924C330.988 93.9602 331.029 93.7104 331.029 93.4583C331.029 93.4032 331.029 93.3481 331.023 93.2967C331.017 93.2454 331.014 93.1928 331.006 93.1389C330.998 93.0851 330.989 93.0288 330.979 92.986C330.969 92.9432 330.954 92.8808 330.942 92.8379L335.057 87.8032H336.257L338.937 84.5242H336.79V81.9035L334.11 85.1825V86.6507L330 91.6805C329.956 91.6609 329.916 91.6462 329.879 91.6352C329.842 91.6242 329.805 91.6132 329.754 91.6022C329.703 91.5912 329.669 91.5863 329.625 91.5814C329.581 91.5765 329.533 91.5765 329.489 91.5765Z" fill="#00AEEF"/>
<text fill="black" xml:space="preserve" style="white-space: pre" font-family="Harmattan" font-size="20" font-weight="bold" letter-spacing="0em"><tspan x="116.492" y="93.4805">&#x627;&#x644;&#x631;&#x624;&#x64a;&#x629; &#x648;&#x627;&#x644;&#x62e;&#x637;&#x648;&#x629; &#x627;&#x644;&#x642;&#x627;&#x62f;&#x645;&#x629;</tspan></text>
<text fill="black" xml:space="preserve" style="white-space: pre" font-family="Harmattan" font-size="13" font-weight="bold" letter-spacing="0.09em"><tspan x="48.5003" y="158.676">I strive to master computer skills and modern technology </tspan><tspan x="39.6232" y="184.676">through continuous learning and in-depth exploration of the </tspan><tspan x="42.5114" y="210.676">latest developments in this field. My passion for computers </tspan><tspan x="43.8634" y="236.676">constantly drives me to develop my skills, keep up with the </tspan><tspan x="43.6603" y="262.676">latest technologies, and analyze technical problems to find </tspan><tspan x="31.6645" y="288.676">innovative solutions. I believe that learning never stops, and I </tspan><tspan x="44.0846" y="314.676">strive to be constantly evolving, able to adapt to the rapid </tspan><tspan x="54.0301" y="340.676">changes in the world of technology, and contributing to </tspan><tspan x="69.2568" y="366.676">enriching this field with knowledge and creativity.&#10;</tspan><tspan x="46.8478" y="392.676">The next step in my career, God willing, is to complete my </tspan><tspan x="33.5718" y="418.676">postgraduate studies by obtaining a master&#39;s degree, followed </tspan><tspan x="53.6926" y="444.676">by a doctorate. This will enable me to delve deeper into </tspan><tspan x="31.7407" y="470.676">scientific research, provide innovative technical solutions, and </tspan><tspan x="30.0034" y="496.676">contribute to the development of the academic and professional </tspan><tspan x="199.238" y="522.676">fields.</tspan></text>
<text fill="black" stroke="#02B3FF" xml:space="preserve" style="white-space: pre" font-family="Arial" font-size="32" font-weight="900" letter-spacing="0em"><tspan x="399.094" y="652.156">CV </tspan><tspan x="389.531" y="697.156">ATS</tspan></text>
<g filter="url(#filter0_f_187_3196)">
<rect x="424" y="72" width="15" height="484" fill="url(#paint0_linear_187_3196)"/>
</g>
<defs>
<filter id="filter0_f_187_3196" x="420" y="68" width="23" height="492" filterUnits="userSpaceOnUse" color-interpolation-filters="sRGB">
<feFlood flood-opacity="0" result="BackgroundImageFix"/>
<feBlend mode="normal" in="SourceGraphic" in2="BackgroundImageFix" result="shape"/>
<feGaussianBlur stdDeviation="2" result="effect1_foregroundBlur_187_3196"/>
</filter>
<linearGradient id="paint0_linear_187_3196" x1="439" y1="314" x2="424" y2="314" gradientUnits="userSpaceOnUse">
<stop offset="0.432692" stop-color="#535353"/>
<stop offset="0.475962"/>
<stop offset="0.476062" stop-color="#00B3FF"/>
</linearGradient>
</defs>
</svg>
