<svg width="809" height="1204" viewBox="0 0 809 1204" fill="none" xmlns="http://www.w3.org/2000/svg">
<path d="M684.76 30H509.76V58H684.76V30Z" fill="#00AEEF"/>
<text fill="white" xml:space="preserve" style="white-space: pre" font-family="Harmattan" font-size="20" font-weight="bold" letter-spacing="0em"><tspan x="535.73" y="48.1162">&#x627;&#x644;&#x634;&#x647;&#x627;&#x62f;&#x627;&#x62a; &#x627;&#x644;&#x645;&#x639;&#x62a;&#x645;&#x62f;&#x629;</tspan></text>
<text fill="black" xml:space="preserve" style="white-space: pre" font-family="Harmattan" font-size="20" font-weight="500" letter-spacing="0em"><tspan x="514.938" y="129.116">&#x645;&#x639;&#x62a;&#x645;&#x62f;&#x629; &#x645;&#x648;&#x62b;&#x642;&#x647; &#x645;&#x646; &#x62c;&#x627;&#x645;&#x639;&#x629; &#x627;&#x644;&#x645;&#x646;&#x635;&#x648;&#x631;&#x629;</tspan></text>
<text fill="#FF0000" xml:space="preserve" style="white-space: pre" font-family="Harmattan" font-size="20" font-weight="500" letter-spacing="0em"><tspan x="470.023" y="106.116">&#x628;&#x627;&#x643;&#x644;&#x648;&#x631;&#x64a;&#x648;&#x633; &#x62a;&#x631;&#x628;&#x648;&#x64a; &#x627;&#x639;&#x62f;&#x627;&#x62f; &#x645;&#x639;&#x644;&#x645; &#x62d;&#x627;&#x633;&#x628; &#x623;&#x644;&#x64a; </tspan></text>
<text fill="#F30000" xml:space="preserve" style="white-space: pre" font-family="Harmattan" font-size="20" font-weight="bold" letter-spacing="0em"><tspan x="588.781" y="233.116">ENGLISH 3 LEVELS </tspan></text>
<path d="M735.758 30.5967H733.408C728.189 30.5967 723.184 31.9663 719.494 34.4043C715.804 36.8423 713.73 40.1489 713.73 43.5967V45.1517C713.73 48.5995 715.804 51.9061 719.494 54.3441C723.184 56.7821 728.189 58.1517 733.408 58.1517H735.762C738.346 58.1517 740.905 57.8154 743.293 57.1621C745.68 56.5088 747.849 55.5512 749.677 54.3441C751.504 53.1369 752.953 51.7038 753.942 50.1266C754.931 48.5493 755.44 46.8589 755.44 45.1517V43.5967C755.44 41.8892 754.931 40.1985 753.942 38.6211C752.953 37.0437 751.503 35.6104 749.675 34.4032C747.847 33.196 745.677 32.2385 743.289 31.5854C740.901 30.9323 738.342 30.5963 735.758 30.5967Z" fill="#00AEEF" stroke="#707070"/>
<path d="M721.763 37.6045C722.706 37.6045 723.514 38.3475 724.061 39.5475C725.084 42.1856 725.084 44.9515 724.061 47.5895C723.514 48.7895 722.698 49.5325 721.763 49.5325C720.827 49.5325 720.012 48.7895 719.465 47.5895C718.444 44.9513 718.444 42.1857 719.465 39.5475C720.012 38.3475 720.82 37.6045 721.763 37.6045ZM722.234 41.2655C722.017 40.7915 721.757 40.4975 721.501 40.4975C721.245 40.4975 720.985 40.7905 720.768 41.2655C720.199 42.7758 720.199 44.3552 720.768 45.8655C720.983 46.3395 721.245 46.6335 721.501 46.6335C721.757 46.6335 722.017 46.3405 722.234 45.8655C722.803 44.3552 722.803 42.7758 722.234 41.2655Z" fill="#FFFFFE"/>
<path d="M736.046 45.5303C736.33 45.545 736.602 45.6081 736.838 45.7132C737.073 45.8184 737.263 45.9621 737.389 46.1303C737.75 46.5712 737.938 47.0647 737.937 47.5659C737.936 48.0672 737.745 48.5602 737.381 49.0003C737.263 49.1686 737.073 49.3111 736.836 49.4109C736.599 49.5107 736.324 49.5637 736.043 49.5637C735.761 49.5637 735.486 49.5107 735.249 49.4109C735.012 49.3111 734.823 49.1686 734.704 49.0003C734.336 48.5613 734.142 48.0678 734.141 47.5659C734.139 47.0641 734.33 46.5701 734.696 46.1303C734.824 45.9617 735.015 45.8178 735.252 45.7127C735.488 45.6075 735.762 45.5447 736.046 45.5303ZM736.711 46.8403C736.648 46.7563 736.553 46.6846 736.435 46.6323C736.324 46.5727 736.184 46.5402 736.04 46.5402C735.897 46.5402 735.757 46.5727 735.645 46.6323C735.528 46.6846 735.433 46.7563 735.37 46.8403C735.187 47.0604 735.091 47.3073 735.091 47.5583C735.091 47.8093 735.187 48.0562 735.37 48.2763C735.433 48.3603 735.528 48.432 735.645 48.4843C735.757 48.5439 735.897 48.5764 736.04 48.5764C736.184 48.5764 736.324 48.5439 736.435 48.4843C736.553 48.432 736.648 48.3603 736.711 48.2763C736.894 48.0562 736.989 47.8093 736.989 47.5583C736.989 47.3073 736.894 47.0604 736.711 46.8403Z" fill="#FFFFFE"/>
<path fill-rule="evenodd" clip-rule="evenodd" d="M736.951 45.8225C738.446 46.2225 738.67 47.3885 738.478 48.9295C739.592 49.0295 741.531 49.1735 742.659 49.3465C744.268 49.5957 745.855 49.9032 747.414 50.2675C747.466 50.2834 747.524 50.2915 747.582 50.2915C748.464 50.2915 749.219 49.4855 749.728 48.2565C750.233 46.9317 750.482 45.5697 750.467 44.2035C750.493 42.9215 750.255 41.6431 749.76 40.4035C749.253 39.2585 748.499 38.5505 747.618 38.5505H747.585C747.561 38.5495 747.537 38.5495 747.513 38.5505C743.98 38.9445 740.46 39.7005 736.952 39.7655L736.951 45.8225ZM734.915 39.7855H734.885C730.693 39.7855 726.51 39.0215 722.332 38.5525C721.975 38.5135 721.655 38.7915 721.619 39.1735C721.582 39.5555 721.843 39.8965 722.199 39.9355C722.725 39.9942 723.253 40.0498 723.78 40.1025C723.829 40.1978 723.876 40.2978 723.921 40.4025C724.919 43.0413 724.919 45.8017 723.921 48.4405L723.909 48.4665H723.923C723.317 48.6058 722.712 48.7578 722.106 48.9225C721.908 49.016 721.757 49.1468 721.673 49.298C721.589 49.4491 721.576 49.6134 721.635 49.7695C721.725 50.1425 722.079 50.3695 722.427 50.2695C724.292 49.7587 726.227 49.3683 728.205 49.1035C729.999 48.9016 731.81 48.7744 733.628 48.7225C733.488 48.2257 733.531 47.7138 733.755 47.2305C733.979 46.7473 734.377 46.3071 734.915 45.9475V39.7855Z" fill="#FFFFFE"/>
<text fill="#FF0000" xml:space="preserve" style="white-space: pre" font-family="Harmattan" font-size="20" font-weight="bold" letter-spacing="0em"><tspan x="589.973" y="321.116">Digital marketing </tspan></text>
<text fill="black" xml:space="preserve" style="white-space: pre" font-family="Harmattan" font-size="17" font-weight="500" letter-spacing="0.05em"><tspan x="458.322" y="347.499">&#x62d;&#x627;&#x635;&#x644; &#x639;&#x644;&#x64a; &#x634;&#x647;&#x627;&#x62f;&#x629; &#x645;&#x639;&#x62a;&#x645;&#x62f;&#x629; &#x648;&#x645;&#x648;&#x62b;&#x642;&#x647; &#x645;&#x646; &#x643;&#x644;&#x64a;&#x629;&#x2028;</tspan><tspan x="471.451" y="369.499">&#x627;&#x644;&#x647;&#x646;&#x62f;&#x633;&#x629; &#x62c;&#x627;&#x645;&#x639;&#x629; &#x627;&#x644;&#x645;&#x646;&#x635;&#x648;&#x631;&#x629; &#x639;&#x644;&#x64a; &#x642;&#x64a;&#x62f; &#x627;&#x644;&#x648;&#x635;&#x648;&#x644;</tspan></text>
<text fill="black" xml:space="preserve" style="white-space: pre" font-family="Harmattan" font-size="17" font-weight="500" letter-spacing="0.05em"><tspan x="458.322" y="454.499">&#x62d;&#x627;&#x635;&#x644; &#x639;&#x644;&#x64a; &#x634;&#x647;&#x627;&#x62f;&#x629; &#x645;&#x639;&#x62a;&#x645;&#x62f;&#x629; &#x648;&#x645;&#x648;&#x62b;&#x642;&#x647; &#x645;&#x646; &#x643;&#x644;&#x64a;&#x629;&#x2028;</tspan><tspan x="471.451" y="476.499">&#x627;&#x644;&#x647;&#x646;&#x62f;&#x633;&#x629; &#x62c;&#x627;&#x645;&#x639;&#x629; &#x627;&#x644;&#x645;&#x646;&#x635;&#x648;&#x631;&#x629; &#x639;&#x644;&#x64a; &#x642;&#x64a;&#x62f; &#x627;&#x644;&#x648;&#x635;&#x648;&#x644;</tspan></text>
<text fill="black" xml:space="preserve" style="white-space: pre" font-family="Harmattan" font-size="17" font-weight="500" letter-spacing="0.05em"><tspan x="458.322" y="538.499">&#x62d;&#x627;&#x635;&#x644; &#x639;&#x644;&#x64a; &#x634;&#x647;&#x627;&#x62f;&#x629; &#x645;&#x639;&#x62a;&#x645;&#x62f;&#x629; &#x648;&#x645;&#x648;&#x62b;&#x642;&#x647; &#x645;&#x646; &#x643;&#x644;&#x64a;&#x629;&#x2028;</tspan><tspan x="471.451" y="560.499">&#x627;&#x644;&#x647;&#x646;&#x62f;&#x633;&#x629; &#x62c;&#x627;&#x645;&#x639;&#x629; &#x627;&#x644;&#x645;&#x646;&#x635;&#x648;&#x631;&#x629; &#x639;&#x644;&#x64a; &#x642;&#x64a;&#x62f; &#x627;&#x644;&#x648;&#x635;&#x648;&#x644;</tspan></text>
<text fill="black" xml:space="preserve" style="white-space: pre" font-family="Harmattan" font-size="17" font-weight="500" letter-spacing="0.05em"><tspan x="458.322" y="619.499">&#x62d;&#x627;&#x635;&#x644; &#x639;&#x644;&#x64a; &#x634;&#x647;&#x627;&#x62f;&#x629; &#x645;&#x639;&#x62a;&#x645;&#x62f;&#x629; &#x648;&#x645;&#x648;&#x62b;&#x642;&#x647; &#x645;&#x646; &#x643;&#x644;&#x64a;&#x629;&#x2028;</tspan><tspan x="471.451" y="641.499">&#x627;&#x644;&#x647;&#x646;&#x62f;&#x633;&#x629; &#x62c;&#x627;&#x645;&#x639;&#x629; &#x627;&#x644;&#x645;&#x646;&#x635;&#x648;&#x631;&#x629; &#x639;&#x644;&#x64a; &#x642;&#x64a;&#x62f; &#x627;&#x644;&#x648;&#x635;&#x648;&#x644;</tspan></text>
<text fill="black" xml:space="preserve" style="white-space: pre" font-family="Harmattan" font-size="17" font-weight="500" letter-spacing="0.05em"><tspan x="458.322" y="769.499">&#x62d;&#x627;&#x635;&#x644; &#x639;&#x644;&#x64a; &#x634;&#x647;&#x627;&#x62f;&#x629; &#x645;&#x639;&#x62a;&#x645;&#x62f;&#x629; &#x648;&#x645;&#x648;&#x62b;&#x642;&#x647; &#x645;&#x646; &#x643;&#x644;&#x64a;&#x629;&#x2028;</tspan><tspan x="471.451" y="791.499">&#x627;&#x644;&#x647;&#x646;&#x62f;&#x633;&#x629; &#x62c;&#x627;&#x645;&#x639;&#x629; &#x627;&#x644;&#x645;&#x646;&#x635;&#x648;&#x631;&#x629; &#x639;&#x644;&#x64a; &#x642;&#x64a;&#x62f; &#x627;&#x644;&#x648;&#x635;&#x648;&#x644;</tspan></text>
<text fill="black" xml:space="preserve" style="white-space: pre" font-family="Harmattan" font-size="17" font-weight="500" letter-spacing="0.05em"><tspan x="458.322" y="253.499">&#x62d;&#x627;&#x635;&#x644; &#x639;&#x644;&#x64a; &#x634;&#x647;&#x627;&#x62f;&#x629; &#x645;&#x639;&#x62a;&#x645;&#x62f;&#x629; &#x648;&#x645;&#x648;&#x62b;&#x642;&#x647; &#x645;&#x646; &#x643;&#x644;&#x64a;&#x629;&#x2028;</tspan><tspan x="466.832" y="275.499">&#x627;&#x644;&#x647;&#x646;&#x62f;&#x633;&#x629; &#x62c;&#x627;&#x645;&#x639;&#x629; &#x627;&#x644;&#x645;&#x646;&#x635;&#x648;&#x631;&#x629; &#x639;&#x644;&#x64a; &#x642;&#x64a;&#x62f; &#x627;&#x644;&#x648;&#x635;&#x648;&#x644; </tspan></text>
<text fill="#FF0000" xml:space="preserve" style="white-space: pre" font-family="Harmattan" font-size="16" font-weight="bold" letter-spacing="0.06em"><tspan x="484.58" y="409.293">ICDL (WIN-WORD-EXCEL-ACCESS-</tspan><tspan x="505.643" y="431.293">POWERPOINT - INTERNET - IT) </tspan></text>
<text fill="#FF0000" xml:space="preserve" style="white-space: pre" font-family="Harmattan" font-size="20" font-weight="bold" letter-spacing="0em"><tspan x="577.066" y="515.116">MANGMENT SKILLS </tspan></text>
<text fill="#FF0000" xml:space="preserve" style="white-space: pre" font-family="Harmattan" font-size="20" font-weight="bold" letter-spacing="0em"><tspan x="587" y="603.116">PERSONAL SKILLS </tspan></text>
<text fill="#FF0000" xml:space="preserve" style="white-space: pre" font-family="Harmattan" font-size="20" font-weight="bold" letter-spacing="0em"><tspan x="623" y="748.116">Graphic design</tspan></text>
<text fill="#FF0000" xml:space="preserve" style="white-space: pre" font-family="Harmattan" font-size="20" font-weight="bold" letter-spacing="0em"><tspan x="584" y="675.116">&#x627;&#x644;&#x633;&#x644;&#x627;&#x645;&#x647; &#x648;&#x627;&#x644;&#x635;&#x62d;&#x629; &#x627;&#x644;&#x645;&#x647;&#x646;&#x64a;&#x629;</tspan></text>
<text fill="black" xml:space="preserve" style="white-space: pre" font-family="Harmattan" font-size="13" font-weight="500" letter-spacing="0em"><tspan x="450.736" y="694.676">&#x62d;&#x627;&#x635;&#x644; &#x639;&#x644;&#x64a; &#x627;&#x644;&#x634;&#x647;&#x627;&#x62f;&#x629; &#x627;&#x644;&#x62f;&#x648;&#x644;&#x64a;&#x629; &#x627;&#x644;&#x623;&#x645;&#x631;&#x64a;&#x643;&#x64a;&#x629; &#x648;&#x645;&#x648;&#x62b;&#x642;&#x647; &#x645;&#x646; &#x648;&#x632;&#x627;&#x631;&#x629; &#x627;&#x644;&#x62e;&#x627;&#x631;&#x62c;&#x64a;&#x629; &#x627;&#x644;&#x645;&#x635;&#x631;&#x64a;&#x629;&#x2028;</tspan><tspan x="624.294" y="716.676"> + &#x627;&#x644;&#x643;&#x627;&#x631;&#x646;&#x64a;&#x629; &#x627;&#x644;&#x62f;&#x648;&#x644;&#x64a; &#x627;&#x644;&#x627;&#x645;&#x631;&#x64a;&#x643;&#x64a;</tspan></text>
<text fill="#FF0000" xml:space="preserve" style="white-space: pre" font-family="Harmattan" font-size="15" font-weight="500" letter-spacing="0em"><tspan x="473.684" y="153.587">&#x62d;&#x633;&#x627;&#x628; &#x645;&#x648;&#x62d;&#x62f; + &#x643;&#x648;&#x62f; &#x627;&#x644;&#x645;&#x639;&#x644;&#x645; &#x627;&#x644;&#x62e;&#x627;&#x635; &#x628;&#x645;&#x639;&#x644;&#x645; &#x641;&#x64a; &#x645;&#x627;&#x62f;&#x62a;&#x64a; </tspan><tspan x="601.477" y="170.587">&#x627;&#x644;&#x631;&#x64a;&#x627;&#x636;&#x64a;&#x627;&#x62a; &#x648;&#x627;&#x644;&#x62d;&#x627;&#x633;&#x628; &#x627;&#x644;&#x627;&#x644;&#x64a;</tspan></text>
<text fill="black" xml:space="preserve" style="white-space: pre" font-family="Harmattan" font-size="13" font-weight="500" letter-spacing="0em"><tspan x="539.527" y="187.676">&#x641;&#x64a; &#x648;&#x632;&#x627;&#x631;&#x629; &#x627;&#x644;&#x62a;&#x631;&#x628;&#x64a;&#x629; &#x648;&#x627;&#x644;&#x62a;&#x639;&#x644;&#x64a;&#x645; &#x62c;&#x645;&#x647;&#x648;&#x631;&#x64a;&#x629; &#x645;&#x635;&#x631; &#x627;&#x644;&#x639;&#x631;&#x628;&#x64a;&#x629;</tspan></text>
<path d="M520.526 190.006L522.953 188.32L527.153 189.973L532.638 185.666L536 186.832L528.146 193L520.526 190.006ZM517.489 190.288L521.642 191.921C519.103 192.058 516.549 192.125 513.993 192.123L517.489 190.288ZM496 189.805C496 187.181 501.77 183.658 509.552 182.629C507.856 181.966 506.485 181.137 505.535 180.198C504.585 179.26 504.078 178.234 504.05 177.193C503.919 175.882 504.891 174.599 506.752 173.626C508.613 172.652 511.213 172.068 513.982 172C516.751 172.068 519.35 172.653 521.211 173.626C523.072 174.599 524.044 175.882 523.914 177.193C523.888 178.234 523.383 179.259 522.436 180.197C521.488 181.136 520.12 181.966 518.427 182.629C522.765 183.239 526.547 184.52 529.169 186.267L526.597 188.285L522.505 186.671L518.817 189.232L514.783 184.133H514.815L516.465 183.146C515.676 183.301 514.833 183.383 513.98 183.389C513.126 183.382 512.283 183.3 511.493 183.146L513.134 184.133H513.181L508.941 189.49L513.98 192.123C504.99 192.121 496 191.351 496 189.805Z" fill="#CB9B00"/>
<path d="M744.993 106C746.377 106.001 747.731 105.738 748.884 105.244C750.036 104.75 750.934 104.048 751.465 103.225C751.996 102.403 752.136 101.498 751.866 100.625C751.597 99.7519 750.931 98.9495 749.952 98.3197C748.974 97.6899 747.726 97.2608 746.368 97.0868C745.01 96.9127 743.602 97.0018 742.323 97.3422C741.043 97.6827 739.95 98.2594 739.18 98.9995C738.411 99.7396 738 100.61 738 101.5C738.001 102.692 738.738 103.836 740.049 104.68C741.36 105.523 743.138 105.998 744.993 106Z" fill="#00AEEF"/>
<path d="M744.993 233C746.377 233.001 747.731 232.738 748.884 232.244C750.036 231.75 750.934 231.048 751.465 230.225C751.996 229.403 752.136 228.498 751.866 227.625C751.597 226.752 750.931 225.95 749.952 225.32C748.974 224.69 747.726 224.261 746.368 224.087C745.01 223.913 743.602 224.002 742.323 224.342C741.043 224.683 739.95 225.259 739.18 226C738.411 226.74 738 227.61 738 228.5C738.001 229.692 738.738 230.836 740.049 231.68C741.36 232.523 743.138 232.998 744.993 233Z" fill="#00AEEF"/>
<path d="M744.993 321C746.377 321.001 747.731 320.738 748.884 320.244C750.036 319.75 750.934 319.048 751.465 318.225C751.996 317.403 752.136 316.498 751.866 315.625C751.597 314.752 750.931 313.95 749.952 313.32C748.974 312.69 747.726 312.261 746.368 312.087C745.01 311.913 743.602 312.002 742.323 312.342C741.043 312.683 739.95 313.259 739.18 314C738.411 314.74 738 315.61 738 316.5C738.001 317.692 738.738 318.836 740.049 319.68C741.36 320.523 743.138 320.998 744.993 321Z" fill="#00AEEF"/>
<path d="M744.993 411C746.377 411.001 747.731 410.738 748.884 410.244C750.036 409.75 750.934 409.048 751.465 408.225C751.996 407.403 752.136 406.498 751.866 405.625C751.597 404.752 750.931 403.95 749.952 403.32C748.974 402.69 747.726 402.261 746.368 402.087C745.01 401.913 743.602 402.002 742.323 402.342C741.043 402.683 739.95 403.259 739.18 404C738.411 404.74 738 405.61 738 406.5C738.001 407.692 738.738 408.836 740.049 409.68C741.36 410.523 743.138 410.998 744.993 411Z" fill="#00AEEF"/>
<path d="M744.993 516C746.377 516.001 747.731 515.738 748.884 515.244C750.036 514.75 750.934 514.048 751.465 513.225C751.996 512.403 752.136 511.498 751.866 510.625C751.597 509.752 750.931 508.95 749.952 508.32C748.974 507.69 747.726 507.261 746.368 507.087C745.01 506.913 743.602 507.002 742.323 507.342C741.043 507.683 739.95 508.259 739.18 509C738.411 509.74 738 510.61 738 511.5C738.001 512.692 738.738 513.836 740.049 514.68C741.36 515.523 743.138 515.998 744.993 516Z" fill="#00AEEF"/>
<path d="M744.993 603C746.377 603.001 747.731 602.738 748.884 602.244C750.036 601.75 750.934 601.048 751.465 600.225C751.996 599.403 752.136 598.498 751.866 597.625C751.597 596.752 750.931 595.95 749.952 595.32C748.974 594.69 747.726 594.261 746.368 594.087C745.01 593.913 743.602 594.002 742.323 594.342C741.043 594.683 739.95 595.259 739.18 596C738.411 596.74 738 597.61 738 598.5C738.001 599.692 738.738 600.836 740.049 601.68C741.36 602.523 743.138 602.998 744.993 603Z" fill="#00AEEF"/>
<path d="M744.993 675C746.377 675.001 747.731 674.738 748.884 674.244C750.036 673.75 750.934 673.048 751.465 672.225C751.996 671.403 752.136 670.498 751.866 669.625C751.597 668.752 750.931 667.95 749.952 667.32C748.974 666.69 747.726 666.261 746.368 666.087C745.01 665.913 743.602 666.002 742.323 666.342C741.043 666.683 739.95 667.259 739.18 668C738.411 668.74 738 669.61 738 670.5C738.001 671.692 738.738 672.836 740.049 673.68C741.36 674.523 743.138 674.998 744.993 675Z" fill="#00AEEF"/>
<path d="M744.993 748C746.377 748.001 747.731 747.738 748.884 747.244C750.036 746.75 750.934 746.048 751.465 745.225C751.996 744.403 752.136 743.498 751.866 742.625C751.597 741.752 750.931 740.95 749.952 740.32C748.974 739.69 747.726 739.261 746.368 739.087C745.01 738.913 743.602 739.002 742.323 739.342C741.043 739.683 739.95 740.259 739.18 741C738.411 741.74 738 742.61 738 743.5C738.001 744.692 738.738 745.836 740.049 746.68C741.36 747.523 743.138 747.998 744.993 748Z" fill="#00AEEF"/>
<path d="M744.993 831C746.377 831.001 747.731 830.738 748.884 830.244C750.036 829.75 750.934 829.048 751.465 828.225C751.996 827.403 752.136 826.498 751.866 825.625C751.597 824.752 750.931 823.95 749.952 823.32C748.974 822.69 747.726 822.261 746.368 822.087C745.01 821.913 743.602 822.002 742.323 822.342C741.043 822.683 739.95 823.259 739.18 824C738.411 824.74 738 825.61 738 826.5C738.001 827.692 738.738 828.836 740.049 829.68C741.36 830.523 743.138 830.998 744.993 831Z" fill="#00AEEF"/>
<text fill="#FF0000" xml:space="preserve" style="white-space: pre" font-family="Harmattan" font-size="20" font-weight="bold" letter-spacing="0em"><tspan x="450" y="829.116">&#x62d;&#x636;&#x648;&#x631; &#x62f;&#x628;&#x644;&#x648;&#x645;&#x629; &#x623; &#x645;&#x62d;&#x645;&#x62f; &#x631;&#x62c;&#x628; &#x627;&#x644;&#x644;&#x645;&#x635;&#x645;&#x645; &#x627;&#x644;&#x639;&#x627;&#x644;&#x645;&#x64a;</tspan></text>
<path d="M665.274 891.364C665.218 891.11 664.971 890.952 664.741 891.013C664.605 891.074 664.5 891.162 664.441 891.264C664.383 891.366 664.373 891.477 664.413 891.583L664.455 891.771L664.887 891.661L664.46 891.775C664.475 891.852 664.513 891.926 664.572 891.993C664.613 892.045 664.666 892.103 664.723 892.171C664.947 892.405 665.146 892.649 665.318 892.902C665.448 893.124 665.721 893.191 665.924 893.052C666.031 892.961 666.101 892.853 666.125 892.738C666.149 892.624 666.128 892.507 666.064 892.4C665.863 892.092 665.625 891.794 665.354 891.51C665.313 891.465 665.307 891.487 665.298 891.48L665.274 891.364Z" fill="#FFFFFE"/>
<path d="M663.848 892.758C663.792 893.012 663.546 893.17 663.316 893.109C662.762 892.968 662.99 892.284 663.293 891.953C663.517 891.719 663.716 891.475 663.888 891.222C664.018 891 664.29 890.933 664.493 891.072C664.601 891.164 664.671 891.272 664.695 891.386C664.719 891.501 664.698 891.617 664.634 891.724C664.452 892.034 663.877 892.574 663.842 892.758H663.848Z" fill="#FFFFFE"/>
<path d="M579.449 895.443L578.424 895.5L574.559 894.305V892.27L579.449 895.443Z" fill="#EEEEEE"/>
<text fill="black" xml:space="preserve" style="white-space: pre" font-family="Harmattan" font-size="14" font-weight="500" letter-spacing="0em"><tspan x="466.459" y="853.881">&#x644;&#x644;&#x645;&#x635;&#x645;&#x645; &#x627;&#x644;&#x639;&#x631;&#x628;&#x64a; &#x623; / &#x645;&#x62d;&#x645;&#x62f; &#x631;&#x62c;&#x628; &#x641;&#x64a; &#x641;&#x646; &#x627;&#x644;&#x62a;&#x635;&#x645;&#x64a;&#x645; &#x644;&#x62c;&#x631;&#x627;&#x641;&#x64a;&#x643;&#x64a;</tspan></text>
<path fill-rule="evenodd" clip-rule="evenodd" d="M566.085 889.064C566.247 889.064 566.381 889.207 566.381 889.38V895.317H565.79V889.38C565.79 889.204 565.922 889.064 566.085 889.064Z" fill="#FFFFFE"/>
<path d="M294.268 30H119.268V58H294.268V30Z" fill="#00AEEF"/>
<text fill="white" xml:space="preserve" style="white-space: pre" font-family="Harmattan" font-size="20" font-weight="bold" letter-spacing="0em"><tspan x="123" y="48.1162">Accredited certificates</tspan></text>
<text fill="black" xml:space="preserve" style="white-space: pre" font-family="Harmattan" font-size="14" font-weight="500" letter-spacing="0em"><tspan x="91.8281" y="113.881">- Accredited and certified by Mansoura University</tspan></text>
<text fill="#FF0000" xml:space="preserve" style="white-space: pre" font-family="Harmattan" font-size="15" font-weight="500" letter-spacing="0em"><tspan x="51.709" y="92.0872">Bachelor of Education in Computer Teacher Training</tspan></text>
<text fill="#F30000" xml:space="preserve" style="white-space: pre" font-family="Harmattan" font-size="20" font-weight="500" letter-spacing="0em"><tspan x="196.668" y="219.116">ENGLISH 3 LEVELS </tspan></text>
<path d="M345.265 30.5967H342.916C337.697 30.5967 332.692 31.9663 329.002 34.4043C325.311 36.8423 323.238 40.1489 323.238 43.5967V45.1517C323.238 48.5995 325.311 51.9061 329.002 54.3441C332.692 56.7821 337.697 58.1517 342.916 58.1517H345.27C347.854 58.1517 350.413 57.8154 352.8 57.1621C355.188 56.5088 357.357 55.5512 359.184 54.3441C361.012 53.1369 362.461 51.7038 363.45 50.1266C364.439 48.5493 364.948 46.8589 364.948 45.1517V43.5967C364.948 41.8892 364.439 40.1985 363.45 38.6211C362.46 37.0437 361.011 35.6104 359.183 34.4032C357.355 33.196 355.185 32.2385 352.797 31.5854C350.409 30.9323 347.85 30.5963 345.265 30.5967Z" fill="#00AEEF" stroke="#707070"/>
<path d="M331.271 37.6045C332.214 37.6045 333.022 38.3475 333.568 39.5475C334.592 42.1856 334.592 44.9515 333.568 47.5895C333.022 48.7895 332.206 49.5325 331.271 49.5325C330.335 49.5325 329.519 48.7895 328.973 47.5895C327.952 44.9513 327.952 42.1857 328.973 39.5475C329.519 38.3475 330.328 37.6045 331.271 37.6045ZM331.741 41.2655C331.525 40.7915 331.265 40.4975 331.009 40.4975C330.753 40.4975 330.493 40.7905 330.276 41.2655C329.707 42.7758 329.707 44.3552 330.276 45.8655C330.491 46.3395 330.753 46.6335 331.009 46.6335C331.265 46.6335 331.525 46.3405 331.741 45.8655C332.311 44.3552 332.311 42.7758 331.741 41.2655Z" fill="#FFFFFE"/>
<path d="M345.554 45.5303C345.837 45.545 346.11 45.6081 346.345 45.7132C346.581 45.8184 346.771 45.9621 346.897 46.1303C347.258 46.5712 347.446 47.0647 347.445 47.5659C347.443 48.0672 347.253 48.5602 346.889 49.0003C346.77 49.1686 346.581 49.3111 346.344 49.4109C346.107 49.5107 345.832 49.5637 345.55 49.5637C345.269 49.5637 344.994 49.5107 344.757 49.4109C344.52 49.3111 344.33 49.1686 344.212 49.0003C343.844 48.5613 343.65 48.0678 343.648 47.5659C343.647 47.0641 343.838 46.5701 344.204 46.1303C344.331 45.9617 344.523 45.8178 344.759 45.7127C344.996 45.6075 345.27 45.5447 345.554 45.5303ZM346.219 46.8403C346.156 46.7563 346.061 46.6846 345.943 46.6323C345.831 46.5727 345.692 46.5402 345.548 46.5402C345.404 46.5402 345.265 46.5727 345.153 46.6323C345.035 46.6846 344.94 46.7563 344.878 46.8403C344.695 47.0604 344.599 47.3073 344.599 47.5583C344.599 47.8093 344.695 48.0562 344.878 48.2763C344.94 48.3603 345.035 48.432 345.153 48.4843C345.265 48.5439 345.404 48.5764 345.548 48.5764C345.692 48.5764 345.831 48.5439 345.943 48.4843C346.061 48.432 346.156 48.3603 346.219 48.2763C346.401 48.0562 346.497 47.8093 346.497 47.5583C346.497 47.3073 346.401 47.0604 346.219 46.8403Z" fill="#FFFFFE"/>
<path fill-rule="evenodd" clip-rule="evenodd" d="M346.459 45.8225C347.954 46.2225 348.178 47.3885 347.986 48.9295C349.1 49.0295 351.039 49.1735 352.167 49.3465C353.776 49.5957 355.363 49.9032 356.921 50.2675C356.974 50.2834 357.031 50.2915 357.089 50.2915C357.972 50.2915 358.727 49.4855 359.236 48.2565C359.741 46.9317 359.99 45.5697 359.974 44.2035C360.001 42.9215 359.763 41.6431 359.268 40.4035C358.76 39.2585 358.007 38.5505 357.126 38.5505H357.092C357.069 38.5495 357.045 38.5495 357.021 38.5505C353.488 38.9445 349.967 39.7005 346.46 39.7655L346.459 45.8225ZM344.423 39.7855H344.393C340.201 39.7855 336.017 39.0215 331.84 38.5525C331.482 38.5135 331.163 38.7915 331.127 39.1735C331.09 39.5555 331.351 39.8965 331.706 39.9355C332.233 39.9942 332.76 40.0498 333.288 40.1025C333.337 40.1978 333.384 40.2978 333.429 40.4025C334.427 43.0413 334.427 45.8017 333.429 48.4405L333.417 48.4665H333.43C332.825 48.6058 332.22 48.7578 331.614 48.9225C331.416 49.016 331.265 49.1468 331.181 49.298C331.097 49.4491 331.084 49.6134 331.143 49.7695C331.233 50.1425 331.587 50.3695 331.935 50.2695C333.799 49.7587 335.734 49.3683 337.713 49.1035C339.507 48.9016 341.318 48.7744 343.136 48.7225C342.996 48.2257 343.039 47.7138 343.263 47.2305C343.487 46.7473 343.885 46.3071 344.423 45.9475V39.7855Z" fill="#FFFFFE"/>
<text fill="#FF0000" xml:space="preserve" style="white-space: pre" font-family="Harmattan" font-size="20" font-weight="500" letter-spacing="0em"><tspan x="208.793" y="293.116">Digital marketing </tspan></text>
<text fill="black" xml:space="preserve" style="white-space: pre" font-family="Harmattan" font-size="12" font-weight="500" letter-spacing="0.05em"><tspan x="45.8602" y="317.97">Holder of an accredited and authenticated certificate from </tspan><tspan x="52.4273" y="332.97">the Faculty of Engineering, Mansoura University, pending </tspan><tspan x="286.024" y="347.97">issuance.</tspan></text>
<text fill="black" xml:space="preserve" style="white-space: pre" font-family="Harmattan" font-size="12" font-weight="500" letter-spacing="0.05em"><tspan x="45.8602" y="441.97">Holder of an accredited and authenticated certificate from </tspan><tspan x="52.4273" y="456.97">the Faculty of Engineering, Mansoura University, pending </tspan><tspan x="286.024" y="471.97">issuance.</tspan></text>
<text fill="black" xml:space="preserve" style="white-space: pre" font-family="Harmattan" font-size="12" font-weight="500" letter-spacing="0.05em"><tspan x="45.8602" y="529.97">Holder of an accredited and authenticated certificate from </tspan><tspan x="52.4273" y="544.97">the Faculty of Engineering, Mansoura University, pending </tspan><tspan x="286.024" y="559.97">issuance.</tspan></text>
<text fill="black" xml:space="preserve" style="white-space: pre" font-family="Harmattan" font-size="12" font-weight="500" letter-spacing="0.05em"><tspan x="45.8602" y="597.97">Holder of an accredited and authenticated certificate from </tspan><tspan x="52.4273" y="612.97">the Faculty of Engineering, Mansoura University, pending </tspan><tspan x="286.024" y="627.97">issuance.</tspan></text>
<text fill="black" xml:space="preserve" style="white-space: pre" font-family="Harmattan" font-size="12" font-weight="500" letter-spacing="0.05em"><tspan x="45.8602" y="739.97">Holder of an accredited and authenticated certificate from </tspan><tspan x="52.4273" y="754.97">the Faculty of Engineering, Mansoura University, pending </tspan><tspan x="286.024" y="769.97">issuance.</tspan></text>
<text fill="black" xml:space="preserve" style="white-space: pre" font-family="Harmattan" font-size="12" font-weight="500" letter-spacing="0.05em"><tspan x="46.3524" y="234.97">Holder of an accredited and authenticated certificate from </tspan><tspan x="52.9195" y="249.97">the Faculty of Engineering, Mansoura University, pending </tspan><tspan x="286.516" y="264.97">issuance.</tspan></text>
<text fill="#FF0000" xml:space="preserve" style="white-space: pre" font-family="Harmattan" font-size="20" font-weight="500" letter-spacing="0.06em"><tspan x="39.6742" y="391.116">ICDL (WIN-WORD-EXCEL-ACCESS-</tspan><tspan x="64.6352" y="425.116">POWERPOINT - INTERNET - IT) </tspan></text>
<text fill="#FF0000" xml:space="preserve" style="white-space: pre" font-family="Harmattan" font-size="20" font-weight="500" letter-spacing="0em"><tspan x="183.148" y="510.116">MANGMENT SKILLS </tspan></text>
<text fill="#FF0000" xml:space="preserve" style="white-space: pre" font-family="Harmattan" font-size="20" font-weight="500" letter-spacing="0em"><tspan x="192" y="585.116">PERSONAL SKILLS </tspan></text>
<text fill="#FF0000" xml:space="preserve" style="white-space: pre" font-family="Harmattan" font-size="20" font-weight="500" letter-spacing="0em"><tspan x="220" y="719.116">Graphic design</tspan></text>
<text fill="#FF0000" xml:space="preserve" style="white-space: pre" font-family="Harmattan" font-size="20" font-weight="500" letter-spacing="0em"><tspan x="45" y="650.116">Occupational Safety and Health (OSHA)</tspan></text>
<text fill="black" xml:space="preserve" style="white-space: pre" font-family="Harmattan" font-size="11" font-weight="500" letter-spacing="0em"><tspan x="64.2227" y="667.764">Obtained an American international certificate, certified by the Egyptian </tspan><tspan x="109.254" y="686.764">Ministry of Foreign Affairs + the American international card</tspan></text>
<text fill="#FF0000" xml:space="preserve" style="white-space: pre" font-family="Harmattan" font-size="15" font-weight="500" letter-spacing="0em"><tspan x="70.7988" y="145.587">A unified account + teacher code for a math and </tspan><tspan x="191.121" y="162.587">computer science teacher</tspan></text>
<text fill="black" xml:space="preserve" style="white-space: pre" font-family="Harmattan" font-size="13" font-weight="500" letter-spacing="0em"><tspan x="92.8271" y="178.676">At the Ministry of Education, Arab Republic of Egypt</tspan></text>
<path d="M79.0181 181.006L81.4451 179.32L85.645 180.973L91.1297 176.666L94.4922 177.832L86.6379 184L79.0181 181.006ZM75.9816 181.288L80.1346 182.921C77.595 183.058 75.0409 183.125 72.4849 183.123L75.9816 181.288ZM54.4922 180.805C54.4922 178.181 60.2625 174.658 68.0443 173.629C66.3483 172.966 64.9775 172.137 64.0274 171.198C63.0772 170.26 62.5705 169.234 62.5425 168.193C62.4114 166.882 63.3828 165.599 65.2441 164.626C67.1054 163.652 69.7051 163.068 72.4743 163C75.2431 163.068 77.8421 163.653 79.7032 164.626C81.5642 165.599 82.536 166.882 82.4061 168.193C82.3799 169.234 81.8755 170.259 80.9279 171.197C79.9804 172.136 78.6124 172.966 76.9192 173.629C81.2574 174.239 85.0389 175.52 87.6607 177.267L85.0888 179.285L80.9976 177.671L77.3091 180.232L73.2755 175.133H73.3074L74.9567 174.146C74.1683 174.301 73.3253 174.383 72.4722 174.389C71.6186 174.382 70.7753 174.3 69.9855 174.146L71.6262 175.133H71.6731L67.4327 180.49L72.4722 183.123C63.4822 183.121 54.4922 182.351 54.4922 180.805Z" fill="#CB9B00"/>
<path d="M341.995 391C342.984 391.001 343.951 390.796 344.774 390.412C345.597 390.028 346.239 389.482 346.618 388.842C346.997 388.203 347.097 387.499 346.905 386.82C346.712 386.14 346.236 385.516 345.537 385.026C344.838 384.537 343.947 384.203 342.977 384.067C342.007 383.932 341.002 384.001 340.088 384.266C339.174 384.531 338.393 384.98 337.843 385.555C337.293 386.131 337 386.808 337 387.5C337.001 388.427 337.527 389.317 338.463 389.973C339.4 390.629 340.67 390.999 341.995 391Z" fill="#00AEEF"/>
<path d="M341.995 508C342.984 508.001 343.951 507.796 344.774 507.412C345.597 507.028 346.239 506.482 346.618 505.842C346.997 505.203 347.097 504.499 346.905 503.82C346.712 503.14 346.236 502.516 345.537 502.026C344.838 501.537 343.947 501.203 342.977 501.067C342.007 500.932 341.002 501.001 340.088 501.266C339.174 501.531 338.393 501.98 337.843 502.555C337.293 503.131 337 503.808 337 504.5C337.001 505.427 337.527 506.317 338.463 506.973C339.4 507.629 340.67 507.999 341.995 508Z" fill="#00AEEF"/>
<path d="M341.995 585C342.984 585.001 343.951 584.796 344.774 584.412C345.597 584.028 346.239 583.482 346.618 582.842C346.997 582.203 347.097 581.499 346.905 580.82C346.712 580.14 346.236 579.516 345.537 579.026C344.838 578.537 343.947 578.203 342.977 578.067C342.007 577.932 341.002 578.001 340.088 578.266C339.174 578.531 338.393 578.98 337.843 579.555C337.293 580.131 337 580.808 337 581.5C337.001 582.427 337.527 583.317 338.463 583.973C339.4 584.629 340.67 584.999 341.995 585Z" fill="#00AEEF"/>
<path d="M341.995 649C342.984 649.001 343.951 648.796 344.774 648.412C345.597 648.028 346.239 647.482 346.618 646.842C346.997 646.203 347.097 645.499 346.905 644.82C346.712 644.14 346.236 643.516 345.537 643.026C344.838 642.537 343.947 642.203 342.977 642.067C342.007 641.932 341.002 642.001 340.088 642.266C339.174 642.531 338.393 642.98 337.843 643.555C337.293 644.131 337 644.808 337 645.5C337.001 646.427 337.527 647.317 338.463 647.973C339.4 648.629 340.67 648.999 341.995 649Z" fill="#00AEEF"/>
<path d="M341.995 722C342.984 722.001 343.951 721.796 344.774 721.412C345.597 721.028 346.239 720.482 346.618 719.842C346.997 719.203 347.097 718.499 346.905 717.82C346.712 717.14 346.236 716.516 345.537 716.026C344.838 715.537 343.947 715.203 342.977 715.067C342.007 714.932 341.002 715.001 340.088 715.266C339.174 715.531 338.393 715.98 337.843 716.555C337.293 717.131 337 717.808 337 718.5C337.001 719.427 337.527 720.317 338.463 720.973C339.4 721.629 340.67 721.999 341.995 722Z" fill="#00AEEF"/>
<path d="M341.995 808C342.984 808.001 343.951 807.796 344.774 807.412C345.597 807.028 346.239 806.482 346.618 805.842C346.997 805.203 347.097 804.499 346.905 803.82C346.712 803.14 346.236 802.516 345.537 802.026C344.838 801.537 343.947 801.203 342.977 801.067C342.007 800.932 341.002 801.001 340.088 801.266C339.174 801.531 338.393 801.98 337.843 802.555C337.293 803.131 337 803.808 337 804.5C337.001 805.427 337.527 806.317 338.463 806.973C339.4 807.629 340.67 807.999 341.995 808Z" fill="#00AEEF"/>
<path d="M341.995 296C342.984 296.001 343.951 295.796 344.774 295.412C345.597 295.028 346.239 294.482 346.618 293.842C346.997 293.203 347.097 292.499 346.905 291.82C346.712 291.14 346.236 290.516 345.537 290.026C344.838 289.537 343.947 289.203 342.977 289.067C342.007 288.932 341.002 289.001 340.088 289.266C339.174 289.531 338.393 289.98 337.843 290.555C337.293 291.131 337 291.808 337 292.5C337.001 293.427 337.527 294.317 338.463 294.973C339.4 295.629 340.67 295.999 341.995 296Z" fill="#00AEEF"/>
<path d="M341.995 218C342.984 218.001 343.951 217.796 344.774 217.412C345.597 217.028 346.239 216.482 346.618 215.842C346.997 215.203 347.097 214.499 346.905 213.82C346.712 213.14 346.236 212.516 345.537 212.026C344.838 211.537 343.947 211.203 342.977 211.067C342.007 210.932 341.002 211.001 340.088 211.266C339.174 211.531 338.393 211.98 337.843 212.555C337.293 213.131 337 213.808 337 214.5C337.001 215.427 337.527 216.317 338.463 216.973C339.4 217.629 340.67 217.999 341.995 218Z" fill="#00AEEF"/>
<path d="M341.995 145C342.984 145.001 343.951 144.796 344.774 144.412C345.597 144.028 346.239 143.482 346.618 142.842C346.997 142.203 347.097 141.499 346.905 140.82C346.712 140.14 346.236 139.516 345.537 139.026C344.838 138.537 343.947 138.203 342.977 138.067C342.007 137.932 341.002 138.001 340.088 138.266C339.174 138.531 338.393 138.98 337.843 139.555C337.293 140.131 337 140.808 337 141.5C337.001 142.427 337.527 143.317 338.463 143.973C339.4 144.629 340.67 144.999 341.995 145Z" fill="#00AEEF"/>
<path d="M341.995 92C342.984 92.0007 343.951 91.7962 344.774 91.412C345.597 91.0279 346.239 90.4815 346.618 89.8421C346.997 89.2026 347.097 88.4987 346.905 87.8195C346.712 87.1403 346.236 86.5163 345.537 86.0264C344.838 85.5366 343.947 85.2028 342.977 85.0675C342.007 84.9321 341.002 85.0014 340.088 85.2662C339.174 85.531 338.393 85.9795 337.843 86.5552C337.293 87.1308 337 87.8075 337 88.4999C337.001 89.4274 337.527 90.3168 338.463 90.973C339.4 91.6292 340.67 91.9985 341.995 92Z" fill="#00AEEF"/>
<text fill="#FF0000" xml:space="preserve" style="white-space: pre" font-family="Harmattan" font-size="11" font-weight="500" letter-spacing="0em"><tspan x="54" y="805.764">Attending the diploma of Mohamed Ragab, the international designer</tspan></text>
<text fill="black" xml:space="preserve" style="white-space: pre" font-family="Harmattan" font-size="14" font-weight="500" letter-spacing="0em"><tspan x="71.9697" y="828.881">For the Arab designer Mr. Mohamed Ragab in the art </tspan><tspan x="161.049" y="846.881">of graphic design</tspan></text>
<rect x="408" y="19" width="15" height="1185" fill="url(#paint0_linear_187_3195)"/>
<path d="M744.993 930C746.377 930.001 747.731 929.738 748.884 929.244C750.036 928.75 750.934 928.048 751.465 927.225C751.996 926.403 752.136 925.498 751.866 924.625C751.597 923.752 750.931 922.95 749.952 922.32C748.974 921.69 747.726 921.261 746.368 921.087C745.01 920.913 743.602 921.002 742.323 921.342C741.043 921.683 739.95 922.259 739.18 923C738.411 923.74 738 924.61 738 925.5C738.001 926.692 738.738 927.836 740.049 928.68C741.36 929.523 743.138 929.998 744.993 930Z" fill="#00AEEF"/>
<text fill="#FF0000" xml:space="preserve" style="white-space: pre" font-family="Harmattan" font-size="20" font-weight="bold" letter-spacing="0em"><tspan x="487.021" y="934.616">&#x62c;&#x627;&#x631;&#x64a; &#x627;&#x644;&#x62f;&#x631;&#x627;&#x633;&#x629; &#x627;&#x644;&#x623;&#x646; 40 &#x633;&#x627;&#x639;&#x629; &#x645;&#x639;&#x62a;&#x645;&#x62f;&#x629; &#x2028;</tspan><tspan x="591.992" y="961.616">&#x641;&#x64a;&#x2028;</tspan><tspan x="537.363" y="988.616">&#34;&#x627;&#x644;&#x630;&#x643;&#x627;&#x621; &#x627;&#x644;&#x627;&#x635;&#x637;&#x646;&#x627;&#x639;&#x64a;&#34;&#x2028;</tspan><tspan x="591.641" y="1015.62">&#x645;&#x646;&#x2028;</tspan><tspan x="424.443" y="1042.62">&#x627;&#x644;&#x645;&#x639;&#x647;&#x62f; &#x627;&#x644;&#x642;&#x648;&#x645;&#x64a; &#x644;&#x644;&#x627;&#x62a;&#x635;&#x627;&#x644;&#x627;&#x62a; NTI - &#x627;&#x644;&#x62a;&#x627;&#x628;&#x639; &#x644;&#x648;&#x632;&#x627;&#x631;&#x629; &#x627;&#x644;&#x627;&#x62a;&#x635;&#x627;&#x644;&#x627;&#x62a; </tspan><tspan x="434.531" y="1069.62">&#x648;&#x62a;&#x643;&#x646;&#x648;&#x644;&#x648;&#x62c;&#x64a;&#x627; &#x627;&#x644;&#x645;&#x639;&#x644;&#x648;&#x645;&#x627;&#x62a; &#x648;&#34;&#x645;&#x647;&#x646;&#x62f;&#x633;&#x648;&#x646; &#x645;&#x646; &#x623;&#x62c;&#x644; &#x645;&#x635;&#x631; </tspan><tspan x="549.336" y="1096.62">&#x627;&#x644;&#x645;&#x633;&#x62a;&#x62f;&#x627;&#x645;&#x629;&#34; ESE&#x2028;</tspan><tspan x="454.629" y="1123.62">&#x648;&#x628;&#x647;&#x627; &#x634;&#x647;&#x627;&#x62f;&#x629; &#x645;&#x639;&#x62a;&#x645;&#x62f;&#x629; &#x648;&#x645;&#x648;&#x62b;&#x642;&#x647; &#x645;&#x646; &#x627;&#x644; NTI - ESE&#x2028;</tspan></text>
<path d="M665.274 965.364C665.218 965.11 664.971 964.952 664.741 965.013C664.605 965.074 664.5 965.162 664.441 965.264C664.383 965.366 664.373 965.477 664.413 965.583L664.455 965.771L664.887 965.661L664.46 965.775C664.475 965.852 664.513 965.926 664.572 965.993C664.613 966.045 664.666 966.103 664.723 966.171C664.947 966.405 665.146 966.649 665.318 966.902C665.448 967.124 665.721 967.191 665.924 967.052C666.031 966.961 666.101 966.853 666.125 966.738C666.149 966.624 666.128 966.507 666.064 966.4C665.863 966.092 665.625 965.794 665.354 965.51C665.313 965.465 665.307 965.487 665.298 965.48L665.274 965.364Z" fill="#FFFFFE"/>
<path d="M663.848 966.758C663.792 967.012 663.546 967.17 663.316 967.109C662.762 966.968 662.99 966.284 663.293 965.953C663.517 965.719 663.716 965.475 663.888 965.222C664.018 965 664.29 964.933 664.493 965.072C664.601 965.164 664.671 965.272 664.695 965.386C664.719 965.501 664.698 965.617 664.634 965.724C664.452 966.034 663.877 966.574 663.842 966.758H663.848Z" fill="#FFFFFE"/>
<path d="M341.993 905C343.377 905.001 344.731 904.738 345.884 904.244C347.036 903.75 347.934 903.048 348.465 902.225C348.996 901.403 349.136 900.498 348.866 899.625C348.597 898.752 347.931 897.95 346.952 897.32C345.974 896.69 344.726 896.261 343.368 896.087C342.01 895.913 340.602 896.002 339.323 896.342C338.043 896.683 336.95 897.259 336.18 898C335.411 898.74 335 899.61 335 900.5C335.001 901.692 335.738 902.836 337.049 903.68C338.36 904.523 340.138 904.998 341.993 905Z" fill="#00AEEF"/>
<text fill="#FF0000" xml:space="preserve" style="white-space: pre" font-family="Harmattan" font-size="20" font-weight="bold" letter-spacing="0em"><tspan x="86.9258" y="910.616">40 accredited certificates&#x2028;</tspan><tspan x="171.379" y="937.616"> in&#x2028;</tspan><tspan x="91.7891" y="964.616"> &#34;Artificial Intelligence&#34;&#x2028;</tspan><tspan x="163.947" y="991.616"> are &#x2028;</tspan><tspan x="70.4219" y="1018.62">currently being studied by the </tspan><tspan x="73.2832" y="1045.62">National Telecommunications </tspan><tspan x="65.5488" y="1072.62">Institute (NTI) - affiliated with </tspan><tspan x="61.7793" y="1099.62">Information and Communication </tspan><tspan x="68.8105" y="1126.62">Technology and &#34;Engineers for </tspan><tspan x="44.7969" y="1153.62">Egypt&#34; (ESE), and are accredited and </tspan><tspan x="98.7227" y="1180.62">certified by NTI - ESE.&#10;</tspan></text>
<path d="M262.274 940.364C262.218 940.11 261.971 939.952 261.741 940.013C261.605 940.074 261.5 940.162 261.441 940.264C261.383 940.366 261.373 940.477 261.413 940.583L261.455 940.771L261.887 940.661L261.46 940.775C261.475 940.852 261.513 940.926 261.572 940.993C261.613 941.045 261.666 941.103 261.723 941.171C261.947 941.405 262.146 941.649 262.318 941.902C262.448 942.124 262.721 942.191 262.924 942.052C263.031 941.961 263.101 941.853 263.125 941.738C263.149 941.624 263.128 941.507 263.064 941.4C262.863 941.092 262.625 940.794 262.354 940.51C262.313 940.465 262.307 940.487 262.298 940.48L262.274 940.364Z" fill="#FFFFFE"/>
<path d="M260.848 941.758C260.792 942.012 260.546 942.17 260.316 942.109C259.762 941.968 259.99 941.284 260.293 940.953C260.517 940.719 260.716 940.475 260.888 940.222C261.018 940 261.29 939.933 261.493 940.072C261.601 940.164 261.671 940.272 261.695 940.386C261.719 940.501 261.698 940.617 261.634 940.724C261.452 941.034 260.877 941.574 260.842 941.758H260.848Z" fill="#FFFFFE"/>
<defs>
<linearGradient id="paint0_linear_187_3195" x1="423" y1="611.5" x2="408" y2="611.5" gradientUnits="userSpaceOnUse">
<stop offset="0.432692" stop-color="#535353"/>
<stop offset="0.475962"/>
<stop offset="0.476062" stop-color="#00B3FF"/>
</linearGradient>
</defs>
</svg>
