<svg width="809" height="480" viewBox="0 0 809 480" fill="none" xmlns="http://www.w3.org/2000/svg">
<rect width="809" height="480" fill="#F5F5F5"/>
<path d="M625.492 374H539.492V373H625.492V374Z" fill="#00AEEF"/>
<path d="M625.492 348H539.492V347H625.492V348Z" fill="#00AEEF"/>
<path d="M625.492 423H539.492V422H625.492V423Z" fill="#00AEEF"/>
<path d="M625.492 450H539.492V449H625.492V450Z" fill="#00AEEF"/>
<path d="M625.492 397H539.492V396H625.492V397Z" fill="#00AEEF"/>
<path d="M602.094 16.0051H643.293C643.713 16.0049 644.129 16.2634 644.517 16.7658C644.905 17.2681 645.258 18.0044 645.555 18.9328C645.852 19.8611 646.088 20.9632 646.249 22.1761C646.41 23.389 646.492 24.689 646.492 26.0019V43.9949H602.094C601.495 44.0453 600.9 43.7205 600.342 43.0398C599.785 42.3591 599.276 41.3363 598.848 40.0318C598.419 38.7273 598.078 37.1675 597.845 35.4445C597.612 33.7215 597.492 31.8702 597.492 30C597.492 28.1297 597.612 26.2785 597.845 24.5555C598.078 22.8325 598.419 21.2727 598.848 19.9682C599.276 18.6637 599.785 17.6409 600.342 16.9602C600.9 16.2795 601.495 15.9547 602.094 16.0051Z" fill="#058931"/>
<path d="M470.894 366.233C471.048 366.267 471.208 366.27 471.364 366.241C471.519 366.213 471.668 366.153 471.8 366.066C472.284 365.598 472.697 365.063 473.027 364.476C473.336 364.035 472.079 363.985 471.802 364.38C471.706 364.518 471.613 364.668 471.517 364.823C471.367 364.042 471.38 363.238 471.556 362.463C471.732 361.687 472.068 360.957 472.541 360.318C474.173 357.805 477.65 356.029 481.343 355.01L480.577 355.895C480.309 356.203 481.401 356.528 481.669 356.223L483.065 354.615C483.288 354.357 482.659 354.205 482.417 354.178L479.975 353.916C479.765 353.893 479.441 353.981 479.508 354.157C479.581 354.346 479.906 354.431 480.186 354.46L481.382 354.589C475.061 356.589 469.615 361.046 470.517 365.338C470.153 365.229 469.799 365.108 469.456 364.977C469.307 364.925 469.15 364.903 468.992 364.912C468.834 364.921 468.68 364.962 468.539 365.031C468.292 365.157 468.223 365.389 468.468 365.482C469.259 365.785 470.07 366.036 470.894 366.233Z" fill="#00AEEF" stroke="#707070" stroke-width="0.299962"/>
<path d="M737.178 62.776C738.221 62.776 739.066 61.9307 739.066 60.888C739.066 59.8453 738.221 59 737.178 59C736.135 59 735.29 59.8453 735.29 60.888C735.29 61.9307 736.135 62.776 737.178 62.776Z" fill="#231F20"/>
<path d="M737.178 91.1256C738.221 91.1256 739.066 90.2803 739.066 89.2376C739.066 88.1949 738.221 87.3496 737.178 87.3496C736.135 87.3496 735.29 88.1949 735.29 89.2376C735.29 90.2803 736.135 91.1256 737.178 91.1256Z" fill="#231F20"/>
<path d="M737.492 274C738.597 274 739.492 273.105 739.492 272C739.492 270.895 738.597 270 737.492 270C736.388 270 735.492 270.895 735.492 272C735.492 273.105 736.388 274 737.492 274Z" fill="#231F20"/>
<path d="M734.717 349.568C736.098 349.568 737.217 348.673 737.217 347.568C737.217 346.464 736.098 345.568 734.717 345.568C733.337 345.568 732.217 346.464 732.217 347.568C732.217 348.673 733.337 349.568 734.717 349.568Z" fill="#231F20"/>
<path d="M734.717 375.568C736.098 375.568 737.217 374.673 737.217 373.568C737.217 372.464 736.098 371.568 734.717 371.568C733.337 371.568 732.217 372.464 732.217 373.568C732.217 374.673 733.337 375.568 734.717 375.568Z" fill="#231F20"/>
<path d="M734.717 400.568C736.098 400.568 737.217 399.673 737.217 398.568C737.217 397.464 736.098 396.568 734.717 396.568C733.337 396.568 732.217 397.464 732.217 398.568C732.217 399.673 733.337 400.568 734.717 400.568Z" fill="#231F20"/>
<path d="M734.717 424.568C736.098 424.568 737.217 423.673 737.217 422.568C737.217 421.464 736.098 420.568 734.717 420.568C733.337 420.568 732.217 421.464 732.217 422.568C732.217 423.673 733.337 424.568 734.717 424.568Z" fill="#231F20"/>
<path d="M734.717 451.568C736.098 451.568 737.217 450.673 737.217 449.568C737.217 448.464 736.098 447.568 734.717 447.568C733.337 447.568 732.217 448.464 732.217 449.568C732.217 450.673 733.337 451.568 734.717 451.568Z" fill="#231F20"/>
<text fill="white" xml:space="preserve" style="white-space: pre" font-family="Harmattan" font-size="15" font-weight="bold" letter-spacing="0em"><tspan x="604.492" y="32.0872">&#x627;&#x644;&#x62a;&#x648;&#x627;&#x635;&#x644;</tspan></text>
<path d="M737.178 91.1256C738.221 91.1256 739.066 90.2803 739.066 89.2376C739.066 88.1949 738.221 87.3496 737.178 87.3496C736.135 87.3496 735.29 88.1949 735.29 89.2376C735.29 90.2803 736.135 91.1256 737.178 91.1256Z" fill="#231F20"/>
<text fill="#058931" xml:space="preserve" style="white-space: pre" font-family="Bahij TheSansArabic" font-size="12" font-weight="500" letter-spacing="0em"><tspan x="628.492" y="94.4717">01065606206</tspan></text>
<text fill="#058931" xml:space="preserve" style="white-space: pre" font-family="Bahij TheSansArabic" font-size="8" font-weight="500" letter-spacing="0em"><tspan x="560.492" y="64.8115">mostafa.said.abdelwahab@outlook.com</tspan></text>
<path d="M714.997 65.3409C714.997 65.6592 715.123 65.9644 715.349 66.1895C715.574 66.4145 715.879 66.5409 716.197 66.5409H726.411C726.729 66.5409 727.035 66.4145 727.26 66.1895C727.485 65.9644 727.611 65.6592 727.611 65.3409V56.3279C727.611 56.0097 727.485 55.7044 727.26 55.4794C727.035 55.2544 726.729 55.1279 726.411 55.1279H716.197C715.879 55.1279 715.574 55.2544 715.349 55.4794C715.123 55.7044 714.997 56.0097 714.997 56.3279V65.3409Z" fill="#03A9F4"/>
<path d="M727.613 56.9147V56.3287C727.613 56.0814 727.536 55.8402 727.393 55.6387L720.626 59.8027L716.095 57.0027L715.673 58.1277L720.755 61.1277L727.613 56.9147Z" fill="#B3E5FC"/>
<path d="M718.601 71.624L705.985 69.221V52.4L718.601 50V71.624Z" fill="#0277BD"/>
<path d="M715.127 57.7168C714.808 57.342 714.409 57.044 713.959 56.8451C713.508 56.6461 713.019 56.5513 712.527 56.5678C712.01 56.5484 711.495 56.6463 711.022 56.8541C710.548 57.0619 710.127 57.3743 709.791 57.7678C709.074 58.6573 708.706 59.7783 708.758 60.9198C708.708 62.0117 709.071 63.0825 709.773 63.9198C710.099 64.2942 710.504 64.5915 710.959 64.7904C711.414 64.9893 711.907 65.0847 712.403 65.0698C712.912 65.0872 713.418 64.9895 713.883 64.7839C714.349 64.5784 714.762 64.2704 715.091 63.8828C715.809 63.005 716.175 61.8923 716.12 60.7598C716.173 59.6581 715.82 58.5752 715.127 57.7168ZM713.827 62.7778C713.667 62.9942 713.458 63.1697 713.217 63.2899C712.976 63.4101 712.71 63.4717 712.441 63.4696C712.172 63.4676 711.907 63.402 711.668 63.2781C711.429 63.1542 711.222 62.9756 711.065 62.7568C710.688 62.1866 710.505 61.5103 710.542 60.8278C710.509 60.1433 710.692 59.4655 711.065 58.8908C711.221 58.6604 711.432 58.473 711.68 58.3457C711.927 58.2185 712.202 58.1556 712.48 58.1628C712.749 58.1544 713.015 58.215 713.254 58.3387C713.492 58.4625 713.695 58.6454 713.843 58.8698C714.209 59.4663 714.384 60.1604 714.343 60.8588C714.382 61.5376 714.2 62.2107 713.825 62.7778H713.827Z" fill="white"/>
<path d="M717.492 99C723.015 99 727.492 94.5228 727.492 89C727.492 83.4772 723.015 79 717.492 79C711.969 79 707.492 83.4772 707.492 89C707.492 94.5228 711.969 99 717.492 99Z" fill="#10EC00"/>
<path d="M721.725 89.7191C721.696 89.7049 720.588 89.1599 720.391 89.0891C720.31 89.0555 720.222 89.0363 720.134 89.0324C720.058 89.0338 719.984 89.0549 719.919 89.0936C719.853 89.1324 719.799 89.1874 719.761 89.2533C719.651 89.4199 719.316 89.8091 719.213 89.9258C719.2 89.9416 719.181 89.9599 719.17 89.9599C719.158 89.9599 718.989 89.8891 718.936 89.8666C718.042 89.4129 717.281 88.7361 716.725 87.9016C716.716 87.8885 716.71 87.8738 716.706 87.8583C716.724 87.8298 716.746 87.804 716.771 87.7816C716.831 87.7216 716.897 87.6433 716.961 87.5674C716.991 87.5316 717.021 87.4949 717.05 87.4616C717.123 87.3756 717.184 87.2797 717.23 87.1766L717.255 87.1266C717.292 87.0506 717.311 86.9666 717.308 86.8818C717.305 86.7971 717.282 86.7143 717.24 86.6408C717.214 86.5883 716.746 85.4608 716.696 85.3424C716.577 85.0566 716.419 84.9258 716.196 84.9258C716.176 84.9258 716.196 84.9258 716.113 84.9258C715.796 84.9491 715.485 85.0292 715.196 85.1624C714.953 85.3573 714.761 85.6084 714.636 85.8941C714.511 86.1797 714.457 86.4914 714.479 86.8024C714.532 87.5132 714.799 88.1912 715.245 88.7474L715.276 88.7933C716.026 89.9684 717.1 90.901 718.369 91.4783C718.955 91.7564 719.589 91.9185 720.236 91.9558C720.338 91.955 720.44 91.9488 720.541 91.9374L720.595 91.9324C720.88 91.8827 721.15 91.7706 721.387 91.604C721.624 91.4375 721.821 91.2207 721.964 90.9691C722.105 90.6521 722.135 90.2966 722.047 89.9608C721.966 89.8503 721.854 89.7662 721.725 89.7191Z" fill="white"/>
<path d="M718.217 81C716.248 80.9947 714.357 81.7708 712.959 83.1581C711.561 84.5454 710.77 86.4306 710.761 88.4C710.76 89.7166 711.113 91.0092 711.783 92.1425L710.502 95.9167C710.491 95.9515 710.489 95.9889 710.497 96.0247C710.506 96.0604 710.524 96.0931 710.55 96.1191C710.576 96.145 710.609 96.1633 710.644 96.1717C710.68 96.1801 710.718 96.1784 710.752 96.1667L714.692 94.9167C715.824 95.5203 717.093 95.8219 718.376 95.7925C719.659 95.763 720.912 95.4035 722.016 94.7486C723.119 94.0937 724.036 93.1655 724.676 92.0535C725.317 90.9415 725.66 89.6832 725.672 88.4C725.663 86.4309 724.872 84.546 723.475 83.1587C722.077 81.7715 720.187 80.9951 718.217 81ZM718.217 94.2584C717.063 94.2599 715.933 93.923 714.967 93.2892C714.943 93.2733 714.916 93.2629 714.887 93.2589C714.858 93.2549 714.829 93.2572 714.801 93.2659L712.825 93.8942L713.462 92.015C713.472 91.9848 713.475 91.9525 713.471 91.9209C713.466 91.8893 713.454 91.8592 713.435 91.8334C712.703 90.8385 712.309 89.6352 712.311 88.4C712.301 87.23 712.64 86.0835 713.283 85.1061C713.926 84.1286 714.845 83.3643 715.923 82.91C717.002 82.4557 718.191 82.332 719.339 82.5544C720.488 82.7769 721.545 83.3356 722.376 84.1596C723.206 84.9837 723.773 86.0359 724.005 87.1828C724.237 88.3297 724.123 89.5196 723.677 90.6015C723.232 91.6834 722.475 92.6086 721.503 93.2597C720.53 93.9107 719.387 94.2583 718.217 94.2584Z" fill="white"/>
<path d="M600.82 140H727.703C730.316 140 732.823 141.038 734.671 142.886C736.519 144.734 737.557 147.241 737.557 149.854V167.59H600.82C597.162 167.59 593.653 166.137 591.065 163.552C588.478 160.966 587.023 157.458 587.02 153.8C587.02 150.14 588.474 146.63 591.062 144.042C593.65 141.454 597.16 140 600.82 140Z" fill="#00AEEF"/>
<text fill="white" xml:space="preserve" style="white-space: pre" font-family="Harmattan" font-size="15" letter-spacing="0em"><tspan x="604.492" y="157.087">&#x625;&#x62a;&#x642;&#x627;&#x646; &#x627;&#x633;&#x62a;&#x62e;&#x62f;&#x627;&#x645; &#x627;&#x644;&#x643;&#x645;&#x628;&#x64a;&#x648;&#x62a;&#x631;</tspan></text>
<path d="M735.618 268.438H634.618V275.438H735.618V268.438Z" fill="#949598"/>
<path d="M728.618 268.438H634.618V275.438H728.618V268.438Z" fill="#00AEEF"/>
<path d="M730.603 267C731.635 267 732.624 267.479 733.353 268.333C734.082 269.186 734.492 270.343 734.492 271.55V272.446C734.493 273.044 734.392 273.636 734.197 274.189C734.002 274.741 733.715 275.243 733.354 275.666C732.993 276.089 732.564 276.424 732.092 276.653C731.62 276.882 731.114 277 730.603 277C730.195 277 729.79 276.906 729.412 276.723C729.034 276.539 728.691 276.271 728.402 275.933C728.113 275.594 727.884 275.192 727.728 274.75C727.572 274.308 727.492 273.834 727.492 273.356V270.64C727.492 269.675 727.82 268.749 728.403 268.066C728.987 267.384 729.778 267 730.603 267Z" fill="black"/>
<path d="M737.492 273C738.597 273 739.492 272.105 739.492 271C739.492 269.895 738.597 269 737.492 269C736.388 269 735.492 269.895 735.492 271C735.492 272.105 736.388 273 737.492 273Z" fill="#231F20"/>
<path d="M735.618 179.438H634.618V186.438H735.618V179.438Z" fill="#949598"/>
<path d="M735.618 202.438H634.618V208.437H735.618V202.438Z" fill="#949598"/>
<path d="M735.618 223.438H634.618V228.438H735.618V223.438Z" fill="#949598"/>
<path d="M735.618 246.438H634.618V252.437H735.618V246.438Z" fill="#949598"/>
<path d="M728.618 179.438H634.618V186.438H728.618V179.438Z" fill="#00AEEF"/>
<path d="M709.618 202.438H634.618V208.437H709.618V202.438Z" fill="#00AEEF"/>
<path d="M698.618 223.438H634.618V228.438H698.618V223.438Z" fill="#00AEEF"/>
<path d="M698.618 246.438H634.618V252.437H698.618V246.438Z" fill="#00AEEF"/>
<path d="M737.492 185C738.597 185 739.492 184.105 739.492 183C739.492 181.895 738.597 181 737.492 181C736.388 181 735.492 181.895 735.492 183C735.492 184.105 736.388 185 737.492 185Z" fill="#231F20"/>
<path d="M737.618 207.438C738.723 207.438 739.618 206.542 739.618 205.438C739.618 204.333 738.723 203.438 737.618 203.438C736.514 203.438 735.618 204.333 735.618 205.438C735.618 206.542 736.514 207.438 737.618 207.438Z" fill="#231F20"/>
<path d="M726.729 177.438C727.761 177.438 728.75 177.917 729.479 178.77C730.208 179.623 730.618 180.781 730.618 181.988V182.884C730.619 183.482 730.518 184.074 730.323 184.626C730.128 185.179 729.841 185.681 729.48 186.104C729.119 186.526 728.69 186.862 728.218 187.091C727.746 187.32 727.24 187.438 726.729 187.438C726.321 187.438 725.916 187.343 725.538 187.16C725.16 186.977 724.817 186.708 724.528 186.37C724.239 186.032 724.01 185.63 723.854 185.188C723.698 184.746 723.618 184.272 723.618 183.794V181.078C723.618 180.112 723.946 179.186 724.529 178.504C725.113 177.821 725.904 177.438 726.729 177.438Z" fill="black"/>
<path d="M709.729 200.438C710.761 200.438 711.75 200.869 712.479 201.637C713.208 202.405 713.618 203.446 713.618 204.533V205.339C713.619 205.877 713.518 206.41 713.323 206.907C713.128 207.405 712.841 207.856 712.48 208.237C712.119 208.618 711.69 208.919 711.218 209.125C710.746 209.331 710.24 209.438 709.729 209.438C709.321 209.438 708.916 209.353 708.538 209.188C708.16 209.023 707.817 208.781 707.528 208.477C707.239 208.172 707.01 207.811 706.854 207.413C706.698 207.015 706.618 206.589 706.618 206.158V203.714C706.618 202.845 706.946 202.011 707.529 201.397C708.113 200.783 708.904 200.438 709.729 200.438Z" fill="black"/>
<path d="M701.603 221.438C702.635 221.438 703.624 221.869 704.353 222.637C705.082 223.405 705.492 224.446 705.492 225.533V226.339C705.493 226.877 705.392 227.41 705.197 227.907C705.002 228.405 704.715 228.856 704.354 229.237C703.993 229.618 703.564 229.919 703.092 230.125C702.62 230.331 702.114 230.438 701.603 230.438C701.195 230.438 700.79 230.353 700.412 230.188C700.034 230.023 699.691 229.781 699.402 229.477C699.113 229.172 698.884 228.811 698.728 228.413C698.572 228.015 698.492 227.589 698.492 227.158V224.714C698.492 223.845 698.82 223.011 699.403 222.397C699.987 221.783 700.778 221.438 701.603 221.438Z" fill="black"/>
<path d="M699.603 244.438C700.635 244.438 701.624 244.917 702.353 245.77C703.082 246.623 703.492 247.781 703.492 248.988V249.884C703.493 250.482 703.392 251.074 703.197 251.626C703.002 252.179 702.715 252.681 702.354 253.104C701.993 253.526 701.564 253.862 701.092 254.091C700.62 254.32 700.114 254.438 699.603 254.438C699.195 254.438 698.79 254.343 698.412 254.16C698.034 253.977 697.691 253.708 697.402 253.37C697.113 253.032 696.884 252.63 696.728 252.188C696.572 251.746 696.492 251.272 696.492 250.794V248.078C696.492 247.112 696.82 246.186 697.403 245.504C697.987 244.821 698.778 244.438 699.603 244.438Z" fill="black"/>
<path d="M737.618 228.438C738.723 228.438 739.618 227.318 739.618 225.938C739.618 224.557 738.723 223.438 737.618 223.438C736.514 223.438 735.618 224.557 735.618 225.938C735.618 227.318 736.514 228.438 737.618 228.438Z" fill="#231F20"/>
<path d="M737.618 251.438C738.723 251.438 739.618 250.542 739.618 249.438C739.618 248.333 738.723 247.438 737.618 247.438C736.514 247.438 735.618 248.333 735.618 249.438C735.618 250.542 736.514 251.438 737.618 251.438Z" fill="#231F20"/>
<text fill="#FF0040" xml:space="preserve" style="white-space: pre" font-family="Bahij TheSansArabic" font-size="13" font-weight="500" letter-spacing="0em"><tspan x="465.618" y="187.698">Microsoft Word</tspan></text>
<text fill="#FF0040" xml:space="preserve" style="white-space: pre" font-family="Bahij TheSansArabic" font-size="13" font-weight="500" letter-spacing="0em"><tspan x="466.618" y="210.698">Microsoft Excel</tspan></text>
<text fill="#FF0040" xml:space="preserve" style="white-space: pre" font-family="Bahij TheSansArabic" font-size="13" font-weight="500" letter-spacing="0em"><tspan x="466.618" y="231.698">Microsoft Excel VBA</tspan></text>
<text fill="#FF0040" xml:space="preserve" style="white-space: pre" font-family="Bahij TheSansArabic" font-size="13" font-weight="500" letter-spacing="0em"><tspan x="466.618" y="254.698">Microsoft PowerPoint </tspan></text>
<text fill="#FF0040" xml:space="preserve" style="white-space: pre" font-family="Harmattan" font-size="14" font-weight="bold" letter-spacing="-0.05em"><tspan x="467" y="274.881">&#x627;&#x644;&#x643;&#x62a;&#x627;&#x628;&#x629; &#x627;&#x644;&#x633;&#x631;&#x64a;&#x639;&#x647; &#x639;&#x644;&#x64a; &#x644;&#x648;&#x62d;&#x629; &#x627;&#x644;&#x645;&#x641;&#x627;&#x62a;&#x64a;&#x62d;</tspan></text>
<path d="M598.068 300H727.046C728.226 300 729.394 300.232 730.484 300.684C731.574 301.135 732.564 301.797 733.398 302.631C734.232 303.465 734.894 304.455 735.345 305.545C735.797 306.635 736.029 307.803 736.029 308.983V325.152H598.068C594.733 325.152 591.534 323.827 589.176 321.469C586.817 319.11 585.492 315.911 585.492 312.576C585.492 309.241 586.817 306.042 589.176 303.683C591.534 301.325 594.733 300 598.068 300Z" fill="#00AEEF"/>
<text fill="white" xml:space="preserve" style="white-space: pre" font-family="Harmattan" font-size="15" font-weight="bold" letter-spacing="0em"><tspan x="649.629" y="316.087">&#x627;&#x644;&#x628;&#x631;&#x645;&#x62c;&#x629;</tspan></text>
<text fill="#FF0040" xml:space="preserve" style="white-space: pre" font-family="Bahij TheSansArabic" font-size="13" font-weight="500" letter-spacing="0em"><tspan x="467.525" y="354.261">DART</tspan></text>
<text fill="#FF0040" xml:space="preserve" style="white-space: pre" font-family="Bahij TheSansArabic" font-size="13" font-weight="500" letter-spacing="0em"><tspan x="473.568" y="378.261">LUTTER</tspan></text>
<text fill="#00BBFF" xml:space="preserve" style="white-space: pre" font-family="Bahij TheSansArabic" font-size="13" font-weight="500" letter-spacing="0em"><tspan x="467.525" y="378.261">F</tspan></text>
<text fill="#FF0040" xml:space="preserve" style="white-space: pre" font-family="Bahij TheSansArabic" font-size="13" font-weight="500" letter-spacing="0em"><tspan x="467.525" y="399.261">C#</tspan></text>
<text fill="#FF0040" xml:space="preserve" style="white-space: pre" font-family="Bahij TheSansArabic" font-size="13" font-weight="500" letter-spacing="0em"><tspan x="467.525" y="426.261">Visual Basic</tspan></text>
<text fill="#FF0040" xml:space="preserve" style="white-space: pre" font-family="Bahij TheSansArabic" font-size="13" font-weight="500" letter-spacing="0em"><tspan x="467.525" y="452.261">Python </tspan></text>
<path d="M730.217 344.568H634.217V350.568H730.217V344.568Z" fill="#949598"/>
<path d="M730.217 370.568H634.217V376.568H730.217V370.568Z" fill="#949598"/>
<path d="M730.217 395.568H634.217V401.568H730.217V395.568Z" fill="#949598"/>
<path d="M730.217 419.568H634.217V424.568H730.217V419.568Z" fill="#949598"/>
<path d="M730.217 446.568H634.217V451.568H730.217V446.568Z" fill="#949598"/>
<path d="M689.217 344.568H634.217V350.568H689.217V344.568Z" fill="#00AEEF"/>
<path d="M699.217 370.568H634.217V376.568H699.217V370.568Z" fill="#00AEEF"/>
<path d="M682.217 395.568H634.217V401.568H682.217V395.568Z" fill="#00AEEF"/>
<path d="M684.217 419.568H634.217V424.568H684.217V419.568Z" fill="#00AEEF"/>
<path d="M663.217 446.568H634.217V451.568H663.217V446.568Z" fill="#00AEEF"/>
<path d="M693.217 343.568C694.543 343.568 695.815 343.952 696.753 344.634C697.691 345.317 698.217 346.243 698.217 347.208V347.925C698.218 348.404 698.089 348.877 697.838 349.319C697.587 349.761 697.219 350.163 696.754 350.501C696.29 350.84 695.739 351.108 695.132 351.291C694.525 351.474 693.874 351.568 693.217 351.568C692.692 351.568 692.171 351.493 691.686 351.346C691.2 351.2 690.759 350.985 690.387 350.714C690.016 350.444 689.721 350.122 689.521 349.769C689.32 349.415 689.217 349.036 689.217 348.653V346.481C689.217 345.708 689.639 344.967 690.389 344.421C691.139 343.875 692.157 343.568 693.217 343.568Z" fill="black"/>
<path d="M698.217 369.568C699.543 369.568 700.815 369.952 701.753 370.634C702.691 371.317 703.217 372.243 703.217 373.208V373.925C703.218 374.404 703.089 374.877 702.838 375.319C702.587 375.761 702.219 376.163 701.754 376.501C701.29 376.84 700.739 377.108 700.132 377.291C699.525 377.474 698.874 377.568 698.217 377.568C697.692 377.568 697.171 377.493 696.686 377.346C696.2 377.2 695.759 376.985 695.387 376.714C695.016 376.444 694.721 376.122 694.521 375.769C694.32 375.415 694.217 375.036 694.217 374.653V372.481C694.217 371.708 694.639 370.967 695.389 370.421C696.139 369.875 697.157 369.568 698.217 369.568Z" fill="black"/>
<path d="M677.217 393.568C678.543 393.568 679.815 394 680.753 394.768C681.691 395.536 682.217 396.577 682.217 397.663V398.47C682.218 399.008 682.089 399.541 681.838 400.038C681.587 400.535 681.219 400.987 680.754 401.368C680.29 401.748 679.739 402.05 679.132 402.256C678.525 402.462 677.874 402.568 677.217 402.568C676.692 402.568 676.171 402.484 675.686 402.319C675.2 402.154 674.759 401.912 674.387 401.608C674.016 401.303 673.721 400.941 673.521 400.544C673.32 400.146 673.217 399.719 673.217 399.289V396.845C673.217 395.976 673.639 395.142 674.389 394.528C675.139 393.914 676.157 393.568 677.217 393.568Z" fill="black"/>
<path d="M684.662 417.568C686.135 417.568 687.548 418 688.59 418.768C689.632 419.536 690.217 420.577 690.217 421.663V422.47C690.218 423.008 690.075 423.541 689.796 424.038C689.517 424.535 689.108 424.987 688.592 425.368C688.076 425.748 687.463 426.05 686.789 426.256C686.115 426.462 685.392 426.568 684.662 426.568C684.078 426.568 683.5 426.484 682.96 426.319C682.42 426.154 681.93 425.912 681.518 425.608C681.105 425.303 680.777 424.941 680.554 424.544C680.331 424.146 680.217 423.719 680.217 423.289V420.845C680.217 419.976 680.686 419.142 681.519 418.528C682.353 417.914 683.483 417.568 684.662 417.568Z" fill="black"/>
<path d="M660.217 444.568C661.543 444.568 662.815 445 663.753 445.768C664.691 446.536 665.217 447.577 665.217 448.663V449.47C665.218 450.008 665.089 450.541 664.838 451.038C664.587 451.535 664.219 451.987 663.754 452.368C663.29 452.748 662.739 453.05 662.132 453.256C661.525 453.462 660.874 453.568 660.217 453.568C659.692 453.568 659.171 453.484 658.686 453.319C658.2 453.154 657.759 452.912 657.387 452.608C657.016 452.303 656.721 451.941 656.521 451.544C656.32 451.146 656.217 450.719 656.217 450.289V447.845C656.217 446.976 656.639 446.142 657.389 445.528C658.139 444.914 659.157 444.568 660.217 444.568Z" fill="black"/>
<path d="M734.717 349.568C736.098 349.568 737.217 348.673 737.217 347.568C737.217 346.464 736.098 345.568 734.717 345.568C733.337 345.568 732.217 346.464 732.217 347.568C732.217 348.673 733.337 349.568 734.717 349.568Z" fill="#231F20"/>
<path d="M734.717 375.568C736.098 375.568 737.217 374.673 737.217 373.568C737.217 372.464 736.098 371.568 734.717 371.568C733.337 371.568 732.217 372.464 732.217 373.568C732.217 374.673 733.337 375.568 734.717 375.568Z" fill="#231F20"/>
<path d="M734.717 400.568C736.098 400.568 737.217 399.673 737.217 398.568C737.217 397.464 736.098 396.568 734.717 396.568C733.337 396.568 732.217 397.464 732.217 398.568C732.217 399.673 733.337 400.568 734.717 400.568Z" fill="#231F20"/>
<path d="M734.717 423.568C736.098 423.568 737.217 422.673 737.217 421.568C737.217 420.464 736.098 419.568 734.717 419.568C733.337 419.568 732.217 420.464 732.217 421.568C732.217 422.673 733.337 423.568 734.717 423.568Z" fill="#231F20"/>
<path d="M734.717 450.568C736.098 450.568 737.217 449.673 737.217 448.568C737.217 447.464 736.098 446.568 734.717 446.568C733.337 446.568 732.217 447.464 732.217 448.568C732.217 449.673 733.337 450.568 734.717 450.568Z" fill="#231F20"/>
<path d="M646.487 456.364C646.431 456.11 646.184 455.952 645.954 456.013C645.818 456.074 645.713 456.162 645.654 456.264C645.596 456.366 645.586 456.477 645.626 456.583L645.668 456.771L646.1 456.661L645.673 456.775C645.688 456.852 645.726 456.926 645.785 456.993C645.826 457.045 645.879 457.103 645.936 457.171C646.16 457.405 646.359 457.649 646.531 457.902C646.661 458.124 646.934 458.191 647.136 458.052C647.244 457.961 647.314 457.853 647.338 457.738C647.362 457.624 647.341 457.507 647.277 457.4C647.076 457.092 646.838 456.794 646.567 456.51C646.526 456.465 646.52 456.487 646.511 456.48L646.487 456.364Z" fill="#FFFFFE"/>
<path d="M645.061 457.758C645.005 458.012 644.759 458.17 644.529 458.109C643.975 457.968 644.203 457.284 644.506 456.953C644.73 456.719 644.929 456.475 645.101 456.222C645.231 456 645.503 455.933 645.706 456.072C645.814 456.164 645.883 456.272 645.908 456.386C645.932 456.501 645.911 456.617 645.847 456.724C645.665 457.034 645.09 457.574 645.055 457.758H645.061Z" fill="#FFFFFE"/>
<path d="M736.19 41C740.232 41 744.183 40.2083 747.543 38.7249C750.904 37.2415 753.523 35.133 755.069 32.6662C756.616 30.1994 757.021 27.485 756.232 24.8663C755.444 22.2475 753.498 19.8421 750.64 17.9541C747.782 16.0661 744.141 14.7803 740.177 14.2594C736.213 13.7385 732.104 14.0058 728.37 15.0276C724.636 16.0494 721.445 17.7798 719.199 19.9998C716.954 22.2199 715.755 24.83 715.755 27.5C715.755 31.0804 717.908 34.5142 721.741 37.0459C725.573 39.5777 730.77 41 736.19 41Z" fill="#14903D"/>
<path d="M736.19 40.5C740.082 40.5 743.887 39.7376 747.123 38.3091C750.359 36.8807 752.881 34.8503 754.37 32.4749C755.86 30.0995 756.249 27.4856 755.49 24.9638C754.731 22.4421 752.857 20.1257 750.105 18.3076C747.352 16.4895 743.846 15.2514 740.029 14.7498C736.212 14.2482 732.255 14.5056 728.66 15.4896C725.064 16.4735 721.991 18.1398 719.829 20.2776C717.666 22.4154 716.512 24.9289 716.512 27.5C716.512 30.9478 718.585 34.2544 722.276 36.6924C725.966 39.1304 730.971 40.5 736.19 40.5Z" stroke="#707070"/>
<path d="M727.95 19.9888H749.035C749.468 20.0211 749.865 20.1642 750.14 20.3874C750.415 20.6106 750.547 20.8962 750.507 21.1828V33.8548C750.509 34.0887 750.421 34.3192 750.252 34.5248C750.223 34.5866 750.176 34.644 750.113 34.6938C750.074 34.7245 750.027 34.7508 749.975 34.7718C749.854 34.8565 749.709 34.9244 749.548 34.9718C749.387 35.0198 749.212 35.0457 749.035 35.0478H736.558C736.648 34.746 736.684 34.4382 736.664 34.1308H748.66L740.827 27.4548L738.24 29.2438C738.194 29.277 738.138 29.3036 738.076 29.3218C738.014 29.3403 737.947 29.3498 737.879 29.3498C737.811 29.3498 737.743 29.3403 737.681 29.3218C737.619 29.3036 737.563 29.277 737.518 29.2438L734.805 27.4548L732.344 29.4548C732.018 29.2732 731.636 29.1417 731.224 29.0698L733.927 26.8698L728.914 23.5568C728.893 23.3202 728.835 23.0856 728.741 22.8568L728.54 22.1378L737.866 28.3078L748.563 20.9078H728.212L727.95 19.9888ZM723.711 25.7608C723.944 26.8106 724.347 27.8409 724.913 28.8338C725.548 29.9205 726.442 30.9333 727.561 31.8338C727.595 31.8654 727.641 31.8905 727.694 31.9068C727.747 31.9229 727.805 31.9298 727.863 31.9268C728.047 31.9078 728.221 31.8605 728.372 31.7888C728.56 31.7045 728.738 31.6109 728.905 31.5088C729.703 31.0598 730.683 30.5008 731.519 31.1278C731.535 31.1421 731.552 31.1558 731.57 31.1688L734.224 33.5478C734.233 33.5568 734.242 33.5658 734.25 33.5748C734.405 33.7533 734.503 33.9509 734.537 34.1555C734.572 34.36 734.543 34.5671 734.451 34.7638C734.257 35.2042 733.915 35.6099 733.45 35.9508C732.933 36.3436 732.215 36.5973 731.433 36.6638C730.729 36.7162 730.018 36.6884 729.329 36.5818C728.258 36.4277 727.267 36.0916 726.453 35.6068C725.498 35.0303 724.657 34.3773 723.947 33.6628L723.887 33.6028C723.501 33.2318 723.085 32.8338 722.696 32.3908C721.129 30.5457 720.058 28.5354 719.531 26.4488C719.02 24.745 719.224 22.9812 720.122 21.3488C720.521 20.5859 721.336 19.9487 722.408 19.5618C722.899 19.4175 723.436 19.3539 723.973 19.3765C724.51 19.3992 725.03 19.5073 725.49 19.6918C725.56 19.7181 725.62 19.755 725.664 19.7995C725.708 19.8441 725.736 19.8949 725.744 19.9478L726.686 23.3698C726.774 23.5352 726.801 23.712 726.766 23.8858C726.731 24.0597 726.634 24.2257 726.483 24.3698C726.203 24.6078 725.824 24.7867 725.393 24.8848C725.236 24.9367 725.075 24.9828 724.91 25.0228C724.333 25.1758 723.675 25.3548 723.708 25.7748L723.711 25.7608ZM741.671 26.8608L749.359 33.4018V21.5508L741.683 26.8698L741.671 26.8608Z" fill="white"/>
<path d="M738.491 128.958C742.339 128.958 746.1 128.204 749.299 126.792C752.498 125.38 754.992 123.373 756.464 121.024C757.936 118.676 758.322 116.092 757.571 113.599C756.82 111.106 754.968 108.816 752.247 107.018C749.526 105.221 746.06 103.997 742.286 103.501C738.513 103.005 734.601 103.259 731.046 104.232C727.492 105.205 724.453 106.852 722.316 108.966C720.178 111.079 719.037 113.564 719.037 116.106C719.037 119.514 721.087 122.783 724.735 125.194C728.383 127.604 733.331 128.958 738.491 128.958Z" fill="#00AEEF" stroke="#707070"/>
<path d="M739.877 117.367H739.851L738.957 116.685C739.829 116.908 740.796 116.908 741.668 116.685L740.76 117.367H740.743L742.945 120.885L744.957 119.122L747.188 120.23L748.591 118.84C747.099 117.607 745.043 116.726 742.73 116.33C743.633 115.899 744.372 115.337 744.892 114.687C745.412 114.036 745.697 113.316 745.726 112.581C745.726 111.631 745.155 110.72 744.139 110.049C743.122 109.377 741.744 109 740.306 109C738.869 109 737.49 109.377 736.474 110.049C735.457 110.72 734.886 111.631 734.886 112.581C734.916 113.316 735.202 114.037 735.723 114.687C736.244 115.337 736.985 115.899 737.888 116.33C733.65 117.04 730.492 119.474 730.492 121.28C730.492 122.347 735.4 122.88 740.305 122.88L737.558 121.062L739.877 117.367Z" fill="white"/>
<path d="M235 374H149V373H235V374Z" fill="#00AEEF"/>
<path d="M235 348H149V347H235V348Z" fill="#00AEEF"/>
<path d="M235 423H149V422H235V423Z" fill="#00AEEF"/>
<path d="M235 450H149V449H235V450Z" fill="#00AEEF"/>
<path d="M235 397H149V396H235V397Z" fill="#00AEEF"/>
<path d="M168.236 16.0051H259.883C260.817 16.0049 261.743 16.2634 262.606 16.7658C263.47 17.2681 264.255 18.0044 264.916 18.9328C265.576 19.8611 266.101 20.9632 266.458 22.1761C266.816 23.389 267 24.689 267 26.0019V43.9949H168.236C166.905 44.0453 165.58 43.7205 164.34 43.0398C163.1 42.3591 161.969 41.3363 161.015 40.0318C160.061 38.7273 159.302 37.1675 158.785 35.4445C158.267 33.7215 158 31.8702 158 30C158 28.1297 158.267 26.2785 158.785 24.5555C159.302 22.8325 160.061 21.2727 161.015 19.9682C161.969 18.6637 163.1 17.6409 164.34 16.9602C165.58 16.2795 166.905 15.9547 168.236 16.0051Z" fill="#058931"/>
<path d="M80.4017 366.233C80.5562 366.267 80.716 366.27 80.8717 366.241C81.0273 366.213 81.1756 366.153 81.3077 366.066C81.7918 365.598 82.2051 365.063 82.5346 364.476C82.8436 364.035 81.5867 363.985 81.3099 364.38C81.2135 364.518 81.1208 364.668 81.0249 364.823C80.8743 364.042 80.8876 363.238 81.0639 362.463C81.2402 361.687 81.5756 360.957 82.0488 360.318C83.6807 357.805 87.1578 356.029 90.851 355.01L90.0844 355.895C89.8168 356.203 90.9091 356.528 91.1764 356.223L92.5724 354.615C92.7955 354.357 92.1671 354.205 91.9244 354.178L89.4826 353.916C89.2733 353.893 88.9486 353.981 89.0157 354.157C89.0886 354.346 89.4134 354.431 89.6934 354.46L90.8902 354.589C84.569 356.589 79.1228 361.046 80.0243 365.338C79.6603 365.229 79.3069 365.108 78.9641 364.977C78.8152 364.925 78.6573 364.903 78.4998 364.912C78.3423 364.921 78.1882 364.962 78.0464 365.031C77.8002 365.157 77.7311 365.389 77.9758 365.482C78.7673 365.785 79.5776 366.036 80.4017 366.233Z" fill="#00AEEF" stroke="#707070" stroke-width="0.299962"/>
<path d="M346.686 62.776C347.729 62.776 348.574 61.9307 348.574 60.888C348.574 59.8453 347.729 59 346.686 59C345.643 59 344.798 59.8453 344.798 60.888C344.798 61.9307 345.643 62.776 346.686 62.776Z" fill="#231F20"/>
<path d="M346.686 91.1256C347.729 91.1256 348.574 90.2803 348.574 89.2376C348.574 88.1949 347.729 87.3496 346.686 87.3496C345.643 87.3496 344.798 88.1949 344.798 89.2376C344.798 90.2803 345.643 91.1256 346.686 91.1256Z" fill="#231F20"/>
<path d="M347 274C348.105 274 349 273.105 349 272C349 270.895 348.105 270 347 270C345.895 270 345 270.895 345 272C345 273.105 345.895 274 347 274Z" fill="#231F20"/>
<path d="M344.225 349.568C345.606 349.568 346.725 348.673 346.725 347.568C346.725 346.464 345.606 345.568 344.225 345.568C342.844 345.568 341.725 346.464 341.725 347.568C341.725 348.673 342.844 349.568 344.225 349.568Z" fill="#231F20"/>
<path d="M344.225 375.568C345.606 375.568 346.725 374.673 346.725 373.568C346.725 372.464 345.606 371.568 344.225 371.568C342.844 371.568 341.725 372.464 341.725 373.568C341.725 374.673 342.844 375.568 344.225 375.568Z" fill="#231F20"/>
<path d="M344.225 400.568C345.606 400.568 346.725 399.673 346.725 398.568C346.725 397.464 345.606 396.568 344.225 396.568C342.844 396.568 341.725 397.464 341.725 398.568C341.725 399.673 342.844 400.568 344.225 400.568Z" fill="#231F20"/>
<path d="M344.225 424.568C345.606 424.568 346.725 423.673 346.725 422.568C346.725 421.464 345.606 420.568 344.225 420.568C342.844 420.568 341.725 421.464 341.725 422.568C341.725 423.673 342.844 424.568 344.225 424.568Z" fill="#231F20"/>
<path d="M344.225 451.568C345.606 451.568 346.725 450.673 346.725 449.568C346.725 448.464 345.606 447.568 344.225 447.568C342.844 447.568 341.725 448.464 341.725 449.568C341.725 450.673 342.844 451.568 344.225 451.568Z" fill="#231F20"/>
<text fill="white" xml:space="preserve" style="white-space: pre" font-family="Harmattan" font-size="15" font-weight="bold" letter-spacing="0em"><tspan x="170" y="34.0872">communication</tspan></text>
<path d="M346.686 91.1256C347.729 91.1256 348.574 90.2803 348.574 89.2376C348.574 88.1949 347.729 87.3496 346.686 87.3496C345.643 87.3496 344.798 88.1949 344.798 89.2376C344.798 90.2803 345.643 91.1256 346.686 91.1256Z" fill="#231F20"/>
<text fill="#058931" xml:space="preserve" style="white-space: pre" font-family="Bahij TheSansArabic" font-size="12" font-weight="500" letter-spacing="0em"><tspan x="238" y="94.4717">01065606206</tspan></text>
<text fill="#058931" xml:space="preserve" style="white-space: pre" font-family="Bahij TheSansArabic" font-size="8" font-weight="500" letter-spacing="0em"><tspan x="170" y="64.8115">mostafa.said.abdelwahab@outlook.com</tspan></text>
<path d="M324.505 65.3409C324.505 65.6592 324.631 65.9644 324.856 66.1895C325.081 66.4145 325.387 66.5409 325.705 66.5409H335.919C336.237 66.5409 336.542 66.4145 336.767 66.1895C336.992 65.9644 337.119 65.6592 337.119 65.3409V56.3279C337.119 56.0097 336.992 55.7044 336.767 55.4794C336.542 55.2544 336.237 55.1279 335.919 55.1279H325.705C325.387 55.1279 325.081 55.2544 324.856 55.4794C324.631 55.7044 324.505 56.0097 324.505 56.3279V65.3409Z" fill="#03A9F4"/>
<path d="M337.121 56.9147V56.3287C337.121 56.0814 337.044 55.8402 336.901 55.6387L330.134 59.8027L325.603 57.0027L325.181 58.1277L330.263 61.1277L337.121 56.9147Z" fill="#B3E5FC"/>
<path d="M328.109 71.624L315.493 69.221V52.4L328.109 50V71.624Z" fill="#0277BD"/>
<path d="M324.635 57.7168C324.316 57.342 323.917 57.044 323.466 56.8451C323.016 56.6461 322.527 56.5513 322.035 56.5678C321.518 56.5484 321.003 56.6463 320.529 56.8541C320.056 57.0619 319.635 57.3743 319.299 57.7678C318.582 58.6573 318.214 59.7783 318.266 60.9198C318.216 62.0117 318.579 63.0825 319.281 63.9198C319.607 64.2942 320.012 64.5915 320.467 64.7904C320.922 64.9893 321.415 65.0847 321.911 65.0698C322.42 65.0872 322.925 64.9895 323.391 64.7839C323.856 64.5784 324.269 64.2704 324.599 63.8828C325.317 63.005 325.683 61.8923 325.628 60.7598C325.681 59.6581 325.328 58.5752 324.635 57.7168ZM323.335 62.7778C323.175 62.9942 322.966 63.1697 322.725 63.2899C322.484 63.4101 322.218 63.4717 321.949 63.4696C321.679 63.4676 321.415 63.402 321.175 63.2781C320.936 63.1542 320.73 62.9756 320.573 62.7568C320.196 62.1866 320.013 61.5103 320.05 60.8278C320.017 60.1433 320.2 59.4655 320.573 58.8908C320.729 58.6604 320.94 58.473 321.187 58.3457C321.435 58.2185 321.71 58.1556 321.988 58.1628C322.257 58.1544 322.523 58.215 322.762 58.3387C323 58.4625 323.203 58.6454 323.351 58.8698C323.717 59.4663 323.891 60.1604 323.851 60.8588C323.89 61.5376 323.708 62.2107 323.333 62.7778H323.335Z" fill="white"/>
<path d="M327 99C332.523 99 337 94.5228 337 89C337 83.4772 332.523 79 327 79C321.477 79 317 83.4772 317 89C317 94.5228 321.477 99 327 99Z" fill="#10EC00"/>
<path d="M331.233 89.7191C331.203 89.7049 330.096 89.1599 329.899 89.0891C329.817 89.0555 329.73 89.0363 329.642 89.0324C329.566 89.0338 329.492 89.0549 329.426 89.0936C329.361 89.1324 329.307 89.1874 329.269 89.2533C329.158 89.4199 328.824 89.8091 328.721 89.9258C328.708 89.9416 328.689 89.9599 328.678 89.9599C328.666 89.9599 328.497 89.8891 328.444 89.8666C327.55 89.4129 326.788 88.7361 326.233 87.9016C326.224 87.8885 326.218 87.8738 326.214 87.8583C326.232 87.8298 326.254 87.804 326.279 87.7816C326.339 87.7216 326.405 87.6433 326.468 87.5674C326.498 87.5316 326.528 87.4949 326.558 87.4616C326.631 87.3756 326.691 87.2797 326.738 87.1766L326.763 87.1266C326.8 87.0506 326.819 86.9666 326.816 86.8818C326.813 86.7971 326.79 86.7143 326.748 86.6408C326.722 86.5883 326.254 85.4608 326.204 85.3424C326.085 85.0566 325.927 84.9258 325.704 84.9258C325.684 84.9258 325.704 84.9258 325.621 84.9258C325.304 84.9491 324.993 85.0292 324.704 85.1624C324.461 85.3573 324.268 85.6084 324.143 85.8941C324.018 86.1797 323.965 86.4914 323.987 86.8024C324.04 87.5132 324.307 88.1912 324.753 88.7474L324.784 88.7933C325.534 89.9684 326.608 90.901 327.877 91.4783C328.463 91.7564 329.097 91.9185 329.744 91.9558C329.846 91.955 329.947 91.9488 330.048 91.9374L330.103 91.9324C330.388 91.8827 330.658 91.7706 330.895 91.604C331.132 91.4375 331.329 91.2207 331.472 90.9691C331.613 90.6521 331.642 90.2966 331.555 89.9608C331.474 89.8503 331.361 89.7662 331.233 89.7191Z" fill="white"/>
<path d="M327.725 81C325.756 80.9947 323.865 81.7708 322.467 83.1581C321.069 84.5454 320.278 86.4306 320.269 88.4C320.268 89.7166 320.621 91.0092 321.291 92.1425L320.01 95.9167C319.999 95.9515 319.997 95.9889 320.005 96.0247C320.014 96.0604 320.032 96.0931 320.058 96.1191C320.084 96.145 320.117 96.1633 320.152 96.1717C320.188 96.1801 320.225 96.1784 320.26 96.1667L324.199 94.9167C325.332 95.5203 326.601 95.8219 327.884 95.7925C329.167 95.763 330.42 95.4035 331.524 94.7486C332.627 94.0937 333.543 93.1655 334.184 92.0535C334.824 90.9415 335.168 89.6832 335.18 88.4C335.171 86.4309 334.38 84.546 332.983 83.1587C331.585 81.7715 329.694 80.9951 327.725 81ZM327.725 94.2584C326.57 94.2599 325.441 93.923 324.475 93.2892C324.451 93.2733 324.423 93.2629 324.395 93.2589C324.366 93.2549 324.336 93.2572 324.309 93.2659L322.333 93.8942L322.969 92.015C322.98 91.9848 322.983 91.9525 322.978 91.9209C322.974 91.8893 322.962 91.8592 322.943 91.8334C322.211 90.8385 321.817 89.6352 321.819 88.4C321.809 87.23 322.148 86.0835 322.791 85.1061C323.434 84.1286 324.353 83.3643 325.431 82.91C326.51 82.4557 327.698 82.332 328.847 82.5544C329.996 82.7769 331.053 83.3356 331.883 84.1596C332.714 84.9837 333.281 86.0359 333.513 87.1828C333.745 88.3297 333.631 89.5196 333.185 90.6015C332.739 91.6834 331.983 92.6086 331.01 93.2597C330.038 93.9107 328.895 94.2583 327.725 94.2584Z" fill="white"/>
<path d="M210.328 140H337.211C339.824 140 342.331 141.038 344.179 142.886C346.027 144.734 347.065 147.241 347.065 149.854V167.59H210.328C206.67 167.59 203.161 166.137 200.573 163.552C197.986 160.966 196.53 157.458 196.528 153.8C196.528 150.14 197.982 146.63 200.57 144.042C203.158 141.454 206.668 140 210.328 140Z" fill="#00AEEF"/>
<text fill="white" xml:space="preserve" style="white-space: pre" font-family="Harmattan" font-size="15" letter-spacing="0em"><tspan x="214" y="157.087">computer proficiency</tspan></text>
<path d="M345.126 268.438H244.126V275.438H345.126V268.438Z" fill="#949598"/>
<path d="M338.126 268.438H244.126V275.438H338.126V268.438Z" fill="#00AEEF"/>
<path d="M340.111 267C341.143 267 342.132 267.479 342.861 268.333C343.59 269.186 344 270.343 344 271.55V272.446C344 273.044 343.9 273.636 343.705 274.189C343.51 274.741 343.223 275.243 342.862 275.666C342.501 276.089 342.072 276.424 341.6 276.653C341.128 276.882 340.622 277 340.111 277C339.702 277 339.298 276.906 338.92 276.723C338.542 276.539 338.199 276.271 337.91 275.933C337.621 275.594 337.392 275.192 337.236 274.75C337.08 274.308 337 273.834 337 273.356V270.64C337 269.675 337.328 268.749 337.911 268.066C338.495 267.384 339.286 267 340.111 267Z" fill="black"/>
<path d="M347 273C348.105 273 349 272.105 349 271C349 269.895 348.105 269 347 269C345.895 269 345 269.895 345 271C345 272.105 345.895 273 347 273Z" fill="#231F20"/>
<path d="M345.126 179.438H244.126V186.438H345.126V179.438Z" fill="#949598"/>
<path d="M345.126 202.438H244.126V208.437H345.126V202.438Z" fill="#949598"/>
<path d="M345.126 223.438H244.126V228.438H345.126V223.438Z" fill="#949598"/>
<path d="M345.126 246.438H244.126V252.437H345.126V246.438Z" fill="#949598"/>
<path d="M338.126 179.438H244.126V186.438H338.126V179.438Z" fill="#00AEEF"/>
<path d="M319.126 202.438H244.126V208.437H319.126V202.438Z" fill="#00AEEF"/>
<path d="M308.126 223.438H244.126V228.438H308.126V223.438Z" fill="#00AEEF"/>
<path d="M308.126 246.438H244.126V252.437H308.126V246.438Z" fill="#00AEEF"/>
<path d="M347 185C348.105 185 349 184.105 349 183C349 181.895 348.105 181 347 181C345.895 181 345 181.895 345 183C345 184.105 345.895 185 347 185Z" fill="#231F20"/>
<path d="M347.126 207.438C348.231 207.438 349.126 206.542 349.126 205.438C349.126 204.333 348.231 203.438 347.126 203.438C346.021 203.438 345.126 204.333 345.126 205.438C345.126 206.542 346.021 207.438 347.126 207.438Z" fill="#231F20"/>
<path d="M336.237 177.438C337.269 177.438 338.258 177.917 338.987 178.77C339.716 179.623 340.126 180.781 340.126 181.988V182.884C340.126 183.482 340.026 184.074 339.831 184.626C339.636 185.179 339.349 185.681 338.988 186.104C338.627 186.526 338.198 186.862 337.726 187.091C337.254 187.32 336.748 187.438 336.237 187.438C335.828 187.438 335.424 187.343 335.046 187.16C334.668 186.977 334.325 186.708 334.036 186.37C333.747 186.032 333.518 185.63 333.362 185.188C333.206 184.746 333.126 184.272 333.126 183.794V181.078C333.126 180.112 333.454 179.186 334.037 178.504C334.621 177.821 335.412 177.438 336.237 177.438Z" fill="black"/>
<path d="M319.237 200.438C320.269 200.438 321.258 200.869 321.987 201.637C322.716 202.405 323.126 203.446 323.126 204.533V205.339C323.126 205.877 323.026 206.41 322.831 206.907C322.636 207.405 322.349 207.856 321.988 208.237C321.627 208.618 321.198 208.919 320.726 209.125C320.254 209.331 319.748 209.438 319.237 209.438C318.828 209.438 318.424 209.353 318.046 209.188C317.668 209.023 317.325 208.781 317.036 208.477C316.747 208.172 316.518 207.811 316.362 207.413C316.206 207.015 316.126 206.589 316.126 206.158V203.714C316.126 202.845 316.454 202.011 317.037 201.397C317.621 200.783 318.412 200.438 319.237 200.438Z" fill="black"/>
<path d="M311.111 221.438C312.143 221.438 313.132 221.869 313.861 222.637C314.59 223.405 315 224.446 315 225.533V226.339C315 226.877 314.9 227.41 314.705 227.907C314.51 228.405 314.223 228.856 313.862 229.237C313.501 229.618 313.072 229.919 312.6 230.125C312.128 230.331 311.622 230.438 311.111 230.438C310.702 230.438 310.298 230.353 309.92 230.188C309.542 230.023 309.199 229.781 308.91 229.477C308.621 229.172 308.392 228.811 308.236 228.413C308.08 228.015 308 227.589 308 227.158V224.714C308 223.845 308.328 223.011 308.911 222.397C309.495 221.783 310.286 221.438 311.111 221.438Z" fill="black"/>
<path d="M309.111 244.438C310.143 244.438 311.132 244.917 311.861 245.77C312.59 246.623 313 247.781 313 248.988V249.884C313 250.482 312.9 251.074 312.705 251.626C312.51 252.179 312.223 252.681 311.862 253.104C311.501 253.526 311.072 253.862 310.6 254.091C310.128 254.32 309.622 254.438 309.111 254.438C308.702 254.438 308.298 254.343 307.92 254.16C307.542 253.977 307.199 253.708 306.91 253.37C306.621 253.032 306.392 252.63 306.236 252.188C306.08 251.746 306 251.272 306 250.794V248.078C306 247.112 306.328 246.186 306.911 245.504C307.495 244.821 308.286 244.438 309.111 244.438Z" fill="black"/>
<path d="M347.126 228.438C348.231 228.438 349.126 227.318 349.126 225.938C349.126 224.557 348.231 223.438 347.126 223.438C346.021 223.438 345.126 224.557 345.126 225.938C345.126 227.318 346.021 228.438 347.126 228.438Z" fill="#231F20"/>
<path d="M347.126 251.438C348.231 251.438 349.126 250.542 349.126 249.438C349.126 248.333 348.231 247.438 347.126 247.438C346.021 247.438 345.126 248.333 345.126 249.438C345.126 250.542 346.021 251.438 347.126 251.438Z" fill="#231F20"/>
<text fill="#FF0040" xml:space="preserve" style="white-space: pre" font-family="Bahij TheSansArabic" font-size="13" font-weight="500" letter-spacing="0em"><tspan x="75.126" y="187.698">Microsoft Word</tspan></text>
<text fill="#FF0040" xml:space="preserve" style="white-space: pre" font-family="Bahij TheSansArabic" font-size="13" font-weight="500" letter-spacing="0em"><tspan x="76.126" y="210.698">Microsoft Excel</tspan></text>
<text fill="#FF0040" xml:space="preserve" style="white-space: pre" font-family="Bahij TheSansArabic" font-size="13" font-weight="500" letter-spacing="0em"><tspan x="76.126" y="231.698">Microsoft Excel VBA</tspan></text>
<text fill="#FF0040" xml:space="preserve" style="white-space: pre" font-family="Bahij TheSansArabic" font-size="13" font-weight="500" letter-spacing="0em"><tspan x="76.126" y="254.698">Microsoft PowerPoint </tspan></text>
<text fill="#FF0040" xml:space="preserve" style="white-space: pre" font-family="Harmattan" font-size="14" font-weight="500" letter-spacing="-0.05em"><tspan x="76.5078" y="274.881">Fast typing on the keyboard</tspan></text>
<path d="M207.576 300H336.554C337.734 300 338.902 300.232 339.992 300.684C341.082 301.135 342.072 301.797 342.906 302.631C343.74 303.465 344.402 304.455 344.853 305.545C345.305 306.635 345.537 307.803 345.537 308.983V325.152H207.576C204.241 325.152 201.042 323.827 198.683 321.469C196.325 319.11 195 315.911 195 312.576C195 309.241 196.325 306.042 198.683 303.683C201.042 301.325 204.241 300 207.576 300Z" fill="#00AEEF"/>
<text fill="white" xml:space="preserve" style="white-space: pre" font-family="Harmattan" font-size="15" font-weight="bold" letter-spacing="0em"><tspan x="236" y="316.087">Programming</tspan></text>
<text fill="#FF0040" xml:space="preserve" style="white-space: pre" font-family="Bahij TheSansArabic" font-size="13" font-weight="500" letter-spacing="0em"><tspan x="77.0332" y="354.261">DART</tspan></text>
<text fill="#FF0040" xml:space="preserve" style="white-space: pre" font-family="Bahij TheSansArabic" font-size="13" font-weight="500" letter-spacing="0em"><tspan x="83.0762" y="378.261">LUTTER</tspan></text>
<text fill="#00BBFF" xml:space="preserve" style="white-space: pre" font-family="Bahij TheSansArabic" font-size="13" font-weight="500" letter-spacing="0em"><tspan x="77.0332" y="378.261">F</tspan></text>
<text fill="#FF0040" xml:space="preserve" style="white-space: pre" font-family="Bahij TheSansArabic" font-size="13" font-weight="500" letter-spacing="0em"><tspan x="77.0332" y="399.261">C#</tspan></text>
<text fill="#FF0040" xml:space="preserve" style="white-space: pre" font-family="Bahij TheSansArabic" font-size="13" font-weight="500" letter-spacing="0em"><tspan x="77.0332" y="426.261">Visual Basic</tspan></text>
<text fill="#FF0040" xml:space="preserve" style="white-space: pre" font-family="Bahij TheSansArabic" font-size="13" font-weight="500" letter-spacing="0em"><tspan x="77.0332" y="452.261">Python </tspan></text>
<path d="M339.725 344.568H243.725V350.568H339.725V344.568Z" fill="#949598"/>
<path d="M339.725 370.568H243.725V376.568H339.725V370.568Z" fill="#949598"/>
<path d="M339.725 395.568H243.725V401.568H339.725V395.568Z" fill="#949598"/>
<path d="M339.725 419.568H243.725V424.568H339.725V419.568Z" fill="#949598"/>
<path d="M339.725 446.568H243.725V451.568H339.725V446.568Z" fill="#949598"/>
<path d="M298.725 344.568H243.725V350.568H298.725V344.568Z" fill="#00AEEF"/>
<path d="M308.725 370.568H243.725V376.568H308.725V370.568Z" fill="#00AEEF"/>
<path d="M291.725 395.568H243.725V401.568H291.725V395.568Z" fill="#00AEEF"/>
<path d="M293.725 419.568H243.725V424.568H293.725V419.568Z" fill="#00AEEF"/>
<path d="M272.725 446.568H243.725V451.568H272.725V446.568Z" fill="#00AEEF"/>
<path d="M302.725 343.568C304.051 343.568 305.323 343.952 306.261 344.634C307.198 345.317 307.725 346.243 307.725 347.208V347.925C307.726 348.404 307.597 348.877 307.346 349.319C307.095 349.761 306.726 350.163 306.262 350.501C305.798 350.84 305.246 351.108 304.64 351.291C304.033 351.474 303.382 351.568 302.725 351.568C302.2 351.568 301.679 351.493 301.194 351.346C300.708 351.2 300.267 350.985 299.895 350.714C299.524 350.444 299.229 350.122 299.028 349.769C298.828 349.415 298.725 349.036 298.725 348.653V346.481C298.725 345.708 299.147 344.967 299.897 344.421C300.647 343.875 301.664 343.568 302.725 343.568Z" fill="black"/>
<path d="M307.725 369.568C309.051 369.568 310.323 369.952 311.261 370.634C312.198 371.317 312.725 372.243 312.725 373.208V373.925C312.726 374.404 312.597 374.877 312.346 375.319C312.095 375.761 311.726 376.163 311.262 376.501C310.798 376.84 310.246 377.108 309.64 377.291C309.033 377.474 308.382 377.568 307.725 377.568C307.2 377.568 306.679 377.493 306.194 377.346C305.708 377.2 305.267 376.985 304.895 376.714C304.524 376.444 304.229 376.122 304.028 375.769C303.828 375.415 303.725 375.036 303.725 374.653V372.481C303.725 371.708 304.147 370.967 304.897 370.421C305.647 369.875 306.664 369.568 307.725 369.568Z" fill="black"/>
<path d="M286.725 393.568C288.051 393.568 289.323 394 290.261 394.768C291.198 395.536 291.725 396.577 291.725 397.663V398.47C291.726 399.008 291.597 399.541 291.346 400.038C291.095 400.535 290.726 400.987 290.262 401.368C289.798 401.748 289.246 402.05 288.64 402.256C288.033 402.462 287.382 402.568 286.725 402.568C286.2 402.568 285.679 402.484 285.194 402.319C284.708 402.154 284.267 401.912 283.895 401.608C283.524 401.303 283.229 400.941 283.028 400.544C282.828 400.146 282.725 399.719 282.725 399.289V396.845C282.725 395.976 283.147 395.142 283.897 394.528C284.647 393.914 285.664 393.568 286.725 393.568Z" fill="black"/>
<path d="M294.17 417.568C295.643 417.568 297.056 418 298.098 418.768C299.14 419.536 299.725 420.577 299.725 421.663V422.47C299.726 423.008 299.582 423.541 299.303 424.038C299.025 424.535 298.615 424.987 298.1 425.368C297.584 425.748 296.971 426.05 296.297 426.256C295.622 426.462 294.9 426.568 294.17 426.568C293.586 426.568 293.007 426.484 292.468 426.319C291.928 426.154 291.438 425.912 291.025 425.608C290.613 425.303 290.285 424.941 290.062 424.544C289.839 424.146 289.725 423.719 289.725 423.289V420.845C289.725 419.976 290.193 419.142 291.027 418.528C291.86 417.914 292.991 417.568 294.17 417.568Z" fill="black"/>
<path d="M269.725 444.568C271.051 444.568 272.323 445 273.261 445.768C274.198 446.536 274.725 447.577 274.725 448.663V449.47C274.726 450.008 274.597 450.541 274.346 451.038C274.095 451.535 273.726 451.987 273.262 452.368C272.798 452.748 272.246 453.05 271.64 453.256C271.033 453.462 270.382 453.568 269.725 453.568C269.2 453.568 268.679 453.484 268.194 453.319C267.708 453.154 267.267 452.912 266.895 452.608C266.524 452.303 266.229 451.941 266.028 451.544C265.828 451.146 265.725 450.719 265.725 450.289V447.845C265.725 446.976 266.147 446.142 266.897 445.528C267.647 444.914 268.664 444.568 269.725 444.568Z" fill="black"/>
<path d="M344.225 349.568C345.606 349.568 346.725 348.673 346.725 347.568C346.725 346.464 345.606 345.568 344.225 345.568C342.844 345.568 341.725 346.464 341.725 347.568C341.725 348.673 342.844 349.568 344.225 349.568Z" fill="#231F20"/>
<path d="M344.225 375.568C345.606 375.568 346.725 374.673 346.725 373.568C346.725 372.464 345.606 371.568 344.225 371.568C342.844 371.568 341.725 372.464 341.725 373.568C341.725 374.673 342.844 375.568 344.225 375.568Z" fill="#231F20"/>
<path d="M344.225 400.568C345.606 400.568 346.725 399.673 346.725 398.568C346.725 397.464 345.606 396.568 344.225 396.568C342.844 396.568 341.725 397.464 341.725 398.568C341.725 399.673 342.844 400.568 344.225 400.568Z" fill="#231F20"/>
<path d="M344.225 423.568C345.606 423.568 346.725 422.673 346.725 421.568C346.725 420.464 345.606 419.568 344.225 419.568C342.844 419.568 341.725 420.464 341.725 421.568C341.725 422.673 342.844 423.568 344.225 423.568Z" fill="#231F20"/>
<path d="M344.225 450.568C345.606 450.568 346.725 449.673 346.725 448.568C346.725 447.464 345.606 446.568 344.225 446.568C342.844 446.568 341.725 447.464 341.725 448.568C341.725 449.673 342.844 450.568 344.225 450.568Z" fill="#231F20"/>
<path d="M255.995 456.364C255.939 456.11 255.692 455.952 255.462 456.013C255.326 456.074 255.221 456.162 255.162 456.264C255.103 456.366 255.093 456.477 255.134 456.583L255.176 456.771L255.607 456.661L255.18 456.775C255.195 456.852 255.233 456.926 255.292 456.993C255.333 457.045 255.386 457.103 255.444 457.171C255.668 457.405 255.867 457.649 256.039 457.902C256.169 458.124 256.441 458.191 256.644 458.052C256.752 457.961 256.821 457.853 256.846 457.738C256.87 457.624 256.849 457.507 256.785 457.4C256.583 457.092 256.346 456.794 256.075 456.51C256.034 456.465 256.028 456.487 256.019 456.48L255.995 456.364Z" fill="#FFFFFE"/>
<path d="M254.569 457.758C254.513 458.012 254.266 458.17 254.036 458.109C253.482 457.968 253.711 457.284 254.014 456.953C254.238 456.719 254.436 456.475 254.609 456.222C254.739 456 255.011 455.933 255.214 456.072C255.322 456.164 255.391 456.272 255.415 456.386C255.439 456.501 255.419 456.617 255.355 456.724C255.173 457.034 254.598 457.574 254.563 457.758H254.569Z" fill="#FFFFFE"/>
<path d="M345.698 41C349.74 41 353.69 40.2083 357.051 38.7249C360.411 37.2415 363.031 35.133 364.577 32.6662C366.124 30.1994 366.529 27.485 365.74 24.8663C364.952 22.2475 363.005 19.8421 360.147 17.9541C357.29 16.0661 353.649 14.7803 349.685 14.2594C345.721 13.7385 341.612 14.0058 337.878 15.0276C334.144 16.0494 330.952 17.7798 328.707 19.9998C326.462 22.2199 325.263 24.83 325.263 27.5C325.263 31.0804 327.416 34.5142 331.248 37.0459C335.081 39.5777 340.278 41 345.698 41Z" fill="#14903D"/>
<path d="M345.698 40.5C349.59 40.5 353.394 39.7376 356.63 38.3091C359.866 36.8807 362.389 34.8503 363.878 32.4749C365.367 30.0995 365.757 27.4856 364.998 24.9638C364.238 22.4421 362.364 20.1257 359.612 18.3076C356.86 16.4895 353.354 15.2514 349.537 14.7498C345.72 14.2482 341.763 14.5056 338.168 15.4896C334.572 16.4735 331.499 18.1398 329.336 20.2776C327.174 22.4154 326.02 24.9289 326.02 27.5C326.02 30.9478 328.093 34.2544 331.784 36.6924C335.474 39.1304 340.479 40.5 345.698 40.5Z" stroke="#707070"/>
<path d="M337.457 19.9888H358.543C358.976 20.0211 359.373 20.1642 359.648 20.3874C359.923 20.6106 360.054 20.8962 360.014 21.1828V33.8548C360.016 34.0887 359.929 34.3192 359.76 34.5248C359.731 34.5866 359.683 34.644 359.621 34.6938C359.582 34.7245 359.535 34.7508 359.483 34.7718C359.362 34.8565 359.217 34.9244 359.056 34.9718C358.895 35.0198 358.72 35.0457 358.543 35.0478H346.066C346.156 34.746 346.192 34.4382 346.172 34.1308H358.168L350.334 27.4548L347.748 29.2438C347.702 29.277 347.646 29.3036 347.584 29.3218C347.522 29.3403 347.455 29.3498 347.387 29.3498C347.318 29.3498 347.251 29.3403 347.189 29.3218C347.127 29.3036 347.071 29.277 347.025 29.2438L344.313 27.4548L341.852 29.4548C341.526 29.2732 341.144 29.1417 340.732 29.0698L343.435 26.8698L338.422 23.5568C338.401 23.3202 338.343 23.0856 338.249 22.8568L338.048 22.1378L347.374 28.3078L358.071 20.9078H337.719L337.457 19.9888ZM333.219 25.7608C333.452 26.8106 333.855 27.8409 334.421 28.8338C335.056 29.9205 335.95 30.9333 337.068 31.8338C337.103 31.8654 337.148 31.8905 337.202 31.9068C337.255 31.9229 337.313 31.9298 337.371 31.9268C337.555 31.9078 337.729 31.8605 337.88 31.7888C338.068 31.7045 338.246 31.6109 338.413 31.5088C339.21 31.0598 340.191 30.5008 341.027 31.1278C341.043 31.1421 341.06 31.1558 341.078 31.1688L343.732 33.5478C343.741 33.5568 343.75 33.5658 343.757 33.5748C343.913 33.7533 344.011 33.9509 344.045 34.1555C344.08 34.36 344.05 34.5671 343.959 34.7638C343.765 35.2042 343.423 35.6099 342.958 35.9508C342.44 36.3436 341.722 36.5973 340.94 36.6638C340.237 36.7162 339.526 36.6884 338.836 36.5818C337.766 36.4277 336.774 36.0916 335.96 35.6068C335.006 35.0303 334.164 34.3773 333.455 33.6628L333.395 33.6028C333.009 33.2318 332.592 32.8338 332.203 32.3908C330.637 30.5457 329.566 28.5354 329.038 26.4488C328.527 24.745 328.732 22.9812 329.63 21.3488C330.029 20.5859 330.844 19.9487 331.916 19.5618C332.407 19.4175 332.944 19.3539 333.481 19.3765C334.018 19.3992 334.538 19.5073 334.998 19.6918C335.068 19.7181 335.127 19.755 335.172 19.7995C335.216 19.8441 335.243 19.8949 335.252 19.9478L336.194 23.3698C336.281 23.5352 336.309 23.712 336.274 23.8858C336.239 24.0597 336.142 24.2257 335.991 24.3698C335.711 24.6078 335.332 24.7867 334.901 24.8848C334.744 24.9367 334.583 24.9828 334.418 25.0228C333.841 25.1758 333.183 25.3548 333.216 25.7748L333.219 25.7608ZM351.179 26.8608L358.867 33.4018V21.5508L351.191 26.8698L351.179 26.8608Z" fill="white"/>
<path d="M347.999 128.958C351.846 128.958 355.608 128.204 358.807 126.792C362.006 125.38 364.499 123.373 365.972 121.024C367.444 118.676 367.83 116.092 367.079 113.599C366.328 111.106 364.475 108.816 361.755 107.018C359.034 105.221 355.568 103.997 351.794 103.501C348.02 103.005 344.109 103.259 340.554 104.232C336.999 105.205 333.961 106.852 331.823 108.966C329.686 111.079 328.545 113.564 328.545 116.106C328.545 119.514 330.595 122.783 334.243 125.194C337.891 127.604 342.839 128.958 347.999 128.958Z" fill="#00AEEF" stroke="#707070"/>
<path d="M349.385 117.367H349.359L348.465 116.685C349.336 116.908 350.304 116.908 351.176 116.685L350.267 117.367H350.251L352.453 120.885L354.465 119.122L356.696 120.23L358.099 118.84C356.607 117.607 354.551 116.726 352.238 116.33C353.14 115.899 353.88 115.337 354.4 114.687C354.919 114.036 355.205 113.316 355.234 112.581C355.234 111.631 354.663 110.72 353.646 110.049C352.63 109.377 351.251 109 349.814 109C348.377 109 346.998 109.377 345.982 110.049C344.965 110.72 344.394 111.631 344.394 112.581C344.424 113.316 344.71 114.037 345.231 114.687C345.752 115.337 346.492 115.899 347.396 116.33C343.158 117.04 340 119.474 340 121.28C340 122.347 344.907 122.88 349.813 122.88L347.066 121.062L349.385 117.367Z" fill="white"/>
<rect x="408" y="2" width="15" height="476" fill="url(#paint0_linear_0_1)"/>
<rect x="2" y="-2" width="805" height="475" transform="matrix(1 0 0 -1 0 475)" stroke="#01ADED" stroke-width="4"/>
<defs>
<linearGradient id="paint0_linear_0_1" x1="423" y1="240" x2="408" y2="240" gradientUnits="userSpaceOnUse">
<stop offset="0.432692" stop-color="#535353"/>
<stop offset="0.475962"/>
<stop offset="0.476062" stop-color="#00B3FF"/>
</linearGradient>
</defs>
</svg>
