<svg width="809" height="170" viewBox="0 0 809 170" fill="none" xmlns="http://www.w3.org/2000/svg">
<path d="M596.931 21H725.909C727.089 21 728.257 21.2324 729.347 21.6838C730.437 22.1352 731.427 22.7969 732.261 23.6311C733.096 24.4652 733.757 25.4555 734.209 26.5454C734.66 27.6352 734.892 28.8033 734.892 29.983V46.152H596.931C593.596 46.152 590.397 44.827 588.039 42.4686C585.68 40.1101 584.355 36.9114 584.355 33.576C584.355 30.2406 585.68 27.0419 588.039 24.6834C590.397 22.325 593.596 21 596.931 21Z" fill="#00AEEF"/>
<text fill="white" xml:space="preserve" style="white-space: pre" font-family="Harmattan" font-size="15" font-weight="bold" letter-spacing="0em"><tspan x="611.492" y="37.0872">&#x645;&#x647;&#x627;&#x631;&#x629; &#x627;&#x644;&#x62a;&#x635;&#x645;&#x64a;&#x645; &#x627;&#x644;&#x62c;&#x631;&#x627;&#x641;&#x64a;&#x643;</tspan></text>
<path d="M734.684 66.668C736.064 66.668 737.184 65.9964 737.184 65.168C737.184 64.3395 736.064 63.668 734.684 63.668C733.303 63.668 732.184 64.3395 732.184 65.168C732.184 65.9964 733.303 66.668 734.684 66.668Z" fill="#231F20"/>
<path d="M734.684 98.668C736.064 98.668 737.184 97.9964 737.184 97.168C737.184 96.3395 736.064 95.668 734.684 95.668C733.303 95.668 732.184 96.3395 732.184 97.168C732.184 97.9964 733.303 98.668 734.684 98.668Z" fill="#231F20"/>
<path d="M734.684 81.668C736.064 81.668 737.184 80.9964 737.184 80.168C737.184 79.3395 736.064 78.668 734.684 78.668C733.303 78.668 732.184 79.3395 732.184 80.168C732.184 80.9964 733.303 81.668 734.684 81.668Z" fill="#231F20"/>
<path d="M734.684 118.668C736.064 118.668 737.184 117.996 737.184 117.168C737.184 116.34 736.064 115.668 734.684 115.668C733.303 115.668 732.184 116.34 732.184 117.168C732.184 117.996 733.303 118.668 734.684 118.668Z" fill="#231F20"/>
<path d="M734.684 137.668C736.064 137.668 737.184 136.996 737.184 136.168C737.184 135.34 736.064 134.668 734.684 134.668C733.303 134.668 732.184 135.34 732.184 136.168C732.184 136.996 733.303 137.668 734.684 137.668Z" fill="#231F20"/>
<path d="M734.684 155.668C736.064 155.668 737.184 154.996 737.184 154.168C737.184 153.34 736.064 152.668 734.684 152.668C733.303 152.668 732.184 153.34 732.184 154.168C732.184 154.996 733.303 155.668 734.684 155.668Z" fill="#231F20"/>
<path d="M730.184 94.668H634.184V99.668H730.184V94.668Z" fill="#949598"/>
<path d="M730.184 77.668H634.184V82.668H730.184V77.668Z" fill="#949598"/>
<path d="M730.184 114.668H634.184V119.668H730.184V114.668Z" fill="#949598"/>
<path d="M730.184 133.668H634.184V138.668H730.184V133.668Z" fill="#949598"/>
<path d="M730.184 151.668H634.184V156.668H730.184V151.668Z" fill="#949598"/>
<path d="M730.184 61.668H634.184V66.668H730.184V61.668Z" fill="#949598"/>
<path d="M713.184 94.668H634.184V99.668H713.184V94.668Z" fill="#00AEEF"/>
<path d="M713.184 77.668H634.184V82.668H713.184V77.668Z" fill="#00AEEF"/>
<path d="M722.184 77.668H634.184V82.668H722.184V77.668Z" fill="#00AEEF"/>
<path d="M696.184 114.668H634.184V119.668H696.184V114.668Z" fill="#00AEEF"/>
<path d="M712.184 133.668H634.184V138.668H712.184V133.668Z" fill="#00AEEF"/>
<path d="M712.184 151.668H634.184V156.668H712.184V151.668Z" fill="#00AEEF"/>
<path d="M711.184 61.668H634.184V66.668H711.184V61.668Z" fill="#00AEEF"/>
<path d="M710.628 93.668C712.102 93.668 713.515 94.0515 714.556 94.7341C715.598 95.4167 716.184 96.3426 716.184 97.308V98.025C716.184 98.5033 716.041 98.9769 715.762 99.4189C715.483 99.8609 715.074 100.262 714.558 100.601C714.042 100.939 713.429 101.208 712.755 101.391C712.081 101.574 711.358 101.668 710.628 101.668C710.044 101.668 709.466 101.593 708.926 101.446C708.387 101.299 707.897 101.085 707.484 100.814C707.071 100.543 706.744 100.222 706.521 99.8682C706.298 99.5145 706.183 99.1355 706.184 98.7528V96.5802C706.184 95.8078 706.652 95.0671 707.485 94.5209C708.319 93.9748 709.449 93.668 710.628 93.668Z" fill="black"/>
<path d="M724.184 76.668C725.51 76.668 726.782 77.0515 727.719 77.7341C728.657 78.4167 729.184 79.3426 729.184 80.308V81.025C729.184 81.5033 729.055 81.9769 728.804 82.4189C728.553 82.8609 728.185 83.2625 727.721 83.6008C727.256 83.9391 726.705 84.2075 726.098 84.3906C725.491 84.5737 724.841 84.668 724.184 84.668C723.658 84.668 723.138 84.5925 722.652 84.446C722.166 84.2995 721.725 84.0847 721.354 83.814C720.982 83.5432 720.688 83.2219 720.487 82.8682C720.286 82.5145 720.183 82.1355 720.184 81.7528V79.5802C720.184 78.8078 720.605 78.0671 721.355 77.5209C722.105 76.9748 723.123 76.668 724.184 76.668Z" fill="black"/>
<path d="M695.628 113.668C697.102 113.668 698.515 114.051 699.556 114.734C700.598 115.417 701.184 116.343 701.184 117.308V118.025C701.184 118.503 701.041 118.977 700.762 119.419C700.483 119.861 700.074 120.262 699.558 120.601C699.042 120.939 698.429 121.208 697.755 121.391C697.081 121.574 696.358 121.668 695.628 121.668C695.044 121.668 694.466 121.593 693.926 121.446C693.387 121.299 692.897 121.085 692.484 120.814C692.071 120.543 691.744 120.222 691.521 119.868C691.298 119.515 691.183 119.136 691.184 118.753V116.58C691.184 115.808 691.652 115.067 692.485 114.521C693.319 113.975 694.449 113.668 695.628 113.668Z" fill="black"/>
<path d="M712.184 132.668C713.51 132.668 714.782 133.051 715.719 133.734C716.657 134.417 717.184 135.343 717.184 136.308V137.025C717.184 137.503 717.055 137.977 716.804 138.419C716.553 138.861 716.185 139.262 715.721 139.601C715.256 139.939 714.705 140.208 714.098 140.391C713.491 140.574 712.841 140.668 712.184 140.668C711.658 140.668 711.138 140.593 710.652 140.446C710.166 140.299 709.725 140.085 709.354 139.814C708.982 139.543 708.688 139.222 708.487 138.868C708.286 138.515 708.183 138.136 708.184 137.753V135.58C708.184 134.808 708.605 134.067 709.355 133.521C710.105 132.975 711.123 132.668 712.184 132.668Z" fill="black"/>
<path d="M712.184 150.668C713.51 150.668 714.782 151.051 715.719 151.734C716.657 152.417 717.184 153.343 717.184 154.308V155.025C717.184 155.503 717.055 155.977 716.804 156.419C716.553 156.861 716.185 157.262 715.721 157.601C715.256 157.939 714.705 158.208 714.098 158.391C713.491 158.574 712.841 158.668 712.184 158.668C711.658 158.668 711.138 158.593 710.652 158.446C710.166 158.299 709.725 158.085 709.354 157.814C708.982 157.543 708.688 157.222 708.487 156.868C708.286 156.515 708.183 156.136 708.184 155.753V153.58C708.184 152.808 708.605 152.067 709.355 151.521C710.105 150.975 711.123 150.668 712.184 150.668Z" fill="black"/>
<path d="M706.628 60.668C708.102 60.668 709.515 61.0515 710.556 61.7341C711.598 62.4167 712.184 63.3426 712.184 64.308V65.025C712.184 65.5033 712.041 65.9769 711.762 66.4189C711.483 66.8609 711.074 67.2625 710.558 67.6008C710.042 67.9391 709.429 68.2075 708.755 68.3906C708.081 68.5737 707.358 68.668 706.628 68.668C706.044 68.668 705.466 68.5925 704.926 68.446C704.387 68.2995 703.897 68.0847 703.484 67.814C703.071 67.5432 702.744 67.2219 702.521 66.8682C702.298 66.5145 702.183 66.1355 702.184 65.7528V63.5802C702.184 62.8078 702.652 62.0671 703.485 61.5209C704.319 60.9748 705.449 60.668 706.628 60.668Z" fill="black"/>
<path d="M730.184 151.668H634.184V156.668H730.184V151.668Z" fill="#949598"/>
<path d="M712.184 151.668H634.184V156.668H712.184V151.668Z" fill="#00AEEF"/>
<path d="M712.184 150.668C713.51 150.668 714.782 151.051 715.719 151.734C716.657 152.417 717.184 153.343 717.184 154.308V155.025C717.184 155.503 717.055 155.977 716.804 156.419C716.553 156.861 716.185 157.262 715.721 157.601C715.256 157.939 714.705 158.208 714.098 158.391C713.491 158.574 712.841 158.668 712.184 158.668C711.658 158.668 711.138 158.593 710.652 158.446C710.166 158.299 709.725 158.085 709.354 157.814C708.982 157.543 708.688 157.222 708.487 156.868C708.286 156.515 708.183 156.136 708.184 155.753V153.58C708.184 152.808 708.605 152.067 709.355 151.521C710.105 150.975 711.123 150.668 712.184 150.668Z" fill="black"/>
<text fill="#FF0040" xml:space="preserve" style="white-space: pre" font-family="Bahij TheSansArabic" font-size="13" font-weight="500" letter-spacing="0em"><tspan x="469.492" y="102.261">Adobe InDesign</tspan></text>
<text fill="#FF0040" xml:space="preserve" style="white-space: pre" font-family="Bahij TheSansArabic" font-size="13" font-weight="500" letter-spacing="0em"><tspan x="469.492" y="121.261">Adobe Illustrator</tspan></text>
<text fill="#FF0040" xml:space="preserve" style="white-space: pre" font-family="Bahij TheSansArabic" font-size="13" font-weight="500" letter-spacing="0em"><tspan x="468.492" y="139.261"> Luminar Neo AI</tspan></text>
<text fill="#FF0040" xml:space="preserve" style="white-space: pre" font-family="Bahij TheSansArabic" font-size="13" font-weight="500" letter-spacing="0em"><tspan x="469.492" y="157.261">Adobe XD</tspan></text>
<text fill="#FF0040" xml:space="preserve" style="white-space: pre" font-family="Bahij TheSansArabic" font-size="13" font-weight="500" letter-spacing="0em"><tspan x="469.492" y="84.261">topaz Photo AI</tspan></text>
<text fill="#FF0040" xml:space="preserve" style="white-space: pre" font-family="Bahij TheSansArabic" font-size="13" font-weight="500" letter-spacing="0em"><tspan x="467.492" y="67.261">Adobe Photoshop</tspan></text>
<path d="M622.492 65H575.492V64H622.492V65Z" fill="#00AEEF"/>
<path d="M622.492 81H575.492V80H622.492V81Z" fill="#00AEEF"/>
<path d="M622.492 118H575.492V117H622.492V118Z" fill="#00AEEF"/>
<path d="M622.492 136H575.492V135H622.492V136Z" fill="#00AEEF"/>
<path d="M622.492 155H575.492V154H622.492V155Z" fill="#00AEEF"/>
<path d="M622.492 99H575.492V98H622.492V99Z" fill="#00AEEF"/>
<path d="M772.492 27L772.492 88" stroke="white"/>
<path d="M206.439 21H335.417C336.597 21 337.765 21.2324 338.855 21.6838C339.945 22.1352 340.935 22.7969 341.769 23.6311C342.603 24.4652 343.265 25.4555 343.716 26.5454C344.168 27.6352 344.4 28.8033 344.4 29.983V46.152H206.439C203.104 46.152 199.905 44.827 197.547 42.4686C195.188 40.1101 193.863 36.9114 193.863 33.576C193.863 30.2406 195.188 27.0419 197.547 24.6834C199.905 22.325 203.104 21 206.439 21Z" fill="#00AEEF"/>
<text fill="white" xml:space="preserve" style="white-space: pre" font-family="Harmattan" font-size="15" font-weight="bold" letter-spacing="0em"><tspan x="221" y="37.0872">graphic design skill</tspan></text>
<path d="M344.191 66.668C345.572 66.668 346.691 65.9964 346.691 65.168C346.691 64.3395 345.572 63.668 344.191 63.668C342.811 63.668 341.691 64.3395 341.691 65.168C341.691 65.9964 342.811 66.668 344.191 66.668Z" fill="#231F20"/>
<path d="M344.191 98.668C345.572 98.668 346.691 97.9964 346.691 97.168C346.691 96.3395 345.572 95.668 344.191 95.668C342.811 95.668 341.691 96.3395 341.691 97.168C341.691 97.9964 342.811 98.668 344.191 98.668Z" fill="#231F20"/>
<path d="M344.191 81.668C345.572 81.668 346.691 80.9964 346.691 80.168C346.691 79.3395 345.572 78.668 344.191 78.668C342.811 78.668 341.691 79.3395 341.691 80.168C341.691 80.9964 342.811 81.668 344.191 81.668Z" fill="#231F20"/>
<path d="M344.191 118.668C345.572 118.668 346.691 117.996 346.691 117.168C346.691 116.34 345.572 115.668 344.191 115.668C342.811 115.668 341.691 116.34 341.691 117.168C341.691 117.996 342.811 118.668 344.191 118.668Z" fill="#231F20"/>
<path d="M344.191 137.668C345.572 137.668 346.691 136.996 346.691 136.168C346.691 135.34 345.572 134.668 344.191 134.668C342.811 134.668 341.691 135.34 341.691 136.168C341.691 136.996 342.811 137.668 344.191 137.668Z" fill="#231F20"/>
<path d="M344.191 155.668C345.572 155.668 346.691 154.996 346.691 154.168C346.691 153.34 345.572 152.668 344.191 152.668C342.811 152.668 341.691 153.34 341.691 154.168C341.691 154.996 342.811 155.668 344.191 155.668Z" fill="#231F20"/>
<path d="M339.691 94.668H243.691V99.668H339.691V94.668Z" fill="#949598"/>
<path d="M339.691 77.668H243.691V82.668H339.691V77.668Z" fill="#949598"/>
<path d="M339.691 114.668H243.691V119.668H339.691V114.668Z" fill="#949598"/>
<path d="M339.691 133.668H243.691V138.668H339.691V133.668Z" fill="#949598"/>
<path d="M339.691 151.668H243.691V156.668H339.691V151.668Z" fill="#949598"/>
<path d="M339.691 61.668H243.691V66.668H339.691V61.668Z" fill="#949598"/>
<path d="M322.691 94.668H243.691V99.668H322.691V94.668Z" fill="#00AEEF"/>
<path d="M322.691 77.668H243.691V82.668H322.691V77.668Z" fill="#00AEEF"/>
<path d="M331.691 77.668H243.691V82.668H331.691V77.668Z" fill="#00AEEF"/>
<path d="M305.691 114.668H243.691V119.668H305.691V114.668Z" fill="#00AEEF"/>
<path d="M321.691 133.668H243.691V138.668H321.691V133.668Z" fill="#00AEEF"/>
<path d="M321.691 151.668H243.691V156.668H321.691V151.668Z" fill="#00AEEF"/>
<path d="M320.691 61.668H243.691V66.668H320.691V61.668Z" fill="#00AEEF"/>
<path d="M320.136 93.668C321.609 93.668 323.022 94.0515 324.064 94.7341C325.106 95.4167 325.691 96.3426 325.691 97.308V98.025C325.692 98.5033 325.549 98.9769 325.27 99.4189C324.991 99.8609 324.582 100.262 324.066 100.601C323.55 100.939 322.937 101.208 322.263 101.391C321.589 101.574 320.866 101.668 320.136 101.668C319.552 101.668 318.974 101.593 318.434 101.446C317.895 101.299 317.404 101.085 316.992 100.814C316.579 100.543 316.252 100.222 316.028 99.8682C315.805 99.5145 315.691 99.1355 315.691 98.7528V96.5802C315.691 95.8078 316.16 95.0671 316.993 94.5209C317.827 93.9748 318.957 93.668 320.136 93.668Z" fill="black"/>
<path d="M333.692 76.668C335.018 76.668 336.289 77.0515 337.227 77.7341C338.165 78.4167 338.691 79.3426 338.691 80.308V81.025C338.692 81.5033 338.563 81.9769 338.312 82.4189C338.061 82.8609 337.693 83.2625 337.228 83.6008C336.764 83.9391 336.213 84.2075 335.606 84.3906C334.999 84.5737 334.348 84.668 333.692 84.668C333.166 84.668 332.645 84.5925 332.16 84.446C331.674 84.2995 331.233 84.0847 330.862 83.814C330.49 83.5432 330.196 83.2219 329.995 82.8682C329.794 82.5145 329.691 82.1355 329.691 81.7528V79.5802C329.691 78.8078 330.113 78.0671 330.863 77.5209C331.613 76.9748 332.631 76.668 333.692 76.668Z" fill="black"/>
<path d="M305.136 113.668C306.609 113.668 308.022 114.051 309.064 114.734C310.106 115.417 310.691 116.343 310.691 117.308V118.025C310.692 118.503 310.549 118.977 310.27 119.419C309.991 119.861 309.582 120.262 309.066 120.601C308.55 120.939 307.937 121.208 307.263 121.391C306.589 121.574 305.866 121.668 305.136 121.668C304.552 121.668 303.974 121.593 303.434 121.446C302.895 121.299 302.404 121.085 301.992 120.814C301.579 120.543 301.252 120.222 301.028 119.868C300.805 119.515 300.691 119.136 300.691 118.753V116.58C300.691 115.808 301.16 115.067 301.993 114.521C302.827 113.975 303.957 113.668 305.136 113.668Z" fill="black"/>
<path d="M321.692 132.668C323.018 132.668 324.289 133.051 325.227 133.734C326.165 134.417 326.691 135.343 326.691 136.308V137.025C326.692 137.503 326.563 137.977 326.312 138.419C326.061 138.861 325.693 139.262 325.228 139.601C324.764 139.939 324.213 140.208 323.606 140.391C322.999 140.574 322.348 140.668 321.692 140.668C321.166 140.668 320.645 140.593 320.16 140.446C319.674 140.299 319.233 140.085 318.862 139.814C318.49 139.543 318.196 139.222 317.995 138.868C317.794 138.515 317.691 138.136 317.691 137.753V135.58C317.691 134.808 318.113 134.067 318.863 133.521C319.613 132.975 320.631 132.668 321.692 132.668Z" fill="black"/>
<path d="M321.692 150.668C323.018 150.668 324.289 151.051 325.227 151.734C326.165 152.417 326.691 153.343 326.691 154.308V155.025C326.692 155.503 326.563 155.977 326.312 156.419C326.061 156.861 325.693 157.262 325.228 157.601C324.764 157.939 324.213 158.208 323.606 158.391C322.999 158.574 322.348 158.668 321.692 158.668C321.166 158.668 320.645 158.593 320.16 158.446C319.674 158.299 319.233 158.085 318.862 157.814C318.49 157.543 318.196 157.222 317.995 156.868C317.794 156.515 317.691 156.136 317.691 155.753V153.58C317.691 152.808 318.113 152.067 318.863 151.521C319.613 150.975 320.631 150.668 321.692 150.668Z" fill="black"/>
<path d="M316.136 60.668C317.609 60.668 319.022 61.0515 320.064 61.7341C321.106 62.4167 321.691 63.3426 321.691 64.308V65.025C321.692 65.5033 321.549 65.9769 321.27 66.4189C320.991 66.8609 320.582 67.2625 320.066 67.6008C319.55 67.9391 318.937 68.2075 318.263 68.3906C317.589 68.5737 316.866 68.668 316.136 68.668C315.552 68.668 314.974 68.5925 314.434 68.446C313.895 68.2995 313.404 68.0847 312.992 67.814C312.579 67.5432 312.252 67.2219 312.028 66.8682C311.805 66.5145 311.691 66.1355 311.691 65.7528V63.5802C311.691 62.8078 312.16 62.0671 312.993 61.5209C313.827 60.9748 314.957 60.668 316.136 60.668Z" fill="black"/>
<path d="M339.691 151.668H243.691V156.668H339.691V151.668Z" fill="#949598"/>
<path d="M321.691 151.668H243.691V156.668H321.691V151.668Z" fill="#00AEEF"/>
<path d="M321.692 150.668C323.018 150.668 324.289 151.051 325.227 151.734C326.165 152.417 326.691 153.343 326.691 154.308V155.025C326.692 155.503 326.563 155.977 326.312 156.419C326.061 156.861 325.693 157.262 325.228 157.601C324.764 157.939 324.213 158.208 323.606 158.391C322.999 158.574 322.348 158.668 321.692 158.668C321.166 158.668 320.645 158.593 320.16 158.446C319.674 158.299 319.233 158.085 318.862 157.814C318.49 157.543 318.196 157.222 317.995 156.868C317.794 156.515 317.691 156.136 317.691 155.753V153.58C317.691 152.808 318.113 152.067 318.863 151.521C319.613 150.975 320.631 150.668 321.692 150.668Z" fill="black"/>
<text fill="#FF0040" xml:space="preserve" style="white-space: pre" font-family="Bahij TheSansArabic" font-size="13" font-weight="500" letter-spacing="0em"><tspan x="79" y="102.261">Adobe InDesign</tspan></text>
<text fill="#FF0040" xml:space="preserve" style="white-space: pre" font-family="Bahij TheSansArabic" font-size="13" font-weight="500" letter-spacing="0em"><tspan x="79" y="121.261">Adobe Illustrator</tspan></text>
<text fill="#FF0040" xml:space="preserve" style="white-space: pre" font-family="Bahij TheSansArabic" font-size="13" font-weight="500" letter-spacing="0em"><tspan x="78" y="139.261"> Luminar Neo AI</tspan></text>
<text fill="#FF0040" xml:space="preserve" style="white-space: pre" font-family="Bahij TheSansArabic" font-size="13" font-weight="500" letter-spacing="0em"><tspan x="79" y="157.261">Adobe XD</tspan></text>
<text fill="#FF0040" xml:space="preserve" style="white-space: pre" font-family="Bahij TheSansArabic" font-size="13" font-weight="500" letter-spacing="0em"><tspan x="79" y="84.261">topaz Photo AI</tspan></text>
<text fill="#FF0040" xml:space="preserve" style="white-space: pre" font-family="Bahij TheSansArabic" font-size="13" font-weight="500" letter-spacing="0em"><tspan x="77" y="67.261">Adobe Photoshop</tspan></text>
<path d="M232 65H185V64H232V65Z" fill="#00AEEF"/>
<path d="M232 81H185V80H232V81Z" fill="#00AEEF"/>
<path d="M232 118H185V117H232V118Z" fill="#00AEEF"/>
<path d="M232 136H185V135H232V136Z" fill="#00AEEF"/>
<path d="M232 155H185V154H232V155Z" fill="#00AEEF"/>
<path d="M232 99H185V98H232V99Z" fill="#00AEEF"/>
<rect x="408" y="15" width="15" height="155" fill="url(#paint0_linear_123_2779)"/>
<defs>
<linearGradient id="paint0_linear_123_2779" x1="423" y1="92.5" x2="408" y2="92.5" gradientUnits="userSpaceOnUse">
<stop offset="0.432692" stop-color="#535353"/>
<stop offset="0.475962"/>
<stop offset="0.476062" stop-color="#00B3FF"/>
</linearGradient>
</defs>
</svg>
