<svg width="809" height="186" viewBox="0 0 809 186" fill="none" xmlns="http://www.w3.org/2000/svg">
<path d="M578.815 36H725.325C726.665 36 727.992 36.2309 729.23 36.6797C730.468 37.1284 731.593 37.7861 732.541 38.6152C733.488 39.4443 734.24 40.4286 734.753 41.5118C735.265 42.5951 735.529 43.7562 735.529 44.9287V61H578.815C575.026 61 571.392 59.683 568.713 57.3388C566.034 54.9946 564.529 51.8152 564.529 48.5C564.529 45.1848 566.034 42.0054 568.713 39.6612C571.392 37.317 575.026 36 578.815 36Z" fill="#00AEEF"/>
<text fill="white" xml:space="preserve" style="white-space: pre" font-family="Harmattan" font-size="15" font-weight="bold" letter-spacing="0em"><tspan x="581.492" y="53.0872">&#x627;&#x62a;&#x642;&#x627;&#x646; &#x62a;&#x635;&#x645;&#x64a;&#x645; &#x627;&#x644;&#x645;&#x62d;&#x62a;&#x648;&#x649; &#x627;&#x644;&#x62a;&#x641;&#x627;&#x639;&#x644;&#x64a;</tspan></text>
<path d="M735.32 89.0996C736.701 89.0996 737.82 88.2042 737.82 87.0996C737.82 85.995 736.701 85.0996 735.32 85.0996C733.94 85.0996 732.82 85.995 732.82 87.0996C732.82 88.2042 733.94 89.0996 735.32 89.0996Z" fill="#231F20"/>
<path d="M735.32 119.1C736.701 119.1 737.82 118.204 737.82 117.1C737.82 115.995 736.701 115.1 735.32 115.1C733.94 115.1 732.82 115.995 732.82 117.1C732.82 118.204 733.94 119.1 735.32 119.1Z" fill="#231F20"/>
<path d="M735.32 141.1C736.701 141.1 737.82 140.204 737.82 139.1C737.82 137.995 736.701 137.1 735.32 137.1C733.94 137.1 732.82 137.995 732.82 139.1C732.82 140.204 733.94 141.1 735.32 141.1Z" fill="#231F20"/>
<path d="M735.32 161.1C736.701 161.1 737.82 160.204 737.82 159.1C737.82 157.995 736.701 157.1 735.32 157.1C733.94 157.1 732.82 157.995 732.82 159.1C732.82 160.204 733.94 161.1 735.32 161.1Z" fill="#231F20"/>
<path d="M731.82 114.1H634.82V120.1H731.82V114.1Z" fill="#949598"/>
<path d="M731.82 136.1H634.82V142.1H731.82V136.1Z" fill="#949598"/>
<path d="M731.82 156.1H634.82V162.1H731.82V156.1Z" fill="#949598"/>
<path d="M731.82 83.0996H634.82V89.0996H731.82V83.0996Z" fill="#949598"/>
<path d="M726.82 114.1H634.82V120.1H726.82V114.1Z" fill="#00AEEF"/>
<path d="M687.82 136.1H634.82V142.1H687.82V136.1Z" fill="#00AEEF"/>
<path d="M687.82 156.1H634.82V162.1H687.82V156.1Z" fill="#00AEEF"/>
<path d="M704.82 83.0996H634.82V89.0996H704.82V83.0996Z" fill="#00AEEF"/>
<path d="M724.265 113.1C725.738 113.1 727.151 113.483 728.193 114.166C729.235 114.848 729.82 115.774 729.82 116.74V117.457C729.821 117.935 729.678 118.409 729.399 118.851C729.12 119.293 728.711 119.694 728.195 120.032C727.679 120.371 727.066 120.639 726.392 120.822C725.718 121.005 724.995 121.1 724.265 121.1C723.681 121.1 723.103 121.024 722.563 120.878C722.023 120.731 721.533 120.516 721.121 120.246C720.708 119.975 720.38 119.653 720.157 119.3C719.934 118.946 719.82 118.567 719.82 118.184V116.012C719.82 115.239 720.289 114.499 721.122 113.953C721.956 113.406 723.086 113.1 724.265 113.1Z" fill="black"/>
<path d="M686.82 135.1C688.147 135.1 689.418 135.483 690.356 136.166C691.294 136.848 691.82 137.774 691.82 138.74V139.457C691.821 139.935 691.692 140.409 691.441 140.851C691.19 141.293 690.822 141.694 690.357 142.032C689.893 142.371 689.342 142.639 688.735 142.822C688.128 143.005 687.477 143.1 686.82 143.1C686.295 143.1 685.774 143.024 685.289 142.878C684.803 142.731 684.362 142.516 683.991 142.246C683.619 141.975 683.324 141.653 683.124 141.3C682.923 140.946 682.82 140.567 682.82 140.184V138.012C682.82 137.239 683.242 136.499 683.992 135.953C684.742 135.406 685.76 135.1 686.82 135.1Z" fill="black"/>
<path d="M686.82 155.1C688.147 155.1 689.418 155.483 690.356 156.166C691.294 156.848 691.82 157.774 691.82 158.74V159.457C691.821 159.935 691.692 160.409 691.441 160.851C691.19 161.293 690.822 161.694 690.357 162.032C689.893 162.371 689.342 162.639 688.735 162.822C688.128 163.005 687.477 163.1 686.82 163.1C686.295 163.1 685.774 163.024 685.289 162.878C684.803 162.731 684.362 162.516 683.991 162.246C683.619 161.975 683.324 161.653 683.124 161.3C682.923 160.946 682.82 160.567 682.82 160.184V158.012C682.82 157.239 683.242 156.499 683.992 155.953C684.742 155.406 685.76 155.1 686.82 155.1Z" fill="black"/>
<path d="M700.82 82.0996C702.147 82.0996 703.418 82.4831 704.356 83.1657C705.294 83.8484 705.82 84.7742 705.82 85.7396V86.4567C705.821 86.9349 705.692 87.4086 705.441 87.8505C705.19 88.2925 704.822 88.6941 704.357 89.0324C703.893 89.3708 703.342 89.6391 702.735 89.8223C702.128 90.0054 701.477 90.0996 700.82 90.0996C700.295 90.0996 699.774 90.0242 699.289 89.8777C698.803 89.7311 698.362 89.5163 697.991 89.2456C697.619 88.9749 697.324 88.6535 697.124 88.2998C696.923 87.9462 696.82 87.5672 696.82 87.1845V85.0118C696.82 84.2394 697.242 83.4987 697.992 82.9526C698.742 82.4064 699.76 82.0996 700.82 82.0996Z" fill="black"/>
<text fill="#FF0040" xml:space="preserve" style="white-space: pre" font-family="Bahij TheSansArabic" font-size="13" font-weight="500" letter-spacing="0em"><tspan x="467.492" y="120.261">Microsoft PowerPoint</tspan></text>
<text fill="#FF0040" xml:space="preserve" style="white-space: pre" font-family="Bahij TheSansArabic" font-size="13" font-weight="500" letter-spacing="0em"><tspan x="467.492" y="139.261">Adobe Premiere Pro</tspan></text>
<text fill="#FF0040" xml:space="preserve" style="white-space: pre" font-family="Bahij TheSansArabic" font-size="13" font-weight="500" letter-spacing="0em"><tspan x="467.492" y="158.261">Adobe Audition</tspan></text>
<text fill="#FF0040" xml:space="preserve" style="white-space: pre" font-family="Bahij TheSansArabic" font-size="13" font-weight="500" letter-spacing="0em"><tspan x="470.492" y="84.261">Articulate Storyline</tspan></text>
<text fill="black" xml:space="preserve" style="white-space: pre" font-family="Bahij TheSansArabic" font-size="7" font-weight="500" letter-spacing="0em"><tspan x="471.572" y="93.5251">Quizzes &#38; Assessments</tspan></text>
<text fill="black" xml:space="preserve" style="white-space: pre" font-family="Harmattan" font-size="7" font-weight="500" letter-spacing="0em"><tspan x="467.492" y="167.441">&#x625;&#x632;&#x627;&#x644;&#x629; &#x627;&#x644;&#x636;&#x648;&#x636;&#x627;&#x621; &#x648;&#x627;&#x644;&#x62a;&#x634;&#x648;&#x64a;&#x634;</tspan></text>
<rect x="408" y="23" width="15" height="162" fill="url(#paint0_linear_123_2780)"/>
<path d="M128.716 36H330.917C332.767 36 334.598 36.2309 336.306 36.6797C338.015 37.1284 339.568 37.7861 340.875 38.6152C342.183 39.4443 343.22 40.4286 343.928 41.5118C344.636 42.5951 345 43.7562 345 44.9287V61H128.716C123.487 61 118.472 59.683 114.775 57.3388C111.077 54.9946 109 51.8152 109 48.5C109 45.1848 111.077 42.0054 114.775 39.6612C118.472 37.317 123.487 36 128.716 36Z" fill="#00AEEF"/>
<text fill="white" xml:space="preserve" style="white-space: pre" font-family="Harmattan" font-size="15" font-weight="bold" letter-spacing="0em"><tspan x="128" y="52.0872">Mastering interactive content design</tspan></text>
<path d="M344.828 89.0996C346.209 89.0996 347.328 88.2042 347.328 87.0996C347.328 85.995 346.209 85.0996 344.828 85.0996C343.447 85.0996 342.328 85.995 342.328 87.0996C342.328 88.2042 343.447 89.0996 344.828 89.0996Z" fill="#231F20"/>
<path d="M344.828 119.1C346.209 119.1 347.328 118.204 347.328 117.1C347.328 115.995 346.209 115.1 344.828 115.1C343.447 115.1 342.328 115.995 342.328 117.1C342.328 118.204 343.447 119.1 344.828 119.1Z" fill="#231F20"/>
<path d="M344.828 141.1C346.209 141.1 347.328 140.204 347.328 139.1C347.328 137.995 346.209 137.1 344.828 137.1C343.447 137.1 342.328 137.995 342.328 139.1C342.328 140.204 343.447 141.1 344.828 141.1Z" fill="#231F20"/>
<path d="M344.828 161.1C346.209 161.1 347.328 160.204 347.328 159.1C347.328 157.995 346.209 157.1 344.828 157.1C343.447 157.1 342.328 157.995 342.328 159.1C342.328 160.204 343.447 161.1 344.828 161.1Z" fill="#231F20"/>
<path d="M341.328 114.1H244.328V120.1H341.328V114.1Z" fill="#949598"/>
<path d="M341.328 136.1H244.328V142.1H341.328V136.1Z" fill="#949598"/>
<path d="M341.328 156.1H244.328V162.1H341.328V156.1Z" fill="#949598"/>
<path d="M341.328 83.0996H244.328V89.0996H341.328V83.0996Z" fill="#949598"/>
<path d="M336.328 114.1H244.328V120.1H336.328V114.1Z" fill="#00AEEF"/>
<path d="M297.328 136.1H244.328V142.1H297.328V136.1Z" fill="#00AEEF"/>
<path d="M297.328 156.1H244.328V162.1H297.328V156.1Z" fill="#00AEEF"/>
<path d="M314.328 83.0996H244.328V89.0996H314.328V83.0996Z" fill="#00AEEF"/>
<path d="M333.773 113.1C335.246 113.1 336.659 113.483 337.701 114.166C338.743 114.848 339.328 115.774 339.328 116.74V117.457C339.329 117.935 339.185 118.409 338.907 118.851C338.628 119.293 338.218 119.694 337.703 120.032C337.187 120.371 336.574 120.639 335.9 120.822C335.225 121.005 334.503 121.1 333.773 121.1C333.189 121.1 332.61 121.024 332.071 120.878C331.531 120.731 331.041 120.516 330.628 120.246C330.216 119.975 329.888 119.653 329.665 119.3C329.442 118.946 329.328 118.567 329.328 118.184V116.012C329.328 115.239 329.796 114.499 330.63 113.953C331.463 113.406 332.594 113.1 333.773 113.1Z" fill="black"/>
<path d="M296.328 135.1C297.654 135.1 298.926 135.483 299.864 136.166C300.801 136.848 301.328 137.774 301.328 138.74V139.457C301.329 139.935 301.2 140.409 300.949 140.851C300.698 141.293 300.329 141.694 299.865 142.032C299.401 142.371 298.849 142.639 298.243 142.822C297.636 143.005 296.985 143.1 296.328 143.1C295.803 143.1 295.282 143.024 294.797 142.878C294.311 142.731 293.87 142.516 293.498 142.246C293.127 141.975 292.832 141.653 292.631 141.3C292.431 140.946 292.328 140.567 292.328 140.184V138.012C292.328 137.239 292.75 136.499 293.5 135.953C294.25 135.406 295.267 135.1 296.328 135.1Z" fill="black"/>
<path d="M296.328 155.1C297.654 155.1 298.926 155.483 299.864 156.166C300.801 156.848 301.328 157.774 301.328 158.74V159.457C301.329 159.935 301.2 160.409 300.949 160.851C300.698 161.293 300.329 161.694 299.865 162.032C299.401 162.371 298.849 162.639 298.243 162.822C297.636 163.005 296.985 163.1 296.328 163.1C295.803 163.1 295.282 163.024 294.797 162.878C294.311 162.731 293.87 162.516 293.498 162.246C293.127 161.975 292.832 161.653 292.631 161.3C292.431 160.946 292.328 160.567 292.328 160.184V158.012C292.328 157.239 292.75 156.499 293.5 155.953C294.25 155.406 295.267 155.1 296.328 155.1Z" fill="black"/>
<path d="M310.328 82.0996C311.654 82.0996 312.926 82.4831 313.864 83.1657C314.801 83.8484 315.328 84.7742 315.328 85.7396V86.4567C315.329 86.9349 315.2 87.4086 314.949 87.8505C314.698 88.2925 314.329 88.6941 313.865 89.0324C313.401 89.3708 312.849 89.6391 312.243 89.8223C311.636 90.0054 310.985 90.0996 310.328 90.0996C309.803 90.0996 309.282 90.0242 308.797 89.8777C308.311 89.7311 307.87 89.5163 307.498 89.2456C307.127 88.9749 306.832 88.6535 306.631 88.2998C306.431 87.9462 306.328 87.5672 306.328 87.1845V85.0118C306.328 84.2394 306.75 83.4987 307.5 82.9526C308.25 82.4064 309.267 82.0996 310.328 82.0996Z" fill="black"/>
<text fill="#FF0040" xml:space="preserve" style="white-space: pre" font-family="Bahij TheSansArabic" font-size="13" font-weight="500" letter-spacing="0em"><tspan x="77" y="120.261">Microsoft PowerPoint</tspan></text>
<text fill="#FF0040" xml:space="preserve" style="white-space: pre" font-family="Bahij TheSansArabic" font-size="13" font-weight="500" letter-spacing="0em"><tspan x="77" y="139.261">Adobe Premiere Pro</tspan></text>
<text fill="#FF0040" xml:space="preserve" style="white-space: pre" font-family="Bahij TheSansArabic" font-size="13" font-weight="500" letter-spacing="0em"><tspan x="77" y="158.261">Adobe Audition</tspan></text>
<text fill="#FF0040" xml:space="preserve" style="white-space: pre" font-family="Bahij TheSansArabic" font-size="13" font-weight="500" letter-spacing="0em"><tspan x="80" y="84.261">Articulate Storyline</tspan></text>
<text fill="black" xml:space="preserve" style="white-space: pre" font-family="Bahij TheSansArabic" font-size="7" font-weight="500" letter-spacing="0em"><tspan x="81.0801" y="93.5251">Quizzes &#38; Assessments</tspan></text>
<text fill="black" xml:space="preserve" style="white-space: pre" font-family="Harmattan" font-size="7" font-weight="500" letter-spacing="0em"><tspan x="77" y="167.441">Noise and distortion removal</tspan></text>
<path d="M382 65L382 126" stroke="white"/>
<path d="M39 65L39 126" stroke="white"/>
<defs>
<linearGradient id="paint0_linear_123_2780" x1="423" y1="104" x2="408" y2="104" gradientUnits="userSpaceOnUse">
<stop offset="0.432692" stop-color="#535353"/>
<stop offset="0.475962"/>
<stop offset="0.476062" stop-color="#00B3FF"/>
</linearGradient>
</defs>
</svg>
