<svg width="458" height="380" viewBox="0 0 458 380" fill="none" xmlns="http://www.w3.org/2000/svg">
<path d="M397.449 1L394.613 3.93501L392.44 2.8102L391.187 3.95773L395.127 6L399.187 1.7989L397.449 1Z" fill="white"/>
<path d="M343.625 25.2485C344.489 25.2485 345.333 25.0793 346.051 24.7624C346.768 24.4455 347.328 23.9951 347.658 23.4681C347.989 22.9411 348.075 22.3613 347.907 21.8018C347.738 21.2424 347.323 20.7285 346.712 20.3252C346.102 19.9218 345.324 19.6472 344.477 19.5359C343.63 19.4246 342.752 19.4817 341.955 19.7C341.157 19.9183 340.475 20.2879 339.995 20.7622C339.516 21.2365 339.26 21.7941 339.26 22.3645C339.26 23.1294 339.72 23.8629 340.538 24.4038C341.357 24.9446 342.467 25.2485 343.625 25.2485Z" fill="#00AEEF"/>
<path d="M345.141 38.912C349.468 38.9116 353.699 38.0634 357.297 36.4748C360.895 34.8861 363.699 32.6282 365.355 29.9867C367.01 27.3452 367.443 24.4386 366.599 21.6345C365.754 18.8305 363.67 16.2549 360.609 14.2334C357.549 12.2119 353.65 10.8353 349.406 10.2776C345.161 9.72 340.761 10.0064 336.763 11.1006C332.765 12.1948 329.348 14.0477 326.943 16.4249C324.539 18.8021 323.256 21.597 323.256 24.456C323.256 26.3546 323.822 28.2345 324.922 29.9885C326.022 31.7425 327.634 33.3363 329.666 34.6786C331.698 36.021 334.111 37.0858 336.766 37.8122C339.421 38.5385 342.267 38.9123 345.141 38.912Z" fill="#00AEEF" stroke="#707070"/>
<path d="M354.354 28.1751C348.163 29.4381 341.54 29.4381 335.35 28.1751L336.621 21.4531H353.075C354.39 28.3941 354.207 27.4141 354.354 28.1751Z" fill="#00AEEF" stroke="white" stroke-width="0.6"/>
<path d="M354.244 27.6161C349.365 28.3574 344.292 28.3358 339.428 27.5531C338.906 27.4681 338.449 27.2593 338.144 26.9663C337.84 26.6733 337.709 26.3167 337.777 25.9641L338.632 21.4541H353.075L354.244 27.6161Z" fill="#00AEEF" stroke="white" stroke-width="0.6"/>
<path d="M361.662 19.4851L344.851 23.3481L328.04 19.4851L344.851 15.6221L361.662 19.4851Z" fill="#00AEEF" stroke="white" stroke-width="0.6"/>
<path d="M397.512 18.761L383.851 21.902L370.19 18.764L383.851 15.625L397.512 18.761Z" fill="#00AEEF" stroke="white" stroke-width="0.6"/>
<path d="M330.963 23.8308V20.3258C330.962 20.2055 331.029 20.0893 331.151 19.9999C331.273 19.9106 331.441 19.8545 331.622 19.8428L343.317 19.0898C343.506 19.0821 343.693 19.123 343.838 19.2041C343.982 19.2852 344.074 19.4001 344.094 19.5248C344.113 19.6496 344.059 19.7745 343.942 19.8734C343.826 19.9724 343.656 20.0377 343.468 20.0558L332.432 20.7658V23.8318C332.432 23.9599 332.355 24.0827 332.218 24.1733C332.08 24.2639 331.894 24.3148 331.701 24.3148C331.507 24.3148 331.321 24.2639 331.184 24.1733C331.046 24.0827 330.969 23.9599 330.969 23.8318L330.963 23.8308Z" fill="#00AEEF" stroke="white" stroke-width="0.6"/>
<path d="M333.156 24.8022V26.7362H330.234V24.8022C330.228 24.6729 330.261 24.5441 330.33 24.4232C330.402 24.3025 330.509 24.1924 330.645 24.0993C330.782 24.0062 330.945 23.9321 331.125 23.8812C331.397 23.8051 331.697 23.7852 331.986 23.8241C332.275 23.863 332.54 23.9589 332.745 24.0992C332.882 24.192 332.989 24.3022 333.06 24.4232C333.129 24.5441 333.162 24.6729 333.156 24.8022Z" fill="#00AEEF" stroke="white" stroke-width="0.6"/>
<path d="M333.156 24.8018V26.2508C332.868 26.2509 332.583 26.2136 332.316 26.1408C332.05 26.068 331.809 25.9613 331.605 25.8268C331.401 25.6923 331.24 25.5326 331.13 25.3568C331.019 25.1808 330.963 24.9922 330.963 24.8018C330.906 24.506 330.951 24.2054 331.095 23.9228C331.317 23.8567 331.561 23.8285 331.804 23.8406C332.048 23.8528 332.282 23.9049 332.487 23.9922C332.692 24.0796 332.861 24.1994 332.978 24.3408C333.094 24.4822 333.156 24.6407 333.156 24.8018Z" fill="#00AEEF" stroke="white" stroke-width="0.6"/>
<path d="M349.332 31.885C348.25 32.485 348.536 32.199 348.03 33.116C346.642 33.28 347.11 33.116 345.976 33.749C344.588 33.416 345.106 33.454 343.706 33.619C342.797 32.904 343.238 33.093 341.85 32.759C341.602 31.837 341.85 32.146 340.892 31.397C341.374 30.523 341.346 30.866 341.088 29.905C342.221 29.277 341.907 29.553 342.39 28.674C343.752 28.524 343.333 28.674 344.444 28.041C345.832 28.374 345.315 28.336 346.715 28.171C347.623 28.886 347.182 28.697 348.571 29.031C348.819 29.953 348.571 29.644 349.529 30.393C349.047 31.267 349.076 30.921 349.332 31.885Z" fill="#00AEEF" stroke="white" stroke-width="0.6"/>
<path d="M385.246 60L385.246 121" stroke="white"/>
<path d="M385.246 60L385.246 121" stroke="white"/>
<path d="M297.275 11.5625H131.246V39.1525H297.275V11.5625Z" fill="#00AEEF"/>
<text fill="#FEFEFE" xml:space="preserve" style="white-space: pre" font-family="Harmattan" font-size="20" font-weight="bold" letter-spacing="0.11em"><tspan x="132" y="29.1162">University degree</tspan></text>
<path d="M269.023 59H159.977C155.019 59 151 62.1078 151 65.9414V70.0586C151 73.8922 155.019 77 159.977 77H269.023C273.981 77 278 73.8922 278 70.0586V65.9414C278 62.1078 273.981 59 269.023 59Z" fill="#A6DBEC"/>
<path d="M245.934 136H183.066C176.954 136 172 139.652 172 144.156V144.844C172 149.348 176.954 153 183.066 153H245.934C252.046 153 257 149.348 257 144.844V144.156C257 139.652 252.046 136 245.934 136Z" fill="#A6DBEC"/>
<path d="M245.747 239H187.745C183.051 239 179.246 242.007 179.246 245.717V246.283C179.246 249.993 183.051 253 187.745 253H245.747C250.441 253 254.246 249.993 254.246 246.283V245.717C254.246 242.007 250.441 239 245.747 239Z" fill="#A6DBEC"/>
<path d="M259.157 293H166.335C160.763 293 156.246 296.866 156.246 301.636V302.364C156.246 307.134 160.763 311 166.335 311H259.157C264.729 311 269.246 307.134 269.246 302.364V301.636C269.246 296.866 264.729 293 259.157 293Z" fill="#A6DBEC"/>
<text fill="black" xml:space="preserve" style="white-space: pre" font-family="Harmattan" font-size="13" font-weight="bold" letter-spacing="0em"><tspan x="179" y="213.676">Graduate 2024</tspan></text>
<text fill="black" xml:space="preserve" style="white-space: pre" font-family="Harmattan" font-size="5.2" font-weight="bold" letter-spacing="0em"><tspan x="115" y="192.37">Bachelor of Specific Education, Mansoura University, Computer Teacher Preparation Department, 2024</tspan></text>
<text fill="black" xml:space="preserve" style="white-space: pre" font-family="Almarai" font-size="13" letter-spacing="0em"><tspan x="132" y="108.011">College of Specific Education</tspan></text>
<text fill="black" xml:space="preserve" style="white-space: pre" font-family="Almarai" font-size="13" letter-spacing="0em"><tspan x="155.246" y="72.011">Mansoura University</tspan></text>
<text fill="black" xml:space="preserve" style="white-space: pre" font-family="Almarai" font-size="13" letter-spacing="0em"><tspan x="181" y="148.011">Department</tspan></text>
<text fill="black" xml:space="preserve" style="white-space: pre" font-family="Harmattan" font-size="13" font-weight="500" letter-spacing="0em"><tspan x="185" y="248.676">general grade</tspan></text>
<text fill="black" xml:space="preserve" style="white-space: pre" font-family="Harmattan" font-size="13" font-weight="500" letter-spacing="0em"><tspan x="169" y="304.676">Graduation Project</tspan></text>
<text fill="black" xml:space="preserve" style="white-space: pre" font-family="Harmattan" font-size="14" font-weight="500" letter-spacing="0em"><tspan x="128" y="182.881">Computer Science, New Regulations</tspan></text>
<text fill="black" xml:space="preserve" style="white-space: pre" font-family="Harmattan" font-size="13" font-weight="500" letter-spacing="0em"><tspan x="161" y="273.676">Very Good with Honors</tspan></text>
<text fill="black" xml:space="preserve" style="white-space: pre" font-family="Harmattan" font-size="13" font-weight="500" letter-spacing="0em"><tspan x="128" y="332.176">Obtained 96% in the graduation project</tspan></text>
<path d="M115.246 194H311.246Z" fill="black"/>
<path d="M115.246 194H311.246" stroke="#3B1919" stroke-width="0.1"/>
<path d="M115.246 188H311.246Z" fill="black"/>
<path d="M115.246 188H311.246" stroke="#3B1919" stroke-width="0.1"/>
<path d="M276.014 347.343C275.95 347.104 275.668 346.955 275.404 347.012C275.248 347.07 275.128 347.153 275.06 347.249C274.993 347.344 274.982 347.449 275.028 347.549L275.076 347.726L275.57 347.622L275.081 347.73C275.099 347.802 275.142 347.872 275.21 347.935C275.257 347.984 275.317 348.038 275.383 348.102C275.64 348.323 275.867 348.553 276.065 348.791C276.214 349 276.526 349.063 276.758 348.932C276.882 348.846 276.961 348.744 276.989 348.636C277.016 348.529 276.993 348.419 276.92 348.318C276.689 348.028 276.417 347.748 276.106 347.48C276.059 347.438 276.053 347.459 276.042 347.452L276.014 347.343Z" fill="#FFFFFE"/>
<path d="M275.008 348.657C274.943 348.896 274.657 349.045 274.391 348.988C273.749 348.855 274.014 348.21 274.364 347.898C274.624 347.678 274.854 347.448 275.054 347.21C275.205 347 275.52 346.937 275.755 347.068C275.88 347.154 275.961 347.256 275.989 347.364C276.017 347.472 275.992 347.581 275.919 347.683C275.708 347.975 275.041 348.484 275.001 348.657H275.008Z" fill="#FFFFFE"/>
</svg>
