<svg width="458" height="453" viewBox="0 0 458 453" fill="none" xmlns="http://www.w3.org/2000/svg">
<path fill-rule="evenodd" clip-rule="evenodd" d="M374.154 32.1254C374.154 32.4321 374.026 32.7262 373.797 32.943C373.568 33.1599 373.258 33.2817 372.935 33.2817V34.7032C374.421 34.9903 375.778 35.7053 376.82 36.7508H379.03C379.353 36.7508 379.663 36.8726 379.892 37.0894C380.121 37.3063 380.249 37.6004 380.249 37.9071C380.249 38.2138 380.121 38.5079 379.892 38.7248C379.663 38.9416 379.353 39.0635 379.03 39.0635H361.966C361.643 39.0635 361.332 38.9416 361.104 38.7248C360.875 38.5079 360.747 38.2138 360.747 37.9071C360.747 37.6004 360.875 37.3063 361.104 37.0894C361.332 36.8726 361.643 36.7508 361.966 36.7508H364.174C365.216 35.7053 366.573 34.9903 368.059 34.7032V33.2817C367.736 33.2817 367.426 33.1599 367.197 32.943C366.969 32.7262 366.84 32.4321 366.84 32.1254C366.84 31.8187 366.969 31.5246 367.197 31.3077C367.426 31.0909 367.736 30.969 368.059 30.969V29.3724C366.995 28.9582 366.057 28.2989 365.329 27.4543C365.225 27.4836 365.116 27.4995 365.008 27.5015C361.617 27.5015 358.304 23.2189 358.304 20.0211C358.304 17.1066 359.685 16.2611 361.497 16.0264C361.644 15.9683 361.802 15.9383 361.961 15.9381H379.03C379.189 15.9383 379.347 15.9683 379.494 16.0264C381.307 16.2611 382.687 17.1066 382.687 20.0211C382.687 23.2205 379.372 27.5015 375.983 27.5015C375.875 27.4995 375.767 27.4836 375.662 27.4543C374.934 28.2989 373.996 28.9582 372.932 29.3724V30.969C373.092 30.9686 373.251 30.9982 373.399 31.0562C373.548 31.1141 373.682 31.1992 373.796 31.3066C373.909 31.4141 374 31.5417 374.061 31.6822C374.122 31.8227 374.154 31.9733 374.154 32.1254ZM370.497 9C367.039 9.00086 363.642 9.87421 360.657 11.5305C357.671 13.1868 355.204 15.5664 353.507 18.4255C351.811 21.2846 350.946 24.5202 351.003 27.8006C351.059 31.081 352.034 34.2883 353.827 37.0935C355.621 39.8988 358.168 42.2011 361.209 43.7645C364.25 45.3279 367.674 46.0961 371.131 45.9904C374.588 45.8846 377.953 44.9088 380.881 43.1628C383.809 41.4168 386.195 38.9636 387.794 36.0545C389.267 33.421 390.025 30.481 389.999 27.5C389.999 22.5935 387.945 17.8879 384.287 14.4185C380.63 10.9491 375.669 9 370.497 9Z" fill="#00AEEF" stroke="#707070"/>
<path fill-rule="evenodd" clip-rule="evenodd" d="M359.599 19.4143C359.599 18.0087 359.599 17.6188 361.085 17.5268C361.252 19.9171 361.793 22.2695 362.69 24.5047C361.833 23.9109 361.116 23.1511 360.584 22.2743C360.052 21.3976 359.716 20.4233 359.599 19.4143ZM378.913 17.5268C380.394 17.6188 380.399 18.0087 380.399 19.4143C380.282 20.4236 379.946 21.398 379.413 22.2748C378.88 23.1515 378.162 23.9112 377.305 24.5047C378.201 22.2695 378.742 19.9171 378.909 17.5268H378.913ZM375.503 27.4498C375.616 27.4816 375.733 27.4985 375.851 27.5C379.464 27.5 383 22.8698 383 19.4143C383 16.2634 381.528 15.3497 379.595 15.0954C379.437 15.0322 379.268 14.9998 379.097 15H360.899C360.73 15.0003 360.562 15.0327 360.405 15.0954C358.472 15.3497 357 16.2667 357 19.4143C357 22.8698 360.534 27.5 364.149 27.5C364.267 27.4985 364.384 27.4816 364.497 27.4498C365.271 28.3616 366.268 29.0741 367.4 29.5231V31.25C367.055 31.25 366.724 31.3817 366.481 31.6161C366.237 31.8505 366.1 32.1685 366.1 32.5C366.1 32.8315 366.237 33.1495 366.481 33.3839C366.724 33.6183 367.055 33.75 367.4 33.75V35.2861C365.817 35.5978 364.373 36.3708 363.264 37.5H360.899C360.555 37.5 360.224 37.6317 359.98 37.8661C359.736 38.1005 359.599 38.4185 359.599 38.75C359.599 39.0815 359.736 39.3995 359.98 39.6339C360.224 39.8683 360.555 40 360.899 40H379.097C379.442 40 379.773 39.8683 380.016 39.6339C380.26 39.3995 380.397 39.0815 380.397 38.75C380.397 38.4185 380.26 38.1005 380.016 37.8661C379.773 37.6317 379.442 37.5 379.097 37.5H376.74C375.629 36.3696 374.182 35.5965 372.597 35.2861V33.75C372.942 33.75 373.272 33.6183 373.516 33.3839C373.76 33.1495 373.897 32.8315 373.897 32.5C373.897 32.1685 373.76 31.8505 373.516 31.6161C373.272 31.3817 372.942 31.25 372.597 31.25V29.5231C373.728 29.0741 374.725 28.3616 375.499 27.4498H375.503Z" fill="white"/>
<path d="M326.754 13H120.754V40H326.754V13Z" fill="#00AEEF"/>
<path d="M272.682 60H170.825C164.711 60 159.754 65.3701 159.754 71.9945V73.0055C159.754 79.6299 164.711 85 170.825 85H272.682C278.797 85 283.754 79.6299 283.754 73.0055V71.9945C283.754 65.3701 278.797 60 272.682 60Z" fill="#A6DBEC"/>
<path d="M272.788 208H186.719C180.663 208 175.754 211.203 175.754 215.154V219.846C175.754 223.797 180.663 227 186.719 227H272.788C278.845 227 283.754 223.797 283.754 219.846V215.154C283.754 211.203 278.845 208 272.788 208Z" fill="black"/>
<text fill="black" xml:space="preserve" style="white-space: pre" font-family="Harmattan" font-size="14" font-weight="500" letter-spacing="0em"><tspan x="174.754" y="74.8813">Graduation project</tspan></text>
<text fill="black" xml:space="preserve" style="white-space: pre" font-family="Harmattan" font-size="10" font-weight="500" letter-spacing="0em"><tspan x="143.624" y="112.558">My software project was selected as one of the </tspan><tspan x="144.708" y="133.558">top ten projects across the three faculties and </tspan><tspan x="151.563" y="154.558">discussed at the first Mansoura University </tspan><tspan x="172.647" y="175.558">Computer Science Conference.</tspan></text>
<path d="M253.261 314H216.014C210.559 314 206.138 317.203 206.138 321.154V325.846C206.138 329.797 210.559 333 216.014 333H253.261C258.716 333 263.138 329.797 263.138 325.846V321.154C263.138 317.203 258.716 314 253.261 314Z" fill="black"/>
<text fill="white" xml:space="preserve" style="white-space: pre" font-family="Harmattan" font-size="13" font-weight="500" letter-spacing="0em"><tspan x="207.754" y="326.676">Attendance</tspan></text>
<text fill="#5E5E5E" xml:space="preserve" style="white-space: pre" font-family="Harmattan" font-size="10" font-weight="500" letter-spacing="0em"><tspan x="139.123" y="352.558">Mansoura University Professional Development Center&#x2028;</tspan><tspan x="167.727" y="369.558"> The President of Mansoura University&#x2028;</tspan><tspan x="168.981" y="386.558"> Techno Egypt Programming Company&#x2028;</tspan><tspan x="223.195" y="403.558"> X Clan&#x2028;</tspan><tspan x="223.146" y="420.558">fekretk</tspan></text>
<text fill="#5E5E5E" xml:space="preserve" style="white-space: pre" font-family="Harmattan" font-size="5" font-weight="500" letter-spacing="0em"><tspan x="194.932" y="239.529">Head of the Computer Science Department&#x2028;</tspan><tspan x="204.607" y="248.529"> Prof. Dr. Ahmed El-Sayed Amin&#10;</tspan><tspan x="193.481" y="257.529">Dean of the College of Specialized Education&#x2028;</tspan><tspan x="211.052" y="266.529"> Dr. Mohey El-Din Ismail&#10;</tspan><tspan x="192.419" y="275.529">Vice Dean for Graduate Studies and Research&#x2028;</tspan><tspan x="210.11" y="284.529"> Prof. Dr. Amani Al-Jamal&#10;</tspan><tspan x="160.039" y="293.529">Professors of the Department of Artificial Intelligence and Emotional Intelligence:&#x2028;</tspan><tspan x="163.96" y="302.529"> Prof. Dr. Shaimaa Khater &#x2022; Prof. Dr. Rania Al-Adly &#x2022; Prof. Dr. Marwa Hussein</tspan></text>
<text fill="white" xml:space="preserve" style="white-space: pre" font-family="Harmattan" font-size="15" font-weight="500" letter-spacing="0em"><tspan x="187.754" y="221.087">Discussion with</tspan></text>
<text fill="white" xml:space="preserve" style="white-space: pre" font-family="Harmattan" font-size="20" font-weight="bold" letter-spacing="0em"><tspan x="137.754" y="31.1162">University achievements</tspan></text>
</svg>
