<svg width="454" height="1177" viewBox="0 0 454 1177" fill="none" xmlns="http://www.w3.org/2000/svg">
<path d="M332.268 14H157.268V42H332.268V14Z" fill="#00AEEF"/>
<text fill="white" xml:space="preserve" style="white-space: pre" font-family="Harmattan" font-size="20" font-weight="bold" letter-spacing="0em"><tspan x="161" y="32.1162">Accredited certificates</tspan></text>
<text fill="black" xml:space="preserve" style="white-space: pre" font-family="Harmattan" font-size="14" font-weight="500" letter-spacing="0em"><tspan x="129.828" y="97.8813">- Accredited and certified by Mansoura University</tspan></text>
<text fill="#FF0000" xml:space="preserve" style="white-space: pre" font-family="Harmattan" font-size="15" font-weight="500" letter-spacing="0em"><tspan x="89.709" y="76.0872">Bachelor of Education in Computer Teacher Training</tspan></text>
<text fill="#F30000" xml:space="preserve" style="white-space: pre" font-family="Harmattan" font-size="20" font-weight="500" letter-spacing="0em"><tspan x="234.668" y="203.116">ENGLISH 3 LEVELS </tspan></text>
<path d="M383.266 14.5967H380.917C375.698 14.5967 370.693 15.9663 367.002 18.4043C363.312 20.8423 361.239 24.1489 361.239 27.5967V29.1517C361.239 32.5995 363.312 35.9061 367.002 38.3441C370.693 40.7821 375.698 42.1517 380.917 42.1517H383.27C385.855 42.1517 388.413 41.8154 390.801 41.1621C393.188 40.5088 395.358 39.5512 397.185 38.3441C399.012 37.1369 400.462 35.7038 401.451 34.1266C402.439 32.5493 402.948 30.8589 402.948 29.1517V27.5967C402.948 25.8892 402.439 24.1985 401.45 22.6211C400.461 21.0437 399.011 19.6104 397.183 18.4032C395.356 17.196 393.186 16.2385 390.798 15.5854C388.41 14.9323 385.85 14.5963 383.266 14.5967Z" fill="#00AEEF" stroke="#707070"/>
<path d="M369.271 21.6045C370.214 21.6045 371.022 22.3475 371.568 23.5475C372.592 26.1856 372.592 28.9515 371.568 31.5895C371.022 32.7895 370.206 33.5325 369.271 33.5325C368.335 33.5325 367.519 32.7895 366.973 31.5895C365.952 28.9513 365.952 26.1857 366.973 23.5475C367.519 22.3475 368.328 21.6045 369.271 21.6045ZM369.741 25.2655C369.525 24.7915 369.265 24.4975 369.009 24.4975C368.753 24.4975 368.493 24.7905 368.276 25.2655C367.707 26.7758 367.707 28.3552 368.276 29.8655C368.491 30.3395 368.753 30.6335 369.009 30.6335C369.265 30.6335 369.525 30.3405 369.741 29.8655C370.311 28.3552 370.311 26.7758 369.741 25.2655Z" fill="#FFFFFE"/>
<path d="M383.554 29.5303C383.837 29.545 384.11 29.6081 384.345 29.7132C384.58 29.8184 384.77 29.9621 384.896 30.1303C385.257 30.5712 385.446 31.0647 385.444 31.5659C385.443 32.0672 385.252 32.5602 384.889 33.0003C384.77 33.1686 384.581 33.3111 384.344 33.4109C384.106 33.5107 383.831 33.5637 383.55 33.5637C383.269 33.5637 382.993 33.5107 382.756 33.4109C382.519 33.3111 382.33 33.1686 382.211 33.0003C381.843 32.5613 381.649 32.0678 381.648 31.5659C381.647 31.0641 381.838 30.5701 382.204 30.1303C382.331 29.9617 382.522 29.8178 382.759 29.7127C382.996 29.6075 383.269 29.5447 383.554 29.5303ZM384.218 30.8403C384.155 30.7563 384.06 30.6846 383.943 30.6323C383.831 30.5727 383.691 30.5402 383.548 30.5402C383.404 30.5402 383.265 30.5727 383.153 30.6323C383.035 30.6846 382.94 30.7563 382.877 30.8403C382.694 31.0604 382.599 31.3073 382.599 31.5583C382.599 31.8093 382.694 32.0562 382.877 32.2763C382.94 32.3603 383.035 32.432 383.153 32.4843C383.265 32.5439 383.404 32.5764 383.548 32.5764C383.691 32.5764 383.831 32.5439 383.943 32.4843C384.06 32.432 384.155 32.3603 384.218 32.2763C384.401 32.0562 384.497 31.8093 384.497 31.5583C384.497 31.3073 384.401 31.0604 384.218 30.8403Z" fill="#FFFFFE"/>
<path fill-rule="evenodd" clip-rule="evenodd" d="M384.459 29.8225C385.954 30.2225 386.178 31.3885 385.986 32.9295C387.1 33.0295 389.039 33.1735 390.167 33.3465C391.776 33.5957 393.363 33.9032 394.921 34.2675C394.974 34.2834 395.031 34.2915 395.089 34.2915C395.972 34.2915 396.727 33.4855 397.236 32.2565C397.741 30.9317 397.99 29.5697 397.974 28.2035C398.001 26.9215 397.763 25.6431 397.268 24.4035C396.76 23.2585 396.007 22.5505 395.126 22.5505H395.092C395.069 22.5495 395.045 22.5495 395.021 22.5505C391.488 22.9445 387.967 23.7005 384.46 23.7655L384.459 29.8225ZM382.423 23.7855H382.393C378.201 23.7855 374.017 23.0215 369.84 22.5525C369.482 22.5135 369.163 22.7915 369.127 23.1735C369.09 23.5555 369.351 23.8965 369.706 23.9355C370.233 23.9942 370.76 24.0498 371.288 24.1025C371.337 24.1978 371.384 24.2978 371.429 24.4025C372.427 27.0413 372.427 29.8017 371.429 32.4405L371.417 32.4665H371.43C370.825 32.6058 370.22 32.7578 369.614 32.9225C369.416 33.016 369.265 33.1468 369.181 33.298C369.097 33.4491 369.084 33.6134 369.143 33.7695C369.233 34.1425 369.587 34.3695 369.935 34.2695C371.799 33.7587 373.734 33.3683 375.713 33.1035C377.507 32.9016 379.318 32.7744 381.136 32.7225C380.996 32.2257 381.039 31.7138 381.263 31.2305C381.487 30.7473 381.885 30.3071 382.423 29.9475V23.7855Z" fill="#FFFFFE"/>
<text fill="#FF0000" xml:space="preserve" style="white-space: pre" font-family="Harmattan" font-size="20" font-weight="500" letter-spacing="0em"><tspan x="246.793" y="277.116">Digital marketing </tspan></text>
<text fill="black" xml:space="preserve" style="white-space: pre" font-family="Harmattan" font-size="12" font-weight="500" letter-spacing="0.05em"><tspan x="83.8602" y="301.97">Holder of an accredited and authenticated certificate from </tspan><tspan x="90.4273" y="316.97">the Faculty of Engineering, Mansoura University, pending </tspan><tspan x="324.024" y="331.97">issuance.</tspan></text>
<text fill="black" xml:space="preserve" style="white-space: pre" font-family="Harmattan" font-size="12" font-weight="500" letter-spacing="0.05em"><tspan x="83.8602" y="425.97">Holder of an accredited and authenticated certificate from </tspan><tspan x="90.4273" y="440.97">the Faculty of Engineering, Mansoura University, pending </tspan><tspan x="324.024" y="455.97">issuance.</tspan></text>
<text fill="black" xml:space="preserve" style="white-space: pre" font-family="Harmattan" font-size="12" font-weight="500" letter-spacing="0.05em"><tspan x="83.8602" y="513.97">Holder of an accredited and authenticated certificate from </tspan><tspan x="90.4273" y="528.97">the Faculty of Engineering, Mansoura University, pending </tspan><tspan x="324.024" y="543.97">issuance.</tspan></text>
<text fill="black" xml:space="preserve" style="white-space: pre" font-family="Harmattan" font-size="12" font-weight="500" letter-spacing="0.05em"><tspan x="83.8602" y="581.97">Holder of an accredited and authenticated certificate from </tspan><tspan x="90.4273" y="596.97">the Faculty of Engineering, Mansoura University, pending </tspan><tspan x="324.024" y="611.97">issuance.</tspan></text>
<text fill="black" xml:space="preserve" style="white-space: pre" font-family="Harmattan" font-size="12" font-weight="500" letter-spacing="0.05em"><tspan x="83.8602" y="723.97">Holder of an accredited and authenticated certificate from </tspan><tspan x="90.4273" y="738.97">the Faculty of Engineering, Mansoura University, pending </tspan><tspan x="324.024" y="753.97">issuance.</tspan></text>
<text fill="black" xml:space="preserve" style="white-space: pre" font-family="Harmattan" font-size="12" font-weight="500" letter-spacing="0.05em"><tspan x="84.3524" y="218.97">Holder of an accredited and authenticated certificate from </tspan><tspan x="90.9195" y="233.97">the Faculty of Engineering, Mansoura University, pending </tspan><tspan x="324.516" y="248.97">issuance.</tspan></text>
<text fill="#FF0000" xml:space="preserve" style="white-space: pre" font-family="Harmattan" font-size="20" font-weight="500" letter-spacing="0.06em"><tspan x="77.6742" y="375.116">ICDL (WIN-WORD-EXCEL-ACCESS-</tspan><tspan x="102.635" y="409.116">POWERPOINT - INTERNET - IT) </tspan></text>
<text fill="#FF0000" xml:space="preserve" style="white-space: pre" font-family="Harmattan" font-size="20" font-weight="500" letter-spacing="0em"><tspan x="221.148" y="494.116">MANGMENT SKILLS </tspan></text>
<text fill="#FF0000" xml:space="preserve" style="white-space: pre" font-family="Harmattan" font-size="20" font-weight="500" letter-spacing="0em"><tspan x="230" y="569.116">PERSONAL SKILLS </tspan></text>
<text fill="#FF0000" xml:space="preserve" style="white-space: pre" font-family="Harmattan" font-size="20" font-weight="500" letter-spacing="0em"><tspan x="258" y="703.116">Graphic design</tspan></text>
<text fill="#FF0000" xml:space="preserve" style="white-space: pre" font-family="Harmattan" font-size="20" font-weight="500" letter-spacing="0em"><tspan x="83" y="634.116">Occupational Safety and Health (OSHA)</tspan></text>
<text fill="black" xml:space="preserve" style="white-space: pre" font-family="Harmattan" font-size="11" font-weight="500" letter-spacing="0em"><tspan x="102.223" y="651.764">Obtained an American international certificate, certified by the Egyptian </tspan><tspan x="147.254" y="670.764">Ministry of Foreign Affairs + the American international card</tspan></text>
<text fill="#FF0000" xml:space="preserve" style="white-space: pre" font-family="Harmattan" font-size="15" font-weight="500" letter-spacing="0em"><tspan x="108.799" y="129.587">A unified account + teacher code for a math and </tspan><tspan x="229.121" y="146.587">computer science teacher</tspan></text>
<text fill="black" xml:space="preserve" style="white-space: pre" font-family="Harmattan" font-size="13" font-weight="500" letter-spacing="0em"><tspan x="130.827" y="162.676">At the Ministry of Education, Arab Republic of Egypt</tspan></text>
<path d="M117.018 165.006L119.445 163.32L123.645 164.973L129.13 160.666L132.492 161.832L124.638 168L117.018 165.006ZM113.982 165.288L118.135 166.921C115.595 167.058 113.041 167.125 110.485 167.123L113.982 165.288ZM92.4922 164.805C92.4922 162.181 98.2625 158.658 106.044 157.629C104.348 156.966 102.978 156.137 102.027 155.198C101.077 154.26 100.57 153.234 100.542 152.193C100.411 150.882 101.383 149.599 103.244 148.626C105.105 147.652 107.705 147.068 110.474 147C113.243 147.068 115.842 147.653 117.703 148.626C119.564 149.599 120.536 150.882 120.406 152.193C120.38 153.234 119.875 154.259 118.928 155.197C117.98 156.136 116.612 156.966 114.919 157.629C119.257 158.239 123.039 159.52 125.661 161.267L123.089 163.285L118.998 161.671L115.309 164.232L111.275 159.133H111.307L112.957 158.146C112.168 158.301 111.325 158.383 110.472 158.389C109.619 158.382 108.775 158.3 107.985 158.146L109.626 159.133H109.673L105.433 164.49L110.472 167.123C101.482 167.121 92.4922 166.351 92.4922 164.805Z" fill="#CB9B00"/>
<path d="M379.995 375C380.984 375.001 381.951 374.796 382.774 374.412C383.597 374.028 384.239 373.482 384.618 372.842C384.997 372.203 385.097 371.499 384.905 370.82C384.712 370.14 384.236 369.516 383.537 369.026C382.838 368.537 381.947 368.203 380.977 368.067C380.007 367.932 379.002 368.001 378.088 368.266C377.174 368.531 376.393 368.98 375.843 369.555C375.293 370.131 375 370.808 375 371.5C375.001 372.427 375.527 373.317 376.463 373.973C377.4 374.629 378.67 374.999 379.995 375Z" fill="#00AEEF"/>
<path d="M379.995 492C380.984 492.001 381.951 491.796 382.774 491.412C383.597 491.028 384.239 490.482 384.618 489.842C384.997 489.203 385.097 488.499 384.905 487.82C384.712 487.14 384.236 486.516 383.537 486.026C382.838 485.537 381.947 485.203 380.977 485.067C380.007 484.932 379.002 485.001 378.088 485.266C377.174 485.531 376.393 485.98 375.843 486.555C375.293 487.131 375 487.808 375 488.5C375.001 489.427 375.527 490.317 376.463 490.973C377.4 491.629 378.67 491.999 379.995 492Z" fill="#00AEEF"/>
<path d="M379.995 569C380.984 569.001 381.951 568.796 382.774 568.412C383.597 568.028 384.239 567.482 384.618 566.842C384.997 566.203 385.097 565.499 384.905 564.82C384.712 564.14 384.236 563.516 383.537 563.026C382.838 562.537 381.947 562.203 380.977 562.067C380.007 561.932 379.002 562.001 378.088 562.266C377.174 562.531 376.393 562.98 375.843 563.555C375.293 564.131 375 564.808 375 565.5C375.001 566.427 375.527 567.317 376.463 567.973C377.4 568.629 378.67 568.999 379.995 569Z" fill="#00AEEF"/>
<path d="M379.995 633C380.984 633.001 381.951 632.796 382.774 632.412C383.597 632.028 384.239 631.482 384.618 630.842C384.997 630.203 385.097 629.499 384.905 628.82C384.712 628.14 384.236 627.516 383.537 627.026C382.838 626.537 381.947 626.203 380.977 626.067C380.007 625.932 379.002 626.001 378.088 626.266C377.174 626.531 376.393 626.98 375.843 627.555C375.293 628.131 375 628.808 375 629.5C375.001 630.427 375.527 631.317 376.463 631.973C377.4 632.629 378.67 632.999 379.995 633Z" fill="#00AEEF"/>
<path d="M379.995 706C380.984 706.001 381.951 705.796 382.774 705.412C383.597 705.028 384.239 704.482 384.618 703.842C384.997 703.203 385.097 702.499 384.905 701.82C384.712 701.14 384.236 700.516 383.537 700.026C382.838 699.537 381.947 699.203 380.977 699.067C380.007 698.932 379.002 699.001 378.088 699.266C377.174 699.531 376.393 699.98 375.843 700.555C375.293 701.131 375 701.808 375 702.5C375.001 703.427 375.527 704.317 376.463 704.973C377.4 705.629 378.67 705.999 379.995 706Z" fill="#00AEEF"/>
<path d="M379.995 792C380.984 792.001 381.951 791.796 382.774 791.412C383.597 791.028 384.239 790.482 384.618 789.842C384.997 789.203 385.097 788.499 384.905 787.82C384.712 787.14 384.236 786.516 383.537 786.026C382.838 785.537 381.947 785.203 380.977 785.067C380.007 784.932 379.002 785.001 378.088 785.266C377.174 785.531 376.393 785.98 375.843 786.555C375.293 787.131 375 787.808 375 788.5C375.001 789.427 375.527 790.317 376.463 790.973C377.4 791.629 378.67 791.999 379.995 792Z" fill="#00AEEF"/>
<path d="M379.995 280C380.984 280.001 381.951 279.796 382.774 279.412C383.597 279.028 384.239 278.482 384.618 277.842C384.997 277.203 385.097 276.499 384.905 275.82C384.712 275.14 384.236 274.516 383.537 274.026C382.838 273.537 381.947 273.203 380.977 273.067C380.007 272.932 379.002 273.001 378.088 273.266C377.174 273.531 376.393 273.98 375.843 274.555C375.293 275.131 375 275.808 375 276.5C375.001 277.427 375.527 278.317 376.463 278.973C377.4 279.629 378.67 279.999 379.995 280Z" fill="#00AEEF"/>
<path d="M379.995 202C380.984 202.001 381.951 201.796 382.774 201.412C383.597 201.028 384.239 200.482 384.618 199.842C384.997 199.203 385.097 198.499 384.905 197.82C384.712 197.14 384.236 196.516 383.537 196.026C382.838 195.537 381.947 195.203 380.977 195.067C380.007 194.932 379.002 195.001 378.088 195.266C377.174 195.531 376.393 195.98 375.843 196.555C375.293 197.131 375 197.808 375 198.5C375.001 199.427 375.527 200.317 376.463 200.973C377.4 201.629 378.67 201.999 379.995 202Z" fill="#00AEEF"/>
<path d="M379.995 129C380.984 129.001 381.951 128.796 382.774 128.412C383.597 128.028 384.239 127.482 384.618 126.842C384.997 126.203 385.097 125.499 384.905 124.82C384.712 124.14 384.236 123.516 383.537 123.026C382.838 122.537 381.947 122.203 380.977 122.067C380.007 121.932 379.002 122.001 378.088 122.266C377.174 122.531 376.393 122.98 375.843 123.555C375.293 124.131 375 124.808 375 125.5C375.001 126.427 375.527 127.317 376.463 127.973C377.4 128.629 378.67 128.999 379.995 129Z" fill="#00AEEF"/>
<path d="M379.995 76C380.984 76.0007 381.951 75.7962 382.774 75.412C383.597 75.0279 384.239 74.4815 384.618 73.8421C384.997 73.2026 385.097 72.4987 384.905 71.8195C384.712 71.1403 384.236 70.5163 383.537 70.0264C382.838 69.5366 381.947 69.2028 380.977 69.0675C380.007 68.9321 379.002 69.0014 378.088 69.2662C377.174 69.531 376.393 69.9795 375.843 70.5552C375.293 71.1308 375 71.8075 375 72.4999C375.001 73.4274 375.527 74.3168 376.463 74.973C377.4 75.6292 378.67 75.9985 379.995 76Z" fill="#00AEEF"/>
<text fill="#FF0000" xml:space="preserve" style="white-space: pre" font-family="Harmattan" font-size="11" font-weight="500" letter-spacing="0em"><tspan x="92" y="789.764">Attending the diploma of Mohamed Ragab, the international designer</tspan></text>
<text fill="black" xml:space="preserve" style="white-space: pre" font-family="Harmattan" font-size="14" font-weight="500" letter-spacing="0em"><tspan x="109.97" y="812.881">For the Arab designer Mr. Mohamed Ragab in the art </tspan><tspan x="199.049" y="830.881">of graphic design</tspan></text>
<path d="M379.995 893C380.984 893.001 381.951 892.796 382.774 892.412C383.597 892.028 384.239 891.482 384.618 890.842C384.997 890.203 385.097 889.499 384.905 888.82C384.712 888.14 384.236 887.516 383.537 887.026C382.838 886.537 381.947 886.203 380.977 886.067C380.007 885.932 379.002 886.001 378.088 886.266C377.174 886.531 376.393 886.98 375.843 887.555C375.293 888.131 375 888.808 375 889.5C375.001 890.427 375.527 891.317 376.463 891.973C377.4 892.629 378.67 892.999 379.995 893Z" fill="#00AEEF"/>
<text fill="#FF0000" xml:space="preserve" style="white-space: pre" font-family="Harmattan" font-size="20" font-weight="bold" letter-spacing="0em"><tspan x="100.547" y="892.616">80 accredited hours of &#34;AI </tspan><tspan x="78.1932" y="919.616">Ambassadors&#34; from the National </tspan><tspan x="61.1815" y="946.616">Telecommunications Institute (NTI) - </tspan><tspan x="79.3163" y="973.616">Contributing to Information and </tspan><tspan x="83.1444" y="1000.62">Communication Technology and </tspan><tspan x="82.7635" y="1027.62">&#34;Engineers for Egypt&#34; ESEobha, </tspan><tspan x="62.4608" y="1054.62">accredited and certified by NTI - ESE</tspan></text>
</svg>
