<svg width="454" height="509" viewBox="0 0 454 509" fill="none" xmlns="http://www.w3.org/2000/svg">
<path d="M236 382H150V381H236V382Z" fill="#00AEEF"/>
<path d="M236 356H150V355H236V356Z" fill="#00AEEF"/>
<path d="M236 431H150V430H236V431Z" fill="#00AEEF"/>
<path d="M236 458H150V457H236V458Z" fill="#00AEEF"/>
<path d="M236 405H150V404H236V405Z" fill="#00AEEF"/>
<path d="M169.236 24.0051H260.883C261.817 24.0049 262.743 24.2634 263.606 24.7658C264.47 25.2681 265.255 26.0044 265.916 26.9328C266.576 27.8611 267.101 28.9632 267.458 30.1761C267.816 31.389 268 32.689 268 34.0019V51.9949H169.236C167.905 52.0453 166.58 51.7205 165.34 51.0398C164.1 50.3591 162.969 49.3363 162.015 48.0318C161.061 46.7273 160.302 45.1675 159.785 43.4445C159.267 41.7215 159 39.8702 159 38C159 36.1297 159.267 34.2785 159.785 32.5555C160.302 30.8325 161.061 29.2727 162.015 27.9682C162.969 26.6637 164.1 25.6409 165.34 24.9602C166.58 24.2795 167.905 23.9547 169.236 24.0051Z" fill="#058931"/>
<path d="M81.4017 374.233C81.5562 374.267 81.716 374.27 81.8717 374.241C82.0273 374.213 82.1756 374.153 82.3077 374.066C82.7918 373.598 83.2051 373.063 83.5346 372.476C83.8436 372.035 82.5867 371.985 82.3099 372.38C82.2135 372.518 82.1208 372.668 82.0249 372.823C81.8743 372.042 81.8876 371.238 82.0639 370.463C82.2402 369.687 82.5756 368.957 83.0488 368.318C84.6807 365.805 88.1578 364.029 91.851 363.01L91.0844 363.895C90.8168 364.203 91.9091 364.528 92.1764 364.223L93.5724 362.615C93.7955 362.357 93.1671 362.205 92.9244 362.178L90.4826 361.916C90.2733 361.893 89.9486 361.981 90.0157 362.157C90.0886 362.346 90.4134 362.431 90.6934 362.46L91.8902 362.589C85.569 364.589 80.1228 369.046 81.0243 373.338C80.6603 373.229 80.3069 373.108 79.9641 372.977C79.8152 372.925 79.6573 372.903 79.4998 372.912C79.3423 372.921 79.1882 372.962 79.0464 373.031C78.8002 373.157 78.7311 373.389 78.9758 373.482C79.7673 373.785 80.5776 374.036 81.4017 374.233Z" fill="#00AEEF" stroke="#707070" stroke-width="0.299962"/>
<path d="M347.686 70.776C348.729 70.776 349.574 69.9307 349.574 68.888C349.574 67.8453 348.729 67 347.686 67C346.643 67 345.798 67.8453 345.798 68.888C345.798 69.9307 346.643 70.776 347.686 70.776Z" fill="#231F20"/>
<path d="M347.686 99.1256C348.729 99.1256 349.574 98.2803 349.574 97.2376C349.574 96.1949 348.729 95.3496 347.686 95.3496C346.643 95.3496 345.798 96.1949 345.798 97.2376C345.798 98.2803 346.643 99.1256 347.686 99.1256Z" fill="#231F20"/>
<path d="M348 282C349.105 282 350 281.105 350 280C350 278.895 349.105 278 348 278C346.895 278 346 278.895 346 280C346 281.105 346.895 282 348 282Z" fill="#231F20"/>
<path d="M345.225 357.568C346.606 357.568 347.725 356.673 347.725 355.568C347.725 354.464 346.606 353.568 345.225 353.568C343.844 353.568 342.725 354.464 342.725 355.568C342.725 356.673 343.844 357.568 345.225 357.568Z" fill="#231F20"/>
<path d="M345.225 383.568C346.606 383.568 347.725 382.673 347.725 381.568C347.725 380.464 346.606 379.568 345.225 379.568C343.844 379.568 342.725 380.464 342.725 381.568C342.725 382.673 343.844 383.568 345.225 383.568Z" fill="#231F20"/>
<path d="M345.225 408.568C346.606 408.568 347.725 407.673 347.725 406.568C347.725 405.464 346.606 404.568 345.225 404.568C343.844 404.568 342.725 405.464 342.725 406.568C342.725 407.673 343.844 408.568 345.225 408.568Z" fill="#231F20"/>
<path d="M345.225 432.568C346.606 432.568 347.725 431.673 347.725 430.568C347.725 429.464 346.606 428.568 345.225 428.568C343.844 428.568 342.725 429.464 342.725 430.568C342.725 431.673 343.844 432.568 345.225 432.568Z" fill="#231F20"/>
<path d="M345.225 459.568C346.606 459.568 347.725 458.673 347.725 457.568C347.725 456.464 346.606 455.568 345.225 455.568C343.844 455.568 342.725 456.464 342.725 457.568C342.725 458.673 343.844 459.568 345.225 459.568Z" fill="#231F20"/>
<text fill="white" xml:space="preserve" style="white-space: pre" font-family="Harmattan" font-size="15" font-weight="bold" letter-spacing="0em"><tspan x="171" y="42.0872">communication</tspan></text>
<path d="M347.686 99.1256C348.729 99.1256 349.574 98.2803 349.574 97.2376C349.574 96.1949 348.729 95.3496 347.686 95.3496C346.643 95.3496 345.798 96.1949 345.798 97.2376C345.798 98.2803 346.643 99.1256 347.686 99.1256Z" fill="#231F20"/>
<text fill="#058931" xml:space="preserve" style="white-space: pre" font-family="Bahij TheSansArabic" font-size="12" font-weight="500" letter-spacing="0em"><tspan x="239" y="102.472">01065606206</tspan></text>
<text fill="#058931" xml:space="preserve" style="white-space: pre" font-family="Bahij TheSansArabic" font-size="8" font-weight="500" letter-spacing="0em"><tspan x="171" y="72.8115">mostafa.said.abdelwahab@outlook.com</tspan></text>
<path d="M325.505 73.3409C325.505 73.6592 325.631 73.9644 325.856 74.1895C326.081 74.4145 326.387 74.5409 326.705 74.5409H336.919C337.237 74.5409 337.542 74.4145 337.767 74.1895C337.992 73.9644 338.119 73.6592 338.119 73.3409V64.3279C338.119 64.0097 337.992 63.7044 337.767 63.4794C337.542 63.2544 337.237 63.1279 336.919 63.1279H326.705C326.387 63.1279 326.081 63.2544 325.856 63.4794C325.631 63.7044 325.505 64.0097 325.505 64.3279V73.3409Z" fill="#03A9F4"/>
<path d="M338.121 64.9147V64.3287C338.121 64.0814 338.044 63.8402 337.901 63.6387L331.134 67.8027L326.603 65.0027L326.181 66.1277L331.263 69.1277L338.121 64.9147Z" fill="#B3E5FC"/>
<path d="M329.109 79.624L316.493 77.221V60.4L329.109 58V79.624Z" fill="#0277BD"/>
<path d="M325.635 65.7168C325.316 65.342 324.917 65.044 324.466 64.8451C324.016 64.6461 323.527 64.5513 323.035 64.5678C322.518 64.5484 322.003 64.6463 321.529 64.8541C321.056 65.0619 320.635 65.3743 320.299 65.7678C319.582 66.6573 319.214 67.7783 319.266 68.9198C319.216 70.0117 319.579 71.0825 320.281 71.9198C320.607 72.2942 321.012 72.5915 321.467 72.7904C321.922 72.9893 322.415 73.0847 322.911 73.0698C323.42 73.0872 323.925 72.9895 324.391 72.7839C324.856 72.5784 325.269 72.2704 325.599 71.8828C326.317 71.005 326.683 69.8923 326.628 68.7598C326.681 67.6581 326.328 66.5752 325.635 65.7168ZM324.335 70.7778C324.175 70.9942 323.966 71.1697 323.725 71.2899C323.484 71.4101 323.218 71.4717 322.949 71.4696C322.679 71.4676 322.415 71.402 322.175 71.2781C321.936 71.1542 321.73 70.9756 321.573 70.7568C321.196 70.1866 321.013 69.5103 321.05 68.8278C321.017 68.1433 321.2 67.4655 321.573 66.8908C321.729 66.6604 321.94 66.473 322.187 66.3457C322.435 66.2185 322.71 66.1556 322.988 66.1628C323.257 66.1544 323.523 66.215 323.762 66.3387C324 66.4625 324.203 66.6454 324.351 66.8698C324.717 67.4663 324.891 68.1604 324.851 68.8588C324.89 69.5376 324.708 70.2107 324.333 70.7778H324.335Z" fill="white"/>
<path d="M328 107C333.523 107 338 102.523 338 97C338 91.4772 333.523 87 328 87C322.477 87 318 91.4772 318 97C318 102.523 322.477 107 328 107Z" fill="#10EC00"/>
<path d="M332.233 97.7191C332.203 97.7049 331.096 97.1599 330.899 97.0891C330.817 97.0555 330.73 97.0363 330.642 97.0324C330.566 97.0338 330.492 97.0549 330.426 97.0936C330.361 97.1324 330.307 97.1874 330.269 97.2533C330.158 97.4199 329.824 97.8091 329.721 97.9258C329.708 97.9416 329.689 97.9599 329.678 97.9599C329.666 97.9599 329.497 97.8891 329.444 97.8666C328.55 97.4129 327.788 96.7361 327.233 95.9016C327.224 95.8885 327.218 95.8738 327.214 95.8583C327.232 95.8298 327.254 95.804 327.279 95.7816C327.339 95.7216 327.405 95.6433 327.468 95.5674C327.498 95.5316 327.528 95.4949 327.558 95.4616C327.631 95.3756 327.691 95.2797 327.738 95.1766L327.763 95.1266C327.8 95.0506 327.819 94.9666 327.816 94.8818C327.813 94.7971 327.79 94.7143 327.748 94.6408C327.722 94.5883 327.254 93.4608 327.204 93.3424C327.085 93.0566 326.927 92.9258 326.704 92.9258C326.684 92.9258 326.704 92.9258 326.621 92.9258C326.304 92.9491 325.993 93.0292 325.704 93.1624C325.461 93.3573 325.268 93.6084 325.143 93.8941C325.018 94.1797 324.965 94.4914 324.987 94.8024C325.04 95.5132 325.307 96.1912 325.753 96.7474L325.784 96.7933C326.534 97.9684 327.608 98.901 328.877 99.4783C329.463 99.7564 330.097 99.9185 330.744 99.9558C330.846 99.955 330.947 99.9488 331.048 99.9374L331.103 99.9324C331.388 99.8827 331.658 99.7706 331.895 99.604C332.132 99.4375 332.329 99.2207 332.472 98.9691C332.613 98.6521 332.642 98.2966 332.555 97.9608C332.474 97.8503 332.361 97.7662 332.233 97.7191Z" fill="white"/>
<path d="M328.725 89C326.756 88.9947 324.865 89.7708 323.467 91.1581C322.069 92.5454 321.278 94.4306 321.269 96.4C321.268 97.7166 321.621 99.0092 322.291 100.143L321.01 103.917C320.999 103.952 320.997 103.989 321.005 104.025C321.014 104.06 321.032 104.093 321.058 104.119C321.084 104.145 321.117 104.163 321.152 104.172C321.188 104.18 321.225 104.178 321.26 104.167L325.199 102.917C326.332 103.52 327.601 103.822 328.884 103.792C330.167 103.763 331.42 103.404 332.524 102.749C333.627 102.094 334.543 101.165 335.184 100.053C335.824 98.9415 336.168 97.6832 336.18 96.4C336.171 94.4309 335.38 92.546 333.983 91.1587C332.585 89.7715 330.694 88.9951 328.725 89ZM328.725 102.258C327.57 102.26 326.441 101.923 325.475 101.289C325.451 101.273 325.423 101.263 325.395 101.259C325.366 101.255 325.336 101.257 325.309 101.266L323.333 101.894L323.969 100.015C323.98 99.9849 323.983 99.9526 323.978 99.9209C323.974 99.8893 323.962 99.8592 323.943 99.8334C323.211 98.8385 322.817 97.6352 322.819 96.4C322.809 95.23 323.148 94.0835 323.791 93.1061C324.434 92.1286 325.353 91.3643 326.431 90.91C327.51 90.4557 328.698 90.332 329.847 90.5544C330.996 90.7769 332.053 91.3356 332.883 92.1596C333.714 92.9837 334.281 94.0359 334.513 95.1828C334.745 96.3297 334.631 97.5196 334.185 98.6015C333.739 99.6834 332.983 100.609 332.01 101.26C331.038 101.911 329.895 102.258 328.725 102.258Z" fill="white"/>
<path d="M211.328 148H338.211C340.824 148 343.331 149.038 345.179 150.886C347.027 152.734 348.065 155.241 348.065 157.854V175.59H211.328C207.67 175.59 204.161 174.137 201.573 171.552C198.986 168.966 197.53 165.458 197.528 161.8C197.528 158.14 198.982 154.63 201.57 152.042C204.158 149.454 207.668 148 211.328 148Z" fill="#00AEEF"/>
<text fill="white" xml:space="preserve" style="white-space: pre" font-family="Harmattan" font-size="15" letter-spacing="0em"><tspan x="215" y="165.087">computer proficiency</tspan></text>
<path d="M346.126 276.438H245.126V283.438H346.126V276.438Z" fill="#949598"/>
<path d="M339.126 276.438H245.126V283.438H339.126V276.438Z" fill="#00AEEF"/>
<path d="M341.111 275C342.143 275 343.132 275.479 343.861 276.333C344.59 277.186 345 278.343 345 279.55V280.446C345 281.044 344.9 281.636 344.705 282.189C344.51 282.741 344.223 283.243 343.862 283.666C343.501 284.089 343.072 284.424 342.6 284.653C342.128 284.882 341.622 285 341.111 285C340.702 285 340.298 284.906 339.92 284.723C339.542 284.539 339.199 284.271 338.91 283.933C338.621 283.594 338.392 283.192 338.236 282.75C338.08 282.308 338 281.834 338 281.356V278.64C338 277.675 338.328 276.749 338.911 276.066C339.495 275.384 340.286 275 341.111 275Z" fill="black"/>
<path d="M348 281C349.105 281 350 280.105 350 279C350 277.895 349.105 277 348 277C346.895 277 346 277.895 346 279C346 280.105 346.895 281 348 281Z" fill="#231F20"/>
<path d="M346.126 187.438H245.126V194.438H346.126V187.438Z" fill="#949598"/>
<path d="M346.126 210.438H245.126V216.437H346.126V210.438Z" fill="#949598"/>
<path d="M346.126 231.438H245.126V236.438H346.126V231.438Z" fill="#949598"/>
<path d="M346.126 254.438H245.126V260.437H346.126V254.438Z" fill="#949598"/>
<path d="M339.126 187.438H245.126V194.438H339.126V187.438Z" fill="#00AEEF"/>
<path d="M320.126 210.438H245.126V216.437H320.126V210.438Z" fill="#00AEEF"/>
<path d="M309.126 231.438H245.126V236.438H309.126V231.438Z" fill="#00AEEF"/>
<path d="M309.126 254.438H245.126V260.437H309.126V254.438Z" fill="#00AEEF"/>
<path d="M348 193C349.105 193 350 192.105 350 191C350 189.895 349.105 189 348 189C346.895 189 346 189.895 346 191C346 192.105 346.895 193 348 193Z" fill="#231F20"/>
<path d="M348.126 215.438C349.231 215.438 350.126 214.542 350.126 213.438C350.126 212.333 349.231 211.438 348.126 211.438C347.021 211.438 346.126 212.333 346.126 213.438C346.126 214.542 347.021 215.438 348.126 215.438Z" fill="#231F20"/>
<path d="M337.237 185.438C338.269 185.438 339.258 185.917 339.987 186.77C340.716 187.623 341.126 188.781 341.126 189.988V190.884C341.126 191.482 341.026 192.074 340.831 192.626C340.636 193.179 340.349 193.681 339.988 194.104C339.627 194.526 339.198 194.862 338.726 195.091C338.254 195.32 337.748 195.438 337.237 195.438C336.828 195.438 336.424 195.343 336.046 195.16C335.668 194.977 335.325 194.708 335.036 194.37C334.747 194.032 334.518 193.63 334.362 193.188C334.206 192.746 334.126 192.272 334.126 191.794V189.078C334.126 188.112 334.454 187.186 335.037 186.504C335.621 185.821 336.412 185.438 337.237 185.438Z" fill="black"/>
<path d="M320.237 208.438C321.269 208.438 322.258 208.869 322.987 209.637C323.716 210.405 324.126 211.446 324.126 212.533V213.339C324.126 213.877 324.026 214.41 323.831 214.907C323.636 215.405 323.349 215.856 322.988 216.237C322.627 216.618 322.198 216.919 321.726 217.125C321.254 217.331 320.748 217.438 320.237 217.438C319.828 217.438 319.424 217.353 319.046 217.188C318.668 217.023 318.325 216.781 318.036 216.477C317.747 216.172 317.518 215.811 317.362 215.413C317.206 215.015 317.126 214.589 317.126 214.158V211.714C317.126 210.845 317.454 210.011 318.037 209.397C318.621 208.783 319.412 208.438 320.237 208.438Z" fill="black"/>
<path d="M312.111 229.438C313.143 229.438 314.132 229.869 314.861 230.637C315.59 231.405 316 232.446 316 233.533V234.339C316 234.877 315.9 235.41 315.705 235.907C315.51 236.405 315.223 236.856 314.862 237.237C314.501 237.618 314.072 237.919 313.6 238.125C313.128 238.331 312.622 238.438 312.111 238.438C311.702 238.438 311.298 238.353 310.92 238.188C310.542 238.023 310.199 237.781 309.91 237.477C309.621 237.172 309.392 236.811 309.236 236.413C309.08 236.015 309 235.589 309 235.158V232.714C309 231.845 309.328 231.011 309.911 230.397C310.495 229.783 311.286 229.438 312.111 229.438Z" fill="black"/>
<path d="M310.111 252.438C311.143 252.438 312.132 252.917 312.861 253.77C313.59 254.623 314 255.781 314 256.988V257.884C314 258.482 313.9 259.074 313.705 259.626C313.51 260.179 313.223 260.681 312.862 261.104C312.501 261.526 312.072 261.862 311.6 262.091C311.128 262.32 310.622 262.438 310.111 262.438C309.702 262.438 309.298 262.343 308.92 262.16C308.542 261.977 308.199 261.708 307.91 261.37C307.621 261.032 307.392 260.63 307.236 260.188C307.08 259.746 307 259.272 307 258.794V256.078C307 255.112 307.328 254.186 307.911 253.504C308.495 252.821 309.286 252.438 310.111 252.438Z" fill="black"/>
<path d="M348.126 236.438C349.231 236.438 350.126 235.318 350.126 233.938C350.126 232.557 349.231 231.438 348.126 231.438C347.021 231.438 346.126 232.557 346.126 233.938C346.126 235.318 347.021 236.438 348.126 236.438Z" fill="#231F20"/>
<path d="M348.126 259.438C349.231 259.438 350.126 258.542 350.126 257.438C350.126 256.333 349.231 255.438 348.126 255.438C347.021 255.438 346.126 256.333 346.126 257.438C346.126 258.542 347.021 259.438 348.126 259.438Z" fill="#231F20"/>
<text fill="#FF0040" xml:space="preserve" style="white-space: pre" font-family="Bahij TheSansArabic" font-size="13" font-weight="500" letter-spacing="0em"><tspan x="76.126" y="195.698">Microsoft Word</tspan></text>
<text fill="#FF0040" xml:space="preserve" style="white-space: pre" font-family="Bahij TheSansArabic" font-size="13" font-weight="500" letter-spacing="0em"><tspan x="77.126" y="218.698">Microsoft Excel</tspan></text>
<text fill="#FF0040" xml:space="preserve" style="white-space: pre" font-family="Bahij TheSansArabic" font-size="13" font-weight="500" letter-spacing="0em"><tspan x="77.126" y="239.698">Microsoft Excel VBA</tspan></text>
<text fill="#FF0040" xml:space="preserve" style="white-space: pre" font-family="Bahij TheSansArabic" font-size="13" font-weight="500" letter-spacing="0em"><tspan x="77.126" y="262.698">Microsoft PowerPoint </tspan></text>
<text fill="#FF0040" xml:space="preserve" style="white-space: pre" font-family="Harmattan" font-size="14" font-weight="500" letter-spacing="-0.05em"><tspan x="77.5078" y="282.881">Fast typing on the keyboard</tspan></text>
<path d="M208.576 308H337.554C338.734 308 339.902 308.232 340.992 308.684C342.082 309.135 343.072 309.797 343.906 310.631C344.74 311.465 345.402 312.455 345.853 313.545C346.305 314.635 346.537 315.803 346.537 316.983V333.152H208.576C205.241 333.152 202.042 331.827 199.683 329.469C197.325 327.11 196 323.911 196 320.576C196 317.241 197.325 314.042 199.683 311.683C202.042 309.325 205.241 308 208.576 308Z" fill="#00AEEF"/>
<text fill="white" xml:space="preserve" style="white-space: pre" font-family="Harmattan" font-size="15" font-weight="bold" letter-spacing="0em"><tspan x="237" y="324.087">Programming</tspan></text>
<text fill="#FF0040" xml:space="preserve" style="white-space: pre" font-family="Bahij TheSansArabic" font-size="13" font-weight="500" letter-spacing="0em"><tspan x="78.0332" y="362.261">DART</tspan></text>
<text fill="#FF0040" xml:space="preserve" style="white-space: pre" font-family="Bahij TheSansArabic" font-size="13" font-weight="500" letter-spacing="0em"><tspan x="84.0762" y="386.261">LUTTER</tspan></text>
<text fill="#00BBFF" xml:space="preserve" style="white-space: pre" font-family="Bahij TheSansArabic" font-size="13" font-weight="500" letter-spacing="0em"><tspan x="78.0332" y="386.261">F</tspan></text>
<text fill="#FF0040" xml:space="preserve" style="white-space: pre" font-family="Bahij TheSansArabic" font-size="13" font-weight="500" letter-spacing="0em"><tspan x="78.0332" y="407.261">C#</tspan></text>
<text fill="#FF0040" xml:space="preserve" style="white-space: pre" font-family="Bahij TheSansArabic" font-size="13" font-weight="500" letter-spacing="0em"><tspan x="78.0332" y="434.261">Visual Basic</tspan></text>
<text fill="#FF0040" xml:space="preserve" style="white-space: pre" font-family="Bahij TheSansArabic" font-size="13" font-weight="500" letter-spacing="0em"><tspan x="78.0332" y="460.261">Python </tspan></text>
<path d="M340.725 352.568H244.725V358.568H340.725V352.568Z" fill="#949598"/>
<path d="M340.725 378.568H244.725V384.568H340.725V378.568Z" fill="#949598"/>
<path d="M340.725 403.568H244.725V409.568H340.725V403.568Z" fill="#949598"/>
<path d="M340.725 427.568H244.725V432.568H340.725V427.568Z" fill="#949598"/>
<path d="M340.725 454.568H244.725V459.568H340.725V454.568Z" fill="#949598"/>
<path d="M299.725 352.568H244.725V358.568H299.725V352.568Z" fill="#00AEEF"/>
<path d="M309.725 378.568H244.725V384.568H309.725V378.568Z" fill="#00AEEF"/>
<path d="M292.725 403.568H244.725V409.568H292.725V403.568Z" fill="#00AEEF"/>
<path d="M294.725 427.568H244.725V432.568H294.725V427.568Z" fill="#00AEEF"/>
<path d="M273.725 454.568H244.725V459.568H273.725V454.568Z" fill="#00AEEF"/>
<path d="M303.725 351.568C305.051 351.568 306.323 351.952 307.261 352.634C308.198 353.317 308.725 354.243 308.725 355.208V355.925C308.726 356.404 308.597 356.877 308.346 357.319C308.095 357.761 307.726 358.163 307.262 358.501C306.798 358.84 306.246 359.108 305.64 359.291C305.033 359.474 304.382 359.568 303.725 359.568C303.2 359.568 302.679 359.493 302.194 359.346C301.708 359.2 301.267 358.985 300.895 358.714C300.524 358.444 300.229 358.122 300.028 357.769C299.828 357.415 299.725 357.036 299.725 356.653V354.481C299.725 353.708 300.147 352.967 300.897 352.421C301.647 351.875 302.664 351.568 303.725 351.568Z" fill="black"/>
<path d="M308.725 377.568C310.051 377.568 311.323 377.952 312.261 378.634C313.198 379.317 313.725 380.243 313.725 381.208V381.925C313.726 382.404 313.597 382.877 313.346 383.319C313.095 383.761 312.726 384.163 312.262 384.501C311.798 384.84 311.246 385.108 310.64 385.291C310.033 385.474 309.382 385.568 308.725 385.568C308.2 385.568 307.679 385.493 307.194 385.346C306.708 385.2 306.267 384.985 305.895 384.714C305.524 384.444 305.229 384.122 305.028 383.769C304.828 383.415 304.725 383.036 304.725 382.653V380.481C304.725 379.708 305.147 378.967 305.897 378.421C306.647 377.875 307.664 377.568 308.725 377.568Z" fill="black"/>
<path d="M287.725 401.568C289.051 401.568 290.323 402 291.261 402.768C292.198 403.536 292.725 404.577 292.725 405.663V406.47C292.726 407.008 292.597 407.541 292.346 408.038C292.095 408.535 291.726 408.987 291.262 409.368C290.798 409.748 290.246 410.05 289.64 410.256C289.033 410.462 288.382 410.568 287.725 410.568C287.2 410.568 286.679 410.484 286.194 410.319C285.708 410.154 285.267 409.912 284.895 409.608C284.524 409.303 284.229 408.941 284.028 408.544C283.828 408.146 283.725 407.719 283.725 407.289V404.845C283.725 403.976 284.147 403.142 284.897 402.528C285.647 401.914 286.664 401.568 287.725 401.568Z" fill="black"/>
<path d="M295.17 425.568C296.643 425.568 298.056 426 299.098 426.768C300.14 427.536 300.725 428.577 300.725 429.663V430.47C300.726 431.008 300.582 431.541 300.303 432.038C300.025 432.535 299.615 432.987 299.1 433.368C298.584 433.748 297.971 434.05 297.297 434.256C296.622 434.462 295.9 434.568 295.17 434.568C294.586 434.568 294.007 434.484 293.468 434.319C292.928 434.154 292.438 433.912 292.025 433.608C291.613 433.303 291.285 432.941 291.062 432.544C290.839 432.146 290.725 431.719 290.725 431.289V428.845C290.725 427.976 291.193 427.142 292.027 426.528C292.86 425.914 293.991 425.568 295.17 425.568Z" fill="black"/>
<path d="M270.725 452.568C272.051 452.568 273.323 453 274.261 453.768C275.198 454.536 275.725 455.577 275.725 456.663V457.47C275.726 458.008 275.597 458.541 275.346 459.038C275.095 459.535 274.726 459.987 274.262 460.368C273.798 460.748 273.246 461.05 272.64 461.256C272.033 461.462 271.382 461.568 270.725 461.568C270.2 461.568 269.679 461.484 269.194 461.319C268.708 461.154 268.267 460.912 267.895 460.608C267.524 460.303 267.229 459.941 267.028 459.544C266.828 459.146 266.725 458.719 266.725 458.289V455.845C266.725 454.976 267.147 454.142 267.897 453.528C268.647 452.914 269.664 452.568 270.725 452.568Z" fill="black"/>
<path d="M345.225 357.568C346.606 357.568 347.725 356.673 347.725 355.568C347.725 354.464 346.606 353.568 345.225 353.568C343.844 353.568 342.725 354.464 342.725 355.568C342.725 356.673 343.844 357.568 345.225 357.568Z" fill="#231F20"/>
<path d="M345.225 383.568C346.606 383.568 347.725 382.673 347.725 381.568C347.725 380.464 346.606 379.568 345.225 379.568C343.844 379.568 342.725 380.464 342.725 381.568C342.725 382.673 343.844 383.568 345.225 383.568Z" fill="#231F20"/>
<path d="M345.225 408.568C346.606 408.568 347.725 407.673 347.725 406.568C347.725 405.464 346.606 404.568 345.225 404.568C343.844 404.568 342.725 405.464 342.725 406.568C342.725 407.673 343.844 408.568 345.225 408.568Z" fill="#231F20"/>
<path d="M345.225 431.568C346.606 431.568 347.725 430.673 347.725 429.568C347.725 428.464 346.606 427.568 345.225 427.568C343.844 427.568 342.725 428.464 342.725 429.568C342.725 430.673 343.844 431.568 345.225 431.568Z" fill="#231F20"/>
<path d="M345.225 458.568C346.606 458.568 347.725 457.673 347.725 456.568C347.725 455.464 346.606 454.568 345.225 454.568C343.844 454.568 342.725 455.464 342.725 456.568C342.725 457.673 343.844 458.568 345.225 458.568Z" fill="#231F20"/>
<path d="M256.995 464.364C256.939 464.11 256.692 463.952 256.462 464.013C256.326 464.074 256.221 464.162 256.162 464.264C256.103 464.366 256.093 464.477 256.134 464.583L256.176 464.771L256.607 464.661L256.18 464.775C256.195 464.852 256.233 464.926 256.292 464.993C256.333 465.045 256.386 465.103 256.444 465.171C256.668 465.405 256.867 465.649 257.039 465.902C257.169 466.124 257.441 466.191 257.644 466.052C257.752 465.961 257.821 465.853 257.846 465.738C257.87 465.624 257.849 465.507 257.785 465.4C257.583 465.092 257.346 464.794 257.075 464.51C257.034 464.465 257.028 464.487 257.019 464.48L256.995 464.364Z" fill="#FFFFFE"/>
<path d="M255.569 465.758C255.513 466.012 255.266 466.17 255.036 466.109C254.482 465.968 254.711 465.284 255.014 464.953C255.238 464.719 255.436 464.475 255.609 464.222C255.739 464 256.011 463.933 256.214 464.072C256.322 464.164 256.391 464.272 256.415 464.386C256.439 464.501 256.419 464.617 256.355 464.724C256.173 465.034 255.598 465.574 255.563 465.758H255.569Z" fill="#FFFFFE"/>
<path d="M346.698 49C350.74 49 354.69 48.2083 358.051 46.7249C361.411 45.2415 364.031 43.133 365.577 40.6662C367.124 38.1994 367.529 35.485 366.74 32.8663C365.952 30.2475 364.005 27.8421 361.147 25.9541C358.29 24.0661 354.649 22.7803 350.685 22.2594C346.721 21.7385 342.612 22.0058 338.878 23.0276C335.144 24.0494 331.952 25.7798 329.707 27.9998C327.462 30.2199 326.263 32.83 326.263 35.5C326.263 39.0804 328.416 42.5142 332.248 45.0459C336.081 47.5777 341.278 49 346.698 49Z" fill="#14903D"/>
<path d="M346.698 48.5C350.59 48.5 354.394 47.7376 357.63 46.3091C360.866 44.8807 363.389 42.8503 364.878 40.4749C366.367 38.0995 366.757 35.4856 365.998 32.9638C365.238 30.4421 363.364 28.1257 360.612 26.3076C357.86 24.4895 354.354 23.2514 350.537 22.7498C346.72 22.2482 342.763 22.5056 339.168 23.4896C335.572 24.4735 332.499 26.1398 330.336 28.2776C328.174 30.4154 327.02 32.9289 327.02 35.5C327.02 38.9478 329.093 42.2544 332.784 44.6924C336.474 47.1304 341.479 48.5 346.698 48.5Z" stroke="#707070"/>
<path d="M338.457 27.9888H359.543C359.976 28.0211 360.373 28.1642 360.648 28.3874C360.923 28.6106 361.054 28.8962 361.014 29.1828V41.8548C361.016 42.0887 360.929 42.3192 360.76 42.5248C360.731 42.5866 360.683 42.644 360.621 42.6938C360.582 42.7245 360.535 42.7508 360.483 42.7718C360.362 42.8565 360.217 42.9244 360.056 42.9718C359.895 43.0198 359.72 43.0457 359.543 43.0478H347.066C347.156 42.746 347.192 42.4382 347.172 42.1308H359.168L351.334 35.4548L348.748 37.2438C348.702 37.277 348.646 37.3036 348.584 37.3218C348.522 37.3403 348.455 37.3498 348.387 37.3498C348.318 37.3498 348.251 37.3403 348.189 37.3218C348.127 37.3036 348.071 37.277 348.025 37.2438L345.313 35.4548L342.852 37.4548C342.526 37.2732 342.144 37.1417 341.732 37.0698L344.435 34.8698L339.422 31.5568C339.401 31.3202 339.343 31.0856 339.249 30.8568L339.048 30.1378L348.374 36.3078L359.071 28.9078H338.719L338.457 27.9888ZM334.219 33.7608C334.452 34.8106 334.855 35.8409 335.421 36.8338C336.056 37.9205 336.95 38.9333 338.068 39.8338C338.103 39.8654 338.148 39.8905 338.202 39.9068C338.255 39.9229 338.313 39.9298 338.371 39.9268C338.555 39.9078 338.729 39.8605 338.88 39.7888C339.068 39.7045 339.246 39.6109 339.413 39.5088C340.21 39.0598 341.191 38.5008 342.027 39.1278C342.043 39.1421 342.06 39.1558 342.078 39.1688L344.732 41.5478C344.741 41.5568 344.75 41.5658 344.757 41.5748C344.913 41.7533 345.011 41.9509 345.045 42.1555C345.08 42.36 345.05 42.5671 344.959 42.7638C344.765 43.2042 344.423 43.6099 343.958 43.9508C343.44 44.3436 342.722 44.5973 341.94 44.6638C341.237 44.7162 340.526 44.6884 339.836 44.5818C338.766 44.4277 337.774 44.0916 336.96 43.6068C336.006 43.0303 335.164 42.3773 334.455 41.6628L334.395 41.6028C334.009 41.2318 333.592 40.8338 333.203 40.3908C331.637 38.5457 330.566 36.5354 330.038 34.4488C329.527 32.745 329.732 30.9812 330.63 29.3488C331.029 28.5859 331.844 27.9487 332.916 27.5618C333.407 27.4175 333.944 27.3539 334.481 27.3765C335.018 27.3992 335.538 27.5073 335.998 27.6918C336.068 27.7181 336.127 27.755 336.172 27.7995C336.216 27.8441 336.243 27.8949 336.252 27.9478L337.194 31.3698C337.281 31.5352 337.309 31.712 337.274 31.8858C337.239 32.0597 337.142 32.2257 336.991 32.3698C336.711 32.6078 336.332 32.7867 335.901 32.8848C335.744 32.9367 335.583 32.9828 335.418 33.0228C334.841 33.1758 334.183 33.3548 334.216 33.7748L334.219 33.7608ZM352.179 34.8608L359.867 41.4018V29.5508L352.191 34.8698L352.179 34.8608Z" fill="white"/>
<path d="M348.999 136.958C352.846 136.958 356.608 136.204 359.807 134.792C363.006 133.38 365.499 131.373 366.972 129.024C368.444 126.676 368.83 124.092 368.079 121.599C367.328 119.106 365.475 116.816 362.755 115.018C360.034 113.221 356.568 111.997 352.794 111.501C349.02 111.005 345.109 111.259 341.554 112.232C337.999 113.205 334.961 114.852 332.823 116.966C330.686 119.079 329.545 121.564 329.545 124.106C329.545 127.514 331.595 130.783 335.243 133.194C338.891 135.604 343.839 136.958 348.999 136.958Z" fill="#00AEEF" stroke="#707070"/>
<path d="M350.385 125.367H350.359L349.465 124.685C350.336 124.908 351.304 124.908 352.176 124.685L351.267 125.367H351.251L353.453 128.885L355.465 127.122L357.696 128.23L359.099 126.84C357.607 125.607 355.551 124.726 353.238 124.33C354.14 123.899 354.88 123.337 355.4 122.687C355.919 122.036 356.205 121.316 356.234 120.581C356.234 119.631 355.663 118.72 354.646 118.049C353.63 117.377 352.251 117 350.814 117C349.377 117 347.998 117.377 346.982 118.049C345.965 118.72 345.394 119.631 345.394 120.581C345.424 121.316 345.71 122.037 346.231 122.687C346.752 123.337 347.492 123.899 348.396 124.33C344.158 125.04 341 127.474 341 129.28C341 130.347 345.907 130.88 350.813 130.88L348.066 129.062L350.385 125.367Z" fill="white"/>
</svg>
