<svg width="454" height="386" viewBox="0 0 454 386" fill="none" xmlns="http://www.w3.org/2000/svg">
<path d="M203 80C203 84.4183 197.866 88 194 88C190.134 88 187 84.4183 187 80C187 75.5817 190.134 72 194 72C197.866 72 203 75.5817 203 80Z" fill="#00AEEF"/>
<path d="M195.68 86C196.68 86 197.564 85.5133 198.11 84.7685V80.1671L196.951 79.5221L196.989 82.9081C196.99 83.0103 196.935 83.1055 196.846 83.1575L193.62 85.0252C194.125 85.636 194.874 86 195.68 86ZM192.428 85.0536L196.409 82.749L196.394 81.431L193.447 83.1569C193.358 83.2089 193.249 83.2106 193.158 83.1608L189.901 81.349C189.627 82.0815 189.687 82.9019 190.085 83.5827C190.487 84.2707 191.135 84.7631 191.912 84.9688C192.083 85.0142 192.255 85.0388 192.428 85.0536ZM198.689 83.7032C199.494 83.5812 200.186 83.1178 200.595 82.4176C200.997 81.7296 201.104 80.9284 200.896 80.161C200.846 79.9773 200.774 79.8044 200.692 79.637L196.704 77.4195L195.556 78.0913L198.542 79.7514C198.632 79.802 198.689 79.8971 198.689 80.0003V83.7032ZM193.297 82.5811L194.444 81.9092L191.459 80.2492C191.368 80.1983 191.312 80.1034 191.312 80.0003V76.3018C190.515 76.4229 189.812 76.8847 189.405 77.5824C189.003 78.2704 188.896 79.0722 189.104 79.8396C189.154 80.0233 189.226 80.1967 189.309 80.3641L193.297 82.5811ZM195.019 81.5728L196.387 80.7714L196.369 79.199L194.983 78.4278L193.614 79.2291L193.631 80.8016L195.019 81.5728ZM193.049 80.4779L193.011 77.0925C193.01 76.9908 193.064 76.8956 193.153 76.8436L196.364 74.9575C195.86 74.3573 195.121 74 194.32 74C193.321 74 192.436 74.487 191.89 75.2315V79.8329L193.049 80.4779ZM200.099 78.651C200.373 77.9185 200.314 77.101 199.915 76.4179C199.513 75.7299 198.865 75.238 198.089 75.0323C197.901 74.9823 197.71 74.957 197.519 74.9436L193.591 77.251L193.606 78.5695L196.553 76.8436C196.598 76.817 196.649 76.8034 196.7 76.8034C196.749 76.8034 196.798 76.816 196.842 76.8403L200.099 78.651Z" fill="white"/>
<path d="M203 127C203 131.418 197.866 135 194 135C190.134 135 187 131.418 187 127C187 122.582 190.134 119 194 119C197.866 119 203 122.582 203 127Z" fill="#00AEEF"/>
<path d="M187.075 182.028C186.481 176.52 192.691 171.396 197.729 170.899C202.767 170.403 207.332 174.465 207.925 179.972C208.519 185.48 204.916 190.347 199.878 190.844C194.84 191.34 187.668 187.535 187.075 182.028Z" fill="#00AEEF"/>
<path d="M184.039 154.235C183.465 148.668 189.713 143.464 194.769 142.943C199.824 142.422 204.387 146.512 204.961 152.078C205.535 157.644 201.902 162.579 196.846 163.1C191.791 163.621 184.613 159.801 184.039 154.235Z" fill="#00AEEF"/>
<path d="M191.102 147.357C191.046 146.807 191.638 146.296 192.119 146.247C192.6 146.197 193.035 146.602 193.092 147.152C193.148 147.701 192.805 148.187 192.324 148.236C191.843 148.286 191.159 147.906 191.102 147.357Z" fill="white"/>
<path d="M193.102 152.357C193.046 151.807 193.638 151.296 194.119 151.247C194.6 151.197 195.035 151.602 195.092 152.152C195.148 152.701 194.805 153.187 194.324 153.236C193.843 153.286 193.159 152.906 193.102 152.357Z" fill="white"/>
<path d="M198.102 154.357C198.046 153.807 198.638 153.296 199.119 153.247C199.6 153.197 200.035 153.602 200.092 154.152C200.148 154.701 199.805 155.187 199.324 155.236C198.843 155.286 198.159 154.906 198.102 154.357Z" fill="white"/>
<path d="M193.102 158.357C193.046 157.807 193.638 157.296 194.119 157.247C194.6 157.197 195.035 157.602 195.092 158.152C195.148 158.701 194.805 159.187 194.324 159.236C193.843 159.286 193.159 158.906 193.102 158.357Z" fill="white"/>
<path d="M200.455 149.865C200.398 149.315 200.991 148.804 201.471 148.755C201.952 148.705 202.388 149.11 202.444 149.66C202.501 150.209 202.157 150.694 201.676 150.744C201.196 150.794 200.512 150.414 200.455 149.865Z" fill="white"/>
<path d="M196.322 148.783C196.237 147.959 197.126 147.192 197.847 147.118C198.568 147.044 199.221 147.652 199.306 148.476C199.391 149.3 198.875 150.028 198.154 150.102C197.433 150.177 196.407 149.607 196.322 148.783Z" fill="white"/>
<path d="M186.282 156.156C186.197 155.332 187.086 154.566 187.807 154.491C188.528 154.417 189.182 155.025 189.267 155.849C189.352 156.673 188.836 157.401 188.115 157.475C187.394 157.55 186.367 156.98 186.282 156.156Z" fill="white"/>
<path d="M185.77 151.183C185.685 150.359 186.573 149.592 187.295 149.518C188.016 149.443 188.669 150.051 188.754 150.875C188.839 151.699 188.323 152.427 187.602 152.502C186.881 152.576 185.855 152.007 185.77 151.183Z" fill="white"/>
<path d="M197.347 158.731C197.262 157.906 198.151 157.14 198.872 157.065C199.593 156.991 200.247 157.599 200.332 158.423C200.416 159.247 199.901 159.975 199.18 160.05C198.459 160.124 197.432 159.555 197.347 158.731Z" fill="white"/>
<path d="M203 103C203 107.418 197.866 111 194 111C190.134 111 187 107.418 187 103C187 98.5817 190.134 95 194 95C197.866 95 203 98.5817 203 103Z" fill="#00AEEF"/>
<path d="M222 190C227.523 190 232 185.523 232 180C232 174.477 227.523 170 222 170C216.477 170 212 174.477 212 180C212 185.523 216.477 190 222 190Z" fill="#00AEEF"/>
<path d="M221.928 172.282C219.881 172.351 217.945 173.229 216.544 174.723C215.143 176.218 214.391 178.207 214.454 180.254C214.426 181.887 214.901 183.49 215.816 184.843C216.731 186.196 218.04 187.234 219.566 187.816C219.608 187.826 219.65 187.83 219.692 187.83C219.745 187.832 219.797 187.823 219.846 187.804C219.894 187.784 219.938 187.755 219.975 187.717C220.011 187.679 220.039 187.634 220.056 187.584C220.074 187.535 220.081 187.482 220.076 187.43C220.076 187.23 220.076 186.74 220.066 186.072C219.819 186.133 219.566 186.164 219.312 186.166C218.931 186.192 218.553 186.092 218.234 185.882C217.915 185.673 217.673 185.364 217.546 185.004C217.416 184.53 217.122 184.117 216.716 183.838C216.066 183.362 216.716 183.348 216.762 183.348C217.003 183.391 217.231 183.487 217.429 183.63C217.627 183.773 217.79 183.959 217.906 184.174C218.02 184.431 218.205 184.65 218.439 184.805C218.674 184.959 218.948 185.043 219.228 185.046C219.524 185.042 219.816 184.974 220.082 184.846C220.114 184.447 220.281 184.071 220.556 183.78C220.062 183.781 219.574 183.675 219.125 183.469C218.675 183.264 218.276 182.964 217.953 182.59C217.63 182.216 217.392 181.776 217.255 181.302C217.117 180.827 217.084 180.329 217.156 179.84C217.142 179.058 217.415 178.297 217.924 177.702C217.697 177.013 217.723 176.264 217.998 175.592C218.053 175.579 218.108 175.572 218.164 175.574C218.864 175.655 219.522 175.947 220.052 176.41C221.275 176.054 222.574 176.054 223.796 176.41C224.326 175.947 224.985 175.655 225.684 175.574C225.74 175.572 225.796 175.579 225.85 175.592C226.126 176.264 226.152 177.013 225.924 177.702C226.433 178.297 226.706 179.058 226.692 179.84C226.765 180.33 226.732 180.829 226.593 181.304C226.455 181.779 226.215 182.219 225.891 182.592C225.566 182.966 225.165 183.265 224.714 183.469C224.263 183.672 223.773 183.776 223.278 183.772C223.459 183.971 223.597 184.204 223.684 184.458C223.772 184.712 223.806 184.981 223.786 185.248C223.786 186.314 223.776 187.174 223.776 187.434C223.772 187.486 223.778 187.539 223.796 187.588C223.813 187.637 223.84 187.682 223.876 187.72C223.912 187.758 223.956 187.788 224.004 187.807C224.052 187.827 224.104 187.836 224.156 187.834C224.201 187.834 224.246 187.83 224.29 187.82C225.817 187.238 227.126 186.2 228.041 184.847C228.956 183.494 229.431 181.891 229.402 180.258C229.467 178.21 228.716 176.22 227.315 174.725C225.913 173.23 223.976 172.351 221.928 172.282Z" fill="white"/>
<path d="M206.462 33H331.541C332.72 33 333.889 33.2324 334.978 33.6838C336.068 34.1352 337.059 34.7969 337.893 35.6311C338.727 36.4652 339.389 37.4555 339.84 38.5454C340.291 39.6352 340.524 40.8033 340.524 41.983V58.152H206.462C203.126 58.152 199.928 56.827 197.569 54.4686C195.211 52.1101 193.886 48.9114 193.886 45.576C193.886 42.2406 195.211 39.0419 197.569 36.6834C199.928 34.325 203.126 33 206.462 33Z" fill="#00AEEF"/>
<text fill="#FEFEFE" xml:space="preserve" style="white-space: pre" font-family="Harmattan" font-size="15" font-weight="bold" letter-spacing="0em"><tspan x="260" y="48.0872">AI</tspan></text>
<path d="M344.208 78.0996H259.208V84.0996H344.208V78.0996Z" fill="#949598"/>
<path d="M344.208 102.1H259.208V107.1H344.208V102.1Z" fill="#949598"/>
<path d="M344.208 126.1H259.208V131.1H344.208V126.1Z" fill="#949598"/>
<path d="M344.208 150.1H259.208V155.1H344.208V150.1Z" fill="#949598"/>
<path d="M344.208 177.1H259.208V183.1H344.208V177.1Z" fill="#949598"/>
<path d="M327 78H243V84H327V78Z" fill="#00AEEF"/>
<path d="M327.208 102.1H243.208V107.1H327.208V102.1Z" fill="#00AEEF"/>
<path d="M327.208 149.1H243.208V155.1H327.208V149.1Z" fill="#00AEEF"/>
<path d="M327.208 126.1H243.208V131.1H327.208V126.1Z" fill="#00AEEF"/>
<path d="M327.208 177.1H243.208V183.1H327.208V177.1Z" fill="#00AEEF"/>
<path d="M325.763 77.0996C326.942 77.0996 328.072 77.4831 328.906 78.1657C329.739 78.8484 330.208 79.7742 330.208 80.7396V81.4567C330.208 81.9349 330.093 82.4086 329.87 82.8505C329.647 83.2925 329.32 83.6941 328.907 84.0324C328.494 84.3708 328.004 84.6391 327.465 84.8223C326.925 85.0054 326.347 85.0996 325.763 85.0996C325.296 85.0996 324.833 85.0242 324.402 84.8777C323.97 84.7311 323.578 84.5163 323.248 84.2456C322.917 83.9749 322.656 83.6535 322.477 83.2998C322.299 82.9462 322.207 82.5672 322.208 82.1845V80.0118C322.208 79.2394 322.582 78.4987 323.249 77.9526C323.916 77.4064 324.82 77.0996 325.763 77.0996Z" fill="black"/>
<path d="M325.763 100.1C326.942 100.1 328.072 100.531 328.906 101.299C329.739 102.067 330.208 103.109 330.208 104.195V105.001C330.208 105.539 330.093 106.072 329.87 106.569C329.647 107.067 329.32 107.518 328.907 107.899C328.494 108.28 328.004 108.582 327.465 108.788C326.925 108.994 326.347 109.1 325.763 109.1C325.296 109.1 324.833 109.015 324.402 108.85C323.97 108.685 323.578 108.443 323.248 108.139C322.917 107.834 322.656 107.473 322.477 107.075C322.299 106.677 322.207 106.251 322.208 105.82V103.376C322.208 102.507 322.582 101.674 323.249 101.059C323.916 100.445 324.82 100.1 325.763 100.1Z" fill="black"/>
<path d="M325.763 148.1C326.942 148.1 328.072 148.531 328.906 149.299C329.739 150.067 330.208 151.109 330.208 152.195V153.001C330.208 153.539 330.093 154.072 329.87 154.569C329.647 155.067 329.32 155.518 328.907 155.899C328.494 156.28 328.004 156.582 327.465 156.788C326.925 156.994 326.347 157.1 325.763 157.1C325.296 157.1 324.833 157.015 324.402 156.85C323.97 156.685 323.578 156.443 323.248 156.139C322.917 155.834 322.656 155.473 322.477 155.075C322.299 154.677 322.207 154.251 322.208 153.82V151.376C322.208 150.507 322.582 149.674 323.249 149.059C323.916 148.445 324.82 148.1 325.763 148.1Z" fill="black"/>
<path d="M325.763 124.1C326.942 124.1 328.072 124.531 328.906 125.299C329.739 126.067 330.208 127.109 330.208 128.195V129.001C330.208 129.539 330.093 130.072 329.87 130.569C329.647 131.067 329.32 131.518 328.907 131.899C328.494 132.28 328.004 132.582 327.465 132.788C326.925 132.994 326.347 133.1 325.763 133.1C325.296 133.1 324.833 133.015 324.402 132.85C323.97 132.685 323.578 132.443 323.248 132.139C322.917 131.834 322.656 131.473 322.477 131.075C322.299 130.677 322.207 130.251 322.208 129.82V127.376C322.208 126.507 322.582 125.674 323.249 125.059C323.916 124.445 324.82 124.1 325.763 124.1Z" fill="black"/>
<path d="M325.763 176.1C326.942 176.1 328.072 176.483 328.906 177.166C329.739 177.848 330.208 178.774 330.208 179.74V180.457C330.208 180.935 330.093 181.409 329.87 181.851C329.647 182.293 329.32 182.694 328.907 183.032C328.494 183.371 328.004 183.639 327.465 183.822C326.925 184.005 326.347 184.1 325.763 184.1C325.296 184.1 324.833 184.024 324.402 183.878C323.97 183.731 323.578 183.516 323.248 183.246C322.917 182.975 322.656 182.653 322.477 182.3C322.299 181.946 322.207 181.567 322.208 181.184V179.012C322.208 178.239 322.582 177.499 323.249 176.953C323.916 176.406 324.82 176.1 325.763 176.1Z" fill="black"/>
<path d="M338.191 255.668C339.572 255.668 340.691 254.773 340.691 253.668C340.691 252.563 339.572 251.668 338.191 251.668C336.81 251.668 335.691 252.563 335.691 253.668C335.691 254.773 336.81 255.668 338.191 255.668Z" fill="#231F20"/>
<path d="M338.191 255.668C339.572 255.668 340.691 254.773 340.691 253.668C340.691 252.563 339.572 251.668 338.191 251.668C336.81 251.668 335.691 252.563 335.691 253.668C335.691 254.773 336.81 255.668 338.191 255.668Z" fill="#231F20"/>
<path d="M338.191 275.668C339.572 275.668 340.691 274.773 340.691 273.668C340.691 272.563 339.572 271.668 338.191 271.668C336.81 271.668 335.691 272.563 335.691 273.668C335.691 274.773 336.81 275.668 338.191 275.668Z" fill="#231F20"/>
<path d="M338.191 295.668C339.572 295.668 340.691 294.773 340.691 293.668C340.691 292.563 339.572 291.668 338.191 291.668C336.81 291.668 335.691 292.563 335.691 293.668C335.691 294.773 336.81 295.668 338.191 295.668Z" fill="#231F20"/>
<path d="M338.191 315.668C339.572 315.668 340.691 314.773 340.691 313.668C340.691 312.563 339.572 311.668 338.191 311.668C336.81 311.668 335.691 312.563 335.691 313.668C335.691 314.773 336.81 315.668 338.191 315.668Z" fill="#231F20"/>
<path d="M338.191 334.668C339.572 334.668 340.691 333.773 340.691 332.668C340.691 331.563 339.572 330.668 338.191 330.668C336.81 330.668 335.691 331.563 335.691 332.668C335.691 333.773 336.81 334.668 338.191 334.668Z" fill="#231F20"/>
<path d="M338.191 354.668C339.572 354.668 340.691 353.773 340.691 352.668C340.691 351.563 339.572 350.668 338.191 350.668C336.81 350.668 335.691 351.563 335.691 352.668C335.691 353.773 336.81 354.668 338.191 354.668Z" fill="#231F20"/>
<path d="M171.609 208H326.851C328.315 208 329.765 208.231 331.117 208.68C332.47 209.128 333.699 209.786 334.734 210.615C335.77 211.444 336.591 212.429 337.151 213.512C337.712 214.595 338 215.756 338 216.929V233H171.609C167.469 233 163.499 231.683 160.572 229.339C157.644 226.995 156 223.815 156 220.5C156 217.185 157.644 214.005 160.572 211.661C163.499 209.317 167.469 208 171.609 208Z" fill="#00AEEF"/>
<text fill="#FEFEFE" xml:space="preserve" style="white-space: pre" font-family="Harmattan" font-size="15" font-weight="bold" letter-spacing="0em"><tspan x="170" y="223.087">Mastering the art of printing</tspan></text>
<path d="M332.691 251.668H242.691V256.668H332.691V251.668Z" fill="#949598"/>
<path d="M332.691 271.668H242.691V276.668H332.691V271.668Z" fill="#949598"/>
<path d="M332.691 291.668H242.691V296.668H332.691V291.668Z" fill="#949598"/>
<path d="M332.691 311.668H242.691V316.668H332.691V311.668Z" fill="#949598"/>
<path d="M332.691 330.668H242.691V335.668H332.691V330.668Z" fill="#949598"/>
<path d="M332.691 350.668H242.691V355.668H332.691V350.668Z" fill="#949598"/>
<path d="M330.691 251.668H242.691V256.668H330.691V251.668Z" fill="#00AEEF"/>
<path d="M330.691 271.668H242.691V276.668H330.691V271.668Z" fill="#00AEEF"/>
<path d="M330.691 291.668H242.691V296.668H330.691V291.668Z" fill="#00AEEF"/>
<path d="M303.691 350.668H242.691V355.668H303.691V350.668Z" fill="#00AEEF"/>
<path d="M330.691 311.668H242.691V316.668H330.691V311.668Z" fill="#00AEEF"/>
<path d="M304.691 330.668H242.691V335.668H304.691V330.668Z" fill="#00AEEF"/>
<path d="M327.247 250.668C328.425 250.668 329.556 251.051 330.389 251.734C331.223 252.417 331.691 253.343 331.691 254.308V255.025C331.691 255.503 331.577 255.977 331.354 256.419C331.131 256.861 330.803 257.262 330.39 257.601C329.978 257.939 329.488 258.208 328.948 258.391C328.409 258.574 327.831 258.668 327.247 258.668C326.779 258.668 326.317 258.593 325.885 258.446C325.453 258.299 325.061 258.085 324.731 257.814C324.401 257.543 324.139 257.222 323.961 256.868C323.782 256.515 323.69 256.136 323.691 255.753V253.58C323.691 252.808 324.066 252.067 324.732 251.521C325.399 250.975 326.304 250.668 327.247 250.668Z" fill="black"/>
<path d="M327.247 270.668C328.425 270.668 329.556 271.051 330.389 271.734C331.223 272.417 331.691 273.343 331.691 274.308V275.025C331.691 275.503 331.577 275.977 331.354 276.419C331.131 276.861 330.803 277.262 330.39 277.601C329.978 277.939 329.488 278.208 328.948 278.391C328.409 278.574 327.831 278.668 327.247 278.668C326.779 278.668 326.317 278.593 325.885 278.446C325.453 278.299 325.061 278.085 324.731 277.814C324.401 277.543 324.139 277.222 323.961 276.868C323.782 276.515 323.69 276.136 323.691 275.753V273.58C323.691 272.808 324.066 272.067 324.732 271.521C325.399 270.975 326.304 270.668 327.247 270.668Z" fill="black"/>
<path d="M327.247 290.668C328.425 290.668 329.556 291.051 330.389 291.734C331.223 292.417 331.691 293.343 331.691 294.308V295.025C331.691 295.503 331.577 295.977 331.354 296.419C331.131 296.861 330.803 297.262 330.39 297.601C329.978 297.939 329.488 298.208 328.948 298.391C328.409 298.574 327.831 298.668 327.247 298.668C326.779 298.668 326.317 298.593 325.885 298.446C325.453 298.299 325.061 298.085 324.731 297.814C324.401 297.543 324.139 297.222 323.961 296.868C323.782 296.515 323.69 296.136 323.691 295.753V293.58C323.691 292.808 324.066 292.067 324.732 291.521C325.399 290.975 326.304 290.668 327.247 290.668Z" fill="black"/>
<path d="M302.691 349.668C304.017 349.668 305.289 350.051 306.226 350.734C307.164 351.417 307.691 352.343 307.691 353.308V354.025C307.691 354.503 307.563 354.977 307.311 355.419C307.06 355.861 306.692 356.262 306.228 356.601C305.764 356.939 305.212 357.208 304.605 357.391C303.998 357.574 303.348 357.668 302.691 357.668C302.165 357.668 301.645 357.593 301.159 357.446C300.674 357.299 300.233 357.085 299.861 356.814C299.49 356.543 299.195 356.222 298.994 355.868C298.793 355.515 298.69 355.136 298.691 354.753V352.58C298.691 351.808 299.112 351.067 299.863 350.521C300.613 349.975 301.63 349.668 302.691 349.668Z" fill="black"/>
<path d="M327.247 310.668C328.425 310.668 329.556 311.051 330.389 311.734C331.223 312.417 331.691 313.343 331.691 314.308V315.025C331.691 315.503 331.577 315.977 331.354 316.419C331.131 316.861 330.803 317.262 330.39 317.601C329.978 317.939 329.488 318.208 328.948 318.391C328.409 318.574 327.831 318.668 327.247 318.668C326.779 318.668 326.317 318.593 325.885 318.446C325.453 318.299 325.061 318.085 324.731 317.814C324.401 317.543 324.139 317.222 323.961 316.868C323.782 316.515 323.69 316.136 323.691 315.753V313.58C323.691 312.808 324.066 312.067 324.732 311.521C325.399 310.975 326.304 310.668 327.247 310.668Z" fill="black"/>
<path d="M302.691 329.668C304.017 329.668 305.289 330.051 306.226 330.734C307.164 331.417 307.691 332.343 307.691 333.308V334.025C307.691 334.503 307.563 334.977 307.311 335.419C307.06 335.861 306.692 336.262 306.228 336.601C305.764 336.939 305.212 337.208 304.605 337.391C303.998 337.574 303.348 337.668 302.691 337.668C302.165 337.668 301.645 337.593 301.159 337.446C300.674 337.299 300.233 337.085 299.861 336.814C299.49 336.543 299.195 336.222 298.994 335.868C298.793 335.515 298.69 335.136 298.691 334.753V332.58C298.691 331.808 299.112 331.067 299.863 330.521C300.613 329.975 301.63 329.668 302.691 329.668Z" fill="black"/>
<text fill="#FF0040" xml:space="preserve" style="white-space: pre" font-family="Bahij TheSansArabic" font-size="13" font-weight="500" letter-spacing="0em"><tspan x="80.124" y="261.261">Adobe Acrobat</tspan></text>
<text fill="#FF0040" xml:space="preserve" style="white-space: pre" font-family="Bahij TheSansArabic" font-size="13" font-weight="500" letter-spacing="0em"><tspan x="80.124" y="358.261">Printer hardware</tspan></text>
<text fill="#FF0040" xml:space="preserve" style="white-space: pre" font-family="Bahij TheSansArabic" font-size="13" font-weight="500" letter-spacing="0em"><tspan x="80.124" y="280.261">pdf xchange editor</tspan></text>
<text fill="#FF0040" xml:space="preserve" style="white-space: pre" font-family="Bahij TheSansArabic" font-size="13" font-weight="500" letter-spacing="0em"><tspan x="79.124" y="301.261">PDFsam Enhanced</tspan></text>
<text fill="#FF0040" xml:space="preserve" style="white-space: pre" font-family="Bahij TheSansArabic" font-size="13" font-weight="500" letter-spacing="0em"><tspan x="80.124" y="320.261">i top pdf</tspan></text>
<text fill="#FF0040" xml:space="preserve" style="white-space: pre" font-family="Bahij TheSansArabic" font-size="13" font-weight="500" letter-spacing="0em"><tspan x="79" y="339.261">adobe indesign scripting</tspan></text>
<text fill="#FF0040" xml:space="preserve" style="white-space: pre" font-family="Bahij TheSansArabic" font-size="13" font-weight="500" letter-spacing="0em"><tspan x="77" y="85.261">chat GPT</tspan></text>
<text fill="#FF0040" xml:space="preserve" style="white-space: pre" font-family="Bahij TheSansArabic" font-size="13" font-weight="500" letter-spacing="0em"><tspan x="77" y="109.261">gemini</tspan></text>
<text fill="#FF0040" xml:space="preserve" style="white-space: pre" font-family="Bahij TheSansArabic" font-size="13" font-weight="500" letter-spacing="0em"><tspan x="77" y="133.261">DeepAI</tspan></text>
<text fill="#FF0040" xml:space="preserve" style="white-space: pre" font-family="Bahij TheSansArabic" font-size="13" font-weight="500" letter-spacing="0em"><tspan x="76" y="159.261">BLACKBOX.AI</tspan></text>
<text fill="#FF0040" xml:space="preserve" style="white-space: pre" font-family="Bahij TheSansArabic" font-size="13" font-weight="500" letter-spacing="0em"><tspan x="77" y="185.261">GitHub Copilot </tspan></text>
<path d="M207 181.781C207 181.349 206.749 181 206.438 181C206.128 181 205.877 181.349 205.877 181.781V183.219C205.877 183.651 206.128 184 206.438 184C206.749 184 207 183.651 207 183.219V181.781ZM203.562 181C203.871 181 204.123 181.349 204.123 181.781V183.219C204.123 183.651 203.871 184 203.562 184C203.251 184 203 183.651 203 183.219V181.781C203 181.349 203.251 181 203.562 181Z" fill="white"/>
<path fill-rule="evenodd" clip-rule="evenodd" d="M191 181.884V183.953C191.001 184.221 191.094 184.481 191.246 184.639C193.037 186.502 195.248 188 197.5 188C199.992 188 202.486 185.961 203.754 184.639C203.906 184.481 203.999 184.221 204 183.954V181.884C204 181.613 203.939 181.349 203.826 181.13L203.43 180.37C203.219 179.962 202.903 179.854 202.567 179.854C202.441 177.8 202.141 176.334 201.424 175.262C200.06 173.208 198.248 173 197.5 173C196.752 173 194.94 173.208 193.576 175.262C192.86 176.334 192.559 177.8 192.433 179.854C192.096 179.854 191.782 179.96 191.57 180.37L191.175 181.131C191.061 181.351 191 181.613 191 181.884H191ZM193.48 180.944C193.497 180.473 193.766 180.288 194.047 180.157C194.343 180.421 194.703 180.524 195.049 180.524C195.416 180.524 196.101 180.399 196.671 179.592C196.814 179.389 196.913 179.07 196.979 178.717C197.152 178.692 197.325 178.679 197.499 178.678C197.654 178.678 197.832 178.691 198.021 178.717C198.087 179.07 198.186 179.389 198.329 179.592C198.898 180.399 199.584 180.524 199.951 180.524C200.297 180.524 200.658 180.422 200.954 180.157C201.233 180.288 201.501 180.476 201.52 180.944C201.549 181.83 201.552 182.715 201.555 183.6C201.556 184.044 201.557 184.489 201.562 184.933C201.56 185.191 201.451 185.431 201.286 185.538C199.941 186.408 198.669 186.846 197.499 186.846C196.331 186.846 195.059 186.408 193.715 185.538C193.55 185.431 193.44 185.191 193.439 184.933C193.423 183.605 193.436 182.272 193.481 180.944H193.48V180.944ZM201.27 179.093C201.051 179.404 200.636 179.612 200.189 179.612C199.848 179.612 199.198 179.508 198.662 178.734C198.426 178.412 198.28 177.604 198.296 176.784C198.313 176.127 198.442 175.584 198.637 175.354C198.849 175.088 199.328 174.973 199.865 175.042C200.433 175.123 200.912 175.388 201.156 175.758C201.684 176.577 201.571 178.654 201.27 179.093ZM197.955 177.073C197.939 177.2 197.931 177.338 197.923 177.488C197.923 177.592 197.923 177.696 197.931 177.811C197.768 177.788 197.63 177.788 197.5 177.788C197.37 177.788 197.232 177.788 197.069 177.811C197.078 177.696 197.078 177.592 197.078 177.488C197.069 177.338 197.061 177.2 197.045 177.073C197.216 177.05 197.37 177.038 197.5 177.038C197.63 177.038 197.785 177.05 197.955 177.073ZM196.704 176.784C196.72 177.604 196.574 178.412 196.338 178.734C195.802 179.508 195.152 179.612 194.811 179.612C194.364 179.612 193.949 179.404 193.73 179.093C193.429 178.654 193.316 176.577 193.844 175.758C194.088 175.388 194.567 175.123 195.135 175.042C195.672 174.973 196.151 175.088 196.363 175.354C196.557 175.584 196.687 176.127 196.704 176.784Z" fill="white"/>
<path d="M128.281 129.056H126.531V127.306H128.281V129.056Z" fill="white"/>
<path d="M194.34 132.205C194.322 132.205 194.305 132.205 194.287 132.205C193.228 132.191 191.693 131.816 190.391 130.108C190.308 129.999 190.312 129.847 190.399 129.743C190.487 129.639 190.636 129.609 190.757 129.672C190.781 129.684 193.126 130.882 194.551 129.996C195.339 129.508 195.723 128.447 195.693 126.846C195.69 126.696 195.802 126.568 195.951 126.55C195.989 126.547 196.718 126.471 197.5 127.091C197.377 126.755 197.106 126.357 196.529 126.02C195.611 125.485 194.463 125.458 193.534 125.949C193.097 126.18 192.674 126.502 192.277 126.908C192.132 127.056 191.931 127.137 191.724 127.133C191.521 127.127 191.327 127.037 191.193 126.884C190.969 126.63 190.946 126.258 191.137 125.979L191.284 125.765C190.884 125.324 190.516 124.465 191.176 123.409C192.083 121.959 194.343 121.368 195.991 122.126C196.832 121.785 198.452 121.616 199.363 123.155C199.408 123.23 199.417 123.321 199.387 123.403C199.357 123.485 199.292 123.549 199.21 123.579L198.323 123.891C198.769 124.519 199.618 125.962 199.447 127.651C199.311 128.983 198.572 130.17 197.248 131.18C196.377 131.842 195.347 132.205 194.34 132.205Z" fill="white"/>
<path d="M188.143 102.987C189.922 102.877 191.6 102.121 192.86 100.861C194.121 99.6003 194.877 97.9224 194.986 96.1431L195.014 96.1431C195.123 97.9225 195.879 99.6005 197.139 100.861C198.4 102.122 200.078 102.878 201.857 102.987L201.857 103.014C200.078 103.123 198.4 103.879 197.139 105.14C195.879 106.4 195.123 108.078 195.014 109.857L194.986 109.857C194.877 108.078 194.121 106.4 192.86 105.14C191.6 103.879 189.922 103.123 188.143 103.014L188.143 102.987Z" fill="url(#paint0_radial_187_2466)"/>
<path d="M381 272L381 333" stroke="white"/>
<path d="M38 272L38 333" stroke="white"/>
<path d="M381 272L381 333" stroke="white"/>
<path d="M38 272L38 333" stroke="white"/>
<defs>
<radialGradient id="paint0_radial_187_2466" cx="0" cy="0" r="1" gradientUnits="userSpaceOnUse" gradientTransform="translate(200.496 104.283) rotate(-161.317) scale(14.5971 116.932)">
<stop offset="0.067" stop-color="#9168C0"/>
<stop offset="0.343" stop-color="white"/>
<stop offset="0.672" stop-color="#8ED8FD"/>
</radialGradient>
</defs>
</svg>
