<svg width="454" height="204" viewBox="0 0 454 204" fill="none" xmlns="http://www.w3.org/2000/svg">
<text fill="#FF0040" xml:space="preserve" style="white-space: pre" font-family="Bahij TheSansArabic" font-size="20" font-weight="500" letter-spacing="0em"><tspan x="52" y="100.286">Adobe XD</tspan></text>
<text fill="#FF0040" xml:space="preserve" style="white-space: pre" font-family="Bahij TheSansArabic" font-size="20" font-weight="500" letter-spacing="0em"><tspan x="52" y="121.286">Figma </tspan></text>
<path d="M217 122H148V121H217V122Z" fill="#00AEEF"/>
<path d="M217 98H148V97H217V98Z" fill="#00AEEF"/>
<path d="M127.954 45H281.319C282.721 45 284.11 45.2864 285.406 45.8428C286.702 46.3992 287.88 47.2147 288.871 48.2428C289.863 49.2709 290.65 50.4914 291.187 51.8347C291.724 53.178 292 54.6177 292 56.0716V76H127.954C123.988 76 120.184 74.367 117.38 71.4602C114.575 68.5533 113 64.6109 113 60.5C113 56.3891 114.575 52.4467 117.38 49.5398C120.184 46.633 123.988 45 127.954 45Z" fill="#00AEEF"/>
<text fill="white" xml:space="preserve" style="white-space: pre" font-family="Harmattan" font-size="20" font-weight="bold" letter-spacing="0em"><tspan x="131" y="65.1162">UI - UX Design Skill</tspan></text>
<path d="M330.692 94.668H240.692V99.668H330.692V94.668Z" fill="#949598"/>
<path d="M330.692 118.668H240.692V123.668H330.692V118.668Z" fill="#949598"/>
<path d="M312.692 94.668H240.692V99.668H312.692V94.668Z" fill="#00AEEF"/>
<path d="M312.692 118.668H240.692V123.668H312.692V118.668Z" fill="#00AEEF"/>
<path d="M313.248 93.668C314.426 93.668 315.557 94.0515 316.39 94.7341C317.224 95.4167 317.692 96.3426 317.692 97.308V98.025C317.692 98.5033 317.578 98.9769 317.355 99.4189C317.131 99.8609 316.804 100.262 316.391 100.601C315.979 100.939 315.489 101.208 314.949 101.391C314.41 101.574 313.832 101.668 313.248 101.668C312.78 101.668 312.318 101.593 311.886 101.446C311.454 101.299 311.062 101.085 310.732 100.814C310.402 100.543 310.14 100.222 309.962 99.8682C309.783 99.5145 309.691 99.1355 309.692 98.7528V96.5802C309.692 95.8078 310.067 95.0671 310.733 94.5209C311.4 93.9748 312.305 93.668 313.248 93.668Z" fill="black"/>
<path d="M313.248 117.668C314.426 117.668 315.557 118.051 316.39 118.734C317.224 119.417 317.692 120.343 317.692 121.308V122.025C317.692 122.503 317.578 122.977 317.355 123.419C317.131 123.861 316.804 124.262 316.391 124.601C315.979 124.939 315.489 125.208 314.949 125.391C314.41 125.574 313.832 125.668 313.248 125.668C312.78 125.668 312.318 125.593 311.886 125.446C311.454 125.299 311.062 125.085 310.732 124.814C310.402 124.543 310.14 124.222 309.962 123.868C309.783 123.515 309.691 123.136 309.692 122.753V120.58C309.692 119.808 310.067 119.067 310.733 118.521C311.4 117.975 312.305 117.668 313.248 117.668Z" fill="black"/>
<path d="M334.192 98.668C335.573 98.668 336.692 97.9964 336.692 97.168C336.692 96.3395 335.573 95.668 334.192 95.668C332.811 95.668 331.692 96.3395 331.692 97.168C331.692 97.9964 332.811 98.668 334.192 98.668Z" fill="#231F20"/>
<path d="M334.192 122.668C335.573 122.668 336.692 121.996 336.692 121.168C336.692 120.34 335.573 119.668 334.192 119.668C332.811 119.668 331.692 120.34 331.692 121.168C331.692 121.996 332.811 122.668 334.192 122.668Z" fill="#231F20"/>
</svg>
