<svg width="454" height="204" viewBox="0 0 454 204" fill="none" xmlns="http://www.w3.org/2000/svg">
<path d="M287.97 40H413.049C414.228 40 415.396 40.2324 416.486 40.6838C417.576 41.1352 418.566 41.7969 419.4 42.6311C420.235 43.4652 420.896 44.4555 421.348 45.5454C421.799 46.6352 422.032 47.8033 422.032 48.983V65.152H287.97C284.634 65.152 281.435 63.827 279.077 61.4686C276.719 59.1101 275.394 55.9114 275.394 52.576C275.394 49.2406 276.719 46.0419 279.077 43.6834C281.435 41.325 284.634 40 287.97 40Z" fill="#00AEEF"/>
<path d="M346.078 57.1758C345.427 57.1758 344.815 57.0781 344.242 56.8828C343.676 56.6875 343.201 56.4108 342.816 56.0527L343.07 54.041C343.474 54.4902 343.952 54.8418 344.506 55.0957C345.066 55.3431 345.639 55.4668 346.225 55.4668C346.745 55.4668 347.204 55.3268 347.602 55.0469C347.999 54.7669 348.197 54.3828 348.197 53.8945C348.197 53.4388 347.973 53.0579 347.523 52.752C347.074 52.4395 346.433 52.2832 345.6 52.2832H344.945V50.5254H345.6C346.27 50.5254 346.817 50.3594 347.24 50.0273C347.663 49.6953 347.875 49.3307 347.875 48.9336C347.875 48.6016 347.722 48.3379 347.416 48.1426C347.11 47.9473 346.775 47.8496 346.41 47.8496C345.844 47.8496 345.323 47.9342 344.848 48.1035C344.372 48.2663 343.926 48.5592 343.51 48.9824L343.256 47.3027C343.549 46.9642 343.982 46.6842 344.555 46.4629C345.128 46.2415 345.72 46.1309 346.332 46.1309C347.387 46.1309 348.249 46.3555 348.92 46.8047C349.59 47.2539 349.926 47.8691 349.926 48.6504C349.926 49.0996 349.802 49.513 349.555 49.8906C349.307 50.2617 349.001 50.571 348.637 50.8184C348.279 51.0592 347.927 51.2155 347.582 51.2871C347.927 51.3457 348.311 51.4661 348.734 51.6484C349.158 51.8307 349.522 52.1107 349.828 52.4883C350.134 52.8659 350.287 53.3835 350.287 54.041C350.287 54.6139 350.102 55.138 349.73 55.6133C349.366 56.0885 348.868 56.4694 348.236 56.7559C347.605 57.0358 346.885 57.1758 346.078 57.1758ZM355.551 57.0684C355.303 57.0684 354.991 57.0651 354.613 57.0586C354.242 57.0521 353.871 57.0423 353.5 57.0293C353.129 57.0228 352.816 57.0163 352.562 57.0098C352.315 57.0033 352.191 57 352.191 57C352.243 56.707 352.273 56.2611 352.279 55.6621C352.292 55.0632 352.299 54.3991 352.299 53.6699V49.6758C352.299 48.9596 352.292 48.2923 352.279 47.6738C352.273 47.0553 352.243 46.5996 352.191 46.3066C352.413 46.2936 352.732 46.2839 353.148 46.2773C353.572 46.2643 354.018 46.2546 354.486 46.248C354.955 46.2415 355.362 46.2383 355.707 46.2383C356.111 46.2383 356.553 46.2773 357.035 46.3555C357.523 46.4336 358.005 46.5768 358.48 46.7852C358.962 46.9935 359.402 47.2962 359.799 47.6934C360.202 48.0905 360.525 48.6048 360.766 49.2363C361.007 49.8678 361.127 50.6491 361.127 51.5801C361.127 52.6738 360.945 53.5755 360.58 54.2852C360.222 54.9948 359.757 55.5547 359.184 55.9648C358.617 56.3685 358.012 56.6549 357.367 56.8242C356.723 56.987 356.117 57.0684 355.551 57.0684ZM355.727 55.3887C356.273 55.3887 356.801 55.2682 357.309 55.0273C357.823 54.7865 358.243 54.3991 358.568 53.8652C358.9 53.3249 359.066 52.612 359.066 51.7266C359.066 50.7565 358.923 49.9915 358.637 49.4316C358.35 48.8717 357.956 48.4746 357.455 48.2402C356.96 47.9993 356.394 47.8789 355.756 47.8789C355.554 47.8789 355.313 47.8822 355.033 47.8887C354.76 47.8952 354.545 47.9049 354.389 47.918V55.3105C354.532 55.3236 354.717 55.3398 354.945 55.3594C355.18 55.3789 355.44 55.3887 355.727 55.3887Z" fill="#FEFEFE"/>
<path d="M419.715 82.668H366.715V87.668H419.715V82.668Z" fill="#949598"/>
<path d="M366.715 82.668H324.715V87.668H366.715V82.668Z" fill="#00AEEF"/>
<path d="M365.73 81C366.467 81 367.173 81.3835 367.694 82.0661C368.215 82.7488 368.508 83.6746 368.508 84.64V85.3571C368.508 85.8353 368.436 86.309 368.297 86.7509C368.158 87.1929 367.953 87.5945 367.695 87.9328C367.437 88.2711 367.131 88.5395 366.794 88.7226C366.456 88.9058 366.095 89 365.73 89C365.438 89 365.149 88.9246 364.879 88.778C364.609 88.6315 364.364 88.4167 364.158 88.146C363.952 87.8753 363.788 87.5539 363.676 87.2002C363.565 86.8466 363.508 86.4676 363.508 86.0849V83.9122C363.508 83.1398 363.742 82.3991 364.159 81.853C364.575 81.3068 365.141 81 365.73 81Z" fill="black"/>
<path d="M174.289 85.8398C174.289 87.0052 173.876 87.9655 173.049 88.7207C172.085 89.5996 170.682 90.0391 168.84 90.0391L167.17 90.0195C166.291 90.0065 165.536 90 164.904 90V76.5234C166.174 76.4518 167.668 76.416 169.387 76.416C170.839 76.416 171.955 76.7025 172.736 77.2754C173.518 77.8548 173.908 78.6816 173.908 79.7559C173.908 81.2272 173.228 82.2363 171.867 82.7832V82.8223C172.583 82.972 173.166 83.3236 173.615 83.877C174.064 84.4368 174.289 85.0911 174.289 85.8398ZM171.145 80.1758C171.145 79.056 170.419 78.4961 168.967 78.4961C168.55 78.4961 168.062 78.5091 167.502 78.5352V82.0801C167.717 82.0931 168.072 82.0996 168.566 82.0996C170.285 82.0996 171.145 81.4583 171.145 80.1758ZM171.506 85.918C171.506 84.668 170.552 84.043 168.645 84.043C168.072 84.043 167.691 84.0495 167.502 84.0625V87.8809C168.146 87.9199 168.628 87.9395 168.947 87.9395C169.774 87.9395 170.412 87.7507 170.861 87.373C171.291 87.015 171.506 86.5299 171.506 85.918ZM176.408 90V75.4004H178.967V90H176.408ZM189.855 84.082C189.855 84.6745 189.823 85.153 189.758 85.5176H183.615C183.615 87.3079 184.53 88.2031 186.359 88.2031C187.323 88.2031 188.283 88.0078 189.24 87.6172L189.514 89.5605C188.361 89.9837 187.163 90.1953 185.92 90.1953C182.652 90.1953 181.018 88.5026 181.018 85.1172C181.018 83.5872 181.434 82.3405 182.268 81.377C183.133 80.3678 184.289 79.8633 185.734 79.8633C187.115 79.8633 188.166 80.2702 188.889 81.084C189.533 81.8197 189.855 82.819 189.855 84.082ZM187.316 83.8184C187.355 82.4316 186.783 81.7383 185.598 81.7383C184.439 81.7383 183.785 82.4316 183.635 83.8184H187.316ZM198.098 90V83.6426C198.098 82.5488 197.684 82.002 196.857 82.002C196.219 82.002 195.676 82.3177 195.227 82.9492C194.777 83.5742 194.553 84.3229 194.553 85.1953V90H191.994V80.0586H194.416C194.416 80.7617 194.367 81.3542 194.27 81.8359H194.299C194.976 80.5208 196.102 79.8633 197.678 79.8633C199.65 79.8633 200.637 80.9147 200.637 83.0176V90H198.098ZM209.377 90C209.377 89.4336 209.416 88.8802 209.494 88.3398H209.455C208.863 89.5964 207.818 90.2246 206.32 90.2246C205.135 90.2246 204.227 89.8014 203.596 88.9551C202.997 88.1478 202.697 87.015 202.697 85.5566C202.697 83.8574 203.163 82.4935 204.094 81.4648C205.044 80.4102 206.333 79.8828 207.961 79.8828C208.41 79.8828 208.83 79.9089 209.221 79.9609V75.4004H211.76V90H209.377ZM209.221 82.0605C208.726 81.9564 208.277 81.9043 207.873 81.9043C206.206 81.9043 205.373 83.0306 205.373 85.2832C205.373 87.1582 205.943 88.0957 207.082 88.0957C207.727 88.0957 208.251 87.7669 208.654 87.1094C209.032 86.4909 209.221 85.7357 209.221 84.8438V82.0605ZM222.668 84.082C222.668 84.6745 222.635 85.153 222.57 85.5176H216.428C216.428 87.3079 217.342 88.2031 219.172 88.2031C220.135 88.2031 221.096 88.0078 222.053 87.6172L222.326 89.5605C221.174 89.9837 219.976 90.1953 218.732 90.1953C215.464 90.1953 213.83 88.5026 213.83 85.1172C213.83 83.5872 214.247 82.3405 215.08 81.377C215.946 80.3678 217.102 79.8633 218.547 79.8633C219.927 79.8633 220.979 80.2702 221.701 81.084C222.346 81.8197 222.668 82.819 222.668 84.082ZM220.129 83.8184C220.168 82.4316 219.595 81.7383 218.41 81.7383C217.251 81.7383 216.597 82.4316 216.447 83.8184H220.129ZM230.129 82.3633C228.286 81.9987 227.365 83.1901 227.365 85.9375V90H224.807V80.0586H227.229C227.229 80.6901 227.167 81.3574 227.043 82.0605H227.082C227.694 80.4525 228.749 79.7201 230.246 79.8633L230.129 82.3633Z" fill="#FF0040"/>
<rect x="2" y="-2" width="450" height="200" transform="matrix(1 0 0 -1 0 200)" stroke="#01ADED" stroke-width="4"/>
</svg>
