<svg width="454" height="227" viewBox="0 0 454 227" fill="none" xmlns="http://www.w3.org/2000/svg">
<rect x="2" y="-2" width="450" height="223" transform="matrix(1 0 0 -1 0 223)" stroke="#01ADED" stroke-width="4"/>
<g filter="url(#filter0_d_178_1051)">
<mask id="path-2-inside-1_178_1051" fill="white">
<path d="M349 26H93V26H349V26Z"/>
</mask>
<path d="M349 26H93V26H349V26Z" fill="#231F20"/>
<path d="M349 25.7H93V26.3H349V25.7ZM93 26.3H349V25.7H93V26.3Z" fill="black" mask="url(#path-2-inside-1_178_1051)"/>
</g>
<path d="M220.439 33H349.417C350.596 33 351.765 33.2324 352.854 33.6838C353.944 34.1352 354.935 34.7969 355.769 35.6311C356.603 36.4652 357.265 37.4555 357.716 38.5454C358.167 39.6352 358.4 40.8033 358.4 41.983V58.152H220.439C217.103 58.152 213.905 56.827 211.546 54.4686C209.188 52.1101 207.863 48.9114 207.863 45.576C207.863 42.2406 209.188 39.0419 211.546 36.6834C213.905 34.325 217.103 33 220.439 33Z" fill="#00AEEF"/>
<path d="M240.127 49.1685C238.989 49.1685 238.091 49.0586 237.432 48.8389C236.777 48.6191 236.311 48.3311 236.033 47.9746C235.759 47.6133 235.623 47.2227 235.623 46.8027C235.623 46.4023 235.715 46.0264 235.901 45.6748C236.091 45.3184 236.372 44.9644 236.743 44.6128C236.841 44.6372 236.953 44.6958 237.08 44.7886C237.207 44.8765 237.3 44.9619 237.358 45.0449C237.217 45.2939 237.112 45.5234 237.043 45.7334C236.98 45.9434 236.948 46.1338 236.948 46.3047C236.948 46.7051 237.102 47.02 237.41 47.2495C237.722 47.479 238.14 47.6426 238.662 47.7402C239.185 47.8379 239.768 47.8867 240.413 47.8867C241.301 47.8867 242.007 47.8159 242.529 47.6743C243.057 47.5278 243.354 47.23 243.423 46.7808C243.462 46.5317 243.481 46.1973 243.481 45.7773C243.481 45.1914 243.455 44.5273 243.401 43.7852C243.352 43.0381 243.301 42.2251 243.247 41.3462C243.33 41.1753 243.516 41.0239 243.804 40.8921C244.097 40.7603 244.397 40.6821 244.705 40.6577C244.729 40.8188 244.746 41.0703 244.756 41.4121C244.766 41.7539 244.771 42.291 244.771 43.0234C244.771 43.9316 244.763 44.6812 244.749 45.272C244.739 45.8579 244.719 46.3315 244.69 46.6929C244.661 47.0542 244.619 47.3398 244.565 47.5498C244.517 47.7549 244.451 47.9307 244.368 48.0771C244.27 48.2529 244.067 48.4263 243.76 48.5972C243.452 48.7632 243.003 48.8999 242.412 49.0073C241.826 49.1147 241.064 49.1685 240.127 49.1685ZM239.219 46.8247C239.023 46.7563 238.884 46.6367 238.801 46.4658C238.718 46.2949 238.677 46.1533 238.677 46.041C239.023 46.0215 239.321 46.002 239.57 45.9824C239.819 45.958 240.093 45.9067 240.391 45.8286C239.731 45.6772 239.29 45.4868 239.065 45.2573C238.845 45.0278 238.735 44.791 238.735 44.5469C238.735 44.127 238.899 43.8169 239.226 43.6167C239.558 43.4165 239.946 43.3164 240.391 43.3164C240.688 43.3164 241.013 43.3628 241.365 43.4556C241.37 43.4751 241.375 43.5093 241.379 43.5581C241.389 43.6069 241.394 43.6729 241.394 43.7559C241.394 43.8242 241.387 43.9097 241.372 44.0122C241.362 44.1099 241.338 44.1807 241.299 44.2246C241.133 44.1709 240.979 44.1343 240.837 44.1147C240.701 44.0952 240.571 44.0854 240.449 44.0854C240.205 44.0854 240.005 44.1221 239.849 44.1953C239.692 44.2637 239.614 44.376 239.614 44.5322C239.614 44.6299 239.663 44.7251 239.761 44.8179C239.863 44.9058 240.056 44.9985 240.339 45.0962C240.623 45.189 241.04 45.2939 241.592 45.4111C241.597 45.4453 241.599 45.4795 241.599 45.5137C241.599 45.543 241.599 45.5771 241.599 45.6162C241.599 45.6748 241.597 45.7603 241.592 45.8726C241.587 45.98 241.58 46.0679 241.57 46.1362C241.448 46.229 241.248 46.3291 240.969 46.4365C240.696 46.5391 240.398 46.627 240.076 46.7002C239.758 46.7734 239.473 46.8149 239.219 46.8247ZM245.342 49.0732C244.966 49.0732 244.641 49.0342 244.368 48.9561C244.099 48.8779 243.862 48.7363 243.657 48.5312L244.28 47.4253C244.392 47.562 244.534 47.6572 244.705 47.7109C244.88 47.7646 245.093 47.7915 245.342 47.7915H245.781V49.0732H245.342ZM245.488 49.0732V47.7915H245.635C246.04 47.7915 246.338 47.7256 246.528 47.5938C246.724 47.457 246.848 47.3179 246.902 47.1763C246.96 47.0298 246.99 46.9419 246.99 46.9126C246.99 46.8735 246.98 46.7905 246.96 46.6636C246.941 46.5366 246.919 46.4121 246.895 46.29C246.875 46.1631 246.865 46.0874 246.865 46.063C247.002 45.9946 247.212 45.9287 247.495 45.8652C247.783 45.7969 248.035 45.7603 248.25 45.7554C248.386 46.3071 248.538 46.7319 248.704 47.0298C248.87 47.3228 249.05 47.5229 249.246 47.6304C249.446 47.7378 249.658 47.7915 249.883 47.7915H250.029V49.0732H249.883C249.468 49.0732 249.077 48.9927 248.711 48.8315C248.345 48.6655 248.035 48.3774 247.781 47.9673C247.6 48.3579 247.312 48.6411 246.917 48.8169C246.526 48.9878 246.099 49.0732 245.635 49.0732H245.488ZM248.557 51.6953C248.298 51.5098 248.057 51.3145 247.832 51.1094C247.612 50.9043 247.488 50.7676 247.458 50.6992L248.396 49.6665L249.59 50.6479C249.39 50.9214 249.18 51.1582 248.96 51.3584C248.745 51.5635 248.611 51.6758 248.557 51.6953ZM246.909 51.8198C246.65 51.6343 246.411 51.439 246.191 51.2339C245.972 51.0337 245.845 50.897 245.811 50.8237L246.748 49.791L247.942 50.7798C247.668 51.1265 247.441 51.3828 247.261 51.5488C247.08 51.7148 246.963 51.8052 246.909 51.8198ZM252.205 49.0806C251.799 49.0806 251.504 49.0806 251.318 49.0806C251.133 49.0806 251.003 49.0781 250.93 49.0732C250.862 49.0732 250.803 49.0732 250.754 49.0732C250.706 49.0732 250.62 49.0732 250.498 49.0732C250.381 49.0732 250.176 49.0732 249.883 49.0732H249.736V47.7915H249.883C250.425 47.7915 250.837 47.7915 251.121 47.7915C251.404 47.7915 251.628 47.7939 251.794 47.7988C251.965 47.7988 252.151 47.7988 252.351 47.7988C252.83 47.7988 253.198 47.7769 253.457 47.7329C253.721 47.6841 253.918 47.5156 254.05 47.2275C253.894 47.3057 253.694 47.3594 253.45 47.3887C253.206 47.4131 253.025 47.4253 252.908 47.4253C252.395 47.4204 251.975 47.313 251.648 47.103C251.326 46.8882 251.086 46.6172 250.93 46.29C250.779 45.9629 250.703 45.6284 250.703 45.2866C250.703 44.9546 250.789 44.6299 250.959 44.3125C251.135 43.9902 251.387 43.7241 251.714 43.5142C252.046 43.3042 252.444 43.1992 252.908 43.1992C253.503 43.1992 254.011 43.3848 254.431 43.7559C254.851 44.127 255.151 44.7471 255.332 45.6162L255.72 45.499C255.75 45.5674 255.771 45.6675 255.786 45.7993C255.801 45.9263 255.808 46.0459 255.808 46.1582C255.808 46.3389 255.776 46.5562 255.713 46.8101L255.376 46.9126C255.249 47.5376 255.024 48.0063 254.702 48.3188C254.385 48.6265 254.009 48.8315 253.574 48.9341C253.14 49.0317 252.683 49.0806 252.205 49.0806ZM253.062 46.1582C253.335 46.1582 253.523 46.146 253.625 46.1216C253.733 46.0972 253.887 46.0581 254.087 46.0044C254.019 45.4966 253.877 45.106 253.662 44.8325C253.447 44.5591 253.167 44.4224 252.82 44.4224C252.581 44.4224 252.38 44.498 252.219 44.6494C252.058 44.8008 251.978 45.001 251.978 45.25C251.978 45.5039 252.068 45.7188 252.249 45.8945C252.434 46.0703 252.705 46.1582 253.062 46.1582ZM252.791 42.7378C252.517 42.5376 252.266 42.3325 252.036 42.1226C251.807 41.9126 251.675 41.771 251.641 41.6978L252.615 40.5405L253.867 41.5659C253.545 41.9663 253.298 42.2568 253.127 42.4375C252.961 42.6182 252.849 42.7183 252.791 42.7378ZM257.163 49.4614C257.168 49.3052 257.17 49.1318 257.17 48.9414C257.175 48.7461 257.178 48.541 257.178 48.3262C257.178 47.8281 257.17 47.2886 257.156 46.7075C257.141 46.1216 257.122 45.5405 257.097 44.9644C257.078 44.3882 257.056 43.8584 257.031 43.375C257.007 42.8867 256.987 42.4863 256.973 42.1738C256.958 41.8613 256.951 41.6831 256.951 41.6392C257.009 41.4487 257.139 41.2974 257.339 41.1851C257.544 41.0679 257.756 40.98 257.976 40.9214C258.196 40.8579 258.359 40.8188 258.467 40.8042C258.477 40.8628 258.484 40.9702 258.489 41.1265C258.494 41.2827 258.496 41.4365 258.496 41.5879C258.501 41.7344 258.503 41.8223 258.503 41.8516C258.503 42.0957 258.501 42.4473 258.496 42.9062C258.496 43.3604 258.491 43.873 258.481 44.4443C258.477 45.0156 258.469 45.5942 258.459 46.1802C258.45 46.7612 258.438 47.3008 258.423 47.7988C258.408 48.2969 258.394 48.7021 258.379 49.0146C258.281 49.1416 258.098 49.2417 257.83 49.3149C257.566 49.3882 257.344 49.437 257.163 49.4614ZM258.042 54.0977C257.842 53.9707 257.678 53.7998 257.551 53.585C257.424 53.3701 257.354 53.1113 257.339 52.8086C257.886 52.6084 258.367 52.3423 258.782 52.0103C259.197 51.6782 259.521 51.2412 259.756 50.6992C259.995 50.1621 260.115 49.4834 260.115 48.6631C260.115 48.209 260.088 47.7939 260.034 47.418C259.98 47.0371 259.927 46.6465 259.873 46.2461C260.02 46.168 260.234 46.085 260.518 45.9971C260.801 45.9043 261.04 45.853 261.235 45.8433C261.436 46.4341 261.66 46.9077 261.909 47.2642C262.158 47.6157 262.542 47.7915 263.059 47.7915H263.206V49.0732H263.059C262.659 49.0732 262.317 49.0122 262.034 48.8901C261.755 48.7632 261.523 48.6045 261.338 48.4141C261.348 48.5215 261.355 48.6216 261.36 48.7144C261.365 48.8022 261.367 48.917 261.367 49.0586C261.367 50.2158 261.082 51.2217 260.51 52.0762C259.939 52.9355 259.116 53.6094 258.042 54.0977ZM262.92 49.0732V47.7915H263.066C263.501 47.7915 263.914 47.7231 264.304 47.5864C264.7 47.4448 265.122 47.2764 265.571 47.0811C266.025 46.8857 266.558 46.7026 267.168 46.5317C266.768 46.2681 266.46 46.1021 266.245 46.0337C266.035 45.9604 265.813 45.9238 265.579 45.9238C265.33 45.9238 265.073 45.98 264.81 46.0923C264.546 46.2046 264.272 46.356 263.989 46.5464C263.906 46.5122 263.813 46.4609 263.711 46.3926C263.608 46.3193 263.528 46.2437 263.469 46.1655C263.85 45.5991 264.263 45.1816 264.707 44.9131C265.151 44.6396 265.552 44.5029 265.908 44.5029C266.274 44.5029 266.604 44.5859 266.897 44.752C267.195 44.918 267.49 45.1182 267.783 45.3525C268.076 45.582 268.403 45.8018 268.765 46.0117C269.126 46.2168 269.556 46.3633 270.054 46.4512C270.024 46.6074 269.966 46.8003 269.878 47.0298C269.79 47.2593 269.697 47.4277 269.6 47.5352C269.287 47.4619 268.994 47.4253 268.721 47.4253C268.262 47.4253 267.795 47.5083 267.322 47.6743C266.848 47.8403 266.375 48.0332 265.901 48.2529C265.427 48.4678 264.956 48.6582 264.487 48.8242C264.023 48.9902 263.567 49.0732 263.118 49.0732C263.054 49.0732 263.018 49.0732 263.008 49.0732C262.993 49.0732 262.964 49.0732 262.92 49.0732ZM270.251 49.0732C269.25 49.0732 268.521 48.9292 268.062 48.6411C267.607 48.353 267.314 47.9624 267.183 47.4692L268.369 47.3447C268.408 47.4766 268.54 47.5742 268.765 47.6377C268.994 47.7012 269.25 47.7427 269.534 47.7622C269.817 47.7817 270.056 47.7915 270.251 47.7915H270.457V49.0732H270.251ZM265.886 51.2705C265.613 51.0703 265.361 50.8652 265.132 50.6553C264.902 50.4453 264.771 50.3037 264.736 50.2305L265.71 49.0732L266.963 50.0986C266.641 50.499 266.394 50.7896 266.223 50.9702C266.057 51.1509 265.945 51.251 265.886 51.2705ZM270.171 49.0732V47.7915H270.317C270.781 47.7915 271.116 47.7476 271.321 47.6597C271.531 47.5669 271.663 47.4375 271.716 47.2715C271.775 47.1055 271.804 46.9126 271.804 46.6929C271.804 46.5269 271.797 46.2656 271.782 45.9092C271.772 45.5527 271.755 45.1548 271.731 44.7153C271.711 44.271 271.692 43.8364 271.672 43.4116C271.653 42.9819 271.633 42.606 271.614 42.2837C271.599 41.9614 271.587 41.7466 271.577 41.6392C271.66 41.4683 271.853 41.3047 272.156 41.1484C272.458 40.9922 272.764 40.9019 273.071 40.8774C273.086 40.936 273.096 41.0752 273.101 41.2949C273.105 41.5098 273.108 41.749 273.108 42.0127C273.108 42.2764 273.108 42.5083 273.108 42.7085C273.108 43.314 273.113 43.9634 273.123 44.6567C273.137 45.3501 273.145 46.1411 273.145 47.0298C273.145 47.3911 273.052 47.728 272.866 48.0405C272.681 48.3481 272.38 48.5972 271.965 48.7876C271.55 48.978 271.001 49.0732 270.317 49.0732H270.171ZM274.565 49.4614C274.57 49.3052 274.573 49.1318 274.573 48.9414C274.578 48.7461 274.58 48.541 274.58 48.3262C274.58 47.8281 274.573 47.2886 274.558 46.7075C274.543 46.1216 274.524 45.5405 274.5 44.9644C274.48 44.3882 274.458 43.8584 274.434 43.375C274.409 42.8867 274.39 42.4863 274.375 42.1738C274.36 41.8613 274.353 41.6831 274.353 41.6392C274.412 41.4487 274.541 41.2974 274.741 41.1851C274.946 41.0679 275.159 40.98 275.378 40.9214C275.598 40.8579 275.762 40.8188 275.869 40.8042C275.879 40.8628 275.886 40.9702 275.891 41.1265C275.896 41.2827 275.898 41.4365 275.898 41.5879C275.903 41.7344 275.906 41.8223 275.906 41.8516C275.906 42.0957 275.903 42.4473 275.898 42.9062C275.898 43.3604 275.894 43.873 275.884 44.4443C275.879 45.0156 275.872 45.5942 275.862 46.1802C275.852 46.7612 275.84 47.3008 275.825 47.7988C275.811 48.2969 275.796 48.7021 275.781 49.0146C275.684 49.1416 275.5 49.2417 275.232 49.3149C274.968 49.3882 274.746 49.437 274.565 49.4614ZM280.234 53.5264C280.083 53.4287 279.954 53.2603 279.846 53.021C279.734 52.7817 279.663 52.5449 279.634 52.3105C280.273 52.1006 280.759 51.8418 281.091 51.5342C281.423 51.2266 281.65 50.8359 281.772 50.3623C281.895 49.8887 281.956 49.3003 281.956 48.5972C281.956 47.7964 281.992 47.1665 282.065 46.7075C282.139 46.2437 282.29 45.8481 282.52 45.521C282.72 45.2329 282.993 45.0107 283.34 44.8545C283.687 44.6982 284.05 44.6201 284.431 44.6201C284.851 44.6201 285.244 44.7153 285.61 44.9058C285.977 45.0913 286.272 45.3745 286.497 45.7554C286.726 46.1313 286.841 46.605 286.841 47.1763C286.841 47.6353 286.736 48.021 286.526 48.3335C286.316 48.646 286.042 48.8828 285.706 49.0439C285.369 49.2051 285.012 49.2856 284.636 49.2856C284.231 49.2856 283.835 49.1904 283.45 49C283.069 48.8096 282.756 48.519 282.512 48.1284L283.025 46.8247C283.108 47.2104 283.303 47.5107 283.611 47.7256C283.923 47.9355 284.233 48.0405 284.541 48.0405C284.858 48.0405 285.112 47.9697 285.303 47.8281C285.498 47.6816 285.596 47.457 285.596 47.1543C285.596 46.7393 285.486 46.4097 285.266 46.1655C285.051 45.9214 284.766 45.7993 284.409 45.7993C284.077 45.7993 283.823 45.8896 283.647 46.0703C283.472 46.2461 283.352 46.4854 283.289 46.7881C283.23 47.0859 283.201 47.4204 283.201 47.7915C283.201 48.0015 283.203 48.2188 283.208 48.4434C283.218 48.6631 283.223 48.8804 283.223 49.0952C283.223 49.9253 283.079 50.6431 282.791 51.2485C282.507 51.854 282.139 52.3472 281.685 52.728C281.23 53.1089 280.747 53.375 280.234 53.5264ZM287.991 49.0732C287.595 49.0732 287.275 49.0439 287.031 48.9854C286.792 48.9219 286.594 48.8364 286.438 48.729C286.287 48.6216 286.14 48.4946 285.999 48.3481L286.643 47.2715C286.77 47.4668 286.926 47.6035 287.112 47.6816C287.302 47.7549 287.595 47.7915 287.991 47.7915H288.137V49.0732H287.991ZM287.852 49.0732V47.7915H287.998C288.403 47.7915 288.701 47.7256 288.892 47.5938C289.087 47.457 289.211 47.3179 289.265 47.1763C289.324 47.0298 289.353 46.9419 289.353 46.9126C289.353 46.8735 289.343 46.7905 289.324 46.6636C289.304 46.5366 289.282 46.4121 289.258 46.29C289.238 46.1631 289.229 46.0874 289.229 46.063C289.365 45.9946 289.575 45.9287 289.858 45.8652C290.146 45.7969 290.398 45.7603 290.613 45.7554C290.75 46.3071 290.901 46.7319 291.067 47.0298C291.233 47.3228 291.414 47.5229 291.609 47.6304C291.809 47.7378 292.021 47.7915 292.246 47.7915H292.393V49.0732H292.246C291.831 49.0732 291.44 48.9927 291.074 48.8315C290.708 48.6655 290.398 48.3774 290.144 47.9673C289.963 48.3579 289.675 48.6411 289.28 48.8169C288.889 48.9878 288.462 49.0732 287.998 49.0732H287.852ZM290.92 51.6953C290.662 51.5098 290.42 51.3145 290.195 51.1094C289.976 50.9043 289.851 50.7676 289.822 50.6992L290.759 49.6665L291.953 50.6479C291.753 50.9214 291.543 51.1582 291.323 51.3584C291.108 51.5635 290.974 51.6758 290.92 51.6953ZM289.272 51.8198C289.014 51.6343 288.774 51.439 288.555 51.2339C288.335 51.0337 288.208 50.897 288.174 50.8237L289.111 49.791L290.305 50.7798C290.032 51.1265 289.805 51.3828 289.624 51.5488C289.443 51.7148 289.326 51.8052 289.272 51.8198ZM295.923 49.3003C295.527 49.3003 295.188 49.2319 294.905 49.0952C294.626 48.9634 294.395 48.8071 294.209 48.6265C294.028 48.4409 293.884 48.2749 293.777 48.1284L294.29 46.8247C294.348 47.0835 294.46 47.3032 294.626 47.4839C294.797 47.6646 294.99 47.8037 295.205 47.9014C295.42 47.9941 295.62 48.0405 295.806 48.0405C296.123 48.0405 296.377 47.9746 296.567 47.8428C296.763 47.7109 296.86 47.4814 296.86 47.1543C296.86 46.7002 296.743 46.3608 296.509 46.1362C296.274 45.9116 295.996 45.7993 295.674 45.7993C295.342 45.7993 295.088 45.8896 294.912 46.0703C294.736 46.2461 294.617 46.4854 294.553 46.7881C294.495 47.0859 294.465 47.4204 294.465 47.7915C294.358 48.2896 294.116 48.6289 293.74 48.8096C293.369 48.9902 292.876 49.0781 292.261 49.0732C292.241 49.0732 292.217 49.0732 292.188 49.0732C292.153 49.0732 292.124 49.0732 292.1 49.0732V47.7915C292.124 47.7915 292.148 47.7915 292.173 47.7915C292.192 47.7915 292.217 47.7915 292.246 47.7915C292.666 47.7915 292.944 47.7524 293.081 47.6743C293.218 47.5913 293.286 47.4985 293.286 47.396C293.286 47.3569 293.286 47.3203 293.286 47.2861C293.286 47.2471 293.289 47.1958 293.293 47.1323C293.318 46.9321 293.35 46.7246 293.389 46.5098C293.433 46.29 293.508 46.0679 293.616 45.8433C293.821 45.394 294.124 45.0791 294.524 44.8984C294.924 44.7129 295.315 44.6201 295.696 44.6201C296.15 44.6201 296.558 44.7227 296.919 44.9277C297.285 45.1328 297.573 45.4258 297.783 45.8066C297.998 46.1875 298.105 46.644 298.105 47.1763C298.105 47.645 297.996 48.0381 297.776 48.3555C297.556 48.668 297.278 48.9023 296.941 49.0586C296.609 49.2197 296.27 49.3003 295.923 49.3003ZM299.402 49.0732C299.001 49.0732 298.679 49.0439 298.435 48.9854C298.191 48.9219 297.991 48.8364 297.834 48.729C297.683 48.6216 297.537 48.4946 297.395 48.3481L298.04 47.2715C298.167 47.4668 298.325 47.6035 298.516 47.6816C298.706 47.7549 299.001 47.7915 299.402 47.7915H299.548V49.0732H299.402ZM304.404 49.1831C303.784 49.1831 303.223 49.1221 302.72 49C302.222 48.8828 301.719 48.6973 301.211 48.4434C300.757 48.7412 300.386 48.9219 300.098 48.9854C299.814 49.0439 299.597 49.0732 299.446 49.0732H299.263V47.7915H299.417C299.871 47.7915 300.22 47.6475 300.464 47.3594C300.43 47.0127 300.396 46.7588 300.361 46.5977C300.332 46.4316 300.291 46.2266 300.237 45.9824C300.383 45.8457 300.569 45.7212 300.793 45.6089C301.023 45.4966 301.25 45.4136 301.475 45.3599C301.499 45.4771 301.519 45.6016 301.533 45.7334C301.553 45.8604 301.572 46.0044 301.592 46.1655C301.904 45.9067 302.256 45.6553 302.646 45.4111C303.037 45.167 303.447 44.9668 303.877 44.8105C304.307 44.6494 304.731 44.5688 305.151 44.5688C305.698 44.5688 306.145 44.6836 306.492 44.9131C306.843 45.1377 307.104 45.4233 307.275 45.77C307.446 46.1118 307.532 46.4585 307.532 46.8101C307.532 47.0981 307.471 47.3716 307.349 47.6304C307.549 47.7378 307.874 47.7915 308.323 47.7915H308.469V49.0732H308.323C307.917 49.0732 307.571 49.0269 307.283 48.9341C307 48.8364 306.758 48.7095 306.558 48.5532C306.279 48.7485 305.955 48.9023 305.583 49.0146C305.217 49.127 304.824 49.1831 304.404 49.1831ZM304.25 47.894C304.851 47.894 305.325 47.7988 305.671 47.6084C306.023 47.4131 306.199 47.1494 306.199 46.8174C306.199 46.5537 306.091 46.3242 305.876 46.1289C305.662 45.9336 305.342 45.8359 304.917 45.8359C304.629 45.8359 304.333 45.897 304.031 46.019C303.728 46.1411 303.438 46.29 303.159 46.4658C302.881 46.6416 302.632 46.8174 302.412 46.9932C302.192 47.1689 302.024 47.313 301.907 47.4253C302.209 47.5425 302.556 47.6499 302.947 47.7476C303.342 47.8452 303.777 47.894 304.25 47.894ZM308.184 49.0732V47.7915H308.33C308.735 47.7915 309.033 47.7256 309.224 47.5938C309.419 47.457 309.543 47.3179 309.597 47.1763C309.656 47.0298 309.685 46.9419 309.685 46.9126C309.685 46.8735 309.675 46.7905 309.656 46.6636C309.636 46.5366 309.614 46.4121 309.59 46.29C309.57 46.1631 309.561 46.0874 309.561 46.063C309.697 45.9946 309.907 45.9287 310.19 45.8652C310.479 45.7969 310.73 45.7603 310.945 45.7554C311.082 46.3071 311.233 46.7319 311.399 47.0298C311.565 47.3228 311.746 47.5229 311.941 47.6304C312.141 47.7378 312.354 47.7915 312.578 47.7915H312.725V49.0732H312.578C312.163 49.0732 311.772 48.9927 311.406 48.8315C311.04 48.6655 310.73 48.3774 310.476 47.9673C310.295 48.3579 310.007 48.6411 309.612 48.8169C309.221 48.9878 308.794 49.0732 308.33 49.0732H308.184ZM310.828 44.979C310.569 44.7935 310.327 44.5981 310.103 44.3931C309.883 44.188 309.758 44.0513 309.729 43.9829L310.667 42.9502L311.86 43.9316C311.66 44.2051 311.45 44.4443 311.23 44.6494C311.016 44.8496 310.881 44.9595 310.828 44.979ZM309.18 45.1035C308.921 44.918 308.682 44.7251 308.462 44.5249C308.242 44.3198 308.115 44.1807 308.081 44.1074L309.019 43.0747L310.212 44.0635C309.939 44.4102 309.712 44.6665 309.531 44.8325C309.351 44.9985 309.233 45.0889 309.18 45.1035ZM312.432 49.0732V47.7915H312.578C313.042 47.7915 313.376 47.7476 313.582 47.6597C313.792 47.5669 313.923 47.4375 313.977 47.2715C314.036 47.1055 314.065 46.9126 314.065 46.6929C314.065 46.5269 314.058 46.2656 314.043 45.9092C314.033 45.5527 314.016 45.1548 313.992 44.7153C313.972 44.271 313.953 43.8364 313.933 43.4116C313.914 42.9819 313.894 42.606 313.875 42.2837C313.86 41.9614 313.848 41.7466 313.838 41.6392C313.921 41.4683 314.114 41.3047 314.417 41.1484C314.719 40.9922 315.024 40.9019 315.332 40.8774C315.347 40.936 315.356 41.0752 315.361 41.2949C315.366 41.5098 315.369 41.749 315.369 42.0127C315.369 42.2764 315.369 42.5083 315.369 42.7085C315.369 43.314 315.374 43.9634 315.383 44.6567C315.398 45.3501 315.405 46.1411 315.405 47.0298C315.405 47.3911 315.312 47.728 315.127 48.0405C314.941 48.3481 314.641 48.5972 314.226 48.7876C313.811 48.978 313.262 49.0732 312.578 49.0732H312.432ZM316.826 49.4614C316.831 49.3052 316.833 49.1318 316.833 48.9414C316.838 48.7461 316.841 48.541 316.841 48.3262C316.841 47.8281 316.833 47.2886 316.819 46.7075C316.804 46.1216 316.785 45.5405 316.76 44.9644C316.741 44.3882 316.719 43.8584 316.694 43.375C316.67 42.8867 316.65 42.4863 316.636 42.1738C316.621 41.8613 316.614 41.6831 316.614 41.6392C316.672 41.4487 316.802 41.2974 317.002 41.1851C317.207 41.0679 317.419 40.98 317.639 40.9214C317.859 40.8579 318.022 40.8188 318.13 40.8042C318.14 40.8628 318.147 40.9702 318.152 41.1265C318.157 41.2827 318.159 41.4365 318.159 41.5879C318.164 41.7344 318.167 41.8223 318.167 41.8516C318.167 42.0957 318.164 42.4473 318.159 42.9062C318.159 43.3604 318.154 43.873 318.145 44.4443C318.14 45.0156 318.132 45.5942 318.123 46.1802C318.113 46.7612 318.101 47.3008 318.086 47.7988C318.071 48.2969 318.057 48.7021 318.042 49.0146C317.944 49.1416 317.761 49.2417 317.493 49.3149C317.229 49.3882 317.007 49.437 316.826 49.4614ZM325.059 49.2563C324.561 49.2563 324.138 49.1636 323.792 48.978C323.45 48.7876 323.188 48.5386 323.008 48.231C322.827 47.9233 322.737 47.5913 322.737 47.2349C322.737 46.8003 322.876 46.3682 323.154 45.9385C323.433 45.5088 323.867 45.1523 324.458 44.8691L325.286 45.5796C324.841 45.814 324.512 46.063 324.297 46.3267C324.087 46.5854 323.982 46.8418 323.982 47.0957C323.982 47.4082 324.087 47.645 324.297 47.8062C324.507 47.9624 324.739 48.0405 324.993 48.0405C325.242 48.0405 325.469 47.9648 325.674 47.8135C325.879 47.6572 325.981 47.4302 325.981 47.1323C325.981 46.9468 325.916 46.749 325.784 46.5391C325.657 46.3242 325.43 46.0996 325.103 45.8652C324.78 45.6309 324.324 45.3892 323.733 45.1401C323.831 44.9399 323.977 44.7642 324.172 44.6128C324.373 44.4565 324.563 44.3564 324.744 44.3125C325.403 44.625 325.908 44.9424 326.26 45.2646C326.616 45.5869 326.86 45.9116 326.992 46.2388C327.129 46.5659 327.197 46.8979 327.197 47.2349C327.197 47.6646 327.092 48.0308 326.882 48.3335C326.677 48.6362 326.411 48.8657 326.084 49.022C325.757 49.1782 325.415 49.2563 325.059 49.2563ZM325.579 43.668C325.32 43.4824 325.078 43.2871 324.854 43.082C324.634 42.877 324.509 42.7402 324.48 42.6719L325.417 41.6392L326.611 42.6206C326.411 42.894 326.201 43.1333 325.981 43.3384C325.767 43.5386 325.632 43.6484 325.579 43.668ZM323.931 43.7925C323.672 43.6069 323.433 43.4141 323.213 43.2139C322.993 43.0088 322.866 42.8696 322.832 42.7964L323.77 41.7637L324.963 42.7524C324.69 43.0991 324.463 43.3555 324.282 43.5215C324.102 43.6875 323.984 43.7778 323.931 43.7925ZM326.714 54.1709C326.46 54.0049 326.279 53.8096 326.172 53.585C326.06 53.3604 325.981 53.1504 325.938 52.9551C326.733 52.6768 327.346 52.3252 327.776 51.9004C328.21 51.4805 328.513 51.0093 328.684 50.4868C328.855 49.9644 328.94 49.4199 328.94 48.8535C328.94 48.4336 328.909 47.999 328.845 47.5498C328.782 47.1006 328.708 46.6733 328.625 46.2681C328.767 46.1411 328.965 46.041 329.219 45.9678C329.473 45.8896 329.717 45.8481 329.951 45.8433C330.063 46.2925 330.142 46.7856 330.186 47.3228C330.234 47.855 330.259 48.3481 330.259 48.8022C330.259 49.4956 330.146 50.189 329.922 50.8823C329.702 51.5757 329.333 52.208 328.816 52.7793C328.298 53.3555 327.598 53.8193 326.714 54.1709ZM334.36 49.0732C333.667 49.0732 333.13 48.9829 332.749 48.8022C332.373 48.6216 332.107 48.3896 331.951 48.1064C331.799 47.8184 331.711 47.5181 331.687 47.2056C331.667 46.9321 331.65 46.5854 331.636 46.1655C331.621 45.7407 331.606 45.2915 331.592 44.8179C331.582 44.3394 331.572 43.8779 331.562 43.4336C331.553 42.9893 331.543 42.606 331.533 42.2837C331.528 41.9614 331.521 41.7466 331.511 41.6392C331.57 41.4731 331.697 41.3315 331.892 41.2144C332.092 41.0972 332.3 41.0044 332.515 40.936C332.734 40.8628 332.898 40.8188 333.005 40.8042C333.015 40.8628 333.022 40.9653 333.027 41.1118C333.032 41.2534 333.035 41.3975 333.035 41.5439C333.04 41.6855 333.042 41.7881 333.042 41.8516C333.042 42.252 333.037 42.7085 333.027 43.2212C333.022 43.729 333.015 44.2466 333.005 44.7739C332.996 45.2964 332.991 45.7871 332.991 46.2461C332.991 46.8027 333.079 47.2007 333.254 47.4399C333.435 47.6743 333.804 47.7915 334.36 47.7915H334.507V49.0732H334.36ZM338.162 52.6768C337.532 52.6768 336.992 52.4839 336.543 52.0981C336.099 51.7173 335.757 51.2119 335.518 50.582C335.278 49.9521 335.159 49.2686 335.159 48.5312C335.159 48.0234 335.227 47.5156 335.364 47.0078C335.505 46.4951 335.706 46.0288 335.964 45.6089C336.228 45.189 336.548 44.8521 336.924 44.5981C337.305 44.3442 337.732 44.2173 338.206 44.2173C338.684 44.2173 339.067 44.3638 339.355 44.6567C339.644 44.9448 339.788 45.2915 339.788 45.6968C339.788 46.0874 339.683 46.4805 339.473 46.876C339.268 47.2666 339.004 47.5913 338.682 47.8501C339.131 47.8208 339.49 47.8037 339.758 47.7988C340.032 47.7939 340.339 47.7915 340.681 47.7915H340.828V49.0732C340.754 49.0732 340.703 49.0732 340.674 49.0732C340.649 49.0732 340.618 49.0732 340.579 49.0732C340.046 49.0732 339.651 49.0684 339.392 49.0586C339.133 49.0488 338.877 49.0342 338.623 49.0146C339.023 49.2393 339.326 49.5542 339.531 49.9595C339.741 50.3647 339.846 50.7432 339.846 51.0947C339.846 51.3633 339.775 51.6172 339.634 51.8564C339.492 52.1006 339.294 52.2983 339.041 52.4497C338.792 52.6011 338.499 52.6768 338.162 52.6768ZM334.214 49.0732V47.7915H334.36C334.561 47.7915 334.727 47.7891 334.858 47.7842C334.99 47.7793 335.125 47.772 335.261 47.7622C335.398 47.7476 335.571 47.728 335.781 47.7036L335.693 48.978C335.444 49.0122 335.234 49.0366 335.063 49.0513C334.897 49.0659 334.663 49.0732 334.36 49.0732H334.214ZM338.096 51.5049C338.267 51.5049 338.403 51.4561 338.506 51.3584C338.613 51.2607 338.667 51.1313 338.667 50.9702C338.667 50.8726 338.608 50.7041 338.491 50.4648C338.379 50.2305 338.162 49.9692 337.839 49.6812C337.517 49.3979 337.048 49.1392 336.433 48.9048L336.367 47.6963C336.782 47.6768 337.146 47.5693 337.458 47.374C337.776 47.1787 338.022 46.9419 338.198 46.6636C338.379 46.3804 338.469 46.1069 338.469 45.8433C338.469 45.5552 338.308 45.4111 337.986 45.4111C337.776 45.4111 337.576 45.5015 337.385 45.6821C337.195 45.8579 337.026 46.0947 336.88 46.3926C336.733 46.6855 336.619 47.0078 336.536 47.3594C336.453 47.7061 336.411 48.0527 336.411 48.3994C336.411 48.9316 336.487 49.4346 336.638 49.9082C336.794 50.3818 337 50.7651 337.253 51.0581C337.512 51.356 337.793 51.5049 338.096 51.5049ZM344.365 49.3003C343.97 49.3003 343.63 49.2319 343.347 49.0952C343.069 48.9634 342.837 48.8071 342.651 48.6265C342.471 48.4409 342.327 48.2749 342.219 48.1284L342.732 46.8247C342.791 47.0835 342.903 47.3032 343.069 47.4839C343.24 47.6646 343.433 47.8037 343.647 47.9014C343.862 47.9941 344.062 48.0405 344.248 48.0405C344.565 48.0405 344.819 47.9746 345.01 47.8428C345.205 47.7109 345.303 47.4814 345.303 47.1543C345.303 46.7002 345.186 46.3608 344.951 46.1362C344.717 45.9116 344.438 45.7993 344.116 45.7993C343.784 45.7993 343.53 45.8896 343.354 46.0703C343.179 46.2461 343.059 46.4854 342.996 46.7881C342.937 47.0859 342.908 47.4204 342.908 47.7915C342.8 48.2896 342.559 48.6289 342.183 48.8096C341.812 48.9902 341.318 49.0781 340.703 49.0732C340.684 49.0732 340.659 49.0732 340.63 49.0732C340.596 49.0732 340.566 49.0732 340.542 49.0732V47.7915C340.566 47.7915 340.591 47.7915 340.615 47.7915C340.635 47.7915 340.659 47.7915 340.688 47.7915C341.108 47.7915 341.387 47.7524 341.523 47.6743C341.66 47.5913 341.729 47.4985 341.729 47.396C341.729 47.3569 341.729 47.3203 341.729 47.2861C341.729 47.2471 341.731 47.1958 341.736 47.1323C341.76 46.9321 341.792 46.7246 341.831 46.5098C341.875 46.29 341.951 46.0679 342.058 45.8433C342.263 45.394 342.566 45.0669 342.966 44.8618C343.367 44.6567 343.757 44.5542 344.138 44.5542C344.817 44.5542 345.388 44.7837 345.852 45.2427C346.316 45.7017 346.548 46.3462 346.548 47.1763C346.548 47.645 346.438 48.0381 346.218 48.3555C345.999 48.668 345.72 48.9023 345.383 49.0586C345.051 49.2197 344.712 49.3003 344.365 49.3003Z" fill="white"/>
<path d="M358.192 53.668C359.573 53.668 360.692 52.9964 360.692 52.168C360.692 51.3395 359.573 50.668 358.192 50.668C356.811 50.668 355.692 51.3395 355.692 52.168C355.692 52.9964 356.811 53.668 358.192 53.668Z" fill="#231F20"/>
<path d="M358.192 85.668C359.573 85.668 360.692 84.9964 360.692 84.168C360.692 83.3395 359.573 82.668 358.192 82.668C356.811 82.668 355.692 83.3395 355.692 84.168C355.692 84.9964 356.811 85.668 358.192 85.668Z" fill="#231F20"/>
<path d="M358.192 68.668C359.573 68.668 360.692 67.9964 360.692 67.168C360.692 66.3395 359.573 65.668 358.192 65.668C356.811 65.668 355.692 66.3395 355.692 67.168C355.692 67.9964 356.811 68.668 358.192 68.668Z" fill="#231F20"/>
<path d="M358.192 105.668C359.573 105.668 360.692 104.996 360.692 104.168C360.692 103.34 359.573 102.668 358.192 102.668C356.811 102.668 355.692 103.34 355.692 104.168C355.692 104.996 356.811 105.668 358.192 105.668Z" fill="#231F20"/>
<path d="M358.192 124.668C359.573 124.668 360.692 123.996 360.692 123.168C360.692 122.34 359.573 121.668 358.192 121.668C356.811 121.668 355.692 122.34 355.692 123.168C355.692 123.996 356.811 124.668 358.192 124.668Z" fill="#231F20"/>
<path d="M358.192 142.668C359.573 142.668 360.692 141.996 360.692 141.168C360.692 140.34 359.573 139.668 358.192 139.668C356.811 139.668 355.692 140.34 355.692 141.168C355.692 141.996 356.811 142.668 358.192 142.668Z" fill="#231F20"/>
<path d="M353.692 106.668H257.692V111.668H353.692V106.668Z" fill="#949598"/>
<path d="M353.692 89.668H257.692V94.668H353.692V89.668Z" fill="#949598"/>
<path d="M353.692 126.668H257.692V131.668H353.692V126.668Z" fill="#949598"/>
<path d="M353.692 145.668H257.692V150.668H353.692V145.668Z" fill="#949598"/>
<path d="M353.692 163.668H257.692V168.668H353.692V163.668Z" fill="#949598"/>
<path d="M353.692 73.668H257.692V78.668H353.692V73.668Z" fill="#949598"/>
<path d="M336.692 106.668H257.692V111.668H336.692V106.668Z" fill="#00AEEF"/>
<path d="M336.692 89.668H257.692V94.668H336.692V89.668Z" fill="#00AEEF"/>
<path d="M345.692 89.668H257.692V94.668H345.692V89.668Z" fill="#00AEEF"/>
<path d="M319.692 126.668H257.692V131.668H319.692V126.668Z" fill="#00AEEF"/>
<path d="M335.692 145.668H257.692V150.668H335.692V145.668Z" fill="#00AEEF"/>
<path d="M335.692 163.668H257.692V168.668H335.692V163.668Z" fill="#00AEEF"/>
<path d="M334.692 73.668H257.692V78.668H334.692V73.668Z" fill="#00AEEF"/>
<path d="M334.137 105.668C335.61 105.668 337.023 106.051 338.065 106.734C339.107 107.417 339.692 108.343 339.692 109.308V110.025C339.692 110.503 339.549 110.977 339.27 111.419C338.991 111.861 338.582 112.262 338.066 112.601C337.55 112.939 336.938 113.208 336.263 113.391C335.589 113.574 334.866 113.668 334.137 113.668C333.552 113.668 332.974 113.593 332.435 113.446C331.895 113.299 331.405 113.085 330.992 112.814C330.579 112.543 330.252 112.222 330.029 111.868C329.806 111.515 329.691 111.136 329.692 110.753V108.58C329.692 107.808 330.16 107.067 330.994 106.521C331.827 105.975 332.958 105.668 334.137 105.668Z" fill="black"/>
<path d="M347.692 63.668C349.018 63.668 350.29 64.0515 351.227 64.7341C352.165 65.4167 352.692 66.3426 352.692 67.308V68.025C352.692 68.5033 352.563 68.9769 352.312 69.4189C352.061 69.8609 351.693 70.2625 351.229 70.6008C350.765 70.9391 350.213 71.2075 349.606 71.3906C348.999 71.5737 348.349 71.668 347.692 71.668C347.166 71.668 346.646 71.5925 346.16 71.446C345.675 71.2995 345.234 71.0847 344.862 70.814C344.491 70.5432 344.196 70.2219 343.995 69.8682C343.794 69.5145 343.691 69.1355 343.692 68.7528V66.5802C343.692 65.8078 344.113 65.0671 344.864 64.5209C345.614 63.9748 346.631 63.668 347.692 63.668Z" fill="black"/>
<path d="M319.137 125.668C320.61 125.668 322.023 126.051 323.065 126.734C324.107 127.417 324.692 128.343 324.692 129.308V130.025C324.692 130.503 324.549 130.977 324.27 131.419C323.991 131.861 323.582 132.262 323.066 132.601C322.55 132.939 321.938 133.208 321.263 133.391C320.589 133.574 319.866 133.668 319.137 133.668C318.552 133.668 317.974 133.593 317.435 133.446C316.895 133.299 316.405 133.085 315.992 132.814C315.579 132.543 315.252 132.222 315.029 131.868C314.806 131.515 314.691 131.136 314.692 130.753V128.58C314.692 127.808 315.16 127.067 315.994 126.521C316.827 125.975 317.958 125.668 319.137 125.668Z" fill="black"/>
<path d="M335.692 144.668C337.018 144.668 338.29 145.051 339.227 145.734C340.165 146.417 340.692 147.343 340.692 148.308V149.025C340.692 149.503 340.563 149.977 340.312 150.419C340.061 150.861 339.693 151.262 339.229 151.601C338.765 151.939 338.213 152.208 337.606 152.391C336.999 152.574 336.349 152.668 335.692 152.668C335.166 152.668 334.646 152.593 334.16 152.446C333.675 152.299 333.234 152.085 332.862 151.814C332.491 151.543 332.196 151.222 331.995 150.868C331.794 150.515 331.691 150.136 331.692 149.753V147.58C331.692 146.808 332.113 146.067 332.864 145.521C333.614 144.975 334.631 144.668 335.692 144.668Z" fill="black"/>
<path d="M335.692 162.668C337.018 162.668 338.29 163.051 339.227 163.734C340.165 164.417 340.692 165.343 340.692 166.308V167.025C340.692 167.503 340.563 167.977 340.312 168.419C340.061 168.861 339.693 169.262 339.229 169.601C338.765 169.939 338.213 170.208 337.606 170.391C336.999 170.574 336.349 170.668 335.692 170.668C335.166 170.668 334.646 170.593 334.16 170.446C333.675 170.299 333.234 170.085 332.862 169.814C332.491 169.543 332.196 169.222 331.995 168.868C331.794 168.515 331.691 168.136 331.692 167.753V165.58C331.692 164.808 332.113 164.067 332.864 163.521C333.614 162.975 334.631 162.668 335.692 162.668Z" fill="black"/>
<path d="M330.137 72.668C331.61 72.668 333.023 73.0515 334.065 73.7341C335.107 74.4167 335.692 75.3426 335.692 76.308V77.025C335.692 77.5033 335.549 77.9769 335.27 78.4189C334.991 78.8609 334.582 79.2625 334.066 79.6008C333.55 79.9391 332.938 80.2075 332.263 80.3906C331.589 80.5737 330.866 80.668 330.137 80.668C329.552 80.668 328.974 80.5925 328.435 80.446C327.895 80.2995 327.405 80.0847 326.992 79.814C326.579 79.5432 326.252 79.2219 326.029 78.8682C325.806 78.5145 325.691 78.1355 325.692 77.7528V75.5802C325.692 74.8078 326.16 74.0671 326.994 73.5209C327.827 72.9748 328.958 72.668 330.137 72.668Z" fill="black"/>
<path d="M353.692 163.668H257.692V168.668H353.692V163.668Z" fill="#949598"/>
<path d="M335.692 163.668H257.692V168.668H335.692V163.668Z" fill="#00AEEF"/>
<path d="M335.692 162.668C337.018 162.668 338.29 163.051 339.227 163.734C340.165 164.417 340.692 165.343 340.692 166.308V167.025C340.692 167.503 340.563 167.977 340.312 168.419C340.061 168.861 339.693 169.262 339.229 169.601C338.765 169.939 338.213 170.208 337.606 170.391C336.999 170.574 336.349 170.668 335.692 170.668C335.166 170.668 334.646 170.593 334.16 170.446C333.675 170.299 333.234 170.085 332.862 169.814C332.491 169.543 332.196 169.222 331.995 168.868C331.794 168.515 331.691 168.136 331.692 167.753V165.58C331.692 164.808 332.113 164.067 332.864 163.521C333.614 162.975 334.631 162.668 335.692 162.668Z" fill="black"/>
<path d="M99.2524 114L98.6558 112.204H95.3296L94.7139 114H93.0127L96.0405 105.228H98.0337L101.125 114H99.2524ZM97.3291 108.255C97.1768 107.794 97.0604 107.39 96.98 107.043H96.9673C96.8276 107.563 96.7134 107.968 96.6245 108.255L95.7295 110.864H98.2241L97.3291 108.255ZM105.676 114C105.676 113.632 105.702 113.272 105.752 112.921H105.727C105.342 113.738 104.663 114.146 103.689 114.146C102.919 114.146 102.329 113.871 101.918 113.321C101.529 112.796 101.334 112.06 101.334 111.112C101.334 110.007 101.637 109.121 102.242 108.452C102.86 107.767 103.698 107.424 104.756 107.424C105.048 107.424 105.321 107.441 105.575 107.475V104.51H107.225V114H105.676ZM105.575 108.839C105.253 108.772 104.961 108.738 104.699 108.738C103.615 108.738 103.074 109.47 103.074 110.934C103.074 112.153 103.444 112.762 104.185 112.762C104.604 112.762 104.944 112.549 105.207 112.121C105.452 111.719 105.575 111.228 105.575 110.648V108.839ZM114.887 110.648C114.887 111.66 114.578 112.493 113.96 113.149C113.338 113.801 112.547 114.127 111.586 114.127C109.567 114.127 108.558 113.044 108.558 110.877C108.558 109.866 108.863 109.036 109.472 108.389C110.09 107.737 110.886 107.411 111.859 107.411C112.811 107.411 113.547 107.671 114.068 108.192C114.614 108.746 114.887 109.565 114.887 110.648ZM113.173 110.737C113.173 109.455 112.697 108.814 111.745 108.814C111.338 108.814 111 108.964 110.729 109.265C110.424 109.607 110.272 110.09 110.272 110.712C110.272 112.045 110.754 112.711 111.719 112.711C112.147 112.711 112.492 112.546 112.754 112.216C113.033 111.865 113.173 111.372 113.173 110.737ZM122.066 110.439C122.066 111.552 121.761 112.441 121.152 113.105C120.521 113.786 119.66 114.127 118.568 114.127C117.705 114.127 116.903 114.023 116.163 113.816V104.51H117.826V107.291C117.826 107.773 117.792 108.194 117.724 108.554H117.737C118.088 107.792 118.738 107.411 119.686 107.411C120.451 107.411 121.042 107.676 121.457 108.205C121.863 108.729 122.066 109.474 122.066 110.439ZM120.32 110.604C120.32 109.394 119.952 108.789 119.216 108.789C118.797 108.789 118.456 109 118.194 109.423C117.948 109.821 117.826 110.301 117.826 110.864V112.686C118.058 112.766 118.348 112.807 118.695 112.807C119.779 112.807 120.32 112.072 120.32 110.604ZM128.813 110.153C128.813 110.538 128.792 110.849 128.75 111.086H124.757C124.757 112.25 125.352 112.832 126.541 112.832C127.167 112.832 127.792 112.705 128.414 112.451L128.591 113.714C127.842 113.989 127.064 114.127 126.255 114.127C124.131 114.127 123.069 113.027 123.069 110.826C123.069 109.832 123.34 109.021 123.881 108.395C124.444 107.739 125.195 107.411 126.135 107.411C127.032 107.411 127.715 107.676 128.185 108.205C128.604 108.683 128.813 109.332 128.813 110.153ZM127.163 109.982C127.188 109.081 126.816 108.63 126.046 108.63C125.293 108.63 124.867 109.081 124.77 109.982H127.163ZM132.755 114V105.228H134.444V114H132.755ZM140.074 114V109.868C140.074 109.157 139.806 108.801 139.268 108.801C138.853 108.801 138.5 109.007 138.208 109.417C137.916 109.823 137.77 110.31 137.77 110.877V114H136.107V107.538H137.681C137.681 107.995 137.649 108.38 137.586 108.693H137.605C138.045 107.839 138.777 107.411 139.801 107.411C141.083 107.411 141.725 108.095 141.725 109.461V114H140.074ZM150.827 109.461C150.827 110.93 150.379 112.07 149.481 112.883C148.622 113.661 147.459 114.051 145.99 114.051C145.597 114.051 144.782 114.03 143.546 113.987V105.24C144.693 105.194 145.637 105.17 146.377 105.17C149.344 105.17 150.827 106.601 150.827 109.461ZM149.005 109.595C149.005 107.593 148.091 106.592 146.263 106.592C145.853 106.592 145.51 106.605 145.235 106.63V112.546C145.497 112.589 145.806 112.61 146.162 112.61C147.025 112.61 147.704 112.367 148.199 111.88C148.737 111.355 149.005 110.593 149.005 109.595ZM157.556 110.153C157.556 110.538 157.535 110.849 157.492 111.086H153.5C153.5 112.25 154.094 112.832 155.283 112.832C155.91 112.832 156.534 112.705 157.156 112.451L157.333 113.714C156.584 113.989 155.806 114.127 154.998 114.127C152.873 114.127 151.811 113.027 151.811 110.826C151.811 109.832 152.082 109.021 152.624 108.395C153.186 107.739 153.938 107.411 154.877 107.411C155.774 107.411 156.458 107.676 156.927 108.205C157.346 108.683 157.556 109.332 157.556 110.153ZM155.905 109.982C155.931 109.081 155.558 108.63 154.788 108.63C154.035 108.63 153.61 109.081 153.512 109.982H155.905ZM162.932 111.988C162.932 112.631 162.672 113.149 162.151 113.543C161.631 113.932 160.943 114.127 160.088 114.127C159.526 114.127 159.043 114.072 158.641 113.962L158.762 112.572C159.16 112.745 159.619 112.832 160.139 112.832C160.833 112.832 161.18 112.597 161.18 112.127C161.18 111.882 161.043 111.685 160.768 111.537C160.742 111.524 160.442 111.408 159.866 111.188C158.99 110.858 158.552 110.282 158.552 109.461C158.552 108.856 158.774 108.37 159.219 108.001C159.71 107.599 160.402 107.398 161.294 107.398C161.671 107.398 162.06 107.441 162.462 107.525L162.386 108.827C162.005 108.712 161.616 108.655 161.218 108.655C160.583 108.655 160.266 108.877 160.266 109.322C160.266 109.555 160.406 109.747 160.685 109.899L161.599 110.268C162.488 110.619 162.932 111.192 162.932 111.988ZM166.214 105.577C166.214 105.852 166.112 106.087 165.909 106.281C165.702 106.48 165.456 106.58 165.173 106.58C164.885 106.58 164.642 106.482 164.443 106.288C164.244 106.093 164.145 105.856 164.145 105.577C164.145 105.297 164.244 105.058 164.443 104.859C164.642 104.66 164.885 104.561 165.173 104.561C165.461 104.561 165.706 104.658 165.909 104.853C166.112 105.052 166.214 105.293 166.214 105.577ZM164.341 114V107.538H166.004V114H164.341ZM173.653 114.692C173.653 115.407 173.33 116.008 172.682 116.495C172.014 117.007 171.154 117.263 170.105 117.263C169.237 117.263 168.562 117.1 168.08 116.774C167.585 116.44 167.337 115.961 167.337 115.339C167.337 114.641 167.672 114.112 168.34 113.752C167.913 113.554 167.699 113.223 167.699 112.762C167.699 112.216 167.955 111.831 168.467 111.607C167.828 111.26 167.509 110.672 167.509 109.842C167.509 109.153 167.748 108.581 168.226 108.128C168.742 107.642 169.451 107.398 170.353 107.398C170.687 107.398 171.038 107.445 171.406 107.538H173.603V108.839H172.72C172.936 109.042 173.044 109.315 173.044 109.658C173.044 110.369 172.813 110.93 172.352 111.34C171.865 111.772 171.174 111.988 170.276 111.988C170.099 111.988 169.929 111.969 169.769 111.931C169.561 112.024 169.458 112.163 169.458 112.35C169.458 112.498 169.529 112.599 169.673 112.654C169.813 112.705 170.075 112.737 170.46 112.75L171.457 112.794C172.921 112.845 173.653 113.477 173.653 114.692ZM172.003 114.908C172.003 114.379 171.664 114.102 170.987 114.076L169.572 114.038C169.174 114.326 168.975 114.656 168.975 115.028C168.975 115.325 169.1 115.559 169.35 115.733C169.599 115.902 169.934 115.987 170.353 115.987C170.877 115.987 171.288 115.883 171.584 115.676C171.863 115.481 172.003 115.225 172.003 114.908ZM171.457 109.747C171.457 108.985 171.068 108.604 170.289 108.604C169.921 108.604 169.627 108.712 169.407 108.928C169.195 109.136 169.089 109.404 169.089 109.734C169.089 110.479 169.489 110.852 170.289 110.852C171.068 110.852 171.457 110.483 171.457 109.747ZM178.896 114V109.868C178.896 109.157 178.628 108.801 178.09 108.801C177.676 108.801 177.322 109.007 177.03 109.417C176.738 109.823 176.592 110.31 176.592 110.877V114H174.929V107.538H176.503C176.503 107.995 176.472 108.38 176.408 108.693H176.427C176.867 107.839 177.599 107.411 178.624 107.411C179.906 107.411 180.547 108.095 180.547 109.461V114H178.896Z" fill="#FF0040"/>
<path d="M99.2524 133L98.6558 131.204H95.3296L94.7139 133H93.0127L96.0405 124.228H98.0337L101.125 133H99.2524ZM97.3291 127.255C97.1768 126.794 97.0604 126.39 96.98 126.043H96.9673C96.8276 126.563 96.7134 126.968 96.6245 127.255L95.7295 129.864H98.2241L97.3291 127.255ZM105.676 133C105.676 132.632 105.702 132.272 105.752 131.921H105.727C105.342 132.738 104.663 133.146 103.689 133.146C102.919 133.146 102.329 132.871 101.918 132.321C101.529 131.796 101.334 131.06 101.334 130.112C101.334 129.007 101.637 128.121 102.242 127.452C102.86 126.767 103.698 126.424 104.756 126.424C105.048 126.424 105.321 126.441 105.575 126.475V123.51H107.225V133H105.676ZM105.575 127.839C105.253 127.772 104.961 127.738 104.699 127.738C103.615 127.738 103.074 128.47 103.074 129.934C103.074 131.153 103.444 131.762 104.185 131.762C104.604 131.762 104.944 131.549 105.207 131.121C105.452 130.719 105.575 130.228 105.575 129.648V127.839ZM114.887 129.648C114.887 130.66 114.578 131.493 113.96 132.149C113.338 132.801 112.547 133.127 111.586 133.127C109.567 133.127 108.558 132.044 108.558 129.877C108.558 128.866 108.863 128.036 109.472 127.389C110.09 126.737 110.886 126.411 111.859 126.411C112.811 126.411 113.547 126.671 114.068 127.192C114.614 127.746 114.887 128.565 114.887 129.648ZM113.173 129.737C113.173 128.455 112.697 127.814 111.745 127.814C111.338 127.814 111 127.964 110.729 128.265C110.424 128.607 110.272 129.09 110.272 129.712C110.272 131.045 110.754 131.711 111.719 131.711C112.147 131.711 112.492 131.546 112.754 131.216C113.033 130.865 113.173 130.372 113.173 129.737ZM122.066 129.439C122.066 130.552 121.761 131.441 121.152 132.105C120.521 132.786 119.66 133.127 118.568 133.127C117.705 133.127 116.903 133.023 116.163 132.816V123.51H117.826V126.291C117.826 126.773 117.792 127.194 117.724 127.554H117.737C118.088 126.792 118.738 126.411 119.686 126.411C120.451 126.411 121.042 126.676 121.457 127.205C121.863 127.729 122.066 128.474 122.066 129.439ZM120.32 129.604C120.32 128.394 119.952 127.789 119.216 127.789C118.797 127.789 118.456 128 118.194 128.423C117.948 128.821 117.826 129.301 117.826 129.864V131.686C118.058 131.766 118.348 131.807 118.695 131.807C119.779 131.807 120.32 131.072 120.32 129.604ZM128.813 129.153C128.813 129.538 128.792 129.849 128.75 130.086H124.757C124.757 131.25 125.352 131.832 126.541 131.832C127.167 131.832 127.792 131.705 128.414 131.451L128.591 132.714C127.842 132.989 127.064 133.127 126.255 133.127C124.131 133.127 123.069 132.027 123.069 129.826C123.069 128.832 123.34 128.021 123.881 127.395C124.444 126.739 125.195 126.411 126.135 126.411C127.032 126.411 127.715 126.676 128.185 127.205C128.604 127.683 128.813 128.332 128.813 129.153ZM127.163 128.982C127.188 128.081 126.816 127.63 126.046 127.63C125.293 127.63 124.867 128.081 124.77 128.982H127.163ZM132.755 133V124.228H134.444V133H132.755ZM136.247 133V123.51H137.91V133H136.247ZM139.763 133V123.51H141.426V133H139.763ZM147.158 133C147.158 132.501 147.184 132.116 147.234 131.845H147.222C146.777 132.7 146.045 133.127 145.025 133.127C143.743 133.127 143.102 132.444 143.102 131.077V126.538H144.752V130.67C144.752 131.381 145.021 131.737 145.559 131.737C145.978 131.737 146.333 131.532 146.625 131.121C146.913 130.719 147.057 130.232 147.057 129.661V126.538H148.72V133H147.158ZM154.502 130.988C154.502 131.631 154.242 132.149 153.722 132.543C153.201 132.932 152.514 133.127 151.659 133.127C151.096 133.127 150.613 133.072 150.211 132.962L150.332 131.572C150.73 131.745 151.189 131.832 151.709 131.832C152.403 131.832 152.75 131.597 152.75 131.127C152.75 130.882 152.613 130.685 152.338 130.537C152.312 130.524 152.012 130.408 151.437 130.188C150.561 129.858 150.123 129.282 150.123 128.461C150.123 127.856 150.345 127.37 150.789 127.001C151.28 126.599 151.972 126.398 152.865 126.398C153.241 126.398 153.631 126.441 154.033 126.525L153.957 127.827C153.576 127.712 153.186 127.655 152.789 127.655C152.154 127.655 151.836 127.877 151.836 128.322C151.836 128.555 151.976 128.747 152.255 128.899L153.169 129.268C154.058 129.619 154.502 130.192 154.502 130.988ZM159.46 132.949C158.978 133.068 158.51 133.127 158.057 133.127C157.346 133.127 156.855 132.979 156.584 132.683C156.318 132.386 156.185 131.86 156.185 131.102V127.827H155.067V126.538H156.185V124.551L157.835 124.107V126.538H159.409V127.827H157.835V130.658C157.835 131.072 157.892 131.354 158.006 131.502C158.116 131.65 158.315 131.724 158.603 131.724C158.891 131.724 159.138 131.694 159.346 131.635L159.46 132.949ZM164.259 128.036C163.061 127.799 162.462 128.574 162.462 130.359V133H160.799V126.538H162.374C162.374 126.949 162.333 127.382 162.253 127.839H162.278C162.676 126.794 163.362 126.318 164.335 126.411L164.259 128.036ZM168.912 133C168.912 132.556 168.933 132.192 168.975 131.908L168.962 131.896C168.611 132.716 167.924 133.127 166.899 133.127C166.328 133.127 165.873 132.951 165.535 132.6C165.213 132.262 165.052 131.824 165.052 131.286C165.052 130.537 165.391 129.97 166.068 129.585C166.711 129.217 167.617 129.033 168.785 129.033V128.798C168.785 128.4 168.698 128.114 168.524 127.941C168.347 127.759 168.048 127.668 167.629 127.668C167.012 127.668 166.36 127.816 165.674 128.112L165.401 126.836C166.138 126.544 166.952 126.398 167.845 126.398C168.806 126.398 169.489 126.597 169.896 126.995C170.264 127.351 170.448 127.909 170.448 128.671V131.337C170.448 131.972 170.465 132.526 170.499 133H168.912ZM168.785 130.125C167.363 130.125 166.652 130.45 166.652 131.102C166.652 131.318 166.722 131.496 166.861 131.635C167.005 131.783 167.196 131.857 167.433 131.857C167.822 131.857 168.148 131.694 168.41 131.369C168.66 131.06 168.785 130.702 168.785 130.296V130.125ZM175.672 132.949C175.189 133.068 174.722 133.127 174.269 133.127C173.558 133.127 173.067 132.979 172.796 132.683C172.53 132.386 172.396 131.86 172.396 131.102V127.827H171.279V126.538H172.396V124.551L174.047 124.107V126.538H175.621V127.827H174.047V130.658C174.047 131.072 174.104 131.354 174.218 131.502C174.328 131.65 174.527 131.724 174.815 131.724C175.103 131.724 175.35 131.694 175.558 131.635L175.672 132.949ZM182.769 129.648C182.769 130.66 182.46 131.493 181.842 132.149C181.22 132.801 180.428 133.127 179.468 133.127C177.449 133.127 176.44 132.044 176.44 129.877C176.44 128.866 176.745 128.036 177.354 127.389C177.972 126.737 178.767 126.411 179.741 126.411C180.693 126.411 181.429 126.671 181.95 127.192C182.496 127.746 182.769 128.565 182.769 129.648ZM181.055 129.737C181.055 128.455 180.579 127.814 179.626 127.814C179.22 127.814 178.882 127.964 178.611 128.265C178.306 128.607 178.154 129.09 178.154 129.712C178.154 131.045 178.636 131.711 179.601 131.711C180.028 131.711 180.373 131.546 180.636 131.216C180.915 130.865 181.055 130.372 181.055 129.737ZM187.44 128.036C186.243 127.799 185.644 128.574 185.644 130.359V133H183.981V126.538H185.555C185.555 126.949 185.515 127.382 185.435 127.839H185.46C185.858 126.794 186.543 126.318 187.517 126.411L187.44 128.036Z" fill="#FF0040"/>
<path d="M95.4468 151V142.228H97.1353V149.521H99.9854V151H95.4468ZM104.886 151C104.886 150.501 104.911 150.116 104.962 149.845H104.949C104.505 150.7 103.773 151.127 102.753 151.127C101.471 151.127 100.83 150.444 100.83 149.077V144.538H102.48V148.67C102.48 149.381 102.749 149.737 103.286 149.737C103.705 149.737 104.061 149.532 104.353 149.121C104.64 148.719 104.784 148.232 104.784 147.661V144.538H106.447V151H104.886ZM116.045 151V146.918C116.045 146.174 115.789 145.801 115.277 145.801C114.892 145.801 114.553 145.994 114.261 146.379C113.948 146.789 113.792 147.299 113.792 147.909V151H112.154V146.906C112.154 146.169 111.9 145.801 111.392 145.801C110.999 145.801 110.656 146 110.364 146.398C110.059 146.813 109.907 147.316 109.907 147.909V151H108.244V144.538H109.818C109.818 144.944 109.792 145.329 109.742 145.693L109.754 145.706C110.178 144.843 110.886 144.411 111.881 144.411C112.854 144.411 113.449 144.839 113.665 145.693C114.075 144.839 114.778 144.411 115.772 144.411C117.063 144.411 117.708 145.126 117.708 146.557V151H116.045ZM121.352 142.577C121.352 142.852 121.25 143.087 121.047 143.281C120.84 143.48 120.594 143.58 120.311 143.58C120.023 143.58 119.779 143.482 119.581 143.288C119.382 143.093 119.282 142.856 119.282 142.577C119.282 142.297 119.382 142.058 119.581 141.859C119.779 141.66 120.023 141.561 120.311 141.561C120.598 141.561 120.844 141.658 121.047 141.853C121.25 142.052 121.352 142.293 121.352 142.577ZM119.479 151V144.538H121.142V151H119.479ZM126.899 151V146.868C126.899 146.157 126.631 145.801 126.093 145.801C125.679 145.801 125.325 146.007 125.033 146.417C124.741 146.823 124.595 147.31 124.595 147.877V151H122.932V144.538H124.506C124.506 144.995 124.475 145.38 124.411 145.693H124.43C124.87 144.839 125.602 144.411 126.626 144.411C127.909 144.411 128.55 145.095 128.55 146.461V151H126.899ZM133.787 151C133.787 150.556 133.808 150.192 133.85 149.908L133.837 149.896C133.486 150.716 132.799 151.127 131.774 151.127C131.203 151.127 130.748 150.951 130.41 150.6C130.088 150.262 129.927 149.824 129.927 149.286C129.927 148.537 130.266 147.97 130.943 147.585C131.586 147.217 132.492 147.033 133.66 147.033V146.798C133.66 146.4 133.573 146.114 133.399 145.941C133.222 145.759 132.923 145.668 132.504 145.668C131.887 145.668 131.235 145.816 130.549 146.112L130.276 144.836C131.013 144.544 131.827 144.398 132.72 144.398C133.681 144.398 134.364 144.597 134.771 144.995C135.139 145.351 135.323 145.909 135.323 146.671V149.337C135.323 149.972 135.34 150.526 135.374 151H133.787ZM133.66 148.125C132.238 148.125 131.527 148.45 131.527 149.102C131.527 149.318 131.597 149.496 131.736 149.635C131.88 149.783 132.071 149.857 132.308 149.857C132.697 149.857 133.023 149.694 133.285 149.369C133.535 149.06 133.66 148.702 133.66 148.296V148.125ZM140.534 146.036C139.337 145.799 138.738 146.574 138.738 148.359V151H137.075V144.538H138.649C138.649 144.949 138.609 145.382 138.528 145.839H138.554C138.951 144.794 139.637 144.318 140.61 144.411L140.534 146.036ZM149.281 151L146.564 146.163C146.192 145.435 145.932 144.864 145.784 144.449C145.843 145.342 145.873 146.732 145.873 148.62V151H144.248V142.228H146.482L149.135 146.944C149.431 147.464 149.713 148.05 149.979 148.702C149.92 147.67 149.891 146.248 149.891 144.437V142.228H151.516V151H149.281ZM158.371 147.153C158.371 147.538 158.35 147.849 158.308 148.086H154.315C154.315 149.25 154.91 149.832 156.099 149.832C156.725 149.832 157.349 149.705 157.971 149.451L158.149 150.714C157.4 150.989 156.621 151.127 155.813 151.127C153.689 151.127 152.626 150.027 152.626 147.826C152.626 146.832 152.897 146.021 153.439 145.395C154.002 144.739 154.753 144.411 155.692 144.411C156.59 144.411 157.273 144.676 157.743 145.205C158.162 145.683 158.371 146.332 158.371 147.153ZM156.721 146.982C156.746 146.081 156.374 145.63 155.604 145.63C154.85 145.63 154.425 146.081 154.328 146.982H156.721ZM165.671 147.648C165.671 148.66 165.362 149.493 164.744 150.149C164.122 150.801 163.331 151.127 162.37 151.127C160.352 151.127 159.342 150.044 159.342 147.877C159.342 146.866 159.647 146.036 160.256 145.389C160.874 144.737 161.67 144.411 162.643 144.411C163.595 144.411 164.332 144.671 164.852 145.192C165.398 145.746 165.671 146.565 165.671 147.648ZM163.957 147.737C163.957 146.455 163.481 145.814 162.529 145.814C162.123 145.814 161.784 145.964 161.513 146.265C161.208 146.607 161.056 147.09 161.056 147.712C161.056 149.045 161.539 149.711 162.503 149.711C162.931 149.711 163.276 149.546 163.538 149.216C163.817 148.865 163.957 148.372 163.957 147.737ZM174.894 151L174.297 149.204H170.971L170.355 151H168.654L171.682 142.228H173.675L176.767 151H174.894ZM172.971 145.255C172.818 144.794 172.702 144.39 172.622 144.043H172.609C172.469 144.563 172.355 144.968 172.266 145.255L171.371 147.864H173.866L172.971 145.255ZM177.687 151V142.228H179.375V151H177.687Z" fill="#FF0040"/>
<path d="M99.2524 169L98.6558 167.204H95.3296L94.7139 169H93.0127L96.0405 160.228H98.0337L101.125 169H99.2524ZM97.3291 163.255C97.1768 162.794 97.0604 162.39 96.98 162.043H96.9673C96.8276 162.563 96.7134 162.968 96.6245 163.255L95.7295 165.864H98.2241L97.3291 163.255ZM105.676 169C105.676 168.632 105.702 168.272 105.752 167.921H105.727C105.342 168.738 104.663 169.146 103.689 169.146C102.919 169.146 102.329 168.871 101.918 168.321C101.529 167.796 101.334 167.06 101.334 166.112C101.334 165.007 101.637 164.121 102.242 163.452C102.86 162.767 103.698 162.424 104.756 162.424C105.048 162.424 105.321 162.441 105.575 162.475V159.51H107.225V169H105.676ZM105.575 163.839C105.253 163.772 104.961 163.738 104.699 163.738C103.615 163.738 103.074 164.47 103.074 165.934C103.074 167.153 103.444 167.762 104.185 167.762C104.604 167.762 104.944 167.549 105.207 167.121C105.452 166.719 105.575 166.228 105.575 165.648V163.839ZM114.887 165.648C114.887 166.66 114.578 167.493 113.96 168.149C113.338 168.801 112.547 169.127 111.586 169.127C109.567 169.127 108.558 168.044 108.558 165.877C108.558 164.866 108.863 164.036 109.472 163.389C110.09 162.737 110.886 162.411 111.859 162.411C112.811 162.411 113.547 162.671 114.068 163.192C114.614 163.746 114.887 164.565 114.887 165.648ZM113.173 165.737C113.173 164.455 112.697 163.814 111.745 163.814C111.338 163.814 111 163.964 110.729 164.265C110.424 164.607 110.272 165.09 110.272 165.712C110.272 167.045 110.754 167.711 111.719 167.711C112.147 167.711 112.492 167.546 112.754 167.216C113.033 166.865 113.173 166.372 113.173 165.737ZM122.066 165.439C122.066 166.552 121.761 167.441 121.152 168.105C120.521 168.786 119.66 169.127 118.568 169.127C117.705 169.127 116.903 169.023 116.163 168.816V159.51H117.826V162.291C117.826 162.773 117.792 163.194 117.724 163.554H117.737C118.088 162.792 118.738 162.411 119.686 162.411C120.451 162.411 121.042 162.676 121.457 163.205C121.863 163.729 122.066 164.474 122.066 165.439ZM120.32 165.604C120.32 164.394 119.952 163.789 119.216 163.789C118.797 163.789 118.456 164 118.194 164.423C117.948 164.821 117.826 165.301 117.826 165.864V167.686C118.058 167.766 118.348 167.807 118.695 167.807C119.779 167.807 120.32 167.072 120.32 165.604ZM128.813 165.153C128.813 165.538 128.792 165.849 128.75 166.086H124.757C124.757 167.25 125.352 167.832 126.541 167.832C127.167 167.832 127.792 167.705 128.414 167.451L128.591 168.714C127.842 168.989 127.064 169.127 126.255 169.127C124.131 169.127 123.069 168.027 123.069 165.826C123.069 164.832 123.34 164.021 123.881 163.395C124.444 162.739 125.195 162.411 126.135 162.411C127.032 162.411 127.715 162.676 128.185 163.205C128.604 163.683 128.813 164.332 128.813 165.153ZM127.163 164.982C127.188 164.081 126.816 163.63 126.046 163.63C125.293 163.63 124.867 164.081 124.77 164.982H127.163ZM137.745 169L135.859 165.775L133.974 169H131.975L134.768 164.512L132.146 160.228H134.107L135.885 163.268L137.656 160.228H139.579L136.996 164.5L139.877 169H137.745ZM148.199 164.461C148.199 165.93 147.751 167.07 146.854 167.883C145.994 168.661 144.831 169.051 143.362 169.051C142.969 169.051 142.154 169.03 140.918 168.987V160.24C142.065 160.194 143.009 160.17 143.75 160.17C146.716 160.17 148.199 161.601 148.199 164.461ZM146.377 164.595C146.377 162.593 145.463 161.592 143.635 161.592C143.225 161.592 142.882 161.605 142.607 161.63V167.546C142.869 167.589 143.178 167.61 143.534 167.61C144.397 167.61 145.076 167.367 145.571 166.88C146.109 166.355 146.377 165.593 146.377 164.595Z" fill="#FF0040"/>
<path d="M97.4688 95.9492C96.9863 96.0677 96.5187 96.127 96.0659 96.127C95.355 96.127 94.8641 95.9788 94.5933 95.6826C94.3267 95.3864 94.1934 94.8595 94.1934 94.1021V90.8267H93.0762V89.5381H94.1934V87.5513L95.8438 87.1069V89.5381H97.418V90.8267H95.8438V93.6577C95.8438 94.0724 95.9009 94.3538 96.0151 94.502C96.1252 94.6501 96.3241 94.7241 96.6118 94.7241C96.8996 94.7241 97.1471 94.6945 97.3545 94.6353L97.4688 95.9492ZM104.565 92.6484C104.565 93.6598 104.257 94.4935 103.639 95.1494C103.017 95.8011 102.225 96.127 101.265 96.127C99.2461 96.127 98.2368 95.0436 98.2368 92.877C98.2368 91.8656 98.5415 91.0361 99.1509 90.3887C99.7687 89.737 100.564 89.4111 101.538 89.4111C102.49 89.4111 103.226 89.6714 103.747 90.1919C104.292 90.7463 104.565 91.5651 104.565 92.6484ZM102.852 92.7373C102.852 91.4551 102.375 90.814 101.423 90.814C101.017 90.814 100.679 90.9642 100.408 91.2646C100.103 91.6074 99.9507 92.0898 99.9507 92.7119C99.9507 94.0449 100.433 94.7114 101.398 94.7114C101.825 94.7114 102.17 94.5464 102.433 94.2163C102.712 93.8651 102.852 93.3721 102.852 92.7373ZM111.707 92.4263C111.707 93.5688 111.419 94.4596 110.843 95.0986C110.247 95.7588 109.398 96.0889 108.298 96.0889C107.985 96.0889 107.708 96.0719 107.466 96.0381V99.1357H105.803V89.5381H107.352C107.352 89.9782 107.329 90.3379 107.282 90.6172H107.314C107.703 89.8132 108.378 89.4111 109.339 89.4111C110.101 89.4111 110.687 89.6735 111.097 90.1982C111.503 90.723 111.707 91.4657 111.707 92.4263ZM109.961 92.604C109.961 91.3853 109.593 90.7759 108.856 90.7759C108.438 90.7759 108.097 90.9896 107.834 91.417C107.589 91.8232 107.466 92.3162 107.466 92.896V94.686C107.729 94.7664 108.019 94.8066 108.336 94.8066C109.419 94.8066 109.961 94.0724 109.961 92.604ZM116.582 96C116.582 95.5557 116.603 95.1917 116.645 94.9082L116.632 94.8955C116.281 95.7165 115.593 96.127 114.569 96.127C113.998 96.127 113.543 95.9513 113.205 95.6001C112.883 95.2616 112.722 94.8236 112.722 94.2861C112.722 93.5371 113.061 92.9701 113.738 92.585C114.381 92.2168 115.287 92.0327 116.455 92.0327V91.7979C116.455 91.4001 116.368 91.1144 116.194 90.9409C116.017 90.759 115.718 90.668 115.299 90.668C114.681 90.668 114.03 90.8161 113.344 91.1123L113.071 89.8364C113.808 89.5444 114.622 89.3984 115.515 89.3984C116.476 89.3984 117.159 89.5973 117.565 89.9951C117.934 90.3506 118.118 90.9092 118.118 91.6709V94.3369C118.118 94.9717 118.135 95.526 118.168 96H116.582ZM116.455 93.1245C115.033 93.1245 114.322 93.4504 114.322 94.1021C114.322 94.3179 114.392 94.4956 114.531 94.6353C114.675 94.7834 114.866 94.8574 115.103 94.8574C115.492 94.8574 115.818 94.6945 116.08 94.3687C116.33 94.0597 116.455 93.7021 116.455 93.2959V93.1245ZM119.635 96V94.8193L122.237 91.0107C121.907 91.0277 121.448 91.0361 120.86 91.0361H119.711V89.5381H124.237V90.7251L121.691 94.4893C121.873 94.4808 122.362 94.4766 123.158 94.4766H124.288V96H119.635ZM134.133 89.8745C134.133 90.7928 133.837 91.5355 133.244 92.1025C132.614 92.6992 131.748 92.9976 130.648 92.9976C130.432 92.9976 130.229 92.9891 130.039 92.9722V96H128.35V87.2275C129.154 87.1895 129.973 87.1704 130.807 87.1704C131.877 87.1704 132.7 87.4053 133.276 87.875C133.847 88.3447 134.133 89.0112 134.133 89.8745ZM132.381 90.0459C132.381 89.0599 131.818 88.5669 130.692 88.5669C130.472 88.5669 130.254 88.5711 130.039 88.5796V91.5249C130.254 91.5715 130.493 91.5947 130.756 91.5947C131.839 91.5947 132.381 91.0785 132.381 90.0459ZM139.249 96V91.8677C139.249 91.1567 138.98 90.8013 138.443 90.8013C138.028 90.8013 137.675 91.0065 137.383 91.417C137.091 91.8275 136.945 92.3205 136.945 92.896V96H135.282V86.5103H136.945V89.2905C136.945 89.8322 136.907 90.2702 136.831 90.6045H136.856C137.275 89.8089 137.982 89.4111 138.976 89.4111C140.258 89.4111 140.899 90.0946 140.899 91.4614V96H139.249ZM148.542 92.6484C148.542 93.6598 148.233 94.4935 147.615 95.1494C146.993 95.8011 146.202 96.127 145.241 96.127C143.223 96.127 142.213 95.0436 142.213 92.877C142.213 91.8656 142.518 91.0361 143.127 90.3887C143.745 89.737 144.541 89.4111 145.514 89.4111C146.466 89.4111 147.203 89.6714 147.723 90.1919C148.269 90.7463 148.542 91.5651 148.542 92.6484ZM146.828 92.7373C146.828 91.4551 146.352 90.814 145.4 90.814C144.994 90.814 144.655 90.9642 144.384 91.2646C144.08 91.6074 143.927 92.0898 143.927 92.7119C143.927 94.0449 144.41 94.7114 145.375 94.7114C145.802 94.7114 146.147 94.5464 146.409 94.2163C146.688 93.8651 146.828 93.3721 146.828 92.7373ZM153.354 95.9492C152.871 96.0677 152.403 96.127 151.951 96.127C151.24 96.127 150.749 95.9788 150.478 95.6826C150.211 95.3864 150.078 94.8595 150.078 94.1021V90.8267H148.961V89.5381H150.078V87.5513L151.729 87.1069V89.5381H153.303V90.8267H151.729V93.6577C151.729 94.0724 151.786 94.3538 151.9 94.502C152.01 94.6501 152.209 94.7241 152.497 94.7241C152.784 94.7241 153.032 94.6945 153.239 94.6353L153.354 95.9492ZM160.45 92.6484C160.45 93.6598 160.141 94.4935 159.523 95.1494C158.901 95.8011 158.11 96.127 157.149 96.127C155.131 96.127 154.122 95.0436 154.122 92.877C154.122 91.8656 154.426 91.0361 155.036 90.3887C155.653 89.737 156.449 89.4111 157.422 89.4111C158.375 89.4111 159.111 89.6714 159.631 90.1919C160.177 90.7463 160.45 91.5651 160.45 92.6484ZM158.736 92.7373C158.736 91.4551 158.26 90.814 157.308 90.814C156.902 90.814 156.563 90.9642 156.292 91.2646C155.988 91.6074 155.835 92.0898 155.835 92.7119C155.835 94.0449 156.318 94.7114 157.283 94.7114C157.71 94.7114 158.055 94.5464 158.317 94.2163C158.597 93.8651 158.736 93.3721 158.736 92.7373ZM169.673 96L169.077 94.2036H165.75L165.135 96H163.434L166.461 87.2275H168.455L171.546 96H169.673ZM167.75 90.2554C167.598 89.7941 167.481 89.39 167.401 89.043H167.388C167.249 89.5635 167.134 89.9676 167.045 90.2554L166.15 92.8643H168.645L167.75 90.2554ZM172.466 96V87.2275H174.155V96H172.466Z" fill="#FF0040"/>
<path d="M97.2524 79L96.6558 77.2036H93.3296L92.7139 79H91.0127L94.0405 70.2275H96.0337L99.125 79H97.2524ZM95.3291 73.2554C95.1768 72.7941 95.0604 72.39 94.98 72.043H94.9673C94.8276 72.5635 94.7134 72.9676 94.6245 73.2554L93.7295 75.8643H96.2241L95.3291 73.2554ZM103.676 79C103.676 78.6318 103.702 78.2721 103.752 77.9209H103.727C103.342 78.7376 102.663 79.146 101.689 79.146C100.919 79.146 100.329 78.8709 99.9185 78.3208C99.5291 77.7961 99.3345 77.0597 99.3345 76.1118C99.3345 75.0073 99.637 74.1208 100.242 73.4521C100.86 72.7666 101.698 72.4238 102.756 72.4238C103.048 72.4238 103.321 72.4408 103.575 72.4746V69.5103H105.225V79H103.676ZM103.575 73.8394C103.253 73.7716 102.961 73.7378 102.699 73.7378C101.615 73.7378 101.074 74.4699 101.074 75.9341C101.074 77.1528 101.444 77.7622 102.185 77.7622C102.604 77.7622 102.944 77.5485 103.207 77.1211C103.452 76.7191 103.575 76.2282 103.575 75.6484V73.8394ZM112.887 75.6484C112.887 76.6598 112.578 77.4935 111.96 78.1494C111.338 78.8011 110.547 79.127 109.586 79.127C107.567 79.127 106.558 78.0436 106.558 75.877C106.558 74.8656 106.863 74.0361 107.472 73.3887C108.09 72.737 108.886 72.4111 109.859 72.4111C110.811 72.4111 111.547 72.6714 112.068 73.1919C112.614 73.7463 112.887 74.5651 112.887 75.6484ZM111.173 75.7373C111.173 74.4551 110.697 73.814 109.745 73.814C109.338 73.814 109 73.9642 108.729 74.2646C108.424 74.6074 108.272 75.0898 108.272 75.7119C108.272 77.0449 108.754 77.7114 109.719 77.7114C110.147 77.7114 110.492 77.5464 110.754 77.2163C111.033 76.8651 111.173 76.3721 111.173 75.7373ZM120.066 75.439C120.066 76.5519 119.761 77.4406 119.152 78.105C118.521 78.7863 117.66 79.127 116.568 79.127C115.705 79.127 114.903 79.0233 114.163 78.8159V69.5103H115.826V72.2905C115.826 72.7729 115.792 73.194 115.724 73.5537H115.737C116.088 72.792 116.738 72.4111 117.686 72.4111C118.451 72.4111 119.042 72.6756 119.457 73.2046C119.863 73.7293 120.066 74.4741 120.066 75.439ZM118.32 75.604C118.32 74.3937 117.952 73.7886 117.216 73.7886C116.797 73.7886 116.456 74.0002 116.194 74.4233C115.948 74.8211 115.826 75.3014 115.826 75.8643V77.686C116.058 77.7664 116.348 77.8066 116.695 77.8066C117.779 77.8066 118.32 77.0724 118.32 75.604ZM126.813 75.1533C126.813 75.5384 126.792 75.8494 126.75 76.0864H122.757C122.757 77.2502 123.352 77.832 124.541 77.832C125.167 77.832 125.792 77.7051 126.414 77.4512L126.591 78.7144C125.842 78.9894 125.064 79.127 124.255 79.127C122.131 79.127 121.069 78.0267 121.069 75.8262C121.069 74.8317 121.34 74.0213 121.881 73.395C122.444 72.7391 123.195 72.4111 124.135 72.4111C125.032 72.4111 125.715 72.6756 126.185 73.2046C126.604 73.6828 126.813 74.3324 126.813 75.1533ZM125.163 74.9819C125.188 74.0806 124.816 73.6299 124.046 73.6299C123.293 73.6299 122.867 74.0806 122.77 74.9819H125.163ZM136.538 72.8745C136.538 73.7928 136.242 74.5355 135.649 75.1025C135.019 75.6992 134.153 75.9976 133.053 75.9976C132.837 75.9976 132.634 75.9891 132.444 75.9722V79H130.755V70.2275C131.559 70.1895 132.378 70.1704 133.212 70.1704C134.283 70.1704 135.106 70.4053 135.681 70.875C136.252 71.3447 136.538 72.0112 136.538 72.8745ZM134.786 73.0459C134.786 72.0599 134.223 71.5669 133.098 71.5669C132.878 71.5669 132.66 71.5711 132.444 71.5796V74.5249C132.66 74.5715 132.899 74.5947 133.161 74.5947C134.244 74.5947 134.786 74.0785 134.786 73.0459ZM141.654 79V74.8677C141.654 74.1567 141.386 73.8013 140.848 73.8013C140.433 73.8013 140.08 74.0065 139.788 74.417C139.496 74.8275 139.35 75.3205 139.35 75.896V79H137.687V69.5103H139.35V72.2905C139.35 72.8322 139.312 73.2702 139.236 73.6045H139.261C139.68 72.8089 140.387 72.4111 141.381 72.4111C142.664 72.4111 143.305 73.0946 143.305 74.4614V79H141.654ZM150.947 75.6484C150.947 76.6598 150.638 77.4935 150.021 78.1494C149.398 78.8011 148.607 79.127 147.646 79.127C145.628 79.127 144.619 78.0436 144.619 75.877C144.619 74.8656 144.923 74.0361 145.533 73.3887C146.151 72.737 146.946 72.4111 147.919 72.4111C148.872 72.4111 149.608 72.6714 150.128 73.1919C150.674 73.7463 150.947 74.5651 150.947 75.6484ZM149.233 75.7373C149.233 74.4551 148.757 73.814 147.805 73.814C147.399 73.814 147.06 73.9642 146.79 74.2646C146.485 74.6074 146.333 75.0898 146.333 75.7119C146.333 77.0449 146.815 77.7114 147.78 77.7114C148.207 77.7114 148.552 77.5464 148.814 77.2163C149.094 76.8651 149.233 76.3721 149.233 75.7373ZM155.759 78.9492C155.276 79.0677 154.809 79.127 154.356 79.127C153.645 79.127 153.154 78.9788 152.883 78.6826C152.617 78.3864 152.483 77.8595 152.483 77.1021V73.8267H151.366V72.5381H152.483V70.5513L154.134 70.1069V72.5381H155.708V73.8267H154.134V76.6577C154.134 77.0724 154.191 77.3538 154.305 77.502C154.415 77.6501 154.614 77.7241 154.902 77.7241C155.19 77.7241 155.437 77.6945 155.645 77.6353L155.759 78.9492ZM162.855 75.6484C162.855 76.6598 162.547 77.4935 161.929 78.1494C161.307 78.8011 160.515 79.127 159.555 79.127C157.536 79.127 156.527 78.0436 156.527 75.877C156.527 74.8656 156.832 74.0361 157.441 73.3887C158.059 72.737 158.854 72.4111 159.828 72.4111C160.78 72.4111 161.516 72.6714 162.037 73.1919C162.583 73.7463 162.855 74.5651 162.855 75.6484ZM161.142 75.7373C161.142 74.4551 160.666 73.814 159.713 73.814C159.307 73.814 158.969 73.9642 158.698 74.2646C158.393 74.6074 158.241 75.0898 158.241 75.7119C158.241 77.0449 158.723 77.7114 159.688 77.7114C160.115 77.7114 160.46 77.5464 160.723 77.2163C161.002 76.8651 161.142 76.3721 161.142 75.7373ZM168.194 76.9878C168.194 77.631 167.934 78.1494 167.413 78.543C166.893 78.9323 166.205 79.127 165.35 79.127C164.787 79.127 164.305 79.0719 163.903 78.9619L164.023 77.5718C164.421 77.7453 164.88 77.832 165.401 77.832C166.095 77.832 166.442 77.5972 166.442 77.1274C166.442 76.882 166.304 76.6852 166.029 76.5371C166.004 76.5244 165.703 76.408 165.128 76.188C164.252 75.8579 163.814 75.2824 163.814 74.4614C163.814 73.8563 164.036 73.3696 164.48 73.0015C164.971 72.5994 165.663 72.3984 166.556 72.3984C166.933 72.3984 167.322 72.4408 167.724 72.5254L167.648 73.8267C167.267 73.7124 166.878 73.6553 166.48 73.6553C165.845 73.6553 165.528 73.8774 165.528 74.3218C165.528 74.5545 165.667 74.7471 165.947 74.8994L166.861 75.2676C167.75 75.6188 168.194 76.1922 168.194 76.9878ZM173.545 79V74.8677C173.545 74.1567 173.276 73.8013 172.739 73.8013C172.324 73.8013 171.971 74.0065 171.679 74.417C171.387 74.8275 171.241 75.3205 171.241 75.896V79H169.578V69.5103H171.241V72.2905C171.241 72.8322 171.203 73.2702 171.126 73.6045H171.152C171.571 72.8089 172.278 72.4111 173.272 72.4111C174.554 72.4111 175.195 73.0946 175.195 74.4614V79H173.545ZM182.838 75.6484C182.838 76.6598 182.529 77.4935 181.911 78.1494C181.289 78.8011 180.498 79.127 179.537 79.127C177.519 79.127 176.509 78.0436 176.509 75.877C176.509 74.8656 176.814 74.0361 177.423 73.3887C178.041 72.737 178.837 72.4111 179.81 72.4111C180.762 72.4111 181.499 72.6714 182.019 73.1919C182.565 73.7463 182.838 74.5651 182.838 75.6484ZM181.124 75.7373C181.124 74.4551 180.648 73.814 179.696 73.814C179.29 73.814 178.951 73.9642 178.68 74.2646C178.375 74.6074 178.223 75.0898 178.223 75.7119C178.223 77.0449 178.706 77.7114 179.67 77.7114C180.098 77.7114 180.443 77.5464 180.705 77.2163C180.984 76.8651 181.124 76.3721 181.124 75.7373ZM189.979 75.4263C189.979 76.5688 189.691 77.4596 189.116 78.0986C188.519 78.7588 187.671 79.0889 186.57 79.0889C186.257 79.0889 185.98 79.0719 185.739 79.0381V82.1357H184.076V72.5381H185.625C185.625 72.9782 185.601 73.3379 185.555 73.6172H185.586C185.976 72.8132 186.651 72.4111 187.611 72.4111C188.373 72.4111 188.959 72.6735 189.37 73.1982C189.776 73.723 189.979 74.4657 189.979 75.4263ZM188.233 75.604C188.233 74.3853 187.865 73.7759 187.129 73.7759C186.71 73.7759 186.369 73.9896 186.107 74.417C185.861 74.8232 185.739 75.3162 185.739 75.896V77.686C186.001 77.7664 186.291 77.8066 186.608 77.8066C187.692 77.8066 188.233 77.0724 188.233 75.604Z" fill="#FF0040"/>
<path d="M246 77H199V76H246V77Z" fill="#00AEEF"/>
<path d="M246 93H199V92H246V93Z" fill="#00AEEF"/>
<path d="M246 130H199V129H246V130Z" fill="#00AEEF"/>
<path d="M246 148H199V147H246V148Z" fill="#00AEEF"/>
<path d="M246 167H199V166H246V167Z" fill="#00AEEF"/>
<path d="M246 111H199V110H246V111Z" fill="#00AEEF"/>
<path d="M396 14L396 75" stroke="white"/>
<path d="M396 14L396 75" stroke="white"/>
<defs>
<filter id="filter0_d_178_1051" x="89" y="25.7002" width="264" height="8.59961" filterUnits="userSpaceOnUse" color-interpolation-filters="sRGB">
<feFlood flood-opacity="0" result="BackgroundImageFix"/>
<feColorMatrix in="SourceAlpha" type="matrix" values="0 0 0 0 0 0 0 0 0 0 0 0 0 0 0 0 0 0 127 0" result="hardAlpha"/>
<feOffset dy="4"/>
<feGaussianBlur stdDeviation="2"/>
<feComposite in2="hardAlpha" operator="out"/>
<feColorMatrix type="matrix" values="0 0 0 0 0 0 0 0 0 0 0 0 0 0 0 0 0 0 0.25 0"/>
<feBlend mode="normal" in2="BackgroundImageFix" result="effect1_dropShadow_178_1051"/>
<feBlend mode="normal" in="SourceGraphic" in2="effect1_dropShadow_178_1051" result="shape"/>
</filter>
</defs>
</svg>
