<svg width="454" height="227" viewBox="0 0 454 227" fill="none" xmlns="http://www.w3.org/2000/svg">
<path d="M198.323 42H344.833C346.173 42 347.5 42.2309 348.738 42.6797C349.976 43.1284 351.101 43.7861 352.048 44.6152C352.996 45.4443 353.748 46.4286 354.26 47.5118C354.773 48.5951 355.037 49.7562 355.037 50.9287V67H198.323C194.534 67 190.9 65.683 188.221 63.3388C185.542 60.9946 184.037 57.8152 184.037 54.5C184.037 51.1848 185.542 48.0054 188.221 45.6612C190.9 43.317 194.534 42 198.323 42Z" fill="#00AEEF"/>
<text fill="white" xml:space="preserve" style="white-space: pre" font-family="Harmattan" font-size="15" font-weight="bold" letter-spacing="0em"><tspan x="201" y="59.0872">&#x627;&#x62a;&#x642;&#x627;&#x646; &#x62a;&#x635;&#x645;&#x64a;&#x645; &#x627;&#x644;&#x645;&#x62d;&#x62a;&#x648;&#x649; &#x627;&#x644;&#x62a;&#x641;&#x627;&#x639;&#x644;&#x64a;</tspan></text>
<path d="M354.829 95.0996C356.209 95.0996 357.329 94.2042 357.329 93.0996C357.329 91.995 356.209 91.0996 354.829 91.0996C353.448 91.0996 352.329 91.995 352.329 93.0996C352.329 94.2042 353.448 95.0996 354.829 95.0996Z" fill="#231F20"/>
<path d="M354.829 125.1C356.209 125.1 357.329 124.204 357.329 123.1C357.329 121.995 356.209 121.1 354.829 121.1C353.448 121.1 352.329 121.995 352.329 123.1C352.329 124.204 353.448 125.1 354.829 125.1Z" fill="#231F20"/>
<path d="M354.829 147.1C356.209 147.1 357.329 146.204 357.329 145.1C357.329 143.995 356.209 143.1 354.829 143.1C353.448 143.1 352.329 143.995 352.329 145.1C352.329 146.204 353.448 147.1 354.829 147.1Z" fill="#231F20"/>
<path d="M354.829 167.1C356.209 167.1 357.329 166.204 357.329 165.1C357.329 163.995 356.209 163.1 354.829 163.1C353.448 163.1 352.329 163.995 352.329 165.1C352.329 166.204 353.448 167.1 354.829 167.1Z" fill="#231F20"/>
<path d="M351.329 120.1H254.329V126.1H351.329V120.1Z" fill="#949598"/>
<path d="M351.329 142.1H254.329V148.1H351.329V142.1Z" fill="#949598"/>
<path d="M351.329 162.1H254.329V168.1H351.329V162.1Z" fill="#949598"/>
<path d="M351.329 89.0996H254.329V95.0996H351.329V89.0996Z" fill="#949598"/>
<path d="M346.329 120.1H254.329V126.1H346.329V120.1Z" fill="#00AEEF"/>
<path d="M307.329 142.1H254.329V148.1H307.329V142.1Z" fill="#00AEEF"/>
<path d="M307.329 162.1H254.329V168.1H307.329V162.1Z" fill="#00AEEF"/>
<path d="M324.329 89.0996H254.329V95.0996H324.329V89.0996Z" fill="#00AEEF"/>
<path d="M343.773 119.1C345.247 119.1 346.66 119.483 347.701 120.166C348.743 120.848 349.329 121.774 349.329 122.74V123.457C349.329 123.935 349.186 124.409 348.907 124.851C348.628 125.293 348.219 125.694 347.703 126.032C347.187 126.371 346.575 126.639 345.9 126.822C345.226 127.005 344.503 127.1 343.773 127.1C343.189 127.1 342.611 127.024 342.071 126.878C341.532 126.731 341.042 126.516 340.629 126.246C340.216 125.975 339.889 125.653 339.666 125.3C339.443 124.946 339.328 124.567 339.329 124.184V122.012C339.329 121.239 339.797 120.499 340.63 119.953C341.464 119.406 342.594 119.1 343.773 119.1Z" fill="black"/>
<path d="M306.329 141.1C307.655 141.1 308.927 141.483 309.864 142.166C310.802 142.848 311.329 143.774 311.329 144.74V145.457C311.329 145.935 311.2 146.409 310.949 146.851C310.698 147.293 310.33 147.694 309.866 148.032C309.401 148.371 308.85 148.639 308.243 148.822C307.636 149.005 306.986 149.1 306.329 149.1C305.803 149.1 305.283 149.024 304.797 148.878C304.311 148.731 303.87 148.516 303.499 148.246C303.127 147.975 302.833 147.653 302.632 147.3C302.431 146.946 302.328 146.567 302.329 146.184V144.012C302.329 143.239 302.75 142.499 303.5 141.953C304.25 141.406 305.268 141.1 306.329 141.1Z" fill="black"/>
<path d="M306.329 161.1C307.655 161.1 308.927 161.483 309.864 162.166C310.802 162.848 311.329 163.774 311.329 164.74V165.457C311.329 165.935 311.2 166.409 310.949 166.851C310.698 167.293 310.33 167.694 309.866 168.032C309.401 168.371 308.85 168.639 308.243 168.822C307.636 169.005 306.986 169.1 306.329 169.1C305.803 169.1 305.283 169.024 304.797 168.878C304.311 168.731 303.87 168.516 303.499 168.246C303.127 167.975 302.833 167.653 302.632 167.3C302.431 166.946 302.328 166.567 302.329 166.184V164.012C302.329 163.239 302.75 162.499 303.5 161.953C304.25 161.406 305.268 161.1 306.329 161.1Z" fill="black"/>
<path d="M320.329 88.0996C321.655 88.0996 322.927 88.4831 323.864 89.1657C324.802 89.8484 325.329 90.7742 325.329 91.7396V92.4567C325.329 92.9349 325.2 93.4086 324.949 93.8505C324.698 94.2925 324.33 94.6941 323.866 95.0324C323.401 95.3708 322.85 95.6391 322.243 95.8223C321.636 96.0054 320.986 96.0996 320.329 96.0996C319.803 96.0996 319.283 96.0242 318.797 95.8777C318.311 95.7311 317.87 95.5163 317.499 95.2456C317.127 94.9749 316.833 94.6535 316.632 94.2998C316.431 93.9462 316.328 93.5672 316.329 93.1845V91.0118C316.329 90.2394 316.75 89.4987 317.5 88.9526C318.25 88.4064 319.268 88.0996 320.329 88.0996Z" fill="black"/>
<text fill="#FF0040" xml:space="preserve" style="white-space: pre" font-family="Bahij TheSansArabic" font-size="13" font-weight="500" letter-spacing="0em"><tspan x="87" y="126.261">Microsoft PowerPoint</tspan></text>
<text fill="#FF0040" xml:space="preserve" style="white-space: pre" font-family="Bahij TheSansArabic" font-size="13" font-weight="500" letter-spacing="0em"><tspan x="87" y="145.261">Adobe Premiere Pro</tspan></text>
<text fill="#FF0040" xml:space="preserve" style="white-space: pre" font-family="Bahij TheSansArabic" font-size="13" font-weight="500" letter-spacing="0em"><tspan x="87" y="164.261">Adobe Audition</tspan></text>
<text fill="#FF0040" xml:space="preserve" style="white-space: pre" font-family="Bahij TheSansArabic" font-size="13" font-weight="500" letter-spacing="0em"><tspan x="90" y="90.261">Articulate Storyline</tspan></text>
<text fill="black" xml:space="preserve" style="white-space: pre" font-family="Bahij TheSansArabic" font-size="7" font-weight="500" letter-spacing="0em"><tspan x="91.0801" y="99.5251">Quizzes &#38; Assessments</tspan></text>
<text fill="black" xml:space="preserve" style="white-space: pre" font-family="Harmattan" font-size="7" font-weight="500" letter-spacing="0em"><tspan x="87" y="173.441">&#x625;&#x632;&#x627;&#x644;&#x629; &#x627;&#x644;&#x636;&#x648;&#x636;&#x627;&#x621; &#x648;&#x627;&#x644;&#x62a;&#x634;&#x648;&#x64a;&#x634;</tspan></text>
<path d="M222.492 71L222.492 132" stroke="white"/>
</svg>
