<svg width="454" height="386" viewBox="0 0 454 386" fill="none" xmlns="http://www.w3.org/2000/svg">
<path d="M220 74C220 78.4183 214.866 82 211 82C207.134 82 204 78.4183 204 74C204 69.5817 207.134 66 211 66C214.866 66 220 69.5817 220 74Z" fill="#00AEEF"/>
<path d="M212.68 80C213.68 80 214.564 79.5133 215.11 78.7685V74.1671L213.951 73.5221L213.989 76.9081C213.99 77.0103 213.935 77.1055 213.846 77.1575L210.62 79.0252C211.125 79.636 211.874 80 212.68 80ZM209.428 79.0536L213.409 76.749L213.394 75.431L210.447 77.1569C210.358 77.2089 210.249 77.2106 210.158 77.1608L206.901 75.349C206.627 76.0815 206.687 76.9019 207.085 77.5827C207.487 78.2707 208.135 78.7631 208.912 78.9688C209.083 79.0142 209.255 79.0388 209.428 79.0536ZM215.689 77.7032C216.494 77.5812 217.186 77.1178 217.595 76.4176C217.997 75.7296 218.104 74.9284 217.896 74.161C217.846 73.9773 217.774 73.8044 217.692 73.637L213.704 71.4195L212.556 72.0913L215.542 73.7514C215.632 73.802 215.689 73.8971 215.689 74.0003V77.7032ZM210.297 76.5811L211.444 75.9092L208.459 74.2492C208.368 74.1983 208.312 74.1034 208.312 74.0003V70.3018C207.515 70.4229 206.812 70.8847 206.405 71.5824C206.003 72.2704 205.896 73.0722 206.104 73.8396C206.154 74.0233 206.226 74.1967 206.309 74.3641L210.297 76.5811ZM212.019 75.5728L213.387 74.7714L213.369 73.199L211.983 72.4278L210.614 73.2291L210.631 74.8016L212.019 75.5728ZM210.049 74.4779L210.011 71.0925C210.01 70.9908 210.064 70.8956 210.153 70.8436L213.364 68.9575C212.86 68.3573 212.121 68 211.32 68C210.321 68 209.436 68.487 208.89 69.2315V73.8329L210.049 74.4779ZM217.099 72.651C217.373 71.9185 217.314 71.101 216.915 70.4179C216.513 69.7299 215.865 69.238 215.089 69.0323C214.901 68.9823 214.71 68.957 214.519 68.9436L210.591 71.251L210.606 72.5695L213.553 70.8436C213.598 70.817 213.649 70.8034 213.7 70.8034C213.749 70.8034 213.798 70.816 213.842 70.8403L217.099 72.651Z" fill="white"/>
<path d="M220 121C220 125.418 214.866 129 211 129C207.134 129 204 125.418 204 121C204 116.582 207.134 113 211 113C214.866 113 220 116.582 220 121Z" fill="#00AEEF"/>
<path d="M204.075 176.028C203.481 170.52 209.691 165.396 214.729 164.899C219.767 164.403 224.332 168.465 224.925 173.972C225.519 179.48 221.916 184.347 216.878 184.844C211.84 185.34 204.668 181.535 204.075 176.028Z" fill="#00AEEF"/>
<path d="M201.039 148.235C200.465 142.668 206.713 137.464 211.769 136.943C216.824 136.422 221.387 140.512 221.961 146.078C222.535 151.644 218.902 156.579 213.846 157.1C208.791 157.621 201.613 153.801 201.039 148.235Z" fill="#00AEEF"/>
<path d="M208.102 141.357C208.046 140.807 208.638 140.296 209.119 140.247C209.6 140.197 210.035 140.602 210.092 141.152C210.148 141.701 209.805 142.187 209.324 142.236C208.843 142.286 208.159 141.906 208.102 141.357Z" fill="white"/>
<path d="M210.102 146.357C210.046 145.807 210.638 145.296 211.119 145.247C211.6 145.197 212.035 145.602 212.092 146.152C212.148 146.701 211.805 147.187 211.324 147.236C210.843 147.286 210.159 146.906 210.102 146.357Z" fill="white"/>
<path d="M215.102 148.357C215.046 147.807 215.638 147.296 216.119 147.247C216.6 147.197 217.035 147.602 217.092 148.152C217.148 148.701 216.805 149.187 216.324 149.236C215.843 149.286 215.159 148.906 215.102 148.357Z" fill="white"/>
<path d="M210.102 152.357C210.046 151.807 210.638 151.296 211.119 151.247C211.6 151.197 212.035 151.602 212.092 152.152C212.148 152.701 211.805 153.187 211.324 153.236C210.843 153.286 210.159 152.906 210.102 152.357Z" fill="white"/>
<path d="M217.455 143.865C217.398 143.315 217.991 142.804 218.471 142.755C218.952 142.705 219.388 143.11 219.444 143.66C219.501 144.209 219.157 144.694 218.676 144.744C218.196 144.794 217.512 144.414 217.455 143.865Z" fill="white"/>
<path d="M213.322 142.783C213.237 141.959 214.126 141.192 214.847 141.118C215.568 141.044 216.221 141.652 216.306 142.476C216.391 143.3 215.875 144.028 215.154 144.102C214.433 144.177 213.407 143.607 213.322 142.783Z" fill="white"/>
<path d="M203.282 150.156C203.197 149.332 204.086 148.566 204.807 148.491C205.528 148.417 206.182 149.025 206.267 149.849C206.352 150.673 205.836 151.401 205.115 151.475C204.394 151.55 203.367 150.98 203.282 150.156Z" fill="white"/>
<path d="M202.77 145.183C202.685 144.359 203.573 143.592 204.295 143.518C205.016 143.443 205.669 144.051 205.754 144.875C205.839 145.699 205.323 146.427 204.602 146.502C203.881 146.576 202.855 146.007 202.77 145.183Z" fill="white"/>
<path d="M214.347 152.731C214.262 151.906 215.151 151.14 215.872 151.065C216.593 150.991 217.247 151.599 217.332 152.423C217.416 153.247 216.901 153.975 216.18 154.05C215.459 154.124 214.432 153.555 214.347 152.731Z" fill="white"/>
<path d="M220 97C220 101.418 214.866 105 211 105C207.134 105 204 101.418 204 97C204 92.5817 207.134 89 211 89C214.866 89 220 92.5817 220 97Z" fill="#00AEEF"/>
<path d="M239 184C244.523 184 249 179.523 249 174C249 168.477 244.523 164 239 164C233.477 164 229 168.477 229 174C229 179.523 233.477 184 239 184Z" fill="#00AEEF"/>
<path d="M238.928 166.282C236.881 166.351 234.945 167.229 233.544 168.723C232.143 170.218 231.391 172.207 231.454 174.254C231.426 175.887 231.901 177.49 232.816 178.843C233.731 180.196 235.04 181.234 236.566 181.816C236.608 181.826 236.65 181.83 236.692 181.83C236.745 181.832 236.797 181.823 236.846 181.804C236.894 181.784 236.938 181.755 236.975 181.717C237.011 181.679 237.039 181.634 237.056 181.584C237.074 181.535 237.081 181.482 237.076 181.43C237.076 181.23 237.076 180.74 237.066 180.072C236.819 180.133 236.566 180.164 236.312 180.166C235.931 180.192 235.553 180.092 235.234 179.882C234.915 179.673 234.673 179.364 234.546 179.004C234.416 178.53 234.122 178.117 233.716 177.838C233.066 177.362 233.716 177.348 233.762 177.348C234.003 177.391 234.231 177.487 234.429 177.63C234.627 177.773 234.79 177.959 234.906 178.174C235.02 178.431 235.205 178.65 235.439 178.805C235.674 178.959 235.948 179.043 236.228 179.046C236.524 179.042 236.816 178.974 237.082 178.846C237.114 178.447 237.281 178.071 237.556 177.78C237.062 177.781 236.574 177.675 236.125 177.469C235.675 177.264 235.276 176.964 234.953 176.59C234.63 176.216 234.392 175.776 234.255 175.302C234.117 174.827 234.084 174.329 234.156 173.84C234.142 173.058 234.415 172.297 234.924 171.702C234.697 171.013 234.723 170.264 234.998 169.592C235.053 169.579 235.108 169.572 235.164 169.574C235.864 169.655 236.522 169.947 237.052 170.41C238.275 170.054 239.574 170.054 240.796 170.41C241.326 169.947 241.985 169.655 242.684 169.574C242.74 169.572 242.796 169.579 242.85 169.592C243.126 170.264 243.152 171.013 242.924 171.702C243.433 172.297 243.706 173.058 243.692 173.84C243.765 174.33 243.732 174.829 243.593 175.304C243.455 175.779 243.215 176.219 242.891 176.592C242.566 176.966 242.165 177.265 241.714 177.469C241.263 177.672 240.773 177.776 240.278 177.772C240.459 177.971 240.597 178.204 240.684 178.458C240.772 178.712 240.806 178.981 240.786 179.248C240.786 180.314 240.776 181.174 240.776 181.434C240.772 181.486 240.778 181.539 240.796 181.588C240.813 181.637 240.84 181.682 240.876 181.72C240.912 181.758 240.956 181.788 241.004 181.807C241.052 181.827 241.104 181.836 241.156 181.834C241.201 181.834 241.246 181.83 241.29 181.82C242.817 181.238 244.126 180.2 245.041 178.847C245.956 177.494 246.431 175.891 246.402 174.258C246.467 172.21 245.716 170.22 244.315 168.725C242.913 167.23 240.976 166.351 238.928 166.282Z" fill="white"/>
<path d="M223.462 27H348.541C349.72 27 350.889 27.2324 351.978 27.6838C353.068 28.1352 354.059 28.7969 354.893 29.6311C355.727 30.4652 356.389 31.4555 356.84 32.5454C357.291 33.6352 357.524 34.8033 357.524 35.983V52.152H223.462C220.126 52.152 216.928 50.827 214.569 48.4686C212.211 46.1101 210.886 42.9114 210.886 39.576C210.886 36.2406 212.211 33.0419 214.569 30.6834C216.928 28.325 220.126 27 223.462 27Z" fill="#00AEEF"/>
<text fill="#FEFEFE" xml:space="preserve" style="white-space: pre" font-family="Harmattan" font-size="15" font-weight="bold" letter-spacing="0em"><tspan x="240" y="44.0872">&#x627;&#x644;&#x630;&#x643;&#x627;&#x621; &#x627;&#x644;&#x627;&#x635;&#x637;&#x646;&#x627;&#x639;&#x64a; AI</tspan></text>
<path d="M361.208 72.0996H276.208V78.0996H361.208V72.0996Z" fill="#949598"/>
<path d="M361.208 96.0996H276.208V101.1H361.208V96.0996Z" fill="#949598"/>
<path d="M361.208 120.1H276.208V125.1H361.208V120.1Z" fill="#949598"/>
<path d="M361.208 144.1H276.208V149.1H361.208V144.1Z" fill="#949598"/>
<path d="M361.208 171.1H276.208V177.1H361.208V171.1Z" fill="#949598"/>
<path d="M344 72H260V78H344V72Z" fill="#00AEEF"/>
<path d="M344.208 96.0996H260.208V101.1H344.208V96.0996Z" fill="#00AEEF"/>
<path d="M344.208 143.1H260.208V149.1H344.208V143.1Z" fill="#00AEEF"/>
<path d="M344.208 120.1H260.208V125.1H344.208V120.1Z" fill="#00AEEF"/>
<path d="M344.208 171.1H260.208V177.1H344.208V171.1Z" fill="#00AEEF"/>
<path d="M342.763 71.0996C343.942 71.0996 345.072 71.4831 345.906 72.1657C346.739 72.8484 347.208 73.7742 347.208 74.7396V75.4567C347.208 75.9349 347.093 76.4086 346.87 76.8505C346.647 77.2925 346.32 77.6941 345.907 78.0324C345.494 78.3708 345.004 78.6391 344.465 78.8223C343.925 79.0054 343.347 79.0996 342.763 79.0996C342.296 79.0996 341.833 79.0242 341.402 78.8777C340.97 78.7311 340.578 78.5163 340.248 78.2456C339.917 77.9749 339.656 77.6535 339.477 77.2998C339.299 76.9462 339.207 76.5672 339.208 76.1845V74.0118C339.208 73.2394 339.582 72.4987 340.249 71.9526C340.916 71.4064 341.82 71.0996 342.763 71.0996Z" fill="black"/>
<path d="M342.763 94.0996C343.942 94.0996 345.072 94.531 345.906 95.299C346.739 96.067 347.208 97.1085 347.208 98.1946V99.0013C347.208 99.5394 347.093 100.072 346.87 100.569C346.647 101.067 346.32 101.518 345.907 101.899C345.494 102.28 345.004 102.582 344.465 102.788C343.925 102.994 343.347 103.1 342.763 103.1C342.296 103.1 341.833 103.015 341.402 102.85C340.97 102.685 340.578 102.443 340.248 102.139C339.917 101.834 339.656 101.473 339.477 101.075C339.299 100.677 339.207 100.251 339.208 99.8201V97.3758C339.208 96.5069 339.582 95.6736 340.249 95.0592C340.916 94.4448 341.82 94.0996 342.763 94.0996Z" fill="black"/>
<path d="M342.763 142.1C343.942 142.1 345.072 142.531 345.906 143.299C346.739 144.067 347.208 145.109 347.208 146.195V147.001C347.208 147.539 347.093 148.072 346.87 148.569C346.647 149.067 346.32 149.518 345.907 149.899C345.494 150.28 345.004 150.582 344.465 150.788C343.925 150.994 343.347 151.1 342.763 151.1C342.296 151.1 341.833 151.015 341.402 150.85C340.97 150.685 340.578 150.443 340.248 150.139C339.917 149.834 339.656 149.473 339.477 149.075C339.299 148.677 339.207 148.251 339.208 147.82V145.376C339.208 144.507 339.582 143.674 340.249 143.059C340.916 142.445 341.82 142.1 342.763 142.1Z" fill="black"/>
<path d="M342.763 118.1C343.942 118.1 345.072 118.531 345.906 119.299C346.739 120.067 347.208 121.109 347.208 122.195V123.001C347.208 123.539 347.093 124.072 346.87 124.569C346.647 125.067 346.32 125.518 345.907 125.899C345.494 126.28 345.004 126.582 344.465 126.788C343.925 126.994 343.347 127.1 342.763 127.1C342.296 127.1 341.833 127.015 341.402 126.85C340.97 126.685 340.578 126.443 340.248 126.139C339.917 125.834 339.656 125.473 339.477 125.075C339.299 124.677 339.207 124.251 339.208 123.82V121.376C339.208 120.507 339.582 119.674 340.249 119.059C340.916 118.445 341.82 118.1 342.763 118.1Z" fill="black"/>
<path d="M342.763 170.1C343.942 170.1 345.072 170.483 345.906 171.166C346.739 171.848 347.208 172.774 347.208 173.74V174.457C347.208 174.935 347.093 175.409 346.87 175.851C346.647 176.293 346.32 176.694 345.907 177.032C345.494 177.371 345.004 177.639 344.465 177.822C343.925 178.005 343.347 178.1 342.763 178.1C342.296 178.1 341.833 178.024 341.402 177.878C340.97 177.731 340.578 177.516 340.248 177.246C339.917 176.975 339.656 176.653 339.477 176.3C339.299 175.946 339.207 175.567 339.208 175.184V173.012C339.208 172.239 339.582 171.499 340.249 170.953C340.916 170.406 341.82 170.1 342.763 170.1Z" fill="black"/>
<path d="M355.191 249.668C356.572 249.668 357.691 248.773 357.691 247.668C357.691 246.563 356.572 245.668 355.191 245.668C353.81 245.668 352.691 246.563 352.691 247.668C352.691 248.773 353.81 249.668 355.191 249.668Z" fill="#231F20"/>
<path d="M355.191 249.668C356.572 249.668 357.691 248.773 357.691 247.668C357.691 246.563 356.572 245.668 355.191 245.668C353.81 245.668 352.691 246.563 352.691 247.668C352.691 248.773 353.81 249.668 355.191 249.668Z" fill="#231F20"/>
<path d="M355.191 269.668C356.572 269.668 357.691 268.773 357.691 267.668C357.691 266.563 356.572 265.668 355.191 265.668C353.81 265.668 352.691 266.563 352.691 267.668C352.691 268.773 353.81 269.668 355.191 269.668Z" fill="#231F20"/>
<path d="M355.191 289.668C356.572 289.668 357.691 288.773 357.691 287.668C357.691 286.563 356.572 285.668 355.191 285.668C353.81 285.668 352.691 286.563 352.691 287.668C352.691 288.773 353.81 289.668 355.191 289.668Z" fill="#231F20"/>
<path d="M355.191 309.668C356.572 309.668 357.691 308.773 357.691 307.668C357.691 306.563 356.572 305.668 355.191 305.668C353.81 305.668 352.691 306.563 352.691 307.668C352.691 308.773 353.81 309.668 355.191 309.668Z" fill="#231F20"/>
<path d="M355.191 328.668C356.572 328.668 357.691 327.773 357.691 326.668C357.691 325.563 356.572 324.668 355.191 324.668C353.81 324.668 352.691 325.563 352.691 326.668C352.691 327.773 353.81 328.668 355.191 328.668Z" fill="#231F20"/>
<path d="M355.191 348.668C356.572 348.668 357.691 347.773 357.691 346.668C357.691 345.563 356.572 344.668 355.191 344.668C353.81 344.668 352.691 345.563 352.691 346.668C352.691 347.773 353.81 348.668 355.191 348.668Z" fill="#231F20"/>
<path d="M220.462 202H345.541C346.72 202 347.889 202.232 348.978 202.684C350.068 203.135 351.059 203.797 351.893 204.631C352.727 205.465 353.389 206.455 353.84 207.545C354.291 208.635 354.524 209.803 354.524 210.983V227.152H220.462C217.126 227.152 213.928 225.827 211.569 223.469C209.211 221.11 207.886 217.911 207.886 214.576C207.886 211.241 209.211 208.042 211.569 205.683C213.928 203.325 217.126 202 220.462 202Z" fill="#00AEEF"/>
<text fill="#FEFEFE" xml:space="preserve" style="white-space: pre" font-family="Harmattan" font-size="15" font-weight="bold" letter-spacing="0em"><tspan x="246.124" y="220.087">&#x627;&#x62a;&#x642;&#x627;&#x646; &#x641;&#x646; &#x627;&#x644;&#x637;&#x628;&#x627;&#x639;&#x629;</tspan></text>
<path d="M349.691 245.668H259.691V250.668H349.691V245.668Z" fill="#949598"/>
<path d="M349.691 265.668H259.691V270.668H349.691V265.668Z" fill="#949598"/>
<path d="M349.691 285.668H259.691V290.668H349.691V285.668Z" fill="#949598"/>
<path d="M349.691 305.668H259.691V310.668H349.691V305.668Z" fill="#949598"/>
<path d="M349.691 324.668H259.691V329.668H349.691V324.668Z" fill="#949598"/>
<path d="M349.691 344.668H259.691V349.668H349.691V344.668Z" fill="#949598"/>
<path d="M347.691 245.668H259.691V250.668H347.691V245.668Z" fill="#00AEEF"/>
<path d="M347.691 265.668H259.691V270.668H347.691V265.668Z" fill="#00AEEF"/>
<path d="M347.691 285.668H259.691V290.668H347.691V285.668Z" fill="#00AEEF"/>
<path d="M320.691 344.668H259.691V349.668H320.691V344.668Z" fill="#00AEEF"/>
<path d="M347.691 305.668H259.691V310.668H347.691V305.668Z" fill="#00AEEF"/>
<path d="M321.691 324.668H259.691V329.668H321.691V324.668Z" fill="#00AEEF"/>
<path d="M344.247 244.668C345.425 244.668 346.556 245.051 347.389 245.734C348.223 246.417 348.691 247.343 348.691 248.308V249.025C348.691 249.503 348.577 249.977 348.354 250.419C348.131 250.861 347.803 251.262 347.39 251.601C346.978 251.939 346.488 252.208 345.948 252.391C345.409 252.574 344.831 252.668 344.247 252.668C343.779 252.668 343.317 252.593 342.885 252.446C342.453 252.299 342.061 252.085 341.731 251.814C341.401 251.543 341.139 251.222 340.961 250.868C340.782 250.515 340.69 250.136 340.691 249.753V247.58C340.691 246.808 341.066 246.067 341.732 245.521C342.399 244.975 343.304 244.668 344.247 244.668Z" fill="black"/>
<path d="M344.247 264.668C345.425 264.668 346.556 265.051 347.389 265.734C348.223 266.417 348.691 267.343 348.691 268.308V269.025C348.691 269.503 348.577 269.977 348.354 270.419C348.131 270.861 347.803 271.262 347.39 271.601C346.978 271.939 346.488 272.208 345.948 272.391C345.409 272.574 344.831 272.668 344.247 272.668C343.779 272.668 343.317 272.593 342.885 272.446C342.453 272.299 342.061 272.085 341.731 271.814C341.401 271.543 341.139 271.222 340.961 270.868C340.782 270.515 340.69 270.136 340.691 269.753V267.58C340.691 266.808 341.066 266.067 341.732 265.521C342.399 264.975 343.304 264.668 344.247 264.668Z" fill="black"/>
<path d="M344.247 284.668C345.425 284.668 346.556 285.051 347.389 285.734C348.223 286.417 348.691 287.343 348.691 288.308V289.025C348.691 289.503 348.577 289.977 348.354 290.419C348.131 290.861 347.803 291.262 347.39 291.601C346.978 291.939 346.488 292.208 345.948 292.391C345.409 292.574 344.831 292.668 344.247 292.668C343.779 292.668 343.317 292.593 342.885 292.446C342.453 292.299 342.061 292.085 341.731 291.814C341.401 291.543 341.139 291.222 340.961 290.868C340.782 290.515 340.69 290.136 340.691 289.753V287.58C340.691 286.808 341.066 286.067 341.732 285.521C342.399 284.975 343.304 284.668 344.247 284.668Z" fill="black"/>
<path d="M319.691 343.668C321.017 343.668 322.289 344.051 323.226 344.734C324.164 345.417 324.691 346.343 324.691 347.308V348.025C324.691 348.503 324.563 348.977 324.311 349.419C324.06 349.861 323.692 350.262 323.228 350.601C322.764 350.939 322.212 351.208 321.605 351.391C320.998 351.574 320.348 351.668 319.691 351.668C319.165 351.668 318.645 351.593 318.159 351.446C317.674 351.299 317.233 351.085 316.861 350.814C316.49 350.543 316.195 350.222 315.994 349.868C315.793 349.515 315.69 349.136 315.691 348.753V346.58C315.691 345.808 316.112 345.067 316.863 344.521C317.613 343.975 318.63 343.668 319.691 343.668Z" fill="black"/>
<path d="M344.247 304.668C345.425 304.668 346.556 305.051 347.389 305.734C348.223 306.417 348.691 307.343 348.691 308.308V309.025C348.691 309.503 348.577 309.977 348.354 310.419C348.131 310.861 347.803 311.262 347.39 311.601C346.978 311.939 346.488 312.208 345.948 312.391C345.409 312.574 344.831 312.668 344.247 312.668C343.779 312.668 343.317 312.593 342.885 312.446C342.453 312.299 342.061 312.085 341.731 311.814C341.401 311.543 341.139 311.222 340.961 310.868C340.782 310.515 340.69 310.136 340.691 309.753V307.58C340.691 306.808 341.066 306.067 341.732 305.521C342.399 304.975 343.304 304.668 344.247 304.668Z" fill="black"/>
<path d="M319.691 323.668C321.017 323.668 322.289 324.051 323.226 324.734C324.164 325.417 324.691 326.343 324.691 327.308V328.025C324.691 328.503 324.563 328.977 324.311 329.419C324.06 329.861 323.692 330.262 323.228 330.601C322.764 330.939 322.212 331.208 321.605 331.391C320.998 331.574 320.348 331.668 319.691 331.668C319.165 331.668 318.645 331.593 318.159 331.446C317.674 331.299 317.233 331.085 316.861 330.814C316.49 330.543 316.195 330.222 315.994 329.868C315.793 329.515 315.69 329.136 315.691 328.753V326.58C315.691 325.808 316.112 325.067 316.863 324.521C317.613 323.975 318.63 323.668 319.691 323.668Z" fill="black"/>
<text fill="#FF0040" xml:space="preserve" style="white-space: pre" font-family="Bahij TheSansArabic" font-size="13" font-weight="500" letter-spacing="0em"><tspan x="97.124" y="255.261">Adobe Acrobat</tspan></text>
<text fill="#FF0040" xml:space="preserve" style="white-space: pre" font-family="Bahij TheSansArabic" font-size="13" font-weight="500" letter-spacing="0em"><tspan x="97.124" y="352.261">Printer hardware</tspan></text>
<text fill="#FF0040" xml:space="preserve" style="white-space: pre" font-family="Bahij TheSansArabic" font-size="13" font-weight="500" letter-spacing="0em"><tspan x="97.124" y="274.261">pdf xchange editor</tspan></text>
<text fill="#FF0040" xml:space="preserve" style="white-space: pre" font-family="Bahij TheSansArabic" font-size="13" font-weight="500" letter-spacing="0em"><tspan x="96.124" y="295.261">PDFsam Enhanced</tspan></text>
<text fill="#FF0040" xml:space="preserve" style="white-space: pre" font-family="Bahij TheSansArabic" font-size="13" font-weight="500" letter-spacing="0em"><tspan x="97.124" y="314.261">i top pdf</tspan></text>
<text fill="#FF0040" xml:space="preserve" style="white-space: pre" font-family="Bahij TheSansArabic" font-size="13" font-weight="500" letter-spacing="0em"><tspan x="96" y="333.261">adobe indesign scripting</tspan></text>
<text fill="#FF0040" xml:space="preserve" style="white-space: pre" font-family="Bahij TheSansArabic" font-size="13" font-weight="500" letter-spacing="0em"><tspan x="94" y="79.261">chat GPT</tspan></text>
<text fill="#FF0040" xml:space="preserve" style="white-space: pre" font-family="Bahij TheSansArabic" font-size="13" font-weight="500" letter-spacing="0em"><tspan x="94" y="103.261">gemini</tspan></text>
<text fill="#FF0040" xml:space="preserve" style="white-space: pre" font-family="Bahij TheSansArabic" font-size="13" font-weight="500" letter-spacing="0em"><tspan x="94" y="127.261">DeepAI</tspan></text>
<text fill="#FF0040" xml:space="preserve" style="white-space: pre" font-family="Bahij TheSansArabic" font-size="13" font-weight="500" letter-spacing="0em"><tspan x="93" y="153.261">BLACKBOX.AI</tspan></text>
<text fill="#FF0040" xml:space="preserve" style="white-space: pre" font-family="Bahij TheSansArabic" font-size="13" font-weight="500" letter-spacing="0em"><tspan x="94" y="179.261">GitHub Copilot </tspan></text>
<path d="M224 175.781C224 175.349 223.749 175 223.438 175C223.128 175 222.877 175.349 222.877 175.781V177.219C222.877 177.651 223.128 178 223.438 178C223.749 178 224 177.651 224 177.219V175.781ZM220.562 175C220.871 175 221.123 175.349 221.123 175.781V177.219C221.123 177.651 220.871 178 220.562 178C220.251 178 220 177.651 220 177.219V175.781C220 175.349 220.251 175 220.562 175Z" fill="white"/>
<path fill-rule="evenodd" clip-rule="evenodd" d="M208 175.884V177.953C208.001 178.221 208.094 178.481 208.246 178.639C210.037 180.502 212.248 182 214.5 182C216.992 182 219.486 179.961 220.754 178.639C220.906 178.481 220.999 178.221 221 177.954V175.884C221 175.613 220.939 175.349 220.826 175.13L220.43 174.37C220.219 173.962 219.903 173.854 219.567 173.854C219.441 171.8 219.141 170.334 218.424 169.262C217.06 167.208 215.248 167 214.5 167C213.752 167 211.94 167.208 210.576 169.262C209.86 170.334 209.559 171.8 209.433 173.854C209.096 173.854 208.782 173.96 208.57 174.37L208.175 175.131C208.061 175.351 208 175.613 208 175.884H208ZM210.48 174.944C210.497 174.473 210.766 174.288 211.047 174.157C211.343 174.421 211.703 174.524 212.049 174.524C212.416 174.524 213.101 174.399 213.671 173.592C213.814 173.389 213.913 173.07 213.979 172.717C214.152 172.692 214.325 172.679 214.499 172.678C214.654 172.678 214.832 172.691 215.021 172.717C215.087 173.07 215.186 173.389 215.329 173.592C215.898 174.399 216.584 174.524 216.951 174.524C217.297 174.524 217.658 174.422 217.954 174.157C218.233 174.288 218.501 174.476 218.52 174.944C218.549 175.83 218.552 176.715 218.555 177.6C218.556 178.044 218.557 178.489 218.562 178.933C218.56 179.191 218.451 179.431 218.286 179.538C216.941 180.408 215.669 180.846 214.499 180.846C213.331 180.846 212.059 180.408 210.715 179.538C210.55 179.431 210.44 179.191 210.439 178.933C210.423 177.605 210.436 176.272 210.481 174.944H210.48V174.944ZM218.27 173.093C218.051 173.404 217.636 173.612 217.189 173.612C216.848 173.612 216.198 173.508 215.662 172.734C215.426 172.412 215.28 171.604 215.296 170.784C215.313 170.127 215.442 169.584 215.637 169.354C215.849 169.088 216.328 168.973 216.865 169.042C217.433 169.123 217.912 169.388 218.156 169.758C218.684 170.577 218.571 172.654 218.27 173.093ZM214.955 171.073C214.939 171.2 214.931 171.338 214.923 171.488C214.923 171.592 214.923 171.696 214.931 171.811C214.768 171.788 214.63 171.788 214.5 171.788C214.37 171.788 214.232 171.788 214.069 171.811C214.078 171.696 214.078 171.592 214.078 171.488C214.069 171.338 214.061 171.2 214.045 171.073C214.216 171.05 214.37 171.038 214.5 171.038C214.63 171.038 214.785 171.05 214.955 171.073ZM213.704 170.784C213.72 171.604 213.574 172.412 213.338 172.734C212.802 173.508 212.152 173.612 211.811 173.612C211.364 173.612 210.949 173.404 210.73 173.093C210.429 172.654 210.316 170.577 210.844 169.758C211.088 169.388 211.567 169.123 212.135 169.042C212.672 168.973 213.151 169.088 213.363 169.354C213.557 169.584 213.687 170.127 213.704 170.784Z" fill="white"/>
<path d="M145.281 123.056H143.531V121.306H145.281V123.056Z" fill="white"/>
<path d="M211.34 126.205C211.322 126.205 211.305 126.205 211.287 126.205C210.228 126.191 208.693 125.816 207.391 124.108C207.308 123.999 207.312 123.847 207.399 123.743C207.487 123.639 207.636 123.609 207.757 123.672C207.781 123.684 210.126 124.882 211.551 123.996C212.339 123.508 212.723 122.447 212.693 120.846C212.69 120.696 212.802 120.568 212.951 120.55C212.989 120.547 213.718 120.471 214.5 121.091C214.377 120.755 214.106 120.357 213.529 120.02C212.611 119.485 211.463 119.458 210.534 119.949C210.097 120.18 209.674 120.502 209.277 120.908C209.132 121.056 208.931 121.137 208.724 121.133C208.521 121.127 208.327 121.037 208.193 120.884C207.969 120.63 207.946 120.258 208.137 119.979L208.284 119.765C207.884 119.324 207.516 118.465 208.176 117.409C209.083 115.959 211.343 115.368 212.991 116.126C213.832 115.785 215.452 115.616 216.363 117.155C216.408 117.23 216.417 117.321 216.387 117.403C216.357 117.485 216.292 117.549 216.21 117.579L215.323 117.891C215.769 118.519 216.618 119.962 216.447 121.651C216.311 122.983 215.572 124.17 214.248 125.18C213.377 125.842 212.347 126.205 211.34 126.205Z" fill="white"/>
<path d="M205.143 96.9866C206.922 96.8774 208.6 96.1213 209.86 94.8608C211.121 93.6003 211.877 91.9224 211.986 90.1431L212.014 90.1431C212.123 91.9225 212.879 93.6005 214.139 94.861C215.4 96.1216 217.078 96.8776 218.857 96.9866L218.857 97.014C217.078 97.123 215.4 97.879 214.139 99.1395C212.879 100.4 212.123 102.078 212.014 103.857L211.986 103.857C211.877 102.078 211.121 100.4 209.86 99.1397C208.6 97.8792 206.922 97.1232 205.143 97.014L205.143 96.9866Z" fill="url(#paint0_radial_187_2560)"/>
<path d="M398 266L398 327" stroke="white"/>
<path d="M55 266L55 327" stroke="white"/>
<path d="M398 266L398 327" stroke="white"/>
<path d="M55 266L55 327" stroke="white"/>
<defs>
<radialGradient id="paint0_radial_187_2560" cx="0" cy="0" r="1" gradientUnits="userSpaceOnUse" gradientTransform="translate(217.496 98.2834) rotate(-161.317) scale(14.5971 116.932)">
<stop offset="0.067" stop-color="#9168C0"/>
<stop offset="0.343" stop-color="white"/>
<stop offset="0.672" stop-color="#8ED8FD"/>
</radialGradient>
</defs>
</svg>
