<svg width="454" height="204" viewBox="0 0 454 204" fill="none" xmlns="http://www.w3.org/2000/svg">
<path d="M105.127 97L104.209 94.2363H99.0918L98.1445 97H95.5273L100.186 83.5039H103.252L108.008 97H105.127ZM102.168 88.1621C101.934 87.4525 101.755 86.8307 101.631 86.2969H101.611C101.396 87.0977 101.221 87.7194 101.084 88.1621L99.707 92.1758H103.545L102.168 88.1621ZM115.01 97C115.01 96.4336 115.049 95.8802 115.127 95.3398H115.088C114.495 96.5964 113.451 97.2246 111.953 97.2246C110.768 97.2246 109.86 96.8014 109.229 95.9551C108.63 95.1478 108.33 94.015 108.33 92.5566C108.33 90.8574 108.796 89.4935 109.727 88.4648C110.677 87.4102 111.966 86.8828 113.594 86.8828C114.043 86.8828 114.463 86.9089 114.854 86.9609V82.4004H117.393V97H115.01ZM114.854 89.0605C114.359 88.9564 113.91 88.9043 113.506 88.9043C111.839 88.9043 111.006 90.0306 111.006 92.2832C111.006 94.1582 111.576 95.0957 112.715 95.0957C113.359 95.0957 113.883 94.7669 114.287 94.1094C114.665 93.4909 114.854 92.7357 114.854 91.8438V89.0605ZM129.18 91.8438C129.18 93.3997 128.704 94.6823 127.754 95.6914C126.797 96.694 125.579 97.1953 124.102 97.1953C120.996 97.1953 119.443 95.5286 119.443 92.1953C119.443 90.6393 119.912 89.3633 120.85 88.3672C121.8 87.3646 123.024 86.8633 124.521 86.8633C125.986 86.8633 127.119 87.2637 127.92 88.0645C128.76 88.9173 129.18 90.1771 129.18 91.8438ZM126.543 91.9805C126.543 90.0078 125.811 89.0215 124.346 89.0215C123.721 89.0215 123.2 89.2526 122.783 89.7148C122.314 90.2422 122.08 90.9844 122.08 91.9414C122.08 93.9922 122.822 95.0176 124.307 95.0176C124.964 95.0176 125.495 94.7637 125.898 94.2559C126.328 93.7155 126.543 92.957 126.543 91.9805ZM140.225 91.5215C140.225 93.2337 139.756 94.6009 138.818 95.623C137.848 96.6712 136.523 97.1953 134.844 97.1953C133.516 97.1953 132.282 97.0358 131.143 96.7168V82.4004H133.701V86.6777C133.701 87.4199 133.649 88.0677 133.545 88.6211H133.564C134.105 87.4492 135.104 86.8633 136.562 86.8633C137.741 86.8633 138.649 87.2702 139.287 88.084C139.912 88.8913 140.225 90.0371 140.225 91.5215ZM137.539 91.7754C137.539 89.9134 136.973 88.9824 135.84 88.9824C135.195 88.9824 134.671 89.3079 134.268 89.959C133.89 90.571 133.701 91.3099 133.701 92.1758V94.9785C134.059 95.1022 134.505 95.1641 135.039 95.1641C136.706 95.1641 137.539 94.0345 137.539 91.7754ZM150.605 91.082C150.605 91.6745 150.573 92.153 150.508 92.5176H144.365C144.365 94.3079 145.28 95.2031 147.109 95.2031C148.073 95.2031 149.033 95.0078 149.99 94.6172L150.264 96.5605C149.111 96.9837 147.913 97.1953 146.67 97.1953C143.402 97.1953 141.768 95.5026 141.768 92.1172C141.768 90.5872 142.184 89.3405 143.018 88.377C143.883 87.3678 145.039 86.8633 146.484 86.8633C147.865 86.8633 148.916 87.2702 149.639 88.084C150.283 88.8197 150.605 89.819 150.605 91.082ZM148.066 90.8184C148.105 89.4316 147.533 88.7383 146.348 88.7383C145.189 88.7383 144.535 89.4316 144.385 90.8184H148.066ZM164.346 97L161.445 92.0391L158.545 97H155.469L159.766 90.0957L155.732 83.5039H158.75L161.484 88.1816L164.209 83.5039H167.168L163.193 90.0762L167.627 97H164.346ZM180.43 90.0176C180.43 92.2767 179.74 94.0312 178.359 95.2812C177.038 96.4792 175.247 97.0781 172.988 97.0781C172.383 97.0781 171.13 97.0456 169.229 96.9805V83.5234C170.993 83.4518 172.445 83.416 173.584 83.416C178.148 83.416 180.43 85.6165 180.43 90.0176ZM177.627 90.2227C177.627 87.1432 176.221 85.6035 173.408 85.6035C172.777 85.6035 172.249 85.623 171.826 85.6621V94.7637C172.23 94.8288 172.705 94.8613 173.252 94.8613C174.58 94.8613 175.625 94.487 176.387 93.7383C177.214 92.931 177.627 91.7591 177.627 90.2227Z" fill="#FF0040"/>
<path d="M99.502 106.721V110.178H103.867V112.316H99.502V118H96.9043V104.504H104.121V106.721H99.502ZM108.828 105.041C108.828 105.464 108.672 105.826 108.359 106.125C108.04 106.431 107.663 106.584 107.227 106.584C106.784 106.584 106.41 106.434 106.104 106.135C105.798 105.835 105.645 105.471 105.645 105.041C105.645 104.611 105.798 104.243 106.104 103.938C106.41 103.632 106.784 103.479 107.227 103.479C107.669 103.479 108.047 103.628 108.359 103.928C108.672 104.234 108.828 104.605 108.828 105.041ZM105.947 118V108.059H108.506V118H105.947ZM120.273 119.064C120.273 120.165 119.775 121.089 118.779 121.838C117.751 122.626 116.429 123.02 114.814 123.02C113.48 123.02 112.441 122.769 111.699 122.268C110.938 121.753 110.557 121.018 110.557 120.061C110.557 118.986 111.071 118.173 112.1 117.619C111.442 117.313 111.113 116.805 111.113 116.096C111.113 115.256 111.507 114.663 112.295 114.318C111.312 113.785 110.82 112.88 110.82 111.604C110.82 110.542 111.188 109.663 111.924 108.967C112.718 108.218 113.809 107.844 115.195 107.844C115.71 107.844 116.25 107.915 116.816 108.059H120.195V110.061H118.838C119.17 110.373 119.336 110.793 119.336 111.32C119.336 112.414 118.981 113.277 118.271 113.908C117.523 114.572 116.458 114.904 115.078 114.904C114.805 114.904 114.544 114.875 114.297 114.816C113.978 114.96 113.818 115.174 113.818 115.461C113.818 115.689 113.929 115.845 114.15 115.93C114.365 116.008 114.769 116.057 115.361 116.076L116.895 116.145C119.147 116.223 120.273 117.196 120.273 119.064ZM117.734 119.396C117.734 118.583 117.214 118.156 116.172 118.117L113.994 118.059C113.382 118.501 113.076 119.009 113.076 119.582C113.076 120.038 113.268 120.399 113.652 120.666C114.036 120.926 114.551 121.057 115.195 121.057C116.003 121.057 116.634 120.897 117.09 120.578C117.52 120.279 117.734 119.885 117.734 119.396ZM116.895 111.457C116.895 110.285 116.296 109.699 115.098 109.699C114.531 109.699 114.079 109.865 113.74 110.197C113.415 110.516 113.252 110.93 113.252 111.438C113.252 112.583 113.867 113.156 115.098 113.156C116.296 113.156 116.895 112.59 116.895 111.457ZM134.238 118V111.721C134.238 110.575 133.844 110.002 133.057 110.002C132.464 110.002 131.943 110.298 131.494 110.891C131.012 111.522 130.771 112.307 130.771 113.244V118H128.252V111.701C128.252 110.568 127.861 110.002 127.08 110.002C126.475 110.002 125.947 110.308 125.498 110.92C125.029 111.558 124.795 112.333 124.795 113.244V118H122.236V108.059H124.658C124.658 108.684 124.619 109.276 124.541 109.836L124.561 109.855C125.212 108.527 126.302 107.863 127.832 107.863C129.329 107.863 130.244 108.521 130.576 109.836C131.208 108.521 132.288 107.863 133.818 107.863C135.804 107.863 136.797 108.964 136.797 111.164V118H134.238ZM144.834 118C144.834 117.316 144.867 116.757 144.932 116.32L144.912 116.301C144.372 117.564 143.314 118.195 141.738 118.195C140.859 118.195 140.16 117.925 139.639 117.385C139.144 116.864 138.896 116.19 138.896 115.363C138.896 114.211 139.417 113.339 140.459 112.746C141.449 112.18 142.842 111.896 144.639 111.896V111.535C144.639 110.923 144.505 110.484 144.238 110.217C143.965 109.937 143.506 109.797 142.861 109.797C141.911 109.797 140.908 110.025 139.854 110.48L139.434 108.518C140.566 108.068 141.82 107.844 143.193 107.844C144.671 107.844 145.723 108.15 146.348 108.762C146.914 109.309 147.197 110.168 147.197 111.34V115.441C147.197 116.418 147.223 117.271 147.275 118H144.834ZM144.639 113.576C142.451 113.576 141.357 114.077 141.357 115.08C141.357 115.412 141.465 115.686 141.68 115.9C141.901 116.128 142.194 116.242 142.559 116.242C143.158 116.242 143.659 115.992 144.062 115.49C144.447 115.015 144.639 114.465 144.639 113.84V113.576Z" fill="#FF0040"/>
<path d="M269 116H200V115H269V116Z" fill="#00AEEF"/>
<path d="M269 92H200V91H269V92Z" fill="#00AEEF"/>
<path d="M206.044 39H355.125C356.488 39 357.838 39.3049 359.098 39.8971C360.358 40.4894 361.503 41.3576 362.467 42.452C363.431 43.5464 364.196 44.8457 364.717 46.2756C365.239 47.7056 365.508 49.2382 365.508 50.7859V72H206.044C202.189 72 198.491 70.2616 195.765 67.1673C193.039 64.0729 191.508 59.8761 191.508 55.5C191.508 51.1239 193.039 46.9271 195.765 43.8327C198.491 40.7384 202.189 39 206.044 39Z" fill="#00AEEF"/>
<path d="M216.889 59.1758C215.502 59.1758 214.457 58.8177 213.754 58.1016C213.057 57.3789 212.709 56.4219 212.709 55.2305V51.5C212.709 50.7773 212.702 50.1393 212.689 49.5859C212.683 49.026 212.654 48.5996 212.602 48.3066H214.799V54.8984C214.799 55.6862 214.942 56.3177 215.229 56.793C215.521 57.2682 216.075 57.5059 216.889 57.5059C217.683 57.5059 218.223 57.2682 218.51 56.793C218.796 56.3177 218.939 55.6862 218.939 54.8984V48.3066H221.137C221.091 48.5996 221.062 49.0163 221.049 49.5566C221.036 50.0905 221.029 50.7383 221.029 51.5V55.2305C221.029 56.4219 220.681 57.3789 219.984 58.1016C219.294 58.8177 218.262 59.1758 216.889 59.1758ZM223.373 59V57.5059H225.131V49.8105H223.373V48.3066H228.979V49.8105H227.221V57.5059H228.979V59H223.373ZM235.102 55.123V53.6582H240.482V55.123H235.102ZM250.893 59.1758C249.506 59.1758 248.461 58.8177 247.758 58.1016C247.061 57.3789 246.713 56.4219 246.713 55.2305V51.5C246.713 50.7773 246.706 50.1393 246.693 49.5859C246.687 49.026 246.658 48.5996 246.605 48.3066H248.803V54.8984C248.803 55.6862 248.946 56.3177 249.232 56.793C249.525 57.2682 250.079 57.5059 250.893 57.5059C251.687 57.5059 252.227 57.2682 252.514 56.793C252.8 56.3177 252.943 55.6862 252.943 54.8984V48.3066H255.141C255.095 48.5996 255.066 49.0163 255.053 49.5566C255.04 50.0905 255.033 50.7383 255.033 51.5V55.2305C255.033 56.4219 254.685 57.3789 253.988 58.1016C253.298 58.8177 252.266 59.1758 250.893 59.1758ZM263.676 59L258.734 50.875C258.428 50.3672 258.171 49.9635 257.963 49.6641C257.761 49.3646 257.585 49.1139 257.436 48.9121C257.286 48.7103 257.133 48.5085 256.977 48.3066H259.359L264.359 56.5391C264.672 57.0534 264.923 57.4538 265.111 57.7402C265.3 58.0267 265.46 58.2578 265.59 58.4336C265.727 58.6094 265.87 58.7982 266.02 59H263.676ZM256.645 59C256.801 58.7917 256.947 58.5964 257.084 58.4141C257.221 58.2318 257.38 57.9974 257.562 57.7109C257.751 57.4245 257.995 57.0241 258.295 56.5098L260.854 52.0664L261.557 54.5469L258.988 59H256.645ZM261.918 54.5469L261.225 52.0664L263.383 48.3066H265.766C265.531 48.5866 265.287 48.9056 265.033 49.2637C264.786 49.6217 264.457 50.1589 264.047 50.875L261.918 54.5469ZM271.273 65.0352C271.072 64.9049 270.899 64.6803 270.756 64.3613C270.606 64.0423 270.512 63.7266 270.473 63.4141C271.326 63.1341 271.973 62.7891 272.416 62.3789C272.859 61.9688 273.161 61.4479 273.324 60.8164C273.487 60.1849 273.568 59.4004 273.568 58.4629C273.568 57.3952 273.617 56.5553 273.715 55.9434C273.812 55.3249 274.014 54.7975 274.32 54.3613C274.587 53.9772 274.952 53.681 275.414 53.4727C275.876 53.2643 276.361 53.1602 276.869 53.1602C277.429 53.1602 277.953 53.2871 278.441 53.541C278.93 53.7884 279.324 54.166 279.623 54.6738C279.929 55.1751 280.082 55.8066 280.082 56.5684C280.082 57.1803 279.942 57.6947 279.662 58.1113C279.382 58.528 279.018 58.8438 278.568 59.0586C278.119 59.2734 277.644 59.3809 277.143 59.3809C276.602 59.3809 276.075 59.2539 275.561 59C275.053 58.7461 274.636 58.3587 274.311 57.8379L274.994 56.0996C275.105 56.6139 275.365 57.0143 275.775 57.3008C276.192 57.5807 276.605 57.7207 277.016 57.7207C277.439 57.7207 277.777 57.6263 278.031 57.4375C278.292 57.2422 278.422 56.9427 278.422 56.5391C278.422 55.9857 278.275 55.5462 277.982 55.2207C277.696 54.8952 277.315 54.7324 276.84 54.7324C276.397 54.7324 276.059 54.8529 275.824 55.0938C275.59 55.3281 275.43 55.6471 275.346 56.0508C275.268 56.4479 275.229 56.8939 275.229 57.3887C275.229 57.6686 275.232 57.9583 275.238 58.2578C275.251 58.5508 275.258 58.8405 275.258 59.127C275.258 60.2337 275.066 61.1908 274.682 61.998C274.304 62.8053 273.812 63.4629 273.207 63.9707C272.602 64.4785 271.957 64.8333 271.273 65.0352ZM281.615 59.0977C281.088 59.0977 280.661 59.0586 280.336 58.9805C280.017 58.8958 279.753 58.7819 279.545 58.6387C279.343 58.4954 279.148 58.3262 278.959 58.1309L279.818 56.6953C279.988 56.9557 280.196 57.138 280.443 57.2422C280.697 57.3398 281.088 57.3887 281.615 57.3887H281.811V59.0977H281.615ZM281.43 59.0977V57.3887H281.625C282.165 57.3887 282.562 57.3008 282.816 57.125C283.077 56.9427 283.243 56.7572 283.314 56.5684C283.393 56.373 283.432 56.2559 283.432 56.2168C283.432 56.1647 283.419 56.054 283.393 55.8848C283.367 55.7155 283.337 55.5495 283.305 55.3867C283.279 55.2174 283.266 55.1165 283.266 55.084C283.448 54.9928 283.728 54.9049 284.105 54.8203C284.49 54.7292 284.825 54.6803 285.111 54.6738C285.294 55.4095 285.495 55.9759 285.717 56.373C285.938 56.7637 286.179 57.0306 286.439 57.1738C286.706 57.3171 286.99 57.3887 287.289 57.3887H287.484V59.0977H287.289C286.736 59.0977 286.215 58.9902 285.727 58.7754C285.238 58.554 284.825 58.1699 284.486 57.623C284.245 58.1439 283.861 58.5215 283.334 58.7559C282.813 58.9837 282.243 59.0977 281.625 59.0977H281.43ZM285.521 62.5938C285.176 62.3464 284.854 62.0859 284.555 61.8125C284.262 61.5391 284.096 61.3568 284.057 61.2656L285.307 59.8887L286.898 61.1973C286.632 61.5618 286.352 61.8776 286.059 62.1445C285.772 62.418 285.593 62.5677 285.521 62.5938ZM283.324 62.7598C282.979 62.5124 282.66 62.252 282.367 61.9785C282.074 61.7116 281.905 61.5293 281.859 61.4316L283.109 60.0547L284.701 61.373C284.337 61.8353 284.034 62.1771 283.793 62.3984C283.552 62.6198 283.396 62.7402 283.324 62.7598ZM292.191 59.4004C291.664 59.4004 291.212 59.3092 290.834 59.127C290.463 58.9512 290.154 58.7428 289.906 58.502C289.665 58.2546 289.473 58.0332 289.33 57.8379L290.014 56.0996C290.092 56.4447 290.242 56.7376 290.463 56.9785C290.691 57.2194 290.948 57.4049 291.234 57.5352C291.521 57.6589 291.788 57.7207 292.035 57.7207C292.458 57.7207 292.797 57.6328 293.051 57.457C293.311 57.2812 293.441 56.9753 293.441 56.5391C293.441 55.9336 293.285 55.4811 292.973 55.1816C292.66 54.8822 292.289 54.7324 291.859 54.7324C291.417 54.7324 291.078 54.8529 290.844 55.0938C290.609 55.3281 290.45 55.6471 290.365 56.0508C290.287 56.4479 290.248 56.8939 290.248 57.3887C290.105 58.0527 289.783 58.5052 289.281 58.7461C288.786 58.987 288.129 59.1042 287.309 59.0977C287.283 59.0977 287.25 59.0977 287.211 59.0977C287.165 59.0977 287.126 59.0977 287.094 59.0977V57.3887C287.126 57.3887 287.159 57.3887 287.191 57.3887C287.217 57.3887 287.25 57.3887 287.289 57.3887C287.849 57.3887 288.22 57.3366 288.402 57.2324C288.585 57.1217 288.676 56.998 288.676 56.8613C288.676 56.8092 288.676 56.7604 288.676 56.7148C288.676 56.6628 288.679 56.5944 288.686 56.5098C288.718 56.2428 288.76 55.9661 288.812 55.6797C288.871 55.3867 288.972 55.0905 289.115 54.791C289.389 54.1921 289.792 53.7721 290.326 53.5312C290.86 53.2839 291.381 53.1602 291.889 53.1602C292.494 53.1602 293.038 53.2969 293.52 53.5703C294.008 53.8438 294.392 54.2344 294.672 54.7422C294.958 55.25 295.102 55.8587 295.102 56.5684C295.102 57.1934 294.955 57.7174 294.662 58.1406C294.369 58.5573 293.998 58.8698 293.549 59.0781C293.106 59.293 292.654 59.4004 292.191 59.4004ZM296.83 59.0977C296.296 59.0977 295.867 59.0586 295.541 58.9805C295.215 58.8958 294.949 58.7819 294.74 58.6387C294.538 58.4954 294.343 58.3262 294.154 58.1309L295.014 56.6953C295.183 56.9557 295.395 57.138 295.648 57.2422C295.902 57.3398 296.296 57.3887 296.83 57.3887H297.025V59.0977H296.83ZM303.5 59.2441C302.673 59.2441 301.924 59.1628 301.254 59C300.59 58.8438 299.919 58.5964 299.242 58.2578C298.637 58.6549 298.142 58.8958 297.758 58.9805C297.38 59.0586 297.09 59.0977 296.889 59.0977H296.645V57.3887H296.85C297.455 57.3887 297.921 57.1966 298.246 56.8125C298.201 56.3503 298.155 56.0117 298.109 55.7969C298.07 55.5755 298.015 55.3021 297.943 54.9766C298.139 54.7943 298.386 54.6283 298.686 54.4785C298.992 54.3288 299.294 54.2181 299.594 54.1465C299.626 54.3027 299.652 54.4688 299.672 54.6445C299.698 54.8138 299.724 55.0059 299.75 55.2207C300.167 54.8757 300.635 54.5404 301.156 54.2148C301.677 53.8893 302.224 53.6224 302.797 53.4141C303.37 53.1992 303.936 53.0918 304.496 53.0918C305.225 53.0918 305.821 53.2448 306.283 53.5508C306.752 53.8503 307.1 54.2311 307.328 54.6934C307.556 55.1491 307.67 55.6113 307.67 56.0801C307.67 56.4642 307.589 56.8288 307.426 57.1738C307.693 57.3171 308.126 57.3887 308.725 57.3887H308.92V59.0977H308.725C308.184 59.0977 307.722 59.0358 307.338 58.9121C306.96 58.7819 306.638 58.6126 306.371 58.4043C306 58.6647 305.567 58.8698 305.072 59.0195C304.584 59.1693 304.06 59.2441 303.5 59.2441ZM303.295 57.5254C304.096 57.5254 304.727 57.3984 305.189 57.1445C305.658 56.8841 305.893 56.5326 305.893 56.0898C305.893 55.7383 305.749 55.4323 305.463 55.1719C305.176 54.9115 304.75 54.7812 304.184 54.7812C303.799 54.7812 303.406 54.8626 303.002 55.0254C302.598 55.1882 302.211 55.3867 301.84 55.6211C301.469 55.8555 301.137 56.0898 300.844 56.3242C300.551 56.5586 300.326 56.7507 300.17 56.9004C300.574 57.0566 301.036 57.1999 301.557 57.3301C302.084 57.4603 302.663 57.5254 303.295 57.5254ZM308.539 59.0977V57.3887H308.734C309.275 57.3887 309.672 57.3008 309.926 57.125C310.186 56.9427 310.352 56.7572 310.424 56.5684C310.502 56.373 310.541 56.2559 310.541 56.2168C310.541 56.1647 310.528 56.054 310.502 55.8848C310.476 55.7155 310.447 55.5495 310.414 55.3867C310.388 55.2174 310.375 55.1165 310.375 55.084C310.557 54.9928 310.837 54.9049 311.215 54.8203C311.599 54.7292 311.934 54.6803 312.221 54.6738C312.403 55.4095 312.605 55.9759 312.826 56.373C313.048 56.7637 313.288 57.0306 313.549 57.1738C313.816 57.3171 314.099 57.3887 314.398 57.3887H314.594V59.0977H314.398C313.845 59.0977 313.324 58.9902 312.836 58.7754C312.348 58.554 311.934 58.1699 311.596 57.623C311.355 58.1439 310.971 58.5215 310.443 58.7559C309.923 58.9837 309.353 59.0977 308.734 59.0977H308.539ZM312.064 53.6387C311.719 53.3913 311.397 53.1309 311.098 52.8574C310.805 52.584 310.639 52.4017 310.6 52.3105L311.85 50.9336L313.441 52.2422C313.174 52.6068 312.895 52.9258 312.602 53.1992C312.315 53.4661 312.136 53.6126 312.064 53.6387ZM309.867 53.8047C309.522 53.5573 309.203 53.3001 308.91 53.0332C308.617 52.7598 308.448 52.5742 308.402 52.4766L309.652 51.0996L311.244 52.418C310.88 52.8802 310.577 53.222 310.336 53.4434C310.095 53.6647 309.939 53.7852 309.867 53.8047ZM314.203 59.0977V57.3887H314.398C315.017 57.3887 315.463 57.3301 315.736 57.2129C316.016 57.0892 316.192 56.9167 316.264 56.6953C316.342 56.474 316.381 56.2168 316.381 55.9238C316.381 55.7025 316.371 55.3542 316.352 54.8789C316.339 54.4036 316.316 53.873 316.283 53.2871C316.257 52.6947 316.231 52.1152 316.205 51.5488C316.179 50.9759 316.153 50.4746 316.127 50.0449C316.107 49.6152 316.091 49.3288 316.078 49.1855C316.189 48.9577 316.446 48.7396 316.85 48.5312C317.253 48.3229 317.66 48.2025 318.07 48.1699C318.09 48.248 318.103 48.4336 318.109 48.7266C318.116 49.013 318.119 49.332 318.119 49.6836C318.119 50.0352 318.119 50.3444 318.119 50.6113C318.119 51.4186 318.126 52.2845 318.139 53.209C318.158 54.1335 318.168 55.1882 318.168 56.373C318.168 56.8548 318.044 57.304 317.797 57.7207C317.549 58.1309 317.149 58.4629 316.596 58.7168C316.042 58.9707 315.31 59.0977 314.398 59.0977H314.203ZM320.062 59.6152C320.069 59.4069 320.072 59.1758 320.072 58.9219C320.079 58.6615 320.082 58.388 320.082 58.1016C320.082 57.4375 320.072 56.7181 320.053 55.9434C320.033 55.1621 320.007 54.3874 319.975 53.6191C319.949 52.8509 319.919 52.1445 319.887 51.5C319.854 50.849 319.828 50.3151 319.809 49.8984C319.789 49.4818 319.779 49.2441 319.779 49.1855C319.857 48.9316 320.03 48.7298 320.297 48.5801C320.57 48.4238 320.854 48.3066 321.146 48.2285C321.439 48.1439 321.658 48.0918 321.801 48.0723C321.814 48.1504 321.824 48.2936 321.83 48.502C321.837 48.7103 321.84 48.9154 321.84 49.1172C321.846 49.3125 321.85 49.4297 321.85 49.4688C321.85 49.7943 321.846 50.263 321.84 50.875C321.84 51.4805 321.833 52.1641 321.82 52.9258C321.814 53.6875 321.804 54.459 321.791 55.2402C321.778 56.015 321.762 56.7344 321.742 57.3984C321.723 58.0625 321.703 58.6029 321.684 59.0195C321.553 59.1888 321.309 59.3223 320.951 59.4199C320.6 59.5176 320.303 59.5827 320.062 59.6152ZM331.039 59.3418C330.375 59.3418 329.812 59.2181 329.35 58.9707C328.894 58.7168 328.546 58.3848 328.305 57.9746C328.064 57.5645 327.943 57.1217 327.943 56.6465C327.943 56.0671 328.129 55.4909 328.5 54.918C328.871 54.3451 329.451 53.8698 330.238 53.4922L331.342 54.4395C330.749 54.752 330.31 55.084 330.023 55.4355C329.743 55.7806 329.604 56.1224 329.604 56.4609C329.604 56.8776 329.743 57.1934 330.023 57.4082C330.303 57.6165 330.613 57.7207 330.951 57.7207C331.283 57.7207 331.586 57.6198 331.859 57.418C332.133 57.2096 332.27 56.9069 332.27 56.5098C332.27 56.2624 332.182 55.9987 332.006 55.7188C331.837 55.4323 331.534 55.1328 331.098 54.8203C330.668 54.5078 330.059 54.1855 329.271 53.8535C329.402 53.5866 329.597 53.3522 329.857 53.1504C330.124 52.9421 330.378 52.8086 330.619 52.75C331.498 53.1667 332.172 53.5898 332.641 54.0195C333.116 54.4492 333.441 54.8822 333.617 55.3184C333.799 55.7546 333.891 56.1973 333.891 56.6465C333.891 57.2194 333.751 57.7077 333.471 58.1113C333.197 58.515 332.842 58.821 332.406 59.0293C331.97 59.2376 331.514 59.3418 331.039 59.3418ZM331.732 51.8906C331.387 51.6432 331.065 51.3828 330.766 51.1094C330.473 50.8359 330.307 50.6536 330.268 50.5625L331.518 49.1855L333.109 50.4941C332.842 50.8587 332.562 51.1777 332.27 51.4512C331.983 51.7181 331.804 51.8646 331.732 51.8906ZM329.535 52.0566C329.19 51.8092 328.871 51.5521 328.578 51.2852C328.285 51.0117 328.116 50.8262 328.07 50.7285L329.32 49.3516L330.912 50.6699C330.548 51.1322 330.245 51.474 330.004 51.6953C329.763 51.9167 329.607 52.0371 329.535 52.0566ZM333.246 65.8945C332.908 65.6732 332.667 65.4128 332.523 65.1133C332.374 64.8138 332.27 64.5339 332.211 64.2734C333.272 63.9023 334.089 63.4336 334.662 62.8672C335.242 62.3073 335.645 61.679 335.873 60.9824C336.101 60.2858 336.215 59.5599 336.215 58.8047C336.215 58.2448 336.173 57.6654 336.088 57.0664C336.003 56.4674 335.906 55.8978 335.795 55.3574C335.984 55.1882 336.247 55.0547 336.586 54.957C336.924 54.8529 337.25 54.7975 337.562 54.791C337.712 55.39 337.816 56.0475 337.875 56.7637C337.94 57.4733 337.973 58.1309 337.973 58.7363C337.973 59.6608 337.823 60.5853 337.523 61.5098C337.23 62.4342 336.739 63.2773 336.049 64.0391C335.359 64.8073 334.424 65.4258 333.246 65.8945ZM343.441 59.0977C342.517 59.0977 341.801 58.9772 341.293 58.7363C340.792 58.4954 340.437 58.1862 340.229 57.8086C340.027 57.4245 339.91 57.0241 339.877 56.6074C339.851 56.2428 339.828 55.7806 339.809 55.2207C339.789 54.6543 339.77 54.0553 339.75 53.4238C339.737 52.7858 339.724 52.1706 339.711 51.5781C339.698 50.9857 339.685 50.4746 339.672 50.0449C339.665 49.6152 339.656 49.3288 339.643 49.1855C339.721 48.9642 339.89 48.7754 340.15 48.6191C340.417 48.4629 340.694 48.3392 340.98 48.248C341.273 48.1504 341.492 48.0918 341.635 48.0723C341.648 48.1504 341.658 48.2871 341.664 48.4824C341.671 48.6712 341.674 48.8633 341.674 49.0586C341.68 49.2474 341.684 49.3841 341.684 49.4688C341.684 50.0026 341.677 50.6113 341.664 51.2949C341.658 51.972 341.648 52.6621 341.635 53.3652C341.622 54.0618 341.615 54.7161 341.615 55.3281C341.615 56.0703 341.732 56.6009 341.967 56.9199C342.208 57.2324 342.699 57.3887 343.441 57.3887H343.637V59.0977H343.441ZM348.51 63.9023C347.67 63.9023 346.951 63.6452 346.352 63.1309C345.759 62.623 345.303 61.9492 344.984 61.1094C344.665 60.2695 344.506 59.3581 344.506 58.375C344.506 57.6979 344.597 57.0208 344.779 56.3438C344.968 55.6602 345.235 55.0384 345.58 54.4785C345.932 53.9186 346.358 53.4694 346.859 53.1309C347.367 52.7923 347.937 52.623 348.568 52.623C349.206 52.623 349.717 52.8184 350.102 53.209C350.486 53.5931 350.678 54.0553 350.678 54.5957C350.678 55.1165 350.538 55.6406 350.258 56.168C349.984 56.6888 349.633 57.1217 349.203 57.4668C349.802 57.4277 350.281 57.4049 350.639 57.3984C351.003 57.3919 351.413 57.3887 351.869 57.3887H352.064V59.0977C351.967 59.0977 351.898 59.0977 351.859 59.0977C351.827 59.0977 351.785 59.0977 351.732 59.0977C351.023 59.0977 350.495 59.0911 350.15 59.0781C349.805 59.0651 349.464 59.0456 349.125 59.0195C349.659 59.319 350.062 59.7389 350.336 60.2793C350.616 60.8197 350.756 61.3242 350.756 61.793C350.756 62.151 350.661 62.4896 350.473 62.8086C350.284 63.1341 350.02 63.3978 349.682 63.5996C349.35 63.8014 348.959 63.9023 348.51 63.9023ZM343.246 59.0977V57.3887H343.441C343.708 57.3887 343.93 57.3854 344.105 57.3789C344.281 57.3724 344.46 57.3626 344.643 57.3496C344.825 57.3301 345.056 57.304 345.336 57.2715L345.219 58.9707C344.887 59.0163 344.607 59.0488 344.379 59.0684C344.158 59.0879 343.845 59.0977 343.441 59.0977H343.246ZM348.422 62.3398C348.65 62.3398 348.832 62.2747 348.969 62.1445C349.112 62.0143 349.184 61.8418 349.184 61.627C349.184 61.4967 349.105 61.2721 348.949 60.9531C348.799 60.6406 348.51 60.2923 348.08 59.9082C347.65 59.5306 347.025 59.1855 346.205 58.873L346.117 57.2617C346.671 57.2357 347.156 57.0924 347.572 56.832C347.995 56.5716 348.324 56.2559 348.559 55.8848C348.799 55.5072 348.92 55.1426 348.92 54.791C348.92 54.4069 348.705 54.2148 348.275 54.2148C347.995 54.2148 347.729 54.3353 347.475 54.5762C347.221 54.8105 346.996 55.1263 346.801 55.5234C346.605 55.9141 346.452 56.3438 346.342 56.8125C346.231 57.2747 346.176 57.737 346.176 58.1992C346.176 58.9089 346.277 59.5794 346.479 60.2109C346.687 60.8424 346.96 61.3535 347.299 61.7441C347.644 62.1413 348.018 62.3398 348.422 62.3398ZM356.781 59.4004C356.254 59.4004 355.801 59.3092 355.424 59.127C355.053 58.9512 354.743 58.7428 354.496 58.502C354.255 58.2546 354.063 58.0332 353.92 57.8379L354.604 56.0996C354.682 56.4447 354.831 56.7376 355.053 56.9785C355.281 57.2194 355.538 57.4049 355.824 57.5352C356.111 57.6589 356.378 57.7207 356.625 57.7207C357.048 57.7207 357.387 57.6328 357.641 57.457C357.901 57.2812 358.031 56.9753 358.031 56.5391C358.031 55.9336 357.875 55.4811 357.562 55.1816C357.25 54.8822 356.879 54.7324 356.449 54.7324C356.007 54.7324 355.668 54.8529 355.434 55.0938C355.199 55.3281 355.04 55.6471 354.955 56.0508C354.877 56.4479 354.838 56.8939 354.838 57.3887C354.695 58.0527 354.372 58.5052 353.871 58.7461C353.376 58.987 352.719 59.1042 351.898 59.0977C351.872 59.0977 351.84 59.0977 351.801 59.0977C351.755 59.0977 351.716 59.0977 351.684 59.0977V57.3887C351.716 57.3887 351.749 57.3887 351.781 57.3887C351.807 57.3887 351.84 57.3887 351.879 57.3887C352.439 57.3887 352.81 57.3366 352.992 57.2324C353.174 57.1217 353.266 56.998 353.266 56.8613C353.266 56.8092 353.266 56.7604 353.266 56.7148C353.266 56.6628 353.269 56.5944 353.275 56.5098C353.308 56.2428 353.35 55.9661 353.402 55.6797C353.461 55.3867 353.562 55.0905 353.705 54.791C353.979 54.1921 354.382 53.7559 354.916 53.4824C355.45 53.209 355.971 53.0723 356.479 53.0723C357.383 53.0723 358.145 53.3783 358.764 53.9902C359.382 54.6022 359.691 55.4616 359.691 56.5684C359.691 57.1934 359.545 57.7174 359.252 58.1406C358.959 58.5573 358.588 58.8698 358.139 59.0781C357.696 59.293 357.243 59.4004 356.781 59.4004Z" fill="white"/>
<path d="M382.692 88.668H292.692V93.668H382.692V88.668Z" fill="#949598"/>
<path d="M382.692 112.668H292.692V117.668H382.692V112.668Z" fill="#949598"/>
<path d="M364.692 88.668H292.692V93.668H364.692V88.668Z" fill="#00AEEF"/>
<path d="M364.692 112.668H292.692V117.668H364.692V112.668Z" fill="#00AEEF"/>
<path d="M365.248 87.668C366.426 87.668 367.557 88.0515 368.39 88.7341C369.224 89.4167 369.692 90.3426 369.692 91.308V92.025C369.692 92.5033 369.578 92.9769 369.355 93.4189C369.131 93.8609 368.804 94.2625 368.391 94.6008C367.979 94.9391 367.489 95.2075 366.949 95.3906C366.41 95.5737 365.832 95.668 365.248 95.668C364.78 95.668 364.318 95.5925 363.886 95.446C363.454 95.2995 363.062 95.0847 362.732 94.814C362.402 94.5432 362.14 94.2219 361.962 93.8682C361.783 93.5145 361.691 93.1355 361.692 92.7528V90.5802C361.692 89.8078 362.067 89.0671 362.733 88.5209C363.4 87.9748 364.305 87.668 365.248 87.668Z" fill="black"/>
<path d="M365.248 111.668C366.426 111.668 367.557 112.051 368.39 112.734C369.224 113.417 369.692 114.343 369.692 115.308V116.025C369.692 116.503 369.578 116.977 369.355 117.419C369.131 117.861 368.804 118.262 368.391 118.601C367.979 118.939 367.489 119.208 366.949 119.391C366.41 119.574 365.832 119.668 365.248 119.668C364.78 119.668 364.318 119.593 363.886 119.446C363.454 119.299 363.062 119.085 362.732 118.814C362.402 118.543 362.14 118.222 361.962 117.868C361.783 117.515 361.691 117.136 361.692 116.753V114.58C361.692 113.808 362.067 113.067 362.733 112.521C363.4 111.975 364.305 111.668 365.248 111.668Z" fill="black"/>
<path d="M386.192 92.668C387.573 92.668 388.692 91.9964 388.692 91.168C388.692 90.3395 387.573 89.668 386.192 89.668C384.811 89.668 383.692 90.3395 383.692 91.168C383.692 91.9964 384.811 92.668 386.192 92.668Z" fill="#231F20"/>
<path d="M386.192 116.668C387.573 116.668 388.692 115.996 388.692 115.168C388.692 114.34 387.573 113.668 386.192 113.668C384.811 113.668 383.692 114.34 383.692 115.168C383.692 115.996 384.811 116.668 386.192 116.668Z" fill="#231F20"/>
<path d="M431 47L431 108" stroke="white"/>
<path d="M88 47L88 108" stroke="white"/>
<rect x="2" y="-2" width="450" height="200" transform="matrix(1 0 0 -1 0 200)" stroke="#01ADED" stroke-width="4"/>
</svg>
