<svg width="809" height="97" viewBox="0 0 809 97" fill="none" xmlns="http://www.w3.org/2000/svg">
<rect width="809" height="97" fill="#F5F5F5"/>
<rect x="408" y="1" width="15" height="88" fill="url(#paint0_linear_0_1)"/>
<rect x="2" y="-2" width="805" height="85" transform="matrix(1 0 0 -1 0 85)" stroke="#01ADED" stroke-width="4"/>
<path d="M597.954 15H723.033C724.213 15 725.381 15.2324 726.471 15.6838C727.56 16.1352 728.551 16.7969 729.385 17.6311C730.219 18.4652 730.881 19.4555 731.332 20.5454C731.784 21.6352 732.016 22.8033 732.016 23.983V40.152H597.954C594.619 40.152 591.42 38.827 589.061 36.4686C586.703 34.1101 585.378 30.9114 585.378 27.576C585.378 24.2406 586.703 21.0419 589.061 18.6834C591.42 16.325 594.619 15 597.954 15Z" fill="#00AEEF"/>
<text fill="#FEFEFE" xml:space="preserve" style="white-space: pre" font-family="Harmattan" font-size="20" font-weight="bold" letter-spacing="0em"><tspan x="652" y="32.1162">3D </tspan></text>
<path d="M729.7 57.668H676.7V62.668H729.7V57.668Z" fill="#949598"/>
<path d="M676.7 57.668H634.7V62.668H676.7V57.668Z" fill="#00AEEF"/>
<path d="M675.714 56C676.451 56 677.158 56.3835 677.679 57.0661C678.2 57.7488 678.492 58.6746 678.492 59.64V60.3571C678.492 60.8353 678.421 61.309 678.281 61.7509C678.142 62.1929 677.937 62.5945 677.679 62.9328C677.421 63.2711 677.115 63.5395 676.778 63.7226C676.441 63.9058 676.079 64 675.714 64C675.422 64 675.133 63.9246 674.864 63.778C674.594 63.6315 674.349 63.4167 674.142 63.146C673.936 62.8753 673.772 62.5539 673.661 62.2002C673.549 61.8466 673.492 61.4676 673.492 61.0849V58.9122C673.492 58.1398 673.726 57.3991 674.143 56.853C674.56 56.3068 675.125 56 675.714 56Z" fill="black"/>
<text fill="#FF0040" xml:space="preserve" style="white-space: pre" font-family="Bahij TheSansArabic" font-size="20" font-weight="500" letter-spacing="0em"><tspan x="473.492" y="65.2861">Blender </tspan></text>
<path d="M207.462 15H332.541C333.72 15 334.889 15.2324 335.978 15.6838C337.068 16.1352 338.059 16.7969 338.893 17.6311C339.727 18.4652 340.389 19.4555 340.84 20.5454C341.291 21.6352 341.524 22.8033 341.524 23.983V40.152H207.462C204.126 40.152 200.928 38.827 198.569 36.4686C196.211 34.1101 194.886 30.9114 194.886 27.576C194.886 24.2406 196.211 21.0419 198.569 18.6834C200.928 16.325 204.126 15 207.462 15Z" fill="#00AEEF"/>
<text fill="#FEFEFE" xml:space="preserve" style="white-space: pre" font-family="Harmattan" font-size="20" font-weight="bold" letter-spacing="0em"><tspan x="259" y="32.1162">3D </tspan></text>
<path d="M339.208 57.668H286.208V62.668H339.208V57.668Z" fill="#949598"/>
<path d="M286.208 57.668H244.208V62.668H286.208V57.668Z" fill="#00AEEF"/>
<path d="M285.222 56C285.959 56 286.666 56.3835 287.186 57.0661C287.707 57.7488 288 58.6746 288 59.64V60.3571C288 60.8353 287.929 61.309 287.789 61.7509C287.65 62.1929 287.445 62.5945 287.187 62.9328C286.929 63.2711 286.623 63.5395 286.286 63.7226C285.949 63.9058 285.587 64 285.222 64C284.93 64 284.641 63.9246 284.371 63.778C284.102 63.6315 283.856 63.4167 283.65 63.146C283.444 62.8753 283.28 62.5539 283.169 62.2002C283.057 61.8466 283 61.4676 283 61.0849V58.9122C283 58.1398 283.234 57.3991 283.651 56.853C284.068 56.3068 284.633 56 285.222 56Z" fill="black"/>
<text fill="#FF0040" xml:space="preserve" style="white-space: pre" font-family="Bahij TheSansArabic" font-size="20" font-weight="500" letter-spacing="0em"><tspan x="83" y="65.2861">Blender </tspan></text>
<path d="M252.967 87.3641C252.911 87.1101 252.665 86.9521 252.435 87.0131C252.298 87.0745 252.194 87.1621 252.135 87.264C252.076 87.3659 252.066 87.4773 252.106 87.5831L252.149 87.7711L252.58 87.6611L252.153 87.7751C252.168 87.852 252.206 87.9261 252.265 87.9931C252.306 88.0451 252.359 88.1031 252.417 88.1711C252.64 88.4052 252.839 88.6495 253.011 88.9021C253.142 89.1241 253.414 89.1911 253.617 89.0521C253.725 88.961 253.794 88.8526 253.818 88.7381C253.842 88.6238 253.821 88.5075 253.758 88.4001C253.556 88.0918 253.319 87.7942 253.048 87.5101C253.007 87.4651 253.001 87.4871 252.992 87.4801L252.967 87.3641Z" fill="#FFFFFE"/>
<defs>
<linearGradient id="paint0_linear_0_1" x1="423" y1="45" x2="408" y2="45" gradientUnits="userSpaceOnUse">
<stop offset="0.432692" stop-color="#535353"/>
<stop offset="0.475962"/>
<stop offset="0.476062" stop-color="#00B3FF"/>
</linearGradient>
</defs>
</svg>
