<svg width="813" height="708" viewBox="0 0 813 708" fill="none" xmlns="http://www.w3.org/2000/svg">
<rect width="813" height="708" fill="#F5F5F5"/>
<path d="M419.5 558C419.5 557.172 418.828 556.5 418 556.5C417.172 556.5 416.5 557.172 416.5 558L419.5 558ZM416.939 594.061C417.525 594.646 418.475 594.646 419.061 594.061L428.607 584.515C429.192 583.929 429.192 582.979 428.607 582.393C428.021 581.808 427.071 581.808 426.485 582.393L418 590.879L409.515 582.393C408.929 581.808 407.979 581.808 407.393 582.393C406.808 582.979 406.808 583.929 407.393 584.515L416.939 594.061ZM416.5 558L416.5 593L419.5 593L419.5 558L416.5 558Z" fill="#161616"/>
<rect x="410" y="35" width="15" height="442" fill="url(#paint0_linear_0_1)"/>
<path d="M2 576V2H811V576" stroke="#01ADED" stroke-width="4"/>
<path d="M743.88 89.7166C751.535 89.1797 757.305 82.5336 756.768 74.8722C756.23 67.2108 749.589 61.4353 741.934 61.9722C734.28 62.5091 728.51 69.1551 729.047 76.8165C729.585 84.4779 736.226 90.2535 743.88 89.7166Z" fill="white"/>
<path d="M743.845 89.2174C751.224 88.6999 756.786 82.2929 756.268 74.9071C755.75 67.5213 749.348 61.9535 741.969 62.471C734.59 62.9886 729.028 69.3956 729.546 76.7814C730.064 84.1672 736.466 89.735 743.845 89.2174Z" stroke="#707070" stroke-width="1.00045"/>
<path d="M742.845 88.2309C740.403 88.2308 738.017 87.5067 735.987 86.1502C733.957 84.7937 732.375 82.8658 731.44 80.6101C730.506 78.3544 730.261 75.8723 730.738 73.4776C731.214 71.083 732.39 68.8834 734.116 67.1569C736.431 64.8417 739.571 63.541 742.846 63.541C746.12 63.541 749.26 64.8417 751.575 67.1569C753.89 69.4721 755.191 72.6122 755.191 75.8864C755.191 79.1606 753.89 82.3007 751.575 84.6159C750.431 85.7657 749.071 86.6773 747.572 87.2978C746.074 87.9183 744.467 88.2355 742.845 88.2309ZM742.489 68.5409C740.713 68.5431 738.992 69.1589 737.617 70.2842C736.243 71.4095 735.299 72.975 734.946 74.716C734.593 76.4569 734.853 78.2664 735.681 79.838C736.508 81.4097 737.854 82.6471 739.489 83.3409C740.728 83.8626 742.082 84.0512 743.417 83.8879C744.751 83.7246 746.02 83.215 747.096 82.4098C748.173 81.6047 749.021 80.5319 749.554 79.298C750.088 78.064 750.29 76.7119 750.14 75.3759C750.076 74.8149 749.951 74.2626 749.767 73.7289C749.676 73.4674 749.571 73.2111 749.453 72.9609H748.61L748.076 73.4949C748.178 73.7035 748.269 73.9175 748.348 74.1359C748.509 74.5816 748.618 75.0443 748.673 75.5149C748.701 75.7569 748.716 76.0003 748.716 76.2439C748.714 77.6805 748.215 79.0722 747.305 80.1836C746.394 81.2949 745.128 82.0575 743.72 82.3424C742.312 82.6273 740.849 82.417 739.578 81.7471C738.307 81.0771 737.307 79.9886 736.746 78.6659C736.346 77.7187 736.187 76.6873 736.283 75.6637C736.379 74.6402 736.726 73.6562 737.295 72.7995C737.863 71.9428 738.634 71.24 739.54 70.7538C740.446 70.2676 741.458 70.0131 742.486 70.0129C742.73 70.0132 742.973 70.0275 743.215 70.0559C743.686 70.111 744.148 70.2201 744.594 70.3809C744.813 70.4599 745.027 70.551 745.235 70.6539L745.769 70.1189V69.2739C745.519 69.1554 745.262 69.0506 745 68.9599C744.467 68.7754 743.915 68.6503 743.354 68.5869C743.067 68.5558 742.778 68.5404 742.489 68.5409ZM742.489 71.6219C741.575 71.6219 740.681 71.893 739.921 72.401C739.161 72.9091 738.568 73.6311 738.219 74.4758C737.869 75.3206 737.777 76.25 737.956 77.1467C738.135 78.0434 738.575 78.8669 739.222 79.5132C739.869 80.1595 740.692 80.5994 741.589 80.7774C742.486 80.9555 743.415 80.8635 744.26 80.5132C745.104 80.1629 745.826 79.57 746.334 78.8096C746.841 78.0491 747.112 77.1552 747.111 76.2409C747.111 76.1079 747.105 75.9749 747.094 75.8409C747.083 75.7069 747.066 75.5809 747.044 75.4539C747.022 75.3269 746.998 75.2149 746.963 75.0789C746.928 74.9429 746.893 74.8329 746.852 74.7149L745.622 75.9439C745.622 75.9669 745.622 75.9889 745.628 76.0119C745.634 76.0349 745.628 76.0399 745.628 76.0519C745.628 76.0639 745.628 76.0769 745.628 76.0889V76.1319V76.1619C745.628 76.1739 745.628 76.1869 745.628 76.1989V76.2409C745.628 76.7603 745.499 77.2715 745.253 77.729C745.007 78.1865 744.652 78.5762 744.219 78.8632C743.786 79.1503 743.289 79.3258 742.772 79.3743C742.255 79.4227 741.734 79.3425 741.255 79.1409C740.5 78.8197 739.899 78.2186 739.578 77.4639C739.376 76.9853 739.296 76.4642 739.345 75.9471C739.393 75.4299 739.569 74.9328 739.856 74.5C740.143 74.0671 740.532 73.712 740.99 73.4661C741.447 73.2203 741.959 73.0914 742.478 73.0909H742.625H742.661H742.698L742.77 73.0969L743.999 71.8669C743.886 71.8269 743.763 71.7889 743.635 71.7559C743.507 71.7229 743.376 71.6949 743.259 71.6749C743.142 71.6549 743.003 71.6359 742.873 71.6249C742.743 71.6139 742.621 71.6199 742.489 71.6199V71.6219ZM742.489 74.7029C742.283 74.7021 742.079 74.7433 741.889 74.8239C741.656 74.922 741.451 75.0759 741.292 75.272C741.132 75.468 741.023 75.7003 740.975 75.9483C740.926 76.1963 740.94 76.4524 741.014 76.6941C741.087 76.9358 741.219 77.1556 741.398 77.3342C741.577 77.5128 741.797 77.6447 742.039 77.7183C742.28 77.7918 742.537 77.8048 742.785 77.7561C743.032 77.7073 743.265 77.5984 743.461 77.4388C743.656 77.2792 743.81 77.0739 743.908 76.8409C743.988 76.6511 744.03 76.447 744.029 76.2409C744.029 76.1959 744.029 76.1509 744.023 76.1089C744.017 76.0669 744.014 76.0239 744.006 75.9799C743.998 75.9359 743.989 75.8899 743.979 75.8549C743.969 75.8199 743.954 75.7689 743.942 75.7339L748.057 71.6189H749.257L751.937 68.9389H749.79V66.7969L747.11 69.4769V70.6769L743 74.7879C742.956 74.7719 742.916 74.7599 742.879 74.7509C742.842 74.7419 742.805 74.7329 742.754 74.7239C742.703 74.7149 742.669 74.7109 742.625 74.7069C742.581 74.7029 742.533 74.7029 742.489 74.7029Z" fill="#00AEEF"/>
<path d="M743.432 491.596C751.052 491.596 757.23 485.418 757.23 477.798C757.23 470.178 751.052 464 743.432 464C735.811 464 729.634 470.178 729.634 477.798C729.634 485.418 735.811 491.596 743.432 491.596Z" fill="#00AEEF"/>
<path d="M754.325 477.798C754.325 475.643 753.687 473.536 752.489 471.744C751.292 469.952 749.59 468.556 747.599 467.732C745.607 466.907 743.416 466.692 741.303 467.113C739.189 467.535 737.248 468.573 735.725 470.098C733.682 472.142 732.535 474.914 732.535 477.804C732.536 480.694 733.685 483.466 735.729 485.509C737.773 487.552 740.544 488.699 743.434 488.699C746.325 488.698 749.096 487.549 751.139 485.505C752.153 484.495 752.957 483.294 753.504 481.971C754.051 480.648 754.33 479.23 754.325 477.798ZM752.619 481.522C751.721 480.715 750.657 480.113 749.502 479.759C749.568 479.107 749.602 478.453 749.602 477.797C749.602 477.142 749.568 476.487 749.502 475.835C750.657 475.482 751.721 474.88 752.619 474.073C753.588 476.462 753.588 479.134 752.619 481.522ZM738.239 477.798C738.239 477.228 738.265 476.665 738.315 476.114C739.831 476.471 741.382 476.657 742.939 476.668V478.929C741.382 478.94 739.831 479.126 738.315 479.483C738.268 478.931 738.239 478.368 738.239 477.798ZM742.939 487.667C742.252 487.466 741.618 487.115 741.082 486.64C740.546 486.165 740.122 485.578 739.839 484.92L739.793 484.834C740.714 484.154 741.8 483.733 742.939 483.616V487.667ZM743.918 483.617C745.055 483.735 746.14 484.155 747.06 484.834L747.014 484.921C746.731 485.579 746.307 486.166 745.771 486.641C745.235 487.116 744.601 487.467 743.914 487.668V483.618L743.918 483.617ZM743.918 467.93C744.605 468.132 745.239 468.483 745.775 468.958C746.311 469.432 746.735 470.02 747.018 470.677L747.064 470.763C746.144 471.443 745.059 471.863 743.922 471.98V467.929L743.918 467.93ZM742.939 471.979C741.803 471.861 740.719 471.441 739.8 470.762L739.846 470.676C740.129 470.019 740.553 469.431 741.089 468.957C741.625 468.482 742.259 468.131 742.946 467.929L742.939 471.979ZM743.918 472.961C745.202 472.852 746.433 472.404 747.486 471.661C747.942 472.773 748.257 473.937 748.425 475.127C746.95 475.492 745.438 475.68 743.919 475.689V472.961H743.918ZM747.839 470.141C747.495 469.507 747.071 468.921 746.576 468.396C747.294 468.637 747.981 468.96 748.625 469.358C748.377 469.633 748.115 469.894 747.839 470.141ZM739.022 470.141C738.747 469.894 738.486 469.633 738.239 469.358C738.883 468.961 739.57 468.638 740.287 468.397C739.792 468.922 739.367 469.508 739.023 470.141H739.022ZM742.939 472.961V475.688C741.422 475.679 739.912 475.49 738.439 475.126C738.607 473.936 738.922 472.772 739.378 471.66C740.429 472.402 741.658 472.851 742.939 472.961ZM742.939 479.905V482.631C741.655 482.74 740.424 483.189 739.371 483.931C738.918 482.821 738.605 481.658 738.439 480.47C739.912 480.105 741.422 479.916 742.939 479.905ZM739.023 485.454C739.367 486.088 739.791 486.675 740.285 487.2C739.568 486.959 738.882 486.636 738.239 486.238C738.486 485.963 738.748 485.702 739.023 485.454ZM747.84 485.454C748.116 485.702 748.379 485.963 748.627 486.238C747.983 486.636 747.296 486.959 746.578 487.2C747.072 486.675 747.497 486.088 747.84 485.454ZM743.921 482.634V479.905C745.44 479.914 746.952 480.103 748.427 480.467C748.259 481.657 747.944 482.821 747.488 483.933C746.435 483.192 745.204 482.743 743.921 482.634ZM743.921 478.928V476.668C745.478 476.657 747.029 476.471 748.545 476.114C748.595 476.665 748.621 477.228 748.621 477.798C748.621 478.368 748.595 478.931 748.545 479.482C747.029 479.125 745.478 478.939 743.921 478.928ZM752.176 473.128L752.166 473.137C751.384 473.919 750.427 474.502 749.373 474.837C749.178 473.533 748.815 472.26 748.291 471.049C748.7 470.7 749.084 470.321 749.439 469.917C750.57 470.781 751.503 471.877 752.176 473.131V473.128ZM737.425 469.917C737.78 470.321 738.164 470.699 738.573 471.048C738.049 472.259 737.685 473.532 737.49 474.836C736.436 474.501 735.479 473.918 734.697 473.136L734.687 473.127C735.361 471.874 736.294 470.78 737.425 469.917ZM734.245 474.073C735.143 474.881 736.207 475.482 737.362 475.836C737.231 477.141 737.231 478.456 737.362 479.76C736.207 480.114 735.144 480.715 734.245 481.522C733.276 479.134 733.276 476.462 734.245 474.073ZM734.687 482.464L734.697 482.454C735.479 481.673 736.437 481.09 737.49 480.754C737.685 482.059 738.048 483.332 738.572 484.542C738.163 484.892 737.779 485.27 737.424 485.673C736.294 484.811 735.361 483.717 734.687 482.465V482.464ZM749.439 485.678C749.083 485.275 748.699 484.897 748.29 484.547C748.814 483.337 749.177 482.064 749.372 480.759C750.426 481.095 751.383 481.677 752.165 482.459L752.175 482.469C751.502 483.722 750.569 484.816 749.439 485.678Z" fill="white"/>
<path d="M743.295 516.442C744.338 516.442 745.183 515.597 745.183 514.554C745.183 513.511 744.338 512.666 743.295 512.666C742.253 512.666 741.407 513.511 741.407 514.554C741.407 515.597 742.253 516.442 743.295 516.442Z" fill="#231F20"/>
<path d="M743.616 532.642C744.658 532.642 745.504 531.797 745.504 530.754C745.504 529.711 744.658 528.866 743.616 528.866C742.573 528.866 741.728 529.711 741.728 530.754C741.728 531.797 742.573 532.642 743.616 532.642Z" fill="#231F20"/>
<path d="M731.812 535.096C734.574 535.096 736.812 532.857 736.812 530.096C736.812 527.334 734.574 525.096 731.812 525.096C729.051 525.096 726.812 527.334 726.812 530.096C726.812 532.857 729.051 535.096 731.812 535.096Z" fill="#00AEEF"/>
<path fill-rule="evenodd" clip-rule="evenodd" d="M730.214 527.096C730.42 527.094 730.625 527.118 730.824 527.168C730.997 527.209 731.159 527.289 731.297 527.401C731.433 527.517 731.538 527.664 731.603 527.831C731.68 528.043 731.717 528.268 731.71 528.494C731.719 528.741 731.664 528.986 731.549 529.206C731.435 529.402 731.271 529.563 731.072 529.673C731.345 529.761 731.575 529.949 731.716 530.199C731.865 530.478 731.937 530.79 731.927 531.106C731.933 531.36 731.887 531.612 731.791 531.847C731.708 532.043 731.582 532.218 731.421 532.358C731.266 532.49 731.085 532.59 730.889 532.65C730.692 532.714 730.485 532.748 730.277 532.75H728.007V527.101H730.214V527.096ZM732.973 527.552H734.873V528.11H732.973V527.552ZM733.395 531.763C733.47 531.846 733.563 531.912 733.667 531.955C733.771 531.998 733.883 532.016 733.995 532.01C734.173 532.014 734.346 531.952 734.481 531.838C734.6 531.746 734.687 531.62 734.729 531.476H735.549C735.469 531.883 735.259 532.254 734.949 532.531C734.669 532.747 734.322 532.859 733.968 532.85C733.719 532.853 733.472 532.8 733.246 532.695C733.033 532.592 732.846 532.442 732.699 532.255C732.544 532.05 732.427 531.819 732.354 531.573C732.271 531.29 732.23 530.996 732.232 530.701C732.23 530.411 732.272 530.122 732.357 529.845C732.432 529.596 732.552 529.364 732.712 529.16C732.862 528.971 733.049 528.815 733.262 528.704C733.481 528.591 733.724 528.534 733.97 528.537C734.235 528.53 734.497 528.599 734.723 528.737C734.94 528.874 735.121 529.059 735.252 529.279C735.396 529.518 735.498 529.781 735.552 530.055C735.614 530.354 735.635 530.661 735.617 530.966H733.164C733.152 531.248 733.233 531.526 733.394 531.757L733.395 531.763ZM734.464 529.615C734.401 529.538 734.32 529.478 734.229 529.438C734.137 529.398 734.038 529.381 733.938 529.387C733.809 529.382 733.681 529.413 733.568 529.478C733.475 529.536 733.394 529.613 733.332 529.704C733.274 529.792 733.232 529.889 733.208 529.992C733.186 530.08 733.172 530.17 733.165 530.261H734.679C734.671 530.029 734.596 529.806 734.464 529.615ZM730.08 529.379C730.246 529.385 730.408 529.329 730.533 529.221C730.598 529.153 730.647 529.072 730.677 528.983C730.707 528.895 730.718 528.801 730.708 528.708C730.712 528.597 730.692 528.486 730.65 528.383C730.616 528.303 730.561 528.234 730.491 528.183C730.424 528.133 730.346 528.099 730.264 528.083C730.178 528.064 730.089 528.054 730 528.055H729.036V529.375H730.08V529.379ZM730.136 531.779C730.234 531.78 730.33 531.768 730.424 531.743C730.513 531.721 730.595 531.68 730.666 531.623C730.74 531.563 730.798 531.485 730.834 531.397C730.879 531.28 730.9 531.156 730.895 531.031C730.906 530.919 730.895 530.805 730.86 530.698C730.826 530.591 730.77 530.492 730.695 530.407C730.546 530.278 730.354 530.212 730.157 530.222H729.036V531.779H730.136Z" fill="white"/>
<path d="M731.492 519.854C734.254 519.854 736.492 517.615 736.492 514.854C736.492 512.092 734.254 509.854 731.492 509.854C728.731 509.854 726.492 512.092 726.492 514.854C726.492 517.615 728.731 519.854 731.492 519.854Z" fill="#00AEEF"/>
<path d="M731.456 510.994C730.432 511.029 729.464 511.468 728.764 512.215C728.063 512.962 727.688 513.956 727.719 514.98C727.705 515.797 727.942 516.598 728.4 517.274C728.857 517.951 729.512 518.47 730.275 518.761C730.296 518.766 730.317 518.768 730.338 518.768C730.364 518.769 730.39 518.765 730.415 518.755C730.439 518.745 730.461 518.73 730.479 518.711C730.497 518.693 730.511 518.67 730.52 518.645C730.529 518.621 730.532 518.594 730.53 518.568C730.53 518.468 730.53 518.223 730.525 517.889C730.402 517.919 730.275 517.935 730.148 517.936C729.958 517.949 729.768 517.899 729.609 517.794C729.449 517.689 729.329 517.535 729.265 517.355C729.2 517.118 729.053 516.912 728.85 516.772C728.525 516.534 728.85 516.527 728.873 516.527C728.993 516.548 729.107 516.596 729.207 516.668C729.306 516.74 729.387 516.833 729.445 516.94C729.502 517.069 729.594 517.178 729.711 517.255C729.829 517.333 729.966 517.375 730.106 517.376C730.254 517.374 730.4 517.34 730.533 517.276C730.549 517.077 730.632 516.888 730.77 516.743C730.523 516.743 730.279 516.69 730.054 516.588C729.83 516.485 729.63 516.335 729.468 516.148C729.307 515.961 729.188 515.741 729.119 515.504C729.05 515.267 729.034 515.017 729.07 514.773C729.063 514.382 729.2 514.002 729.454 513.704C729.34 513.359 729.353 512.985 729.491 512.649C729.518 512.642 729.546 512.639 729.574 512.64C729.924 512.681 730.253 512.826 730.518 513.058C731.129 512.88 731.779 512.88 732.39 513.058C732.655 512.826 732.984 512.681 733.334 512.64C733.362 512.639 733.39 512.642 733.417 512.649C733.555 512.985 733.568 513.359 733.454 513.704C733.709 514.002 733.845 514.382 733.838 514.773C733.875 515.018 733.858 515.268 733.789 515.505C733.719 515.743 733.6 515.962 733.437 516.149C733.275 516.336 733.074 516.486 732.849 516.587C732.623 516.689 732.379 516.741 732.131 516.739C732.221 516.838 732.29 516.955 732.334 517.082C732.378 517.209 732.395 517.343 732.385 517.477C732.385 518.01 732.38 518.44 732.38 518.57C732.378 518.596 732.381 518.622 732.39 518.647C732.398 518.672 732.412 518.694 732.43 518.713C732.448 518.732 732.47 518.747 732.494 518.757C732.518 518.766 732.544 518.771 732.57 518.77C732.593 518.77 732.615 518.768 732.637 518.763C733.4 518.472 734.055 517.953 734.513 517.277C734.97 516.6 735.208 515.799 735.193 514.982C735.225 513.958 734.85 512.963 734.149 512.215C733.449 511.468 732.48 511.029 731.456 510.994Z" fill="white"/>
<text fill="black" xml:space="preserve" style="white-space: pre" font-family="Harmattan" font-size="13" font-weight="bold" letter-spacing="0em"><tspan x="687" y="480.816">&#x627;&#x644;&#x645;&#x648;&#x627;&#x642;&#x639;</tspan></text>
<text fill="black" xml:space="preserve" style="white-space: pre" font-family="Harmattan" font-size="20" font-weight="bold" letter-spacing="0em"><tspan x="529.492" y="80.1162">&#x627;&#x644;&#x631;&#x624;&#x64a;&#x629; &#x648;&#x627;&#x644;&#x62e;&#x637;&#x648;&#x629; &#x627;&#x644;&#x642;&#x627;&#x62f;&#x645;&#x629;</tspan></text>
<text fill="black" xml:space="preserve" style="white-space: pre" font-family="Arial" font-size="12" font-weight="900" letter-spacing="0.09em"><tspan x="477.251" y="128.197">&#x623;&#x633;&#x639;&#x649; &#x625;&#x644;&#x649; &#x625;&#x62a;&#x642;&#x627;&#x646; &#x645;&#x647;&#x627;&#x631;&#x627;&#x62a; &#x627;&#x644;&#x62d;&#x627;&#x633;&#x648;&#x628; &#x648;&#x627;&#x644;&#x62a;&#x643;&#x646;&#x648;&#x644;&#x648;&#x62c;&#x64a;&#x627; </tspan><tspan x="478.389" y="152.197">&#x627;&#x644;&#x62d;&#x62f;&#x64a;&#x62b;&#x629; &#x645;&#x646; &#x62e;&#x644;&#x627;&#x644; &#x627;&#x644;&#x62a;&#x639;&#x644;&#x645; &#x627;&#x644;&#x645;&#x633;&#x62a;&#x645;&#x631; &#x648;&#x627;&#x644;&#x627;&#x633;&#x62a;&#x643;&#x634;&#x627;&#x641; </tspan><tspan x="475.839" y="176.197">&#x627;&#x644;&#x639;&#x645;&#x64a;&#x642; &#x644;&#x643;&#x644; &#x645;&#x627; &#x647;&#x648; &#x62c;&#x62f;&#x64a;&#x62f; &#x641;&#x64a; &#x647;&#x630;&#x627; &#x627;&#x644;&#x645;&#x62c;&#x627;&#x644;. &#x634;&#x63a;&#x641;&#x64a; </tspan><tspan x="463.587" y="200.197">&#x628;&#x627;&#x644;&#x62d;&#x627;&#x633;&#x648;&#x628; &#x64a;&#x62f;&#x641;&#x639;&#x646;&#x64a; &#x62f;&#x627;&#x626;&#x645;&#x64b;&#x627; &#x625;&#x644;&#x649; &#x62a;&#x637;&#x648;&#x64a;&#x631; &#x645;&#x647;&#x627;&#x631;&#x627;&#x62a;&#x64a;&#x60c; &#x645;&#x648;&#x627;&#x643;&#x628;&#x629; </tspan><tspan x="471.061" y="224.197">&#x623;&#x62d;&#x62f;&#x62b; &#x627;&#x644;&#x62a;&#x642;&#x646;&#x64a;&#x627;&#x62a;&#x60c; &#x648;&#x62a;&#x62d;&#x644;&#x64a;&#x644; &#x627;&#x644;&#x645;&#x634;&#x643;&#x644;&#x627;&#x62a; &#x627;&#x644;&#x62a;&#x642;&#x646;&#x64a;&#x629; &#x644;&#x625;&#x64a;&#x62c;&#x627;&#x62f; </tspan><tspan x="472.702" y="248.197">&#x62d;&#x644;&#x648;&#x644; &#x645;&#x628;&#x62a;&#x643;&#x631;&#x629;. &#x623;&#x624;&#x645;&#x646; &#x628;&#x623;&#x646; &#x627;&#x644;&#x62a;&#x639;&#x644;&#x645; &#x644;&#x627; &#x64a;&#x62a;&#x648;&#x642;&#x641;&#x60c; &#x648;&#x623;&#x633;&#x639;&#x649; </tspan><tspan x="478.737" y="272.197">&#x625;&#x644;&#x649; &#x623;&#x646; &#x623;&#x643;&#x648;&#x646; &#x62f;&#x627;&#x626;&#x645; &#x627;&#x644;&#x62a;&#x637;&#x648;&#x631;&#x60c; &#x642;&#x627;&#x62f;&#x631;&#x64b;&#x627; &#x639;&#x644;&#x649; &#x627;&#x644;&#x62a;&#x643;&#x64a;&#x641; &#x645;&#x639; </tspan><tspan x="470.925" y="296.197">&#x627;&#x644;&#x62a;&#x63a;&#x64a;&#x631;&#x627;&#x62a; &#x627;&#x644;&#x633;&#x631;&#x64a;&#x639;&#x629; &#x641;&#x64a; &#x639;&#x627;&#x644;&#x645; &#x627;&#x644;&#x62a;&#x642;&#x646;&#x64a;&#x629;&#x60c; &#x648;&#x645;&#x633;&#x627;&#x647;&#x645;&#x64b;&#x627; &#x641;&#x64a; </tspan><tspan x="512.554" y="320.197">&#x625;&#x62b;&#x631;&#x627;&#x621; &#x647;&#x630;&#x627; &#x627;&#x644;&#x645;&#x62c;&#x627;&#x644; &#x628;&#x627;&#x644;&#x645;&#x639;&#x631;&#x641;&#x629; &#x648;&#x627;&#x644;&#x625;&#x628;&#x62f;&#x627;&#x639;.&#13;&#10;</tspan><tspan x="464.221" y="344.197">&#x627;&#x644;&#x62e;&#x637;&#x648;&#x629; &#x627;&#x644;&#x642;&#x627;&#x62f;&#x645;&#x629; &#x641;&#x64a; &#x645;&#x633;&#x64a;&#x631;&#x62a;&#x64a; &#x628;&#x627;&#x630;&#x646; &#x627;&#x644;&#x644;&#x647; &#x647;&#x64a; &#x627;&#x633;&#x62a;&#x643;&#x645;&#x627;&#x644; </tspan><tspan x="468.81" y="368.197">&#x62f;&#x631;&#x627;&#x633;&#x627;&#x62a;&#x64a; &#x627;&#x644;&#x639;&#x644;&#x64a;&#x627; &#x628;&#x627;&#x644;&#x62d;&#x635;&#x648;&#x644; &#x639;&#x644;&#x649; &#x62f;&#x631;&#x62c;&#x629; &#x627;&#x644;&#x645;&#x627;&#x62c;&#x633;&#x62a;&#x64a;&#x631;&#x60c; &#x62b;&#x645; </tspan><tspan x="477.743" y="392.197">&#x627;&#x644;&#x62f;&#x643;&#x62a;&#x648;&#x631;&#x627;&#x647;&#x60c; &#x645;&#x645;&#x627; &#x633;&#x64a;&#x645;&#x643;&#x646;&#x646;&#x64a; &#x645;&#x646; &#x627;&#x644;&#x62a;&#x639;&#x645;&#x642; &#x641;&#x64a; &#x627;&#x644;&#x628;&#x62d;&#x62b; </tspan><tspan x="467.216" y="416.197">&#x627;&#x644;&#x639;&#x644;&#x645;&#x64a;&#x60c; &#x62a;&#x642;&#x62f;&#x64a;&#x645; &#x62d;&#x644;&#x648;&#x644; &#x62a;&#x642;&#x646;&#x64a;&#x629; &#x645;&#x628;&#x62a;&#x643;&#x631;&#x629;&#x60c; &#x648;&#x627;&#x644;&#x645;&#x633;&#x627;&#x647;&#x645;&#x629; &#x641;&#x64a; </tspan><tspan x="521.418" y="440.197">&#x62a;&#x64d;&#x637;&#x648;&#x64a;&#x631; &#x627;&#x644;&#x645;&#x62c;&#x627;&#x644; &#x627;&#x644;&#x623;&#x643;&#x627;&#x62f;&#x64a;&#x645;&#x64a; &#x648;&#x627;&#x644;&#x645;&#x647;&#x646;&#x64a;</tspan></text>
<path d="M731.368 553H757.368V586H731.368V553Z" fill="#00AEEF"/>
<path d="M739.889 571.722C739.889 571.932 739.77 572.1 739.625 572.1C739.478 572.1 739.36 571.93 739.36 571.722V562.467H733.809V581.119H734.725C734.872 581.119 734.989 581.29 734.989 581.497C734.989 581.707 734.87 581.875 734.725 581.875H733.544C733.397 581.875 733.28 581.704 733.28 581.497V562.265C733.28 562.113 733.324 561.974 733.394 561.871C733.464 561.772 733.561 561.709 733.669 561.709H739.36V554.337C739.36 554.156 739.412 553.988 739.496 553.87V553.868C739.581 553.747 739.696 553.673 739.825 553.673H749.252C749.38 553.673 749.496 553.747 749.58 553.868L749.601 553.899C749.672 554.017 749.718 554.169 749.718 554.337V561.709H755.45C755.556 561.709 755.653 561.772 755.723 561.871L755.725 561.874C755.795 561.974 755.839 562.113 755.839 562.265V581.497C755.839 581.707 755.719 581.875 755.574 581.875H753.896C753.75 581.875 753.632 581.704 753.632 581.497C753.632 581.287 753.751 581.119 753.896 581.119H755.31V562.467H749.716V571.612C749.716 571.822 749.597 571.99 749.452 571.99C749.305 571.99 749.187 571.819 749.187 571.612V554.429H739.889V571.722ZM751.115 571.659H754.034C754.058 571.659 754.078 571.68 754.078 571.704V572.937C754.078 572.963 754.058 572.984 754.034 572.984H751.115C751.091 572.984 751.071 572.963 751.071 572.937V571.704C751.071 571.68 751.091 571.659 751.115 571.659ZM735.063 571.659H737.982C738.005 571.659 738.026 571.68 738.026 571.704V572.937C738.026 572.963 738.005 572.984 737.982 572.984H735.063C735.039 572.984 735.018 572.963 735.018 572.937V571.704C735.018 571.68 735.039 571.659 735.063 571.659ZM741.075 555.896H748.003C748.119 555.896 748.215 556.033 748.215 556.198V559.428C748.215 559.594 748.119 559.73 748.003 559.73H741.075C740.959 559.73 740.864 559.594 740.864 559.428V556.198C740.862 556.033 740.957 555.896 741.075 555.896ZM751.161 581.232C750.968 580.678 750.724 580.209 750.438 579.768C750.974 580.064 751.523 580.358 751.928 580.723C752.666 581.384 752.721 582.185 752.782 583.334H749.123C749.123 583.326 749.123 583.316 749.123 583.308L749.055 582.486L749.318 582.812L750.603 581.214L751.161 581.232ZM738.068 579.936L738.532 581.888L738.765 580.728L738.652 580.55C738.6 580.442 738.589 580.348 738.617 580.266C738.679 580.091 738.808 580.125 738.927 580.125C739.052 580.125 739.208 580.091 739.246 580.316C739.259 580.392 739.243 580.471 739.206 580.552L739.092 580.731L739.325 581.891L739.746 579.938C739.806 580.017 739.893 580.083 739.992 580.14C739.957 580.245 739.926 580.353 739.898 580.468C739.827 580.765 739.781 581.093 739.76 581.458H739.762C739.762 581.466 739.762 581.476 739.76 581.484L739.659 583.337H736.298C736.096 583.316 735.993 583.166 735.977 582.909L736.047 581.886C736.067 581.521 736.138 581.235 736.254 581.014C736.331 580.87 736.427 580.762 736.531 580.678C736.865 580.403 737.765 580.327 738.068 579.936ZM737.84 577.167C737.794 577.173 737.761 577.188 737.736 577.209C737.721 577.222 737.712 577.241 737.704 577.262C737.697 577.285 737.693 577.317 737.693 577.351C737.695 577.459 737.736 577.603 737.814 577.768L737.816 577.771L738.075 578.361C738.178 578.597 738.288 578.836 738.42 579.012C738.547 579.177 738.703 579.29 738.907 579.293C739.129 579.293 739.29 579.177 739.423 579.002C739.56 578.818 739.67 578.561 739.779 578.306L740.071 577.619C740.129 577.427 740.148 577.312 740.129 577.257C740.118 577.222 740.069 577.215 739.99 577.222C739.939 577.238 739.887 577.225 739.83 577.183L739.975 576.559C739.441 576.548 739.074 576.417 738.642 576.021C738.501 575.892 738.457 575.742 738.316 575.756C738.207 575.784 738.117 575.855 738.046 575.965C737.976 576.07 737.925 576.215 737.892 576.401L737.978 577.152C737.932 577.191 737.886 577.194 737.84 577.167ZM740.155 576.981C740.218 577.007 740.263 577.06 740.293 577.138C740.337 577.267 740.32 577.456 740.238 577.724C740.236 577.729 740.234 577.734 740.232 577.739L739.937 578.435C739.823 578.705 739.705 578.975 739.549 579.185C739.386 579.403 739.186 579.547 738.91 579.547C738.653 579.547 738.461 579.406 738.303 579.198C738.15 578.999 738.035 578.744 737.926 578.495L737.668 577.905C737.57 577.697 737.521 577.508 737.517 577.354C737.515 577.278 737.524 577.209 737.545 577.149C737.565 577.086 737.598 577.031 737.64 576.992C737.66 576.971 737.684 576.955 737.712 576.942C737.695 576.627 737.69 576.236 737.701 575.905C737.706 575.824 737.717 575.745 737.732 575.664C737.798 575.325 737.965 575.052 738.171 574.866C738.244 574.8 738.323 574.745 738.407 574.701C738.907 574.443 739.568 574.583 739.922 575.131C740.067 575.354 740.157 575.651 740.175 576.042L740.155 576.981ZM742.768 574.367C742.709 574.378 742.665 574.399 742.632 574.428C742.61 574.449 742.595 574.475 742.586 574.504C742.575 574.541 742.569 574.585 742.569 574.635C742.573 574.795 742.634 575.01 742.749 575.257L742.751 575.262L743.138 576.144C743.293 576.496 743.454 576.852 743.654 577.115C743.845 577.364 744.075 577.532 744.379 577.532C744.71 577.532 744.952 577.359 745.147 577.096C745.352 576.821 745.518 576.44 745.677 576.06L746.112 575.037C746.201 574.751 746.226 574.577 746.199 574.499C746.18 574.446 746.105 574.433 745.977 574.451C745.967 574.451 745.956 574.451 745.947 574.451C745.894 574.451 745.837 574.433 745.773 574.391L745.969 573.457C745.171 573.444 744.625 573.244 743.979 572.654C743.766 572.46 743.704 572.239 743.491 572.26C743.331 572.305 743.195 572.407 743.089 572.572C742.986 572.73 742.909 572.945 742.858 573.223L742.995 574.354C742.916 574.407 742.839 574.412 742.768 574.367ZM743.127 578.495L743.821 581.411L744.17 579.681L743.999 579.414C743.922 579.254 743.906 579.112 743.948 578.991C744.04 578.729 744.233 578.779 744.411 578.779C744.598 578.779 744.829 578.729 744.888 579.062C744.908 579.175 744.882 579.29 744.827 579.414L744.657 579.681L745.005 581.411L745.633 578.495C746.087 579.078 747.253 579.196 747.752 579.592C747.888 579.7 748.011 579.833 748.115 580.004C748.117 579.986 748.121 579.965 748.128 579.949C748.183 579.794 748.297 579.823 748.404 579.823C748.516 579.823 748.653 579.794 748.688 579.994C748.699 580.059 748.684 580.13 748.653 580.203L748.552 580.364L748.76 581.392L748.494 581.694L748.582 583.345C748.556 583.73 748.404 583.951 748.103 583.985H740.66C740.359 583.951 740.207 583.73 740.181 583.345L740.286 581.4C740.315 580.857 740.421 580.427 740.596 580.098C740.71 579.883 740.853 579.723 741.011 579.597C741.508 579.196 742.674 579.078 743.127 578.495ZM746.241 574.087C746.335 574.126 746.404 574.202 746.447 574.323C746.513 574.514 746.487 574.795 746.364 575.197C746.362 575.204 746.358 575.212 746.357 575.22L745.914 576.259C745.743 576.664 745.569 577.065 745.336 577.377C745.092 577.703 744.792 577.92 744.383 577.918C743.999 577.918 743.711 577.708 743.474 577.398C743.247 577.102 743.076 576.721 742.911 576.349L742.523 575.467C742.378 575.16 742.305 574.876 742.299 574.643C742.298 574.53 742.31 574.428 742.34 574.339C742.371 574.244 742.419 574.163 742.483 574.102C742.514 574.071 742.551 574.047 742.589 574.026C742.566 573.554 742.558 572.971 742.573 572.481C742.582 572.36 742.597 572.242 742.621 572.121C742.72 571.615 742.968 571.208 743.276 570.93C743.384 570.83 743.504 570.749 743.629 570.686C744.372 570.3 745.36 570.51 745.888 571.329C746.103 571.662 746.239 572.103 746.269 572.685L746.241 574.087ZM747.587 578.899L748.213 578.876C747.882 577.419 747.992 576.081 748.789 574.942C748.925 575.567 749.228 576.084 749.744 576.464C749.99 576.726 750.228 577.041 750.46 577.406C750.5 577.165 750.344 576.873 750.155 576.572C750.329 576.695 750.491 576.868 750.605 577.201C750.737 577.587 750.735 577.913 750.691 578.332C750.671 578.527 750.638 578.71 750.59 578.876H751.062C751.559 577.354 751.244 575.094 750.227 574.136C749.914 573.843 749.691 573.853 749.323 573.853C748.905 573.853 748.69 573.871 748.33 574.213C747.801 574.714 747.475 575.58 747.339 576.782C747.311 577.383 747.293 578.419 747.587 578.899ZM751.115 568.964H754.034C754.058 568.964 754.078 568.985 754.078 569.012V570.245C754.078 570.271 754.058 570.292 754.034 570.292H751.115C751.091 570.292 751.071 570.271 751.071 570.245V569.012C751.071 568.985 751.091 568.964 751.115 568.964ZM751.115 566.267H754.034C754.058 566.267 754.078 566.288 754.078 566.314V567.547C754.078 567.574 754.058 567.594 754.034 567.594H751.115C751.091 567.594 751.071 567.574 751.071 567.547V566.314C751.071 566.288 751.091 566.267 751.115 566.267ZM735.063 568.964H737.982C738.005 568.964 738.026 568.985 738.026 569.012V570.245C738.026 570.271 738.005 570.292 737.982 570.292H735.063C735.039 570.292 735.018 570.271 735.018 570.245V569.012C735.018 568.985 735.039 568.964 735.063 568.964ZM735.063 566.267H737.982C738.005 566.267 738.026 566.288 738.026 566.314V567.547C738.026 567.574 738.005 567.594 737.982 567.594H735.063C735.039 567.594 735.018 567.574 735.018 567.547V566.314C735.018 566.288 735.039 566.267 735.063 566.267ZM746.437 566.553H747.996C748.02 566.553 748.04 566.582 748.04 566.616V568.844C748.04 568.878 748.02 568.907 747.996 568.907H746.437C746.414 568.907 746.393 568.878 746.393 568.844V566.616C746.393 566.582 746.414 566.553 746.437 566.553ZM743.759 566.553H745.318C745.341 566.553 745.362 566.582 745.362 566.616V568.844C745.362 568.878 745.341 568.907 745.318 568.907H743.759C743.735 568.907 743.715 568.878 743.715 568.844V566.616C743.715 566.582 743.735 566.553 743.759 566.553ZM741.08 566.553H742.639C742.663 566.553 742.683 566.582 742.683 566.616V568.844C742.683 568.878 742.663 568.907 742.639 568.907H741.08C741.057 568.907 741.036 568.878 741.036 568.844V566.616C741.036 566.582 741.057 566.553 741.08 566.553ZM746.437 562.231H747.996C748.02 562.231 748.04 562.26 748.04 562.294V564.522C748.04 564.556 748.02 564.585 747.996 564.585H746.437C746.414 564.585 746.393 564.556 746.393 564.522V562.294C746.393 562.257 746.414 562.231 746.437 562.231ZM743.759 562.231H745.318C745.341 562.231 745.362 562.26 745.362 562.294V564.522C745.362 564.556 745.341 564.585 745.318 564.585H743.759C743.735 564.585 743.715 564.556 743.715 564.522V562.294C743.715 562.257 743.735 562.231 743.759 562.231ZM741.08 562.231H742.639C742.663 562.231 742.683 562.26 742.683 562.294V564.522C742.683 564.556 742.663 564.585 742.639 564.585H741.08C741.057 564.585 741.036 564.556 741.036 564.522V562.294C741.036 562.257 741.057 562.231 741.08 562.231Z" fill="white"/>
<text fill="black" xml:space="preserve" style="white-space: pre" font-family="Harmattan" font-size="13" font-weight="bold" letter-spacing="0em"><tspan x="709.368" y="571.676">HR</tspan></text>
<text fill="#FF0040" xml:space="preserve" style="white-space: pre" font-family="Harmattan" font-size="7" font-weight="500" letter-spacing="0em"><tspan x="596" y="500.441">https://github.com/mostafa0said0abdelwahab</tspan></text>
<text fill="#FF0040" xml:space="preserve" style="white-space: pre" font-family="Harmattan" font-size="7" font-weight="500" letter-spacing="0em"><tspan x="675" y="516.441">mostafasaid13</tspan></text>
<path d="M324.88 89.7166C332.535 89.1797 338.305 82.5336 337.768 74.8722C337.23 67.2108 330.589 61.4353 322.934 61.9722C315.28 62.5091 309.51 69.1551 310.047 76.8165C310.585 84.4779 317.226 90.2535 324.88 89.7166Z" fill="white"/>
<path d="M324.845 89.2174C332.224 88.6999 337.786 82.2929 337.268 74.9071C336.75 67.5213 330.348 61.9535 322.969 62.471C315.59 62.9886 310.028 69.3956 310.546 76.7814C311.064 84.1672 317.466 89.735 324.845 89.2174Z" stroke="#707070" stroke-width="1.00045"/>
<path d="M323.845 88.2309C321.403 88.2308 319.017 87.5067 316.987 86.1502C314.957 84.7937 313.375 82.8658 312.44 80.6101C311.506 78.3544 311.261 75.8723 311.738 73.4776C312.214 71.083 313.39 68.8834 315.116 67.1569C317.431 64.8417 320.571 63.541 323.846 63.541C327.12 63.541 330.26 64.8417 332.575 67.1569C334.89 69.4721 336.191 72.6122 336.191 75.8864C336.191 79.1606 334.89 82.3007 332.575 84.6159C331.431 85.7657 330.071 86.6773 328.572 87.2978C327.074 87.9183 325.467 88.2355 323.845 88.2309ZM323.489 68.5409C321.713 68.5431 319.992 69.1589 318.617 70.2842C317.243 71.4095 316.299 72.975 315.946 74.716C315.593 76.4569 315.853 78.2664 316.681 79.838C317.508 81.4097 318.854 82.6471 320.489 83.3409C321.728 83.8626 323.082 84.0512 324.417 83.8879C325.751 83.7246 327.02 83.215 328.096 82.4098C329.173 81.6047 330.021 80.5319 330.554 79.298C331.088 78.064 331.29 76.7119 331.14 75.3759C331.076 74.8149 330.951 74.2626 330.767 73.7289C330.676 73.4674 330.571 73.2111 330.453 72.9609H329.61L329.076 73.4949C329.178 73.7035 329.269 73.9175 329.348 74.1359C329.509 74.5816 329.618 75.0443 329.673 75.5149C329.701 75.7569 329.716 76.0003 329.716 76.2439C329.714 77.6805 329.215 79.0722 328.305 80.1836C327.394 81.2949 326.128 82.0575 324.72 82.3424C323.312 82.6273 321.849 82.417 320.578 81.7471C319.307 81.0771 318.307 79.9886 317.746 78.6659C317.346 77.7187 317.187 76.6873 317.283 75.6637C317.379 74.6402 317.726 73.6562 318.295 72.7995C318.863 71.9428 319.634 71.24 320.54 70.7538C321.446 70.2676 322.458 70.0131 323.486 70.0129C323.73 70.0132 323.973 70.0275 324.215 70.0559C324.686 70.111 325.148 70.2201 325.594 70.3809C325.813 70.4599 326.027 70.551 326.235 70.6539L326.769 70.1189V69.2739C326.519 69.1554 326.262 69.0506 326 68.9599C325.467 68.7754 324.915 68.6503 324.354 68.5869C324.067 68.5558 323.778 68.5404 323.489 68.5409ZM323.489 71.6219C322.575 71.6219 321.681 71.893 320.921 72.401C320.161 72.9091 319.568 73.6311 319.219 74.4758C318.869 75.3206 318.777 76.25 318.956 77.1467C319.135 78.0434 319.575 78.8669 320.222 79.5132C320.869 80.1595 321.692 80.5994 322.589 80.7774C323.486 80.9555 324.415 80.8635 325.26 80.5132C326.104 80.1629 326.826 79.57 327.334 78.8096C327.841 78.0491 328.112 77.1552 328.111 76.2409C328.111 76.1079 328.105 75.9749 328.094 75.8409C328.083 75.7069 328.066 75.5809 328.044 75.4539C328.022 75.3269 327.998 75.2149 327.963 75.0789C327.928 74.9429 327.893 74.8329 327.852 74.7149L326.622 75.9439C326.622 75.9669 326.622 75.9889 326.628 76.0119C326.634 76.0349 326.628 76.0399 326.628 76.0519C326.628 76.0639 326.628 76.0769 326.628 76.0889V76.1319V76.1619C326.628 76.1739 326.628 76.1869 326.628 76.1989V76.2409C326.628 76.7603 326.499 77.2715 326.253 77.729C326.007 78.1865 325.652 78.5762 325.219 78.8632C324.786 79.1503 324.289 79.3258 323.772 79.3743C323.255 79.4227 322.734 79.3425 322.255 79.1409C321.5 78.8197 320.899 78.2186 320.578 77.4639C320.376 76.9853 320.296 76.4642 320.345 75.9471C320.393 75.4299 320.569 74.9328 320.856 74.5C321.143 74.0671 321.532 73.712 321.99 73.4661C322.447 73.2203 322.959 73.0914 323.478 73.0909H323.625H323.661H323.698L323.77 73.0969L324.999 71.8669C324.886 71.8269 324.763 71.7889 324.635 71.7559C324.507 71.7229 324.376 71.6949 324.259 71.6749C324.142 71.6549 324.003 71.6359 323.873 71.6249C323.743 71.6139 323.621 71.6199 323.489 71.6199V71.6219ZM323.489 74.7029C323.283 74.7021 323.079 74.7433 322.889 74.8239C322.656 74.922 322.451 75.0759 322.292 75.272C322.132 75.468 322.023 75.7003 321.975 75.9483C321.926 76.1963 321.94 76.4524 322.014 76.6941C322.087 76.9358 322.219 77.1556 322.398 77.3342C322.577 77.5128 322.797 77.6447 323.039 77.7183C323.28 77.7918 323.537 77.8048 323.785 77.7561C324.032 77.7073 324.265 77.5984 324.461 77.4388C324.656 77.2792 324.81 77.0739 324.908 76.8409C324.988 76.6511 325.03 76.447 325.029 76.2409C325.029 76.1959 325.029 76.1509 325.023 76.1089C325.017 76.0669 325.014 76.0239 325.006 75.9799C324.998 75.9359 324.989 75.8899 324.979 75.8549C324.969 75.8199 324.954 75.7689 324.942 75.7339L329.057 71.6189H330.257L332.937 68.9389H330.79V66.7969L328.11 69.4769V70.6769L324 74.7879C323.956 74.7719 323.916 74.7599 323.879 74.7509C323.842 74.7419 323.805 74.7329 323.754 74.7239C323.703 74.7149 323.669 74.7109 323.625 74.7069C323.581 74.7029 323.533 74.7029 323.489 74.7029Z" fill="#00AEEF"/>
<path d="M289 491C296.732 491 303 484.956 303 477.5C303 470.044 296.732 464 289 464C281.268 464 275 470.044 275 477.5C275 484.956 281.268 491 289 491Z" fill="#00AEEF"/>
<path d="M300 477.497C300 475.421 299.355 473.391 298.146 471.664C296.937 469.938 295.219 468.592 293.209 467.798C291.198 467.004 288.986 466.797 286.852 467.202C284.718 467.608 282.758 468.609 281.221 470.078C279.158 472.048 277.999 474.719 278 477.503C278.001 480.288 279.16 482.958 281.224 484.927C283.288 486.895 286.087 488.001 289.004 488C291.922 487.999 294.72 486.893 296.783 484.923C297.807 483.95 298.619 482.793 299.171 481.518C299.723 480.243 300.005 478.877 300 477.497ZM298.277 481.086C297.37 480.308 296.296 479.728 295.13 479.387C295.197 478.759 295.231 478.128 295.231 477.496C295.231 476.865 295.197 476.234 295.13 475.606C296.296 475.265 297.37 474.686 298.277 473.908C299.256 476.21 299.256 478.784 298.277 481.086ZM283.759 477.497C283.759 476.948 283.785 476.406 283.836 475.875C285.366 476.219 286.932 476.398 288.504 476.409V478.587C286.932 478.598 285.366 478.777 283.836 479.121C283.788 478.589 283.759 478.047 283.759 477.497ZM288.504 487.006C287.811 486.812 287.17 486.474 286.629 486.016C286.088 485.559 285.66 484.993 285.374 484.36L285.328 484.277C286.257 483.621 287.354 483.216 288.504 483.103V487.006ZM289.493 483.104C290.641 483.217 291.736 483.622 292.665 484.277L292.618 484.36C292.333 484.994 291.904 485.56 291.363 486.017C290.822 486.475 290.182 486.813 289.489 487.007V483.105L289.493 483.104ZM289.493 467.99C290.186 468.184 290.826 468.522 291.367 468.979C291.908 469.437 292.337 470.003 292.622 470.636L292.669 470.719C291.74 471.374 290.645 471.779 289.497 471.892V467.989L289.493 467.99ZM288.504 471.891C287.357 471.777 286.263 471.372 285.335 470.718L285.381 470.635C285.667 470.002 286.096 469.436 286.637 468.978C287.178 468.521 287.818 468.183 288.511 467.989L288.504 471.891ZM289.493 472.837C290.789 472.732 292.032 472.299 293.095 471.584C293.555 472.656 293.874 473.777 294.043 474.924C292.554 475.275 291.027 475.457 289.494 475.465V472.837H289.493ZM293.451 470.12C293.104 469.509 292.676 468.944 292.176 468.438C292.901 468.671 293.595 468.982 294.245 469.365C293.995 469.63 293.73 469.882 293.451 470.12ZM284.549 470.12C284.272 469.882 284.008 469.63 283.759 469.365C284.409 468.982 285.102 468.671 285.827 468.439C285.327 468.945 284.898 469.509 284.55 470.12H284.549ZM288.504 472.837V475.464C286.973 475.455 285.448 475.274 283.961 474.923C284.13 473.776 284.449 472.655 284.909 471.583C285.97 472.298 287.211 472.73 288.504 472.837ZM288.504 479.528V482.154C287.208 482.259 285.965 482.692 284.902 483.407C284.444 482.337 284.128 481.216 283.961 480.072C285.447 479.72 286.973 479.537 288.504 479.528ZM284.55 484.874C284.897 485.485 285.326 486.05 285.825 486.556C285.101 486.324 284.408 486.013 283.759 485.629C284.009 485.364 284.273 485.112 284.55 484.874ZM293.452 484.874C293.731 485.112 293.996 485.364 294.247 485.629C293.597 486.013 292.903 486.324 292.178 486.556C292.677 486.05 293.106 485.485 293.452 484.874ZM289.496 482.157V479.528C291.029 479.536 292.556 479.718 294.045 480.069C293.876 481.215 293.557 482.337 293.097 483.409C292.034 482.694 290.791 482.262 289.496 482.157ZM289.496 478.586V476.409C291.068 476.398 292.634 476.219 294.164 475.875C294.215 476.406 294.241 476.948 294.241 477.497C294.241 478.047 294.215 478.589 294.164 479.12C292.634 478.776 291.068 478.597 289.496 478.586ZM297.83 472.998L297.82 473.006C297.031 473.76 296.064 474.321 295 474.644C294.804 473.388 294.436 472.161 293.908 470.995C294.321 470.658 294.708 470.293 295.067 469.904C296.209 470.736 297.151 471.792 297.83 473.001V472.998ZM282.937 469.904C283.296 470.293 283.683 470.657 284.096 470.994C283.567 472.16 283.199 473.387 283.003 474.643C281.939 474.321 280.972 473.759 280.183 473.006L280.173 472.997C280.853 471.79 281.795 470.735 282.937 469.904ZM279.726 473.908C280.633 474.686 281.707 475.266 282.873 475.607C282.741 476.864 282.741 478.131 282.873 479.388C281.708 479.729 280.634 480.308 279.726 481.086C278.748 478.784 278.748 476.21 279.726 473.908ZM280.173 481.993L280.183 481.983C280.972 481.23 281.939 480.669 283.003 480.346C283.199 481.602 283.566 482.829 284.095 483.995C283.682 484.332 283.295 484.696 282.936 485.085C281.795 484.254 280.853 483.2 280.173 481.994V481.993ZM295.067 485.09C294.708 484.701 294.32 484.337 293.907 484C294.436 482.834 294.803 481.607 294.999 480.35C296.063 480.673 297.03 481.235 297.819 481.988L297.829 481.998C297.15 483.205 296.208 484.259 295.067 485.09Z" fill="white"/>
<path d="M288 514C289.105 514 290 513.328 290 512.5C290 511.672 289.105 511 288 511C286.895 511 286 511.672 286 512.5C286 513.328 286.895 514 288 514Z" fill="#231F20"/>
<path d="M289 530C290.105 530 291 529.105 291 528C291 526.895 290.105 526 289 526C287.895 526 287 526.895 287 528C287 529.105 287.895 530 289 530Z" fill="#231F20"/>
<path d="M277 533C279.761 533 282 530.761 282 528C282 525.239 279.761 523 277 523C274.239 523 272 525.239 272 528C272 530.761 274.239 533 277 533Z" fill="#00AEEF"/>
<path fill-rule="evenodd" clip-rule="evenodd" d="M275.318 525C275.534 524.998 275.75 525.019 275.959 525.063C276.141 525.099 276.31 525.168 276.456 525.265C276.599 525.366 276.709 525.494 276.777 525.639C276.858 525.823 276.896 526.019 276.89 526.215C276.899 526.43 276.841 526.643 276.721 526.833C276.601 527.004 276.428 527.144 276.219 527.239C276.506 527.316 276.748 527.479 276.896 527.696C277.052 527.938 277.128 528.21 277.118 528.484C277.124 528.705 277.075 528.924 276.975 529.128C276.887 529.298 276.755 529.45 276.586 529.572C276.423 529.687 276.232 529.774 276.027 529.826C275.82 529.882 275.603 529.911 275.384 529.913H273V525.004H275.318V525ZM278.216 525.396H280.212V525.881H278.216V525.396ZM278.66 529.055C278.738 529.128 278.836 529.185 278.945 529.222C279.054 529.259 279.172 529.275 279.29 529.27C279.476 529.273 279.658 529.22 279.8 529.12C279.925 529.041 280.016 528.931 280.061 528.806H280.922C280.838 529.16 280.617 529.482 280.292 529.722C279.997 529.91 279.633 530.008 279.261 530C279 530.002 278.74 529.956 278.503 529.865C278.279 529.776 278.082 529.645 277.928 529.483C277.765 529.305 277.643 529.104 277.566 528.89C277.478 528.644 277.435 528.389 277.438 528.132C277.436 527.88 277.48 527.63 277.569 527.389C277.648 527.173 277.774 526.971 277.942 526.793C278.099 526.629 278.296 526.494 278.52 526.397C278.75 526.299 279.005 526.249 279.264 526.252C279.542 526.246 279.817 526.306 280.055 526.426C280.282 526.545 280.472 526.706 280.61 526.897C280.761 527.105 280.868 527.333 280.925 527.571C280.99 527.831 281.013 528.097 280.994 528.363H278.417C278.404 528.607 278.489 528.849 278.659 529.05L278.66 529.055ZM279.782 527.189C279.716 527.122 279.631 527.07 279.535 527.035C279.439 527.001 279.334 526.986 279.23 526.991C279.094 526.986 278.959 527.014 278.841 527.07C278.743 527.12 278.659 527.187 278.593 527.266C278.532 527.342 278.488 527.427 278.463 527.516C278.44 527.593 278.425 527.671 278.418 527.75H280.008C279.999 527.549 279.921 527.355 279.782 527.189ZM275.177 526.984C275.351 526.989 275.521 526.94 275.653 526.846C275.721 526.787 275.772 526.717 275.804 526.64C275.836 526.563 275.847 526.482 275.837 526.401C275.841 526.304 275.82 526.208 275.776 526.118C275.74 526.049 275.683 525.989 275.609 525.945C275.538 525.901 275.457 525.872 275.371 525.858C275.28 525.841 275.187 525.833 275.093 525.833H274.081V526.98H275.177V526.984ZM275.236 529.069C275.338 529.07 275.44 529.06 275.539 529.038C275.632 529.019 275.719 528.983 275.793 528.933C275.871 528.881 275.931 528.814 275.969 528.737C276.017 528.636 276.039 528.528 276.034 528.419C276.045 528.322 276.033 528.223 275.997 528.13C275.96 528.037 275.902 527.951 275.823 527.877C275.667 527.765 275.465 527.708 275.258 527.716H274.081V529.069H275.236Z" fill="white"/>
<path d="M276 518C278.761 518 281 515.761 281 513C281 510.239 278.761 508 276 508C273.239 508 271 510.239 271 513C271 515.761 273.239 518 276 518Z" fill="#00AEEF"/>
<path d="M276.5 509C275.542 509.035 274.635 509.487 273.98 510.256C273.324 511.024 272.972 512.048 273.002 513.101C272.988 513.941 273.211 514.765 273.639 515.461C274.067 516.157 274.68 516.691 275.394 516.991C275.414 516.995 275.434 516.998 275.453 516.998C275.478 516.999 275.502 516.994 275.525 516.984C275.548 516.974 275.568 516.959 275.585 516.939C275.602 516.92 275.615 516.897 275.624 516.871C275.632 516.846 275.635 516.819 275.633 516.792C275.633 516.689 275.633 516.437 275.628 516.094C275.513 516.125 275.394 516.141 275.276 516.142C275.097 516.155 274.92 516.104 274.771 515.996C274.621 515.888 274.508 515.729 274.449 515.544C274.388 515.3 274.25 515.088 274.06 514.944C273.756 514.699 274.06 514.692 274.082 514.692C274.195 514.714 274.301 514.764 274.394 514.837C274.487 514.911 274.563 515.007 274.617 515.117C274.67 515.249 274.757 515.362 274.867 515.442C274.977 515.521 275.105 515.564 275.236 515.566C275.375 515.564 275.511 515.529 275.636 515.463C275.651 515.258 275.729 515.064 275.858 514.915C275.627 514.915 275.398 514.86 275.188 514.755C274.977 514.649 274.79 514.495 274.639 514.302C274.488 514.11 274.377 513.884 274.312 513.64C274.248 513.396 274.232 513.139 274.266 512.888C274.26 512.485 274.388 512.094 274.626 511.788C274.519 511.433 274.532 511.048 274.661 510.703C274.686 510.696 274.712 510.692 274.738 510.693C275.066 510.735 275.374 510.885 275.622 511.123C276.194 510.94 276.802 510.94 277.374 511.123C277.622 510.885 277.931 510.735 278.258 510.693C278.284 510.692 278.31 510.696 278.336 510.703C278.465 511.048 278.477 511.433 278.37 511.788C278.609 512.094 278.736 512.485 278.73 512.888C278.764 513.14 278.748 513.396 278.683 513.641C278.619 513.885 278.507 514.111 278.355 514.304C278.203 514.496 278.015 514.65 277.804 514.754C277.593 514.859 277.363 514.912 277.132 514.91C277.216 515.013 277.281 515.133 277.322 515.263C277.363 515.394 277.379 515.532 277.37 515.67C277.37 516.218 277.365 516.66 277.365 516.794C277.363 516.821 277.366 516.848 277.374 516.873C277.382 516.898 277.395 516.922 277.412 516.941C277.428 516.961 277.449 516.976 277.471 516.986C277.494 516.996 277.518 517.001 277.543 517C277.564 517 277.585 516.998 277.606 516.993C278.32 516.693 278.933 516.159 279.361 515.463C279.789 514.767 280.012 513.943 279.998 513.103C280.028 512.049 279.677 511.026 279.021 510.256C278.365 509.487 277.459 509.035 276.5 509Z" fill="white"/>
<text fill="black" xml:space="preserve" style="white-space: pre" font-family="Harmattan" font-size="13" font-weight="bold" letter-spacing="0em"><tspan x="232" y="480.676">&#x627;&#x644;&#x645;&#x648;&#x627;&#x642;&#x639;</tspan></text>
<text fill="black" xml:space="preserve" style="white-space: pre" font-family="Harmattan" font-size="20" font-weight="bold" letter-spacing="0em"><tspan x="110.492" y="80.1162">&#x627;&#x644;&#x631;&#x624;&#x64a;&#x629; &#x648;&#x627;&#x644;&#x62e;&#x637;&#x648;&#x629; &#x627;&#x644;&#x642;&#x627;&#x62f;&#x645;&#x629;</tspan></text>
<path d="M276 550H302V582H276V550Z" fill="#00AEEF"/>
<path d="M284.521 568.155C284.521 568.358 284.401 568.521 284.256 568.521C284.11 568.521 283.992 568.356 283.992 568.155V559.18H278.44V577.267H279.357C279.503 577.267 279.621 577.433 279.621 577.634C279.621 577.837 279.502 578 279.357 578H278.176C278.029 578 277.912 577.835 277.912 577.634V558.984C277.912 558.837 277.956 558.702 278.026 558.602C278.095 558.506 278.193 558.445 278.301 558.445H283.992V551.297C283.992 551.121 284.043 550.958 284.128 550.844V550.841C284.212 550.724 284.328 550.653 284.457 550.653H293.884C294.012 550.653 294.128 550.724 294.212 550.841L294.232 550.872C294.304 550.986 294.35 551.134 294.35 551.297V558.445H300.081C300.188 558.445 300.285 558.506 300.355 558.602L300.357 558.605C300.427 558.702 300.471 558.837 300.471 558.984V577.634C300.471 577.837 300.351 578 300.206 578H298.528C298.381 578 298.264 577.835 298.264 577.634C298.264 577.43 298.383 577.267 298.528 577.267H299.942V559.18H294.348V568.048C294.348 568.252 294.229 568.414 294.084 568.414C293.937 568.414 293.819 568.249 293.819 568.048V551.386H284.521V568.155ZM295.747 568.094H298.666C298.69 568.094 298.71 568.114 298.71 568.137V569.333C298.71 569.359 298.69 569.379 298.666 569.379H295.747C295.723 569.379 295.703 569.359 295.703 569.333V568.137C295.703 568.114 295.723 568.094 295.747 568.094ZM279.694 568.094H282.613C282.637 568.094 282.657 568.114 282.657 568.137V569.333C282.657 569.359 282.637 569.379 282.613 569.379H279.694C279.671 569.379 279.65 569.359 279.65 569.333V568.137C279.65 568.114 279.671 568.094 279.694 568.094ZM285.707 552.808H292.635C292.751 552.808 292.846 552.941 292.846 553.101V556.233C292.846 556.394 292.751 556.526 292.635 556.526H285.707C285.591 556.526 285.496 556.394 285.496 556.233V553.101C285.494 552.941 285.589 552.808 285.707 552.808ZM295.793 577.377C295.6 576.84 295.356 576.384 295.07 575.957C295.606 576.244 296.155 576.529 296.56 576.883C297.298 577.524 297.353 578.3 297.414 579.415H293.755C293.755 579.407 293.755 579.397 293.755 579.389L293.687 578.593L293.95 578.908L295.235 577.359L295.793 577.377ZM282.7 576.12L283.164 578.013L283.397 576.888L283.283 576.715C283.232 576.611 283.221 576.519 283.249 576.44C283.311 576.27 283.439 576.303 283.559 576.303C283.684 576.303 283.84 576.27 283.878 576.489C283.891 576.562 283.875 576.639 283.838 576.718L283.724 576.891L283.957 578.015L284.378 576.122C284.438 576.198 284.524 576.262 284.624 576.318C284.589 576.42 284.558 576.524 284.53 576.636C284.458 576.924 284.412 577.242 284.392 577.595H284.394C284.394 577.603 284.394 577.613 284.392 577.621L284.291 579.417H280.93C280.728 579.397 280.625 579.252 280.609 579.003L280.678 578.01C280.699 577.657 280.77 577.379 280.886 577.165C280.963 577.025 281.058 576.921 281.163 576.84C281.497 576.573 282.397 576.499 282.7 576.12ZM282.472 573.435C282.426 573.44 282.393 573.455 282.367 573.476C282.353 573.488 282.343 573.506 282.336 573.527C282.329 573.55 282.325 573.58 282.325 573.613C282.327 573.717 282.367 573.857 282.446 574.018L282.448 574.02L282.707 574.593C282.81 574.822 282.92 575.053 283.052 575.224C283.179 575.384 283.335 575.494 283.539 575.496C283.761 575.496 283.922 575.384 284.054 575.214C284.192 575.036 284.302 574.786 284.411 574.539L284.703 573.873C284.761 573.687 284.78 573.575 284.761 573.522C284.75 573.488 284.701 573.481 284.622 573.488C284.57 573.504 284.519 573.491 284.462 573.45L284.607 572.845C284.073 572.834 283.706 572.707 283.274 572.323C283.133 572.198 283.089 572.053 282.947 572.066C282.839 572.094 282.749 572.163 282.678 572.27C282.608 572.371 282.556 572.511 282.523 572.692L282.61 573.42C282.564 573.458 282.518 573.46 282.472 573.435ZM284.787 573.254C284.849 573.28 284.895 573.331 284.925 573.407C284.969 573.532 284.952 573.715 284.87 573.974C284.868 573.98 284.866 573.985 284.864 573.99L284.569 574.664C284.455 574.926 284.337 575.188 284.181 575.392C284.018 575.603 283.818 575.743 283.542 575.743C283.285 575.743 283.093 575.606 282.935 575.405C282.782 575.211 282.667 574.964 282.558 574.723L282.299 574.15C282.202 573.949 282.153 573.766 282.149 573.616C282.147 573.542 282.156 573.476 282.176 573.417C282.197 573.356 282.23 573.303 282.272 573.265C282.292 573.244 282.316 573.229 282.343 573.216C282.327 572.911 282.321 572.532 282.332 572.211C282.338 572.132 282.349 572.056 282.364 571.977C282.43 571.649 282.597 571.384 282.802 571.203C282.876 571.14 282.955 571.086 283.039 571.043C283.539 570.794 284.2 570.929 284.554 571.46C284.699 571.677 284.789 571.964 284.807 572.343L284.787 573.254ZM287.399 570.72C287.341 570.73 287.297 570.75 287.264 570.778C287.242 570.799 287.227 570.824 287.218 570.852C287.207 570.888 287.201 570.931 287.201 570.979C287.205 571.135 287.265 571.343 287.381 571.583L287.383 571.588L287.77 572.443C287.924 572.784 288.086 573.13 288.286 573.384C288.477 573.626 288.707 573.789 289.011 573.789C289.342 573.789 289.584 573.621 289.779 573.366C289.984 573.099 290.149 572.73 290.309 572.361L290.744 571.369C290.832 571.091 290.858 570.923 290.831 570.847C290.812 570.796 290.737 570.784 290.608 570.801C290.599 570.801 290.588 570.801 290.579 570.801C290.526 570.801 290.469 570.784 290.405 570.743L290.601 569.837C289.803 569.824 289.257 569.631 288.611 569.058C288.398 568.87 288.336 568.656 288.123 568.677C287.963 568.72 287.827 568.819 287.721 568.979C287.618 569.132 287.541 569.341 287.489 569.61L287.627 570.707C287.548 570.758 287.471 570.763 287.399 570.72ZM287.759 574.723L288.453 577.55L288.802 575.873L288.631 575.613C288.554 575.458 288.538 575.321 288.58 575.204C288.672 574.949 288.864 574.997 289.042 574.997C289.23 574.997 289.461 574.949 289.52 575.272C289.54 575.382 289.514 575.494 289.459 575.613L289.288 575.873L289.637 577.55L290.265 574.723C290.719 575.287 291.884 575.402 292.384 575.786C292.52 575.891 292.643 576.02 292.747 576.186C292.749 576.168 292.753 576.148 292.76 576.132C292.815 575.982 292.929 576.01 293.035 576.01C293.147 576.01 293.285 575.982 293.32 576.176C293.331 576.239 293.316 576.308 293.285 576.379L293.184 576.534L293.392 577.532L293.125 577.824L293.214 579.425C293.188 579.799 293.035 580.013 292.734 580.046H285.292C284.991 580.013 284.838 579.799 284.813 579.425L284.917 577.539C284.947 577.013 285.053 576.595 285.228 576.277C285.341 576.069 285.485 575.913 285.642 575.791C286.14 575.402 287.306 575.287 287.759 574.723ZM290.873 570.448C290.966 570.486 291.036 570.56 291.078 570.677C291.145 570.862 291.119 571.135 290.996 571.524C290.994 571.532 290.99 571.539 290.988 571.547L290.546 572.555C290.375 572.946 290.201 573.336 289.968 573.639C289.724 573.954 289.424 574.165 289.015 574.163C288.631 574.163 288.343 573.959 288.106 573.659C287.879 573.371 287.708 573.002 287.543 572.641L287.155 571.786C287.01 571.488 286.937 571.214 286.931 570.987C286.929 570.878 286.942 570.778 286.972 570.692C287.003 570.6 287.051 570.521 287.115 570.463C287.146 570.432 287.183 570.409 287.221 570.389C287.197 569.931 287.19 569.366 287.205 568.89C287.214 568.773 287.229 568.659 287.253 568.542C287.352 568.051 287.6 567.656 287.908 567.386C288.016 567.29 288.136 567.211 288.26 567.15C289.004 566.776 289.992 566.979 290.52 567.773C290.735 568.096 290.871 568.524 290.9 569.089L290.873 570.448ZM292.218 575.114L292.845 575.092C292.514 573.679 292.624 572.382 293.421 571.277C293.557 571.883 293.86 572.384 294.376 572.753C294.622 573.008 294.86 573.313 295.092 573.667C295.132 573.432 294.976 573.15 294.787 572.857C294.961 572.977 295.123 573.145 295.237 573.468C295.369 573.842 295.367 574.158 295.323 574.565C295.303 574.753 295.27 574.931 295.222 575.092H295.694C296.191 573.616 295.875 571.425 294.858 570.496C294.546 570.211 294.322 570.221 293.955 570.221C293.537 570.221 293.322 570.239 292.962 570.57C292.433 571.056 292.106 571.896 291.971 573.061C291.943 573.644 291.925 574.649 292.218 575.114ZM295.747 565.481H298.666C298.69 565.481 298.71 565.501 298.71 565.526V566.722C298.71 566.748 298.69 566.768 298.666 566.768H295.747C295.723 566.768 295.703 566.748 295.703 566.722V565.526C295.703 565.501 295.723 565.481 295.747 565.481ZM295.747 562.865H298.666C298.69 562.865 298.71 562.885 298.71 562.91V564.106C298.71 564.132 298.69 564.152 298.666 564.152H295.747C295.723 564.152 295.703 564.132 295.703 564.106V562.91C295.703 562.885 295.723 562.865 295.747 562.865ZM279.694 565.481H282.613C282.637 565.481 282.657 565.501 282.657 565.526V566.722C282.657 566.748 282.637 566.768 282.613 566.768H279.694C279.671 566.768 279.65 566.748 279.65 566.722V565.526C279.65 565.501 279.671 565.481 279.694 565.481ZM279.694 562.865H282.613C282.637 562.865 282.657 562.885 282.657 562.91V564.106C282.657 564.132 282.637 564.152 282.613 564.152H279.694C279.671 564.152 279.65 564.132 279.65 564.106V562.91C279.65 562.885 279.671 562.865 279.694 562.865ZM291.069 563.142H292.628C292.652 563.142 292.672 563.17 292.672 563.203V565.363C292.672 565.397 292.652 565.425 292.628 565.425H291.069C291.045 565.425 291.025 565.397 291.025 565.363V563.203C291.025 563.17 291.045 563.142 291.069 563.142ZM288.391 563.142H289.949C289.973 563.142 289.993 563.17 289.993 563.203V565.363C289.993 565.397 289.973 565.425 289.949 565.425H288.391C288.367 565.425 288.347 565.397 288.347 565.363V563.203C288.347 563.17 288.367 563.142 288.391 563.142ZM285.712 563.142H287.271C287.295 563.142 287.315 563.17 287.315 563.203V565.363C287.315 565.397 287.295 565.425 287.271 565.425H285.712C285.688 565.425 285.668 565.397 285.668 565.363V563.203C285.668 563.17 285.688 563.142 285.712 563.142ZM291.069 558.951H292.628C292.652 558.951 292.672 558.979 292.672 559.012V561.172C292.672 561.206 292.652 561.234 292.628 561.234H291.069C291.045 561.234 291.025 561.206 291.025 561.172V559.012C291.025 558.976 291.045 558.951 291.069 558.951ZM288.391 558.951H289.949C289.973 558.951 289.993 558.979 289.993 559.012V561.172C289.993 561.206 289.973 561.234 289.949 561.234H288.391C288.367 561.234 288.347 561.206 288.347 561.172V559.012C288.347 558.976 288.367 558.951 288.391 558.951ZM285.712 558.951H287.271C287.295 558.951 287.315 558.979 287.315 559.012V561.172C287.315 561.206 287.295 561.234 287.271 561.234H285.712C285.688 561.234 285.668 561.206 285.668 561.172V559.012C285.668 558.976 285.688 558.951 285.712 558.951Z" fill="white"/>
<text fill="black" xml:space="preserve" style="white-space: pre" font-family="Harmattan" font-size="13" font-weight="bold" letter-spacing="0em"><tspan x="254" y="568.676">HR</tspan></text>
<text fill="#FF0040" xml:space="preserve" style="white-space: pre" font-family="Harmattan" font-size="7" font-weight="500" letter-spacing="0em"><tspan x="141" y="513.441">https://github.com/mostafa0said0abdelwahab</tspan></text>
<text fill="#FF0040" xml:space="preserve" style="white-space: pre" font-family="Harmattan" font-size="7" font-weight="500" letter-spacing="0em"><tspan x="220" y="530.441">mostafasaid13</tspan></text>
<text fill="black" xml:space="preserve" style="white-space: pre" font-family="Arial" font-size="10" font-weight="900" letter-spacing="0.09em"><tspan x="29.176" y="130.955">I strive to master computer skills and modern technology </tspan><tspan x="33.9717" y="150.955">through continuous learning and in-depth exploration of </tspan><tspan x="46.3658" y="170.955">the latest developments in this field. My passion for </tspan><tspan x="25.308" y="190.955">computers constantly drives me to develop my skills, keep </tspan><tspan x="39.0311" y="210.955">up with the latest technologies, and analyze technical </tspan><tspan x="47.6988" y="230.955">problems to find innovative solutions. I believe that </tspan><tspan x="52.4367" y="250.955">learning never stops, and I strive to be constantly </tspan><tspan x="31.3773" y="270.955">evolving, able to adapt to the rapid changes in the world </tspan><tspan x="25.4912" y="290.955">of technology, and contributing to enriching this field with </tspan><tspan x="130.417" y="310.955">knowledge and creativity.&#10;</tspan><tspan x="25.8736" y="330.955">The next step in my career, God willing, is to complete my </tspan><tspan x="41.8109" y="350.955">postgraduate studies by obtaining a master&#39;s degree, </tspan><tspan x="43.0553" y="370.955">followed by a doctorate. This will enable me to delve </tspan><tspan x="51.1184" y="390.955">deeper into scientific research, provide innovative </tspan><tspan x="28.6234" y="410.955">technical solutions, and contribute to the development of </tspan><tspan x="92.7609" y="430.955">the academic and professional fields.</tspan></text>
<text fill="black" stroke="#02B3FF" xml:space="preserve" style="white-space: pre" font-family="Arial" font-size="32" font-weight="900" letter-spacing="0em"><tspan x="393.094" y="508.156">CV </tspan><tspan x="383.531" y="553.156">ATS</tspan></text>
<defs>
<linearGradient id="paint0_linear_0_1" x1="425" y1="256" x2="410" y2="256" gradientUnits="userSpaceOnUse">
<stop offset="0.432692" stop-color="#535353"/>
<stop offset="0.475962"/>
<stop offset="0.476062" stop-color="#00B3FF"/>
</linearGradient>
</defs>
</svg>
