<svg width="345" height="377" viewBox="0 0 345 377" fill="none" xmlns="http://www.w3.org/2000/svg">
<rect width="345" height="377" fill="#F5F5F5"/>
<path d="M317.449 1L314.613 3.93501L312.44 2.8102L311.187 3.95773L315.127 6L319.187 1.7989L317.449 1Z" fill="white"/>
<path d="M302.625 25.2485C303.489 25.2485 304.333 25.0793 305.051 24.7624C305.768 24.4455 306.328 23.9951 306.658 23.4681C306.989 22.9411 307.075 22.3613 306.907 21.8018C306.738 21.2424 306.323 20.7285 305.712 20.3252C305.102 19.9218 304.324 19.6472 303.477 19.5359C302.63 19.4246 301.752 19.4817 300.955 19.7C300.157 19.9183 299.475 20.2879 298.995 20.7622C298.516 21.2365 298.26 21.7941 298.26 22.3645C298.26 23.1294 298.72 23.8629 299.538 24.4038C300.357 24.9446 301.467 25.2485 302.625 25.2485Z" fill="#00AEEF"/>
<path d="M304.141 38.912C308.468 38.9116 312.699 38.0634 316.297 36.4748C319.895 34.8861 322.699 32.6282 324.355 29.9867C326.01 27.3452 326.443 24.4386 325.599 21.6345C324.754 18.8305 322.67 16.2549 319.609 14.2334C316.549 12.2119 312.65 10.8353 308.406 10.2776C304.161 9.72 299.761 10.0064 295.763 11.1006C291.765 12.1948 288.348 14.0477 285.943 16.4249C283.539 18.8021 282.256 21.597 282.256 24.456C282.256 26.3546 282.822 28.2345 283.922 29.9885C285.022 31.7425 286.634 33.3363 288.666 34.6786C290.698 36.021 293.111 37.0858 295.766 37.8122C298.421 38.5385 301.267 38.9123 304.141 38.912Z" fill="#00AEEF" stroke="#707070"/>
<path d="M313.354 28.1751C307.163 29.4381 300.54 29.4381 294.35 28.1751L295.621 21.4531H312.075C313.39 28.3941 313.207 27.4141 313.354 28.1751Z" fill="#00AEEF" stroke="white" stroke-width="0.6"/>
<path d="M313.244 27.6161C308.365 28.3574 303.292 28.3358 298.428 27.5531C297.906 27.4681 297.449 27.2593 297.144 26.9663C296.84 26.6733 296.709 26.3167 296.777 25.9641L297.632 21.4541H312.075L313.244 27.6161Z" fill="#00AEEF" stroke="white" stroke-width="0.6"/>
<path d="M320.662 19.4851L303.851 23.3481L287.04 19.4851L303.851 15.6221L320.662 19.4851Z" fill="#00AEEF" stroke="white" stroke-width="0.6"/>
<path d="M317.512 18.761L303.851 21.902L290.19 18.764L303.851 15.625L317.512 18.761Z" fill="#00AEEF" stroke="white" stroke-width="0.6"/>
<path d="M289.963 23.8308V20.3258C289.962 20.2055 290.029 20.0893 290.151 19.9999C290.273 19.9106 290.441 19.8545 290.622 19.8428L302.317 19.0898C302.506 19.0821 302.693 19.123 302.838 19.2041C302.982 19.2852 303.074 19.4001 303.094 19.5248C303.113 19.6496 303.059 19.7745 302.942 19.8734C302.826 19.9724 302.656 20.0377 302.468 20.0558L291.432 20.7658V23.8318C291.432 23.9599 291.355 24.0827 291.218 24.1733C291.08 24.2639 290.894 24.3148 290.701 24.3148C290.507 24.3148 290.321 24.2639 290.184 24.1733C290.046 24.0827 289.969 23.9599 289.969 23.8318L289.963 23.8308Z" fill="#00AEEF" stroke="white" stroke-width="0.6"/>
<path d="M292.156 24.8022V26.7362H289.234V24.8022C289.228 24.6729 289.261 24.5441 289.33 24.4232C289.402 24.3025 289.509 24.1924 289.645 24.0993C289.782 24.0062 289.945 23.9321 290.125 23.8812C290.397 23.8051 290.697 23.7852 290.986 23.8241C291.275 23.863 291.54 23.9589 291.745 24.0992C291.882 24.192 291.989 24.3022 292.06 24.4232C292.129 24.5441 292.162 24.6729 292.156 24.8022Z" fill="#00AEEF" stroke="white" stroke-width="0.6"/>
<path d="M292.156 24.8018V26.2508C291.868 26.2509 291.583 26.2136 291.316 26.1408C291.05 26.068 290.809 25.9613 290.605 25.8268C290.401 25.6923 290.24 25.5326 290.13 25.3568C290.019 25.1808 289.963 24.9922 289.963 24.8018C289.906 24.506 289.951 24.2054 290.095 23.9228C290.317 23.8567 290.561 23.8285 290.804 23.8406C291.048 23.8528 291.282 23.9049 291.487 23.9922C291.692 24.0796 291.861 24.1994 291.978 24.3408C292.094 24.4822 292.156 24.6407 292.156 24.8018Z" fill="#00AEEF" stroke="white" stroke-width="0.6"/>
<path d="M308.332 31.885C307.25 32.485 307.536 32.199 307.03 33.116C305.642 33.28 306.11 33.116 304.976 33.749C303.588 33.416 304.106 33.454 302.706 33.619C301.797 32.904 302.238 33.093 300.85 32.759C300.602 31.837 300.85 32.146 299.892 31.397C300.374 30.523 300.346 30.866 300.088 29.905C301.221 29.277 300.907 29.553 301.39 28.674C302.752 28.524 302.333 28.674 303.444 28.041C304.832 28.374 304.315 28.336 305.715 28.171C306.623 28.886 306.182 28.697 307.571 29.031C307.819 29.953 307.571 29.644 308.529 30.393C308.047 31.267 308.076 30.921 308.332 31.885Z" fill="#00AEEF" stroke="white" stroke-width="0.6"/>
<path d="M344.246 60L344.246 121" stroke="white"/>
<path d="M344.246 60L344.246 121" stroke="white"/>
<path d="M256.275 11.5625H90.2461V39.1525H256.275V11.5625Z" fill="#00AEEF"/>
<text fill="#FEFEFE" xml:space="preserve" style="white-space: pre" font-family="Harmattan" font-size="20" font-weight="bold" letter-spacing="0.11em"><tspan x="105.246" y="29.1162">&#x627;&#x644;&#x634;&#x647;&#x627;&#x62f;&#x629; &#x627;&#x644;&#x62c;&#x627;&#x645;&#x639;&#x64a;&#x629;</tspan></text>
<path d="M216.248 62H131.244C127.379 62 124.246 65.1078 124.246 68.9414V73.0586C124.246 76.8922 127.379 80 131.244 80H216.248C220.113 80 223.246 76.8922 223.246 73.0586V68.9414C223.246 65.1078 220.113 62 216.248 62Z" fill="#A6DBEC"/>
<path d="M190.1 136H150.9C147.089 136 144 139.652 144 144.156V144.844C144 149.348 147.089 153 150.9 153H190.1C193.911 153 197 149.348 197 144.844V144.156C197 139.652 193.911 136 190.1 136Z" fill="#A6DBEC"/>
<path d="M200.107 239H151.385C147.443 239 144.246 242.007 144.246 245.717V246.283C144.246 249.993 147.443 253 151.385 253H200.107C204.05 253 207.246 249.993 207.246 246.283V245.717C207.246 242.007 204.05 239 200.107 239Z" fill="#A6DBEC"/>
<path d="M206.282 293H142.21C138.364 293 135.246 296.866 135.246 301.636V302.364C135.246 307.134 138.364 311 142.21 311H206.282C210.128 311 213.246 307.134 213.246 302.364V301.636C213.246 296.866 210.128 293 206.282 293Z" fill="#A6DBEC"/>
<text fill="black" xml:space="preserve" style="white-space: pre" font-family="Harmattan" font-size="13" font-weight="bold" letter-spacing="0em"><tspan x="154.364" y="213.676">&#x62e;&#x631;&#x64a;&#x62c;2024 </tspan></text>
<text fill="black" xml:space="preserve" style="white-space: pre" font-family="Harmattan" font-size="5.2" font-weight="bold" letter-spacing="0em"><tspan x="105.246" y="192.37">&#x628;&#x643;&#x627;&#x644;&#x648;&#x631;&#x64a;&#x648;&#x633; &#x627;&#x644;&#x62a;&#x631;&#x628;&#x64a;&#x629; &#x627;&#x644;&#x646;&#x648;&#x639;&#x64a;&#x629; &#x62c;&#x627;&#x645;&#x639;&#x629; &#x627;&#x644;&#x645;&#x646;&#x635;&#x648;&#x631;&#x629; &#x628;&#x642;&#x633;&#x645; &#x2018;&#x2018;&#x625;&#x639;&#x62f;&#x627;&#x62f; &#x645;&#x639;&#x644;&#x645; &#x627;&#x644;&#x62d;&#x627;&#x633;&#x628; &#x627;&#x644;&#x623;&#x644;&#x64a;2024</tspan></text>
<text fill="black" xml:space="preserve" style="white-space: pre" font-family="Almarai" font-size="13" letter-spacing="0em"><tspan x="125.246" y="113.011">&#x643;&#x644;&#x64a;&#x629; &#x627;&#x644;&#x62a;&#x631;&#x628;&#x64a;&#x629; &#x627;&#x644;&#x646;&#x648;&#x639;&#x64a;&#x629;</tspan></text>
<text fill="black" xml:space="preserve" style="white-space: pre" font-family="Almarai" font-size="13" font-weight="bold" letter-spacing="0em"><tspan x="129.246" y="72.011">&#x62c;&#x627;&#x645;&#x639;&#x629; &#x627;&#x644;&#x645;&#x646;&#x635;&#x648;&#x631;&#x629;</tspan></text>
<text fill="black" xml:space="preserve" style="white-space: pre" font-family="Almarai" font-size="13" font-weight="bold" letter-spacing="0em"><tspan x="154.875" y="148.011">&#x628;&#x642;&#x633;&#x645;</tspan></text>
<text fill="black" xml:space="preserve" style="white-space: pre" font-family="Harmattan" font-size="13" font-weight="bold" letter-spacing="0em"><tspan x="156" y="247.676">&#x628;&#x62a;&#x642;&#x62f;&#x64a;&#x631; &#x639;&#x627;&#x645;</tspan></text>
<text fill="black" xml:space="preserve" style="white-space: pre" font-family="Harmattan" font-size="13" font-weight="bold" letter-spacing="0em"><tspan x="147" y="304.676">&#x645;&#x634;&#x631;&#x648;&#x639; &#x627;&#x644;&#x62a;&#x62e;&#x631;&#x62c;</tspan></text>
<text fill="black" xml:space="preserve" style="white-space: pre" font-family="Harmattan" font-size="14" font-weight="500" letter-spacing="0em"><tspan x="113" y="182.881">&#x627;&#x644;&#x62d;&#x627;&#x633;&#x628; &#x627;&#x644;&#x623;&#x644;&#x64a; &#x627;&#x644;&#x627;&#x626;&#x62d;&#x629; &#x627;&#x644;&#x62c;&#x62f;&#x64a;&#x62f;&#x629;</tspan></text>
<text fill="black" xml:space="preserve" style="white-space: pre" font-family="Harmattan" font-size="13" font-weight="500" letter-spacing="0em"><tspan x="120" y="273.676">&#x62c;&#x64a;&#x62f; &#x62c;&#x62f;&#x627; &#x645;&#x639; &#x645;&#x631;&#x62a;&#x628;&#x629; &#x627;&#x644;&#x634;&#x631;&#x641;</tspan></text>
<text fill="black" xml:space="preserve" style="white-space: pre" font-family="Harmattan" font-size="13" font-weight="500" letter-spacing="0em"><tspan x="109" y="332.176">&#x62d;&#x627;&#x635;&#x644; &#x639;&#x644;&#x64a; 96% &#x641;&#x64a; &#x645;&#x634;&#x631;&#x648;&#x639; &#x627;&#x644;&#x62a;&#x62e;&#x631;&#x62c;</tspan></text>
<path d="M105.246 194H242.246H105.246Z" fill="black"/>
<path d="M105.246 194H242.246" stroke="#3B1919" stroke-width="0.1"/>
<path d="M105.246 188H242.246H105.246Z" fill="black"/>
<path d="M105.246 188H242.246" stroke="#3B1919" stroke-width="0.1"/>
<path d="M1.24609 60L1.24607 121" stroke="white"/>
<path d="M235.241 362.364C235.185 362.11 234.938 361.952 234.708 362.013C234.572 362.074 234.467 362.162 234.408 362.264C234.35 362.366 234.34 362.477 234.38 362.583L234.422 362.771L234.853 362.661L234.427 362.775C234.442 362.852 234.48 362.926 234.539 362.993C234.579 363.045 234.632 363.103 234.69 363.171C234.914 363.405 235.113 363.649 235.285 363.902C235.415 364.124 235.687 364.191 235.89 364.052C235.998 363.961 236.068 363.853 236.092 363.738C236.116 363.624 236.095 363.507 236.031 363.4C235.83 363.092 235.592 362.794 235.321 362.51C235.28 362.465 235.274 362.487 235.265 362.48L235.241 362.364Z" fill="#FFFFFE"/>
<path d="M233.815 363.758C233.759 364.012 233.513 364.17 233.282 364.109C232.728 363.968 232.957 363.284 233.26 362.953C233.484 362.719 233.683 362.475 233.855 362.222C233.985 362 234.257 361.933 234.46 362.072C234.568 362.164 234.637 362.272 234.661 362.386C234.685 362.501 234.665 362.617 234.601 362.724C234.419 363.034 233.844 363.574 233.809 363.758H233.815Z" fill="#FFFFFE"/>
<path d="M195.174 356.808H172.12C170.384 356.808 168.976 357.761 168.976 358.937V371.711C168.976 372.886 170.384 373.84 172.12 373.84H195.174C196.911 373.84 198.318 372.886 198.318 371.711V358.937C198.318 357.761 196.911 356.808 195.174 356.808Z" fill="#29B71C"/>
<path d="M193.078 371.001H174.216C173.938 371.001 173.671 370.927 173.475 370.793C173.278 370.66 173.168 370.48 173.168 370.292C173.168 370.103 173.278 369.923 173.475 369.79C173.671 369.657 173.938 369.582 174.216 369.582H193.078C193.356 369.582 193.623 369.657 193.819 369.79C194.016 369.923 194.126 370.103 194.126 370.292C194.126 370.48 194.016 370.66 193.819 370.793C193.623 370.927 193.356 371.001 193.078 371.001Z" fill="#EEEEEE"/>
<path d="M186.791 371.711C186.513 371.711 186.247 371.636 186.05 371.503C185.854 371.37 185.743 371.189 185.743 371.001V369.582C185.743 369.394 185.854 369.213 186.05 369.08C186.247 368.947 186.513 368.872 186.791 368.872C187.069 368.872 187.336 368.947 187.532 369.08C187.729 369.213 187.839 369.394 187.839 369.582V371.001C187.839 371.189 187.729 371.37 187.532 371.503C187.336 371.636 187.069 371.711 186.791 371.711Z" fill="#00AEEF"/>
<path d="M188.311 362.96L180.975 360.476C180.816 360.422 180.639 360.396 180.46 360.401C180.281 360.406 180.108 360.442 179.956 360.505C179.803 360.569 179.678 360.657 179.59 360.763C179.503 360.868 179.456 360.987 179.456 361.108V366.7C179.457 366.827 179.509 366.95 179.604 367.059C179.7 367.168 179.837 367.257 180.001 367.317C180.153 367.379 180.327 367.411 180.504 367.41C180.7 367.41 180.893 367.373 181.059 367.303L188.395 364.195C188.554 364.128 188.683 364.033 188.77 363.921C188.856 363.809 188.897 363.683 188.887 363.556C188.877 363.431 188.819 363.31 188.718 363.206C188.616 363.101 188.476 363.016 188.311 362.96Z" fill="#EEEEEE"/>
<path d="M172.12 356.808C171.286 356.808 170.486 357.032 169.897 357.431C169.307 357.83 168.976 358.372 168.976 358.937V371.711C168.976 372.275 169.307 372.817 169.897 373.216C170.486 373.615 171.286 373.84 172.12 373.84H183.647V356.808H172.12Z" fill="#E53935"/>
<path d="M174.216 369.582C173.938 369.582 173.671 369.657 173.475 369.79C173.278 369.923 173.168 370.103 173.168 370.292C173.168 370.48 173.278 370.66 173.475 370.793C173.671 370.927 173.938 371.001 174.216 371.001H183.647V369.582H174.216Z" fill="#FAFAFA"/>
<path d="M180.975 360.476C180.816 360.422 180.639 360.396 180.46 360.401C180.281 360.406 180.108 360.442 179.956 360.505C179.803 360.569 179.678 360.657 179.59 360.763C179.503 360.868 179.456 360.987 179.456 361.108V366.7C179.457 366.827 179.509 366.95 179.604 367.059C179.7 367.168 179.837 367.257 180.001 367.317C180.153 367.379 180.327 367.411 180.504 367.41C180.7 367.41 180.893 367.373 181.059 367.303L183.648 366.203V361.378L180.975 360.476Z" fill="#00AEEF"/>
<path d="M229.128 359.231H232.551L227.661 356V358.262C227.661 358.797 228.318 359.231 229.128 359.231Z" fill="#00AEEF"/>
<path d="M227.128 357.615H206.877V363.269H227.128C227.422 363.269 227.661 363.128 227.661 362.955V357.929C227.661 357.756 227.422 357.615 227.128 357.615Z" fill="#C6CACF"/>
<path d="M225.918 363.269H203.731C203.267 363.269 203.035 362.883 203.363 362.656L207.162 360.038L203.363 357.42C203.035 357.194 203.267 356.808 203.731 356.808H225.918C226.205 356.808 226.438 356.968 226.438 357.167V362.91C226.439 363.108 226.205 363.269 225.918 363.269Z" fill="#00AEEF"/>
<path d="M214.89 358.93H212.872C212.593 358.93 212.367 359.079 212.367 359.263V361.263C212.367 361.447 212.593 361.597 212.872 361.597C213.151 361.597 213.377 361.447 213.377 361.263V360.596H214.89C215.169 360.596 215.395 360.447 215.395 360.263V359.263C215.395 359.079 215.169 358.93 214.89 358.93ZM214.386 359.93H213.377V359.596H214.386V359.93Z" fill="white"/>
<path d="M217.413 358.93H216.404C216.125 358.93 215.899 359.079 215.899 359.263V361.263C215.899 361.447 216.125 361.597 216.404 361.597H218.422C218.701 361.597 218.927 361.447 218.927 361.263V359.93C218.927 359.378 218.248 358.93 217.413 358.93ZM217.918 360.93H216.909V359.596H217.413C217.691 359.596 217.918 359.746 217.918 359.93L217.918 360.93Z" fill="white"/>
<path d="M221.955 358.93H219.936C219.658 358.93 219.432 359.079 219.432 359.263V361.263C219.432 361.447 219.658 361.597 219.936 361.597C220.215 361.597 220.441 361.447 220.441 361.263V360.596H221.45C221.729 360.596 221.955 360.447 221.955 360.263C221.955 360.079 221.729 359.93 221.45 359.93H220.441V359.596H221.955C222.233 359.596 222.459 359.447 222.459 359.263C222.459 359.079 222.233 358.93 221.955 358.93Z" fill="white"/>
<path d="M227.164 374.577H212.264C211.99 374.577 211.767 374.42 211.767 374.227V364.427C211.767 364.234 211.99 364.077 212.264 364.077H227.164C227.439 364.077 227.661 364.234 227.661 364.427V374.227C227.661 374.42 227.439 374.577 227.164 374.577Z" fill="#C6CACF"/>
<path d="M212.761 373.877V364.077H212.264C211.99 364.077 211.767 364.234 211.767 364.427V374.227C211.767 374.42 211.99 374.577 212.264 374.577H227.164C227.439 374.577 227.661 374.42 227.661 374.227V373.877H212.761Z" fill="#00AEEF"/>
<path d="M225.968 372.961H220.796C220.536 372.961 220.325 372.806 220.325 372.615V368.461C220.325 368.27 220.536 368.115 220.796 368.115H225.968C226.228 368.115 226.438 368.27 226.438 368.461V372.615C226.438 372.806 226.228 372.961 225.968 372.961Z" fill="black"/>
<path d="M225.216 368.923H221.548V372.154H225.216V368.923Z" fill="#00AEEF"/>
<path d="M225.992 366.263H220.441C220.162 366.263 219.937 366.114 219.937 365.93C219.937 365.746 220.162 365.597 220.441 365.597H225.992C226.27 365.597 226.496 365.746 226.496 365.93C226.496 366.114 226.27 366.263 225.992 366.263Z" fill="#EF0000"/>
<path d="M225.992 367.596H220.441C220.162 367.596 219.937 367.447 219.937 367.263C219.937 367.079 220.162 366.93 220.441 366.93H225.992C226.27 366.93 226.496 367.079 226.496 367.263C226.496 367.447 226.27 367.596 225.992 367.596Z" fill="#EF0000"/>
<path d="M218.927 366.263H213.881C213.602 366.263 213.376 366.114 213.376 365.93C213.376 365.746 213.602 365.597 213.881 365.597H218.927C219.206 365.597 219.431 365.746 219.431 365.93C219.431 366.114 219.206 366.263 218.927 366.263Z" fill="#EF0000"/>
<path d="M218.927 367.596H213.881C213.602 367.596 213.376 367.447 213.376 367.263C213.376 367.079 213.602 366.93 213.881 366.93H218.927C219.205 366.93 219.431 367.079 219.431 367.263C219.431 367.447 219.205 367.596 218.927 367.596Z" fill="#EF0000"/>
<path d="M218.927 368.93H213.881C213.602 368.93 213.376 368.781 213.376 368.597C213.376 368.413 213.602 368.264 213.881 368.264H218.927C219.205 368.264 219.431 368.413 219.431 368.597C219.431 368.781 219.205 368.93 218.927 368.93Z" fill="#EF0000"/>
<path d="M218.927 370.263H213.881C213.602 370.263 213.376 370.114 213.376 369.93C213.376 369.746 213.602 369.597 213.881 369.597H218.927C219.205 369.597 219.431 369.746 219.431 369.93C219.431 370.114 219.205 370.263 218.927 370.263Z" fill="#EF0000"/>
<path d="M218.927 371.597H213.881C213.602 371.597 213.376 371.448 213.376 371.264C213.376 371.08 213.602 370.931 213.881 370.931H218.927C219.205 370.931 219.431 371.08 219.431 371.264C219.431 371.448 219.205 371.597 218.927 371.597Z" fill="#EF0000"/>
<path d="M218.927 372.93H213.881C213.602 372.93 213.376 372.781 213.376 372.597C213.376 372.413 213.602 372.264 213.881 372.264H218.927C219.205 372.264 219.431 372.413 219.431 372.597C219.431 372.781 219.205 372.93 218.927 372.93Z" fill="#EF0000"/>
<path d="M137.189 374.173V376.193H165.308V374.173L151.313 372.962L137.189 374.173Z" fill="#EEEEEE"/>
<path d="M137.189 372.557V374.576H165.308V372.557L151.313 371.346L137.189 372.557Z" fill="#DCDCDC"/>
<path d="M165.309 357.615V372.154H163.475L159.196 364.884L163.475 357.615H165.309Z" fill="#EEEEEE"/>
<path d="M164.086 357.615V358.844L159.656 364.884L164.086 370.925V372.154H137.189V357.615H164.086Z" fill="white"/>
<path d="M138.412 358.423V367.637L151.249 368.923L164.086 367.637V358.423H138.412Z" fill="#29B71C"/>
<path d="M151.86 360.038V363.269C152.535 363.269 153.083 362.546 153.083 361.653C153.083 360.761 152.535 360.038 151.86 360.038Z" fill="#FE5F1A"/>
<path d="M151.371 360.038C151.641 360.038 151.86 360.761 151.86 361.653C151.86 362.546 151.641 363.269 151.371 363.269C150.291 363.269 149.415 362.546 149.415 361.653C149.415 360.761 150.291 360.038 151.371 360.038Z" fill="#00AEEF"/>
<path d="M164.086 369.731L156.751 365.692L162.204 366.337L164.086 367.639L164.086 369.731Z" fill="#027372"/>
<path d="M161.12 366.568L157.632 364.885L153.138 366.568L150.637 368.23L156.406 371.346H164.086V369.108L161.12 366.568Z" fill="#E53935"/>
<path d="M162.863 366.443L161.838 366.5L157.973 365.305V363.27L162.863 366.443Z" fill="#EEEEEE"/>
<path d="M153.082 366.5L157.212 363.27L160.418 366.5L153.082 366.5Z" fill="white"/>
<path d="M155.528 371.346H153.292L144.524 365.692L149.38 366.364L155.528 371.346Z" fill="#027372"/>
<path d="M147.809 366.568L153.083 371.346H138.412V367.871L140.265 366.568L144.512 364.885L147.809 366.568Z" fill="#00AEEF"/>
<path d="M149.415 366.443L148.39 366.5L144.524 365.305V363.27L149.415 366.443Z" fill="#EEEEEE"/>
<path d="M139.634 366.5L144.452 363.27L148.193 366.5L139.634 366.5Z" fill="white"/>
<path d="M166.043 375.385C165.774 375.385 165.556 375.54 165.556 375.731V376.308H136.942V375.731C136.942 375.54 136.723 375.385 136.454 375.385C136.184 375.385 135.966 375.54 135.966 375.731V376.654C135.966 376.845 136.184 377 136.454 377H166.043C166.313 377 166.531 376.845 166.531 376.654V375.731C166.531 375.54 166.313 375.385 166.043 375.385Z" fill="#00AEEF"/>
<path d="M166.043 372.962C165.774 372.962 165.556 373.117 165.556 373.308V373.885H136.942V373.308C136.942 373.117 136.723 372.962 136.454 372.962C136.184 372.962 135.966 373.117 135.966 373.308V374.231C135.966 374.422 136.184 374.577 136.454 374.577H166.043C166.313 374.577 166.531 374.422 166.531 374.231V373.308C166.531 373.117 166.313 372.962 166.043 372.962Z" fill="#00AEEF"/>
<path d="M166.043 356.808H136.454C136.184 356.808 135.966 356.954 135.966 357.135V372.634C135.966 372.815 136.184 372.961 136.454 372.961H166.043C166.313 372.961 166.531 372.815 166.531 372.634V357.135C166.531 356.954 166.313 356.808 166.043 356.808ZM165.556 372.307H136.942V357.462H165.556V372.307Z" fill="#00AEEF"/>
<path d="M154.305 361.653C154.305 360.763 152.934 360.038 151.249 360.038C149.564 360.038 148.193 360.763 148.193 361.653C148.193 362.544 149.564 363.269 151.249 363.269C152.934 363.269 154.305 362.544 154.305 361.653ZM149.158 361.653C149.158 361.044 150.096 360.548 151.249 360.548C152.402 360.548 153.34 361.044 153.34 361.653C153.34 362.263 152.402 362.759 151.249 362.759C150.096 362.759 149.158 362.263 149.158 361.653Z" fill="black"/>
<path d="M137.189 371.014C137.189 371.197 137.419 371.346 137.703 371.346H164.794C165.078 371.346 165.308 371.197 165.308 371.014V357.947C165.308 357.764 165.078 357.615 164.794 357.615H137.703C137.419 357.615 137.189 357.764 137.189 357.947V360.605C137.189 360.788 137.419 360.937 137.703 360.937C137.987 360.937 138.217 360.788 138.217 360.605V358.28H164.28V366.668L158.385 362.862C158.184 362.732 157.858 362.732 157.658 362.862L151.249 367.001L144.839 362.862C144.638 362.732 144.313 362.732 144.112 362.862L138.217 366.668V361.934C138.217 361.75 137.987 361.602 137.703 361.602C137.419 361.602 137.189 361.75 137.189 361.934V371.014ZM158.021 363.566L161.495 365.809H154.548L158.021 363.566ZM144.476 363.566L147.949 365.809H141.002L144.476 363.566ZM139.974 366.474H148.978L150.884 367.705C150.886 367.706 154.314 369.92 154.314 369.92C154.415 369.985 154.546 370.017 154.678 370.017C154.81 370.017 154.941 369.985 155.042 369.92C155.243 369.79 155.243 369.58 155.042 369.45L151.976 367.47L153.519 366.474H162.524L164.28 367.608V370.682H138.217V367.608L139.974 366.474Z" fill="black"/>
<path fill-rule="evenodd" clip-rule="evenodd" d="M122.6 360.064C122.762 360.064 122.896 360.207 122.896 360.38V366.317H122.305V360.38C122.305 360.204 122.437 360.064 122.6 360.064Z" fill="#FFFFFE"/>
<g filter="url(#filter0_d_0_1)">
<mask id="path-83-inside-1_0_1" fill="white">
<path d="M316.246 353H60.2461H316.246Z"/>
</mask>
<path d="M316.246 353H60.2461H316.246Z" fill="#231F20"/>
<path d="M316.246 353H60.2461H316.246Z" stroke="black" stroke-width="0.6" mask="url(#path-83-inside-1_0_1)"/>
</g>
<defs>
<filter id="filter0_d_0_1" x="56.2461" y="352.7" width="264" height="8.59961" filterUnits="userSpaceOnUse" color-interpolation-filters="sRGB">
<feFlood flood-opacity="0" result="BackgroundImageFix"/>
<feColorMatrix in="SourceAlpha" type="matrix" values="0 0 0 0 0 0 0 0 0 0 0 0 0 0 0 0 0 0 127 0" result="hardAlpha"/>
<feOffset dy="4"/>
<feGaussianBlur stdDeviation="2"/>
<feComposite in2="hardAlpha" operator="out"/>
<feColorMatrix type="matrix" values="0 0 0 0 0 0 0 0 0 0 0 0 0 0 0 0 0 0 0.25 0"/>
<feBlend mode="normal" in2="BackgroundImageFix" result="effect1_dropShadow_0_1"/>
<feBlend mode="normal" in="SourceGraphic" in2="effect1_dropShadow_0_1" result="shape"/>
</filter>
</defs>
</svg>
