<svg width="809" height="362" viewBox="0 0 809 362" fill="none" xmlns="http://www.w3.org/2000/svg">
<path d="M745.449 0.958984L742.613 3.77469L740.44 2.6956L739.187 3.79649L743.127 5.75573L747.187 1.7254L745.449 0.958984Z" fill="white"/>
<path d="M730.625 24.222C731.489 24.222 732.333 24.0597 733.051 23.7557C733.768 23.4517 734.328 23.0196 734.658 22.514C734.989 22.0085 735.075 21.4522 734.907 20.9155C734.738 20.3788 734.323 19.8858 733.712 19.4988C733.102 19.1119 732.324 18.8484 731.477 18.7416C730.63 18.6349 729.752 18.6897 728.955 18.8991C728.157 19.1085 727.475 19.4631 726.995 19.9181C726.516 20.3731 726.26 20.908 726.26 21.4552C726.26 22.189 726.72 22.8928 727.538 23.4116C728.357 23.9305 729.467 24.222 730.625 24.222Z" fill="#00AEEF"/>
<path d="M732.141 37.3305C736.468 37.3301 740.699 36.5164 744.297 34.9923C747.895 33.4682 750.699 31.3021 752.355 28.768C754.01 26.2338 754.443 23.4454 753.599 20.7553C752.754 18.0653 750.67 15.5944 747.609 13.655C744.549 11.7157 740.65 10.3951 736.406 9.86009C732.161 9.32513 727.761 9.59989 723.763 10.6496C719.765 11.6993 716.348 13.4769 713.943 15.7575C711.539 18.0381 710.256 20.7193 710.256 23.4621C710.256 25.2835 710.822 27.087 711.922 28.7697C713.022 30.4525 714.634 31.9814 716.666 33.2692C718.698 34.557 721.111 35.5785 723.766 36.2753C726.421 36.9722 729.267 37.3307 732.141 37.3305Z" fill="#00AEEF" stroke="#707070"/>
<path d="M741.354 27.0298C735.163 28.2415 728.54 28.2415 722.35 27.0298L723.621 20.5811H740.075C741.39 27.2399 741.207 26.2997 741.354 27.0298Z" fill="#00AEEF" stroke="white" stroke-width="0.6"/>
<path d="M741.244 26.4935C736.365 27.2047 731.292 27.184 726.428 26.4331C725.906 26.3516 725.449 26.1512 725.144 25.8702C724.84 25.5891 724.709 25.2469 724.777 24.9087L725.632 20.582H740.075L741.244 26.4935Z" fill="#00AEEF" stroke="white" stroke-width="0.6"/>
<path d="M748.662 18.6933L731.851 22.3992L715.04 18.6933L731.851 14.9873L748.662 18.6933Z" fill="#00AEEF" stroke="white" stroke-width="0.6"/>
<path d="M745.512 17.9987L731.851 21.0121L718.19 18.0016L731.851 14.9902L745.512 17.9987Z" fill="#00AEEF" stroke="white" stroke-width="0.6"/>
<path d="M717.963 22.8617V19.4991C717.962 19.3838 718.029 19.2723 718.151 19.1865C718.273 19.1008 718.441 19.047 718.622 19.0358L730.317 18.3134C730.506 18.306 730.693 18.3453 730.838 18.423C730.982 18.5008 731.074 18.6111 731.094 18.7307C731.113 18.8504 731.059 18.9702 730.942 19.0651C730.826 19.1601 730.656 19.2228 730.468 19.2401L719.432 19.9213V22.8626C719.432 22.9855 719.355 23.1034 719.218 23.1903C719.08 23.2772 718.894 23.326 718.701 23.326C718.507 23.326 718.321 23.2772 718.184 23.1903C718.046 23.1034 717.969 22.9855 717.969 22.8626L717.963 22.8617Z" fill="#00AEEF" stroke="white" stroke-width="0.6"/>
<path d="M720.156 23.7939V25.6493H717.234V23.7939C717.228 23.6698 717.261 23.5463 717.33 23.4303C717.402 23.3145 717.509 23.2088 717.645 23.1196C717.782 23.0303 717.945 22.9591 718.125 22.9103C718.397 22.8373 718.697 22.8182 718.986 22.8555C719.275 22.8929 719.54 22.9849 719.745 23.1195C719.882 23.2085 719.989 23.3142 720.06 23.4303C720.129 23.5463 720.162 23.6698 720.156 23.7939Z" fill="#00AEEF" stroke="white" stroke-width="0.6"/>
<path d="M720.156 23.7939V25.184C719.868 25.1841 719.583 25.1482 719.316 25.0784C719.05 25.0086 718.809 24.9063 718.605 24.7772C718.401 24.6482 718.24 24.4949 718.13 24.3263C718.019 24.1575 717.963 23.9765 717.963 23.7939C717.906 23.5101 717.951 23.2217 718.095 22.9506C718.317 22.8872 718.561 22.8601 718.804 22.8718C719.048 22.8834 719.282 22.9334 719.487 23.0172C719.692 23.101 719.861 23.216 719.978 23.3516C720.094 23.4873 720.156 23.6393 720.156 23.7939Z" fill="#00AEEF" stroke="white" stroke-width="0.6"/>
<path d="M736.332 30.5891C735.25 31.1647 735.536 30.8903 735.03 31.7701C733.642 31.9274 734.11 31.7701 732.976 32.3773C731.588 32.0579 732.106 32.0943 730.706 32.2526C729.797 31.5667 730.238 31.748 728.85 31.4276C728.602 30.543 728.85 30.8395 727.892 30.1209C728.374 29.2825 728.346 29.6115 728.088 28.6896C729.221 28.0871 728.907 28.3519 729.39 27.5086C730.752 27.3647 730.333 27.5086 731.444 26.9014C732.832 27.2208 732.315 27.1844 733.715 27.0261C734.623 27.712 734.182 27.5307 735.571 27.8511C735.819 28.7356 735.571 28.4392 736.529 29.1577C736.047 29.9962 736.076 29.6643 736.332 30.5891Z" fill="#00AEEF" stroke="white" stroke-width="0.6"/>
<path d="M772.246 57.5605L772.246 116.081" stroke="white"/>
<path d="M772.246 57.5605L772.246 116.081" stroke="white"/>
<path d="M684.275 11.0928H518.246V37.5612H684.275V11.0928Z" fill="#00AEEF"/>
<text fill="#FEFEFE" xml:space="preserve" style="white-space: pre" font-family="Harmattan" font-size="20" font-weight="bold" letter-spacing="0.11em"><tspan x="533.246" y="28.791">&#x627;&#x644;&#x634;&#x647;&#x627;&#x62f;&#x629; &#x627;&#x644;&#x62c;&#x627;&#x645;&#x639;&#x64a;&#x629;</tspan></text>
<path d="M644.248 59.4795H559.244C555.379 59.4795 552.246 62.4609 552.246 66.1387V70.0886C552.246 73.7664 555.379 76.7478 559.244 76.7478H644.248C648.113 76.7478 651.246 73.7664 651.246 70.0886V66.1387C651.246 62.4609 648.113 59.4795 644.248 59.4795Z" fill="#A6DBEC"/>
<path d="M618.1 130.472H578.9C575.089 130.472 572 133.975 572 138.296V138.956C572 143.277 575.089 146.781 578.9 146.781H618.1C621.911 146.781 625 143.277 625 138.956V138.296C625 133.975 621.911 130.472 618.1 130.472Z" fill="#A6DBEC"/>
<path d="M628.107 229.284H579.385C575.443 229.284 572.246 232.169 572.246 235.728V236.271C572.246 239.83 575.443 242.715 579.385 242.715H628.107C632.05 242.715 635.246 239.83 635.246 236.271V235.728C635.246 232.169 632.05 229.284 628.107 229.284Z" fill="#A6DBEC"/>
<path d="M634.282 281.09H570.21C566.364 281.09 563.246 284.799 563.246 289.375V290.073C563.246 294.649 566.364 298.358 570.21 298.358H634.282C638.128 298.358 641.246 294.649 641.246 290.073V289.375C641.246 284.799 638.128 281.09 634.282 281.09Z" fill="#A6DBEC"/>
<text fill="black" xml:space="preserve" style="white-space: pre" font-family="Harmattan" font-size="5.2" font-weight="bold" letter-spacing="0em"><tspan x="533.246" y="184.776">&#x628;&#x643;&#x627;&#x644;&#x648;&#x631;&#x64a;&#x648;&#x633; &#x627;&#x644;&#x62a;&#x631;&#x628;&#x64a;&#x629; &#x627;&#x644;&#x646;&#x648;&#x639;&#x64a;&#x629; &#x62c;&#x627;&#x645;&#x639;&#x629; &#x627;&#x644;&#x645;&#x646;&#x635;&#x648;&#x631;&#x629; &#x628;&#x642;&#x633;&#x645; &#x2018;&#x2018;&#x625;&#x639;&#x62f;&#x627;&#x62f; &#x645;&#x639;&#x644;&#x645; &#x627;&#x644;&#x62d;&#x627;&#x633;&#x628; &#x627;&#x644;&#x623;&#x644;&#x64a;</tspan></text>
<text fill="black" xml:space="preserve" style="white-space: pre" font-family="Almarai" font-size="13" letter-spacing="0em"><tspan x="553.246" y="108.906">&#x643;&#x644;&#x64a;&#x629; &#x627;&#x644;&#x62a;&#x631;&#x628;&#x64a;&#x629; &#x627;&#x644;&#x646;&#x648;&#x639;&#x64a;&#x629;</tspan></text>
<text fill="black" xml:space="preserve" style="white-space: pre" font-family="Almarai" font-size="13" font-weight="bold" letter-spacing="0em"><tspan x="557.246" y="69.5715">&#x62c;&#x627;&#x645;&#x639;&#x629; &#x627;&#x644;&#x645;&#x646;&#x635;&#x648;&#x631;&#x629;</tspan></text>
<text fill="black" xml:space="preserve" style="white-space: pre" font-family="Almarai" font-size="13" font-weight="bold" letter-spacing="0em"><tspan x="582.875" y="142.483">&#x628;&#x642;&#x633;&#x645;</tspan></text>
<text fill="black" xml:space="preserve" style="white-space: pre" font-family="Harmattan" font-size="13" font-weight="bold" letter-spacing="0em"><tspan x="584" y="238.164">&#x628;&#x62a;&#x642;&#x62f;&#x64a;&#x631; &#x639;&#x627;&#x645;</tspan></text>
<text fill="black" xml:space="preserve" style="white-space: pre" font-family="Harmattan" font-size="13" font-weight="bold" letter-spacing="0em"><tspan x="575" y="292.846">&#x645;&#x634;&#x631;&#x648;&#x639; &#x627;&#x644;&#x62a;&#x62e;&#x631;&#x62c;</tspan></text>
<text fill="black" xml:space="preserve" style="white-space: pre" font-family="Harmattan" font-size="14" font-weight="500" letter-spacing="0em"><tspan x="541" y="176.052">&#x627;&#x644;&#x62d;&#x627;&#x633;&#x628; &#x627;&#x644;&#x623;&#x644;&#x64a; &#x627;&#x644;&#x627;&#x626;&#x62d;&#x629; &#x627;&#x644;&#x62c;&#x62f;&#x64a;&#x62f;&#x629;</tspan></text>
<text fill="black" xml:space="preserve" style="white-space: pre" font-family="Harmattan" font-size="13" font-weight="500" letter-spacing="0em"><tspan x="548" y="263.106">&#x62c;&#x64a;&#x62f; &#x62c;&#x62f;&#x627; &#x645;&#x639; &#x645;&#x631;&#x62a;&#x628;&#x629; &#x627;&#x644;&#x634;&#x631;&#x641;</tspan></text>
<text fill="black" xml:space="preserve" style="white-space: pre" font-family="Harmattan" font-size="13" font-weight="500" letter-spacing="0em"><tspan x="537" y="318.781">&#x62d;&#x627;&#x635;&#x644; &#x639;&#x644;&#x64a; 95% &#x641;&#x64a; &#x645;&#x634;&#x631;&#x648;&#x639; &#x627;&#x644;&#x62a;&#x62e;&#x631;&#x62c;</tspan></text>
<path d="M533.246 186.114H670.246H533.246Z" fill="black"/>
<path d="M533.246 186.114H670.246" stroke="#3B1919" stroke-width="0.1"/>
<path d="M533.246 180.357H670.246H533.246Z" fill="black"/>
<path d="M533.246 180.357H670.246" stroke="#3B1919" stroke-width="0.1"/>
<path d="M429.246 57.5605L429.246 116.081" stroke="white"/>
<path d="M663.241 347.633C663.185 347.39 662.938 347.238 662.708 347.297C662.572 347.356 662.467 347.44 662.408 347.537C662.35 347.635 662.34 347.742 662.38 347.844L662.422 348.024L662.853 347.918L662.427 348.028C662.442 348.102 662.48 348.173 662.539 348.237C662.579 348.287 662.632 348.342 662.69 348.408C662.914 348.632 663.113 348.867 663.285 349.109C663.415 349.322 663.687 349.386 663.89 349.253C663.998 349.165 664.068 349.061 664.092 348.952C664.116 348.842 664.095 348.73 664.031 348.627C663.83 348.332 663.592 348.046 663.321 347.774C663.28 347.73 663.274 347.751 663.265 347.745L663.241 347.633Z" fill="#FFFFFE"/>
<path d="M661.815 348.971C661.759 349.215 661.513 349.366 661.282 349.308C660.728 349.173 660.957 348.516 661.26 348.199C661.484 347.974 661.683 347.74 661.855 347.498C661.985 347.285 662.257 347.22 662.46 347.354C662.568 347.441 662.637 347.545 662.661 347.655C662.685 347.764 662.665 347.876 662.601 347.979C662.419 348.277 661.844 348.795 661.809 348.971H661.815Z" fill="#FFFFFE"/>
<g filter="url(#filter0_d_187_1891)">
<mask id="path-36-inside-1_187_1891" fill="white">
<path d="M744.246 338.65H488.246H744.246Z"/>
</mask>
<path d="M744.246 338.65H488.246H744.246Z" fill="#231F20"/>
<path d="M744.246 338.35H488.246V338.95H744.246V338.35ZM488.246 338.95H744.246V338.35H488.246V338.95Z" fill="black" mask="url(#path-36-inside-1_187_1891)"/>
</g>
<path d="M355.449 1L352.613 3.93501L350.44 2.8102L349.187 3.95773L353.127 6L357.187 1.7989L355.449 1Z" fill="white"/>
<path d="M340.625 25.2485C341.489 25.2485 342.333 25.0793 343.051 24.7624C343.768 24.4455 344.328 23.9951 344.658 23.4681C344.989 22.9411 345.075 22.3613 344.907 21.8018C344.738 21.2424 344.323 20.7285 343.712 20.3252C343.102 19.9218 342.324 19.6472 341.477 19.5359C340.63 19.4246 339.752 19.4817 338.955 19.7C338.157 19.9183 337.475 20.2879 336.995 20.7622C336.516 21.2365 336.26 21.7941 336.26 22.3645C336.26 23.1294 336.72 23.8629 337.538 24.4038C338.357 24.9446 339.467 25.2485 340.625 25.2485Z" fill="#00AEEF"/>
<path d="M342.141 38.912C346.468 38.9116 350.699 38.0634 354.297 36.4748C357.895 34.8861 360.699 32.6282 362.355 29.9867C364.01 27.3452 364.443 24.4386 363.599 21.6345C362.754 18.8305 360.67 16.2549 357.609 14.2334C354.549 12.2119 350.65 10.8353 346.406 10.2776C342.161 9.72 337.761 10.0064 333.763 11.1006C329.765 12.1948 326.348 14.0477 323.943 16.4249C321.539 18.8021 320.256 21.597 320.256 24.456C320.256 26.3546 320.822 28.2345 321.922 29.9885C323.022 31.7425 324.634 33.3363 326.666 34.6786C328.698 36.021 331.111 37.0858 333.766 37.8122C336.421 38.5385 339.267 38.9123 342.141 38.912Z" fill="#00AEEF" stroke="#707070"/>
<path d="M351.354 28.1751C345.163 29.4381 338.54 29.4381 332.35 28.1751L333.621 21.4531H350.075C351.39 28.3941 351.207 27.4141 351.354 28.1751Z" fill="#00AEEF" stroke="white" stroke-width="0.6"/>
<path d="M351.244 27.6161C346.365 28.3574 341.292 28.3358 336.428 27.5531C335.906 27.4681 335.449 27.2593 335.144 26.9663C334.84 26.6733 334.709 26.3167 334.777 25.9641L335.632 21.4541H350.075L351.244 27.6161Z" fill="#00AEEF" stroke="white" stroke-width="0.6"/>
<path d="M358.662 19.4851L341.851 23.3481L325.04 19.4851L341.851 15.6221L358.662 19.4851Z" fill="#00AEEF" stroke="white" stroke-width="0.6"/>
<path d="M355.512 18.761L341.851 21.902L328.19 18.764L341.851 15.625L355.512 18.761Z" fill="#00AEEF" stroke="white" stroke-width="0.6"/>
<path d="M327.963 23.8308V20.3258C327.962 20.2055 328.029 20.0893 328.151 19.9999C328.273 19.9106 328.441 19.8545 328.622 19.8428L340.317 19.0898C340.506 19.0821 340.693 19.123 340.838 19.2041C340.982 19.2852 341.074 19.4001 341.094 19.5248C341.113 19.6496 341.059 19.7745 340.942 19.8734C340.826 19.9724 340.656 20.0377 340.468 20.0558L329.432 20.7658V23.8318C329.432 23.9599 329.355 24.0827 329.218 24.1733C329.08 24.2639 328.894 24.3148 328.701 24.3148C328.507 24.3148 328.321 24.2639 328.184 24.1733C328.046 24.0827 327.969 23.9599 327.969 23.8318L327.963 23.8308Z" fill="#00AEEF" stroke="white" stroke-width="0.6"/>
<path d="M330.156 24.8022V26.7362H327.234V24.8022C327.228 24.6729 327.261 24.5441 327.33 24.4232C327.402 24.3025 327.509 24.1924 327.645 24.0993C327.782 24.0062 327.945 23.9321 328.125 23.8812C328.397 23.8051 328.697 23.7852 328.986 23.8241C329.275 23.863 329.54 23.9589 329.745 24.0992C329.882 24.192 329.989 24.3022 330.06 24.4232C330.129 24.5441 330.162 24.6729 330.156 24.8022Z" fill="#00AEEF" stroke="white" stroke-width="0.6"/>
<path d="M330.156 24.8018V26.2508C329.868 26.2509 329.583 26.2136 329.316 26.1408C329.05 26.068 328.809 25.9613 328.605 25.8268C328.401 25.6923 328.24 25.5326 328.13 25.3568C328.019 25.1808 327.963 24.9922 327.963 24.8018C327.906 24.506 327.951 24.2054 328.095 23.9228C328.317 23.8567 328.561 23.8285 328.804 23.8406C329.048 23.8528 329.282 23.9049 329.487 23.9922C329.692 24.0796 329.861 24.1994 329.978 24.3408C330.094 24.4822 330.156 24.6407 330.156 24.8018Z" fill="#00AEEF" stroke="white" stroke-width="0.6"/>
<path d="M346.332 31.885C345.25 32.485 345.536 32.199 345.03 33.116C343.642 33.28 344.11 33.116 342.976 33.749C341.588 33.416 342.106 33.454 340.706 33.619C339.797 32.904 340.238 33.093 338.85 32.759C338.602 31.837 338.85 32.146 337.892 31.397C338.374 30.523 338.346 30.866 338.088 29.905C339.221 29.277 338.907 29.553 339.39 28.674C340.752 28.524 340.333 28.674 341.444 28.041C342.832 28.374 342.315 28.336 343.715 28.171C344.623 28.886 344.182 28.697 345.571 29.031C345.819 29.953 345.571 29.644 346.529 30.393C346.047 31.267 346.076 30.921 346.332 31.885Z" fill="#00AEEF" stroke="white" stroke-width="0.6"/>
<path d="M294.275 11.5625H128.246V39.1525H294.275V11.5625Z" fill="#00AEEF"/>
<text fill="#FEFEFE" xml:space="preserve" style="white-space: pre" font-family="Harmattan" font-size="20" font-weight="bold" letter-spacing="0.11em"><tspan x="129" y="29.1162">University degree</tspan></text>
<path d="M266.023 59H156.977C152.019 59 148 62.1078 148 65.9414V70.0586C148 73.8922 152.019 77 156.977 77H266.023C270.981 77 275 73.8922 275 70.0586V65.9414C275 62.1078 270.981 59 266.023 59Z" fill="#A6DBEC"/>
<path d="M242.934 136H180.066C173.954 136 169 139.652 169 144.156V144.844C169 149.348 173.954 153 180.066 153H242.934C249.046 153 254 149.348 254 144.844V144.156C254 139.652 249.046 136 242.934 136Z" fill="#A6DBEC"/>
<path d="M242.747 239H184.745C180.051 239 176.246 242.007 176.246 245.717V246.283C176.246 249.993 180.051 253 184.745 253H242.747C247.441 253 251.246 249.993 251.246 246.283V245.717C251.246 242.007 247.441 239 242.747 239Z" fill="#A6DBEC"/>
<path d="M256.157 293H163.335C157.763 293 153.246 296.866 153.246 301.636V302.364C153.246 307.134 157.763 311 163.335 311H256.157C261.729 311 266.246 307.134 266.246 302.364V301.636C266.246 296.866 261.729 293 256.157 293Z" fill="#A6DBEC"/>
<text fill="black" xml:space="preserve" style="white-space: pre" font-family="Harmattan" font-size="5.2" font-weight="bold" letter-spacing="0em"><tspan x="112" y="192.37">Bachelor of Specific Education, Mansoura University, Computer Teacher Preparation Department, </tspan></text>
<text fill="black" xml:space="preserve" style="white-space: pre" font-family="Almarai" font-size="13" letter-spacing="0em"><tspan x="129" y="108.011">College of Specific Education</tspan></text>
<text fill="black" xml:space="preserve" style="white-space: pre" font-family="Almarai" font-size="13" letter-spacing="0em"><tspan x="152.246" y="72.011">Mansoura University</tspan></text>
<text fill="black" xml:space="preserve" style="white-space: pre" font-family="Almarai" font-size="13" letter-spacing="0em"><tspan x="178" y="148.011">Department</tspan></text>
<text fill="black" xml:space="preserve" style="white-space: pre" font-family="Harmattan" font-size="13" font-weight="500" letter-spacing="0em"><tspan x="182" y="248.676">general grade</tspan></text>
<text fill="black" xml:space="preserve" style="white-space: pre" font-family="Harmattan" font-size="13" font-weight="500" letter-spacing="0em"><tspan x="166" y="304.676">Graduation Project</tspan></text>
<text fill="black" xml:space="preserve" style="white-space: pre" font-family="Harmattan" font-size="14" font-weight="500" letter-spacing="0em"><tspan x="125" y="182.881">Computer Science, New Regulations</tspan></text>
<text fill="black" xml:space="preserve" style="white-space: pre" font-family="Harmattan" font-size="13" font-weight="500" letter-spacing="0em"><tspan x="158" y="273.676">Very Good with Honors</tspan></text>
<text fill="black" xml:space="preserve" style="white-space: pre" font-family="Harmattan" font-size="13" font-weight="500" letter-spacing="0em"><tspan x="125" y="332.176">Obtained 95% in the graduation project</tspan></text>
<path d="M112.246 194H308.246Z" fill="black"/>
<path d="M112.246 194H308.246" stroke="#3B1919" stroke-width="0.1"/>
<path d="M112.246 188H308.246H112.246Z" fill="black"/>
<path d="M112.246 188H308.246" stroke="#3B1919" stroke-width="0.1"/>
<path d="M273.014 347.343C272.95 347.104 272.668 346.955 272.404 347.012C272.248 347.07 272.128 347.153 272.06 347.249C271.993 347.344 271.982 347.449 272.028 347.549L272.076 347.726L272.57 347.622L272.081 347.73C272.099 347.802 272.142 347.872 272.21 347.935C272.257 347.984 272.317 348.038 272.383 348.102C272.64 348.323 272.867 348.553 273.065 348.791C273.214 349 273.526 349.063 273.758 348.932C273.882 348.846 273.961 348.744 273.989 348.636C274.016 348.529 273.993 348.419 273.92 348.318C273.689 348.028 273.417 347.748 273.106 347.48C273.059 347.438 273.053 347.459 273.042 347.452L273.014 347.343Z" fill="#FFFFFE"/>
<path d="M272.008 348.657C271.943 348.896 271.657 349.045 271.391 348.988C270.749 348.855 271.014 348.21 271.364 347.898C271.624 347.678 271.854 347.448 272.054 347.21C272.205 347 272.52 346.937 272.755 347.068C272.88 347.154 272.961 347.256 272.989 347.364C273.017 347.472 272.992 347.581 272.919 347.683C272.708 347.975 272.041 348.484 272.001 348.657H272.008Z" fill="#FFFFFE"/>
<g filter="url(#filter1_d_187_1891)">
<mask id="path-70-inside-2_187_1891" fill="white">
<path d="M354.246 353H98.2461H354.246Z"/>
</mask>
<path d="M354.246 353H98.2461H354.246Z" fill="#231F20"/>
<path d="M354.246 352.7H98.2461V353.3H354.246V352.7ZM98.2461 353.3H354.246V352.7H98.2461V353.3Z" fill="black" mask="url(#path-70-inside-2_187_1891)"/>
</g>
<rect x="2" y="-2" width="805" height="349" transform="matrix(1 0 0 -1 0 350)" stroke="#01ADED" stroke-width="4"/>
<rect x="408" y="1" width="15" height="350" fill="url(#paint0_linear_187_1891)"/>
<defs>
<filter id="filter0_d_187_1891" x="484.246" y="338.351" width="264" height="8.59961" filterUnits="userSpaceOnUse" color-interpolation-filters="sRGB">
<feFlood flood-opacity="0" result="BackgroundImageFix"/>
<feColorMatrix in="SourceAlpha" type="matrix" values="0 0 0 0 0 0 0 0 0 0 0 0 0 0 0 0 0 0 127 0" result="hardAlpha"/>
<feOffset dy="4"/>
<feGaussianBlur stdDeviation="2"/>
<feComposite in2="hardAlpha" operator="out"/>
<feColorMatrix type="matrix" values="0 0 0 0 0 0 0 0 0 0 0 0 0 0 0 0 0 0 0.25 0"/>
<feBlend mode="normal" in2="BackgroundImageFix" result="effect1_dropShadow_187_1891"/>
<feBlend mode="normal" in="SourceGraphic" in2="effect1_dropShadow_187_1891" result="shape"/>
</filter>
<filter id="filter1_d_187_1891" x="94.2461" y="352.7" width="264" height="8.59961" filterUnits="userSpaceOnUse" color-interpolation-filters="sRGB">
<feFlood flood-opacity="0" result="BackgroundImageFix"/>
<feColorMatrix in="SourceAlpha" type="matrix" values="0 0 0 0 0 0 0 0 0 0 0 0 0 0 0 0 0 0 127 0" result="hardAlpha"/>
<feOffset dy="4"/>
<feGaussianBlur stdDeviation="2"/>
<feComposite in2="hardAlpha" operator="out"/>
<feColorMatrix type="matrix" values="0 0 0 0 0 0 0 0 0 0 0 0 0 0 0 0 0 0 0.25 0"/>
<feBlend mode="normal" in2="BackgroundImageFix" result="effect1_dropShadow_187_1891"/>
<feBlend mode="normal" in="SourceGraphic" in2="effect1_dropShadow_187_1891" result="shape"/>
</filter>
<linearGradient id="paint0_linear_187_1891" x1="423" y1="176" x2="408" y2="176" gradientUnits="userSpaceOnUse">
<stop offset="0.432692" stop-color="#535353"/>
<stop offset="0.475962"/>
<stop offset="0.476062" stop-color="#00B3FF"/>
</linearGradient>
</defs>
</svg>
