<svg width="345" height="865" viewBox="0 0 345 865" fill="none" xmlns="http://www.w3.org/2000/svg">
<rect width="345" height="865" fill="#F5F5F5"/>
<path d="M255.76 14H80.7598V42H255.76V14Z" fill="#00AEEF"/>
<text fill="white" xml:space="preserve" style="white-space: pre" font-family="Harmattan" font-size="20" font-weight="bold" letter-spacing="0em"><tspan x="106.731" y="32.1162">&#x627;&#x644;&#x634;&#x647;&#x627;&#x62f;&#x627;&#x62a; &#x627;&#x644;&#x645;&#x639;&#x62a;&#x645;&#x62f;&#x629;</tspan></text>
<text fill="black" xml:space="preserve" style="white-space: pre" font-family="Harmattan" font-size="20" font-weight="500" letter-spacing="0em"><tspan x="85.9375" y="104.116">&#x645;&#x639;&#x62a;&#x645;&#x62f;&#x629; &#x645;&#x648;&#x62b;&#x642;&#x647; &#x645;&#x646; &#x62c;&#x627;&#x645;&#x639;&#x629; &#x627;&#x644;&#x645;&#x646;&#x635;&#x648;&#x631;&#x629;</tspan></text>
<text fill="#FF0000" xml:space="preserve" style="white-space: pre" font-family="Harmattan" font-size="20" font-weight="500" letter-spacing="0em"><tspan x="41.0234" y="81.1162">&#x628;&#x627;&#x643;&#x644;&#x648;&#x631;&#x64a;&#x648;&#x633; &#x62a;&#x631;&#x628;&#x648;&#x64a; &#x627;&#x639;&#x62f;&#x627;&#x62f; &#x645;&#x639;&#x644;&#x645; &#x62d;&#x627;&#x633;&#x628; &#x623;&#x644;&#x64a; </tspan></text>
<text fill="#F30000" xml:space="preserve" style="white-space: pre" font-family="Harmattan" font-size="20" font-weight="bold" letter-spacing="0em"><tspan x="159.781" y="203.116">ENGLISH 3 LEVELS </tspan></text>
<path d="M306.758 14.5967H304.409C299.19 14.5967 294.185 15.9663 290.494 18.4043C286.804 20.8423 284.731 24.1489 284.731 27.5967V29.1517C284.731 32.5995 286.804 35.9061 290.494 38.3441C294.185 40.7821 299.19 42.1517 304.409 42.1517H306.763C309.347 42.1517 311.906 41.8154 314.293 41.1621C316.681 40.5088 318.85 39.5512 320.677 38.3441C322.504 37.1369 323.954 35.7038 324.943 34.1266C325.932 32.5493 326.441 30.8589 326.441 29.1517V27.5967C326.441 25.8892 325.931 24.1985 324.942 22.6211C323.953 21.0437 322.503 19.6104 320.675 18.4032C318.848 17.196 316.678 16.2385 314.29 15.5854C311.902 14.9323 309.343 14.5963 306.758 14.5967Z" fill="#00AEEF" stroke="#707070"/>
<path d="M292.763 21.6045C293.706 21.6045 294.514 22.3475 295.061 23.5475C296.084 26.1856 296.084 28.9515 295.061 31.5895C294.514 32.7895 293.698 33.5325 292.763 33.5325C291.827 33.5325 291.012 32.7895 290.465 31.5895C289.444 28.9513 289.444 26.1857 290.465 23.5475C291.012 22.3475 291.82 21.6045 292.763 21.6045ZM293.234 25.2655C293.017 24.7915 292.757 24.4975 292.501 24.4975C292.245 24.4975 291.985 24.7905 291.768 25.2655C291.199 26.7758 291.199 28.3552 291.768 29.8655C291.983 30.3395 292.245 30.6335 292.501 30.6335C292.757 30.6335 293.017 30.3405 293.234 29.8655C293.803 28.3552 293.803 26.7758 293.234 25.2655Z" fill="#FFFFFE"/>
<path d="M307.046 29.5303C307.329 29.545 307.602 29.6081 307.837 29.7132C308.072 29.8184 308.262 29.9621 308.389 30.1303C308.749 30.5712 308.938 31.0647 308.937 31.5659C308.935 32.0672 308.744 32.5602 308.381 33.0003C308.262 33.1686 308.073 33.3111 307.836 33.4109C307.599 33.5107 307.323 33.5637 307.042 33.5637C306.761 33.5637 306.486 33.5107 306.248 33.4109C306.011 33.3111 305.822 33.1686 305.703 33.0003C305.335 32.5613 305.141 32.0678 305.14 31.5659C305.139 31.0641 305.33 30.5701 305.696 30.1303C305.823 29.9617 306.014 29.8178 306.251 29.7127C306.488 29.6075 306.762 29.5447 307.046 29.5303ZM307.71 30.8403C307.648 30.7563 307.553 30.6846 307.435 30.6323C307.323 30.5727 307.184 30.5402 307.04 30.5402C306.896 30.5402 306.757 30.5727 306.645 30.6323C306.527 30.6846 306.432 30.7563 306.369 30.8403C306.187 31.0604 306.091 31.3073 306.091 31.5583C306.091 31.8093 306.187 32.0562 306.369 32.2763C306.432 32.3603 306.527 32.432 306.645 32.4843C306.757 32.5439 306.896 32.5764 307.04 32.5764C307.184 32.5764 307.323 32.5439 307.435 32.4843C307.553 32.432 307.648 32.3603 307.71 32.2763C307.893 32.0562 307.989 31.8093 307.989 31.5583C307.989 31.3073 307.893 31.0604 307.71 30.8403Z" fill="#FFFFFE"/>
<path fill-rule="evenodd" clip-rule="evenodd" d="M307.951 29.8225C309.446 30.2225 309.67 31.3885 309.478 32.9295C310.592 33.0295 312.531 33.1735 313.659 33.3465C315.268 33.5957 316.855 33.9032 318.414 34.2675C318.466 34.2834 318.524 34.2915 318.582 34.2915C319.464 34.2915 320.219 33.4855 320.728 32.2565C321.233 30.9317 321.482 29.5697 321.467 28.2035C321.493 26.9215 321.255 25.6431 320.76 24.4035C320.253 23.2585 319.499 22.5505 318.618 22.5505H318.585C318.561 22.5495 318.537 22.5495 318.513 22.5505C314.98 22.9445 311.46 23.7005 307.952 23.7655L307.951 29.8225ZM305.915 23.7855H305.885C301.693 23.7855 297.51 23.0215 293.332 22.5525C292.975 22.5135 292.655 22.7915 292.619 23.1735C292.582 23.5555 292.843 23.8965 293.199 23.9355C293.725 23.9942 294.253 24.0498 294.78 24.1025C294.829 24.1978 294.876 24.2978 294.921 24.4025C295.919 27.0413 295.919 29.8017 294.921 32.4405L294.909 32.4665H294.923C294.317 32.6058 293.712 32.7578 293.106 32.9225C292.908 33.016 292.757 33.1468 292.673 33.298C292.589 33.4491 292.576 33.6134 292.635 33.7695C292.725 34.1425 293.079 34.3695 293.427 34.2695C295.292 33.7587 297.227 33.3683 299.205 33.1035C300.999 32.9016 302.81 32.7744 304.628 32.7225C304.488 32.2257 304.531 31.7138 304.755 31.2305C304.979 30.7473 305.377 30.3071 305.915 29.9475V23.7855Z" fill="#FFFFFE"/>
<text fill="#FF0000" xml:space="preserve" style="white-space: pre" font-family="Harmattan" font-size="20" font-weight="bold" letter-spacing="0em"><tspan x="160.973" y="280.116">Digital marketing </tspan></text>
<text fill="black" xml:space="preserve" style="white-space: pre" font-family="Harmattan" font-size="17" font-weight="500" letter-spacing="0.05em"><tspan x="29.3223" y="306.499">&#x62d;&#x627;&#x635;&#x644; &#x639;&#x644;&#x64a; &#x634;&#x647;&#x627;&#x62f;&#x629; &#x645;&#x639;&#x62a;&#x645;&#x62f;&#x629; &#x648;&#x645;&#x648;&#x62b;&#x642;&#x647; &#x645;&#x646; &#x643;&#x644;&#x64a;&#x629;&#x2028;</tspan><tspan x="42.4508" y="328.499">&#x627;&#x644;&#x647;&#x646;&#x62f;&#x633;&#x629; &#x62c;&#x627;&#x645;&#x639;&#x629; &#x627;&#x644;&#x645;&#x646;&#x635;&#x648;&#x631;&#x629; &#x639;&#x644;&#x64a; &#x642;&#x64a;&#x62f; &#x627;&#x644;&#x648;&#x635;&#x648;&#x644;</tspan></text>
<text fill="black" xml:space="preserve" style="white-space: pre" font-family="Harmattan" font-size="17" font-weight="500" letter-spacing="0.05em"><tspan x="29.3223" y="413.499">&#x62d;&#x627;&#x635;&#x644; &#x639;&#x644;&#x64a; &#x634;&#x647;&#x627;&#x62f;&#x629; &#x645;&#x639;&#x62a;&#x645;&#x62f;&#x629; &#x648;&#x645;&#x648;&#x62b;&#x642;&#x647; &#x645;&#x646; &#x643;&#x644;&#x64a;&#x629;&#x2028;</tspan><tspan x="42.4508" y="435.499">&#x627;&#x644;&#x647;&#x646;&#x62f;&#x633;&#x629; &#x62c;&#x627;&#x645;&#x639;&#x629; &#x627;&#x644;&#x645;&#x646;&#x635;&#x648;&#x631;&#x629; &#x639;&#x644;&#x64a; &#x642;&#x64a;&#x62f; &#x627;&#x644;&#x648;&#x635;&#x648;&#x644;</tspan></text>
<text fill="black" xml:space="preserve" style="white-space: pre" font-family="Harmattan" font-size="17" font-weight="500" letter-spacing="0.05em"><tspan x="29.3223" y="497.499">&#x62d;&#x627;&#x635;&#x644; &#x639;&#x644;&#x64a; &#x634;&#x647;&#x627;&#x62f;&#x629; &#x645;&#x639;&#x62a;&#x645;&#x62f;&#x629; &#x648;&#x645;&#x648;&#x62b;&#x642;&#x647; &#x645;&#x646; &#x643;&#x644;&#x64a;&#x629;&#x2028;</tspan><tspan x="42.4508" y="519.499">&#x627;&#x644;&#x647;&#x646;&#x62f;&#x633;&#x629; &#x62c;&#x627;&#x645;&#x639;&#x629; &#x627;&#x644;&#x645;&#x646;&#x635;&#x648;&#x631;&#x629; &#x639;&#x644;&#x64a; &#x642;&#x64a;&#x62f; &#x627;&#x644;&#x648;&#x635;&#x648;&#x644;</tspan></text>
<text fill="black" xml:space="preserve" style="white-space: pre" font-family="Harmattan" font-size="17" font-weight="500" letter-spacing="0.05em"><tspan x="29.3223" y="578.499">&#x62d;&#x627;&#x635;&#x644; &#x639;&#x644;&#x64a; &#x634;&#x647;&#x627;&#x62f;&#x629; &#x645;&#x639;&#x62a;&#x645;&#x62f;&#x629; &#x648;&#x645;&#x648;&#x62b;&#x642;&#x647; &#x645;&#x646; &#x643;&#x644;&#x64a;&#x629;&#x2028;</tspan><tspan x="42.4508" y="600.499">&#x627;&#x644;&#x647;&#x646;&#x62f;&#x633;&#x629; &#x62c;&#x627;&#x645;&#x639;&#x629; &#x627;&#x644;&#x645;&#x646;&#x635;&#x648;&#x631;&#x629; &#x639;&#x644;&#x64a; &#x642;&#x64a;&#x62f; &#x627;&#x644;&#x648;&#x635;&#x648;&#x644;</tspan></text>
<text fill="black" xml:space="preserve" style="white-space: pre" font-family="Harmattan" font-size="17" font-weight="500" letter-spacing="0.05em"><tspan x="29.3223" y="728.499">&#x62d;&#x627;&#x635;&#x644; &#x639;&#x644;&#x64a; &#x634;&#x647;&#x627;&#x62f;&#x629; &#x645;&#x639;&#x62a;&#x645;&#x62f;&#x629; &#x648;&#x645;&#x648;&#x62b;&#x642;&#x647; &#x645;&#x646; &#x643;&#x644;&#x64a;&#x629;&#x2028;</tspan><tspan x="42.4508" y="750.499">&#x627;&#x644;&#x647;&#x646;&#x62f;&#x633;&#x629; &#x62c;&#x627;&#x645;&#x639;&#x629; &#x627;&#x644;&#x645;&#x646;&#x635;&#x648;&#x631;&#x629; &#x639;&#x644;&#x64a; &#x642;&#x64a;&#x62f; &#x627;&#x644;&#x648;&#x635;&#x648;&#x644;</tspan></text>
<text fill="black" xml:space="preserve" style="white-space: pre" font-family="Harmattan" font-size="17" font-weight="500" letter-spacing="0.05em"><tspan x="29.3223" y="223.499">&#x62d;&#x627;&#x635;&#x644; &#x639;&#x644;&#x64a; &#x634;&#x647;&#x627;&#x62f;&#x629; &#x645;&#x639;&#x62a;&#x645;&#x62f;&#x629; &#x648;&#x645;&#x648;&#x62b;&#x642;&#x647; &#x645;&#x646; &#x643;&#x644;&#x64a;&#x629;&#x2028;</tspan><tspan x="37.8322" y="245.499">&#x627;&#x644;&#x647;&#x646;&#x62f;&#x633;&#x629; &#x62c;&#x627;&#x645;&#x639;&#x629; &#x627;&#x644;&#x645;&#x646;&#x635;&#x648;&#x631;&#x629; &#x639;&#x644;&#x64a; &#x642;&#x64a;&#x62f; &#x627;&#x644;&#x648;&#x635;&#x648;&#x644; </tspan></text>
<text fill="#FF0000" xml:space="preserve" style="white-space: pre" font-family="Harmattan" font-size="16" font-weight="bold" letter-spacing="0.06em"><tspan x="55.58" y="368.293">ICDL (WIN-WORD-EXCEL-ACCESS-</tspan><tspan x="76.6425" y="390.293">POWERPOINT - INTERNET - IT) </tspan></text>
<text fill="#FF0000" xml:space="preserve" style="white-space: pre" font-family="Harmattan" font-size="20" font-weight="bold" letter-spacing="0em"><tspan x="148.066" y="474.116">MANGMENT SKILLS </tspan></text>
<text fill="#FF0000" xml:space="preserve" style="white-space: pre" font-family="Harmattan" font-size="20" font-weight="bold" letter-spacing="0em"><tspan x="158" y="562.116">PERSONAL SKILLS </tspan></text>
<text fill="#FF0000" xml:space="preserve" style="white-space: pre" font-family="Harmattan" font-size="20" font-weight="bold" letter-spacing="0em"><tspan x="194" y="707.116">Graphic design</tspan></text>
<text fill="#FF0000" xml:space="preserve" style="white-space: pre" font-family="Harmattan" font-size="20" font-weight="bold" letter-spacing="0em"><tspan x="155" y="634.116">&#x627;&#x644;&#x633;&#x644;&#x627;&#x645;&#x647; &#x648;&#x627;&#x644;&#x635;&#x62d;&#x629; &#x627;&#x644;&#x645;&#x647;&#x646;&#x64a;&#x629;</tspan></text>
<text fill="black" xml:space="preserve" style="white-space: pre" font-family="Harmattan" font-size="13" font-weight="500" letter-spacing="0em"><tspan x="21.7363" y="653.676">&#x62d;&#x627;&#x635;&#x644; &#x639;&#x644;&#x64a; &#x627;&#x644;&#x634;&#x647;&#x627;&#x62f;&#x629; &#x627;&#x644;&#x62f;&#x648;&#x644;&#x64a;&#x629; &#x627;&#x644;&#x623;&#x645;&#x631;&#x64a;&#x643;&#x64a;&#x629; &#x648;&#x645;&#x648;&#x62b;&#x642;&#x647; &#x645;&#x646; &#x648;&#x632;&#x627;&#x631;&#x629; &#x627;&#x644;&#x62e;&#x627;&#x631;&#x62c;&#x64a;&#x629; &#x627;&#x644;&#x645;&#x635;&#x631;&#x64a;&#x629;&#x2028;</tspan><tspan x="195.294" y="675.676"> + &#x627;&#x644;&#x643;&#x627;&#x631;&#x646;&#x64a;&#x629; &#x627;&#x644;&#x62f;&#x648;&#x644;&#x64a; &#x627;&#x644;&#x627;&#x645;&#x631;&#x64a;&#x643;&#x64a;</tspan></text>
<text fill="#FF0000" xml:space="preserve" style="white-space: pre" font-family="Harmattan" font-size="15" font-weight="500" letter-spacing="0em"><tspan x="44.6836" y="128.587">&#x62d;&#x633;&#x627;&#x628; &#x645;&#x648;&#x62d;&#x62f; + &#x643;&#x648;&#x62f; &#x627;&#x644;&#x645;&#x639;&#x644;&#x645; &#x627;&#x644;&#x62e;&#x627;&#x635; &#x628;&#x645;&#x639;&#x644;&#x645; &#x641;&#x64a; &#x645;&#x627;&#x62f;&#x62a;&#x64a; </tspan><tspan x="172.477" y="145.587">&#x627;&#x644;&#x631;&#x64a;&#x627;&#x636;&#x64a;&#x627;&#x62a; &#x648;&#x627;&#x644;&#x62d;&#x627;&#x633;&#x628; &#x627;&#x644;&#x627;&#x644;&#x64a;</tspan></text>
<text fill="black" xml:space="preserve" style="white-space: pre" font-family="Harmattan" font-size="13" font-weight="500" letter-spacing="0em"><tspan x="110.527" y="162.676">&#x641;&#x64a; &#x648;&#x632;&#x627;&#x631;&#x629; &#x627;&#x644;&#x62a;&#x631;&#x628;&#x64a;&#x629; &#x648;&#x627;&#x644;&#x62a;&#x639;&#x644;&#x64a;&#x645; &#x62c;&#x645;&#x647;&#x648;&#x631;&#x64a;&#x629; &#x645;&#x635;&#x631; &#x627;&#x644;&#x639;&#x631;&#x628;&#x64a;&#x629;</tspan></text>
<path d="M91.5259 165.006L93.9529 163.32L98.1528 164.973L103.638 160.666L107 161.832L99.1457 168L91.5259 165.006ZM88.4895 165.288L92.6424 166.921C90.1028 167.058 87.5487 167.125 84.9928 167.123L88.4895 165.288ZM67 164.805C67 162.181 72.7703 158.658 80.5521 157.629C78.8561 156.966 77.4854 156.137 76.5352 155.198C75.585 154.26 75.0783 153.234 75.0503 152.193C74.9192 150.882 75.8906 149.599 77.7519 148.626C79.6132 147.652 82.2129 147.068 84.9821 147C87.7509 147.068 90.3499 147.653 92.211 148.626C94.0721 149.599 95.0438 150.882 94.9139 152.193C94.8877 153.234 94.3833 154.259 93.4358 155.197C92.4882 156.136 91.1203 156.966 89.427 157.629C93.7652 158.239 97.5467 159.52 100.169 161.267L97.5966 163.285L93.5054 161.671L89.817 164.232L85.7833 159.133H85.8153L87.4645 158.146C86.6761 158.301 85.8331 158.383 84.98 158.389C84.1264 158.382 83.2831 158.3 82.4933 158.146L84.134 159.133H84.1809L79.9405 164.49L84.98 167.123C75.99 167.121 67 166.351 67 164.805Z" fill="#CB9B00"/>
<path d="M315.993 81C317.377 81.0009 318.731 80.7379 319.884 80.244C321.036 79.7501 321.934 79.0477 322.465 78.2255C322.996 77.4033 323.136 76.4983 322.866 75.6251C322.597 74.7519 321.931 73.9495 320.952 73.3197C319.974 72.6899 318.726 72.2608 317.368 72.0868C316.01 71.9127 314.602 72.0018 313.323 72.3422C312.043 72.6827 310.95 73.2594 310.18 73.9995C309.411 74.7396 309 75.6097 309 76.4999C309.001 77.6924 309.738 78.8359 311.049 79.6796C312.36 80.5232 314.138 80.9981 315.993 81Z" fill="#00AEEF"/>
<path d="M315.993 203C317.377 203.001 318.731 202.738 319.884 202.244C321.036 201.75 321.934 201.048 322.465 200.225C322.996 199.403 323.136 198.498 322.866 197.625C322.597 196.752 321.931 195.95 320.952 195.32C319.974 194.69 318.726 194.261 317.368 194.087C316.01 193.913 314.602 194.002 313.323 194.342C312.043 194.683 310.95 195.259 310.18 196C309.411 196.74 309 197.61 309 198.5C309.001 199.692 309.738 200.836 311.049 201.68C312.36 202.523 314.138 202.998 315.993 203Z" fill="#00AEEF"/>
<path d="M315.993 280C317.377 280.001 318.731 279.738 319.884 279.244C321.036 278.75 321.934 278.048 322.465 277.225C322.996 276.403 323.136 275.498 322.866 274.625C322.597 273.752 321.931 272.95 320.952 272.32C319.974 271.69 318.726 271.261 317.368 271.087C316.01 270.913 314.602 271.002 313.323 271.342C312.043 271.683 310.95 272.259 310.18 273C309.411 273.74 309 274.61 309 275.5C309.001 276.692 309.738 277.836 311.049 278.68C312.36 279.523 314.138 279.998 315.993 280Z" fill="#00AEEF"/>
<path d="M315.993 370C317.377 370.001 318.731 369.738 319.884 369.244C321.036 368.75 321.934 368.048 322.465 367.225C322.996 366.403 323.136 365.498 322.866 364.625C322.597 363.752 321.931 362.95 320.952 362.32C319.974 361.69 318.726 361.261 317.368 361.087C316.01 360.913 314.602 361.002 313.323 361.342C312.043 361.683 310.95 362.259 310.18 363C309.411 363.74 309 364.61 309 365.5C309.001 366.692 309.738 367.836 311.049 368.68C312.36 369.523 314.138 369.998 315.993 370Z" fill="#00AEEF"/>
<path d="M315.993 475C317.377 475.001 318.731 474.738 319.884 474.244C321.036 473.75 321.934 473.048 322.465 472.225C322.996 471.403 323.136 470.498 322.866 469.625C322.597 468.752 321.931 467.95 320.952 467.32C319.974 466.69 318.726 466.261 317.368 466.087C316.01 465.913 314.602 466.002 313.323 466.342C312.043 466.683 310.95 467.259 310.18 468C309.411 468.74 309 469.61 309 470.5C309.001 471.692 309.738 472.836 311.049 473.68C312.36 474.523 314.138 474.998 315.993 475Z" fill="#00AEEF"/>
<path d="M315.993 562C317.377 562.001 318.731 561.738 319.884 561.244C321.036 560.75 321.934 560.048 322.465 559.225C322.996 558.403 323.136 557.498 322.866 556.625C322.597 555.752 321.931 554.95 320.952 554.32C319.974 553.69 318.726 553.261 317.368 553.087C316.01 552.913 314.602 553.002 313.323 553.342C312.043 553.683 310.95 554.259 310.18 555C309.411 555.74 309 556.61 309 557.5C309.001 558.692 309.738 559.836 311.049 560.68C312.36 561.523 314.138 561.998 315.993 562Z" fill="#00AEEF"/>
<path d="M315.993 634C317.377 634.001 318.731 633.738 319.884 633.244C321.036 632.75 321.934 632.048 322.465 631.225C322.996 630.403 323.136 629.498 322.866 628.625C322.597 627.752 321.931 626.95 320.952 626.32C319.974 625.69 318.726 625.261 317.368 625.087C316.01 624.913 314.602 625.002 313.323 625.342C312.043 625.683 310.95 626.259 310.18 627C309.411 627.74 309 628.61 309 629.5C309.001 630.692 309.738 631.836 311.049 632.68C312.36 633.523 314.138 633.998 315.993 634Z" fill="#00AEEF"/>
<path d="M315.993 707C317.377 707.001 318.731 706.738 319.884 706.244C321.036 705.75 321.934 705.048 322.465 704.225C322.996 703.403 323.136 702.498 322.866 701.625C322.597 700.752 321.931 699.95 320.952 699.32C319.974 698.69 318.726 698.261 317.368 698.087C316.01 697.913 314.602 698.002 313.323 698.342C312.043 698.683 310.95 699.259 310.18 700C309.411 700.74 309 701.61 309 702.5C309.001 703.692 309.738 704.836 311.049 705.68C312.36 706.523 314.138 706.998 315.993 707Z" fill="#00AEEF"/>
<path d="M315.993 790C317.377 790.001 318.731 789.738 319.884 789.244C321.036 788.75 321.934 788.048 322.465 787.225C322.996 786.403 323.136 785.498 322.866 784.625C322.597 783.752 321.931 782.95 320.952 782.32C319.974 781.69 318.726 781.261 317.368 781.087C316.01 780.913 314.602 781.002 313.323 781.342C312.043 781.683 310.95 782.259 310.18 783C309.411 783.74 309 784.61 309 785.5C309.001 786.692 309.738 787.836 311.049 788.68C312.36 789.523 314.138 789.998 315.993 790Z" fill="#00AEEF"/>
<text fill="#FF0000" xml:space="preserve" style="white-space: pre" font-family="Harmattan" font-size="20" font-weight="bold" letter-spacing="0em"><tspan x="21" y="788.116">&#x62d;&#x636;&#x648;&#x631; &#x62f;&#x628;&#x644;&#x648;&#x645;&#x629; &#x623; &#x645;&#x62d;&#x645;&#x62f; &#x631;&#x62c;&#x628; &#x627;&#x644;&#x644;&#x645;&#x635;&#x645;&#x645; &#x627;&#x644;&#x639;&#x627;&#x644;&#x645;&#x64a;</tspan></text>
<path d="M236.275 850.364C236.219 850.11 235.972 849.952 235.742 850.013C235.605 850.074 235.501 850.162 235.442 850.264C235.383 850.366 235.373 850.477 235.413 850.583L235.456 850.771L235.887 850.661L235.46 850.775C235.475 850.852 235.513 850.926 235.572 850.993C235.613 851.045 235.666 851.103 235.724 851.171C235.948 851.405 236.146 851.649 236.319 851.902C236.449 852.124 236.721 852.191 236.924 852.052C237.032 851.961 237.101 851.853 237.125 851.738C237.149 851.624 237.129 851.507 237.065 851.4C236.863 851.092 236.626 850.794 236.355 850.51C236.314 850.465 236.308 850.487 236.299 850.48L236.275 850.364Z" fill="#FFFFFE"/>
<path d="M234.849 851.758C234.793 852.012 234.546 852.17 234.316 852.109C233.762 851.968 233.991 851.284 234.293 850.953C234.517 850.719 234.716 850.475 234.888 850.222C235.018 850 235.291 849.933 235.494 850.072C235.602 850.164 235.671 850.272 235.695 850.386C235.719 850.501 235.698 850.617 235.635 850.724C235.453 851.034 234.878 851.574 234.843 851.758H234.849Z" fill="#FFFFFE"/>
<path d="M196.208 844.808H173.154C171.417 844.808 170.01 845.761 170.01 846.937V859.711C170.01 860.886 171.417 861.84 173.154 861.84H196.208C197.945 861.84 199.352 860.886 199.352 859.711V846.937C199.352 845.761 197.945 844.808 196.208 844.808Z" fill="#29B71C"/>
<path d="M194.112 859.001H175.249C174.971 859.001 174.705 858.927 174.508 858.793C174.312 858.66 174.201 858.48 174.201 858.292C174.201 858.103 174.312 857.923 174.508 857.79C174.705 857.657 174.971 857.582 175.249 857.582H194.112C194.39 857.582 194.657 857.657 194.853 857.79C195.05 857.923 195.16 858.103 195.16 858.292C195.16 858.48 195.05 858.66 194.853 858.793C194.657 858.927 194.39 859.001 194.112 859.001Z" fill="#EEEEEE"/>
<path d="M187.825 859.711C187.547 859.711 187.281 859.636 187.084 859.503C186.888 859.37 186.777 859.189 186.777 859.001V857.582C186.777 857.394 186.888 857.213 187.084 857.08C187.281 856.947 187.547 856.872 187.825 856.872C188.103 856.872 188.37 856.947 188.566 857.08C188.763 857.213 188.873 857.394 188.873 857.582V859.001C188.873 859.189 188.763 859.37 188.566 859.503C188.37 859.636 188.103 859.711 187.825 859.711Z" fill="#00AEEF"/>
<path d="M189.345 850.96L182.009 848.476C181.85 848.422 181.672 848.396 181.494 848.401C181.315 848.406 181.142 848.442 180.989 848.505C180.837 848.569 180.711 848.657 180.624 848.763C180.536 848.868 180.49 848.987 180.49 849.108V854.7C180.491 854.827 180.542 854.95 180.638 855.059C180.734 855.168 180.871 855.257 181.035 855.317C181.186 855.379 181.36 855.411 181.538 855.41C181.734 855.41 181.926 855.373 182.093 855.303L189.429 852.195C189.587 852.128 189.717 852.033 189.803 851.921C189.89 851.809 189.931 851.683 189.921 851.556C189.911 851.431 189.853 851.31 189.751 851.206C189.65 851.101 189.51 851.016 189.345 850.96Z" fill="#EEEEEE"/>
<path d="M173.154 844.808C172.32 844.808 171.52 845.032 170.931 845.431C170.341 845.83 170.01 846.372 170.01 846.937V859.711C170.01 860.275 170.341 860.817 170.931 861.216C171.52 861.615 172.32 861.84 173.154 861.84H184.681V844.808H173.154Z" fill="#E53935"/>
<path d="M175.249 857.582C174.971 857.582 174.705 857.657 174.508 857.79C174.312 857.923 174.201 858.103 174.201 858.292C174.201 858.48 174.312 858.66 174.508 858.793C174.705 858.927 174.971 859.001 175.249 859.001H184.681V857.582H175.249Z" fill="#FAFAFA"/>
<path d="M182.009 848.476C181.85 848.422 181.672 848.396 181.494 848.401C181.315 848.406 181.142 848.442 180.989 848.505C180.837 848.569 180.711 848.657 180.624 848.763C180.536 848.868 180.49 848.987 180.49 849.108V854.7C180.491 854.827 180.542 854.95 180.638 855.059C180.734 855.168 180.871 855.257 181.035 855.317C181.186 855.379 181.36 855.411 181.538 855.41C181.734 855.41 181.926 855.373 182.093 855.303L184.681 854.203V849.378L182.009 848.476Z" fill="#00AEEF"/>
<path d="M243.613 847.231H247.036L242.146 844V846.262C242.146 846.797 242.803 847.231 243.613 847.231Z" fill="#00AEEF"/>
<path d="M228.161 845.615H207.91V851.269H228.161C228.456 851.269 228.694 851.128 228.694 850.955V845.929C228.694 845.756 228.456 845.615 228.161 845.615Z" fill="#C6CACF"/>
<path d="M226.951 851.269H204.765C204.301 851.269 204.068 850.883 204.396 850.656L208.196 848.038L204.396 845.42C204.068 845.194 204.301 844.808 204.765 844.808H226.951C227.239 844.808 227.472 844.968 227.472 845.167V850.91C227.472 851.108 227.239 851.269 226.951 851.269Z" fill="#00AEEF"/>
<path d="M215.924 846.93H213.906C213.627 846.93 213.401 847.079 213.401 847.263V849.263C213.401 849.447 213.627 849.597 213.906 849.597C214.185 849.597 214.411 849.447 214.411 849.263V848.596H215.924C216.203 848.596 216.429 848.447 216.429 848.263V847.263C216.429 847.079 216.203 846.93 215.924 846.93ZM215.42 847.93H214.411V847.596H215.42V847.93Z" fill="white"/>
<path d="M218.447 846.93H217.438C217.159 846.93 216.933 847.079 216.933 847.263V849.263C216.933 849.447 217.159 849.597 217.438 849.597H219.456C219.735 849.597 219.961 849.447 219.961 849.263V847.93C219.961 847.378 219.282 846.93 218.447 846.93ZM218.952 848.93H217.943V847.596H218.447C218.725 847.596 218.952 847.746 218.952 847.93L218.952 848.93Z" fill="white"/>
<path d="M222.989 846.93H220.97C220.691 846.93 220.466 847.079 220.466 847.263V849.263C220.466 849.447 220.692 849.597 220.97 849.597C221.249 849.597 221.475 849.447 221.475 849.263V848.596H222.484C222.763 848.596 222.989 848.447 222.989 848.263C222.989 848.079 222.763 847.93 222.484 847.93H221.475V847.596H222.989C223.267 847.596 223.493 847.447 223.493 847.263C223.493 847.079 223.267 846.93 222.989 846.93Z" fill="white"/>
<path d="M228.198 862.577H213.297C213.023 862.577 212.801 862.42 212.801 862.227V852.427C212.801 852.234 213.023 852.077 213.297 852.077H228.198C228.472 852.077 228.694 852.234 228.694 852.427V862.227C228.694 862.42 228.472 862.577 228.198 862.577Z" fill="#C6CACF"/>
<path d="M213.794 861.877V852.077H213.297C213.023 852.077 212.801 852.234 212.801 852.427V862.227C212.801 862.42 213.023 862.577 213.297 862.577H228.198C228.472 862.577 228.694 862.42 228.694 862.227V861.877H213.794Z" fill="#00AEEF"/>
<path d="M227.002 860.961H221.829C221.569 860.961 221.359 860.806 221.359 860.615V856.461C221.359 856.27 221.569 856.115 221.829 856.115H227.002C227.261 856.115 227.472 856.27 227.472 856.461V860.615C227.472 860.806 227.261 860.961 227.002 860.961Z" fill="black"/>
<path d="M226.249 856.923H222.582V860.154H226.249V856.923Z" fill="#00AEEF"/>
<path d="M227.026 854.264H221.475C221.196 854.264 220.97 854.115 220.97 853.931C220.97 853.747 221.196 853.598 221.475 853.598H227.026C227.304 853.598 227.53 853.747 227.53 853.931C227.53 854.115 227.304 854.264 227.026 854.264Z" fill="#EF0000"/>
<path d="M227.026 855.598H221.475C221.196 855.598 220.97 855.449 220.97 855.265C220.97 855.081 221.196 854.932 221.475 854.932H227.026C227.304 854.932 227.53 855.081 227.53 855.265C227.53 855.449 227.304 855.598 227.026 855.598Z" fill="#EF0000"/>
<path d="M219.961 854.264H214.915C214.636 854.264 214.41 854.115 214.41 853.931C214.41 853.747 214.636 853.598 214.915 853.598H219.961C220.239 853.598 220.465 853.747 220.465 853.931C220.465 854.115 220.239 854.264 219.961 854.264Z" fill="#EF0000"/>
<path d="M219.961 855.598H214.915C214.636 855.598 214.41 855.449 214.41 855.265C214.41 855.081 214.636 854.932 214.915 854.932H219.961C220.239 854.932 220.465 855.081 220.465 855.265C220.465 855.449 220.239 855.598 219.961 855.598Z" fill="#EF0000"/>
<path d="M219.961 856.931H214.915C214.636 856.931 214.41 856.782 214.41 856.598C214.41 856.414 214.636 856.265 214.915 856.265H219.961C220.239 856.265 220.465 856.414 220.465 856.598C220.465 856.782 220.239 856.931 219.961 856.931Z" fill="#EF0000"/>
<path d="M219.961 858.264H214.915C214.636 858.264 214.41 858.115 214.41 857.931C214.41 857.747 214.636 857.598 214.915 857.598H219.961C220.239 857.598 220.465 857.747 220.465 857.931C220.465 858.115 220.239 858.264 219.961 858.264Z" fill="#EF0000"/>
<path d="M219.961 859.598H214.915C214.636 859.598 214.41 859.449 214.41 859.265C214.41 859.081 214.636 858.932 214.915 858.932H219.961C220.239 858.932 220.465 859.081 220.465 859.265C220.465 859.449 220.239 859.598 219.961 859.598Z" fill="#EF0000"/>
<path d="M219.961 860.931H214.915C214.636 860.931 214.41 860.782 214.41 860.598C214.41 860.414 214.636 860.265 214.915 860.265H219.961C220.239 860.265 220.465 860.414 220.465 860.598C220.465 860.782 220.239 860.931 219.961 860.931Z" fill="#EF0000"/>
<path d="M138.222 862.172V864.192H166.342V862.172L152.346 860.961L138.222 862.172Z" fill="#EEEEEE"/>
<path d="M138.222 860.557V862.576H166.342V860.557L152.346 859.346L138.222 860.557Z" fill="#DCDCDC"/>
<path d="M166.342 845.615V860.154H164.508L160.229 852.884L164.508 845.615H166.342Z" fill="#EEEEEE"/>
<path d="M165.119 845.615V846.844L160.689 852.884L165.119 858.925V860.154H138.222V845.615H165.119Z" fill="white"/>
<path d="M139.446 846.423V855.637L152.283 856.923L165.12 855.637V846.423H139.446Z" fill="#29B71C"/>
<path d="M152.894 848.039V851.27C153.569 851.27 154.116 850.547 154.116 849.654C154.116 848.762 153.569 848.039 152.894 848.039Z" fill="#FE5F1A"/>
<path d="M152.405 848.039C152.675 848.039 152.894 848.762 152.894 849.654C152.894 850.547 152.675 851.27 152.405 851.27C151.325 851.27 150.449 850.547 150.449 849.654C150.449 848.762 151.325 848.039 152.405 848.039Z" fill="#00AEEF"/>
<path d="M165.119 857.731L157.784 853.692L163.237 854.337L165.12 855.639L165.119 857.731Z" fill="#027372"/>
<path d="M162.154 854.568L158.666 852.885L154.172 854.568L151.671 856.23L157.44 859.346H165.12V857.108L162.154 854.568Z" fill="#E53935"/>
<path d="M163.897 854.443L162.872 854.5L159.007 853.305V851.27L163.897 854.443Z" fill="#EEEEEE"/>
<path d="M154.116 854.5L158.246 851.27L161.452 854.5L154.116 854.5Z" fill="white"/>
<path d="M156.561 859.346H154.326L145.558 853.692L150.414 854.364L156.561 859.346Z" fill="#027372"/>
<path d="M148.843 854.568L154.117 859.346H139.446V855.871L141.299 854.568L145.546 852.885L148.843 854.568Z" fill="#00AEEF"/>
<path d="M150.448 854.443L149.423 854.5L145.558 853.305V851.27L150.448 854.443Z" fill="#EEEEEE"/>
<path d="M140.668 854.5L145.486 851.27L149.226 854.5L140.668 854.5Z" fill="white"/>
<path d="M167.077 863.385C166.808 863.385 166.589 863.54 166.589 863.731V864.308H137.975V863.731C137.975 863.54 137.757 863.385 137.488 863.385C137.218 863.385 137 863.54 137 863.731V864.654C137 864.845 137.218 865 137.488 865H167.077C167.347 865 167.565 864.845 167.565 864.654V863.731C167.565 863.54 167.347 863.385 167.077 863.385Z" fill="#00AEEF"/>
<path d="M167.077 860.961C166.808 860.961 166.589 861.116 166.589 861.307V861.884H137.975V861.307C137.975 861.116 137.757 860.961 137.488 860.961C137.218 860.961 137 861.116 137 861.307V862.23C137 862.421 137.218 862.576 137.488 862.576H167.077C167.347 862.576 167.565 862.421 167.565 862.23V861.307C167.565 861.116 167.347 860.961 167.077 860.961Z" fill="#00AEEF"/>
<path d="M167.077 844.808H137.488C137.218 844.808 137 844.954 137 845.135V860.634C137 860.815 137.218 860.961 137.488 860.961H167.077C167.347 860.961 167.565 860.815 167.565 860.634V845.135C167.565 844.954 167.347 844.808 167.077 844.808ZM166.589 860.307H137.975V845.462H166.589V860.307Z" fill="#00AEEF"/>
<path d="M155.339 849.654C155.339 848.764 153.968 848.039 152.283 848.039C150.597 848.039 149.226 848.764 149.226 849.654C149.226 850.545 150.597 851.27 152.283 851.27C153.968 851.27 155.339 850.545 155.339 849.654ZM150.191 849.654C150.191 849.045 151.129 848.549 152.283 848.549C153.436 848.549 154.374 849.045 154.374 849.654C154.374 850.264 153.436 850.76 152.283 850.76C151.129 850.76 150.191 850.264 150.191 849.654Z" fill="black"/>
<path d="M138.222 859.014C138.222 859.197 138.452 859.346 138.737 859.346H165.827C166.112 859.346 166.342 859.197 166.342 859.014V845.947C166.342 845.764 166.112 845.615 165.827 845.615H138.737C138.452 845.615 138.222 845.764 138.222 845.947V848.605C138.222 848.788 138.452 848.937 138.737 848.937C139.021 848.937 139.251 848.788 139.251 848.605V846.28H165.313V854.668L159.418 850.862C159.217 850.732 158.892 850.732 158.691 850.862L152.282 855.001L145.873 850.862C145.672 850.732 145.346 850.732 145.145 850.862L139.251 854.668V849.934C139.251 849.75 139.021 849.602 138.737 849.602C138.452 849.602 138.222 849.75 138.222 849.934V859.014ZM159.055 851.566L162.528 853.809H155.581L159.055 851.566ZM145.509 851.566L148.983 853.809H142.036L145.509 851.566ZM141.007 854.474H150.011L151.918 855.705C151.919 855.706 155.348 857.92 155.348 857.92C155.448 857.985 155.58 858.017 155.711 858.017C155.843 858.017 155.975 857.985 156.075 857.92C156.276 857.79 156.276 857.58 156.075 857.45L153.01 855.47L154.553 854.474H163.557L165.313 855.608V858.682H139.251V855.608L141.007 854.474Z" fill="black"/>
<path fill-rule="evenodd" clip-rule="evenodd" d="M137.085 848.064C137.247 848.064 137.381 848.207 137.381 848.38V854.317H136.79V848.38C136.79 848.204 136.922 848.064 137.085 848.064Z" fill="#FFFFFE"/>
<g filter="url(#filter0_d_0_1)">
<mask id="path-84-inside-1_0_1" fill="white">
<path d="M300.731 844H44.731H300.731Z"/>
</mask>
<path d="M300.731 844H44.731H300.731Z" fill="#231F20"/>
<path d="M300.731 844H44.731H300.731Z" stroke="black" stroke-width="0.6" mask="url(#path-84-inside-1_0_1)"/>
</g>
<text fill="black" xml:space="preserve" style="white-space: pre" font-family="Harmattan" font-size="14" font-weight="500" letter-spacing="0em"><tspan x="37.459" y="812.881">&#x644;&#x644;&#x645;&#x635;&#x645;&#x645; &#x627;&#x644;&#x639;&#x631;&#x628;&#x64a; &#x623; / &#x645;&#x62d;&#x645;&#x62f; &#x631;&#x62c;&#x628; &#x641;&#x64a; &#x641;&#x646; &#x627;&#x644;&#x62a;&#x635;&#x645;&#x64a;&#x645; &#x644;&#x62c;&#x631;&#x627;&#x641;&#x64a;&#x643;&#x64a;</tspan></text>
<defs>
<filter id="filter0_d_0_1" x="40.731" y="843.7" width="264" height="8.59961" filterUnits="userSpaceOnUse" color-interpolation-filters="sRGB">
<feFlood flood-opacity="0" result="BackgroundImageFix"/>
<feColorMatrix in="SourceAlpha" type="matrix" values="0 0 0 0 0 0 0 0 0 0 0 0 0 0 0 0 0 0 127 0" result="hardAlpha"/>
<feOffset dy="4"/>
<feGaussianBlur stdDeviation="2"/>
<feComposite in2="hardAlpha" operator="out"/>
<feColorMatrix type="matrix" values="0 0 0 0 0 0 0 0 0 0 0 0 0 0 0 0 0 0 0.25 0"/>
<feBlend mode="normal" in2="BackgroundImageFix" result="effect1_dropShadow_0_1"/>
<feBlend mode="normal" in="SourceGraphic" in2="effect1_dropShadow_0_1" result="shape"/>
</filter>
</defs>
</svg>
