<svg width="345" height="491" viewBox="0 0 345 491" fill="none" xmlns="http://www.w3.org/2000/svg">
<rect width="345" height="491" fill="#F5F5F5"/>
<path d="M196.492 361H110.492V360H196.492V361Z" fill="#00AEEF"/>
<path d="M196.492 335H110.492V334H196.492V335Z" fill="#00AEEF"/>
<path d="M196.492 410H110.492V409H196.492V410Z" fill="#00AEEF"/>
<path d="M196.492 437H110.492V436H196.492V437Z" fill="#00AEEF"/>
<path d="M196.492 384H110.492V383H196.492V384Z" fill="#00AEEF"/>
<path d="M173.094 3.00507H214.293C214.713 3.00494 215.129 3.26342 215.517 3.76576C215.905 4.26809 216.258 5.00444 216.555 5.93276C216.852 6.86107 217.088 7.96318 217.249 9.17611C217.41 10.389 217.492 11.689 217.492 13.0019V30.9949H173.094C172.495 31.0453 171.9 30.7205 171.342 30.0398C170.785 29.3591 170.276 28.3363 169.848 27.0318C169.419 25.7273 169.078 24.1675 168.845 22.4445C168.612 20.7215 168.492 18.8702 168.492 17C168.492 15.1297 168.612 13.2785 168.845 11.5555C169.078 9.83249 169.419 8.27271 169.848 6.96818C170.276 5.66365 170.785 4.64086 171.342 3.96018C171.9 3.27951 172.495 2.95473 173.094 3.00507Z" fill="#058931"/>
<path d="M41.8939 353.233C42.0484 353.267 42.2082 353.27 42.3639 353.241C42.5195 353.213 42.6678 353.153 42.7999 353.066C43.284 352.598 43.6973 352.063 44.0268 351.476C44.3358 351.035 43.0789 350.985 42.8021 351.38C42.7057 351.518 42.613 351.668 42.517 351.823C42.3665 351.042 42.3798 350.238 42.5561 349.463C42.7323 348.687 43.0677 347.957 43.541 347.318C45.1729 344.805 48.65 343.029 52.3432 342.01L51.5766 342.895C51.309 343.203 52.4013 343.528 52.6686 343.223L54.0645 341.615C54.2877 341.357 53.6593 341.205 53.4166 341.178L50.9748 340.916C50.7655 340.893 50.4408 340.981 50.5079 341.157C50.5808 341.346 50.9056 341.431 51.1856 341.46L52.3824 341.589C46.0612 343.589 40.615 348.046 41.5165 352.338C41.1525 352.229 40.7991 352.108 40.4563 351.977C40.3073 351.925 40.1495 351.903 39.992 351.912C39.8345 351.921 39.6804 351.962 39.5386 352.031C39.2924 352.157 39.2233 352.389 39.468 352.482C40.2594 352.785 41.0698 353.036 41.8939 353.233Z" fill="#00AEEF" stroke="#707070" stroke-width="0.299962"/>
<path d="M308.178 49.776C309.221 49.776 310.066 48.9307 310.066 47.888C310.066 46.8453 309.221 46 308.178 46C307.135 46 306.29 46.8453 306.29 47.888C306.29 48.9307 307.135 49.776 308.178 49.776Z" fill="#231F20"/>
<path d="M308.178 78.1256C309.221 78.1256 310.066 77.2803 310.066 76.2376C310.066 75.1949 309.221 74.3496 308.178 74.3496C307.135 74.3496 306.29 75.1949 306.29 76.2376C306.29 77.2803 307.135 78.1256 308.178 78.1256Z" fill="#231F20"/>
<path d="M308.492 261C309.597 261 310.492 260.105 310.492 259C310.492 257.895 309.597 257 308.492 257C307.388 257 306.492 257.895 306.492 259C306.492 260.105 307.388 261 308.492 261Z" fill="#231F20"/>
<path d="M305.717 336.568C307.098 336.568 308.217 335.673 308.217 334.568C308.217 333.464 307.098 332.568 305.717 332.568C304.337 332.568 303.217 333.464 303.217 334.568C303.217 335.673 304.337 336.568 305.717 336.568Z" fill="#231F20"/>
<path d="M305.717 362.568C307.098 362.568 308.217 361.673 308.217 360.568C308.217 359.464 307.098 358.568 305.717 358.568C304.337 358.568 303.217 359.464 303.217 360.568C303.217 361.673 304.337 362.568 305.717 362.568Z" fill="#231F20"/>
<path d="M305.717 387.568C307.098 387.568 308.217 386.673 308.217 385.568C308.217 384.464 307.098 383.568 305.717 383.568C304.337 383.568 303.217 384.464 303.217 385.568C303.217 386.673 304.337 387.568 305.717 387.568Z" fill="#231F20"/>
<path d="M305.717 411.568C307.098 411.568 308.217 410.673 308.217 409.568C308.217 408.464 307.098 407.568 305.717 407.568C304.337 407.568 303.217 408.464 303.217 409.568C303.217 410.673 304.337 411.568 305.717 411.568Z" fill="#231F20"/>
<path d="M305.717 438.568C307.098 438.568 308.217 437.673 308.217 436.568C308.217 435.464 307.098 434.568 305.717 434.568C304.337 434.568 303.217 435.464 303.217 436.568C303.217 437.673 304.337 438.568 305.717 438.568Z" fill="#231F20"/>
<text fill="white" xml:space="preserve" style="white-space: pre" font-family="Harmattan" font-size="15" font-weight="bold" letter-spacing="0em"><tspan x="175.492" y="19.0872">&#x627;&#x644;&#x62a;&#x648;&#x627;&#x635;&#x644;</tspan></text>
<path d="M308.178 78.1256C309.221 78.1256 310.066 77.2803 310.066 76.2376C310.066 75.1949 309.221 74.3496 308.178 74.3496C307.135 74.3496 306.29 75.1949 306.29 76.2376C306.29 77.2803 307.135 78.1256 308.178 78.1256Z" fill="#231F20"/>
<text fill="#058931" xml:space="preserve" style="white-space: pre" font-family="Bahij TheSansArabic" font-size="12" font-weight="500" letter-spacing="0em"><tspan x="199.492" y="81.4717">01065606206</tspan></text>
<text fill="#058931" xml:space="preserve" style="white-space: pre" font-family="Bahij TheSansArabic" font-size="8" font-weight="500" letter-spacing="0em"><tspan x="131.492" y="51.8115">mostafa.said.abdelwahab@outlook.com</tspan></text>
<path d="M285.997 52.3409C285.997 52.6592 286.123 52.9644 286.349 53.1895C286.574 53.4145 286.879 53.5409 287.197 53.5409H297.411C297.729 53.5409 298.035 53.4145 298.26 53.1895C298.485 52.9644 298.611 52.6592 298.611 52.3409V43.3279C298.611 43.0097 298.485 42.7044 298.26 42.4794C298.035 42.2544 297.729 42.1279 297.411 42.1279H287.197C286.879 42.1279 286.574 42.2544 286.349 42.4794C286.123 42.7044 285.997 43.0097 285.997 43.3279V52.3409Z" fill="#03A9F4"/>
<path d="M298.613 43.9147V43.3287C298.613 43.0814 298.536 42.8402 298.393 42.6387L291.626 46.8027L287.095 44.0027L286.673 45.1277L291.755 48.1277L298.613 43.9147Z" fill="#B3E5FC"/>
<path d="M289.601 58.624L276.985 56.221V39.4L289.601 37V58.624Z" fill="#0277BD"/>
<path d="M286.127 44.7168C285.808 44.342 285.409 44.044 284.959 43.8451C284.508 43.6461 284.019 43.5513 283.527 43.5678C283.01 43.5484 282.495 43.6463 282.022 43.8541C281.548 44.0619 281.127 44.3743 280.791 44.7678C280.074 45.6573 279.706 46.7783 279.758 47.9198C279.708 49.0117 280.071 50.0825 280.773 50.9198C281.099 51.2942 281.504 51.5915 281.959 51.7904C282.414 51.9893 282.907 52.0847 283.403 52.0698C283.912 52.0872 284.418 51.9895 284.883 51.7839C285.349 51.5784 285.762 51.2704 286.091 50.8828C286.809 50.005 287.175 48.8923 287.12 47.7598C287.173 46.6581 286.82 45.5752 286.127 44.7168ZM284.827 49.7778C284.667 49.9942 284.458 50.1697 284.217 50.2899C283.976 50.4101 283.71 50.4717 283.441 50.4696C283.172 50.4676 282.907 50.402 282.668 50.2781C282.429 50.1542 282.222 49.9756 282.065 49.7568C281.688 49.1866 281.505 48.5103 281.542 47.8278C281.509 47.1433 281.692 46.4655 282.065 45.8908C282.221 45.6604 282.432 45.473 282.68 45.3457C282.927 45.2185 283.202 45.1556 283.48 45.1628C283.749 45.1544 284.015 45.215 284.254 45.3387C284.492 45.4625 284.695 45.6454 284.843 45.8698C285.209 46.4663 285.384 47.1604 285.343 47.8588C285.382 48.5376 285.2 49.2107 284.825 49.7778H284.827Z" fill="white"/>
<path d="M288.492 86C294.015 86 298.492 81.5228 298.492 76C298.492 70.4772 294.015 66 288.492 66C282.969 66 278.492 70.4772 278.492 76C278.492 81.5228 282.969 86 288.492 86Z" fill="#10EC00"/>
<path d="M292.725 76.7191C292.696 76.7049 291.588 76.1599 291.391 76.0891C291.31 76.0555 291.222 76.0363 291.134 76.0324C291.058 76.0338 290.984 76.0549 290.919 76.0936C290.853 76.1324 290.799 76.1874 290.761 76.2533C290.651 76.4199 290.316 76.8091 290.213 76.9258C290.2 76.9416 290.181 76.9599 290.17 76.9599C290.158 76.9599 289.989 76.8891 289.936 76.8666C289.042 76.4129 288.281 75.7361 287.725 74.9016C287.716 74.8885 287.71 74.8738 287.706 74.8583C287.724 74.8298 287.746 74.804 287.771 74.7816C287.831 74.7216 287.897 74.6433 287.961 74.5674C287.991 74.5316 288.021 74.4949 288.05 74.4616C288.123 74.3756 288.184 74.2797 288.23 74.1766L288.255 74.1266C288.292 74.0506 288.311 73.9666 288.308 73.8818C288.305 73.7971 288.282 73.7143 288.24 73.6408C288.214 73.5883 287.746 72.4608 287.696 72.3424C287.577 72.0566 287.419 71.9258 287.196 71.9258C287.176 71.9258 287.196 71.9258 287.113 71.9258C286.796 71.9491 286.485 72.0292 286.196 72.1624C285.953 72.3573 285.761 72.6084 285.636 72.8941C285.511 73.1797 285.457 73.4914 285.479 73.8024C285.532 74.5132 285.799 75.1912 286.245 75.7474L286.276 75.7933C287.026 76.9684 288.1 77.901 289.369 78.4783C289.955 78.7564 290.589 78.9185 291.236 78.9558C291.338 78.955 291.44 78.9488 291.541 78.9374L291.595 78.9324C291.88 78.8827 292.15 78.7706 292.387 78.604C292.624 78.4375 292.821 78.2207 292.964 77.9691C293.105 77.6521 293.135 77.2966 293.047 76.9608C292.966 76.8503 292.854 76.7662 292.725 76.7191Z" fill="white"/>
<path d="M289.217 68C287.248 67.9947 285.357 68.7708 283.959 70.1581C282.561 71.5454 281.77 73.4306 281.761 75.4C281.76 76.7166 282.113 78.0092 282.783 79.1425L281.502 82.9167C281.491 82.9515 281.489 82.9889 281.497 83.0247C281.506 83.0604 281.524 83.0931 281.55 83.1191C281.576 83.145 281.609 83.1633 281.644 83.1717C281.68 83.1801 281.718 83.1784 281.752 83.1667L285.692 81.9167C286.824 82.5203 288.093 82.8219 289.376 82.7925C290.659 82.763 291.912 82.4035 293.016 81.7486C294.119 81.0937 295.036 80.1655 295.676 79.0535C296.317 77.9415 296.66 76.6832 296.672 75.4C296.663 73.4309 295.872 71.546 294.475 70.1587C293.077 68.7715 291.187 67.9951 289.217 68ZM289.217 81.2584C288.063 81.2599 286.933 80.923 285.967 80.2892C285.943 80.2733 285.916 80.2629 285.887 80.2589C285.858 80.2549 285.829 80.2572 285.801 80.2659L283.825 80.8942L284.462 79.015C284.472 78.9848 284.475 78.9525 284.471 78.9209C284.466 78.8893 284.454 78.8592 284.435 78.8334C283.703 77.8385 283.309 76.6352 283.311 75.4C283.301 74.23 283.64 73.0835 284.283 72.1061C284.926 71.1286 285.845 70.3643 286.923 69.91C288.002 69.4557 289.191 69.332 290.339 69.5544C291.488 69.7769 292.545 70.3356 293.376 71.1596C294.206 71.9837 294.773 73.0359 295.005 74.1828C295.237 75.3297 295.123 76.5196 294.677 77.6015C294.232 78.6834 293.475 79.6086 292.503 80.2597C291.53 80.9107 290.387 81.2583 289.217 81.2584Z" fill="white"/>
<path d="M171.82 127H298.703C301.316 127 303.823 128.038 305.671 129.886C307.519 131.734 308.557 134.241 308.557 136.854V154.59H171.82C168.162 154.59 164.653 153.137 162.065 150.552C159.478 147.966 158.023 144.458 158.02 140.8C158.02 137.14 159.474 133.63 162.062 131.042C164.65 128.454 168.16 127 171.82 127Z" fill="#00AEEF"/>
<text fill="white" xml:space="preserve" style="white-space: pre" font-family="Harmattan" font-size="15" letter-spacing="0em"><tspan x="175.492" y="144.087">&#x625;&#x62a;&#x642;&#x627;&#x646; &#x627;&#x633;&#x62a;&#x62e;&#x62f;&#x627;&#x645; &#x627;&#x644;&#x643;&#x645;&#x628;&#x64a;&#x648;&#x62a;&#x631;</tspan></text>
<path d="M306.618 255.438H205.618V262.438H306.618V255.438Z" fill="#949598"/>
<path d="M299.618 255.438H205.618V262.438H299.618V255.438Z" fill="#00AEEF"/>
<path d="M301.603 254C302.635 254 303.624 254.479 304.353 255.333C305.082 256.186 305.492 257.343 305.492 258.55V259.446C305.493 260.044 305.392 260.636 305.197 261.189C305.002 261.741 304.715 262.243 304.354 262.666C303.993 263.089 303.564 263.424 303.092 263.653C302.62 263.882 302.114 264 301.603 264C301.195 264 300.79 263.906 300.412 263.723C300.034 263.539 299.691 263.271 299.402 262.933C299.113 262.594 298.884 262.192 298.728 261.75C298.572 261.308 298.492 260.834 298.492 260.356V257.64C298.492 256.675 298.82 255.749 299.403 255.066C299.987 254.384 300.778 254 301.603 254Z" fill="black"/>
<path d="M308.492 260C309.597 260 310.492 259.105 310.492 258C310.492 256.895 309.597 256 308.492 256C307.388 256 306.492 256.895 306.492 258C306.492 259.105 307.388 260 308.492 260Z" fill="#231F20"/>
<path d="M306.618 166.438H205.618V173.438H306.618V166.438Z" fill="#949598"/>
<path d="M306.618 189.438H205.618V195.437H306.618V189.438Z" fill="#949598"/>
<path d="M306.618 210.438H205.618V215.438H306.618V210.438Z" fill="#949598"/>
<path d="M306.618 233.438H205.618V239.437H306.618V233.438Z" fill="#949598"/>
<path d="M299.618 166.438H205.618V173.438H299.618V166.438Z" fill="#00AEEF"/>
<path d="M280.618 189.438H205.618V195.437H280.618V189.438Z" fill="#00AEEF"/>
<path d="M269.618 210.438H205.618V215.438H269.618V210.438Z" fill="#00AEEF"/>
<path d="M269.618 233.438H205.618V239.437H269.618V233.438Z" fill="#00AEEF"/>
<path d="M308.492 172C309.597 172 310.492 171.105 310.492 170C310.492 168.895 309.597 168 308.492 168C307.388 168 306.492 168.895 306.492 170C306.492 171.105 307.388 172 308.492 172Z" fill="#231F20"/>
<path d="M308.618 194.438C309.723 194.438 310.618 193.542 310.618 192.438C310.618 191.333 309.723 190.438 308.618 190.438C307.514 190.438 306.618 191.333 306.618 192.438C306.618 193.542 307.514 194.438 308.618 194.438Z" fill="#231F20"/>
<path d="M297.729 164.438C298.761 164.438 299.75 164.917 300.479 165.77C301.208 166.623 301.618 167.781 301.618 168.988V169.884C301.619 170.482 301.518 171.074 301.323 171.626C301.128 172.179 300.841 172.681 300.48 173.104C300.119 173.526 299.69 173.862 299.218 174.091C298.746 174.32 298.24 174.438 297.729 174.438C297.321 174.438 296.916 174.343 296.538 174.16C296.16 173.977 295.817 173.708 295.528 173.37C295.239 173.032 295.01 172.63 294.854 172.188C294.698 171.746 294.618 171.272 294.618 170.794V168.078C294.618 167.112 294.946 166.186 295.529 165.504C296.113 164.821 296.904 164.438 297.729 164.438Z" fill="black"/>
<path d="M280.729 187.438C281.761 187.438 282.75 187.869 283.479 188.637C284.208 189.405 284.618 190.446 284.618 191.533V192.339C284.619 192.877 284.518 193.41 284.323 193.907C284.128 194.405 283.841 194.856 283.48 195.237C283.119 195.618 282.69 195.919 282.218 196.125C281.746 196.331 281.24 196.438 280.729 196.438C280.321 196.438 279.916 196.353 279.538 196.188C279.16 196.023 278.817 195.781 278.528 195.477C278.239 195.172 278.01 194.811 277.854 194.413C277.698 194.015 277.618 193.589 277.618 193.158V190.714C277.618 189.845 277.946 189.011 278.529 188.397C279.113 187.783 279.904 187.438 280.729 187.438Z" fill="black"/>
<path d="M272.603 208.438C273.635 208.438 274.624 208.869 275.353 209.637C276.082 210.405 276.492 211.446 276.492 212.533V213.339C276.493 213.877 276.392 214.41 276.197 214.907C276.002 215.405 275.715 215.856 275.354 216.237C274.993 216.618 274.564 216.919 274.092 217.125C273.62 217.331 273.114 217.438 272.603 217.438C272.195 217.438 271.79 217.353 271.412 217.188C271.034 217.023 270.691 216.781 270.402 216.477C270.113 216.172 269.884 215.811 269.728 215.413C269.572 215.015 269.492 214.589 269.492 214.158V211.714C269.492 210.845 269.82 210.011 270.403 209.397C270.987 208.783 271.778 208.438 272.603 208.438Z" fill="black"/>
<path d="M270.603 231.438C271.635 231.438 272.624 231.917 273.353 232.77C274.082 233.623 274.492 234.781 274.492 235.988V236.884C274.493 237.482 274.392 238.074 274.197 238.626C274.002 239.179 273.715 239.681 273.354 240.104C272.993 240.526 272.564 240.862 272.092 241.091C271.62 241.32 271.114 241.438 270.603 241.438C270.195 241.438 269.79 241.343 269.412 241.16C269.034 240.977 268.691 240.708 268.402 240.37C268.113 240.032 267.884 239.63 267.728 239.188C267.572 238.746 267.492 238.272 267.492 237.794V235.078C267.492 234.112 267.82 233.186 268.403 232.504C268.987 231.821 269.778 231.438 270.603 231.438Z" fill="black"/>
<path d="M308.618 215.438C309.723 215.438 310.618 214.318 310.618 212.938C310.618 211.557 309.723 210.438 308.618 210.438C307.514 210.438 306.618 211.557 306.618 212.938C306.618 214.318 307.514 215.438 308.618 215.438Z" fill="#231F20"/>
<path d="M308.618 238.438C309.723 238.438 310.618 237.542 310.618 236.438C310.618 235.333 309.723 234.438 308.618 234.438C307.514 234.438 306.618 235.333 306.618 236.438C306.618 237.542 307.514 238.438 308.618 238.438Z" fill="#231F20"/>
<text fill="#FF0040" xml:space="preserve" style="white-space: pre" font-family="Bahij TheSansArabic" font-size="13" font-weight="500" letter-spacing="0em"><tspan x="36.6182" y="174.698">Microsoft Word</tspan></text>
<text fill="#FF0040" xml:space="preserve" style="white-space: pre" font-family="Bahij TheSansArabic" font-size="13" font-weight="500" letter-spacing="0em"><tspan x="37.6182" y="197.698">Microsoft Excel</tspan></text>
<text fill="#FF0040" xml:space="preserve" style="white-space: pre" font-family="Bahij TheSansArabic" font-size="13" font-weight="500" letter-spacing="0em"><tspan x="37.6182" y="218.698">Microsoft Excel VBA</tspan></text>
<text fill="#FF0040" xml:space="preserve" style="white-space: pre" font-family="Bahij TheSansArabic" font-size="13" font-weight="500" letter-spacing="0em"><tspan x="37.6182" y="241.698">Microsoft PowerPoint </tspan></text>
<text fill="#FF0040" xml:space="preserve" style="white-space: pre" font-family="Harmattan" font-size="14" font-weight="bold" letter-spacing="-0.05em"><tspan x="38" y="261.881">&#x627;&#x644;&#x643;&#x62a;&#x627;&#x628;&#x629; &#x627;&#x644;&#x633;&#x631;&#x64a;&#x639;&#x647; &#x639;&#x644;&#x64a; &#x644;&#x648;&#x62d;&#x629; &#x627;&#x644;&#x645;&#x641;&#x627;&#x62a;&#x64a;&#x62d;</tspan></text>
<path d="M169.068 287H298.046C299.226 287 300.394 287.232 301.484 287.684C302.574 288.135 303.564 288.797 304.398 289.631C305.232 290.465 305.894 291.455 306.345 292.545C306.797 293.635 307.029 294.803 307.029 295.983V312.152H169.068C165.733 312.152 162.534 310.827 160.176 308.469C157.817 306.11 156.492 302.911 156.492 299.576C156.492 296.241 157.817 293.042 160.176 290.683C162.534 288.325 165.733 287 169.068 287Z" fill="#00AEEF"/>
<text fill="white" xml:space="preserve" style="white-space: pre" font-family="Harmattan" font-size="15" font-weight="bold" letter-spacing="0em"><tspan x="220.629" y="303.087">&#x627;&#x644;&#x628;&#x631;&#x645;&#x62c;&#x629;</tspan></text>
<text fill="#FF0040" xml:space="preserve" style="white-space: pre" font-family="Bahij TheSansArabic" font-size="13" font-weight="500" letter-spacing="0em"><tspan x="38.5254" y="341.261">DART</tspan></text>
<text fill="#FF0040" xml:space="preserve" style="white-space: pre" font-family="Bahij TheSansArabic" font-size="13" font-weight="500" letter-spacing="0em"><tspan x="44.5684" y="365.261">LUTTER</tspan></text>
<text fill="#00BBFF" xml:space="preserve" style="white-space: pre" font-family="Bahij TheSansArabic" font-size="13" font-weight="500" letter-spacing="0em"><tspan x="38.5254" y="365.261">F</tspan></text>
<text fill="#FF0040" xml:space="preserve" style="white-space: pre" font-family="Bahij TheSansArabic" font-size="13" font-weight="500" letter-spacing="0em"><tspan x="38.5254" y="386.261">C#</tspan></text>
<text fill="#FF0040" xml:space="preserve" style="white-space: pre" font-family="Bahij TheSansArabic" font-size="13" font-weight="500" letter-spacing="0em"><tspan x="38.5254" y="413.261">Visual Basic</tspan></text>
<text fill="#FF0040" xml:space="preserve" style="white-space: pre" font-family="Bahij TheSansArabic" font-size="13" font-weight="500" letter-spacing="0em"><tspan x="38.5254" y="439.261">Python </tspan></text>
<path d="M301.217 331.568H205.217V337.568H301.217V331.568Z" fill="#949598"/>
<path d="M301.217 357.568H205.217V363.568H301.217V357.568Z" fill="#949598"/>
<path d="M301.217 382.568H205.217V388.568H301.217V382.568Z" fill="#949598"/>
<path d="M301.217 406.568H205.217V411.568H301.217V406.568Z" fill="#949598"/>
<path d="M301.217 433.568H205.217V438.568H301.217V433.568Z" fill="#949598"/>
<path d="M260.217 331.568H205.217V337.568H260.217V331.568Z" fill="#00AEEF"/>
<path d="M270.217 357.568H205.217V363.568H270.217V357.568Z" fill="#00AEEF"/>
<path d="M253.217 382.568H205.217V388.568H253.217V382.568Z" fill="#00AEEF"/>
<path d="M255.217 406.568H205.217V411.568H255.217V406.568Z" fill="#00AEEF"/>
<path d="M234.217 433.568H205.217V438.568H234.217V433.568Z" fill="#00AEEF"/>
<path d="M264.217 330.568C265.543 330.568 266.815 330.952 267.753 331.634C268.691 332.317 269.217 333.243 269.217 334.208V334.925C269.218 335.404 269.089 335.877 268.838 336.319C268.587 336.761 268.219 337.163 267.754 337.501C267.29 337.84 266.739 338.108 266.132 338.291C265.525 338.474 264.874 338.568 264.217 338.568C263.692 338.568 263.171 338.493 262.686 338.346C262.2 338.2 261.759 337.985 261.387 337.714C261.016 337.444 260.721 337.122 260.521 336.769C260.32 336.415 260.217 336.036 260.217 335.653V333.481C260.217 332.708 260.639 331.967 261.389 331.421C262.139 330.875 263.157 330.568 264.217 330.568Z" fill="black"/>
<path d="M269.217 356.568C270.543 356.568 271.815 356.952 272.753 357.634C273.691 358.317 274.217 359.243 274.217 360.208V360.925C274.218 361.404 274.089 361.877 273.838 362.319C273.587 362.761 273.219 363.163 272.754 363.501C272.29 363.84 271.739 364.108 271.132 364.291C270.525 364.474 269.874 364.568 269.217 364.568C268.692 364.568 268.171 364.493 267.686 364.346C267.2 364.2 266.759 363.985 266.387 363.714C266.016 363.444 265.721 363.122 265.521 362.769C265.32 362.415 265.217 362.036 265.217 361.653V359.481C265.217 358.708 265.639 357.967 266.389 357.421C267.139 356.875 268.157 356.568 269.217 356.568Z" fill="black"/>
<path d="M248.217 380.568C249.543 380.568 250.815 381 251.753 381.768C252.691 382.536 253.217 383.577 253.217 384.663V385.47C253.218 386.008 253.089 386.541 252.838 387.038C252.587 387.535 252.219 387.987 251.754 388.368C251.29 388.748 250.739 389.05 250.132 389.256C249.525 389.462 248.874 389.568 248.217 389.568C247.692 389.568 247.171 389.484 246.686 389.319C246.2 389.154 245.759 388.912 245.387 388.608C245.016 388.303 244.721 387.941 244.521 387.544C244.32 387.146 244.217 386.719 244.217 386.289V383.845C244.217 382.976 244.639 382.142 245.389 381.528C246.139 380.914 247.157 380.568 248.217 380.568Z" fill="black"/>
<path d="M255.662 404.568C257.135 404.568 258.548 405 259.59 405.768C260.632 406.536 261.217 407.577 261.217 408.663V409.47C261.218 410.008 261.075 410.541 260.796 411.038C260.517 411.535 260.108 411.987 259.592 412.368C259.076 412.748 258.463 413.05 257.789 413.256C257.115 413.462 256.392 413.568 255.662 413.568C255.078 413.568 254.5 413.484 253.96 413.319C253.42 413.154 252.93 412.912 252.518 412.608C252.105 412.303 251.777 411.941 251.554 411.544C251.331 411.146 251.217 410.719 251.217 410.289V407.845C251.217 406.976 251.686 406.142 252.519 405.528C253.353 404.914 254.483 404.568 255.662 404.568Z" fill="black"/>
<path d="M231.217 431.568C232.543 431.568 233.815 432 234.753 432.768C235.691 433.536 236.217 434.577 236.217 435.663V436.47C236.218 437.008 236.089 437.541 235.838 438.038C235.587 438.535 235.219 438.987 234.754 439.368C234.29 439.748 233.739 440.05 233.132 440.256C232.525 440.462 231.874 440.568 231.217 440.568C230.692 440.568 230.171 440.484 229.686 440.319C229.2 440.154 228.759 439.912 228.387 439.608C228.016 439.303 227.721 438.941 227.521 438.544C227.32 438.146 227.217 437.719 227.217 437.289V434.845C227.217 433.976 227.639 433.142 228.389 432.528C229.139 431.914 230.157 431.568 231.217 431.568Z" fill="black"/>
<path d="M305.717 336.568C307.098 336.568 308.217 335.673 308.217 334.568C308.217 333.464 307.098 332.568 305.717 332.568C304.337 332.568 303.217 333.464 303.217 334.568C303.217 335.673 304.337 336.568 305.717 336.568Z" fill="#231F20"/>
<path d="M305.717 362.568C307.098 362.568 308.217 361.673 308.217 360.568C308.217 359.464 307.098 358.568 305.717 358.568C304.337 358.568 303.217 359.464 303.217 360.568C303.217 361.673 304.337 362.568 305.717 362.568Z" fill="#231F20"/>
<path d="M305.717 387.568C307.098 387.568 308.217 386.673 308.217 385.568C308.217 384.464 307.098 383.568 305.717 383.568C304.337 383.568 303.217 384.464 303.217 385.568C303.217 386.673 304.337 387.568 305.717 387.568Z" fill="#231F20"/>
<path d="M305.717 410.568C307.098 410.568 308.217 409.673 308.217 408.568C308.217 407.464 307.098 406.568 305.717 406.568C304.337 406.568 303.217 407.464 303.217 408.568C303.217 409.673 304.337 410.568 305.717 410.568Z" fill="#231F20"/>
<path d="M305.717 437.568C307.098 437.568 308.217 436.673 308.217 435.568C308.217 434.464 307.098 433.568 305.717 433.568C304.337 433.568 303.217 434.464 303.217 435.568C303.217 436.673 304.337 437.568 305.717 437.568Z" fill="#231F20"/>
<path d="M217.487 443.364C217.431 443.11 217.184 442.952 216.954 443.013C216.818 443.074 216.713 443.162 216.654 443.264C216.596 443.366 216.586 443.477 216.626 443.583L216.668 443.771L217.1 443.661L216.673 443.775C216.688 443.852 216.726 443.926 216.785 443.993C216.826 444.045 216.879 444.103 216.936 444.171C217.16 444.405 217.359 444.649 217.531 444.902C217.661 445.124 217.934 445.191 218.136 445.052C218.244 444.961 218.314 444.853 218.338 444.738C218.362 444.624 218.341 444.507 218.277 444.4C218.076 444.092 217.838 443.794 217.567 443.51C217.526 443.465 217.52 443.487 217.511 443.48L217.487 443.364Z" fill="#FFFFFE"/>
<path d="M216.061 444.758C216.005 445.012 215.759 445.17 215.529 445.109C214.975 444.968 215.203 444.284 215.506 443.953C215.73 443.719 215.929 443.475 216.101 443.222C216.231 443 216.503 442.933 216.706 443.072C216.814 443.164 216.883 443.272 216.908 443.386C216.932 443.501 216.911 443.617 216.847 443.724C216.665 444.034 216.09 444.574 216.055 444.758H216.061Z" fill="#FFFFFE"/>
<path d="M177.421 470.808H154.366C152.63 470.808 151.222 471.761 151.222 472.937V485.711C151.222 486.886 152.63 487.84 154.366 487.84H177.421C179.157 487.84 180.564 486.886 180.564 485.711V472.937C180.564 471.761 179.157 470.808 177.421 470.808Z" fill="#29B71C"/>
<path d="M175.324 485.001H156.462C156.184 485.001 155.917 484.927 155.721 484.793C155.524 484.66 155.414 484.48 155.414 484.292C155.414 484.103 155.524 483.923 155.721 483.79C155.917 483.657 156.184 483.582 156.462 483.582H175.324C175.602 483.582 175.869 483.657 176.065 483.79C176.262 483.923 176.372 484.103 176.372 484.292C176.372 484.48 176.262 484.66 176.065 484.793C175.869 484.927 175.602 485.001 175.324 485.001Z" fill="#EEEEEE"/>
<path d="M169.037 485.711C168.76 485.711 168.493 485.636 168.296 485.503C168.1 485.37 167.99 485.189 167.99 485.001V483.582C167.99 483.394 168.1 483.213 168.296 483.08C168.493 482.947 168.76 482.872 169.037 482.872C169.315 482.872 169.582 482.947 169.778 483.08C169.975 483.213 170.085 483.394 170.085 483.582V485.001C170.085 485.189 169.975 485.37 169.778 485.503C169.582 485.636 169.315 485.711 169.037 485.711Z" fill="#00AEEF"/>
<path d="M170.557 476.96L163.222 474.476C163.062 474.422 162.885 474.396 162.706 474.401C162.528 474.406 162.354 474.442 162.202 474.505C162.05 474.569 161.924 474.657 161.836 474.763C161.749 474.868 161.703 474.987 161.702 475.108V480.7C161.703 480.827 161.755 480.95 161.85 481.059C161.946 481.168 162.083 481.257 162.247 481.317C162.399 481.379 162.573 481.411 162.75 481.41C162.946 481.41 163.139 481.373 163.305 481.303L170.641 478.195C170.8 478.128 170.929 478.033 171.016 477.921C171.102 477.809 171.143 477.683 171.133 477.556C171.123 477.431 171.065 477.31 170.964 477.206C170.863 477.101 170.722 477.016 170.557 476.96Z" fill="#EEEEEE"/>
<path d="M154.366 470.808C153.532 470.808 152.733 471.032 152.143 471.431C151.553 471.83 151.222 472.372 151.222 472.937V485.711C151.222 486.275 151.553 486.817 152.143 487.216C152.733 487.615 153.532 487.84 154.366 487.84H165.893V470.808H154.366Z" fill="#E53935"/>
<path d="M156.462 483.582C156.184 483.582 155.917 483.657 155.721 483.79C155.524 483.923 155.414 484.103 155.414 484.292C155.414 484.48 155.524 484.66 155.721 484.793C155.917 484.927 156.184 485.001 156.462 485.001H165.893V483.582H156.462Z" fill="#FAFAFA"/>
<path d="M163.222 474.476C163.062 474.422 162.885 474.396 162.706 474.401C162.528 474.406 162.354 474.442 162.202 474.505C162.05 474.569 161.924 474.657 161.836 474.763C161.749 474.868 161.703 474.987 161.702 475.108V480.7C161.703 480.827 161.755 480.95 161.85 481.059C161.946 481.168 162.083 481.257 162.247 481.317C162.399 481.379 162.573 481.411 162.75 481.41C162.946 481.41 163.139 481.373 163.305 481.303L165.894 480.203V475.378L163.222 474.476Z" fill="#00AEEF"/>
<path d="M211.374 473.231H214.797L209.907 470V472.262C209.907 472.797 210.564 473.231 211.374 473.231Z" fill="#00AEEF"/>
<path d="M209.374 471.615H189.123V477.269H209.374C209.668 477.269 209.907 477.128 209.907 476.955V471.929C209.907 471.756 209.668 471.615 209.374 471.615Z" fill="#C6CACF"/>
<path d="M208.164 477.269H185.977C185.513 477.269 185.281 476.883 185.609 476.656L189.408 474.038L185.609 471.42C185.281 471.194 185.513 470.808 185.977 470.808H208.164C208.451 470.808 208.685 470.968 208.685 471.167V476.91C208.685 477.108 208.451 477.269 208.164 477.269Z" fill="#00AEEF"/>
<path d="M197.136 472.93H195.118C194.839 472.93 194.614 473.079 194.614 473.263V475.263C194.614 475.447 194.839 475.597 195.118 475.597C195.397 475.597 195.623 475.447 195.623 475.263V474.596H197.136C197.415 474.596 197.641 474.447 197.641 474.263V473.263C197.641 473.079 197.415 472.93 197.136 472.93ZM196.632 473.93H195.623V473.596H196.632V473.93Z" fill="white"/>
<path d="M199.659 472.93H198.65C198.371 472.93 198.146 473.079 198.146 473.263V475.263C198.146 475.447 198.371 475.597 198.65 475.597H200.668C200.947 475.597 201.173 475.447 201.173 475.263V473.93C201.173 473.378 200.494 472.93 199.659 472.93ZM200.164 474.93H199.155V473.596H199.659C199.937 473.596 200.164 473.746 200.164 473.93L200.164 474.93Z" fill="white"/>
<path d="M204.201 472.93H202.182C201.904 472.93 201.678 473.079 201.678 473.263V475.263C201.678 475.447 201.904 475.597 202.182 475.597C202.461 475.597 202.687 475.447 202.687 475.263V474.596H203.696C203.975 474.596 204.201 474.447 204.201 474.263C204.201 474.079 203.975 473.93 203.696 473.93H202.687V473.596H204.201C204.479 473.596 204.705 473.447 204.705 473.263C204.705 473.079 204.479 472.93 204.201 472.93Z" fill="white"/>
<path d="M209.41 488.577H194.51C194.236 488.577 194.013 488.42 194.013 488.227V478.427C194.013 478.234 194.236 478.077 194.51 478.077H209.41C209.685 478.077 209.907 478.234 209.907 478.427V488.227C209.907 488.42 209.685 488.577 209.41 488.577Z" fill="#C6CACF"/>
<path d="M195.007 487.877V478.077H194.51C194.236 478.077 194.013 478.234 194.013 478.427V488.227C194.013 488.42 194.236 488.577 194.51 488.577H209.41C209.685 488.577 209.907 488.42 209.907 488.227V487.877H195.007Z" fill="#00AEEF"/>
<path d="M208.214 486.961H203.042C202.782 486.961 202.572 486.806 202.572 486.615V482.461C202.572 482.27 202.782 482.115 203.042 482.115H208.214C208.474 482.115 208.684 482.27 208.684 482.461V486.615C208.684 486.806 208.474 486.961 208.214 486.961Z" fill="black"/>
<path d="M207.462 482.923H203.794V486.154H207.462V482.923Z" fill="#00AEEF"/>
<path d="M208.238 480.263H202.687C202.409 480.263 202.183 480.114 202.183 479.93C202.183 479.746 202.409 479.597 202.687 479.597H208.238C208.517 479.597 208.742 479.746 208.742 479.93C208.742 480.114 208.516 480.263 208.238 480.263Z" fill="#EF0000"/>
<path d="M208.238 481.597H202.687C202.409 481.597 202.183 481.448 202.183 481.264C202.183 481.08 202.409 480.931 202.687 480.931H208.238C208.517 480.931 208.742 481.08 208.742 481.264C208.742 481.448 208.516 481.597 208.238 481.597Z" fill="#EF0000"/>
<path d="M201.173 480.263H196.127C195.848 480.263 195.622 480.114 195.622 479.93C195.622 479.746 195.848 479.597 196.127 479.597H201.173C201.452 479.597 201.678 479.746 201.678 479.93C201.678 480.114 201.452 480.263 201.173 480.263Z" fill="#EF0000"/>
<path d="M201.173 481.597H196.127C195.848 481.597 195.622 481.448 195.622 481.264C195.622 481.08 195.848 480.931 196.127 480.931H201.173C201.452 480.931 201.677 481.08 201.677 481.264C201.677 481.448 201.452 481.597 201.173 481.597Z" fill="#EF0000"/>
<path d="M201.173 482.93H196.127C195.848 482.93 195.622 482.781 195.622 482.597C195.622 482.413 195.848 482.264 196.127 482.264H201.173C201.452 482.264 201.677 482.413 201.677 482.597C201.677 482.781 201.452 482.93 201.173 482.93Z" fill="#EF0000"/>
<path d="M201.173 484.263H196.127C195.848 484.263 195.622 484.114 195.622 483.93C195.622 483.746 195.848 483.597 196.127 483.597H201.173C201.452 483.597 201.677 483.746 201.677 483.93C201.677 484.114 201.452 484.263 201.173 484.263Z" fill="#EF0000"/>
<path d="M201.173 485.597H196.127C195.848 485.597 195.622 485.448 195.622 485.264C195.622 485.08 195.848 484.931 196.127 484.931H201.173C201.452 484.931 201.677 485.08 201.677 485.264C201.677 485.448 201.452 485.597 201.173 485.597Z" fill="#EF0000"/>
<path d="M201.173 486.93H196.127C195.848 486.93 195.622 486.781 195.622 486.597C195.622 486.413 195.848 486.264 196.127 486.264H201.173C201.452 486.264 201.677 486.413 201.677 486.597C201.677 486.781 201.452 486.93 201.173 486.93Z" fill="#EF0000"/>
<path d="M119.435 488.173V490.193H147.554V488.173L133.559 486.962L119.435 488.173Z" fill="#EEEEEE"/>
<path d="M119.435 486.557V488.576H147.554V486.557L133.559 485.346L119.435 486.557Z" fill="#DCDCDC"/>
<path d="M147.555 471.615V486.154H145.721L141.442 478.884L145.721 471.615H147.555Z" fill="#EEEEEE"/>
<path d="M146.332 471.615V472.844L141.902 478.884L146.332 484.925V486.154H119.435V471.615H146.332Z" fill="white"/>
<path d="M120.658 472.423V481.637L133.495 482.923L146.333 481.637V472.423H120.658Z" fill="#29B71C"/>
<path d="M134.106 474.038V477.269C134.781 477.269 135.329 476.546 135.329 475.653C135.329 474.761 134.781 474.038 134.106 474.038Z" fill="#FE5F1A"/>
<path d="M133.617 474.038C133.887 474.038 134.106 474.761 134.106 475.653C134.106 476.546 133.887 477.269 133.617 477.269C132.537 477.269 131.661 476.546 131.661 475.653C131.661 474.761 132.537 474.038 133.617 474.038Z" fill="#00AEEF"/>
<path d="M146.332 483.731L138.997 479.692L144.45 480.337L146.332 481.639L146.332 483.731Z" fill="#027372"/>
<path d="M143.366 480.568L139.878 478.885L135.384 480.568L132.884 482.23L138.652 485.346H146.332V483.108L143.366 480.568Z" fill="#E53935"/>
<path d="M145.109 480.443L144.084 480.5L140.219 479.305V477.27L145.109 480.443Z" fill="#EEEEEE"/>
<path d="M135.328 480.5L139.458 477.27L142.664 480.5L135.328 480.5Z" fill="white"/>
<path d="M137.774 485.346H135.538L126.77 479.692L131.627 480.364L137.774 485.346Z" fill="#027372"/>
<path d="M130.055 480.568L135.329 485.346H120.658V481.871L122.511 480.568L126.758 478.885L130.055 480.568Z" fill="#00AEEF"/>
<path d="M131.661 480.443L130.636 480.5L126.77 479.305V477.27L131.661 480.443Z" fill="#EEEEEE"/>
<path d="M121.88 480.5L126.699 477.27L130.439 480.5L121.88 480.5Z" fill="white"/>
<path d="M148.289 489.385C148.02 489.385 147.802 489.54 147.802 489.731V490.308H119.188V489.731C119.188 489.54 118.969 489.385 118.7 489.385C118.431 489.385 118.212 489.54 118.212 489.731V490.654C118.212 490.845 118.431 491 118.7 491H148.289C148.559 491 148.777 490.845 148.777 490.654V489.731C148.777 489.54 148.559 489.385 148.289 489.385Z" fill="#00AEEF"/>
<path d="M148.289 486.962C148.02 486.962 147.802 487.117 147.802 487.308V487.885H119.188V487.308C119.188 487.117 118.969 486.962 118.7 486.962C118.431 486.962 118.212 487.117 118.212 487.308V488.231C118.212 488.422 118.431 488.577 118.7 488.577H148.289C148.559 488.577 148.777 488.422 148.777 488.231V487.308C148.777 487.117 148.559 486.962 148.289 486.962Z" fill="#00AEEF"/>
<path d="M148.289 470.808H118.7C118.431 470.808 118.212 470.954 118.212 471.135V486.634C118.212 486.815 118.431 486.961 118.7 486.961H148.289C148.559 486.961 148.777 486.815 148.777 486.634V471.135C148.777 470.954 148.559 470.808 148.289 470.808ZM147.802 486.307H119.188V471.462H147.802V486.307Z" fill="#00AEEF"/>
<path d="M136.552 475.653C136.552 474.763 135.18 474.038 133.495 474.038C131.81 474.038 130.439 474.763 130.439 475.653C130.439 476.544 131.81 477.269 133.495 477.269C135.18 477.269 136.552 476.544 136.552 475.653ZM131.404 475.653C131.404 475.044 132.342 474.548 133.495 474.548C134.648 474.548 135.586 475.044 135.586 475.653C135.586 476.263 134.648 476.759 133.495 476.759C132.342 476.759 131.404 476.263 131.404 475.653Z" fill="black"/>
<path d="M119.435 485.014C119.435 485.197 119.665 485.346 119.949 485.346H147.04C147.324 485.346 147.554 485.197 147.554 485.014V471.947C147.554 471.764 147.324 471.615 147.04 471.615H119.949C119.665 471.615 119.435 471.764 119.435 471.947V474.605C119.435 474.788 119.665 474.937 119.949 474.937C120.233 474.937 120.464 474.788 120.464 474.605V472.28H146.526V480.668L140.631 476.862C140.43 476.732 140.105 476.732 139.904 476.862L133.495 481.001L127.086 476.862C126.884 476.732 126.559 476.732 126.358 476.862L120.464 480.668V475.934C120.464 475.75 120.233 475.602 119.949 475.602C119.665 475.602 119.435 475.75 119.435 475.934V485.014ZM140.267 477.566L143.741 479.809H136.794L140.267 477.566ZM126.722 477.566L130.195 479.809H123.249L126.722 477.566ZM122.22 480.474H131.224L133.13 481.705C133.132 481.706 136.56 483.92 136.56 483.92C136.661 483.985 136.792 484.017 136.924 484.017C137.056 484.017 137.187 483.985 137.288 483.92C137.489 483.79 137.489 483.58 137.288 483.45L134.222 481.47L135.765 480.474H144.77L146.526 481.608V484.682H120.464V481.608L122.22 480.474Z" fill="black"/>
<path fill-rule="evenodd" clip-rule="evenodd" d="M104.846 474.064C105.009 474.064 105.142 474.207 105.142 474.38V480.317H104.551V474.38C104.551 474.204 104.683 474.064 104.846 474.064Z" fill="#FFFFFE"/>
<g filter="url(#filter0_d_0_1)">
<mask id="path-129-inside-1_0_1" fill="white">
<path d="M303.492 466H47.4922H303.492Z"/>
</mask>
<path d="M303.492 466H47.4922H303.492Z" fill="#231F20"/>
<path d="M303.492 466H47.4922H303.492Z" stroke="black" stroke-width="0.6" mask="url(#path-129-inside-1_0_1)"/>
</g>
<path d="M307.19 28C311.232 28 315.183 27.2083 318.543 25.7249C321.904 24.2415 324.523 22.133 326.069 19.6662C327.616 17.1994 328.021 14.485 327.232 11.8663C326.444 9.24754 324.498 6.84209 321.64 4.95408C318.782 3.06607 315.141 1.78031 311.177 1.25941C307.213 0.738507 303.104 1.00584 299.37 2.02763C295.636 3.04941 292.445 4.77976 290.199 6.99982C287.954 9.21989 286.755 11.83 286.755 14.5C286.755 18.0804 288.908 21.5142 292.741 24.0459C296.573 26.5777 301.77 28 307.19 28Z" fill="#14903D"/>
<path d="M307.19 27.5C311.082 27.5 314.887 26.7376 318.123 25.3091C321.359 23.8807 323.881 21.8503 325.37 19.4749C326.86 17.0995 327.249 14.4856 326.49 11.9638C325.731 9.44209 323.857 7.12571 321.105 5.30763C318.352 3.48954 314.846 2.2514 311.029 1.7498C307.212 1.24819 303.255 1.50563 299.66 2.48957C296.064 3.47351 292.991 5.13976 290.829 7.2776C288.666 9.41544 287.512 11.9289 287.512 14.5C287.512 17.9478 289.585 21.2544 293.276 23.6924C296.966 26.1304 301.971 27.5 307.19 27.5Z" stroke="#707070"/>
<path d="M298.95 6.98882H320.035C320.468 7.02109 320.865 7.16418 321.14 7.38741C321.415 7.61063 321.547 7.8962 321.507 8.18282V20.8548C321.509 21.0887 321.421 21.3192 321.252 21.5248C321.223 21.5866 321.176 21.644 321.113 21.6938C321.074 21.7245 321.027 21.7508 320.975 21.7718C320.854 21.8565 320.709 21.9244 320.548 21.9718C320.387 22.0198 320.212 22.0457 320.035 22.0478H307.558C307.648 21.746 307.684 21.4382 307.664 21.1308H319.66L311.827 14.4548L309.24 16.2438C309.194 16.277 309.138 16.3036 309.076 16.3218C309.014 16.3403 308.947 16.3498 308.879 16.3498C308.811 16.3498 308.743 16.3403 308.681 16.3218C308.619 16.3036 308.563 16.277 308.518 16.2438L305.805 14.4548L303.344 16.4548C303.018 16.2732 302.636 16.1417 302.224 16.0698L304.927 13.8698L299.914 10.5568C299.893 10.3202 299.835 10.0856 299.741 9.8568L299.54 9.1378L308.866 15.3078L319.563 7.90779H299.212L298.95 6.98882ZM294.711 12.7608C294.944 13.8106 295.347 14.8409 295.913 15.8338C296.548 16.9205 297.442 17.9333 298.561 18.8338C298.595 18.8654 298.641 18.8905 298.694 18.9068C298.747 18.9229 298.805 18.9298 298.863 18.9268C299.047 18.9078 299.221 18.8605 299.372 18.7888C299.56 18.7045 299.738 18.6109 299.905 18.5088C300.703 18.0598 301.683 17.5008 302.519 18.1278C302.535 18.1421 302.552 18.1558 302.57 18.1688L305.224 20.5478C305.233 20.5568 305.242 20.5658 305.25 20.5748C305.405 20.7533 305.503 20.9509 305.537 21.1555C305.572 21.36 305.543 21.5671 305.451 21.7638C305.257 22.2042 304.915 22.6099 304.45 22.9508C303.933 23.3436 303.215 23.5973 302.433 23.6638C301.729 23.7162 301.018 23.6884 300.329 23.5818C299.258 23.4277 298.267 23.0916 297.453 22.6068C296.498 22.0303 295.657 21.3773 294.947 20.6628L294.887 20.6028C294.501 20.2318 294.085 19.8338 293.696 19.3908C292.129 17.5457 291.058 15.5354 290.531 13.4488C290.02 11.745 290.224 9.98125 291.122 8.3488C291.521 7.58591 292.336 6.9487 293.408 6.56181C293.899 6.41747 294.436 6.3539 294.973 6.37654C295.51 6.39918 296.03 6.50733 296.49 6.69179C296.56 6.7181 296.62 6.75504 296.664 6.79955C296.708 6.84405 296.736 6.89487 296.744 6.9478L297.686 10.3698C297.774 10.5352 297.801 10.712 297.766 10.8858C297.731 11.0597 297.634 11.2257 297.483 11.3698C297.203 11.6078 296.824 11.7867 296.393 11.8848C296.236 11.9367 296.075 11.9828 295.91 12.0228C295.333 12.1758 294.675 12.3548 294.708 12.7748L294.711 12.7608ZM312.671 13.8608L320.359 20.4018V8.5508L312.683 13.8698L312.671 13.8608Z" fill="white"/>
<path d="M309.491 115.958C313.339 115.958 317.1 115.204 320.299 113.792C323.498 112.38 325.992 110.373 327.464 108.024C328.936 105.676 329.322 103.092 328.571 100.599C327.82 98.1055 325.968 95.8155 323.247 94.0181C320.526 92.2208 317.06 90.9968 313.286 90.5009C309.513 90.005 305.601 90.2595 302.046 91.2322C298.492 92.2049 295.453 93.8522 293.316 95.9657C291.178 98.0792 290.037 100.564 290.037 103.106C290.037 106.514 292.087 109.783 295.735 112.194C299.383 114.604 304.331 115.958 309.491 115.958Z" fill="#00AEEF" stroke="#707070"/>
<path d="M310.877 104.367H310.851L309.957 103.685C310.829 103.908 311.796 103.908 312.668 103.685L311.76 104.367H311.743L313.945 107.885L315.957 106.122L318.188 107.23L319.591 105.84C318.099 104.607 316.043 103.726 313.73 103.33C314.633 102.899 315.372 102.337 315.892 101.687C316.412 101.036 316.697 100.316 316.726 99.5805C316.726 98.6309 316.155 97.7202 315.139 97.0487C314.122 96.3772 312.744 96 311.306 96C309.869 96 308.49 96.3772 307.474 97.0487C306.457 97.7202 305.886 98.6309 305.886 99.5805C305.916 100.316 306.202 101.037 306.723 101.687C307.244 102.337 307.985 102.899 308.888 103.33C304.65 104.04 301.492 106.474 301.492 108.28C301.492 109.347 306.4 109.88 311.305 109.88L308.558 108.062L310.877 104.367Z" fill="white"/>
<defs>
<filter id="filter0_d_0_1" x="43.4922" y="465.7" width="264" height="8.59961" filterUnits="userSpaceOnUse" color-interpolation-filters="sRGB">
<feFlood flood-opacity="0" result="BackgroundImageFix"/>
<feColorMatrix in="SourceAlpha" type="matrix" values="0 0 0 0 0 0 0 0 0 0 0 0 0 0 0 0 0 0 127 0" result="hardAlpha"/>
<feOffset dy="4"/>
<feGaussianBlur stdDeviation="2"/>
<feComposite in2="hardAlpha" operator="out"/>
<feColorMatrix type="matrix" values="0 0 0 0 0 0 0 0 0 0 0 0 0 0 0 0 0 0 0.25 0"/>
<feBlend mode="normal" in2="BackgroundImageFix" result="effect1_dropShadow_0_1"/>
<feBlend mode="normal" in="SourceGraphic" in2="effect1_dropShadow_0_1" result="shape"/>
</filter>
</defs>
</svg>
