<svg width="345" height="179" viewBox="0 0 345 179" fill="none" xmlns="http://www.w3.org/2000/svg">
<rect width="345" height="179" fill="#F5F5F5"/>
<path d="M175.324 173.001H156.462C156.184 173.001 155.917 172.927 155.721 172.793C155.524 172.66 155.414 172.48 155.414 172.292C155.414 172.103 155.524 171.923 155.721 171.79C155.917 171.657 156.184 171.582 156.462 171.582H175.324C175.602 171.582 175.869 171.657 176.065 171.79C176.262 171.923 176.372 172.103 176.372 172.292C176.372 172.48 176.262 172.66 176.065 172.793C175.869 172.927 175.602 173.001 175.324 173.001Z" fill="#EEEEEE"/>
<path d="M169.037 173.711C168.76 173.711 168.493 173.636 168.296 173.503C168.1 173.37 167.99 173.189 167.99 173.001V171.582C167.99 171.394 168.1 171.213 168.296 171.08C168.493 170.947 168.76 170.872 169.037 170.872C169.315 170.872 169.582 170.947 169.778 171.08C169.975 171.213 170.085 171.394 170.085 171.582V173.001C170.085 173.189 169.975 173.37 169.778 173.503C169.582 173.636 169.315 173.711 169.037 173.711Z" fill="#00AEEF"/>
<path d="M156.462 171.582C156.184 171.582 155.917 171.657 155.721 171.79C155.524 171.923 155.414 172.103 155.414 172.292C155.414 172.48 155.524 172.66 155.721 172.793C155.917 172.927 156.184 173.001 156.462 173.001H165.893V171.582H156.462Z" fill="#FAFAFA"/>
<path d="M207.462 170.923H203.794V174.154H207.462V170.923Z" fill="#00AEEF"/>
<path d="M201.173 172.264H196.127C195.848 172.264 195.622 172.115 195.622 171.931C195.622 171.747 195.848 171.598 196.127 171.598H201.173C201.452 171.598 201.677 171.747 201.677 171.931C201.677 172.115 201.452 172.264 201.173 172.264Z" fill="#EF0000"/>
<path d="M201.173 173.597H196.127C195.848 173.597 195.622 173.448 195.622 173.264C195.622 173.08 195.848 172.931 196.127 172.931H201.173C201.452 172.931 201.677 173.08 201.677 173.264C201.677 173.448 201.452 173.597 201.173 173.597Z" fill="#EF0000"/>
<path d="M201.173 174.931H196.127C195.848 174.931 195.622 174.782 195.622 174.598C195.622 174.414 195.848 174.265 196.127 174.265H201.173C201.452 174.265 201.677 174.414 201.677 174.598C201.677 174.782 201.452 174.931 201.173 174.931Z" fill="#EF0000"/>
<path d="M119.435 176.173V178.193H147.554V176.173L133.559 174.962L119.435 176.173Z" fill="#EEEEEE"/>
<path d="M119.435 174.558V176.577H147.554V174.558L133.559 173.347L119.435 174.558Z" fill="#DCDCDC"/>
<path d="M148.289 177.385C148.02 177.385 147.802 177.54 147.802 177.731V178.308H119.188V177.731C119.188 177.54 118.969 177.385 118.7 177.385C118.431 177.385 118.212 177.54 118.212 177.731V178.654C118.212 178.845 118.431 179 118.7 179H148.289C148.559 179 148.777 178.845 148.777 178.654V177.731C148.777 177.54 148.559 177.385 148.289 177.385Z" fill="#00AEEF"/>
<path d="M148.289 174.962C148.02 174.962 147.802 175.117 147.802 175.308V175.885H119.188V175.308C119.188 175.117 118.969 174.962 118.7 174.962C118.431 174.962 118.212 175.117 118.212 175.308V176.231C118.212 176.422 118.431 176.577 118.7 176.577H148.289C148.559 176.577 148.777 176.422 148.777 176.231V175.308C148.777 175.117 148.559 174.962 148.289 174.962Z" fill="#00AEEF"/>
<g filter="url(#filter0_d_0_1)">
<mask id="path-12-inside-1_0_1" fill="white">
<path d="M296.492 1H40.4922H296.492Z"/>
</mask>
<path d="M296.492 1H40.4922H296.492Z" fill="#231F20"/>
<path d="M296.492 1H40.4922H296.492Z" stroke="black" stroke-width="0.6" mask="url(#path-12-inside-1_0_1)"/>
</g>
<path d="M0.492188 14L0.492166 75" stroke="white"/>
<path d="M0.492188 14L0.492166 75" stroke="white"/>
<path d="M167.931 8H296.909C298.089 8 299.257 8.23235 300.347 8.68379C301.436 9.13523 302.427 9.79691 303.261 10.6311C304.095 11.4652 304.757 12.4555 305.208 13.5454C305.66 14.6352 305.892 15.8033 305.892 16.983V33.152H167.931C164.596 33.152 161.397 31.827 159.038 29.4686C156.68 27.1101 155.355 23.9114 155.355 20.576C155.355 17.2406 156.68 14.0419 159.038 11.6834C161.397 9.32497 164.596 8 167.931 8Z" fill="#00AEEF"/>
<text fill="white" xml:space="preserve" style="white-space: pre" font-family="Harmattan" font-size="15" font-weight="bold" letter-spacing="0em"><tspan x="182.492" y="24.0872">&#x645;&#x647;&#x627;&#x631;&#x629; &#x627;&#x644;&#x62a;&#x635;&#x645;&#x64a;&#x645; &#x627;&#x644;&#x62c;&#x631;&#x627;&#x641;&#x64a;&#x643;</tspan></text>
<path d="M305.684 53.668C307.065 53.668 308.184 52.9964 308.184 52.168C308.184 51.3395 307.065 50.668 305.684 50.668C304.303 50.668 303.184 51.3395 303.184 52.168C303.184 52.9964 304.303 53.668 305.684 53.668Z" fill="#231F20"/>
<path d="M305.684 85.668C307.065 85.668 308.184 84.9964 308.184 84.168C308.184 83.3395 307.065 82.668 305.684 82.668C304.303 82.668 303.184 83.3395 303.184 84.168C303.184 84.9964 304.303 85.668 305.684 85.668Z" fill="#231F20"/>
<path d="M305.684 68.668C307.065 68.668 308.184 67.9964 308.184 67.168C308.184 66.3395 307.065 65.668 305.684 65.668C304.303 65.668 303.184 66.3395 303.184 67.168C303.184 67.9964 304.303 68.668 305.684 68.668Z" fill="#231F20"/>
<path d="M305.684 105.668C307.065 105.668 308.184 104.996 308.184 104.168C308.184 103.34 307.065 102.668 305.684 102.668C304.303 102.668 303.184 103.34 303.184 104.168C303.184 104.996 304.303 105.668 305.684 105.668Z" fill="#231F20"/>
<path d="M305.684 124.668C307.065 124.668 308.184 123.996 308.184 123.168C308.184 122.34 307.065 121.668 305.684 121.668C304.303 121.668 303.184 122.34 303.184 123.168C303.184 123.996 304.303 124.668 305.684 124.668Z" fill="#231F20"/>
<path d="M305.684 142.668C307.065 142.668 308.184 141.996 308.184 141.168C308.184 140.34 307.065 139.668 305.684 139.668C304.303 139.668 303.184 140.34 303.184 141.168C303.184 141.996 304.303 142.668 305.684 142.668Z" fill="#231F20"/>
<path d="M301.184 81.668H205.184V86.668H301.184V81.668Z" fill="#949598"/>
<path d="M301.184 64.668H205.184V69.668H301.184V64.668Z" fill="#949598"/>
<path d="M301.184 101.668H205.184V106.668H301.184V101.668Z" fill="#949598"/>
<path d="M301.184 120.668H205.184V125.668H301.184V120.668Z" fill="#949598"/>
<path d="M301.184 138.668H205.184V143.668H301.184V138.668Z" fill="#949598"/>
<path d="M301.184 48.668H205.184V53.668H301.184V48.668Z" fill="#949598"/>
<path d="M284.184 81.668H205.184V86.668H284.184V81.668Z" fill="#00AEEF"/>
<path d="M284.184 64.668H205.184V69.668H284.184V64.668Z" fill="#00AEEF"/>
<path d="M293.184 64.668H205.184V69.668H293.184V64.668Z" fill="#00AEEF"/>
<path d="M267.184 101.668H205.184V106.668H267.184V101.668Z" fill="#00AEEF"/>
<path d="M283.184 120.668H205.184V125.668H283.184V120.668Z" fill="#00AEEF"/>
<path d="M283.184 138.668H205.184V143.668H283.184V138.668Z" fill="#00AEEF"/>
<path d="M282.184 48.668H205.184V53.668H282.184V48.668Z" fill="#00AEEF"/>
<path d="M281.629 80.668C283.102 80.668 284.515 81.0515 285.557 81.7341C286.599 82.4167 287.184 83.3426 287.184 84.308V85.025C287.185 85.5033 287.041 85.9769 286.762 86.4189C286.484 86.8609 286.074 87.2625 285.559 87.6008C285.043 87.9391 284.43 88.2075 283.756 88.3906C283.081 88.5737 282.359 88.668 281.629 88.668C281.045 88.668 280.466 88.5925 279.927 88.446C279.387 88.2995 278.897 88.0847 278.484 87.814C278.072 87.5432 277.744 87.2219 277.521 86.8682C277.298 86.5145 277.183 86.1355 277.184 85.7528V83.5802C277.184 82.8078 277.652 82.0671 278.486 81.5209C279.319 80.9748 280.45 80.668 281.629 80.668Z" fill="black"/>
<path d="M295.184 63.668C296.51 63.668 297.782 64.0515 298.72 64.7341C299.657 65.4167 300.184 66.3426 300.184 67.308V68.025C300.185 68.5033 300.056 68.9769 299.805 69.4189C299.554 69.8609 299.185 70.2625 298.721 70.6008C298.257 70.9391 297.705 71.2075 297.099 71.3906C296.492 71.5737 295.841 71.668 295.184 71.668C294.659 71.668 294.138 71.5925 293.653 71.446C293.167 71.2995 292.726 71.0847 292.354 70.814C291.983 70.5432 291.688 70.2219 291.487 69.8682C291.287 69.5145 291.184 69.1355 291.184 68.7528V66.5802C291.184 65.8078 291.606 65.0671 292.356 64.5209C293.106 63.9748 294.123 63.668 295.184 63.668Z" fill="black"/>
<path d="M266.629 100.668C268.102 100.668 269.515 101.051 270.557 101.734C271.599 102.417 272.184 103.343 272.184 104.308V105.025C272.185 105.503 272.041 105.977 271.762 106.419C271.484 106.861 271.074 107.262 270.559 107.601C270.043 107.939 269.43 108.208 268.756 108.391C268.081 108.574 267.359 108.668 266.629 108.668C266.045 108.668 265.466 108.593 264.927 108.446C264.387 108.299 263.897 108.085 263.484 107.814C263.072 107.543 262.744 107.222 262.521 106.868C262.298 106.515 262.183 106.136 262.184 105.753V103.58C262.184 102.808 262.652 102.067 263.486 101.521C264.319 100.975 265.45 100.668 266.629 100.668Z" fill="black"/>
<path d="M283.184 119.668C284.51 119.668 285.782 120.051 286.72 120.734C287.657 121.417 288.184 122.343 288.184 123.308V124.025C288.185 124.503 288.056 124.977 287.805 125.419C287.554 125.861 287.185 126.262 286.721 126.601C286.257 126.939 285.705 127.208 285.099 127.391C284.492 127.574 283.841 127.668 283.184 127.668C282.659 127.668 282.138 127.593 281.653 127.446C281.167 127.299 280.726 127.085 280.354 126.814C279.983 126.543 279.688 126.222 279.487 125.868C279.287 125.515 279.184 125.136 279.184 124.753V122.58C279.184 121.808 279.606 121.067 280.356 120.521C281.106 119.975 282.123 119.668 283.184 119.668Z" fill="black"/>
<path d="M283.184 137.668C284.51 137.668 285.782 138.051 286.72 138.734C287.657 139.417 288.184 140.343 288.184 141.308V142.025C288.185 142.503 288.056 142.977 287.805 143.419C287.554 143.861 287.185 144.262 286.721 144.601C286.257 144.939 285.705 145.208 285.099 145.391C284.492 145.574 283.841 145.668 283.184 145.668C282.659 145.668 282.138 145.593 281.653 145.446C281.167 145.299 280.726 145.085 280.354 144.814C279.983 144.543 279.688 144.222 279.487 143.868C279.287 143.515 279.184 143.136 279.184 142.753V140.58C279.184 139.808 279.606 139.067 280.356 138.521C281.106 137.975 282.123 137.668 283.184 137.668Z" fill="black"/>
<path d="M277.629 47.668C279.102 47.668 280.515 48.0515 281.557 48.7341C282.599 49.4167 283.184 50.3426 283.184 51.308V52.025C283.185 52.5033 283.041 52.9769 282.762 53.4189C282.484 53.8609 282.074 54.2625 281.559 54.6008C281.043 54.9391 280.43 55.2075 279.756 55.3906C279.081 55.5737 278.359 55.668 277.629 55.668C277.045 55.668 276.466 55.5925 275.927 55.446C275.387 55.2995 274.897 55.0847 274.484 54.814C274.072 54.5432 273.744 54.2219 273.521 53.8682C273.298 53.5145 273.183 53.1355 273.184 52.7528V50.5802C273.184 49.8078 273.652 49.0671 274.486 48.5209C275.319 47.9748 276.45 47.668 277.629 47.668Z" fill="black"/>
<path d="M301.184 138.668H205.184V143.668H301.184V138.668Z" fill="#949598"/>
<path d="M283.184 138.668H205.184V143.668H283.184V138.668Z" fill="#00AEEF"/>
<path d="M283.184 137.668C284.51 137.668 285.782 138.051 286.72 138.734C287.657 139.417 288.184 140.343 288.184 141.308V142.025C288.185 142.503 288.056 142.977 287.805 143.419C287.554 143.861 287.185 144.262 286.721 144.601C286.257 144.939 285.705 145.208 285.099 145.391C284.492 145.574 283.841 145.668 283.184 145.668C282.659 145.668 282.138 145.593 281.653 145.446C281.167 145.299 280.726 145.085 280.354 144.814C279.983 144.543 279.688 144.222 279.487 143.868C279.287 143.515 279.184 143.136 279.184 142.753V140.58C279.184 139.808 279.606 139.067 280.356 138.521C281.106 137.975 282.123 137.668 283.184 137.668Z" fill="black"/>
<text fill="#FF0040" xml:space="preserve" style="white-space: pre" font-family="Bahij TheSansArabic" font-size="13" font-weight="500" letter-spacing="0em"><tspan x="40.4922" y="89.261">Adobe InDesign</tspan></text>
<text fill="#FF0040" xml:space="preserve" style="white-space: pre" font-family="Bahij TheSansArabic" font-size="13" font-weight="500" letter-spacing="0em"><tspan x="40.4922" y="108.261">Adobe Illustrator</tspan></text>
<text fill="#FF0040" xml:space="preserve" style="white-space: pre" font-family="Bahij TheSansArabic" font-size="13" font-weight="500" letter-spacing="0em"><tspan x="39.4922" y="126.261"> Luminar Neo AI</tspan></text>
<text fill="#FF0040" xml:space="preserve" style="white-space: pre" font-family="Bahij TheSansArabic" font-size="13" font-weight="500" letter-spacing="0em"><tspan x="40.4922" y="144.261">Adobe XD</tspan></text>
<text fill="#FF0040" xml:space="preserve" style="white-space: pre" font-family="Bahij TheSansArabic" font-size="13" font-weight="500" letter-spacing="0em"><tspan x="40.4922" y="71.261">topaz Photo AI</tspan></text>
<text fill="#FF0040" xml:space="preserve" style="white-space: pre" font-family="Bahij TheSansArabic" font-size="13" font-weight="500" letter-spacing="0em"><tspan x="38.4922" y="54.261">Adobe Photoshop</tspan></text>
<path d="M193.492 52H146.492V51H193.492V52Z" fill="#00AEEF"/>
<path d="M193.492 68H146.492V67H193.492V68Z" fill="#00AEEF"/>
<path d="M193.492 105H146.492V104H193.492V105Z" fill="#00AEEF"/>
<path d="M193.492 123H146.492V122H193.492V123Z" fill="#00AEEF"/>
<path d="M193.492 142H146.492V141H193.492V142Z" fill="#00AEEF"/>
<path d="M193.492 86H146.492V85H193.492V86Z" fill="#00AEEF"/>
<path d="M217.487 164.364C217.431 164.11 217.184 163.952 216.954 164.013C216.818 164.074 216.713 164.162 216.654 164.264C216.596 164.366 216.586 164.477 216.626 164.583L216.668 164.771L217.1 164.661L216.673 164.775C216.688 164.852 216.726 164.926 216.785 164.993C216.826 165.045 216.879 165.103 216.936 165.171C217.16 165.405 217.359 165.649 217.531 165.902C217.661 166.124 217.934 166.191 218.136 166.052C218.244 165.961 218.314 165.853 218.338 165.738C218.362 165.624 218.341 165.507 218.277 165.4C218.076 165.092 217.838 164.794 217.567 164.51C217.526 164.465 217.52 164.487 217.511 164.48L217.487 164.364Z" fill="#FFFFFE"/>
<path d="M216.061 165.758C216.005 166.012 215.759 166.17 215.529 166.109C214.975 165.968 215.203 165.284 215.506 164.953C215.73 164.719 215.929 164.475 216.101 164.222C216.231 164 216.503 163.933 216.706 164.072C216.814 164.164 216.883 164.272 216.908 164.386C216.932 164.501 216.911 164.617 216.847 164.724C216.665 165.034 216.09 165.574 216.055 165.758H216.061Z" fill="#FFFFFE"/>
<path d="M177.421 158.808H154.366C152.63 158.808 151.222 159.761 151.222 160.937V173.711C151.222 174.886 152.63 175.84 154.366 175.84H177.421C179.157 175.84 180.564 174.886 180.564 173.711V160.937C180.564 159.761 179.157 158.808 177.421 158.808Z" fill="#29B71C"/>
<path d="M170.557 164.96L163.222 162.476C163.062 162.422 162.885 162.396 162.706 162.401C162.528 162.406 162.354 162.442 162.202 162.505C162.05 162.569 161.924 162.657 161.836 162.763C161.749 162.868 161.703 162.987 161.702 163.108V168.7C161.704 168.827 161.755 168.95 161.851 169.059C161.946 169.168 162.083 169.257 162.247 169.317C162.399 169.379 162.573 169.411 162.75 169.41C162.946 169.41 163.139 169.373 163.305 169.303L170.641 166.195C170.8 166.128 170.929 166.033 171.016 165.921C171.103 165.809 171.143 165.683 171.134 165.556C171.124 165.431 171.065 165.31 170.964 165.206C170.863 165.101 170.722 165.016 170.557 164.96Z" fill="#EEEEEE"/>
<path d="M154.366 158.808C153.532 158.808 152.733 159.032 152.143 159.431C151.553 159.83 151.222 160.372 151.222 160.937V173.711C151.222 174.275 151.553 174.817 152.143 175.216C152.733 175.615 153.532 175.84 154.366 175.84H165.893V158.808H154.366Z" fill="#E53935"/>
<path d="M163.222 162.476C163.062 162.422 162.885 162.396 162.706 162.401C162.528 162.406 162.354 162.442 162.202 162.505C162.05 162.569 161.924 162.657 161.836 162.763C161.749 162.868 161.703 162.987 161.702 163.108V168.7C161.704 168.827 161.755 168.95 161.851 169.059C161.946 169.168 162.083 169.257 162.247 169.317C162.399 169.379 162.573 169.411 162.75 169.41C162.946 169.41 163.139 169.373 163.305 169.303L165.894 168.203V163.378L163.222 162.476Z" fill="#00AEEF"/>
<path d="M211.374 161.231H214.798L209.907 158V160.262C209.907 160.797 210.564 161.231 211.374 161.231Z" fill="#00AEEF"/>
<path d="M209.374 159.615H189.123V165.269H209.374C209.668 165.269 209.907 165.128 209.907 164.955V159.929C209.907 159.756 209.668 159.615 209.374 159.615Z" fill="#C6CACF"/>
<path d="M208.163 165.269H185.977C185.513 165.269 185.28 164.883 185.609 164.656L189.408 162.038L185.609 159.42C185.28 159.194 185.513 158.808 185.977 158.808H208.163C208.451 158.808 208.684 158.968 208.684 159.167V164.91C208.684 165.108 208.451 165.269 208.163 165.269Z" fill="#00AEEF"/>
<path d="M197.137 160.93H195.118C194.84 160.93 194.614 161.079 194.614 161.263V163.263C194.614 163.447 194.84 163.597 195.118 163.597C195.397 163.597 195.623 163.447 195.623 163.263V162.596H197.137C197.415 162.596 197.641 162.447 197.641 162.263V161.263C197.641 161.079 197.415 160.93 197.137 160.93ZM196.632 161.93H195.623V161.596H196.632V161.93Z" fill="white"/>
<path d="M199.66 160.93H198.65C198.372 160.93 198.146 161.079 198.146 161.263V163.263C198.146 163.447 198.372 163.597 198.65 163.597H200.669C200.947 163.597 201.173 163.447 201.173 163.263V161.93C201.173 161.378 200.494 160.93 199.66 160.93ZM200.164 162.93H199.155V161.596H199.659C199.938 161.596 200.164 161.746 200.164 161.93L200.164 162.93Z" fill="white"/>
<path d="M204.201 160.93H202.183C201.904 160.93 201.678 161.079 201.678 161.263V163.263C201.678 163.447 201.904 163.597 202.183 163.597C202.461 163.597 202.687 163.447 202.687 163.263V162.596H203.696C203.975 162.596 204.201 162.447 204.201 162.263C204.201 162.079 203.975 161.93 203.696 161.93H202.687V161.596H204.201C204.48 161.596 204.706 161.447 204.706 161.263C204.706 161.079 204.48 160.93 204.201 160.93Z" fill="white"/>
<path d="M209.41 176.577H194.51C194.236 176.577 194.013 176.42 194.013 176.227V166.427C194.013 166.234 194.236 166.077 194.51 166.077H209.41C209.685 166.077 209.907 166.234 209.907 166.427V176.227C209.907 176.42 209.684 176.577 209.41 176.577Z" fill="#C6CACF"/>
<path d="M195.007 175.877V166.077H194.51C194.236 166.077 194.013 166.234 194.013 166.427V176.227C194.013 176.42 194.236 176.577 194.51 176.577H209.41C209.685 176.577 209.907 176.42 209.907 176.227V175.877H195.007Z" fill="#00AEEF"/>
<path d="M208.214 174.961H203.041C202.782 174.961 202.571 174.806 202.571 174.615V170.461C202.571 170.27 202.782 170.115 203.041 170.115H208.214C208.474 170.115 208.684 170.27 208.684 170.461V174.615C208.684 174.806 208.474 174.961 208.214 174.961Z" fill="black"/>
<path d="M208.238 168.263H202.687C202.409 168.263 202.183 168.114 202.183 167.93C202.183 167.746 202.409 167.597 202.687 167.597H208.238C208.517 167.597 208.742 167.746 208.742 167.93C208.742 168.114 208.516 168.263 208.238 168.263Z" fill="#EF0000"/>
<path d="M208.238 169.597H202.687C202.409 169.597 202.183 169.448 202.183 169.264C202.183 169.08 202.409 168.931 202.687 168.931H208.238C208.517 168.931 208.742 169.08 208.742 169.264C208.742 169.448 208.516 169.597 208.238 169.597Z" fill="#EF0000"/>
<path d="M201.173 168.263H196.127C195.848 168.263 195.623 168.114 195.623 167.93C195.623 167.746 195.849 167.597 196.127 167.597H201.173C201.452 167.597 201.678 167.746 201.678 167.93C201.678 168.114 201.452 168.263 201.173 168.263Z" fill="#EF0000"/>
<path d="M201.173 169.597H196.127C195.848 169.597 195.623 169.448 195.623 169.264C195.623 169.08 195.849 168.931 196.127 168.931H201.173C201.452 168.931 201.678 169.08 201.678 169.264C201.678 169.448 201.452 169.597 201.173 169.597Z" fill="#EF0000"/>
<path d="M201.173 170.93H196.127C195.848 170.93 195.623 170.781 195.623 170.597C195.623 170.413 195.849 170.264 196.127 170.264H201.173C201.452 170.264 201.678 170.413 201.678 170.597C201.678 170.781 201.452 170.93 201.173 170.93Z" fill="#EF0000"/>
<path d="M147.554 159.615V174.154H145.72L141.441 166.884L145.72 159.615H147.554Z" fill="#EEEEEE"/>
<path d="M146.332 159.615V160.844L141.902 166.884L146.332 172.925V174.154H119.435V159.615H146.332Z" fill="white"/>
<path d="M120.658 160.423V169.637L133.495 170.923L146.333 169.637V160.423H120.658Z" fill="#29B71C"/>
<path d="M134.106 162.038V165.269C134.781 165.269 135.329 164.546 135.329 163.653C135.329 162.761 134.781 162.038 134.106 162.038Z" fill="#FE5F1A"/>
<path d="M133.617 162.038C133.887 162.038 134.106 162.761 134.106 163.653C134.106 164.546 133.887 165.269 133.617 165.269C132.537 165.269 131.661 164.546 131.661 163.653C131.661 162.761 132.537 162.038 133.617 162.038Z" fill="#00AEEF"/>
<path d="M146.332 171.731L138.997 167.692L144.45 168.337L146.332 169.639L146.332 171.731Z" fill="#027372"/>
<path d="M143.366 168.568L139.878 166.885L135.385 168.568L132.884 170.23L138.653 173.346H146.332V171.108L143.366 168.568Z" fill="#E53935"/>
<path d="M145.11 168.443L144.085 168.5L140.219 167.305V165.27L145.11 168.443Z" fill="#EEEEEE"/>
<path d="M135.329 168.5L139.458 165.27L142.664 168.5L135.329 168.5Z" fill="white"/>
<path d="M137.774 173.346H135.538L126.771 167.692L131.627 168.364L137.774 173.346Z" fill="#027372"/>
<path d="M130.055 168.568L135.329 173.346H120.658V169.871L122.511 168.568L126.758 166.885L130.055 168.568Z" fill="#00AEEF"/>
<path d="M131.661 168.443L130.636 168.5L126.771 167.305V165.27L131.661 168.443Z" fill="#EEEEEE"/>
<path d="M121.88 168.5L126.698 165.27L130.439 168.5L121.88 168.5Z" fill="white"/>
<path d="M148.289 158.808H118.7C118.431 158.808 118.212 158.954 118.212 159.135V174.634C118.212 174.815 118.431 174.961 118.7 174.961H148.289C148.559 174.961 148.777 174.815 148.777 174.634V159.135C148.777 158.954 148.559 158.808 148.289 158.808ZM147.802 174.307H119.188V159.462H147.802V174.307Z" fill="#00AEEF"/>
<path d="M136.551 163.653C136.551 162.763 135.18 162.038 133.495 162.038C131.81 162.038 130.438 162.763 130.438 163.653C130.438 164.544 131.81 165.269 133.495 165.269C135.18 165.269 136.551 164.544 136.551 163.653ZM131.404 163.653C131.404 163.044 132.342 162.548 133.495 162.548C134.648 162.548 135.586 163.044 135.586 163.653C135.586 164.263 134.648 164.759 133.495 164.759C132.342 164.759 131.404 164.263 131.404 163.653Z" fill="black"/>
<path d="M119.435 173.014C119.435 173.197 119.665 173.346 119.949 173.346H147.04C147.324 173.346 147.554 173.197 147.554 173.014V159.947C147.554 159.764 147.324 159.615 147.04 159.615H119.949C119.665 159.615 119.435 159.764 119.435 159.947V162.605C119.435 162.788 119.665 162.937 119.949 162.937C120.233 162.937 120.463 162.788 120.463 162.605V160.28H146.525V168.668L140.631 164.862C140.43 164.732 140.104 164.732 139.903 164.862L133.494 169.001L127.085 164.862C126.884 164.732 126.559 164.732 126.358 164.862L120.463 168.668V163.934C120.463 163.75 120.233 163.602 119.949 163.602C119.665 163.602 119.435 163.75 119.435 163.934V173.014ZM140.267 165.566L143.74 167.809H136.794L140.267 165.566ZM126.722 165.566L130.195 167.809H123.248L126.722 165.566ZM122.22 168.474H131.224L133.13 169.705C133.131 169.706 136.56 171.92 136.56 171.92C136.66 171.985 136.792 172.017 136.924 172.017C137.055 172.017 137.187 171.985 137.288 171.92C137.488 171.79 137.488 171.58 137.288 171.45L134.222 169.47L135.765 168.474H144.769L146.526 169.608V172.682H120.463V169.608L122.22 168.474Z" fill="black"/>
<path fill-rule="evenodd" clip-rule="evenodd" d="M104.846 162.064C105.009 162.064 105.142 162.207 105.142 162.38V168.317H104.551V162.38C104.551 162.204 104.683 162.064 104.846 162.064Z" fill="#FFFFFE"/>
<g filter="url(#filter1_d_0_1)">
<mask id="path-94-inside-2_0_1" fill="white">
<path d="M307.492 158H51.4922H307.492Z"/>
</mask>
<path d="M307.492 158H51.4922H307.492Z" fill="#231F20"/>
<path d="M307.492 158H51.4922H307.492Z" stroke="black" stroke-width="0.6" mask="url(#path-94-inside-2_0_1)"/>
</g>
<path d="M343.492 14L343.492 75" stroke="white"/>
<path d="M343.492 14L343.492 75" stroke="white"/>
<defs>
<filter id="filter0_d_0_1" x="36.4922" y="0.700195" width="264" height="8.59961" filterUnits="userSpaceOnUse" color-interpolation-filters="sRGB">
<feFlood flood-opacity="0" result="BackgroundImageFix"/>
<feColorMatrix in="SourceAlpha" type="matrix" values="0 0 0 0 0 0 0 0 0 0 0 0 0 0 0 0 0 0 127 0" result="hardAlpha"/>
<feOffset dy="4"/>
<feGaussianBlur stdDeviation="2"/>
<feComposite in2="hardAlpha" operator="out"/>
<feColorMatrix type="matrix" values="0 0 0 0 0 0 0 0 0 0 0 0 0 0 0 0 0 0 0.25 0"/>
<feBlend mode="normal" in2="BackgroundImageFix" result="effect1_dropShadow_0_1"/>
<feBlend mode="normal" in="SourceGraphic" in2="effect1_dropShadow_0_1" result="shape"/>
</filter>
<filter id="filter1_d_0_1" x="47.4922" y="157.7" width="264" height="8.59961" filterUnits="userSpaceOnUse" color-interpolation-filters="sRGB">
<feFlood flood-opacity="0" result="BackgroundImageFix"/>
<feColorMatrix in="SourceAlpha" type="matrix" values="0 0 0 0 0 0 0 0 0 0 0 0 0 0 0 0 0 0 127 0" result="hardAlpha"/>
<feOffset dy="4"/>
<feGaussianBlur stdDeviation="2"/>
<feComposite in2="hardAlpha" operator="out"/>
<feColorMatrix type="matrix" values="0 0 0 0 0 0 0 0 0 0 0 0 0 0 0 0 0 0 0.25 0"/>
<feBlend mode="normal" in2="BackgroundImageFix" result="effect1_dropShadow_0_1"/>
<feBlend mode="normal" in="SourceGraphic" in2="effect1_dropShadow_0_1" result="shape"/>
</filter>
</defs>
</svg>
