<svg width="345" height="182" viewBox="0 0 345 182" fill="none" xmlns="http://www.w3.org/2000/svg">
<rect width="345" height="182" fill="#F5F5F5"/>
<path d="M149.815 15H296.325C297.665 15 298.992 15.2309 300.23 15.6797C301.468 16.1284 302.593 16.7861 303.541 17.6152C304.488 18.4443 305.24 19.4286 305.753 20.5118C306.265 21.5951 306.529 22.7562 306.529 23.9287V40H149.815C146.026 40 142.392 38.683 139.713 36.3388C137.034 33.9946 135.529 30.8152 135.529 27.5C135.529 24.1848 137.034 21.0054 139.713 18.6612C142.392 16.317 146.026 15 149.815 15Z" fill="#00AEEF"/>
<text fill="white" xml:space="preserve" style="white-space: pre" font-family="Harmattan" font-size="15" font-weight="bold" letter-spacing="0em"><tspan x="152.492" y="32.0872">&#x627;&#x62a;&#x642;&#x627;&#x646; &#x62a;&#x635;&#x645;&#x64a;&#x645; &#x627;&#x644;&#x645;&#x62d;&#x62a;&#x648;&#x649; &#x627;&#x644;&#x62a;&#x641;&#x627;&#x639;&#x644;&#x64a;</tspan></text>
<g filter="url(#filter0_d_0_1)">
<mask id="path-3-inside-1_0_1" fill="white">
<path d="M307.492 1H51.4922H307.492Z"/>
</mask>
<path d="M307.492 1H51.4922H307.492Z" fill="#231F20"/>
<path d="M307.492 1H51.4922H307.492Z" stroke="black" stroke-width="0.6" mask="url(#path-3-inside-1_0_1)"/>
</g>
<path d="M306.321 68.0996C307.702 68.0996 308.821 67.2042 308.821 66.0996C308.821 64.995 307.702 64.0996 306.321 64.0996C304.94 64.0996 303.821 64.995 303.821 66.0996C303.821 67.2042 304.94 68.0996 306.321 68.0996Z" fill="#231F20"/>
<path d="M306.321 98.0996C307.702 98.0996 308.821 97.2042 308.821 96.0996C308.821 94.995 307.702 94.0996 306.321 94.0996C304.94 94.0996 303.821 94.995 303.821 96.0996C303.821 97.2042 304.94 98.0996 306.321 98.0996Z" fill="#231F20"/>
<path d="M306.321 120.1C307.702 120.1 308.821 119.204 308.821 118.1C308.821 116.995 307.702 116.1 306.321 116.1C304.94 116.1 303.821 116.995 303.821 118.1C303.821 119.204 304.94 120.1 306.321 120.1Z" fill="#231F20"/>
<path d="M306.321 140.1C307.702 140.1 308.821 139.204 308.821 138.1C308.821 136.995 307.702 136.1 306.321 136.1C304.94 136.1 303.821 136.995 303.821 138.1C303.821 139.204 304.94 140.1 306.321 140.1Z" fill="#231F20"/>
<path d="M302.821 93.0996H205.821V99.0996H302.821V93.0996Z" fill="#949598"/>
<path d="M302.821 115.1H205.821V121.1H302.821V115.1Z" fill="#949598"/>
<path d="M302.821 135.1H205.821V141.1H302.821V135.1Z" fill="#949598"/>
<path d="M302.821 62.0996H205.821V68.0996H302.821V62.0996Z" fill="#949598"/>
<path d="M297.821 93.0996H205.821V99.0996H297.821V93.0996Z" fill="#00AEEF"/>
<path d="M258.821 115.1H205.821V121.1H258.821V115.1Z" fill="#00AEEF"/>
<path d="M258.821 135.1H205.821V141.1H258.821V135.1Z" fill="#00AEEF"/>
<path d="M275.821 62.0996H205.821V68.0996H275.821V62.0996Z" fill="#00AEEF"/>
<path d="M295.265 92.0996C296.739 92.0996 298.152 92.4831 299.194 93.1657C300.236 93.8484 300.821 94.7742 300.821 95.7396V96.4567C300.821 96.9349 300.678 97.4086 300.399 97.8505C300.12 98.2925 299.711 98.6941 299.195 99.0324C298.679 99.3708 298.067 99.6391 297.392 99.8223C296.718 100.005 295.995 100.1 295.265 100.1C294.681 100.1 294.103 100.024 293.564 99.8777C293.024 99.7311 292.534 99.5163 292.121 99.2456C291.708 98.9749 291.381 98.6535 291.158 98.2998C290.935 97.9462 290.82 97.5672 290.821 97.1845V95.0118C290.821 94.2394 291.289 93.4987 292.123 92.9526C292.956 92.4064 294.087 92.0996 295.265 92.0996Z" fill="black"/>
<path d="M257.821 114.1C259.147 114.1 260.419 114.483 261.356 115.166C262.294 115.848 262.821 116.774 262.821 117.74V118.457C262.821 118.935 262.692 119.409 262.441 119.851C262.19 120.293 261.822 120.694 261.358 121.032C260.893 121.371 260.342 121.639 259.735 121.822C259.128 122.005 258.478 122.1 257.821 122.1C257.295 122.1 256.775 122.024 256.289 121.878C255.804 121.731 255.362 121.516 254.991 121.246C254.619 120.975 254.325 120.653 254.124 120.3C253.923 119.946 253.82 119.567 253.821 119.184V117.012C253.821 116.239 254.242 115.499 254.992 114.953C255.743 114.406 256.76 114.1 257.821 114.1Z" fill="black"/>
<path d="M257.821 134.1C259.147 134.1 260.419 134.483 261.356 135.166C262.294 135.848 262.821 136.774 262.821 137.74V138.457C262.821 138.935 262.692 139.409 262.441 139.851C262.19 140.293 261.822 140.694 261.358 141.032C260.893 141.371 260.342 141.639 259.735 141.822C259.128 142.005 258.478 142.1 257.821 142.1C257.295 142.1 256.775 142.024 256.289 141.878C255.804 141.731 255.362 141.516 254.991 141.246C254.619 140.975 254.325 140.653 254.124 140.3C253.923 139.946 253.82 139.567 253.821 139.184V137.012C253.821 136.239 254.242 135.499 254.992 134.953C255.743 134.406 256.76 134.1 257.821 134.1Z" fill="black"/>
<path d="M271.821 61.0996C273.147 61.0996 274.419 61.4831 275.356 62.1657C276.294 62.8484 276.821 63.7742 276.821 64.7396V65.4567C276.821 65.9349 276.692 66.4086 276.441 66.8505C276.19 67.2925 275.822 67.6941 275.358 68.0324C274.893 68.3708 274.342 68.6391 273.735 68.8223C273.128 69.0054 272.478 69.0996 271.821 69.0996C271.295 69.0996 270.775 69.0242 270.289 68.8777C269.804 68.7311 269.362 68.5163 268.991 68.2456C268.619 67.9749 268.325 67.6535 268.124 67.2998C267.923 66.9462 267.82 66.5672 267.821 66.1845V64.0118C267.821 63.2394 268.242 62.4987 268.992 61.9526C269.743 61.4064 270.76 61.0996 271.821 61.0996Z" fill="black"/>
<text fill="#FF0040" xml:space="preserve" style="white-space: pre" font-family="Bahij TheSansArabic" font-size="13" font-weight="500" letter-spacing="0em"><tspan x="38.4922" y="99.261">Microsoft PowerPoint</tspan></text>
<text fill="#FF0040" xml:space="preserve" style="white-space: pre" font-family="Bahij TheSansArabic" font-size="13" font-weight="500" letter-spacing="0em"><tspan x="38.4922" y="118.261">Adobe Premiere Pro</tspan></text>
<text fill="#FF0040" xml:space="preserve" style="white-space: pre" font-family="Bahij TheSansArabic" font-size="13" font-weight="500" letter-spacing="0em"><tspan x="38.4922" y="137.261">Adobe Audition</tspan></text>
<text fill="#FF0040" xml:space="preserve" style="white-space: pre" font-family="Bahij TheSansArabic" font-size="13" font-weight="500" letter-spacing="0em"><tspan x="41.4922" y="63.261">Articulate Storyline</tspan></text>
<text fill="black" xml:space="preserve" style="white-space: pre" font-family="Bahij TheSansArabic" font-size="7" font-weight="500" letter-spacing="0em"><tspan x="42.5723" y="72.5251">Quizzes &#38; Assessments</tspan></text>
<text fill="black" xml:space="preserve" style="white-space: pre" font-family="Harmattan" font-size="7" font-weight="500" letter-spacing="0em"><tspan x="38.4922" y="146.441">&#x625;&#x632;&#x627;&#x644;&#x629; &#x627;&#x644;&#x636;&#x648;&#x636;&#x627;&#x621; &#x648;&#x627;&#x644;&#x62a;&#x634;&#x648;&#x64a;&#x634;</tspan></text>
<path d="M214.46 167.364C214.404 167.11 214.157 166.952 213.927 167.013C213.79 167.074 213.686 167.162 213.627 167.264C213.568 167.366 213.558 167.477 213.598 167.583L213.641 167.771L214.072 167.661L213.645 167.775C213.66 167.852 213.698 167.926 213.757 167.993C213.798 168.045 213.851 168.103 213.909 168.171C214.133 168.405 214.331 168.649 214.504 168.902C214.634 169.124 214.906 169.191 215.109 169.052C215.217 168.961 215.286 168.853 215.31 168.738C215.334 168.624 215.314 168.507 215.25 168.4C215.048 168.092 214.811 167.794 214.54 167.51C214.499 167.465 214.493 167.487 214.484 167.48L214.46 167.364Z" fill="#FFFFFE"/>
<path d="M213.034 168.758C212.978 169.012 212.731 169.17 212.501 169.109C211.947 168.968 212.176 168.284 212.478 167.953C212.703 167.719 212.901 167.475 213.073 167.222C213.204 167 213.476 166.933 213.679 167.072C213.787 167.164 213.856 167.272 213.88 167.386C213.904 167.501 213.883 167.617 213.82 167.724C213.638 168.034 213.063 168.574 213.028 168.758H213.034Z" fill="#FFFFFE"/>
<path d="M174.393 161.808H151.339C149.602 161.808 148.195 162.761 148.195 163.937V176.711C148.195 177.886 149.602 178.84 151.339 178.84H174.393C176.13 178.84 177.537 177.886 177.537 176.711V163.937C177.537 162.761 176.13 161.808 174.393 161.808Z" fill="#29B71C"/>
<path d="M172.297 176.001H153.434C153.156 176.001 152.89 175.927 152.693 175.793C152.497 175.66 152.386 175.48 152.386 175.292C152.386 175.103 152.497 174.923 152.693 174.79C152.89 174.657 153.156 174.582 153.434 174.582H172.297C172.575 174.582 172.842 174.657 173.038 174.79C173.235 174.923 173.345 175.103 173.345 175.292C173.345 175.48 173.235 175.66 173.038 175.793C172.842 175.927 172.575 176.001 172.297 176.001Z" fill="#EEEEEE"/>
<path d="M166.01 176.711C165.732 176.711 165.466 176.636 165.269 176.503C165.073 176.37 164.962 176.189 164.962 176.001V174.582C164.962 174.394 165.073 174.213 165.269 174.08C165.466 173.947 165.732 173.872 166.01 173.872C166.288 173.872 166.555 173.947 166.751 174.08C166.948 174.213 167.058 174.394 167.058 174.582V176.001C167.058 176.189 166.948 176.37 166.751 176.503C166.555 176.636 166.288 176.711 166.01 176.711Z" fill="#00AEEF"/>
<path d="M167.53 167.96L160.194 165.476C160.035 165.422 159.857 165.396 159.679 165.401C159.5 165.406 159.327 165.442 159.174 165.505C159.022 165.569 158.896 165.657 158.809 165.763C158.721 165.868 158.675 165.987 158.675 166.108V171.7C158.676 171.827 158.727 171.95 158.823 172.059C158.919 172.168 159.056 172.257 159.219 172.317C159.371 172.379 159.545 172.411 159.722 172.41C159.919 172.41 160.111 172.373 160.278 172.303L167.613 169.195C167.772 169.128 167.902 169.033 167.988 168.921C168.075 168.809 168.116 168.683 168.106 168.556C168.096 168.431 168.038 168.31 167.936 168.206C167.835 168.101 167.695 168.016 167.53 167.96Z" fill="#EEEEEE"/>
<path d="M151.339 161.808C150.505 161.808 149.705 162.032 149.116 162.431C148.526 162.83 148.195 163.372 148.195 163.937V176.711C148.195 177.275 148.526 177.817 149.116 178.216C149.705 178.615 150.505 178.84 151.339 178.84H162.866V161.808H151.339Z" fill="#E53935"/>
<path d="M153.434 174.582C153.156 174.582 152.89 174.657 152.693 174.79C152.497 174.923 152.386 175.103 152.386 175.292C152.386 175.48 152.497 175.66 152.693 175.793C152.89 175.927 153.156 176.001 153.434 176.001H162.866V174.582H153.434Z" fill="#FAFAFA"/>
<path d="M160.194 165.476C160.035 165.422 159.857 165.396 159.679 165.401C159.5 165.406 159.327 165.442 159.174 165.505C159.022 165.569 158.896 165.657 158.809 165.763C158.721 165.868 158.675 165.987 158.675 166.108V171.7C158.676 171.827 158.727 171.95 158.823 172.059C158.919 172.168 159.056 172.257 159.219 172.317C159.371 172.379 159.545 172.411 159.722 172.41C159.919 172.41 160.111 172.373 160.278 172.303L162.866 171.203V166.378L160.194 165.476Z" fill="#00AEEF"/>
<path d="M208.347 164.231H211.77L206.88 161V163.262C206.88 163.797 207.537 164.231 208.347 164.231Z" fill="#00AEEF"/>
<path d="M206.347 162.615H186.095V168.269H206.347C206.641 168.269 206.879 168.128 206.879 167.955V162.929C206.879 162.756 206.641 162.615 206.347 162.615Z" fill="#C6CACF"/>
<path d="M205.136 168.269H182.95C182.486 168.269 182.253 167.883 182.582 167.656L186.381 165.038L182.582 162.42C182.253 162.194 182.486 161.808 182.95 161.808H205.136C205.424 161.808 205.657 161.968 205.657 162.167V167.91C205.657 168.108 205.424 168.269 205.136 168.269Z" fill="#00AEEF"/>
<path d="M194.109 163.93H192.091C191.812 163.93 191.586 164.079 191.586 164.263V166.263C191.586 166.447 191.812 166.597 192.091 166.597C192.37 166.597 192.596 166.447 192.596 166.263V165.596H194.109C194.388 165.596 194.614 165.447 194.614 165.263V164.263C194.614 164.079 194.388 163.93 194.109 163.93ZM193.605 164.93H192.596V164.596H193.605V164.93Z" fill="white"/>
<path d="M196.632 163.93H195.623C195.345 163.93 195.119 164.079 195.119 164.263V166.263C195.119 166.447 195.345 166.597 195.623 166.597H197.642C197.92 166.597 198.146 166.447 198.146 166.263V164.93C198.146 164.378 197.467 163.93 196.632 163.93ZM197.137 165.93H196.128V164.596H196.632C196.911 164.596 197.137 164.746 197.137 164.93L197.137 165.93Z" fill="white"/>
<path d="M201.174 163.93H199.155C198.877 163.93 198.651 164.079 198.651 164.263V166.263C198.651 166.447 198.877 166.597 199.155 166.597C199.434 166.597 199.66 166.447 199.66 166.263V165.596H200.669C200.948 165.596 201.174 165.447 201.174 165.263C201.174 165.079 200.948 164.93 200.669 164.93H199.66V164.596H201.174C201.452 164.596 201.678 164.447 201.678 164.263C201.678 164.079 201.452 163.93 201.174 163.93Z" fill="white"/>
<path d="M206.383 179.577H191.483C191.208 179.577 190.986 179.42 190.986 179.227V169.427C190.986 169.234 191.208 169.077 191.483 169.077H206.383C206.657 169.077 206.88 169.234 206.88 169.427V179.227C206.88 179.42 206.657 179.577 206.383 179.577Z" fill="#C6CACF"/>
<path d="M191.979 178.877V169.077H191.483C191.208 169.077 190.986 169.234 190.986 169.427V179.227C190.986 179.42 191.208 179.577 191.483 179.577H206.383C206.657 179.577 206.88 179.42 206.88 179.227V178.877H191.979Z" fill="#00AEEF"/>
<path d="M205.187 177.961H200.014C199.755 177.961 199.544 177.806 199.544 177.615V173.461C199.544 173.27 199.755 173.115 200.014 173.115H205.187C205.447 173.115 205.657 173.27 205.657 173.461V177.615C205.657 177.806 205.446 177.961 205.187 177.961Z" fill="black"/>
<path d="M204.434 173.923H200.767V177.154H204.434V173.923Z" fill="#00AEEF"/>
<path d="M205.21 171.263H199.66C199.381 171.263 199.155 171.114 199.155 170.93C199.155 170.746 199.381 170.597 199.66 170.597H205.21C205.489 170.597 205.715 170.746 205.715 170.93C205.715 171.114 205.489 171.263 205.21 171.263Z" fill="#EF0000"/>
<path d="M205.21 172.597H199.66C199.381 172.597 199.155 172.448 199.155 172.264C199.155 172.08 199.381 171.931 199.66 171.931H205.21C205.489 171.931 205.715 172.08 205.715 172.264C205.715 172.448 205.489 172.597 205.21 172.597Z" fill="#EF0000"/>
<path d="M198.146 171.263H193.1C192.821 171.263 192.595 171.114 192.595 170.93C192.595 170.746 192.821 170.597 193.1 170.597H198.146C198.424 170.597 198.65 170.746 198.65 170.93C198.65 171.114 198.424 171.263 198.146 171.263Z" fill="#EF0000"/>
<path d="M198.146 172.597H193.1C192.821 172.597 192.595 172.448 192.595 172.264C192.595 172.08 192.821 171.931 193.1 171.931H198.146C198.424 171.931 198.65 172.08 198.65 172.264C198.65 172.448 198.424 172.597 198.146 172.597Z" fill="#EF0000"/>
<path d="M198.146 173.93H193.1C192.821 173.93 192.595 173.781 192.595 173.597C192.595 173.413 192.821 173.264 193.1 173.264H198.146C198.424 173.264 198.65 173.413 198.65 173.597C198.65 173.781 198.424 173.93 198.146 173.93Z" fill="#EF0000"/>
<path d="M198.146 175.263H193.1C192.821 175.263 192.595 175.114 192.595 174.93C192.595 174.746 192.821 174.597 193.1 174.597H198.146C198.424 174.597 198.65 174.746 198.65 174.93C198.65 175.114 198.424 175.263 198.146 175.263Z" fill="#EF0000"/>
<path d="M198.146 176.597H193.1C192.821 176.597 192.595 176.448 192.595 176.264C192.595 176.08 192.821 175.931 193.1 175.931H198.146C198.424 175.931 198.65 176.08 198.65 176.264C198.65 176.448 198.424 176.597 198.146 176.597Z" fill="#EF0000"/>
<path d="M198.146 177.93H193.1C192.821 177.93 192.595 177.781 192.595 177.597C192.595 177.413 192.821 177.264 193.1 177.264H198.146C198.424 177.264 198.65 177.413 198.65 177.597C198.65 177.781 198.424 177.93 198.146 177.93Z" fill="#EF0000"/>
<path d="M116.407 179.173V181.193H144.527V179.173L130.531 177.962L116.407 179.173Z" fill="#EEEEEE"/>
<path d="M116.407 177.557V179.576H144.527V177.557L130.531 176.346L116.407 177.557Z" fill="#DCDCDC"/>
<path d="M144.527 162.615V177.154H142.693L138.414 169.884L142.693 162.615H144.527Z" fill="#EEEEEE"/>
<path d="M143.305 162.615V163.844L138.874 169.884L143.305 175.925V177.154H116.407V162.615H143.305Z" fill="white"/>
<path d="M117.631 163.423V172.637L130.468 173.923L143.305 172.637V163.423H117.631Z" fill="#29B71C"/>
<path d="M131.079 165.038V168.269C131.754 168.269 132.301 167.546 132.301 166.653C132.301 165.761 131.754 165.038 131.079 165.038Z" fill="#FE5F1A"/>
<path d="M130.59 165.038C130.86 165.038 131.079 165.761 131.079 166.653C131.079 167.546 130.86 168.269 130.59 168.269C129.51 168.269 128.634 167.546 128.634 166.653C128.634 165.761 129.51 165.038 130.59 165.038Z" fill="#00AEEF"/>
<path d="M143.305 174.731L135.969 170.692L141.422 171.337L143.305 172.639L143.305 174.731Z" fill="#027372"/>
<path d="M140.339 171.568L136.85 169.885L132.357 171.568L129.856 173.23L135.625 176.346H143.305V174.108L140.339 171.568Z" fill="#E53935"/>
<path d="M142.082 171.443L141.057 171.5L137.192 170.305V168.27L142.082 171.443Z" fill="#EEEEEE"/>
<path d="M132.301 171.5L136.431 168.27L139.637 171.5L132.301 171.5Z" fill="white"/>
<path d="M134.746 176.346H132.511L123.743 170.692L128.599 171.364L134.746 176.346Z" fill="#027372"/>
<path d="M127.027 171.568L132.302 176.346H117.631V172.871L119.484 171.568L123.731 169.885L127.027 171.568Z" fill="#00AEEF"/>
<path d="M128.633 171.443L127.608 171.5L123.743 170.305V168.27L128.633 171.443Z" fill="#EEEEEE"/>
<path d="M118.853 171.5L123.671 168.27L127.411 171.5L118.853 171.5Z" fill="white"/>
<path d="M145.262 180.385C144.993 180.385 144.774 180.54 144.774 180.731V181.308H116.16V180.731C116.16 180.54 115.942 180.385 115.673 180.385C115.403 180.385 115.185 180.54 115.185 180.731V181.654C115.185 181.845 115.403 182 115.673 182H145.262C145.531 182 145.75 181.845 145.75 181.654V180.731C145.75 180.54 145.531 180.385 145.262 180.385Z" fill="#00AEEF"/>
<path d="M145.262 177.962C144.993 177.962 144.774 178.117 144.774 178.308V178.885H116.16V178.308C116.16 178.117 115.942 177.962 115.673 177.962C115.403 177.962 115.185 178.117 115.185 178.308V179.231C115.185 179.422 115.403 179.577 115.673 179.577H145.262C145.531 179.577 145.75 179.422 145.75 179.231V178.308C145.75 178.117 145.531 177.962 145.262 177.962Z" fill="#00AEEF"/>
<path d="M145.262 161.808H115.673C115.403 161.808 115.185 161.954 115.185 162.135V177.634C115.185 177.815 115.403 177.961 115.673 177.961H145.262C145.531 177.961 145.75 177.815 145.75 177.634V162.135C145.75 161.954 145.531 161.808 145.262 161.808ZM144.774 177.307H116.16V162.462H144.774V177.307Z" fill="#00AEEF"/>
<path d="M133.524 166.653C133.524 165.763 132.153 165.038 130.468 165.038C128.782 165.038 127.411 165.763 127.411 166.653C127.411 167.544 128.782 168.269 130.468 168.269C132.153 168.269 133.524 167.544 133.524 166.653ZM128.376 166.653C128.376 166.044 129.315 165.548 130.468 165.548C131.621 165.548 132.559 166.044 132.559 166.653C132.559 167.263 131.621 167.759 130.468 167.759C129.315 167.759 128.376 167.263 128.376 166.653Z" fill="black"/>
<path d="M116.407 176.014C116.407 176.197 116.638 176.346 116.922 176.346H144.013C144.297 176.346 144.527 176.197 144.527 176.014V162.947C144.527 162.764 144.297 162.615 144.013 162.615H116.922C116.638 162.615 116.407 162.764 116.407 162.947V165.605C116.407 165.788 116.638 165.937 116.922 165.937C117.206 165.937 117.436 165.788 117.436 165.605V163.28H143.498V171.668L137.604 167.862C137.403 167.732 137.077 167.732 136.876 167.862L130.467 172.001L124.058 167.862C123.857 167.732 123.532 167.732 123.331 167.862L117.436 171.668V166.934C117.436 166.75 117.206 166.602 116.922 166.602C116.638 166.602 116.407 166.75 116.407 166.934V176.014ZM137.24 168.566L140.713 170.809H133.767L137.24 168.566ZM123.695 168.566L127.168 170.809H120.221L123.695 168.566ZM119.192 171.474H128.197L130.103 172.705C130.104 172.706 133.533 174.92 133.533 174.92C133.633 174.985 133.765 175.017 133.897 175.017C134.028 175.017 134.16 174.985 134.26 174.92C134.461 174.79 134.461 174.58 134.26 174.45L131.195 172.47L132.738 171.474H141.742L143.498 172.608V175.682H117.436V172.608L119.192 171.474Z" fill="black"/>
<path fill-rule="evenodd" clip-rule="evenodd" d="M101.819 165.064C101.981 165.064 102.114 165.207 102.114 165.38V171.317H101.524V165.38C101.524 165.204 101.656 165.064 101.819 165.064Z" fill="#FFFFFE"/>
<g filter="url(#filter1_d_0_1)">
<mask id="path-74-inside-2_0_1" fill="white">
<path d="M307.385 161H51.5723H307.385Z"/>
</mask>
<path d="M307.385 161H51.5723H307.385Z" fill="#231F20"/>
<path d="M307.385 161H51.5723H307.385Z" stroke="black" stroke-width="0.6" mask="url(#path-74-inside-2_0_1)"/>
</g>
<path d="M343.492 44L343.492 105" stroke="white"/>
<path d="M0.492188 44L0.492166 105" stroke="white"/>
<defs>
<filter id="filter0_d_0_1" x="47.4922" y="0.700195" width="264" height="8.59961" filterUnits="userSpaceOnUse" color-interpolation-filters="sRGB">
<feFlood flood-opacity="0" result="BackgroundImageFix"/>
<feColorMatrix in="SourceAlpha" type="matrix" values="0 0 0 0 0 0 0 0 0 0 0 0 0 0 0 0 0 0 127 0" result="hardAlpha"/>
<feOffset dy="4"/>
<feGaussianBlur stdDeviation="2"/>
<feComposite in2="hardAlpha" operator="out"/>
<feColorMatrix type="matrix" values="0 0 0 0 0 0 0 0 0 0 0 0 0 0 0 0 0 0 0.25 0"/>
<feBlend mode="normal" in2="BackgroundImageFix" result="effect1_dropShadow_0_1"/>
<feBlend mode="normal" in="SourceGraphic" in2="effect1_dropShadow_0_1" result="shape"/>
</filter>
<filter id="filter1_d_0_1" x="47.5723" y="160.7" width="263.813" height="8.59961" filterUnits="userSpaceOnUse" color-interpolation-filters="sRGB">
<feFlood flood-opacity="0" result="BackgroundImageFix"/>
<feColorMatrix in="SourceAlpha" type="matrix" values="0 0 0 0 0 0 0 0 0 0 0 0 0 0 0 0 0 0 127 0" result="hardAlpha"/>
<feOffset dy="4"/>
<feGaussianBlur stdDeviation="2"/>
<feComposite in2="hardAlpha" operator="out"/>
<feColorMatrix type="matrix" values="0 0 0 0 0 0 0 0 0 0 0 0 0 0 0 0 0 0 0.25 0"/>
<feBlend mode="normal" in2="BackgroundImageFix" result="effect1_dropShadow_0_1"/>
<feBlend mode="normal" in="SourceGraphic" in2="effect1_dropShadow_0_1" result="shape"/>
</filter>
</defs>
</svg>
