<svg width="345" height="390" viewBox="0 0 345 390" fill="none" xmlns="http://www.w3.org/2000/svg">
<rect width="345" height="390" fill="#F5F5F5"/>
<path d="M166 47C166 51.4183 160.866 55 157 55C153.134 55 150 51.4183 150 47C150 42.5817 153.134 39 157 39C160.866 39 166 42.5817 166 47Z" fill="#00AEEF"/>
<path d="M158.68 53C159.68 53 160.564 52.5133 161.11 51.7685V47.1671L159.951 46.5221L159.989 49.9081C159.99 50.0103 159.935 50.1055 159.846 50.1575L156.62 52.0252C157.125 52.636 157.874 53 158.68 53ZM155.428 52.0536L159.409 49.749L159.394 48.431L156.447 50.1569C156.358 50.2089 156.249 50.2106 156.158 50.1608L152.901 48.349C152.627 49.0815 152.687 49.9019 153.085 50.5827C153.487 51.2707 154.135 51.7631 154.912 51.9688C155.083 52.0142 155.255 52.0388 155.428 52.0536ZM161.689 50.7032C162.494 50.5812 163.186 50.1178 163.595 49.4176C163.997 48.7296 164.104 47.9284 163.896 47.161C163.846 46.9773 163.774 46.8044 163.692 46.637L159.704 44.4195L158.556 45.0913L161.542 46.7514C161.632 46.802 161.689 46.8971 161.689 47.0003V50.7032ZM156.297 49.5811L157.444 48.9092L154.459 47.2492C154.368 47.1983 154.312 47.1034 154.312 47.0003V43.3018C153.515 43.4229 152.812 43.8847 152.405 44.5824C152.003 45.2704 151.896 46.0722 152.104 46.8396C152.154 47.0233 152.226 47.1967 152.309 47.3641L156.297 49.5811ZM158.019 48.5728L159.387 47.7714L159.369 46.199L157.983 45.4278L156.614 46.2291L156.631 47.8016L158.019 48.5728ZM156.049 47.4779L156.011 44.0925C156.01 43.9908 156.064 43.8956 156.153 43.8436L159.364 41.9575C158.86 41.3573 158.121 41 157.32 41C156.321 41 155.436 41.487 154.89 42.2315V46.8329L156.049 47.4779ZM163.099 45.651C163.373 44.9185 163.314 44.101 162.915 43.4179C162.513 42.7299 161.865 42.238 161.089 42.0323C160.901 41.9823 160.71 41.957 160.519 41.9436L156.591 44.251L156.606 45.5695L159.553 43.8436C159.598 43.817 159.649 43.8034 159.7 43.8034C159.749 43.8034 159.798 43.816 159.842 43.8403L163.099 45.651Z" fill="white"/>
<path d="M166 94C166 98.4183 160.866 102 157 102C153.134 102 150 98.4183 150 94C150 89.5817 153.134 86 157 86C160.866 86 166 89.5817 166 94Z" fill="#00AEEF"/>
<path d="M150.075 149.028C149.481 143.52 155.691 138.396 160.729 137.899C165.767 137.403 170.332 141.465 170.925 146.972C171.519 152.48 167.916 157.347 162.878 157.844C157.84 158.34 150.668 154.535 150.075 149.028Z" fill="#00AEEF"/>
<path d="M147.039 121.235C146.465 115.668 152.713 110.464 157.769 109.943C162.824 109.422 167.387 113.512 167.961 119.078C168.535 124.644 164.902 129.579 159.846 130.1C154.791 130.621 147.613 126.801 147.039 121.235Z" fill="#00AEEF"/>
<path d="M154.102 114.357C154.046 113.807 154.638 113.296 155.119 113.247C155.6 113.197 156.035 113.602 156.092 114.152C156.148 114.701 155.805 115.187 155.324 115.236C154.843 115.286 154.159 114.906 154.102 114.357Z" fill="white"/>
<path d="M156.102 119.357C156.046 118.807 156.638 118.296 157.119 118.247C157.6 118.197 158.035 118.602 158.092 119.152C158.148 119.701 157.805 120.187 157.324 120.236C156.843 120.286 156.159 119.906 156.102 119.357Z" fill="white"/>
<path d="M161.102 121.357C161.046 120.807 161.638 120.296 162.119 120.247C162.6 120.197 163.035 120.602 163.092 121.152C163.148 121.701 162.805 122.187 162.324 122.236C161.843 122.286 161.159 121.906 161.102 121.357Z" fill="white"/>
<path d="M156.102 125.357C156.046 124.807 156.638 124.296 157.119 124.247C157.6 124.197 158.035 124.602 158.092 125.152C158.148 125.701 157.805 126.187 157.324 126.236C156.843 126.286 156.159 125.906 156.102 125.357Z" fill="white"/>
<path d="M163.455 116.865C163.398 116.315 163.991 115.804 164.471 115.755C164.952 115.705 165.388 116.11 165.444 116.66C165.501 117.209 165.157 117.694 164.676 117.744C164.196 117.794 163.512 117.414 163.455 116.865Z" fill="white"/>
<path d="M159.322 115.783C159.237 114.959 160.126 114.192 160.847 114.118C161.568 114.044 162.221 114.652 162.306 115.476C162.391 116.3 161.875 117.028 161.154 117.102C160.433 117.177 159.407 116.607 159.322 115.783Z" fill="white"/>
<path d="M149.282 123.156C149.197 122.332 150.086 121.566 150.807 121.491C151.528 121.417 152.182 122.025 152.267 122.849C152.352 123.673 151.836 124.401 151.115 124.475C150.394 124.55 149.367 123.98 149.282 123.156Z" fill="white"/>
<path d="M148.77 118.183C148.685 117.359 149.573 116.592 150.295 116.518C151.016 116.443 151.669 117.051 151.754 117.875C151.839 118.699 151.323 119.427 150.602 119.502C149.881 119.576 148.855 119.007 148.77 118.183Z" fill="white"/>
<path d="M160.347 125.731C160.262 124.906 161.151 124.14 161.872 124.065C162.593 123.991 163.247 124.599 163.332 125.423C163.416 126.247 162.901 126.975 162.18 127.05C161.459 127.124 160.432 126.555 160.347 125.731Z" fill="white"/>
<path d="M166 70C166 74.4183 160.866 78 157 78C153.134 78 150 74.4183 150 70C150 65.5817 153.134 62 157 62C160.866 62 166 65.5817 166 70Z" fill="#00AEEF"/>
<path d="M185 157C190.523 157 195 152.523 195 147C195 141.477 190.523 137 185 137C179.477 137 175 141.477 175 147C175 152.523 179.477 157 185 157Z" fill="#00AEEF"/>
<path d="M184.928 139.282C182.881 139.351 180.945 140.229 179.543 141.723C178.142 143.218 177.391 145.207 177.454 147.254C177.426 148.887 177.901 150.49 178.816 151.843C179.73 153.196 181.04 154.234 182.566 154.816C182.608 154.826 182.65 154.83 182.692 154.83C182.745 154.832 182.797 154.823 182.846 154.804C182.894 154.784 182.938 154.755 182.974 154.717C183.011 154.679 183.039 154.634 183.056 154.584C183.074 154.535 183.081 154.482 183.076 154.43C183.076 154.23 183.076 153.74 183.066 153.072C182.819 153.133 182.566 153.164 182.312 153.166C181.931 153.192 181.553 153.092 181.234 152.882C180.915 152.673 180.673 152.364 180.546 152.004C180.416 151.53 180.122 151.117 179.716 150.838C179.066 150.362 179.716 150.348 179.762 150.348C180.003 150.391 180.231 150.487 180.429 150.63C180.627 150.773 180.79 150.959 180.906 151.174C181.02 151.431 181.204 151.65 181.439 151.805C181.673 151.959 181.947 152.043 182.228 152.046C182.524 152.042 182.815 151.974 183.082 151.846C183.114 151.447 183.281 151.071 183.556 150.78C183.062 150.781 182.574 150.675 182.125 150.469C181.675 150.264 181.276 149.964 180.953 149.59C180.63 149.216 180.392 148.776 180.254 148.302C180.117 147.827 180.083 147.329 180.156 146.84C180.142 146.058 180.415 145.297 180.924 144.702C180.696 144.013 180.723 143.264 180.998 142.592C181.052 142.579 181.108 142.572 181.164 142.574C181.864 142.655 182.522 142.947 183.052 143.41C184.275 143.054 185.574 143.054 186.796 143.41C187.326 142.947 187.985 142.655 188.684 142.574C188.74 142.572 188.796 142.579 188.85 142.592C189.126 143.264 189.152 144.013 188.924 144.702C189.433 145.297 189.706 146.058 189.692 146.84C189.765 147.33 189.732 147.829 189.593 148.304C189.455 148.779 189.215 149.219 188.891 149.592C188.566 149.966 188.165 150.265 187.714 150.469C187.263 150.672 186.773 150.776 186.278 150.772C186.459 150.971 186.597 151.204 186.684 151.458C186.772 151.712 186.806 151.981 186.786 152.248C186.786 153.314 186.776 154.174 186.776 154.434C186.772 154.486 186.778 154.539 186.795 154.588C186.813 154.637 186.84 154.682 186.876 154.72C186.912 154.758 186.956 154.788 187.004 154.807C187.052 154.827 187.104 154.836 187.156 154.834C187.201 154.834 187.246 154.83 187.29 154.82C188.817 154.238 190.126 153.2 191.041 151.847C191.956 150.494 192.431 148.891 192.402 147.258C192.466 145.21 191.716 143.22 190.314 141.725C188.913 140.23 186.976 139.351 184.928 139.282Z" fill="white"/>
<path d="M169.462 0H294.541C295.72 0 296.889 0.232352 297.978 0.68379C299.068 1.13523 300.059 1.79691 300.893 2.63106C301.727 3.46521 302.389 4.45549 302.84 5.54535C303.291 6.63522 303.524 7.80334 303.524 8.983V25.152H169.462C166.126 25.152 162.928 23.827 160.569 21.4686C158.211 19.1101 156.886 15.9114 156.886 12.576C156.886 9.24064 158.211 6.04188 160.569 3.68343C162.928 1.32497 166.126 0 169.462 0Z" fill="#00AEEF"/>
<text fill="#FEFEFE" xml:space="preserve" style="white-space: pre" font-family="Harmattan" font-size="15" font-weight="bold" letter-spacing="0em"><tspan x="186" y="17.0872">&#x627;&#x644;&#x630;&#x643;&#x627;&#x621; &#x627;&#x644;&#x627;&#x635;&#x637;&#x646;&#x627;&#x639;&#x64a; AI</tspan></text>
<path d="M307.208 45.0996H222.208V51.0996H307.208V45.0996Z" fill="#949598"/>
<path d="M307.208 69.0996H222.208V74.0996H307.208V69.0996Z" fill="#949598"/>
<path d="M307.208 93.0996H222.208V98.0996H307.208V93.0996Z" fill="#949598"/>
<path d="M307.208 117.1H222.208V122.1H307.208V117.1Z" fill="#949598"/>
<path d="M307.208 144.1H222.208V150.1H307.208V144.1Z" fill="#949598"/>
<path d="M290 45H206V51H290V45Z" fill="#00AEEF"/>
<path d="M290.208 69.0996H206.208V74.0996H290.208V69.0996Z" fill="#00AEEF"/>
<path d="M290.208 116.1H206.208V122.1H290.208V116.1Z" fill="#00AEEF"/>
<path d="M290.208 93.0996H206.208V98.0996H290.208V93.0996Z" fill="#00AEEF"/>
<path d="M290.208 144.1H206.208V150.1H290.208V144.1Z" fill="#00AEEF"/>
<path d="M288.763 44.0996C289.942 44.0996 291.072 44.4831 291.906 45.1657C292.739 45.8484 293.208 46.7742 293.208 47.7396V48.4567C293.208 48.9349 293.093 49.4086 292.87 49.8505C292.647 50.2925 292.32 50.6941 291.907 51.0324C291.494 51.3708 291.004 51.6391 290.465 51.8223C289.925 52.0054 289.347 52.0996 288.763 52.0996C288.296 52.0996 287.833 52.0242 287.402 51.8777C286.97 51.7311 286.578 51.5163 286.248 51.2456C285.917 50.9749 285.656 50.6535 285.477 50.2998C285.299 49.9462 285.207 49.5672 285.208 49.1845V47.0118C285.208 46.2394 285.582 45.4987 286.249 44.9526C286.916 44.4064 287.82 44.0996 288.763 44.0996Z" fill="black"/>
<path d="M288.763 67.0996C289.942 67.0996 291.072 67.531 291.906 68.299C292.739 69.067 293.208 70.1085 293.208 71.1946V72.0013C293.208 72.5394 293.093 73.0722 292.87 73.5694C292.647 74.0666 292.32 74.5184 291.907 74.899C291.494 75.2797 291.004 75.5816 290.465 75.7876C289.925 75.9936 289.347 76.0996 288.763 76.0996C288.296 76.0996 287.833 76.0148 287.402 75.8499C286.97 75.6851 286.578 75.4434 286.248 75.1389C285.917 74.8343 285.656 74.4727 285.477 74.0749C285.299 73.677 285.207 73.2506 285.208 72.8201V70.3758C285.208 69.5069 285.582 68.6736 286.249 68.0592C286.916 67.4448 287.82 67.0996 288.763 67.0996Z" fill="black"/>
<path d="M288.763 115.1C289.942 115.1 291.072 115.531 291.906 116.299C292.739 117.067 293.208 118.109 293.208 119.195V120.001C293.208 120.539 293.093 121.072 292.87 121.569C292.647 122.067 292.32 122.518 291.907 122.899C291.494 123.28 291.004 123.582 290.465 123.788C289.925 123.994 289.347 124.1 288.763 124.1C288.296 124.1 287.833 124.015 287.402 123.85C286.97 123.685 286.578 123.443 286.248 123.139C285.917 122.834 285.656 122.473 285.477 122.075C285.299 121.677 285.207 121.251 285.208 120.82V118.376C285.208 117.507 285.582 116.674 286.249 116.059C286.916 115.445 287.82 115.1 288.763 115.1Z" fill="black"/>
<path d="M288.763 91.0996C289.942 91.0996 291.072 91.531 291.906 92.299C292.739 93.067 293.208 94.1085 293.208 95.1946V96.0013C293.208 96.5394 293.093 97.0722 292.87 97.5694C292.647 98.0666 292.32 98.5184 291.907 98.899C291.494 99.2797 291.004 99.5816 290.465 99.7876C289.925 99.9936 289.347 100.1 288.763 100.1C288.296 100.1 287.833 100.015 287.402 99.8499C286.97 99.6851 286.578 99.4434 286.248 99.1389C285.917 98.8343 285.656 98.4727 285.477 98.0749C285.299 97.677 285.207 97.2506 285.208 96.8201V94.3758C285.208 93.5069 285.582 92.6736 286.249 92.0592C286.916 91.4448 287.82 91.0996 288.763 91.0996Z" fill="black"/>
<path d="M288.763 143.1C289.942 143.1 291.072 143.483 291.906 144.166C292.739 144.848 293.208 145.774 293.208 146.74V147.457C293.208 147.935 293.093 148.409 292.87 148.851C292.647 149.293 292.32 149.694 291.907 150.032C291.494 150.371 291.004 150.639 290.465 150.822C289.925 151.005 289.347 151.1 288.763 151.1C288.296 151.1 287.833 151.024 287.402 150.878C286.97 150.731 286.578 150.516 286.248 150.246C285.917 149.975 285.656 149.653 285.477 149.3C285.299 148.946 285.207 148.567 285.208 148.184V146.012C285.208 145.239 285.582 144.499 286.249 143.953C286.916 143.406 287.82 143.1 288.763 143.1Z" fill="black"/>
<path d="M301.191 222.668C302.572 222.668 303.691 221.773 303.691 220.668C303.691 219.563 302.572 218.668 301.191 218.668C299.81 218.668 298.691 219.563 298.691 220.668C298.691 221.773 299.81 222.668 301.191 222.668Z" fill="#231F20"/>
<path d="M301.191 222.668C302.572 222.668 303.691 221.773 303.691 220.668C303.691 219.563 302.572 218.668 301.191 218.668C299.81 218.668 298.691 219.563 298.691 220.668C298.691 221.773 299.81 222.668 301.191 222.668Z" fill="#231F20"/>
<path d="M301.191 242.668C302.572 242.668 303.691 241.773 303.691 240.668C303.691 239.563 302.572 238.668 301.191 238.668C299.81 238.668 298.691 239.563 298.691 240.668C298.691 241.773 299.81 242.668 301.191 242.668Z" fill="#231F20"/>
<path d="M301.191 262.668C302.572 262.668 303.691 261.773 303.691 260.668C303.691 259.563 302.572 258.668 301.191 258.668C299.81 258.668 298.691 259.563 298.691 260.668C298.691 261.773 299.81 262.668 301.191 262.668Z" fill="#231F20"/>
<path d="M301.191 282.668C302.572 282.668 303.691 281.773 303.691 280.668C303.691 279.563 302.572 278.668 301.191 278.668C299.81 278.668 298.691 279.563 298.691 280.668C298.691 281.773 299.81 282.668 301.191 282.668Z" fill="#231F20"/>
<path d="M301.191 301.668C302.572 301.668 303.691 300.773 303.691 299.668C303.691 298.563 302.572 297.668 301.191 297.668C299.81 297.668 298.691 298.563 298.691 299.668C298.691 300.773 299.81 301.668 301.191 301.668Z" fill="#231F20"/>
<path d="M301.191 321.668C302.572 321.668 303.691 320.773 303.691 319.668C303.691 318.563 302.572 317.668 301.191 317.668C299.81 317.668 298.691 318.563 298.691 319.668C298.691 320.773 299.81 321.668 301.191 321.668Z" fill="#231F20"/>
<path d="M166.462 175H291.541C292.72 175 293.889 175.232 294.978 175.684C296.068 176.135 297.059 176.797 297.893 177.631C298.727 178.465 299.389 179.455 299.84 180.545C300.291 181.635 300.524 182.803 300.524 183.983V200.152H166.462C163.126 200.152 159.928 198.827 157.569 196.469C155.211 194.11 153.886 190.911 153.886 187.576C153.886 184.241 155.211 181.042 157.569 178.683C159.928 176.325 163.126 175 166.462 175Z" fill="#00AEEF"/>
<text fill="#FEFEFE" xml:space="preserve" style="white-space: pre" font-family="Harmattan" font-size="15" font-weight="bold" letter-spacing="0em"><tspan x="192.124" y="193.087">&#x627;&#x62a;&#x642;&#x627;&#x646; &#x641;&#x646; &#x627;&#x644;&#x637;&#x628;&#x627;&#x639;&#x629;</tspan></text>
<path d="M295.691 218.668H205.691V223.668H295.691V218.668Z" fill="#949598"/>
<path d="M295.691 238.668H205.691V243.668H295.691V238.668Z" fill="#949598"/>
<path d="M295.691 258.668H205.691V263.668H295.691V258.668Z" fill="#949598"/>
<path d="M295.691 278.668H205.691V283.668H295.691V278.668Z" fill="#949598"/>
<path d="M295.691 297.668H205.691V302.668H295.691V297.668Z" fill="#949598"/>
<path d="M295.691 317.668H205.691V322.668H295.691V317.668Z" fill="#949598"/>
<path d="M293.691 218.668H205.691V223.668H293.691V218.668Z" fill="#00AEEF"/>
<path d="M293.691 238.668H205.691V243.668H293.691V238.668Z" fill="#00AEEF"/>
<path d="M293.691 258.668H205.691V263.668H293.691V258.668Z" fill="#00AEEF"/>
<path d="M266.691 317.668H205.691V322.668H266.691V317.668Z" fill="#00AEEF"/>
<path d="M293.691 278.668H205.691V283.668H293.691V278.668Z" fill="#00AEEF"/>
<path d="M267.691 297.668H205.691V302.668H267.691V297.668Z" fill="#00AEEF"/>
<path d="M290.247 217.668C291.425 217.668 292.556 218.051 293.389 218.734C294.223 219.417 294.691 220.343 294.691 221.308V222.025C294.691 222.503 294.577 222.977 294.354 223.419C294.131 223.861 293.803 224.262 293.39 224.601C292.978 224.939 292.488 225.208 291.948 225.391C291.409 225.574 290.831 225.668 290.247 225.668C289.779 225.668 289.317 225.593 288.885 225.446C288.453 225.299 288.061 225.085 287.731 224.814C287.401 224.543 287.139 224.222 286.961 223.868C286.782 223.515 286.69 223.136 286.691 222.753V220.58C286.691 219.808 287.066 219.067 287.732 218.521C288.399 217.975 289.304 217.668 290.247 217.668Z" fill="black"/>
<path d="M290.247 237.668C291.425 237.668 292.556 238.051 293.389 238.734C294.223 239.417 294.691 240.343 294.691 241.308V242.025C294.691 242.503 294.577 242.977 294.354 243.419C294.131 243.861 293.803 244.262 293.39 244.601C292.978 244.939 292.488 245.208 291.948 245.391C291.409 245.574 290.831 245.668 290.247 245.668C289.779 245.668 289.317 245.593 288.885 245.446C288.453 245.299 288.061 245.085 287.731 244.814C287.401 244.543 287.139 244.222 286.961 243.868C286.782 243.515 286.69 243.136 286.691 242.753V240.58C286.691 239.808 287.066 239.067 287.732 238.521C288.399 237.975 289.304 237.668 290.247 237.668Z" fill="black"/>
<path d="M290.247 257.668C291.425 257.668 292.556 258.051 293.389 258.734C294.223 259.417 294.691 260.343 294.691 261.308V262.025C294.691 262.503 294.577 262.977 294.354 263.419C294.131 263.861 293.803 264.262 293.39 264.601C292.978 264.939 292.488 265.208 291.948 265.391C291.409 265.574 290.831 265.668 290.247 265.668C289.779 265.668 289.317 265.593 288.885 265.446C288.453 265.299 288.061 265.085 287.731 264.814C287.401 264.543 287.139 264.222 286.961 263.868C286.782 263.515 286.69 263.136 286.691 262.753V260.58C286.691 259.808 287.066 259.067 287.732 258.521C288.399 257.975 289.304 257.668 290.247 257.668Z" fill="black"/>
<path d="M265.691 316.668C267.017 316.668 268.289 317.051 269.226 317.734C270.164 318.417 270.691 319.343 270.691 320.308V321.025C270.691 321.503 270.563 321.977 270.311 322.419C270.06 322.861 269.692 323.262 269.228 323.601C268.764 323.939 268.212 324.208 267.605 324.391C266.998 324.574 266.348 324.668 265.691 324.668C265.165 324.668 264.645 324.593 264.159 324.446C263.674 324.299 263.233 324.085 262.861 323.814C262.49 323.543 262.195 323.222 261.994 322.868C261.793 322.515 261.69 322.136 261.691 321.753V319.58C261.691 318.808 262.112 318.067 262.863 317.521C263.613 316.975 264.63 316.668 265.691 316.668Z" fill="black"/>
<path d="M290.247 277.668C291.425 277.668 292.556 278.051 293.389 278.734C294.223 279.417 294.691 280.343 294.691 281.308V282.025C294.691 282.503 294.577 282.977 294.354 283.419C294.131 283.861 293.803 284.262 293.39 284.601C292.978 284.939 292.488 285.208 291.948 285.391C291.409 285.574 290.831 285.668 290.247 285.668C289.779 285.668 289.317 285.593 288.885 285.446C288.453 285.299 288.061 285.085 287.731 284.814C287.401 284.543 287.139 284.222 286.961 283.868C286.782 283.515 286.69 283.136 286.691 282.753V280.58C286.691 279.808 287.066 279.067 287.732 278.521C288.399 277.975 289.304 277.668 290.247 277.668Z" fill="black"/>
<path d="M265.691 296.668C267.017 296.668 268.289 297.051 269.226 297.734C270.164 298.417 270.691 299.343 270.691 300.308V301.025C270.691 301.503 270.563 301.977 270.311 302.419C270.06 302.861 269.692 303.262 269.228 303.601C268.764 303.939 268.212 304.208 267.605 304.391C266.998 304.574 266.348 304.668 265.691 304.668C265.165 304.668 264.645 304.593 264.159 304.446C263.674 304.299 263.233 304.085 262.861 303.814C262.49 303.543 262.195 303.222 261.994 302.868C261.793 302.515 261.69 302.136 261.691 301.753V299.58C261.691 298.808 262.112 298.067 262.863 297.521C263.613 296.975 264.63 296.668 265.691 296.668Z" fill="black"/>
<text fill="#FF0040" xml:space="preserve" style="white-space: pre" font-family="Bahij TheSansArabic" font-size="13" font-weight="500" letter-spacing="0em"><tspan x="43.124" y="228.261">Adobe Acrobat</tspan></text>
<text fill="#FF0040" xml:space="preserve" style="white-space: pre" font-family="Bahij TheSansArabic" font-size="13" font-weight="500" letter-spacing="0em"><tspan x="43.124" y="325.261">Printer hardware</tspan></text>
<text fill="#FF0040" xml:space="preserve" style="white-space: pre" font-family="Bahij TheSansArabic" font-size="13" font-weight="500" letter-spacing="0em"><tspan x="43.124" y="247.261">pdf xchange editor</tspan></text>
<text fill="#FF0040" xml:space="preserve" style="white-space: pre" font-family="Bahij TheSansArabic" font-size="13" font-weight="500" letter-spacing="0em"><tspan x="42.124" y="268.261">PDFsam Enhanced</tspan></text>
<text fill="#FF0040" xml:space="preserve" style="white-space: pre" font-family="Bahij TheSansArabic" font-size="13" font-weight="500" letter-spacing="0em"><tspan x="43.124" y="287.261">i top pdf</tspan></text>
<text fill="#FF0040" xml:space="preserve" style="white-space: pre" font-family="Bahij TheSansArabic" font-size="13" font-weight="500" letter-spacing="0em"><tspan x="42" y="306.261">adobe indesign scripting</tspan></text>
<text fill="#FF0040" xml:space="preserve" style="white-space: pre" font-family="Bahij TheSansArabic" font-size="13" font-weight="500" letter-spacing="0em"><tspan x="40" y="52.261">chat GPT</tspan></text>
<text fill="#FF0040" xml:space="preserve" style="white-space: pre" font-family="Bahij TheSansArabic" font-size="13" font-weight="500" letter-spacing="0em"><tspan x="40" y="76.261">gemini</tspan></text>
<text fill="#FF0040" xml:space="preserve" style="white-space: pre" font-family="Bahij TheSansArabic" font-size="13" font-weight="500" letter-spacing="0em"><tspan x="40" y="100.261">DeepAI</tspan></text>
<text fill="#FF0040" xml:space="preserve" style="white-space: pre" font-family="Bahij TheSansArabic" font-size="13" font-weight="500" letter-spacing="0em"><tspan x="39" y="126.261">BLACKBOX.AI</tspan></text>
<text fill="#FF0040" xml:space="preserve" style="white-space: pre" font-family="Bahij TheSansArabic" font-size="13" font-weight="500" letter-spacing="0em"><tspan x="40" y="152.261">GitHub Copilot </tspan></text>
<path d="M170 148.781C170 148.349 169.749 148 169.438 148C169.128 148 168.877 148.349 168.877 148.781V150.219C168.877 150.651 169.128 151 169.438 151C169.749 151 170 150.651 170 150.219V148.781ZM166.562 148C166.871 148 167.123 148.349 167.123 148.781V150.219C167.123 150.651 166.871 151 166.562 151C166.251 151 166 150.651 166 150.219V148.781C166 148.349 166.251 148 166.562 148Z" fill="white"/>
<path fill-rule="evenodd" clip-rule="evenodd" d="M154 148.884V150.953C154.001 151.221 154.094 151.481 154.246 151.639C156.037 153.502 158.248 155 160.5 155C162.992 155 165.486 152.961 166.754 151.639C166.906 151.481 166.999 151.221 167 150.954V148.884C167 148.613 166.939 148.349 166.826 148.13L166.43 147.37C166.219 146.962 165.903 146.854 165.567 146.854C165.441 144.8 165.141 143.334 164.424 142.262C163.06 140.208 161.248 140 160.5 140C159.752 140 157.94 140.208 156.576 142.262C155.86 143.334 155.559 144.8 155.433 146.854C155.096 146.854 154.782 146.96 154.57 147.37L154.175 148.131C154.061 148.351 154 148.613 154 148.884H154ZM156.48 147.944C156.497 147.473 156.766 147.288 157.047 147.157C157.343 147.421 157.703 147.524 158.049 147.524C158.416 147.524 159.101 147.399 159.671 146.592C159.814 146.389 159.913 146.07 159.979 145.717C160.152 145.692 160.325 145.679 160.499 145.678C160.654 145.678 160.832 145.691 161.021 145.717C161.087 146.07 161.186 146.389 161.329 146.592C161.898 147.399 162.584 147.524 162.951 147.524C163.297 147.524 163.658 147.422 163.954 147.157C164.233 147.288 164.501 147.476 164.52 147.944C164.549 148.83 164.552 149.715 164.555 150.6C164.556 151.044 164.557 151.489 164.562 151.933C164.56 152.191 164.451 152.431 164.286 152.538C162.941 153.408 161.669 153.846 160.499 153.846C159.331 153.846 158.059 153.408 156.715 152.538C156.55 152.431 156.44 152.191 156.439 151.933C156.423 150.605 156.436 149.272 156.481 147.944H156.48V147.944ZM164.27 146.093C164.051 146.404 163.636 146.612 163.189 146.612C162.848 146.612 162.198 146.508 161.662 145.734C161.426 145.412 161.28 144.604 161.296 143.784C161.313 143.127 161.442 142.584 161.637 142.354C161.849 142.088 162.328 141.973 162.865 142.042C163.433 142.123 163.912 142.388 164.156 142.758C164.684 143.577 164.571 145.654 164.27 146.093ZM160.955 144.073C160.939 144.2 160.931 144.338 160.923 144.488C160.923 144.592 160.923 144.696 160.931 144.811C160.768 144.788 160.63 144.788 160.5 144.788C160.37 144.788 160.232 144.788 160.069 144.811C160.078 144.696 160.078 144.592 160.078 144.488C160.069 144.338 160.061 144.2 160.045 144.073C160.216 144.05 160.37 144.038 160.5 144.038C160.63 144.038 160.785 144.05 160.955 144.073ZM159.704 143.784C159.72 144.604 159.574 145.412 159.338 145.734C158.802 146.508 158.152 146.612 157.811 146.612C157.364 146.612 156.949 146.404 156.73 146.093C156.429 145.654 156.316 143.577 156.844 142.758C157.088 142.388 157.567 142.123 158.135 142.042C158.672 141.973 159.151 142.088 159.363 142.354C159.557 142.584 159.687 143.127 159.704 143.784Z" fill="white"/>
<path d="M91.2813 96.0557H89.5312V94.3057H91.2813V96.0557Z" fill="white"/>
<path d="M157.34 99.2052C157.322 99.2052 157.305 99.2052 157.287 99.205C156.228 99.1912 154.693 98.8165 153.391 97.1076C153.308 96.9988 153.312 96.8474 153.399 96.743C153.487 96.6386 153.636 96.6094 153.757 96.6718C153.781 96.6844 156.126 97.8822 157.551 96.9965C158.339 96.5076 158.723 95.4474 158.693 93.8456C158.69 93.6957 158.802 93.5679 158.951 93.5504C158.989 93.5469 159.718 93.4711 160.5 94.0912C160.377 93.7546 160.106 93.3567 159.529 93.0202C158.611 92.4847 157.463 92.4578 156.534 92.949C156.097 93.18 155.674 93.5023 155.277 93.908C155.132 94.0556 154.931 94.1367 154.724 94.1326C154.521 94.1273 154.327 94.0369 154.193 93.8844C153.969 93.6303 153.946 93.2582 154.137 92.979L154.284 92.7652C153.884 92.3242 153.516 91.465 154.176 90.4092C155.083 88.9587 157.343 88.3684 158.991 89.1261C159.832 88.7855 161.452 88.6157 162.363 90.1545C162.408 90.2298 162.417 90.3208 162.387 90.403C162.357 90.485 162.292 90.5495 162.21 90.5786L161.323 90.8913C161.769 91.519 162.618 92.9621 162.447 94.6515C162.311 95.9829 161.572 97.1703 160.248 98.1797C159.377 98.8421 158.347 99.2052 157.34 99.2052Z" fill="white"/>
<path d="M151.143 69.9866C152.922 69.8774 154.6 69.1213 155.86 67.8608C157.121 66.6003 157.877 64.9224 157.986 63.1431L158.014 63.1431C158.123 64.9225 158.879 66.6005 160.139 67.861C161.4 69.1216 163.078 69.8776 164.857 69.9866L164.857 70.014C163.078 70.123 161.4 70.879 160.139 72.1395C158.879 73.4001 158.123 75.0781 158.014 76.8574L157.986 76.8574C157.877 75.0782 157.121 73.4002 155.86 72.1397C154.6 70.8792 152.922 70.1232 151.143 70.014L151.143 69.9866Z" fill="url(#paint0_radial_0_1)"/>
<path d="M198.653 368.597H193.607C193.329 368.597 193.103 368.448 193.103 368.264C193.103 368.08 193.329 367.931 193.607 367.931H198.653C198.932 367.931 199.158 368.08 199.158 368.264C199.158 368.448 198.932 368.597 198.653 368.597Z" fill="#EF0000"/>
<path d="M198.653 369.93H193.607C193.329 369.93 193.103 369.781 193.103 369.597C193.103 369.413 193.329 369.264 193.607 369.264H198.653C198.932 369.264 199.158 369.413 199.158 369.597C199.158 369.781 198.932 369.93 198.653 369.93Z" fill="#EF0000"/>
<path d="M116.915 371.173V373.193H145.035V371.173L131.039 369.962L116.915 371.173Z" fill="#EEEEEE"/>
<path d="M116.915 369.557V371.576H145.035V369.557L131.039 368.346L116.915 369.557Z" fill="#DCDCDC"/>
<path d="M145.77 372.385C145.501 372.385 145.282 372.54 145.282 372.731V373.308H116.668V372.731C116.668 372.54 116.45 372.385 116.181 372.385C115.911 372.385 115.693 372.54 115.693 372.731V373.654C115.693 373.845 115.911 374 116.181 374H145.77C146.039 374 146.258 373.845 146.258 373.654V372.731C146.258 372.54 146.039 372.385 145.77 372.385Z" fill="#00AEEF"/>
<path d="M145.77 369.962C145.501 369.962 145.282 370.117 145.282 370.308V370.885H116.668V370.308C116.668 370.117 116.45 369.962 116.181 369.962C115.911 369.962 115.693 370.117 115.693 370.308V371.231C115.693 371.422 115.911 371.577 116.181 371.577H145.77C146.039 371.577 146.258 371.422 146.258 371.231V370.308C146.258 370.117 146.039 369.962 145.77 369.962Z" fill="#00AEEF"/>
<path d="M214.967 359.364C214.911 359.11 214.665 358.952 214.435 359.013C214.298 359.074 214.194 359.162 214.135 359.264C214.076 359.366 214.066 359.477 214.106 359.583L214.149 359.771L214.58 359.661L214.153 359.775C214.168 359.852 214.206 359.926 214.265 359.993C214.306 360.045 214.359 360.103 214.417 360.171C214.64 360.405 214.839 360.649 215.011 360.902C215.142 361.124 215.414 361.191 215.617 361.052C215.725 360.961 215.794 360.853 215.818 360.738C215.842 360.624 215.821 360.507 215.758 360.4C215.556 360.092 215.319 359.794 215.048 359.51C215.007 359.465 215.001 359.487 214.992 359.48L214.967 359.364Z" fill="#FFFFFE"/>
<path d="M213.542 360.758C213.486 361.012 213.239 361.17 213.009 361.109C212.455 360.968 212.684 360.284 212.986 359.953C213.21 359.719 213.409 359.475 213.581 359.222C213.711 359 213.984 358.933 214.187 359.072C214.294 359.164 214.364 359.272 214.388 359.386C214.412 359.501 214.391 359.617 214.327 359.724C214.146 360.034 213.571 360.574 213.536 360.758H213.542Z" fill="#FFFFFE"/>
<path d="M174.901 353.808H151.846C150.11 353.808 148.703 354.761 148.703 355.937V368.711C148.703 369.886 150.11 370.84 151.846 370.84H174.901C176.637 370.84 178.045 369.886 178.045 368.711V355.937C178.045 354.761 176.637 353.808 174.901 353.808Z" fill="#29B71C"/>
<path d="M172.805 368.001H153.942C153.664 368.001 153.398 367.927 153.201 367.793C153.005 367.66 152.894 367.48 152.894 367.292C152.894 367.103 153.005 366.923 153.201 366.79C153.398 366.657 153.664 366.582 153.942 366.582H172.805C173.083 366.582 173.349 366.657 173.546 366.79C173.742 366.923 173.853 367.103 173.853 367.292C173.853 367.48 173.742 367.66 173.546 367.793C173.349 367.927 173.083 368.001 172.805 368.001Z" fill="#EEEEEE"/>
<path d="M166.518 368.711C166.24 368.711 165.973 368.636 165.777 368.503C165.58 368.37 165.47 368.189 165.47 368.001V366.582C165.47 366.394 165.58 366.213 165.777 366.08C165.973 365.947 166.24 365.872 166.518 365.872C166.796 365.872 167.062 365.947 167.259 366.08C167.455 366.213 167.566 366.394 167.566 366.582V368.001C167.566 368.189 167.455 368.37 167.259 368.503C167.062 368.636 166.796 368.711 166.518 368.711Z" fill="#00AEEF"/>
<path d="M168.037 359.96L160.702 357.476C160.542 357.422 160.365 357.396 160.186 357.401C160.008 357.406 159.834 357.442 159.682 357.505C159.53 357.569 159.404 357.657 159.317 357.763C159.229 357.868 159.183 357.987 159.182 358.108V363.7C159.184 363.827 159.235 363.95 159.331 364.059C159.427 364.168 159.564 364.257 159.727 364.317C159.879 364.379 160.053 364.411 160.23 364.41C160.426 364.41 160.619 364.373 160.786 364.303L168.121 361.195C168.28 361.128 168.41 361.033 168.496 360.921C168.583 360.809 168.623 360.683 168.614 360.556C168.604 360.431 168.545 360.31 168.444 360.206C168.343 360.101 168.203 360.016 168.037 359.96Z" fill="#EEEEEE"/>
<path d="M151.846 353.808C151.013 353.808 150.213 354.032 149.623 354.431C149.034 354.83 148.703 355.372 148.703 355.937V368.711C148.703 369.275 149.034 369.817 149.623 370.216C150.213 370.615 151.013 370.84 151.846 370.84H163.374V353.808H151.846Z" fill="#E53935"/>
<path d="M153.942 366.582C153.664 366.582 153.398 366.657 153.201 366.79C153.005 366.923 152.894 367.103 152.894 367.292C152.894 367.48 153.005 367.66 153.201 367.793C153.398 367.927 153.664 368.001 153.942 368.001H163.374V366.582H153.942Z" fill="#FAFAFA"/>
<path d="M160.702 357.476C160.542 357.422 160.365 357.396 160.186 357.401C160.008 357.406 159.834 357.442 159.682 357.505C159.53 357.569 159.404 357.657 159.317 357.763C159.229 357.868 159.183 357.987 159.182 358.108V363.7C159.184 363.827 159.235 363.95 159.331 364.059C159.427 364.168 159.564 364.257 159.727 364.317C159.879 364.379 160.053 364.411 160.23 364.41C160.426 364.41 160.619 364.373 160.786 364.303L163.374 363.203V358.378L160.702 357.476Z" fill="#00AEEF"/>
<path d="M208.855 356.231H212.278L207.388 353V355.262C207.388 355.797 208.045 356.231 208.855 356.231Z" fill="#00AEEF"/>
<path d="M206.854 354.615H186.603V360.269H206.854C207.149 360.269 207.387 360.128 207.387 359.955V354.929C207.387 354.756 207.148 354.615 206.854 354.615Z" fill="#C6CACF"/>
<path d="M205.644 360.269H183.458C182.993 360.269 182.761 359.883 183.089 359.656L186.889 357.038L183.089 354.42C182.761 354.194 182.993 353.808 183.458 353.808H205.644C205.932 353.808 206.165 353.968 206.165 354.167V359.91C206.165 360.108 205.932 360.269 205.644 360.269Z" fill="#00AEEF"/>
<path d="M194.617 355.93H192.599C192.32 355.93 192.094 356.079 192.094 356.263V358.263C192.094 358.447 192.32 358.597 192.599 358.597C192.878 358.597 193.103 358.447 193.103 358.263V357.596H194.617C194.896 357.596 195.122 357.447 195.122 357.263V356.263C195.122 356.079 194.896 355.93 194.617 355.93ZM194.113 356.93H193.103V356.596H194.113V356.93Z" fill="white"/>
<path d="M197.14 355.93H196.131C195.852 355.93 195.626 356.079 195.626 356.263V358.263C195.626 358.447 195.852 358.597 196.131 358.597H198.149C198.428 358.597 198.654 358.447 198.654 358.263V356.93C198.654 356.378 197.975 355.93 197.14 355.93ZM197.645 357.93H196.636V356.596H197.14C197.418 356.596 197.645 356.746 197.645 356.93L197.645 357.93Z" fill="white"/>
<path d="M201.682 355.93H199.663C199.384 355.93 199.159 356.079 199.159 356.263V358.263C199.159 358.447 199.385 358.597 199.663 358.597C199.942 358.597 200.168 358.447 200.168 358.263V357.596H201.177C201.456 357.596 201.682 357.447 201.682 357.263C201.682 357.079 201.456 356.93 201.177 356.93H200.168V356.596H201.682C201.96 356.596 202.186 356.447 202.186 356.263C202.186 356.079 201.96 355.93 201.682 355.93Z" fill="white"/>
<path d="M206.891 371.577H191.99C191.716 371.577 191.494 371.42 191.494 371.227V361.427C191.494 361.234 191.716 361.077 191.99 361.077H206.891C207.165 361.077 207.387 361.234 207.387 361.427V371.227C207.387 371.42 207.165 371.577 206.891 371.577Z" fill="#C6CACF"/>
<path d="M192.487 370.877V361.077H191.99C191.716 361.077 191.494 361.234 191.494 361.427V371.227C191.494 371.42 191.716 371.577 191.99 371.577H206.891C207.165 371.577 207.387 371.42 207.387 371.227V370.877H192.487Z" fill="#00AEEF"/>
<path d="M205.695 369.961H200.522C200.262 369.961 200.052 369.806 200.052 369.615V365.461C200.052 365.27 200.262 365.115 200.522 365.115H205.695C205.954 365.115 206.165 365.27 206.165 365.461V369.615C206.165 369.806 205.954 369.961 205.695 369.961Z" fill="black"/>
<path d="M204.942 365.923H201.274V369.154H204.942V365.923Z" fill="#00AEEF"/>
<path d="M205.718 363.263H200.168C199.889 363.263 199.663 363.114 199.663 362.93C199.663 362.746 199.889 362.597 200.168 362.597H205.718C205.997 362.597 206.223 362.746 206.223 362.93C206.223 363.114 205.997 363.263 205.718 363.263Z" fill="#EF0000"/>
<path d="M205.718 364.597H200.168C199.889 364.597 199.663 364.448 199.663 364.264C199.663 364.08 199.889 363.931 200.168 363.931H205.718C205.997 363.931 206.223 364.08 206.223 364.264C206.223 364.448 205.997 364.597 205.718 364.597Z" fill="#EF0000"/>
<path d="M198.654 363.263H193.608C193.329 363.263 193.103 363.114 193.103 362.93C193.103 362.746 193.329 362.597 193.608 362.597H198.654C198.932 362.597 199.158 362.746 199.158 362.93C199.158 363.114 198.932 363.263 198.654 363.263Z" fill="#EF0000"/>
<path d="M198.654 364.597H193.608C193.329 364.597 193.103 364.448 193.103 364.264C193.103 364.08 193.329 363.931 193.608 363.931H198.654C198.932 363.931 199.158 364.08 199.158 364.264C199.158 364.448 198.932 364.597 198.654 364.597Z" fill="#EF0000"/>
<path d="M198.654 365.93H193.608C193.329 365.93 193.103 365.781 193.103 365.597C193.103 365.413 193.329 365.264 193.608 365.264H198.654C198.932 365.264 199.158 365.413 199.158 365.597C199.158 365.781 198.932 365.93 198.654 365.93Z" fill="#EF0000"/>
<path d="M198.654 367.264H193.608C193.329 367.264 193.103 367.115 193.103 366.931C193.103 366.747 193.329 366.598 193.608 366.598H198.654C198.932 366.598 199.158 366.747 199.158 366.931C199.158 367.115 198.932 367.264 198.654 367.264Z" fill="#EF0000"/>
<path d="M145.035 354.615V369.154H143.201L138.922 361.884L143.201 354.615H145.035Z" fill="#EEEEEE"/>
<path d="M143.812 354.615V355.844L139.382 361.884L143.812 367.925V369.154H116.915V354.615H143.812Z" fill="white"/>
<path d="M118.139 355.423V364.637L130.976 365.923L143.813 364.637V355.423H118.139Z" fill="#29B71C"/>
<path d="M131.586 357.039V360.27C132.262 360.27 132.809 359.547 132.809 358.654C132.809 357.762 132.262 357.039 131.586 357.039Z" fill="#FE5F1A"/>
<path d="M131.098 357.039C131.368 357.039 131.587 357.762 131.587 358.654C131.587 359.547 131.368 360.27 131.098 360.27C130.017 360.27 129.142 359.547 129.142 358.654C129.142 357.762 130.017 357.039 131.098 357.039Z" fill="#00AEEF"/>
<path d="M143.812 366.731L136.477 362.692L141.93 363.337L143.813 364.639L143.812 366.731Z" fill="#027372"/>
<path d="M140.846 363.568L137.358 361.885L132.865 363.568L130.364 365.23L136.132 368.346H143.812V366.108L140.846 363.568Z" fill="#E53935"/>
<path d="M142.59 363.443L141.565 363.5L137.7 362.305V360.27L142.59 363.443Z" fill="#EEEEEE"/>
<path d="M132.809 363.5L136.939 360.27L140.145 363.5L132.809 363.5Z" fill="white"/>
<path d="M135.254 368.346H133.019L124.251 362.692L129.107 363.364L135.254 368.346Z" fill="#027372"/>
<path d="M127.536 363.568L132.81 368.346H118.139V364.871L119.992 363.568L124.239 361.885L127.536 363.568Z" fill="#00AEEF"/>
<path d="M129.141 363.443L128.116 363.5L124.251 362.305V360.27L129.141 363.443Z" fill="#EEEEEE"/>
<path d="M119.361 363.5L124.179 360.27L127.919 363.5L119.361 363.5Z" fill="white"/>
<path d="M145.77 353.808H116.181C115.911 353.808 115.693 353.954 115.693 354.135V369.634C115.693 369.815 115.911 369.961 116.181 369.961H145.77C146.039 369.961 146.258 369.815 146.258 369.634V354.135C146.258 353.954 146.039 353.808 145.77 353.808ZM145.282 369.307H116.668V354.462H145.282V369.307Z" fill="#00AEEF"/>
<path d="M134.032 358.654C134.032 357.764 132.661 357.039 130.975 357.039C129.29 357.039 127.919 357.764 127.919 358.654C127.919 359.545 129.29 360.27 130.975 360.27C132.661 360.27 134.032 359.545 134.032 358.654ZM128.884 358.654C128.884 358.045 129.822 357.549 130.975 357.549C132.129 357.549 133.067 358.045 133.067 358.654C133.067 359.264 132.129 359.76 130.975 359.76C129.822 359.76 128.884 359.264 128.884 358.654Z" fill="black"/>
<path d="M116.915 368.014C116.915 368.197 117.145 368.346 117.429 368.346H144.52C144.804 368.346 145.035 368.197 145.035 368.014V354.947C145.035 354.764 144.804 354.615 144.52 354.615H117.429C117.145 354.615 116.915 354.764 116.915 354.947V357.605C116.915 357.788 117.145 357.937 117.429 357.937C117.714 357.937 117.944 357.788 117.944 357.605V355.28H144.006V363.668L138.111 359.862C137.91 359.732 137.585 359.732 137.384 359.862L130.975 364.001L124.566 359.862C124.365 359.732 124.039 359.732 123.838 359.862L117.944 363.668V358.934C117.944 358.75 117.714 358.602 117.429 358.602C117.145 358.602 116.915 358.75 116.915 358.934V368.014ZM137.748 360.566L141.221 362.809H134.274L137.748 360.566ZM124.202 360.566L127.676 362.809H120.729L124.202 360.566ZM119.7 363.474H128.704L130.611 364.705C130.612 364.706 134.04 366.92 134.04 366.92C134.141 366.985 134.273 367.017 134.404 367.017C134.536 367.017 134.667 366.985 134.768 366.92C134.969 366.79 134.969 366.58 134.768 366.45L131.702 364.47L133.246 363.474H142.25L144.006 364.608V367.682H117.944V364.608L119.7 363.474Z" fill="black"/>
<path fill-rule="evenodd" clip-rule="evenodd" d="M102.326 345.064C102.489 345.064 102.622 345.207 102.622 345.38V351.317H102.032V345.38C102.032 345.204 102.164 345.064 102.326 345.064Z" fill="#FFFFFE"/>
<path d="M344 239L344 300" stroke="white"/>
<path d="M1 239L0.999979 300" stroke="white"/>
<path d="M344 239L344 300" stroke="white"/>
<path d="M1 239L0.999979 300" stroke="white"/>
<g filter="url(#filter0_d_0_1)">
<mask id="path-130-inside-1_0_1" fill="white">
<path d="M308 352H52H308Z"/>
</mask>
<path d="M308 352H52H308Z" fill="#231F20"/>
<path d="M308 352H52H308Z" stroke="black" stroke-width="0.6" mask="url(#path-130-inside-1_0_1)"/>
</g>
<path d="M344 12L344 73" stroke="white"/>
<path d="M1 12L0.999979 73" stroke="white"/>
<defs>
<filter id="filter0_d_0_1" x="48" y="351.7" width="264" height="8.59961" filterUnits="userSpaceOnUse" color-interpolation-filters="sRGB">
<feFlood flood-opacity="0" result="BackgroundImageFix"/>
<feColorMatrix in="SourceAlpha" type="matrix" values="0 0 0 0 0 0 0 0 0 0 0 0 0 0 0 0 0 0 127 0" result="hardAlpha"/>
<feOffset dy="4"/>
<feGaussianBlur stdDeviation="2"/>
<feComposite in2="hardAlpha" operator="out"/>
<feColorMatrix type="matrix" values="0 0 0 0 0 0 0 0 0 0 0 0 0 0 0 0 0 0 0.25 0"/>
<feBlend mode="normal" in2="BackgroundImageFix" result="effect1_dropShadow_0_1"/>
<feBlend mode="normal" in="SourceGraphic" in2="effect1_dropShadow_0_1" result="shape"/>
</filter>
<radialGradient id="paint0_radial_0_1" cx="0" cy="0" r="1" gradientUnits="userSpaceOnUse" gradientTransform="translate(163.496 71.2834) rotate(-161.317) scale(14.5971 116.932)">
<stop offset="0.067" stop-color="#9168C0"/>
<stop offset="0.343" stop-color="white"/>
<stop offset="0.672" stop-color="#8ED8FD"/>
</radialGradient>
</defs>
</svg>
