<svg width="809" height="356" viewBox="0 0 809 356" fill="none" xmlns="http://www.w3.org/2000/svg">
<rect width="809" height="356" fill="#F5F5F5"/>
<rect x="408" y="2" width="15" height="354" fill="url(#paint0_linear_0_1)"/>
<rect x="2" y="-2" width="805" height="352" transform="matrix(1 0 0 -1 0 352)" stroke="#01ADED" stroke-width="4"/>
<path d="M607 57C607 61.4183 601.866 65 598 65C594.134 65 591 61.4183 591 57C591 52.5817 594.134 49 598 49C601.866 49 607 52.5817 607 57Z" fill="#00AEEF"/>
<path d="M599.68 63C600.68 63 601.564 62.5133 602.11 61.7685V57.1671L600.951 56.5221L600.989 59.9081C600.99 60.0103 600.935 60.1055 600.846 60.1575L597.62 62.0252C598.125 62.636 598.874 63 599.68 63ZM596.428 62.0536L600.409 59.749L600.394 58.431L597.447 60.1569C597.358 60.2089 597.249 60.2106 597.158 60.1608L593.901 58.349C593.627 59.0815 593.687 59.9019 594.085 60.5827C594.487 61.2707 595.135 61.7631 595.912 61.9688C596.083 62.0142 596.255 62.0388 596.428 62.0536ZM602.689 60.7032C603.494 60.5812 604.186 60.1178 604.595 59.4176C604.997 58.7296 605.104 57.9284 604.896 57.161C604.846 56.9773 604.774 56.8044 604.692 56.637L600.704 54.4195L599.556 55.0913L602.542 56.7514C602.632 56.802 602.689 56.8971 602.689 57.0003V60.7032ZM597.297 59.5811L598.444 58.9092L595.459 57.2492C595.368 57.1983 595.312 57.1034 595.312 57.0003V53.3018C594.515 53.4229 593.812 53.8847 593.405 54.5824C593.003 55.2704 592.896 56.0722 593.104 56.8396C593.154 57.0233 593.226 57.1967 593.309 57.3641L597.297 59.5811ZM599.019 58.5728L600.387 57.7714L600.369 56.199L598.983 55.4278L597.614 56.2291L597.631 57.8016L599.019 58.5728ZM597.049 57.4779L597.011 54.0925C597.01 53.9908 597.064 53.8956 597.153 53.8436L600.364 51.9575C599.86 51.3573 599.121 51 598.32 51C597.321 51 596.436 51.487 595.89 52.2315V56.8329L597.049 57.4779ZM604.099 55.651C604.373 54.9185 604.314 54.101 603.915 53.4179C603.513 52.7299 602.865 52.238 602.089 52.0323C601.901 51.9823 601.71 51.957 601.519 51.9436L597.591 54.251L597.606 55.5695L600.553 53.8436C600.598 53.817 600.649 53.8034 600.7 53.8034C600.749 53.8034 600.798 53.816 600.842 53.8403L604.099 55.651Z" fill="white"/>
<path d="M607 104C607 108.418 601.866 112 598 112C594.134 112 591 108.418 591 104C591 99.5817 594.134 96 598 96C601.866 96 607 99.5817 607 104Z" fill="#00AEEF"/>
<path d="M591.075 159.028C590.481 153.52 596.691 148.396 601.729 147.899C606.767 147.403 611.332 151.465 611.925 156.972C612.519 162.48 608.916 167.347 603.878 167.844C598.84 168.34 591.668 164.535 591.075 159.028Z" fill="#00AEEF"/>
<path d="M588.039 131.235C587.465 125.668 593.713 120.464 598.769 119.943C603.824 119.422 608.387 123.512 608.961 129.078C609.535 134.644 605.902 139.579 600.846 140.1C595.791 140.621 588.613 136.801 588.039 131.235Z" fill="#00AEEF"/>
<path d="M595.102 124.357C595.046 123.807 595.638 123.296 596.119 123.247C596.6 123.197 597.035 123.602 597.092 124.152C597.148 124.701 596.805 125.187 596.324 125.236C595.843 125.286 595.159 124.906 595.102 124.357Z" fill="white"/>
<path d="M597.102 129.357C597.046 128.807 597.638 128.296 598.119 128.247C598.6 128.197 599.035 128.602 599.092 129.152C599.148 129.701 598.805 130.187 598.324 130.236C597.843 130.286 597.159 129.906 597.102 129.357Z" fill="white"/>
<path d="M602.102 131.357C602.046 130.807 602.638 130.296 603.119 130.247C603.6 130.197 604.035 130.602 604.092 131.152C604.148 131.701 603.805 132.187 603.324 132.236C602.843 132.286 602.159 131.906 602.102 131.357Z" fill="white"/>
<path d="M597.102 135.357C597.046 134.807 597.638 134.296 598.119 134.247C598.6 134.197 599.035 134.602 599.092 135.152C599.148 135.701 598.805 136.187 598.324 136.236C597.843 136.286 597.159 135.906 597.102 135.357Z" fill="white"/>
<path d="M604.455 126.865C604.398 126.315 604.991 125.804 605.471 125.755C605.952 125.705 606.388 126.11 606.444 126.66C606.501 127.209 606.157 127.694 605.676 127.744C605.196 127.794 604.512 127.414 604.455 126.865Z" fill="white"/>
<path d="M600.322 125.783C600.237 124.959 601.126 124.192 601.847 124.118C602.568 124.044 603.221 124.652 603.306 125.476C603.391 126.3 602.875 127.028 602.154 127.102C601.433 127.177 600.407 126.607 600.322 125.783Z" fill="white"/>
<path d="M590.282 133.156C590.197 132.332 591.086 131.566 591.807 131.491C592.528 131.417 593.182 132.025 593.267 132.849C593.352 133.673 592.836 134.401 592.115 134.475C591.394 134.55 590.367 133.98 590.282 133.156Z" fill="white"/>
<path d="M589.77 128.183C589.685 127.359 590.573 126.592 591.295 126.518C592.016 126.443 592.669 127.051 592.754 127.875C592.839 128.699 592.323 129.427 591.602 129.502C590.881 129.576 589.855 129.007 589.77 128.183Z" fill="white"/>
<path d="M601.347 135.731C601.262 134.906 602.151 134.14 602.872 134.065C603.593 133.991 604.247 134.599 604.332 135.423C604.416 136.247 603.901 136.975 603.18 137.05C602.459 137.124 601.432 136.555 601.347 135.731Z" fill="white"/>
<path d="M607 80C607 84.4183 601.866 88 598 88C594.134 88 591 84.4183 591 80C591 75.5817 594.134 72 598 72C601.866 72 607 75.5817 607 80Z" fill="#00AEEF"/>
<path d="M626 167C631.523 167 636 162.523 636 157C636 151.477 631.523 147 626 147C620.477 147 616 151.477 616 157C616 162.523 620.477 167 626 167Z" fill="#00AEEF"/>
<path d="M625.928 149.282C623.881 149.351 621.945 150.229 620.543 151.723C619.142 153.218 618.391 155.207 618.454 157.254C618.426 158.887 618.901 160.49 619.816 161.843C620.73 163.196 622.04 164.234 623.566 164.816C623.608 164.826 623.65 164.83 623.692 164.83C623.745 164.832 623.797 164.823 623.846 164.804C623.894 164.784 623.938 164.755 623.974 164.717C624.011 164.679 624.039 164.634 624.056 164.584C624.074 164.535 624.081 164.482 624.076 164.43C624.076 164.23 624.076 163.74 624.066 163.072C623.819 163.133 623.566 163.164 623.312 163.166C622.931 163.192 622.553 163.092 622.234 162.882C621.915 162.673 621.673 162.364 621.546 162.004C621.416 161.53 621.122 161.117 620.716 160.838C620.066 160.362 620.716 160.348 620.762 160.348C621.003 160.391 621.231 160.487 621.429 160.63C621.627 160.773 621.79 160.959 621.906 161.174C622.02 161.431 622.204 161.65 622.439 161.805C622.673 161.959 622.947 162.043 623.228 162.046C623.524 162.042 623.815 161.974 624.082 161.846C624.114 161.447 624.281 161.071 624.556 160.78C624.062 160.781 623.574 160.675 623.125 160.469C622.675 160.264 622.276 159.964 621.953 159.59C621.63 159.216 621.392 158.776 621.254 158.302C621.117 157.827 621.083 157.329 621.156 156.84C621.142 156.058 621.415 155.297 621.924 154.702C621.696 154.013 621.723 153.264 621.998 152.592C622.052 152.579 622.108 152.572 622.164 152.574C622.864 152.655 623.522 152.947 624.052 153.41C625.275 153.054 626.574 153.054 627.796 153.41C628.326 152.947 628.985 152.655 629.684 152.574C629.74 152.572 629.796 152.579 629.85 152.592C630.126 153.264 630.152 154.013 629.924 154.702C630.433 155.297 630.706 156.058 630.692 156.84C630.765 157.33 630.732 157.829 630.593 158.304C630.455 158.779 630.215 159.219 629.891 159.592C629.566 159.966 629.165 160.265 628.714 160.469C628.263 160.672 627.773 160.776 627.278 160.772C627.459 160.971 627.597 161.204 627.684 161.458C627.772 161.712 627.806 161.981 627.786 162.248C627.786 163.314 627.776 164.174 627.776 164.434C627.772 164.486 627.778 164.539 627.795 164.588C627.813 164.637 627.84 164.682 627.876 164.72C627.912 164.758 627.956 164.788 628.004 164.807C628.052 164.827 628.104 164.836 628.156 164.834C628.201 164.834 628.246 164.83 628.29 164.82C629.817 164.238 631.126 163.2 632.041 161.847C632.956 160.494 633.431 158.891 633.402 157.258C633.466 155.21 632.716 153.22 631.314 151.725C629.913 150.23 627.976 149.351 625.928 149.282Z" fill="white"/>
<path d="M610.462 10H735.541C736.72 10 737.889 10.2324 738.978 10.6838C740.068 11.1352 741.059 11.7969 741.893 12.6311C742.727 13.4652 743.389 14.4555 743.84 15.5454C744.291 16.6352 744.524 17.8033 744.524 18.983V35.152H610.462C607.126 35.152 603.928 33.827 601.569 31.4686C599.211 29.1101 597.886 25.9114 597.886 22.576C597.886 19.2406 599.211 16.0419 601.569 13.6834C603.928 11.325 607.126 10 610.462 10Z" fill="#00AEEF"/>
<text fill="#FEFEFE" xml:space="preserve" style="white-space: pre" font-family="Harmattan" font-size="15" font-weight="bold" letter-spacing="0em"><tspan x="627" y="27.0872">&#x627;&#x644;&#x630;&#x643;&#x627;&#x621; &#x627;&#x644;&#x627;&#x635;&#x637;&#x646;&#x627;&#x639;&#x64a; AI</tspan></text>
<path d="M748.208 55.0996H663.208V61.0996H748.208V55.0996Z" fill="#949598"/>
<path d="M748.208 79.0996H663.208V84.0996H748.208V79.0996Z" fill="#949598"/>
<path d="M748.208 103.1H663.208V108.1H748.208V103.1Z" fill="#949598"/>
<path d="M748.208 127.1H663.208V132.1H748.208V127.1Z" fill="#949598"/>
<path d="M748.208 154.1H663.208V160.1H748.208V154.1Z" fill="#949598"/>
<path d="M731 55H647V61H731V55Z" fill="#00AEEF"/>
<path d="M731.208 79.0996H647.208V84.0996H731.208V79.0996Z" fill="#00AEEF"/>
<path d="M731.208 126.1H647.208V132.1H731.208V126.1Z" fill="#00AEEF"/>
<path d="M731.208 103.1H647.208V108.1H731.208V103.1Z" fill="#00AEEF"/>
<path d="M731.208 154.1H647.208V160.1H731.208V154.1Z" fill="#00AEEF"/>
<path d="M729.763 54.0996C730.942 54.0996 732.072 54.4831 732.906 55.1657C733.739 55.8484 734.208 56.7742 734.208 57.7396V58.4567C734.208 58.9349 734.093 59.4086 733.87 59.8505C733.647 60.2925 733.32 60.6941 732.907 61.0324C732.494 61.3708 732.004 61.6391 731.465 61.8223C730.925 62.0054 730.347 62.0996 729.763 62.0996C729.296 62.0996 728.833 62.0242 728.402 61.8777C727.97 61.7311 727.578 61.5163 727.248 61.2456C726.917 60.9749 726.656 60.6535 726.477 60.2998C726.299 59.9462 726.207 59.5672 726.208 59.1845V57.0118C726.208 56.2394 726.582 55.4987 727.249 54.9526C727.916 54.4064 728.82 54.0996 729.763 54.0996Z" fill="black"/>
<path d="M729.763 77.0996C730.942 77.0996 732.072 77.531 732.906 78.299C733.739 79.067 734.208 80.1085 734.208 81.1946V82.0013C734.208 82.5394 734.093 83.0722 733.87 83.5694C733.647 84.0666 733.32 84.5184 732.907 84.899C732.494 85.2797 732.004 85.5816 731.465 85.7876C730.925 85.9936 730.347 86.0996 729.763 86.0996C729.296 86.0996 728.833 86.0148 728.402 85.8499C727.97 85.6851 727.578 85.4434 727.248 85.1389C726.917 84.8343 726.656 84.4727 726.477 84.0749C726.299 83.677 726.207 83.2506 726.208 82.8201V80.3758C726.208 79.5069 726.582 78.6736 727.249 78.0592C727.916 77.4448 728.82 77.0996 729.763 77.0996Z" fill="black"/>
<path d="M729.763 125.1C730.942 125.1 732.072 125.531 732.906 126.299C733.739 127.067 734.208 128.109 734.208 129.195V130.001C734.208 130.539 734.093 131.072 733.87 131.569C733.647 132.067 733.32 132.518 732.907 132.899C732.494 133.28 732.004 133.582 731.465 133.788C730.925 133.994 730.347 134.1 729.763 134.1C729.296 134.1 728.833 134.015 728.402 133.85C727.97 133.685 727.578 133.443 727.248 133.139C726.917 132.834 726.656 132.473 726.477 132.075C726.299 131.677 726.207 131.251 726.208 130.82V128.376C726.208 127.507 726.582 126.674 727.249 126.059C727.916 125.445 728.82 125.1 729.763 125.1Z" fill="black"/>
<path d="M729.763 101.1C730.942 101.1 732.072 101.531 732.906 102.299C733.739 103.067 734.208 104.109 734.208 105.195V106.001C734.208 106.539 734.093 107.072 733.87 107.569C733.647 108.067 733.32 108.518 732.907 108.899C732.494 109.28 732.004 109.582 731.465 109.788C730.925 109.994 730.347 110.1 729.763 110.1C729.296 110.1 728.833 110.015 728.402 109.85C727.97 109.685 727.578 109.443 727.248 109.139C726.917 108.834 726.656 108.473 726.477 108.075C726.299 107.677 726.207 107.251 726.208 106.82V104.376C726.208 103.507 726.582 102.674 727.249 102.059C727.916 101.445 728.82 101.1 729.763 101.1Z" fill="black"/>
<path d="M729.763 153.1C730.942 153.1 732.072 153.483 732.906 154.166C733.739 154.848 734.208 155.774 734.208 156.74V157.457C734.208 157.935 734.093 158.409 733.87 158.851C733.647 159.293 733.32 159.694 732.907 160.032C732.494 160.371 732.004 160.639 731.465 160.822C730.925 161.005 730.347 161.1 729.763 161.1C729.296 161.1 728.833 161.024 728.402 160.878C727.97 160.731 727.578 160.516 727.248 160.246C726.917 159.975 726.656 159.653 726.477 159.3C726.299 158.946 726.207 158.567 726.208 158.184V156.012C726.208 155.239 726.582 154.499 727.249 153.953C727.916 153.406 728.82 153.1 729.763 153.1Z" fill="black"/>
<path d="M742.191 232.668C743.572 232.668 744.691 231.773 744.691 230.668C744.691 229.563 743.572 228.668 742.191 228.668C740.81 228.668 739.691 229.563 739.691 230.668C739.691 231.773 740.81 232.668 742.191 232.668Z" fill="#231F20"/>
<path d="M742.191 232.668C743.572 232.668 744.691 231.773 744.691 230.668C744.691 229.563 743.572 228.668 742.191 228.668C740.81 228.668 739.691 229.563 739.691 230.668C739.691 231.773 740.81 232.668 742.191 232.668Z" fill="#231F20"/>
<path d="M742.191 252.668C743.572 252.668 744.691 251.773 744.691 250.668C744.691 249.563 743.572 248.668 742.191 248.668C740.81 248.668 739.691 249.563 739.691 250.668C739.691 251.773 740.81 252.668 742.191 252.668Z" fill="#231F20"/>
<path d="M742.191 272.668C743.572 272.668 744.691 271.773 744.691 270.668C744.691 269.563 743.572 268.668 742.191 268.668C740.81 268.668 739.691 269.563 739.691 270.668C739.691 271.773 740.81 272.668 742.191 272.668Z" fill="#231F20"/>
<path d="M742.191 292.668C743.572 292.668 744.691 291.773 744.691 290.668C744.691 289.563 743.572 288.668 742.191 288.668C740.81 288.668 739.691 289.563 739.691 290.668C739.691 291.773 740.81 292.668 742.191 292.668Z" fill="#231F20"/>
<path d="M742.191 311.668C743.572 311.668 744.691 310.773 744.691 309.668C744.691 308.563 743.572 307.668 742.191 307.668C740.81 307.668 739.691 308.563 739.691 309.668C739.691 310.773 740.81 311.668 742.191 311.668Z" fill="#231F20"/>
<path d="M742.191 331.668C743.572 331.668 744.691 330.773 744.691 329.668C744.691 328.563 743.572 327.668 742.191 327.668C740.81 327.668 739.691 328.563 739.691 329.668C739.691 330.773 740.81 331.668 742.191 331.668Z" fill="#231F20"/>
<path d="M607.462 185H732.541C733.72 185 734.889 185.232 735.978 185.684C737.068 186.135 738.059 186.797 738.893 187.631C739.727 188.465 740.389 189.455 740.84 190.545C741.291 191.635 741.524 192.803 741.524 193.983V210.152H607.462C604.126 210.152 600.928 208.827 598.569 206.469C596.211 204.11 594.886 200.911 594.886 197.576C594.886 194.241 596.211 191.042 598.569 188.683C600.928 186.325 604.126 185 607.462 185Z" fill="#00AEEF"/>
<text fill="#FEFEFE" xml:space="preserve" style="white-space: pre" font-family="Harmattan" font-size="15" font-weight="bold" letter-spacing="0em"><tspan x="633.124" y="203.087">&#x627;&#x62a;&#x642;&#x627;&#x646; &#x641;&#x646; &#x627;&#x644;&#x637;&#x628;&#x627;&#x639;&#x629;</tspan></text>
<path d="M736.691 228.668H646.691V233.668H736.691V228.668Z" fill="#949598"/>
<path d="M736.691 248.668H646.691V253.668H736.691V248.668Z" fill="#949598"/>
<path d="M736.691 268.668H646.691V273.668H736.691V268.668Z" fill="#949598"/>
<path d="M736.691 288.668H646.691V293.668H736.691V288.668Z" fill="#949598"/>
<path d="M736.691 307.668H646.691V312.668H736.691V307.668Z" fill="#949598"/>
<path d="M736.691 327.668H646.691V332.668H736.691V327.668Z" fill="#949598"/>
<path d="M734.691 228.668H646.691V233.668H734.691V228.668Z" fill="#00AEEF"/>
<path d="M734.691 248.668H646.691V253.668H734.691V248.668Z" fill="#00AEEF"/>
<path d="M734.691 268.668H646.691V273.668H734.691V268.668Z" fill="#00AEEF"/>
<path d="M707.691 327.668H646.691V332.668H707.691V327.668Z" fill="#00AEEF"/>
<path d="M734.691 288.668H646.691V293.668H734.691V288.668Z" fill="#00AEEF"/>
<path d="M708.691 307.668H646.691V312.668H708.691V307.668Z" fill="#00AEEF"/>
<path d="M731.247 227.668C732.425 227.668 733.556 228.051 734.389 228.734C735.223 229.417 735.691 230.343 735.691 231.308V232.025C735.691 232.503 735.577 232.977 735.354 233.419C735.131 233.861 734.803 234.262 734.39 234.601C733.978 234.939 733.488 235.208 732.948 235.391C732.409 235.574 731.831 235.668 731.247 235.668C730.779 235.668 730.317 235.593 729.885 235.446C729.453 235.299 729.061 235.085 728.731 234.814C728.401 234.543 728.139 234.222 727.961 233.868C727.782 233.515 727.69 233.136 727.691 232.753V230.58C727.691 229.808 728.066 229.067 728.732 228.521C729.399 227.975 730.304 227.668 731.247 227.668Z" fill="black"/>
<path d="M731.247 247.668C732.425 247.668 733.556 248.051 734.389 248.734C735.223 249.417 735.691 250.343 735.691 251.308V252.025C735.691 252.503 735.577 252.977 735.354 253.419C735.131 253.861 734.803 254.262 734.39 254.601C733.978 254.939 733.488 255.208 732.948 255.391C732.409 255.574 731.831 255.668 731.247 255.668C730.779 255.668 730.317 255.593 729.885 255.446C729.453 255.299 729.061 255.085 728.731 254.814C728.401 254.543 728.139 254.222 727.961 253.868C727.782 253.515 727.69 253.136 727.691 252.753V250.58C727.691 249.808 728.066 249.067 728.732 248.521C729.399 247.975 730.304 247.668 731.247 247.668Z" fill="black"/>
<path d="M731.247 267.668C732.425 267.668 733.556 268.051 734.389 268.734C735.223 269.417 735.691 270.343 735.691 271.308V272.025C735.691 272.503 735.577 272.977 735.354 273.419C735.131 273.861 734.803 274.262 734.39 274.601C733.978 274.939 733.488 275.208 732.948 275.391C732.409 275.574 731.831 275.668 731.247 275.668C730.779 275.668 730.317 275.593 729.885 275.446C729.453 275.299 729.061 275.085 728.731 274.814C728.401 274.543 728.139 274.222 727.961 273.868C727.782 273.515 727.69 273.136 727.691 272.753V270.58C727.691 269.808 728.066 269.067 728.732 268.521C729.399 267.975 730.304 267.668 731.247 267.668Z" fill="black"/>
<path d="M706.691 326.668C708.017 326.668 709.289 327.051 710.226 327.734C711.164 328.417 711.691 329.343 711.691 330.308V331.025C711.691 331.503 711.563 331.977 711.311 332.419C711.06 332.861 710.692 333.262 710.228 333.601C709.764 333.939 709.212 334.208 708.605 334.391C707.998 334.574 707.348 334.668 706.691 334.668C706.165 334.668 705.645 334.593 705.159 334.446C704.674 334.299 704.233 334.085 703.861 333.814C703.49 333.543 703.195 333.222 702.994 332.868C702.793 332.515 702.69 332.136 702.691 331.753V329.58C702.691 328.808 703.112 328.067 703.863 327.521C704.613 326.975 705.63 326.668 706.691 326.668Z" fill="black"/>
<path d="M731.247 287.668C732.425 287.668 733.556 288.051 734.389 288.734C735.223 289.417 735.691 290.343 735.691 291.308V292.025C735.691 292.503 735.577 292.977 735.354 293.419C735.131 293.861 734.803 294.262 734.39 294.601C733.978 294.939 733.488 295.208 732.948 295.391C732.409 295.574 731.831 295.668 731.247 295.668C730.779 295.668 730.317 295.593 729.885 295.446C729.453 295.299 729.061 295.085 728.731 294.814C728.401 294.543 728.139 294.222 727.961 293.868C727.782 293.515 727.69 293.136 727.691 292.753V290.58C727.691 289.808 728.066 289.067 728.732 288.521C729.399 287.975 730.304 287.668 731.247 287.668Z" fill="black"/>
<path d="M706.691 306.668C708.017 306.668 709.289 307.051 710.226 307.734C711.164 308.417 711.691 309.343 711.691 310.308V311.025C711.691 311.503 711.563 311.977 711.311 312.419C711.06 312.861 710.692 313.262 710.228 313.601C709.764 313.939 709.212 314.208 708.605 314.391C707.998 314.574 707.348 314.668 706.691 314.668C706.165 314.668 705.645 314.593 705.159 314.446C704.674 314.299 704.233 314.085 703.861 313.814C703.49 313.543 703.195 313.222 702.994 312.868C702.793 312.515 702.69 312.136 702.691 311.753V309.58C702.691 308.808 703.112 308.067 703.863 307.521C704.613 306.975 705.63 306.668 706.691 306.668Z" fill="black"/>
<text fill="#FF0040" xml:space="preserve" style="white-space: pre" font-family="Bahij TheSansArabic" font-size="13" font-weight="500" letter-spacing="0em"><tspan x="484.124" y="238.261">Adobe Acrobat</tspan></text>
<text fill="#FF0040" xml:space="preserve" style="white-space: pre" font-family="Bahij TheSansArabic" font-size="13" font-weight="500" letter-spacing="0em"><tspan x="484.124" y="335.261">Printer hardware</tspan></text>
<text fill="#FF0040" xml:space="preserve" style="white-space: pre" font-family="Bahij TheSansArabic" font-size="13" font-weight="500" letter-spacing="0em"><tspan x="484.124" y="257.261">pdf xchange editor</tspan></text>
<text fill="#FF0040" xml:space="preserve" style="white-space: pre" font-family="Bahij TheSansArabic" font-size="13" font-weight="500" letter-spacing="0em"><tspan x="483.124" y="278.261">PDFsam Enhanced</tspan></text>
<text fill="#FF0040" xml:space="preserve" style="white-space: pre" font-family="Bahij TheSansArabic" font-size="13" font-weight="500" letter-spacing="0em"><tspan x="484.124" y="297.261">i top pdf</tspan></text>
<text fill="#FF0040" xml:space="preserve" style="white-space: pre" font-family="Bahij TheSansArabic" font-size="13" font-weight="500" letter-spacing="0em"><tspan x="483" y="316.261">adobe indesign scripting</tspan></text>
<text fill="#FF0040" xml:space="preserve" style="white-space: pre" font-family="Bahij TheSansArabic" font-size="13" font-weight="500" letter-spacing="0em"><tspan x="481" y="62.261">chat GPT</tspan></text>
<text fill="#FF0040" xml:space="preserve" style="white-space: pre" font-family="Bahij TheSansArabic" font-size="13" font-weight="500" letter-spacing="0em"><tspan x="481" y="86.261">gemini</tspan></text>
<text fill="#FF0040" xml:space="preserve" style="white-space: pre" font-family="Bahij TheSansArabic" font-size="13" font-weight="500" letter-spacing="0em"><tspan x="481" y="110.261">DeepAI</tspan></text>
<text fill="#FF0040" xml:space="preserve" style="white-space: pre" font-family="Bahij TheSansArabic" font-size="13" font-weight="500" letter-spacing="0em"><tspan x="480" y="136.261">BLACKBOX.AI</tspan></text>
<text fill="#FF0040" xml:space="preserve" style="white-space: pre" font-family="Bahij TheSansArabic" font-size="13" font-weight="500" letter-spacing="0em"><tspan x="481" y="162.261">GitHub Copilot </tspan></text>
<path d="M611 158.781C611 158.349 610.749 158 610.438 158C610.128 158 609.877 158.349 609.877 158.781V160.219C609.877 160.651 610.128 161 610.438 161C610.749 161 611 160.651 611 160.219V158.781ZM607.562 158C607.871 158 608.123 158.349 608.123 158.781V160.219C608.123 160.651 607.871 161 607.562 161C607.251 161 607 160.651 607 160.219V158.781C607 158.349 607.251 158 607.562 158Z" fill="white"/>
<path fill-rule="evenodd" clip-rule="evenodd" d="M595 158.884V160.953C595.001 161.221 595.094 161.481 595.246 161.639C597.037 163.502 599.248 165 601.5 165C603.992 165 606.486 162.961 607.754 161.639C607.906 161.481 607.999 161.221 608 160.954V158.884C608 158.613 607.939 158.349 607.826 158.13L607.43 157.37C607.219 156.962 606.903 156.854 606.567 156.854C606.441 154.8 606.141 153.334 605.424 152.262C604.06 150.208 602.248 150 601.5 150C600.752 150 598.94 150.208 597.576 152.262C596.86 153.334 596.559 154.8 596.433 156.854C596.096 156.854 595.782 156.96 595.57 157.37L595.175 158.131C595.061 158.351 595 158.613 595 158.884H595ZM597.48 157.944C597.497 157.473 597.766 157.288 598.047 157.157C598.343 157.421 598.703 157.524 599.049 157.524C599.416 157.524 600.101 157.399 600.671 156.592C600.814 156.389 600.913 156.07 600.979 155.717C601.152 155.692 601.325 155.679 601.499 155.678C601.654 155.678 601.832 155.691 602.021 155.717C602.087 156.07 602.186 156.389 602.329 156.592C602.898 157.399 603.584 157.524 603.951 157.524C604.297 157.524 604.658 157.422 604.954 157.157C605.233 157.288 605.501 157.476 605.52 157.944C605.549 158.83 605.552 159.715 605.555 160.6C605.556 161.044 605.557 161.489 605.562 161.933C605.56 162.191 605.451 162.431 605.286 162.538C603.941 163.408 602.669 163.846 601.499 163.846C600.331 163.846 599.059 163.408 597.715 162.538C597.55 162.431 597.44 162.191 597.439 161.933C597.423 160.605 597.436 159.272 597.481 157.944H597.48V157.944ZM605.27 156.093C605.051 156.404 604.636 156.612 604.189 156.612C603.848 156.612 603.198 156.508 602.662 155.734C602.426 155.412 602.28 154.604 602.296 153.784C602.313 153.127 602.442 152.584 602.637 152.354C602.849 152.088 603.328 151.973 603.865 152.042C604.433 152.123 604.912 152.388 605.156 152.758C605.684 153.577 605.571 155.654 605.27 156.093ZM601.955 154.073C601.939 154.2 601.931 154.338 601.923 154.488C601.923 154.592 601.923 154.696 601.931 154.811C601.768 154.788 601.63 154.788 601.5 154.788C601.37 154.788 601.232 154.788 601.069 154.811C601.078 154.696 601.078 154.592 601.078 154.488C601.069 154.338 601.061 154.2 601.045 154.073C601.216 154.05 601.37 154.038 601.5 154.038C601.63 154.038 601.785 154.05 601.955 154.073ZM600.704 153.784C600.72 154.604 600.574 155.412 600.338 155.734C599.802 156.508 599.152 156.612 598.811 156.612C598.364 156.612 597.949 156.404 597.73 156.093C597.429 155.654 597.316 153.577 597.844 152.758C598.088 152.388 598.567 152.123 599.135 152.042C599.672 151.973 600.151 152.088 600.363 152.354C600.557 152.584 600.687 153.127 600.704 153.784Z" fill="white"/>
<path d="M532.281 106.056H530.531V104.306H532.281V106.056Z" fill="white"/>
<path d="M598.34 109.205C598.322 109.205 598.305 109.205 598.287 109.205C597.228 109.191 595.693 108.816 594.391 107.108C594.308 106.999 594.312 106.847 594.399 106.743C594.487 106.639 594.636 106.609 594.757 106.672C594.781 106.684 597.126 107.882 598.551 106.996C599.339 106.508 599.723 105.447 599.693 103.846C599.69 103.696 599.802 103.568 599.951 103.55C599.989 103.547 600.718 103.471 601.5 104.091C601.377 103.755 601.106 103.357 600.529 103.02C599.611 102.485 598.463 102.458 597.534 102.949C597.097 103.18 596.674 103.502 596.277 103.908C596.132 104.056 595.931 104.137 595.724 104.133C595.521 104.127 595.327 104.037 595.193 103.884C594.969 103.63 594.946 103.258 595.137 102.979L595.284 102.765C594.884 102.324 594.516 101.465 595.176 100.409C596.083 98.9587 598.343 98.3684 599.991 99.1261C600.832 98.7855 602.452 98.6157 603.363 100.155C603.408 100.23 603.417 100.321 603.387 100.403C603.357 100.485 603.292 100.549 603.21 100.579L602.323 100.891C602.769 101.519 603.618 102.962 603.447 104.651C603.311 105.983 602.572 107.17 601.248 108.18C600.377 108.842 599.347 109.205 598.34 109.205Z" fill="white"/>
<path d="M592.143 79.9866C593.922 79.8774 595.6 79.1213 596.86 77.8608C598.121 76.6003 598.877 74.9224 598.986 73.1431L599.014 73.1431C599.123 74.9225 599.879 76.6005 601.139 77.861C602.4 79.1216 604.078 79.8776 605.857 79.9866L605.857 80.014C604.078 80.123 602.4 80.879 601.139 82.1395C599.879 83.4001 599.123 85.0781 599.014 86.8574L598.986 86.8574C598.877 85.0782 598.121 83.4002 596.86 82.1397C595.6 80.8792 593.922 80.1232 592.143 80.014L592.143 79.9866Z" fill="url(#paint1_radial_0_1)"/>
<path d="M785 249L785 310" stroke="white"/>
<path d="M442 249L442 310" stroke="white"/>
<path d="M785 249L785 310" stroke="white"/>
<path d="M442 249L442 310" stroke="white"/>
<path d="M785 22L785 83" stroke="white"/>
<path d="M442 22L442 83" stroke="white"/>
<path d="M204 57C204 61.4183 198.866 65 195 65C191.134 65 188 61.4183 188 57C188 52.5817 191.134 49 195 49C198.866 49 204 52.5817 204 57Z" fill="#00AEEF"/>
<path d="M196.68 63C197.68 63 198.564 62.5133 199.11 61.7685V57.1671L197.951 56.5221L197.989 59.9081C197.99 60.0103 197.935 60.1055 197.846 60.1575L194.62 62.0252C195.125 62.636 195.874 63 196.68 63ZM193.428 62.0536L197.409 59.749L197.394 58.431L194.447 60.1569C194.358 60.2089 194.249 60.2106 194.158 60.1608L190.901 58.349C190.627 59.0815 190.687 59.9019 191.085 60.5827C191.487 61.2707 192.135 61.7631 192.912 61.9688C193.083 62.0142 193.255 62.0388 193.428 62.0536ZM199.689 60.7032C200.494 60.5812 201.186 60.1178 201.595 59.4176C201.997 58.7296 202.104 57.9284 201.896 57.161C201.846 56.9773 201.774 56.8044 201.692 56.637L197.704 54.4195L196.556 55.0913L199.542 56.7514C199.632 56.802 199.689 56.8971 199.689 57.0003V60.7032ZM194.297 59.5811L195.444 58.9092L192.459 57.2492C192.368 57.1983 192.312 57.1034 192.312 57.0003V53.3018C191.515 53.4229 190.812 53.8847 190.405 54.5824C190.003 55.2704 189.896 56.0722 190.104 56.8396C190.154 57.0233 190.226 57.1967 190.309 57.3641L194.297 59.5811ZM196.019 58.5728L197.387 57.7714L197.369 56.199L195.983 55.4278L194.614 56.2291L194.631 57.8016L196.019 58.5728ZM194.049 57.4779L194.011 54.0925C194.01 53.9908 194.064 53.8956 194.153 53.8436L197.364 51.9575C196.86 51.3573 196.121 51 195.32 51C194.321 51 193.436 51.487 192.89 52.2315V56.8329L194.049 57.4779ZM201.099 55.651C201.373 54.9185 201.314 54.101 200.915 53.4179C200.513 52.7299 199.865 52.238 199.089 52.0323C198.901 51.9823 198.71 51.957 198.519 51.9436L194.591 54.251L194.606 55.5695L197.553 53.8436C197.598 53.817 197.649 53.8034 197.7 53.8034C197.749 53.8034 197.798 53.816 197.842 53.8403L201.099 55.651Z" fill="white"/>
<path d="M204 104C204 108.418 198.866 112 195 112C191.134 112 188 108.418 188 104C188 99.5817 191.134 96 195 96C198.866 96 204 99.5817 204 104Z" fill="#00AEEF"/>
<path d="M188.075 159.028C187.481 153.52 193.691 148.396 198.729 147.899C203.767 147.403 208.332 151.465 208.925 156.972C209.519 162.48 205.916 167.347 200.878 167.844C195.84 168.34 188.668 164.535 188.075 159.028Z" fill="#00AEEF"/>
<path d="M185.039 131.235C184.465 125.668 190.713 120.464 195.769 119.943C200.824 119.422 205.387 123.512 205.961 129.078C206.535 134.644 202.902 139.579 197.846 140.1C192.791 140.621 185.613 136.801 185.039 131.235Z" fill="#00AEEF"/>
<path d="M192.102 124.357C192.046 123.807 192.638 123.296 193.119 123.247C193.6 123.197 194.035 123.602 194.092 124.152C194.148 124.701 193.805 125.187 193.324 125.236C192.843 125.286 192.159 124.906 192.102 124.357Z" fill="white"/>
<path d="M194.102 129.357C194.046 128.807 194.638 128.296 195.119 128.247C195.6 128.197 196.035 128.602 196.092 129.152C196.148 129.701 195.805 130.187 195.324 130.236C194.843 130.286 194.159 129.906 194.102 129.357Z" fill="white"/>
<path d="M199.102 131.357C199.046 130.807 199.638 130.296 200.119 130.247C200.6 130.197 201.035 130.602 201.092 131.152C201.148 131.701 200.805 132.187 200.324 132.236C199.843 132.286 199.159 131.906 199.102 131.357Z" fill="white"/>
<path d="M194.102 135.357C194.046 134.807 194.638 134.296 195.119 134.247C195.6 134.197 196.035 134.602 196.092 135.152C196.148 135.701 195.805 136.187 195.324 136.236C194.843 136.286 194.159 135.906 194.102 135.357Z" fill="white"/>
<path d="M201.455 126.865C201.398 126.315 201.991 125.804 202.471 125.755C202.952 125.705 203.388 126.11 203.444 126.66C203.501 127.209 203.157 127.694 202.676 127.744C202.196 127.794 201.512 127.414 201.455 126.865Z" fill="white"/>
<path d="M197.322 125.783C197.237 124.959 198.126 124.192 198.847 124.118C199.568 124.044 200.221 124.652 200.306 125.476C200.391 126.3 199.875 127.028 199.154 127.102C198.433 127.177 197.407 126.607 197.322 125.783Z" fill="white"/>
<path d="M187.282 133.156C187.197 132.332 188.086 131.566 188.807 131.491C189.528 131.417 190.182 132.025 190.267 132.849C190.352 133.673 189.836 134.401 189.115 134.475C188.394 134.55 187.367 133.98 187.282 133.156Z" fill="white"/>
<path d="M186.77 128.183C186.685 127.359 187.573 126.592 188.295 126.518C189.016 126.443 189.669 127.051 189.754 127.875C189.839 128.699 189.323 129.427 188.602 129.502C187.881 129.576 186.855 129.007 186.77 128.183Z" fill="white"/>
<path d="M198.347 135.731C198.262 134.906 199.151 134.14 199.872 134.065C200.593 133.991 201.247 134.599 201.332 135.423C201.416 136.247 200.901 136.975 200.18 137.05C199.459 137.124 198.432 136.555 198.347 135.731Z" fill="white"/>
<path d="M204 80C204 84.4183 198.866 88 195 88C191.134 88 188 84.4183 188 80C188 75.5817 191.134 72 195 72C198.866 72 204 75.5817 204 80Z" fill="#00AEEF"/>
<path d="M223 167C228.523 167 233 162.523 233 157C233 151.477 228.523 147 223 147C217.477 147 213 151.477 213 157C213 162.523 217.477 167 223 167Z" fill="#00AEEF"/>
<path d="M222.928 149.282C220.881 149.351 218.945 150.229 217.543 151.723C216.142 153.218 215.391 155.207 215.454 157.254C215.426 158.887 215.901 160.49 216.816 161.843C217.73 163.196 219.04 164.234 220.566 164.816C220.608 164.826 220.65 164.83 220.692 164.83C220.745 164.832 220.797 164.823 220.846 164.804C220.894 164.784 220.938 164.755 220.974 164.717C221.011 164.679 221.039 164.634 221.056 164.584C221.074 164.535 221.081 164.482 221.076 164.43C221.076 164.23 221.076 163.74 221.066 163.072C220.819 163.133 220.566 163.164 220.312 163.166C219.931 163.192 219.553 163.092 219.234 162.882C218.915 162.673 218.673 162.364 218.546 162.004C218.416 161.53 218.122 161.117 217.716 160.838C217.066 160.362 217.716 160.348 217.762 160.348C218.003 160.391 218.231 160.487 218.429 160.63C218.627 160.773 218.79 160.959 218.906 161.174C219.02 161.431 219.204 161.65 219.439 161.805C219.673 161.959 219.947 162.043 220.228 162.046C220.524 162.042 220.815 161.974 221.082 161.846C221.114 161.447 221.281 161.071 221.556 160.78C221.062 160.781 220.574 160.675 220.125 160.469C219.675 160.264 219.276 159.964 218.953 159.59C218.63 159.216 218.392 158.776 218.254 158.302C218.117 157.827 218.083 157.329 218.156 156.84C218.142 156.058 218.415 155.297 218.924 154.702C218.696 154.013 218.723 153.264 218.998 152.592C219.052 152.579 219.108 152.572 219.164 152.574C219.864 152.655 220.522 152.947 221.052 153.41C222.275 153.054 223.574 153.054 224.796 153.41C225.326 152.947 225.985 152.655 226.684 152.574C226.74 152.572 226.796 152.579 226.85 152.592C227.126 153.264 227.152 154.013 226.924 154.702C227.433 155.297 227.706 156.058 227.692 156.84C227.765 157.33 227.732 157.829 227.593 158.304C227.455 158.779 227.215 159.219 226.891 159.592C226.566 159.966 226.165 160.265 225.714 160.469C225.263 160.672 224.773 160.776 224.278 160.772C224.459 160.971 224.597 161.204 224.684 161.458C224.772 161.712 224.806 161.981 224.786 162.248C224.786 163.314 224.776 164.174 224.776 164.434C224.772 164.486 224.778 164.539 224.795 164.588C224.813 164.637 224.84 164.682 224.876 164.72C224.912 164.758 224.956 164.788 225.004 164.807C225.052 164.827 225.104 164.836 225.156 164.834C225.201 164.834 225.246 164.83 225.29 164.82C226.817 164.238 228.126 163.2 229.041 161.847C229.956 160.494 230.431 158.891 230.402 157.258C230.466 155.21 229.716 153.22 228.314 151.725C226.913 150.23 224.976 149.351 222.928 149.282Z" fill="white"/>
<path d="M207.462 10H332.541C333.72 10 334.889 10.2324 335.978 10.6838C337.068 11.1352 338.059 11.7969 338.893 12.6311C339.727 13.4652 340.389 14.4555 340.84 15.5454C341.291 16.6352 341.524 17.8033 341.524 18.983V35.152H207.462C204.126 35.152 200.928 33.827 198.569 31.4686C196.211 29.1101 194.886 25.9114 194.886 22.576C194.886 19.2406 196.211 16.0419 198.569 13.6834C200.928 11.325 204.126 10 207.462 10Z" fill="#00AEEF"/>
<text fill="#FEFEFE" xml:space="preserve" style="white-space: pre" font-family="Harmattan" font-size="15" font-weight="bold" letter-spacing="0em"><tspan x="261" y="25.0872">AI</tspan></text>
<path d="M345.208 55.0996H260.208V61.0996H345.208V55.0996Z" fill="#949598"/>
<path d="M345.208 79.0996H260.208V84.0996H345.208V79.0996Z" fill="#949598"/>
<path d="M345.208 103.1H260.208V108.1H345.208V103.1Z" fill="#949598"/>
<path d="M345.208 127.1H260.208V132.1H345.208V127.1Z" fill="#949598"/>
<path d="M345.208 154.1H260.208V160.1H345.208V154.1Z" fill="#949598"/>
<path d="M328 55H244V61H328V55Z" fill="#00AEEF"/>
<path d="M328.208 79.0996H244.208V84.0996H328.208V79.0996Z" fill="#00AEEF"/>
<path d="M328.208 126.1H244.208V132.1H328.208V126.1Z" fill="#00AEEF"/>
<path d="M328.208 103.1H244.208V108.1H328.208V103.1Z" fill="#00AEEF"/>
<path d="M328.208 154.1H244.208V160.1H328.208V154.1Z" fill="#00AEEF"/>
<path d="M326.763 54.0996C327.942 54.0996 329.072 54.4831 329.906 55.1657C330.739 55.8484 331.208 56.7742 331.208 57.7396V58.4567C331.208 58.9349 331.093 59.4086 330.87 59.8505C330.647 60.2925 330.32 60.6941 329.907 61.0324C329.494 61.3708 329.004 61.6391 328.465 61.8223C327.925 62.0054 327.347 62.0996 326.763 62.0996C326.296 62.0996 325.833 62.0242 325.402 61.8777C324.97 61.7311 324.578 61.5163 324.248 61.2456C323.917 60.9749 323.656 60.6535 323.477 60.2998C323.299 59.9462 323.207 59.5672 323.208 59.1845V57.0118C323.208 56.2394 323.582 55.4987 324.249 54.9526C324.916 54.4064 325.82 54.0996 326.763 54.0996Z" fill="black"/>
<path d="M326.763 77.0996C327.942 77.0996 329.072 77.531 329.906 78.299C330.739 79.067 331.208 80.1085 331.208 81.1946V82.0013C331.208 82.5394 331.093 83.0722 330.87 83.5694C330.647 84.0666 330.32 84.5184 329.907 84.899C329.494 85.2797 329.004 85.5816 328.465 85.7876C327.925 85.9936 327.347 86.0996 326.763 86.0996C326.296 86.0996 325.833 86.0148 325.402 85.8499C324.97 85.6851 324.578 85.4434 324.248 85.1389C323.917 84.8343 323.656 84.4727 323.477 84.0749C323.299 83.677 323.207 83.2506 323.208 82.8201V80.3758C323.208 79.5069 323.582 78.6736 324.249 78.0592C324.916 77.4448 325.82 77.0996 326.763 77.0996Z" fill="black"/>
<path d="M326.763 125.1C327.942 125.1 329.072 125.531 329.906 126.299C330.739 127.067 331.208 128.109 331.208 129.195V130.001C331.208 130.539 331.093 131.072 330.87 131.569C330.647 132.067 330.32 132.518 329.907 132.899C329.494 133.28 329.004 133.582 328.465 133.788C327.925 133.994 327.347 134.1 326.763 134.1C326.296 134.1 325.833 134.015 325.402 133.85C324.97 133.685 324.578 133.443 324.248 133.139C323.917 132.834 323.656 132.473 323.477 132.075C323.299 131.677 323.207 131.251 323.208 130.82V128.376C323.208 127.507 323.582 126.674 324.249 126.059C324.916 125.445 325.82 125.1 326.763 125.1Z" fill="black"/>
<path d="M326.763 101.1C327.942 101.1 329.072 101.531 329.906 102.299C330.739 103.067 331.208 104.109 331.208 105.195V106.001C331.208 106.539 331.093 107.072 330.87 107.569C330.647 108.067 330.32 108.518 329.907 108.899C329.494 109.28 329.004 109.582 328.465 109.788C327.925 109.994 327.347 110.1 326.763 110.1C326.296 110.1 325.833 110.015 325.402 109.85C324.97 109.685 324.578 109.443 324.248 109.139C323.917 108.834 323.656 108.473 323.477 108.075C323.299 107.677 323.207 107.251 323.208 106.82V104.376C323.208 103.507 323.582 102.674 324.249 102.059C324.916 101.445 325.82 101.1 326.763 101.1Z" fill="black"/>
<path d="M326.763 153.1C327.942 153.1 329.072 153.483 329.906 154.166C330.739 154.848 331.208 155.774 331.208 156.74V157.457C331.208 157.935 331.093 158.409 330.87 158.851C330.647 159.293 330.32 159.694 329.907 160.032C329.494 160.371 329.004 160.639 328.465 160.822C327.925 161.005 327.347 161.1 326.763 161.1C326.296 161.1 325.833 161.024 325.402 160.878C324.97 160.731 324.578 160.516 324.248 160.246C323.917 159.975 323.656 159.653 323.477 159.3C323.299 158.946 323.207 158.567 323.208 158.184V156.012C323.208 155.239 323.582 154.499 324.249 153.953C324.916 153.406 325.82 153.1 326.763 153.1Z" fill="black"/>
<path d="M339.191 232.668C340.572 232.668 341.691 231.773 341.691 230.668C341.691 229.563 340.572 228.668 339.191 228.668C337.81 228.668 336.691 229.563 336.691 230.668C336.691 231.773 337.81 232.668 339.191 232.668Z" fill="#231F20"/>
<path d="M339.191 232.668C340.572 232.668 341.691 231.773 341.691 230.668C341.691 229.563 340.572 228.668 339.191 228.668C337.81 228.668 336.691 229.563 336.691 230.668C336.691 231.773 337.81 232.668 339.191 232.668Z" fill="#231F20"/>
<path d="M339.191 252.668C340.572 252.668 341.691 251.773 341.691 250.668C341.691 249.563 340.572 248.668 339.191 248.668C337.81 248.668 336.691 249.563 336.691 250.668C336.691 251.773 337.81 252.668 339.191 252.668Z" fill="#231F20"/>
<path d="M339.191 272.668C340.572 272.668 341.691 271.773 341.691 270.668C341.691 269.563 340.572 268.668 339.191 268.668C337.81 268.668 336.691 269.563 336.691 270.668C336.691 271.773 337.81 272.668 339.191 272.668Z" fill="#231F20"/>
<path d="M339.191 292.668C340.572 292.668 341.691 291.773 341.691 290.668C341.691 289.563 340.572 288.668 339.191 288.668C337.81 288.668 336.691 289.563 336.691 290.668C336.691 291.773 337.81 292.668 339.191 292.668Z" fill="#231F20"/>
<path d="M339.191 311.668C340.572 311.668 341.691 310.773 341.691 309.668C341.691 308.563 340.572 307.668 339.191 307.668C337.81 307.668 336.691 308.563 336.691 309.668C336.691 310.773 337.81 311.668 339.191 311.668Z" fill="#231F20"/>
<path d="M339.191 331.668C340.572 331.668 341.691 330.773 341.691 329.668C341.691 328.563 340.572 327.668 339.191 327.668C337.81 327.668 336.691 328.563 336.691 329.668C336.691 330.773 337.81 331.668 339.191 331.668Z" fill="#231F20"/>
<path d="M172.609 185H327.851C329.315 185 330.765 185.231 332.117 185.68C333.47 186.128 334.699 186.786 335.734 187.615C336.77 188.444 337.591 189.429 338.151 190.512C338.712 191.595 339 192.756 339 193.929V210H172.609C168.469 210 164.499 208.683 161.572 206.339C158.644 203.995 157 200.815 157 197.5C157 194.185 158.644 191.005 161.572 188.661C164.499 186.317 168.469 185 172.609 185Z" fill="#00AEEF"/>
<text fill="#FEFEFE" xml:space="preserve" style="white-space: pre" font-family="Harmattan" font-size="15" font-weight="bold" letter-spacing="0em"><tspan x="171" y="200.087">Mastering the art of printing</tspan></text>
<path d="M333.691 228.668H243.691V233.668H333.691V228.668Z" fill="#949598"/>
<path d="M333.691 248.668H243.691V253.668H333.691V248.668Z" fill="#949598"/>
<path d="M333.691 268.668H243.691V273.668H333.691V268.668Z" fill="#949598"/>
<path d="M333.691 288.668H243.691V293.668H333.691V288.668Z" fill="#949598"/>
<path d="M333.691 307.668H243.691V312.668H333.691V307.668Z" fill="#949598"/>
<path d="M333.691 327.668H243.691V332.668H333.691V327.668Z" fill="#949598"/>
<path d="M331.691 228.668H243.691V233.668H331.691V228.668Z" fill="#00AEEF"/>
<path d="M331.691 248.668H243.691V253.668H331.691V248.668Z" fill="#00AEEF"/>
<path d="M331.691 268.668H243.691V273.668H331.691V268.668Z" fill="#00AEEF"/>
<path d="M304.691 327.668H243.691V332.668H304.691V327.668Z" fill="#00AEEF"/>
<path d="M331.691 288.668H243.691V293.668H331.691V288.668Z" fill="#00AEEF"/>
<path d="M305.691 307.668H243.691V312.668H305.691V307.668Z" fill="#00AEEF"/>
<path d="M328.247 227.668C329.425 227.668 330.556 228.051 331.389 228.734C332.223 229.417 332.691 230.343 332.691 231.308V232.025C332.691 232.503 332.577 232.977 332.354 233.419C332.131 233.861 331.803 234.262 331.39 234.601C330.978 234.939 330.488 235.208 329.948 235.391C329.409 235.574 328.831 235.668 328.247 235.668C327.779 235.668 327.317 235.593 326.885 235.446C326.453 235.299 326.061 235.085 325.731 234.814C325.401 234.543 325.139 234.222 324.961 233.868C324.782 233.515 324.69 233.136 324.691 232.753V230.58C324.691 229.808 325.066 229.067 325.732 228.521C326.399 227.975 327.304 227.668 328.247 227.668Z" fill="black"/>
<path d="M328.247 247.668C329.425 247.668 330.556 248.051 331.389 248.734C332.223 249.417 332.691 250.343 332.691 251.308V252.025C332.691 252.503 332.577 252.977 332.354 253.419C332.131 253.861 331.803 254.262 331.39 254.601C330.978 254.939 330.488 255.208 329.948 255.391C329.409 255.574 328.831 255.668 328.247 255.668C327.779 255.668 327.317 255.593 326.885 255.446C326.453 255.299 326.061 255.085 325.731 254.814C325.401 254.543 325.139 254.222 324.961 253.868C324.782 253.515 324.69 253.136 324.691 252.753V250.58C324.691 249.808 325.066 249.067 325.732 248.521C326.399 247.975 327.304 247.668 328.247 247.668Z" fill="black"/>
<path d="M328.247 267.668C329.425 267.668 330.556 268.051 331.389 268.734C332.223 269.417 332.691 270.343 332.691 271.308V272.025C332.691 272.503 332.577 272.977 332.354 273.419C332.131 273.861 331.803 274.262 331.39 274.601C330.978 274.939 330.488 275.208 329.948 275.391C329.409 275.574 328.831 275.668 328.247 275.668C327.779 275.668 327.317 275.593 326.885 275.446C326.453 275.299 326.061 275.085 325.731 274.814C325.401 274.543 325.139 274.222 324.961 273.868C324.782 273.515 324.69 273.136 324.691 272.753V270.58C324.691 269.808 325.066 269.067 325.732 268.521C326.399 267.975 327.304 267.668 328.247 267.668Z" fill="black"/>
<path d="M303.691 326.668C305.017 326.668 306.289 327.051 307.226 327.734C308.164 328.417 308.691 329.343 308.691 330.308V331.025C308.691 331.503 308.563 331.977 308.311 332.419C308.06 332.861 307.692 333.262 307.228 333.601C306.764 333.939 306.212 334.208 305.605 334.391C304.998 334.574 304.348 334.668 303.691 334.668C303.165 334.668 302.645 334.593 302.159 334.446C301.674 334.299 301.233 334.085 300.861 333.814C300.49 333.543 300.195 333.222 299.994 332.868C299.793 332.515 299.69 332.136 299.691 331.753V329.58C299.691 328.808 300.112 328.067 300.863 327.521C301.613 326.975 302.63 326.668 303.691 326.668Z" fill="black"/>
<path d="M328.247 287.668C329.425 287.668 330.556 288.051 331.389 288.734C332.223 289.417 332.691 290.343 332.691 291.308V292.025C332.691 292.503 332.577 292.977 332.354 293.419C332.131 293.861 331.803 294.262 331.39 294.601C330.978 294.939 330.488 295.208 329.948 295.391C329.409 295.574 328.831 295.668 328.247 295.668C327.779 295.668 327.317 295.593 326.885 295.446C326.453 295.299 326.061 295.085 325.731 294.814C325.401 294.543 325.139 294.222 324.961 293.868C324.782 293.515 324.69 293.136 324.691 292.753V290.58C324.691 289.808 325.066 289.067 325.732 288.521C326.399 287.975 327.304 287.668 328.247 287.668Z" fill="black"/>
<path d="M303.691 306.668C305.017 306.668 306.289 307.051 307.226 307.734C308.164 308.417 308.691 309.343 308.691 310.308V311.025C308.691 311.503 308.563 311.977 308.311 312.419C308.06 312.861 307.692 313.262 307.228 313.601C306.764 313.939 306.212 314.208 305.605 314.391C304.998 314.574 304.348 314.668 303.691 314.668C303.165 314.668 302.645 314.593 302.159 314.446C301.674 314.299 301.233 314.085 300.861 313.814C300.49 313.543 300.195 313.222 299.994 312.868C299.793 312.515 299.69 312.136 299.691 311.753V309.58C299.691 308.808 300.112 308.067 300.863 307.521C301.613 306.975 302.63 306.668 303.691 306.668Z" fill="black"/>
<text fill="#FF0040" xml:space="preserve" style="white-space: pre" font-family="Bahij TheSansArabic" font-size="13" font-weight="500" letter-spacing="0em"><tspan x="81.124" y="238.261">Adobe Acrobat</tspan></text>
<text fill="#FF0040" xml:space="preserve" style="white-space: pre" font-family="Bahij TheSansArabic" font-size="13" font-weight="500" letter-spacing="0em"><tspan x="81.124" y="335.261">Printer hardware</tspan></text>
<text fill="#FF0040" xml:space="preserve" style="white-space: pre" font-family="Bahij TheSansArabic" font-size="13" font-weight="500" letter-spacing="0em"><tspan x="81.124" y="257.261">pdf xchange editor</tspan></text>
<text fill="#FF0040" xml:space="preserve" style="white-space: pre" font-family="Bahij TheSansArabic" font-size="13" font-weight="500" letter-spacing="0em"><tspan x="80.124" y="278.261">PDFsam Enhanced</tspan></text>
<text fill="#FF0040" xml:space="preserve" style="white-space: pre" font-family="Bahij TheSansArabic" font-size="13" font-weight="500" letter-spacing="0em"><tspan x="81.124" y="297.261">i top pdf</tspan></text>
<text fill="#FF0040" xml:space="preserve" style="white-space: pre" font-family="Bahij TheSansArabic" font-size="13" font-weight="500" letter-spacing="0em"><tspan x="80" y="316.261">adobe indesign scripting</tspan></text>
<text fill="#FF0040" xml:space="preserve" style="white-space: pre" font-family="Bahij TheSansArabic" font-size="13" font-weight="500" letter-spacing="0em"><tspan x="78" y="62.261">chat GPT</tspan></text>
<text fill="#FF0040" xml:space="preserve" style="white-space: pre" font-family="Bahij TheSansArabic" font-size="13" font-weight="500" letter-spacing="0em"><tspan x="78" y="86.261">gemini</tspan></text>
<text fill="#FF0040" xml:space="preserve" style="white-space: pre" font-family="Bahij TheSansArabic" font-size="13" font-weight="500" letter-spacing="0em"><tspan x="78" y="110.261">DeepAI</tspan></text>
<text fill="#FF0040" xml:space="preserve" style="white-space: pre" font-family="Bahij TheSansArabic" font-size="13" font-weight="500" letter-spacing="0em"><tspan x="77" y="136.261">BLACKBOX.AI</tspan></text>
<text fill="#FF0040" xml:space="preserve" style="white-space: pre" font-family="Bahij TheSansArabic" font-size="13" font-weight="500" letter-spacing="0em"><tspan x="78" y="162.261">GitHub Copilot </tspan></text>
<path d="M208 158.781C208 158.349 207.749 158 207.438 158C207.128 158 206.877 158.349 206.877 158.781V160.219C206.877 160.651 207.128 161 207.438 161C207.749 161 208 160.651 208 160.219V158.781ZM204.562 158C204.871 158 205.123 158.349 205.123 158.781V160.219C205.123 160.651 204.871 161 204.562 161C204.251 161 204 160.651 204 160.219V158.781C204 158.349 204.251 158 204.562 158Z" fill="white"/>
<path fill-rule="evenodd" clip-rule="evenodd" d="M192 158.884V160.953C192.001 161.221 192.094 161.481 192.246 161.639C194.037 163.502 196.248 165 198.5 165C200.992 165 203.486 162.961 204.754 161.639C204.906 161.481 204.999 161.221 205 160.954V158.884C205 158.613 204.939 158.349 204.826 158.13L204.43 157.37C204.219 156.962 203.903 156.854 203.567 156.854C203.441 154.8 203.141 153.334 202.424 152.262C201.06 150.208 199.248 150 198.5 150C197.752 150 195.94 150.208 194.576 152.262C193.86 153.334 193.559 154.8 193.433 156.854C193.096 156.854 192.782 156.96 192.57 157.37L192.175 158.131C192.061 158.351 192 158.613 192 158.884H192ZM194.48 157.944C194.497 157.473 194.766 157.288 195.047 157.157C195.343 157.421 195.703 157.524 196.049 157.524C196.416 157.524 197.101 157.399 197.671 156.592C197.814 156.389 197.913 156.07 197.979 155.717C198.152 155.692 198.325 155.679 198.499 155.678C198.654 155.678 198.832 155.691 199.021 155.717C199.087 156.07 199.186 156.389 199.329 156.592C199.898 157.399 200.584 157.524 200.951 157.524C201.297 157.524 201.658 157.422 201.954 157.157C202.233 157.288 202.501 157.476 202.52 157.944C202.549 158.83 202.552 159.715 202.555 160.6C202.556 161.044 202.557 161.489 202.562 161.933C202.56 162.191 202.451 162.431 202.286 162.538C200.941 163.408 199.669 163.846 198.499 163.846C197.331 163.846 196.059 163.408 194.715 162.538C194.55 162.431 194.44 162.191 194.439 161.933C194.423 160.605 194.436 159.272 194.481 157.944H194.48V157.944ZM202.27 156.093C202.051 156.404 201.636 156.612 201.189 156.612C200.848 156.612 200.198 156.508 199.662 155.734C199.426 155.412 199.28 154.604 199.296 153.784C199.313 153.127 199.442 152.584 199.637 152.354C199.849 152.088 200.328 151.973 200.865 152.042C201.433 152.123 201.912 152.388 202.156 152.758C202.684 153.577 202.571 155.654 202.27 156.093ZM198.955 154.073C198.939 154.2 198.931 154.338 198.923 154.488C198.923 154.592 198.923 154.696 198.931 154.811C198.768 154.788 198.63 154.788 198.5 154.788C198.37 154.788 198.232 154.788 198.069 154.811C198.078 154.696 198.078 154.592 198.078 154.488C198.069 154.338 198.061 154.2 198.045 154.073C198.216 154.05 198.37 154.038 198.5 154.038C198.63 154.038 198.785 154.05 198.955 154.073ZM197.704 153.784C197.72 154.604 197.574 155.412 197.338 155.734C196.802 156.508 196.152 156.612 195.811 156.612C195.364 156.612 194.949 156.404 194.73 156.093C194.429 155.654 194.316 153.577 194.844 152.758C195.088 152.388 195.567 152.123 196.135 152.042C196.672 151.973 197.151 152.088 197.363 152.354C197.557 152.584 197.687 153.127 197.704 153.784Z" fill="white"/>
<path d="M129.281 106.056H127.531V104.306H129.281V106.056Z" fill="white"/>
<path d="M195.34 109.205C195.322 109.205 195.305 109.205 195.287 109.205C194.228 109.191 192.693 108.816 191.391 107.108C191.308 106.999 191.312 106.847 191.399 106.743C191.487 106.639 191.636 106.609 191.757 106.672C191.781 106.684 194.126 107.882 195.551 106.996C196.339 106.508 196.723 105.447 196.693 103.846C196.69 103.696 196.802 103.568 196.951 103.55C196.989 103.547 197.718 103.471 198.5 104.091C198.377 103.755 198.106 103.357 197.529 103.02C196.611 102.485 195.463 102.458 194.534 102.949C194.097 103.18 193.674 103.502 193.277 103.908C193.132 104.056 192.931 104.137 192.724 104.133C192.521 104.127 192.327 104.037 192.193 103.884C191.969 103.63 191.946 103.258 192.137 102.979L192.284 102.765C191.884 102.324 191.516 101.465 192.176 100.409C193.083 98.9587 195.343 98.3684 196.991 99.1261C197.832 98.7855 199.452 98.6157 200.363 100.155C200.408 100.23 200.417 100.321 200.387 100.403C200.357 100.485 200.292 100.549 200.21 100.579L199.323 100.891C199.769 101.519 200.618 102.962 200.447 104.651C200.311 105.983 199.572 107.17 198.248 108.18C197.377 108.842 196.347 109.205 195.34 109.205Z" fill="white"/>
<path d="M189.143 79.9866C190.922 79.8774 192.6 79.1213 193.86 77.8608C195.121 76.6003 195.877 74.9224 195.986 73.1431L196.014 73.1431C196.123 74.9225 196.879 76.6005 198.139 77.861C199.4 79.1216 201.078 79.8776 202.857 79.9866L202.857 80.014C201.078 80.123 199.4 80.879 198.139 82.1395C196.879 83.4001 196.123 85.0781 196.014 86.8574L195.986 86.8574C195.877 85.0782 195.121 83.4002 193.86 82.1397C192.6 80.8792 190.922 80.1232 189.143 80.014L189.143 79.9866Z" fill="url(#paint2_radial_0_1)"/>
<path d="M382 249L382 310" stroke="white"/>
<path d="M39 249L39 310" stroke="white"/>
<path d="M382 249L382 310" stroke="white"/>
<path d="M39 249L39 310" stroke="white"/>
<path d="M382 22L382 83" stroke="white"/>
<path d="M39 22L39 83" stroke="white"/>
<defs>
<linearGradient id="paint0_linear_0_1" x1="423" y1="179" x2="408" y2="179" gradientUnits="userSpaceOnUse">
<stop offset="0.432692" stop-color="#535353"/>
<stop offset="0.475962"/>
<stop offset="0.476062" stop-color="#00B3FF"/>
</linearGradient>
<radialGradient id="paint1_radial_0_1" cx="0" cy="0" r="1" gradientUnits="userSpaceOnUse" gradientTransform="translate(604.496 81.2834) rotate(-161.317) scale(14.5971 116.932)">
<stop offset="0.067" stop-color="#9168C0"/>
<stop offset="0.343" stop-color="white"/>
<stop offset="0.672" stop-color="#8ED8FD"/>
</radialGradient>
<radialGradient id="paint2_radial_0_1" cx="0" cy="0" r="1" gradientUnits="userSpaceOnUse" gradientTransform="translate(201.496 81.2834) rotate(-161.317) scale(14.5971 116.932)">
<stop offset="0.067" stop-color="#9168C0"/>
<stop offset="0.343" stop-color="white"/>
<stop offset="0.672" stop-color="#8ED8FD"/>
</radialGradient>
</defs>
</svg>
