<svg width="345" height="145" viewBox="0 0 345 145" fill="none" xmlns="http://www.w3.org/2000/svg">
<rect width="345" height="145" fill="#F5F5F5"/>
<text fill="#FF0040" xml:space="preserve" style="white-space: pre" font-family="Bahij TheSansArabic" font-size="11" font-weight="500" letter-spacing="0em"><tspan x="42.4922" y="71.1824">Adobe XD</tspan></text>
<text fill="#FF0040" xml:space="preserve" style="white-space: pre" font-family="Bahij TheSansArabic" font-size="11" font-weight="500" letter-spacing="0em"><tspan x="42.4922" y="95.1824">Figma </tspan></text>
<path d="M181.492 93H112.492V92H181.492V93Z" fill="#00AEEF"/>
<path d="M181.492 69H112.492V68H181.492V69Z" fill="#00AEEF"/>
<path d="M160.931 30H289.909C291.089 30 292.257 30.2324 293.347 30.6838C294.436 31.1352 295.427 31.7969 296.261 32.6311C297.095 33.4652 297.757 34.4555 298.208 35.5454C298.66 36.6352 298.892 37.8033 298.892 38.983V55.152H160.931C157.596 55.152 154.397 53.827 152.038 51.4686C149.68 49.1101 148.355 45.9114 148.355 42.576C148.355 39.2406 149.68 36.0419 152.038 33.6834C154.397 31.325 157.596 30 160.931 30Z" fill="#00AEEF"/>
<text fill="white" xml:space="preserve" style="white-space: pre" font-family="Harmattan" font-size="15" font-weight="bold" letter-spacing="0em"><tspan x="166.492" y="45.0872">UI - UX &#x645;&#x647;&#x627;&#x631;&#x629; &#x627;&#x644;&#x62a;&#x635;&#x645;&#x64a;&#x645;</tspan></text>
<path d="M295.184 65.668H205.184V70.668H295.184V65.668Z" fill="#949598"/>
<path d="M295.184 89.668H205.184V94.668H295.184V89.668Z" fill="#949598"/>
<path d="M277.184 65.668H205.184V70.668H277.184V65.668Z" fill="#00AEEF"/>
<path d="M277.184 89.668H205.184V94.668H277.184V89.668Z" fill="#00AEEF"/>
<path d="M277.74 64.668C278.918 64.668 280.049 65.0515 280.882 65.7341C281.716 66.4167 282.184 67.3426 282.184 68.308V69.025C282.185 69.5033 282.07 69.9769 281.847 70.4189C281.624 70.8609 281.296 71.2625 280.884 71.6008C280.471 71.9391 279.981 72.2075 279.441 72.3906C278.902 72.5737 278.324 72.668 277.74 72.668C277.273 72.668 276.81 72.5925 276.378 72.446C275.947 72.2995 275.554 72.0847 275.224 71.814C274.894 71.5432 274.632 71.2219 274.454 70.8682C274.275 70.5145 274.184 70.1355 274.184 69.7528V67.5802C274.184 66.8078 274.559 66.0671 275.226 65.5209C275.892 64.9748 276.797 64.668 277.74 64.668Z" fill="black"/>
<path d="M277.74 88.668C278.918 88.668 280.049 89.0515 280.882 89.7341C281.716 90.4167 282.184 91.3426 282.184 92.308V93.025C282.185 93.5033 282.07 93.9769 281.847 94.4189C281.624 94.8609 281.296 95.2625 280.884 95.6008C280.471 95.9391 279.981 96.2075 279.441 96.3906C278.902 96.5737 278.324 96.668 277.74 96.668C277.273 96.668 276.81 96.5925 276.378 96.446C275.947 96.2995 275.554 96.0847 275.224 95.814C274.894 95.5432 274.632 95.2219 274.454 94.8682C274.275 94.5145 274.184 94.1355 274.184 93.7528V91.5802C274.184 90.8078 274.559 90.0671 275.226 89.5209C275.892 88.9748 276.797 88.668 277.74 88.668Z" fill="black"/>
<path d="M298.684 69.668C300.065 69.668 301.184 68.9964 301.184 68.168C301.184 67.3395 300.065 66.668 298.684 66.668C297.303 66.668 296.184 67.3395 296.184 68.168C296.184 68.9964 297.303 69.668 298.684 69.668Z" fill="#231F20"/>
<path d="M298.684 93.668C300.065 93.668 301.184 92.9964 301.184 92.168C301.184 91.3395 300.065 90.668 298.684 90.668C297.303 90.668 296.184 91.3395 296.184 92.168C296.184 92.9964 297.303 93.668 298.684 93.668Z" fill="#231F20"/>
<path d="M214.46 112.364C214.404 112.11 214.157 111.952 213.927 112.013C213.791 112.074 213.686 112.162 213.627 112.264C213.568 112.366 213.558 112.477 213.599 112.583L213.641 112.771L214.072 112.661L213.645 112.775C213.66 112.852 213.698 112.926 213.757 112.993C213.798 113.045 213.851 113.103 213.909 113.171C214.133 113.405 214.332 113.649 214.504 113.902C214.634 114.124 214.906 114.191 215.109 114.052C215.217 113.961 215.286 113.853 215.31 113.738C215.335 113.624 215.314 113.507 215.25 113.4C215.048 113.092 214.811 112.794 214.54 112.51C214.499 112.465 214.493 112.487 214.484 112.48L214.46 112.364Z" fill="#FFFFFE"/>
<path d="M213.034 113.758C212.978 114.012 212.731 114.17 212.501 114.109C211.947 113.968 212.176 113.284 212.479 112.953C212.703 112.719 212.901 112.475 213.073 112.222C213.204 112 213.476 111.933 213.679 112.072C213.787 112.164 213.856 112.272 213.88 112.386C213.904 112.501 213.883 112.617 213.82 112.724C213.638 113.034 213.063 113.574 213.028 113.758H213.034Z" fill="#FFFFFE"/>
<path d="M174.393 106.808H151.339C149.602 106.808 148.195 107.761 148.195 108.937V121.711C148.195 122.886 149.602 123.84 151.339 123.84H174.393C176.13 123.84 177.537 122.886 177.537 121.711V108.937C177.537 107.761 176.13 106.808 174.393 106.808Z" fill="#29B71C"/>
<path d="M172.297 121.001H153.434C153.156 121.001 152.89 120.927 152.693 120.793C152.497 120.66 152.386 120.48 152.386 120.292C152.386 120.103 152.497 119.923 152.693 119.79C152.89 119.657 153.156 119.582 153.434 119.582H172.297C172.575 119.582 172.842 119.657 173.038 119.79C173.235 119.923 173.345 120.103 173.345 120.292C173.345 120.48 173.235 120.66 173.038 120.793C172.842 120.927 172.575 121.001 172.297 121.001Z" fill="#EEEEEE"/>
<path d="M166.01 121.711C165.732 121.711 165.466 121.636 165.269 121.503C165.073 121.37 164.962 121.189 164.962 121.001V119.582C164.962 119.394 165.073 119.213 165.269 119.08C165.466 118.947 165.732 118.872 166.01 118.872C166.288 118.872 166.555 118.947 166.751 119.08C166.948 119.213 167.058 119.394 167.058 119.582V121.001C167.058 121.189 166.948 121.37 166.751 121.503C166.555 121.636 166.288 121.711 166.01 121.711Z" fill="#00AEEF"/>
<path d="M167.53 112.96L160.194 110.476C160.035 110.422 159.857 110.396 159.679 110.401C159.5 110.406 159.327 110.442 159.174 110.505C159.022 110.569 158.896 110.657 158.809 110.763C158.721 110.868 158.675 110.987 158.675 111.108V116.7C158.676 116.827 158.727 116.95 158.823 117.059C158.919 117.168 159.056 117.257 159.219 117.317C159.371 117.379 159.545 117.411 159.722 117.41C159.919 117.41 160.111 117.373 160.278 117.303L167.613 114.195C167.772 114.128 167.902 114.033 167.988 113.921C168.075 113.809 168.116 113.683 168.106 113.556C168.096 113.431 168.038 113.31 167.936 113.206C167.835 113.101 167.695 113.016 167.53 112.96Z" fill="#EEEEEE"/>
<path d="M151.339 106.808C150.505 106.808 149.705 107.032 149.116 107.431C148.526 107.83 148.195 108.372 148.195 108.937V121.711C148.195 122.275 148.526 122.817 149.116 123.216C149.705 123.615 150.505 123.84 151.339 123.84H162.866V106.808H151.339Z" fill="#E53935"/>
<path d="M153.434 119.582C153.156 119.582 152.89 119.657 152.693 119.79C152.497 119.923 152.386 120.103 152.386 120.292C152.386 120.48 152.497 120.66 152.693 120.793C152.89 120.927 153.156 121.001 153.434 121.001H162.866V119.582H153.434Z" fill="#FAFAFA"/>
<path d="M160.194 110.476C160.035 110.422 159.857 110.396 159.679 110.401C159.5 110.406 159.327 110.442 159.174 110.505C159.022 110.569 158.896 110.657 158.809 110.763C158.721 110.868 158.675 110.987 158.675 111.108V116.7C158.676 116.827 158.727 116.95 158.823 117.059C158.919 117.168 159.056 117.257 159.219 117.317C159.371 117.379 159.545 117.411 159.722 117.41C159.919 117.41 160.111 117.373 160.278 117.303L162.866 116.203V111.378L160.194 110.476Z" fill="#00AEEF"/>
<path d="M208.347 109.231H211.77L206.88 106V108.262C206.88 108.797 207.537 109.231 208.347 109.231Z" fill="#00AEEF"/>
<path d="M206.347 107.615H186.095V113.269H206.347C206.641 113.269 206.879 113.128 206.879 112.955V107.929C206.879 107.756 206.641 107.615 206.347 107.615Z" fill="#C6CACF"/>
<path d="M205.136 113.269H182.95C182.486 113.269 182.253 112.883 182.582 112.656L186.381 110.038L182.582 107.42C182.253 107.194 182.486 106.808 182.95 106.808H205.136C205.424 106.808 205.657 106.968 205.657 107.167V112.91C205.657 113.108 205.424 113.269 205.136 113.269Z" fill="#00AEEF"/>
<path d="M194.109 108.93H192.091C191.812 108.93 191.586 109.079 191.586 109.263V111.263C191.586 111.447 191.812 111.597 192.091 111.597C192.37 111.597 192.596 111.447 192.596 111.263V110.596H194.109C194.388 110.596 194.614 110.447 194.614 110.263V109.263C194.614 109.079 194.388 108.93 194.109 108.93ZM193.605 109.93H192.596V109.596H193.605V109.93Z" fill="white"/>
<path d="M196.632 108.93H195.623C195.345 108.93 195.119 109.079 195.119 109.263V111.263C195.119 111.447 195.345 111.597 195.623 111.597H197.642C197.92 111.597 198.146 111.447 198.146 111.263V109.93C198.146 109.378 197.467 108.93 196.632 108.93ZM197.137 110.93H196.128V109.596H196.632C196.911 109.596 197.137 109.746 197.137 109.93L197.137 110.93Z" fill="white"/>
<path d="M201.174 108.93H199.155C198.877 108.93 198.651 109.079 198.651 109.263V111.263C198.651 111.447 198.877 111.597 199.155 111.597C199.434 111.597 199.66 111.447 199.66 111.263V110.596H200.669C200.948 110.596 201.174 110.447 201.174 110.263C201.174 110.079 200.948 109.93 200.669 109.93H199.66V109.596H201.174C201.452 109.596 201.678 109.447 201.678 109.263C201.678 109.079 201.452 108.93 201.174 108.93Z" fill="white"/>
<path d="M206.383 124.577H191.483C191.208 124.577 190.986 124.42 190.986 124.227V114.427C190.986 114.234 191.208 114.077 191.483 114.077H206.383C206.657 114.077 206.88 114.234 206.88 114.427V124.227C206.88 124.42 206.657 124.577 206.383 124.577Z" fill="#C6CACF"/>
<path d="M191.979 123.877V114.077H191.483C191.208 114.077 190.986 114.234 190.986 114.427V124.227C190.986 124.42 191.208 124.577 191.483 124.577H206.383C206.657 124.577 206.88 124.42 206.88 124.227V123.877H191.979Z" fill="#00AEEF"/>
<path d="M205.187 122.961H200.014C199.755 122.961 199.544 122.806 199.544 122.615V118.461C199.544 118.27 199.755 118.115 200.014 118.115H205.187C205.447 118.115 205.657 118.27 205.657 118.461V122.615C205.657 122.806 205.446 122.961 205.187 122.961Z" fill="black"/>
<path d="M204.434 118.923H200.767V122.154H204.434V118.923Z" fill="#00AEEF"/>
<path d="M205.21 116.263H199.66C199.381 116.263 199.155 116.114 199.155 115.93C199.155 115.746 199.381 115.597 199.66 115.597H205.21C205.489 115.597 205.715 115.746 205.715 115.93C205.715 116.114 205.489 116.263 205.21 116.263Z" fill="#EF0000"/>
<path d="M205.21 117.596H199.66C199.381 117.596 199.155 117.447 199.155 117.263C199.155 117.079 199.381 116.93 199.66 116.93H205.21C205.489 116.93 205.715 117.079 205.715 117.263C205.715 117.447 205.489 117.596 205.21 117.596Z" fill="#EF0000"/>
<path d="M198.146 116.263H193.1C192.821 116.263 192.595 116.114 192.595 115.93C192.595 115.746 192.821 115.597 193.1 115.597H198.146C198.424 115.597 198.65 115.746 198.65 115.93C198.65 116.114 198.424 116.263 198.146 116.263Z" fill="#EF0000"/>
<path d="M198.146 117.596H193.1C192.821 117.596 192.595 117.447 192.595 117.263C192.595 117.079 192.821 116.93 193.1 116.93H198.146C198.424 116.93 198.65 117.079 198.65 117.263C198.65 117.447 198.424 117.596 198.146 117.596Z" fill="#EF0000"/>
<path d="M198.146 118.93H193.1C192.821 118.93 192.595 118.781 192.595 118.597C192.595 118.413 192.821 118.264 193.1 118.264H198.146C198.424 118.264 198.65 118.413 198.65 118.597C198.65 118.781 198.424 118.93 198.146 118.93Z" fill="#EF0000"/>
<path d="M198.146 120.263H193.1C192.821 120.263 192.595 120.114 192.595 119.93C192.595 119.746 192.821 119.597 193.1 119.597H198.146C198.424 119.597 198.65 119.746 198.65 119.93C198.65 120.114 198.424 120.263 198.146 120.263Z" fill="#EF0000"/>
<path d="M198.146 121.597H193.1C192.821 121.597 192.595 121.448 192.595 121.264C192.595 121.08 192.821 120.931 193.1 120.931H198.146C198.424 120.931 198.65 121.08 198.65 121.264C198.65 121.448 198.424 121.597 198.146 121.597Z" fill="#EF0000"/>
<path d="M198.146 122.93H193.1C192.821 122.93 192.595 122.781 192.595 122.597C192.595 122.413 192.821 122.264 193.1 122.264H198.146C198.424 122.264 198.65 122.413 198.65 122.597C198.65 122.781 198.424 122.93 198.146 122.93Z" fill="#EF0000"/>
<path d="M116.407 124.173V126.193H144.527V124.173L130.531 122.962L116.407 124.173Z" fill="#EEEEEE"/>
<path d="M116.407 122.557V124.576H144.527V122.557L130.531 121.346L116.407 122.557Z" fill="#DCDCDC"/>
<path d="M144.527 107.615V122.154H142.693L138.414 114.884L142.693 107.615H144.527Z" fill="#EEEEEE"/>
<path d="M143.305 107.615V108.844L138.874 114.884L143.305 120.925V122.154H116.407V107.615H143.305Z" fill="white"/>
<path d="M117.631 108.423V117.637L130.468 118.923L143.305 117.637V108.423H117.631Z" fill="#29B71C"/>
<path d="M131.079 110.038V113.269C131.754 113.269 132.301 112.546 132.301 111.653C132.301 110.761 131.754 110.038 131.079 110.038Z" fill="#FE5F1A"/>
<path d="M130.59 110.038C130.86 110.038 131.079 110.761 131.079 111.653C131.079 112.546 130.86 113.269 130.59 113.269C129.51 113.269 128.634 112.546 128.634 111.653C128.634 110.761 129.51 110.038 130.59 110.038Z" fill="#00AEEF"/>
<path d="M143.305 119.731L135.969 115.692L141.422 116.337L143.305 117.639L143.305 119.731Z" fill="#027372"/>
<path d="M140.339 116.568L136.85 114.885L132.357 116.568L129.856 118.23L135.625 121.346H143.305V119.108L140.339 116.568Z" fill="#E53935"/>
<path d="M142.082 116.443L141.057 116.5L137.192 115.305V113.27L142.082 116.443Z" fill="#EEEEEE"/>
<path d="M132.301 116.5L136.431 113.27L139.637 116.5L132.301 116.5Z" fill="white"/>
<path d="M134.746 121.346H132.511L123.743 115.692L128.599 116.364L134.746 121.346Z" fill="#027372"/>
<path d="M127.027 116.568L132.302 121.346H117.631V117.871L119.484 116.568L123.731 114.885L127.027 116.568Z" fill="#00AEEF"/>
<path d="M128.633 116.443L127.608 116.5L123.743 115.305V113.27L128.633 116.443Z" fill="#EEEEEE"/>
<path d="M118.853 116.5L123.671 113.27L127.411 116.5L118.853 116.5Z" fill="white"/>
<path d="M145.262 125.385C144.993 125.385 144.774 125.54 144.774 125.731V126.308H116.16V125.731C116.16 125.54 115.942 125.385 115.673 125.385C115.403 125.385 115.185 125.54 115.185 125.731V126.654C115.185 126.845 115.403 127 115.673 127H145.262C145.531 127 145.75 126.845 145.75 126.654V125.731C145.75 125.54 145.531 125.385 145.262 125.385Z" fill="#00AEEF"/>
<path d="M145.262 122.962C144.993 122.962 144.774 123.117 144.774 123.308V123.885H116.16V123.308C116.16 123.117 115.942 122.962 115.673 122.962C115.403 122.962 115.185 123.117 115.185 123.308V124.231C115.185 124.422 115.403 124.577 115.673 124.577H145.262C145.531 124.577 145.75 124.422 145.75 124.231V123.308C145.75 123.117 145.531 122.962 145.262 122.962Z" fill="#00AEEF"/>
<path d="M145.262 106.808H115.673C115.403 106.808 115.185 106.954 115.185 107.135V122.634C115.185 122.815 115.403 122.961 115.673 122.961H145.262C145.531 122.961 145.75 122.815 145.75 122.634V107.135C145.75 106.954 145.531 106.808 145.262 106.808ZM144.774 122.307H116.16V107.462H144.774V122.307Z" fill="#00AEEF"/>
<path d="M133.524 111.653C133.524 110.763 132.153 110.038 130.468 110.038C128.782 110.038 127.411 110.763 127.411 111.653C127.411 112.544 128.782 113.269 130.468 113.269C132.153 113.269 133.524 112.544 133.524 111.653ZM128.376 111.653C128.376 111.044 129.315 110.548 130.468 110.548C131.621 110.548 132.559 111.044 132.559 111.653C132.559 112.263 131.621 112.759 130.468 112.759C129.315 112.759 128.376 112.263 128.376 111.653Z" fill="black"/>
<path d="M116.407 121.014C116.407 121.197 116.638 121.346 116.922 121.346H144.013C144.297 121.346 144.527 121.197 144.527 121.014V107.947C144.527 107.764 144.297 107.615 144.013 107.615H116.922C116.638 107.615 116.407 107.764 116.407 107.947V110.605C116.407 110.788 116.638 110.937 116.922 110.937C117.206 110.937 117.436 110.788 117.436 110.605V108.28H143.498V116.668L137.604 112.862C137.403 112.732 137.077 112.732 136.876 112.862L130.467 117.001L124.058 112.862C123.857 112.732 123.532 112.732 123.331 112.862L117.436 116.668V111.934C117.436 111.75 117.206 111.602 116.922 111.602C116.638 111.602 116.407 111.75 116.407 111.934V121.014ZM137.24 113.566L140.713 115.809H133.767L137.24 113.566ZM123.695 113.566L127.168 115.809H120.221L123.695 113.566ZM119.192 116.474H128.197L130.103 117.705C130.104 117.706 133.533 119.92 133.533 119.92C133.633 119.985 133.765 120.017 133.897 120.017C134.028 120.017 134.16 119.985 134.26 119.92C134.461 119.79 134.461 119.58 134.26 119.45L131.195 117.47L132.738 116.474H141.742L143.498 117.608V120.682H117.436V117.608L119.192 116.474Z" fill="black"/>
<path fill-rule="evenodd" clip-rule="evenodd" d="M101.819 110.064C101.981 110.064 102.114 110.207 102.114 110.38V116.317H101.524V110.38C101.524 110.204 101.656 110.064 101.819 110.064Z" fill="#FFFFFE"/>
<g filter="url(#filter0_d_0_1)">
<mask id="path-63-inside-1_0_1" fill="white">
<path d="M307.492 27H51.4922H307.492Z"/>
</mask>
<path d="M307.492 27H51.4922H307.492Z" fill="#231F20"/>
<path d="M307.492 27H51.4922H307.492Z" stroke="black" stroke-width="0.6" mask="url(#path-63-inside-1_0_1)"/>
</g>
<g filter="url(#filter1_d_0_1)">
<mask id="path-64-inside-2_0_1" fill="white">
<path d="M307.492 106H51.4922H307.492Z"/>
</mask>
<path d="M307.492 106H51.4922H307.492Z" fill="#231F20"/>
<path d="M307.492 106H51.4922H307.492Z" stroke="black" stroke-width="0.6" mask="url(#path-64-inside-2_0_1)"/>
</g>
<path d="M343.492 35L343.492 96" stroke="white"/>
<path d="M0.492188 35L0.492166 96" stroke="white"/>
<defs>
<filter id="filter0_d_0_1" x="47.4922" y="26.7002" width="264" height="8.59961" filterUnits="userSpaceOnUse" color-interpolation-filters="sRGB">
<feFlood flood-opacity="0" result="BackgroundImageFix"/>
<feColorMatrix in="SourceAlpha" type="matrix" values="0 0 0 0 0 0 0 0 0 0 0 0 0 0 0 0 0 0 127 0" result="hardAlpha"/>
<feOffset dy="4"/>
<feGaussianBlur stdDeviation="2"/>
<feComposite in2="hardAlpha" operator="out"/>
<feColorMatrix type="matrix" values="0 0 0 0 0 0 0 0 0 0 0 0 0 0 0 0 0 0 0.25 0"/>
<feBlend mode="normal" in2="BackgroundImageFix" result="effect1_dropShadow_0_1"/>
<feBlend mode="normal" in="SourceGraphic" in2="effect1_dropShadow_0_1" result="shape"/>
</filter>
<filter id="filter1_d_0_1" x="47.4922" y="105.7" width="264" height="8.59961" filterUnits="userSpaceOnUse" color-interpolation-filters="sRGB">
<feFlood flood-opacity="0" result="BackgroundImageFix"/>
<feColorMatrix in="SourceAlpha" type="matrix" values="0 0 0 0 0 0 0 0 0 0 0 0 0 0 0 0 0 0 127 0" result="hardAlpha"/>
<feOffset dy="4"/>
<feGaussianBlur stdDeviation="2"/>
<feComposite in2="hardAlpha" operator="out"/>
<feColorMatrix type="matrix" values="0 0 0 0 0 0 0 0 0 0 0 0 0 0 0 0 0 0 0.25 0"/>
<feBlend mode="normal" in2="BackgroundImageFix" result="effect1_dropShadow_0_1"/>
<feBlend mode="normal" in="SourceGraphic" in2="effect1_dropShadow_0_1" result="shape"/>
</filter>
</defs>
</svg>
