<svg width="809" height="128" viewBox="0 0 809 128" fill="none" xmlns="http://www.w3.org/2000/svg">
<rect width="809" height="128" fill="#F5F5F5"/>
<rect x="408" y="8" width="15" height="112" fill="url(#paint0_linear_0_1)"/>
<rect x="2" y="-2" width="805" height="109" transform="matrix(1 0 0 -1 0 116)" stroke="#01ADED" stroke-width="4"/>
<text fill="#FF0040" xml:space="preserve" style="white-space: pre" font-family="Bahij TheSansArabic" font-size="20" font-weight="500" letter-spacing="0em"><tspan x="437" y="70.2861">Adobe XD</tspan></text>
<text fill="#FF0040" xml:space="preserve" style="white-space: pre" font-family="Bahij TheSansArabic" font-size="20" font-weight="500" letter-spacing="0em"><tspan x="437" y="91.2861">Figma </tspan></text>
<text fill="#FF0040" xml:space="preserve" style="white-space: pre" font-family="Bahij TheSansArabic" font-size="20" font-weight="500" letter-spacing="0em"><tspan x="55" y="70.2861">Adobe XD</tspan></text>
<text fill="#FF0040" xml:space="preserve" style="white-space: pre" font-family="Bahij TheSansArabic" font-size="20" font-weight="500" letter-spacing="0em"><tspan x="55" y="91.2861">Figma </tspan></text>
<path d="M610.492 89H541.492V88H610.492V89Z" fill="#00AEEF"/>
<path d="M610.492 65H541.492V64H610.492V65Z" fill="#00AEEF"/>
<path d="M547.536 12H696.617C697.98 12 699.331 12.3049 700.59 12.8971C701.85 13.4894 702.995 14.3576 703.959 15.452C704.923 16.5464 705.688 17.8457 706.21 19.2756C706.731 20.7056 707 22.2382 707 23.7859V45H547.536C543.681 45 539.984 43.2616 537.258 40.1673C534.531 37.0729 533 32.8761 533 28.5C533 24.1239 534.531 19.9271 537.258 16.8327C539.984 13.7384 543.681 12 547.536 12Z" fill="#00AEEF"/>
<text fill="white" xml:space="preserve" style="white-space: pre" font-family="Harmattan" font-size="20" font-weight="bold" letter-spacing="0em"><tspan x="553" y="32.1162">UI - UX &#x645;&#x647;&#x627;&#x631;&#x629; &#x627;&#x644;&#x62a;&#x635;&#x645;&#x64a;&#x645;</tspan></text>
<path d="M724.184 61.668H634.184V66.668H724.184V61.668Z" fill="#949598"/>
<path d="M724.184 85.668H634.184V90.668H724.184V85.668Z" fill="#949598"/>
<path d="M706.184 61.668H634.184V66.668H706.184V61.668Z" fill="#00AEEF"/>
<path d="M706.184 85.668H634.184V90.668H706.184V85.668Z" fill="#00AEEF"/>
<path d="M706.74 60.668C707.918 60.668 709.049 61.0515 709.882 61.7341C710.716 62.4167 711.184 63.3426 711.184 64.308V65.025C711.185 65.5033 711.07 65.9769 710.847 66.4189C710.624 66.8609 710.296 67.2625 709.884 67.6008C709.471 67.9391 708.981 68.2075 708.441 68.3906C707.902 68.5737 707.324 68.668 706.74 68.668C706.273 68.668 705.81 68.5925 705.378 68.446C704.947 68.2995 704.554 68.0847 704.224 67.814C703.894 67.5432 703.632 67.2219 703.454 66.8682C703.275 66.5145 703.184 66.1355 703.184 65.7528V63.5802C703.184 62.8078 703.559 62.0671 704.226 61.5209C704.892 60.9748 705.797 60.668 706.74 60.668Z" fill="black"/>
<path d="M706.74 84.668C707.918 84.668 709.049 85.0515 709.882 85.7341C710.716 86.4167 711.184 87.3426 711.184 88.308V89.025C711.185 89.5033 711.07 89.9769 710.847 90.4189C710.624 90.8609 710.296 91.2625 709.884 91.6008C709.471 91.9391 708.981 92.2075 708.441 92.3906C707.902 92.5737 707.324 92.668 706.74 92.668C706.273 92.668 705.81 92.5925 705.378 92.446C704.947 92.2995 704.554 92.0847 704.224 91.814C703.894 91.5432 703.632 91.2219 703.454 90.8682C703.275 90.5145 703.184 90.1355 703.184 89.7528V87.5802C703.184 86.8078 703.559 86.0671 704.226 85.5209C704.892 84.9748 705.797 84.668 706.74 84.668Z" fill="black"/>
<path d="M727.684 65.668C729.065 65.668 730.184 64.9964 730.184 64.168C730.184 63.3395 729.065 62.668 727.684 62.668C726.303 62.668 725.184 63.3395 725.184 64.168C725.184 64.9964 726.303 65.668 727.684 65.668Z" fill="#231F20"/>
<path d="M727.684 89.668C729.065 89.668 730.184 88.9964 730.184 88.168C730.184 87.3395 729.065 86.668 727.684 86.668C726.303 86.668 725.184 87.3395 725.184 88.168C725.184 88.9964 726.303 89.668 727.684 89.668Z" fill="#231F20"/>
<path d="M772.492 20L772.492 81" stroke="white"/>
<path d="M429.492 20L429.492 81" stroke="white"/>
<path d="M220 92H151V91H220V92Z" fill="#00AEEF"/>
<path d="M220 68H151V67H220V68Z" fill="#00AEEF"/>
<path d="M130.954 15H284.319C285.721 15 287.11 15.2864 288.406 15.8428C289.702 16.3992 290.88 17.2147 291.871 18.2428C292.863 19.2709 293.65 20.4914 294.187 21.8347C294.724 23.178 295 24.6177 295 26.0716V46H130.954C126.988 46 123.184 44.367 120.38 41.4602C117.575 38.5533 116 34.6109 116 30.5C116 26.3891 117.575 22.4467 120.38 19.5398C123.184 16.633 126.988 15 130.954 15Z" fill="#00AEEF"/>
<text fill="white" xml:space="preserve" style="white-space: pre" font-family="Harmattan" font-size="20" font-weight="bold" letter-spacing="0em"><tspan x="134" y="35.1162">UI - UX Design Skill</tspan></text>
<path d="M333.692 64.668H243.692V69.668H333.692V64.668Z" fill="#949598"/>
<path d="M333.692 88.668H243.692V93.668H333.692V88.668Z" fill="#949598"/>
<path d="M315.692 64.668H243.692V69.668H315.692V64.668Z" fill="#00AEEF"/>
<path d="M315.692 88.668H243.692V93.668H315.692V88.668Z" fill="#00AEEF"/>
<path d="M316.248 63.668C317.426 63.668 318.557 64.0515 319.39 64.7341C320.224 65.4167 320.692 66.3426 320.692 67.308V68.025C320.692 68.5033 320.578 68.9769 320.355 69.4189C320.131 69.8609 319.804 70.2625 319.391 70.6008C318.979 70.9391 318.489 71.2075 317.949 71.3906C317.41 71.5737 316.832 71.668 316.248 71.668C315.78 71.668 315.318 71.5925 314.886 71.446C314.454 71.2995 314.062 71.0847 313.732 70.814C313.402 70.5432 313.14 70.2219 312.962 69.8682C312.783 69.5145 312.691 69.1355 312.692 68.7528V66.5802C312.692 65.8078 313.067 65.0671 313.733 64.5209C314.4 63.9748 315.305 63.668 316.248 63.668Z" fill="black"/>
<path d="M316.248 87.668C317.426 87.668 318.557 88.0515 319.39 88.7341C320.224 89.4167 320.692 90.3426 320.692 91.308V92.025C320.692 92.5033 320.578 92.9769 320.355 93.4189C320.131 93.8609 319.804 94.2625 319.391 94.6008C318.979 94.9391 318.489 95.2075 317.949 95.3906C317.41 95.5737 316.832 95.668 316.248 95.668C315.78 95.668 315.318 95.5925 314.886 95.446C314.454 95.2995 314.062 95.0847 313.732 94.814C313.402 94.5432 313.14 94.2219 312.962 93.8682C312.783 93.5145 312.691 93.1355 312.692 92.7528V90.5802C312.692 89.8078 313.067 89.0671 313.733 88.5209C314.4 87.9748 315.305 87.668 316.248 87.668Z" fill="black"/>
<path d="M337.192 68.668C338.573 68.668 339.692 67.9964 339.692 67.168C339.692 66.3395 338.573 65.668 337.192 65.668C335.811 65.668 334.692 66.3395 334.692 67.168C334.692 67.9964 335.811 68.668 337.192 68.668Z" fill="#231F20"/>
<path d="M337.192 92.668C338.573 92.668 339.692 91.9964 339.692 91.168C339.692 90.3395 338.573 89.668 337.192 89.668C335.811 89.668 334.692 90.3395 334.692 91.168C334.692 91.9964 335.811 92.668 337.192 92.668Z" fill="#231F20"/>
<path d="M382 20L382 81" stroke="white"/>
<path d="M39 20L39 81" stroke="white"/>
<defs>
<linearGradient id="paint0_linear_0_1" x1="423" y1="64" x2="408" y2="64" gradientUnits="userSpaceOnUse">
<stop offset="0.432692" stop-color="#535353"/>
<stop offset="0.475962"/>
<stop offset="0.476062" stop-color="#00B3FF"/>
</linearGradient>
</defs>
</svg>
