<svg width="458" height="846" viewBox="0 0 458 846" fill="none" xmlns="http://www.w3.org/2000/svg">
<path d="M337.021 377H170.992V404.59H337.021V377Z" fill="#00AEEF"/>
<text fill="#070707" stroke="#00AEEF" stroke-width="0.3" xml:space="preserve" style="white-space: pre" font-family="Harmattan" font-size="21" font-weight="500" letter-spacing="-0.01em"><tspan x="194.5" y="138.322">&#x648;&#x64e;&#x645;&#x64e;&#x627; &#x62a;&#x64e;&#x648;&#x652;&#x641;&#x650;&#x64a;&#x642;&#x650;&#x64a; &#x625;&#x650;&#x644;&#x651;&#x64e;&#x627; &#x628;&#x650;&#x627;&#x644;&#x644;&#x651;&#x64e;&#x647;</tspan></text>
<text fill="black" xml:space="preserve" style="white-space: pre" font-family="Arial" font-size="31" font-weight="900" letter-spacing="0em"><tspan x="115.992" y="62.2607">MOSTAFA</tspan></text>
<text fill="#00AEEF" xml:space="preserve" style="white-space: pre" font-family="Arial" font-size="31" font-weight="900" letter-spacing="0em"><tspan x="115.992" y="101.261">SAID</tspan></text>
<text fill="black" stroke="#00AEEF" stroke-width="0.5" xml:space="preserve" style="white-space: pre" font-family="Andalus" font-size="16" letter-spacing="0.92em"><tspan x="90" y="283.469">Graphic designer</tspan></text>
<text fill="black" stroke="#00AEEF" stroke-width="0.5" xml:space="preserve" style="white-space: pre" font-family="Andalus" font-size="16" letter-spacing="0.26em"><tspan x="89" y="329.469">Time management app developer</tspan></text>
<text fill="black" stroke="#00AEEF" stroke-width="0.5" xml:space="preserve" style="white-space: pre" font-family="Andalus" font-size="13" letter-spacing="0.79em"><tspan x="90" y="239.443">Instructional designer</tspan></text>
<text fill="black" stroke="#00AEEF" stroke-width="0.5" xml:space="preserve" style="white-space: pre" font-family="Andalus" font-size="20" letter-spacing="0.62em"><tspan x="90" y="201.336">Computer teacher</tspan></text>
<text fill="white" xml:space="preserve" style="white-space: pre" font-family="Harmattan" font-size="20" font-weight="bold" letter-spacing="0em"><tspan x="205" y="395.116">Basic data&#10;</tspan></text>
<path d="M390.982 402.726C394.534 402.726 398.006 402.03 400.959 400.727C403.912 399.423 406.213 397.57 407.572 395.403C408.931 393.235 409.287 390.85 408.594 388.549C407.901 386.247 406.191 384.134 403.68 382.475C401.168 380.816 397.969 379.686 394.485 379.228C391.002 378.77 387.392 379.005 384.11 379.903C380.829 380.801 378.025 382.321 376.052 384.272C374.079 386.223 373.025 388.517 373.025 390.863C373.025 394.009 374.917 397.027 378.285 399.251C381.652 401.476 386.22 402.726 390.982 402.726Z" fill="#00AEEF" stroke="#707070"/>
<path d="M381.59 396.933C381.59 395.422 382.499 393.972 384.117 392.903C385.735 391.834 387.93 391.233 390.218 391.233C392.506 391.233 394.701 391.834 396.319 392.903C397.937 393.972 398.846 395.422 398.846 396.933H381.59ZM385.459 386.514C385.458 385.786 385.84 385.081 386.539 384.518C387.238 383.955 388.21 383.57 389.291 383.428C390.371 383.286 391.493 383.395 392.465 383.738C393.437 384.082 394.199 384.637 394.62 385.309C395.042 385.982 395.098 386.73 394.778 387.426C394.458 388.123 393.782 388.725 392.866 389.129C391.95 389.533 390.85 389.715 389.753 389.644C388.657 389.573 387.632 389.252 386.853 388.737C385.961 388.148 385.459 387.348 385.459 386.514Z" fill="white"/>
<path d="M390.67 513C391.164 513 391.648 512.853 392.059 512.579C392.47 512.304 392.79 511.914 392.98 511.457C393.169 511 393.218 510.497 393.122 510.012C393.025 509.527 392.787 509.082 392.438 508.732C392.088 508.383 391.643 508.145 391.158 508.048C390.673 507.952 390.17 508.001 389.713 508.19C389.256 508.38 388.866 508.7 388.591 509.111C388.317 509.522 388.17 510.006 388.17 510.5C388.17 511.163 388.433 511.799 388.902 512.268C389.371 512.737 390.007 513 390.67 513Z" fill="#231F20"/>
<path d="M337.021 535H170.992V562.59H337.021V535Z" fill="#00AEEF"/>
<text fill="white" xml:space="preserve" style="white-space: pre" font-family="Harmattan" font-size="20" font-weight="bold" letter-spacing="0.02em"><tspan x="183" y="553.116">Job and experience</tspan></text>
<path d="M391.446 560.704C395.294 560.704 399.055 559.95 402.254 558.538C405.453 557.126 407.947 555.119 409.419 552.77C410.892 550.422 411.277 547.838 410.526 545.345C409.776 542.852 407.923 540.562 405.202 538.764C402.481 536.967 399.015 535.743 395.241 535.247C391.468 534.751 387.556 535.006 384.001 535.978C380.447 536.951 377.408 538.598 375.271 540.712C373.133 542.825 371.992 545.31 371.992 547.852C371.992 551.261 374.042 554.53 377.69 556.94C381.338 559.35 386.287 560.704 391.446 560.704Z" fill="#00AEEF" stroke="#707070"/>
<path d="M383.348 555.203C382.613 555.203 381.908 555.01 381.388 554.666C380.868 554.323 380.576 553.857 380.576 553.371V549.355H383.314V550.112C383.314 550.168 383.33 550.224 383.361 550.276C383.394 550.328 383.441 550.375 383.501 550.415C383.561 550.455 383.632 550.486 383.711 550.508C383.789 550.53 383.873 550.541 383.958 550.541H386.252C386.423 550.54 386.586 550.495 386.707 550.415C386.766 550.376 386.814 550.329 386.846 550.278C386.879 550.226 386.896 550.171 386.896 550.115V549.358H394.328V550.115C394.328 550.229 394.397 550.338 394.519 550.418C394.64 550.499 394.805 550.544 394.977 550.544H397.277C397.448 550.543 397.612 550.498 397.732 550.417C397.853 550.337 397.92 550.228 397.92 550.115V549.358H400.658V553.375C400.658 553.615 400.586 553.853 400.448 554.075C400.165 554.524 399.625 554.88 398.946 555.067C398.61 555.159 398.25 555.206 397.887 555.206L383.348 555.203ZM380.576 547.998V545.691C380.577 545.451 380.648 545.213 380.785 544.991C380.994 544.656 381.349 544.369 381.806 544.167C382.262 543.965 382.799 543.857 383.348 543.857H385.456V543.175C385.457 542.64 385.78 542.126 386.354 541.748C386.927 541.37 387.705 541.157 388.515 541.157H392.722C393.532 541.157 394.309 541.37 394.882 541.749C395.455 542.127 395.777 542.64 395.778 543.175V543.857H397.888C398.252 543.858 398.612 543.905 398.948 543.997C399.285 544.09 399.591 544.225 399.849 544.395C400.106 544.566 400.31 544.768 400.449 544.991C400.588 545.213 400.66 545.451 400.66 545.691V547.998H380.576ZM387.68 543.173V543.855H393.559V543.173C393.558 543.027 393.469 542.887 393.312 542.783C393.156 542.68 392.943 542.622 392.722 542.621H388.515C388.294 542.622 388.082 542.68 387.925 542.783C387.768 542.887 387.68 543.027 387.68 543.173Z" fill="white"/>
<path d="M390.67 489C391.164 489 391.648 488.853 392.059 488.579C392.47 488.304 392.79 487.914 392.98 487.457C393.169 487 393.218 486.497 393.122 486.012C393.025 485.527 392.787 485.082 392.438 484.732C392.088 484.383 391.643 484.145 391.158 484.048C390.673 483.952 390.17 484.001 389.713 484.19C389.256 484.38 388.866 484.7 388.591 485.111C388.317 485.522 388.17 486.006 388.17 486.5C388.17 487.163 388.433 487.799 388.902 488.268C389.371 488.737 390.007 489 390.67 489Z" fill="#231F20"/>
<text fill="#FF0000" xml:space="preserve" style="white-space: pre" font-family="Harmattan" font-size="18" letter-spacing="-0.03em"><tspan x="297.41" y="490.205">marital status</tspan></text>
<text fill="black" xml:space="preserve" style="white-space: pre" font-family="Harmattan" font-size="18" letter-spacing="-0.03em"><tspan x="195.241" y="490.205">Single</tspan></text>
<text fill="#FF0000" xml:space="preserve" style="white-space: pre" font-family="Arial" font-size="18" letter-spacing="-0.03em"><tspan x="276.49" y="491.74">:</tspan></text>
<text fill="#FF0000" xml:space="preserve" style="white-space: pre" font-family="Harmattan" font-size="16" letter-spacing="-0.03em"><tspan x="332.927" y="515.793">address&#10;</tspan></text>
<text fill="black" xml:space="preserve" style="white-space: pre" font-family="Harmattan" font-size="18" letter-spacing="-0.03em"><tspan x="58.9371" y="517.205">Al-Rahmaniyah - Mit Ghamr - Dakahlia</tspan></text>
<text fill="#FF0000" xml:space="preserve" style="white-space: pre" font-family="Harmattan" font-size="18" letter-spacing="-0.03em"><tspan x="324.281" y="517.205">:</tspan></text>
<path d="M390.67 441.442C391.164 441.442 391.648 441.266 392.059 440.937C392.47 440.607 392.79 440.139 392.98 439.59C393.169 439.042 393.218 438.439 393.122 437.857C393.025 437.275 392.787 436.741 392.438 436.321C392.088 435.902 391.643 435.616 391.158 435.5C390.673 435.384 390.17 435.444 389.713 435.671C389.256 435.898 388.866 436.282 388.591 436.776C388.317 437.269 388.17 437.849 388.17 438.442C388.17 439.238 388.433 440.001 388.902 440.564C389.371 441.126 390.007 441.442 390.67 441.442Z" fill="#231F20"/>
<text fill="#FF0000" xml:space="preserve" style="white-space: pre" font-family="Harmattan" font-size="17" letter-spacing="-0.03em"><tspan x="345.895" y="442.999">Name</tspan></text>
<text fill="#FF0000" xml:space="preserve" style="white-space: pre" font-family="Arial" font-size="18" letter-spacing="-0.03em"><tspan x="334.49" y="442.74">:</tspan></text>
<text fill="black" xml:space="preserve" style="white-space: pre" font-family="Harmattan" font-size="18" letter-spacing="-0.03em"><tspan x="52.9284" y="440.205">Mostafa Said Abdelwahab Abdelrahman</tspan></text>
<path d="M390.67 461C391.164 461 391.648 460.853 392.059 460.579C392.47 460.304 392.79 459.914 392.98 459.457C393.169 459 393.218 458.497 393.122 458.012C393.025 457.527 392.787 457.082 392.438 456.732C392.088 456.383 391.643 456.144 391.158 456.048C390.673 455.952 390.17 456.001 389.713 456.19C389.256 456.38 388.866 456.7 388.591 457.111C388.317 457.522 388.17 458.006 388.17 458.5C388.17 459.163 388.433 459.799 388.902 460.268C389.371 460.737 390.007 461 390.67 461Z" fill="#231F20"/>
<text fill="black" xml:space="preserve" style="white-space: pre" font-family="Harmattan" font-size="18" letter-spacing="-0.03em"><tspan x="133.473" y="466.205"> Twenty-four years</tspan></text>
<text fill="#2600FF" xml:space="preserve" style="white-space: pre" font-family="Harmattan" font-size="25" letter-spacing="-0.03em"><tspan x="258.777" y="465.645">24</tspan></text>
<text fill="#FF0000" xml:space="preserve" style="white-space: pre" font-family="Arial" font-size="18" letter-spacing="-0.03em"><tspan x="334.49" y="464.74">:</tspan></text>
<text fill="#FF0000" xml:space="preserve" style="white-space: pre" font-family="Harmattan" font-size="18" letter-spacing="-0.03em"><tspan x="356.288" y="468.205">age  </tspan></text>
<path d="M253.829 357.77C253.829 357.931 253.789 358.089 253.713 358.23C253.637 358.371 253.527 358.491 253.393 358.579C253.259 358.668 253.105 358.721 252.945 358.735C252.786 358.749 252.625 358.723 252.478 358.659C252.317 358.59 252.179 358.479 252.077 358.337C251.975 358.196 251.913 358.029 251.898 357.856C251.883 357.682 251.915 357.507 251.991 357.35C252.067 357.193 252.184 357.06 252.33 356.964C252.476 356.868 252.645 356.813 252.819 356.806C252.993 356.798 253.166 356.837 253.32 356.92C253.473 357.003 253.602 357.125 253.691 357.275C253.781 357.425 253.828 357.596 253.829 357.77Z" fill="#00AEEF" stroke="white" stroke-width="0.6"/>
<path d="M253.742 358.167C253.648 358.377 253.482 358.547 253.274 358.646C253.065 358.745 252.828 358.765 252.606 358.704C252.384 358.643 252.191 358.504 252.062 358.313C251.933 358.122 251.877 357.891 251.904 357.662C251.931 357.433 252.039 357.221 252.209 357.065C252.379 356.909 252.599 356.819 252.829 356.811C253.059 356.803 253.285 356.878 253.465 357.023C253.645 357.167 253.767 357.371 253.809 357.598C253.845 357.79 253.821 357.988 253.742 358.167Z" fill="#00AEEF" stroke="white" stroke-width="0.6"/>
<path d="M110.996 361.534L108.678 361.371L106.619 361.881L105.996 360.242C107.478 360.121 106.952 360.107 108.297 360.335C109.394 359.905 108.911 359.989 110.379 359.881C110.981 361.475 110.855 361.152 110.996 361.534Z" fill="#00AEEF" stroke="white" stroke-width="0.6"/>
<path d="M253.983 369.577C253.887 369.79 253.717 369.961 253.504 370.058C253.291 370.156 253.051 370.172 252.826 370.106C252.602 370.039 252.41 369.894 252.285 369.696C252.16 369.499 252.11 369.263 252.146 369.031C252.182 368.8 252.3 368.59 252.479 368.439C252.658 368.289 252.885 368.208 253.119 368.212C253.352 368.216 253.577 368.305 253.75 368.462C253.924 368.618 254.034 368.833 254.062 369.065C254.083 369.24 254.055 369.417 253.983 369.577Z" fill="#00AEEF" stroke="white" stroke-width="0.6"/>
<path d="M253.983 369.576C253.889 369.788 253.721 369.958 253.512 370.057C253.302 370.155 253.064 370.176 252.841 370.114C252.618 370.052 252.424 369.912 252.295 369.719C252.166 369.526 252.111 369.294 252.139 369.064C252.167 368.834 252.276 368.622 252.447 368.466C252.619 368.31 252.84 368.22 253.072 368.213C253.303 368.207 253.53 368.283 253.709 368.429C253.889 368.575 254.011 368.78 254.052 369.008C254.087 369.2 254.063 369.398 253.983 369.576Z" fill="#00AEEF" stroke="white" stroke-width="0.6"/>
<g filter="url(#filter0_d_201_85)">
<mask id="path-38-inside-1_201_85" fill="white">
<path d="M398.992 363L93.9922 363L258.033 363H398.992Z"/>
</mask>
<path d="M398.992 363L93.9922 363L258.033 363H398.992Z" fill="#231F20"/>
<path d="M398.992 363L93.9922 363L258.033 363H398.992Z" stroke="black" stroke-width="2" mask="url(#path-38-inside-1_201_85)"/>
</g>
<text fill="#FF0000" xml:space="preserve" style="white-space: pre" font-family="Harmattan" font-size="9" font-weight="bold" letter-spacing="0px"><tspan x="238.795" y="756.352">Previous training during university studies</tspan></text>
<text fill="#FF0000" xml:space="preserve" style="white-space: pre" font-family="Arial" font-size="18" letter-spacing="-0.03em"><tspan x="224.49" y="757.74">:</tspan></text>
<text fill="black" xml:space="preserve" style="white-space: pre" font-family="Harmattan" font-size="13" font-weight="bold" letter-spacing="0px"><tspan x="143.303" y="755.676">Field training in&#10;</tspan><tspan x="219.5" y="771.676">&#10;</tspan></text>
<text fill="#707070" xml:space="preserve" style="white-space: pre" font-family="Harmattan" font-size="11" font-weight="bold" letter-spacing="0px"><tspan x="116.771" y="777.764">Egyptian public schools, where I achieved a score of 96%. Khaled </tspan><tspan x="117.63" y="792.764">Ibn Al-Walid Elementary School in Mit Ghamr for the year 2022. </tspan><tspan x="106.823" y="807.764">New Girls&#39; Secondary School in Mit Ghamr for another year in 2023</tspan></text>
<path d="M390.489 756.776C391.054 756.776 391.606 756.665 392.076 756.458C392.546 756.25 392.913 755.955 393.129 755.611C393.345 755.266 393.402 754.886 393.292 754.52C393.181 754.153 392.909 753.817 392.51 753.553C392.11 753.289 391.601 753.109 391.046 753.036C390.492 752.963 389.917 753.001 389.395 753.144C388.873 753.287 388.427 753.529 388.112 753.839C387.798 754.15 387.631 754.515 387.631 754.888C387.631 755.389 387.932 755.869 388.468 756.223C389.004 756.577 389.731 756.776 390.489 756.776Z" fill="#231F20"/>
<text fill="#FF0000" xml:space="preserve" style="white-space: pre" font-family="Arial" font-size="18" letter-spacing="-0.03em"><tspan x="304.49" y="608.74">:</tspan></text>
<rect x="313.5" y="592.5" width="71" height="19" stroke="#5500FF"/>
<text fill="#FF0000" xml:space="preserve" style="white-space: pre" font-family="Harmattan" font-size="13" font-weight="bold" letter-spacing="0px"><tspan x="317.561" y="604.676">  Current job</tspan></text>
<text fill="black" xml:space="preserve" style="white-space: pre" font-family="Harmattan" font-size="13" font-weight="bold" letter-spacing="0px"><tspan x="134.064" y="605.676">Mathematics and computer science </tspan></text>
<text fill="black" xml:space="preserve" style="white-space: pre" font-family="Harmattan" font-size="8" font-weight="bold" letter-spacing="0px"><tspan x="122.031" y="628.646">Mathematics and computer science teacher at the Martyr Mohamed El Shafei </tspan><tspan x="121.555" y="652.646">Bayoumi School in Afifi village, Ministry of Education, Arab Republic of Egypt</tspan></text>
<path d="M390.489 602.776C391.054 602.776 391.606 602.665 392.076 602.458C392.546 602.25 392.913 601.955 393.129 601.611C393.345 601.266 393.402 600.886 393.292 600.52C393.181 600.153 392.909 599.817 392.51 599.553C392.11 599.289 391.601 599.109 391.046 599.036C390.492 598.963 389.917 599.001 389.395 599.144C388.873 599.287 388.427 599.529 388.112 599.839C387.798 600.15 387.631 600.515 387.631 600.888C387.631 601.389 387.932 601.869 388.468 602.223C389.004 602.577 389.731 602.776 390.489 602.776Z" fill="#231F20"/>
<path d="M361.415 631.699H361.377L360 630.341C360.644 630.561 361.358 630.675 362.083 630.675C362.808 630.675 363.522 630.561 364.167 630.341L362.785 631.699H362.756L366.139 638.716L369.222 635.192L372.652 637.406L374.809 634.632C372.781 632.321 369.595 630.551 365.802 629.627C367.251 628.706 368.384 627.589 369.121 626.352C369.931 625.015 370.366 623.592 370.403 622.152C370.443 620.336 369.586 618.56 367.963 617.094C367.32 616.451 366.446 615.922 365.418 615.557C364.391 615.191 363.242 615 362.075 615C360.908 615 359.759 615.191 358.731 615.557C357.704 615.922 356.829 616.451 356.187 617.094C354.563 618.56 353.707 620.336 353.746 622.152C353.785 623.592 354.221 625.015 355.033 626.352C355.773 627.589 356.909 628.706 358.363 629.626C351.838 631.044 347 635.893 347 639.489C347 641.617 354.537 642.677 362.079 642.677L357.853 639.054L361.415 631.699Z" fill="#71F200" stroke="#070505" stroke-width="0.5"/>
<path d="M362.094 642.69C364.239 642.694 366.382 642.602 368.509 642.415L365.027 640.17L362.094 642.69Z" fill="#71F200" stroke="#070505" stroke-width="0.5"/>
<path d="M377.73 633.809L373.132 639.734L369.61 637.462L367.574 639.78L373.954 643.902L380.548 635.418L377.73 633.809Z" fill="#71F200" stroke="#070505" stroke-width="0.5"/>
<text fill="#FF0000" xml:space="preserve" style="white-space: pre" font-family="Harmattan" font-size="13" font-weight="bold" letter-spacing="0px"><tspan x="322.355" y="690.676">Previous job</tspan></text>
<text fill="#FF0000" xml:space="preserve" style="white-space: pre" font-family="Arial" font-size="18" letter-spacing="-0.03em"><tspan x="309.49" y="694.74">:</tspan></text>
<text fill="black" xml:space="preserve" style="white-space: pre" font-family="Harmattan" font-size="13" font-weight="bold" letter-spacing="0px"><tspan x="103.199" y="692.676">I worked in a printing press for four years.</tspan></text>
<path d="M390.858 691.776C391.423 691.776 391.976 691.665 392.446 691.458C392.916 691.25 393.282 690.955 393.498 690.611C393.714 690.266 393.771 689.886 393.661 689.52C393.55 689.153 393.278 688.817 392.879 688.553C392.479 688.289 391.97 688.109 391.415 688.036C390.861 687.963 390.286 688.001 389.764 688.144C389.242 688.287 388.796 688.529 388.482 688.839C388.168 689.15 388 689.515 388 689.888C388 690.389 388.301 690.869 388.837 691.223C389.373 691.577 390.1 691.776 390.858 691.776Z" fill="#231F20"/>
<path d="M361.415 717.699H361.377L360 716.341C360.644 716.561 361.358 716.675 362.083 716.675C362.808 716.675 363.522 716.561 364.167 716.341L362.785 717.699H362.756L366.139 724.716L369.222 721.192L372.652 723.406L374.809 720.632C372.781 718.321 369.595 716.551 365.802 715.627C367.251 714.706 368.384 713.589 369.121 712.352C369.931 711.015 370.366 709.592 370.403 708.152C370.443 706.336 369.586 704.56 367.963 703.094C367.32 702.451 366.446 701.922 365.418 701.557C364.391 701.191 363.242 701 362.075 701C360.908 701 359.759 701.191 358.731 701.557C357.704 701.922 356.829 702.451 356.187 703.094C354.563 704.56 353.707 706.336 353.746 708.152C353.785 709.592 354.221 711.015 355.033 712.352C355.773 713.589 356.909 714.706 358.363 715.626C351.838 717.044 347 721.893 347 725.489C347 727.617 354.537 728.677 362.079 728.677L357.853 725.054L361.415 717.699Z" fill="#71F200" stroke="#070505" stroke-width="0.5"/>
<path d="M362.094 728.69C364.239 728.694 366.382 728.602 368.509 728.415L365.027 726.17L362.094 728.69Z" fill="#71F200" stroke="#070505" stroke-width="0.5"/>
<circle cx="414" cy="46" r="36.5" fill="#D9D9D9" stroke="#FF0000"/>
<text fill="#00AEEF" xml:space="preserve" style="white-space: pre" font-family="Arial" font-size="31" font-weight="900" letter-spacing="0em"><tspan x="388" y="55.2607">EN</tspan></text>
<defs>
<filter id="filter0_d_201_85" x="89.9922" y="362" width="313" height="10" filterUnits="userSpaceOnUse" color-interpolation-filters="sRGB">
<feFlood flood-opacity="0" result="BackgroundImageFix"/>
<feColorMatrix in="SourceAlpha" type="matrix" values="0 0 0 0 0 0 0 0 0 0 0 0 0 0 0 0 0 0 127 0" result="hardAlpha"/>
<feOffset dy="4"/>
<feGaussianBlur stdDeviation="2"/>
<feComposite in2="hardAlpha" operator="out"/>
<feColorMatrix type="matrix" values="0 0 0 0 0 0 0 0 0 0 0 0 0 0 0 0 0 0 0.25 0"/>
<feBlend mode="normal" in2="BackgroundImageFix" result="effect1_dropShadow_201_85"/>
<feBlend mode="normal" in="SourceGraphic" in2="effect1_dropShadow_201_85" result="shape"/>
</filter>
</defs>
</svg>
