<svg width="454" height="204" viewBox="0 0 454 204" fill="none" xmlns="http://www.w3.org/2000/svg">
<path d="M201.462 43H326.541C327.72 43 328.889 43.2324 329.978 43.6838C331.068 44.1352 332.059 44.7969 332.893 45.6311C333.727 46.4652 334.389 47.4555 334.84 48.5454C335.291 49.6352 335.524 50.8033 335.524 51.983V68.152H201.462C198.126 68.152 194.928 66.827 192.569 64.4686C190.211 62.1101 188.886 58.9114 188.886 55.576C188.886 52.2406 190.211 49.0419 192.569 46.6834C194.928 44.325 198.126 43 201.462 43Z" fill="#00AEEF"/>
<path d="M257.062 60.1758C256.411 60.1758 255.799 60.0781 255.227 59.8828C254.66 59.6875 254.185 59.4108 253.801 59.0527L254.055 57.041C254.458 57.4902 254.937 57.8418 255.49 58.0957C256.05 58.3431 256.623 58.4668 257.209 58.4668C257.73 58.4668 258.189 58.3268 258.586 58.0469C258.983 57.7669 259.182 57.3828 259.182 56.8945C259.182 56.4388 258.957 56.0579 258.508 55.752C258.059 55.4395 257.417 55.2832 256.584 55.2832H255.93V53.5254H256.584C257.255 53.5254 257.801 53.3594 258.225 53.0273C258.648 52.6953 258.859 52.3307 258.859 51.9336C258.859 51.6016 258.706 51.3379 258.4 51.1426C258.094 50.9473 257.759 50.8496 257.395 50.8496C256.828 50.8496 256.307 50.9342 255.832 51.1035C255.357 51.2663 254.911 51.5592 254.494 51.9824L254.24 50.3027C254.533 49.9642 254.966 49.6842 255.539 49.4629C256.112 49.2415 256.704 49.1309 257.316 49.1309C258.371 49.1309 259.234 49.3555 259.904 49.8047C260.575 50.2539 260.91 50.8691 260.91 51.6504C260.91 52.0996 260.786 52.513 260.539 52.8906C260.292 53.2617 259.986 53.571 259.621 53.8184C259.263 54.0592 258.911 54.2155 258.566 54.2871C258.911 54.3457 259.296 54.4661 259.719 54.6484C260.142 54.8307 260.507 55.1107 260.812 55.4883C261.118 55.8659 261.271 56.3835 261.271 57.041C261.271 57.6139 261.086 58.138 260.715 58.6133C260.35 59.0885 259.852 59.4694 259.221 59.7559C258.589 60.0358 257.87 60.1758 257.062 60.1758ZM266.535 60.0684C266.288 60.0684 265.975 60.0651 265.598 60.0586C265.227 60.0521 264.855 60.0423 264.484 60.0293C264.113 60.0228 263.801 60.0163 263.547 60.0098C263.299 60.0033 263.176 60 263.176 60C263.228 59.707 263.257 59.2611 263.264 58.6621C263.277 58.0632 263.283 57.3991 263.283 56.6699V52.6758C263.283 51.9596 263.277 51.2923 263.264 50.6738C263.257 50.0553 263.228 49.5996 263.176 49.3066C263.397 49.2936 263.716 49.2839 264.133 49.2773C264.556 49.2643 265.002 49.2546 265.471 49.248C265.939 49.2415 266.346 49.2383 266.691 49.2383C267.095 49.2383 267.538 49.2773 268.02 49.3555C268.508 49.4336 268.99 49.5768 269.465 49.7852C269.947 49.9935 270.386 50.2962 270.783 50.6934C271.187 51.0905 271.509 51.6048 271.75 52.2363C271.991 52.8678 272.111 53.6491 272.111 54.5801C272.111 55.6738 271.929 56.5755 271.564 57.2852C271.206 57.9948 270.741 58.5547 270.168 58.9648C269.602 59.3685 268.996 59.6549 268.352 59.8242C267.707 59.987 267.102 60.0684 266.535 60.0684ZM266.711 58.3887C267.258 58.3887 267.785 58.2682 268.293 58.0273C268.807 57.7865 269.227 57.3991 269.553 56.8652C269.885 56.3249 270.051 55.612 270.051 54.7266C270.051 53.7565 269.908 52.9915 269.621 52.4316C269.335 51.8717 268.941 51.4746 268.439 51.2402C267.945 50.9993 267.378 50.8789 266.74 50.8789C266.538 50.8789 266.298 50.8822 266.018 50.8887C265.744 50.8952 265.529 50.9049 265.373 50.918V58.3105C265.516 58.3236 265.702 58.3398 265.93 58.3594C266.164 58.3789 266.424 58.3887 266.711 58.3887Z" fill="#FEFEFE"/>
<path d="M333.208 85.668H280.208V90.668H333.208V85.668Z" fill="#949598"/>
<path d="M280.208 85.668H238.208V90.668H280.208V85.668Z" fill="#00AEEF"/>
<path d="M279.222 84C279.959 84 280.666 84.3835 281.186 85.0661C281.707 85.7488 282 86.6746 282 87.64V88.3571C282 88.8353 281.929 89.309 281.789 89.7509C281.65 90.1929 281.445 90.5945 281.187 90.9328C280.929 91.2711 280.623 91.5395 280.286 91.7226C279.949 91.9058 279.587 92 279.222 92C278.93 92 278.641 91.9246 278.371 91.778C278.102 91.6315 277.856 91.4167 277.65 91.146C277.444 90.8753 277.28 90.5539 277.169 90.2002C277.057 89.8466 277 89.4676 277 89.0849V86.9122C277 86.1398 277.234 85.3991 277.651 84.853C278.068 84.3068 278.633 84 279.222 84Z" fill="black"/>
<path d="M87.7812 88.8398C87.7812 90.0052 87.3678 90.9655 86.541 91.7207C85.5775 92.5996 84.1745 93.0391 82.332 93.0391L80.6621 93.0195C79.7832 93.0065 79.028 93 78.3965 93V79.5234C79.666 79.4518 81.1602 79.416 82.8789 79.416C84.3307 79.416 85.4473 79.7025 86.2285 80.2754C87.0098 80.8548 87.4004 81.6816 87.4004 82.7559C87.4004 84.2272 86.7201 85.2363 85.3594 85.7832V85.8223C86.0755 85.972 86.6582 86.3236 87.1074 86.877C87.5566 87.4368 87.7812 88.0911 87.7812 88.8398ZM84.6367 83.1758C84.6367 82.056 83.9108 81.4961 82.459 81.4961C82.0423 81.4961 81.554 81.5091 80.9941 81.5352V85.0801C81.209 85.0931 81.5638 85.0996 82.0586 85.0996C83.7773 85.0996 84.6367 84.4583 84.6367 83.1758ZM84.998 88.918C84.998 87.668 84.0443 87.043 82.1367 87.043C81.5638 87.043 81.1829 87.0495 80.9941 87.0625V90.8809C81.6387 90.9199 82.1204 90.9395 82.4395 90.9395C83.2663 90.9395 83.9043 90.7507 84.3535 90.373C84.7832 90.015 84.998 89.5299 84.998 88.918ZM89.9004 93V78.4004H92.459V93H89.9004ZM103.348 87.082C103.348 87.6745 103.315 88.153 103.25 88.5176H97.1074C97.1074 90.3079 98.0221 91.2031 99.8516 91.2031C100.815 91.2031 101.775 91.0078 102.732 90.6172L103.006 92.5605C101.854 92.9837 100.656 93.1953 99.4121 93.1953C96.1439 93.1953 94.5098 91.5026 94.5098 88.1172C94.5098 86.5872 94.9264 85.3405 95.7598 84.377C96.6257 83.3678 97.7812 82.8633 99.2266 82.8633C100.607 82.8633 101.658 83.2702 102.381 84.084C103.025 84.8197 103.348 85.819 103.348 87.082ZM100.809 86.8184C100.848 85.4316 100.275 84.7383 99.0898 84.7383C97.931 84.7383 97.2767 85.4316 97.127 86.8184H100.809ZM111.59 93V86.6426C111.59 85.5488 111.176 85.002 110.35 85.002C109.712 85.002 109.168 85.3177 108.719 85.9492C108.27 86.5742 108.045 87.3229 108.045 88.1953V93H105.486V83.0586H107.908C107.908 83.7617 107.859 84.3542 107.762 84.8359H107.791C108.468 83.5208 109.594 82.8633 111.17 82.8633C113.143 82.8633 114.129 83.9147 114.129 86.0176V93H111.59ZM122.869 93C122.869 92.4336 122.908 91.8802 122.986 91.3398H122.947C122.355 92.5964 121.31 93.2246 119.812 93.2246C118.628 93.2246 117.719 92.8014 117.088 91.9551C116.489 91.1478 116.189 90.015 116.189 88.5566C116.189 86.8574 116.655 85.4935 117.586 84.4648C118.536 83.4102 119.826 82.8828 121.453 82.8828C121.902 82.8828 122.322 82.9089 122.713 82.9609V78.4004H125.252V93H122.869ZM122.713 85.0605C122.218 84.9564 121.769 84.9043 121.365 84.9043C119.699 84.9043 118.865 86.0306 118.865 88.2832C118.865 90.1582 119.435 91.0957 120.574 91.0957C121.219 91.0957 121.743 90.7669 122.146 90.1094C122.524 89.4909 122.713 88.7357 122.713 87.8438V85.0605ZM136.16 87.082C136.16 87.6745 136.128 88.153 136.062 88.5176H129.92C129.92 90.3079 130.835 91.2031 132.664 91.2031C133.628 91.2031 134.588 91.0078 135.545 90.6172L135.818 92.5605C134.666 92.9837 133.468 93.1953 132.225 93.1953C128.956 93.1953 127.322 91.5026 127.322 88.1172C127.322 86.5872 127.739 85.3405 128.572 84.377C129.438 83.3678 130.594 82.8633 132.039 82.8633C133.419 82.8633 134.471 83.2702 135.193 84.084C135.838 84.8197 136.16 85.819 136.16 87.082ZM133.621 86.8184C133.66 85.4316 133.087 84.7383 131.902 84.7383C130.743 84.7383 130.089 85.4316 129.939 86.8184H133.621ZM143.621 85.3633C141.779 84.9987 140.857 86.1901 140.857 88.9375V93H138.299V83.0586H140.721C140.721 83.6901 140.659 84.3574 140.535 85.0605H140.574C141.186 83.4525 142.241 82.7201 143.738 82.8633L143.621 85.3633Z" fill="#FF0040"/>
<path d="M246.967 115.364C246.911 115.11 246.665 114.952 246.435 115.013C246.298 115.074 246.194 115.162 246.135 115.264C246.076 115.366 246.066 115.477 246.106 115.583L246.149 115.771L246.58 115.661L246.153 115.775C246.168 115.852 246.206 115.926 246.265 115.993C246.306 116.045 246.359 116.103 246.417 116.171C246.64 116.405 246.839 116.649 247.011 116.902C247.142 117.124 247.414 117.191 247.617 117.052C247.725 116.961 247.794 116.853 247.818 116.738C247.842 116.624 247.821 116.507 247.758 116.4C247.556 116.092 247.319 115.794 247.048 115.51C247.007 115.465 247.001 115.487 246.992 115.48L246.967 115.364Z" fill="#FFFFFE"/>
<rect x="2" y="-2" width="450" height="200" transform="matrix(1 0 0 -1 0 200)" stroke="#01ADED" stroke-width="4"/>
</svg>
