<svg width="454" height="227" viewBox="0 0 454 227" fill="none" xmlns="http://www.w3.org/2000/svg">
<rect x="2" y="-2" width="450" height="223" transform="matrix(1 0 0 -1 0 223)" stroke="#01ADED" stroke-width="4"/>
<g filter="url(#filter0_d_178_1105)">
<mask id="path-2-inside-1_178_1105" fill="white">
<path d="M341 19H85V19H341V19Z"/>
</mask>
<path d="M341 19H85V19H341V19Z" fill="#231F20"/>
<path d="M341 18.7H85V19.3H341V18.7ZM85 19.3H341V18.7H85V19.3Z" fill="black" mask="url(#path-2-inside-1_178_1105)"/>
</g>
<path d="M45 32L45 93" stroke="white"/>
<path d="M45 32L45 93" stroke="white"/>
<path d="M212.439 26H341.417C342.596 26 343.765 26.2324 344.854 26.6838C345.944 27.1352 346.935 27.7969 347.769 28.6311C348.603 29.4652 349.265 30.4555 349.716 31.5454C350.167 32.6352 350.4 33.8033 350.4 34.983V51.152H212.439C209.103 51.152 205.905 49.827 203.546 47.4686C201.188 45.1101 199.863 41.9114 199.863 38.576C199.863 35.2406 201.188 32.0419 203.546 29.6834C205.905 27.325 209.103 26 212.439 26Z" fill="#00AEEF"/>
<path d="M230.223 44.7686C229.773 44.7686 229.319 44.7075 228.86 44.5854C228.406 44.4683 228.028 44.2852 227.725 44.0361C227.422 43.792 227.271 43.4795 227.271 43.0986C227.271 42.4883 227.769 41.9854 228.765 41.5898C228.765 41.5898 228.829 41.5996 228.956 41.6191C229.087 41.6338 229.239 41.6558 229.41 41.6851C229.581 41.7095 229.732 41.7412 229.864 41.7803C230 41.8145 230.074 41.8511 230.083 41.8901C229.708 42.0269 229.429 42.1587 229.249 42.2856C229.068 42.4126 228.948 42.5322 228.89 42.6445C228.836 42.7617 228.809 42.8765 228.809 42.9888C228.809 43.1401 228.931 43.2891 229.175 43.4355C229.424 43.582 229.8 43.6553 230.303 43.6553C230.708 43.6553 231.055 43.5747 231.343 43.4136C231.631 43.2524 231.775 43.0913 231.775 42.9302C231.775 42.7349 231.651 42.5713 231.402 42.4395C231.153 42.3076 230.687 42.2026 230.003 42.1245C229.271 42.0415 228.77 41.8755 228.501 41.6265C228.238 41.3726 228.106 41.104 228.106 40.8208C228.106 40.6548 228.177 40.4766 228.318 40.2861C228.465 40.0908 228.67 39.9395 228.934 39.832L230.23 40.0811C229.913 40.1592 229.69 40.2446 229.563 40.3374C229.437 40.4302 229.373 40.5181 229.373 40.6011C229.373 40.7085 229.49 40.7988 229.725 40.8721C229.959 40.9404 230.428 41.0161 231.131 41.0991C231.946 41.1919 232.513 41.3945 232.83 41.707C233.152 42.0146 233.313 42.4053 233.313 42.8789C233.313 43.1719 233.221 43.4355 233.035 43.6699C232.85 43.9043 232.603 44.1021 232.295 44.2632C231.988 44.4292 231.653 44.5537 231.292 44.6367C230.931 44.7246 230.574 44.7686 230.223 44.7686ZM230.113 40.3301C229.654 40.3301 229.239 40.2446 228.868 40.0737C228.501 39.9028 228.208 39.666 227.989 39.3633C227.774 39.0605 227.667 38.7139 227.667 38.3232C227.667 37.9473 227.774 37.6055 227.989 37.2979C228.208 36.9902 228.501 36.7461 228.868 36.5654C229.239 36.3799 229.654 36.2871 230.113 36.2871C230.577 36.2871 230.992 36.375 231.358 36.5508C231.729 36.7217 232.022 36.9561 232.237 37.2539C232.452 37.5518 232.559 37.8887 232.559 38.2646C232.559 38.6602 232.452 39.0142 232.237 39.3267C232.022 39.6392 231.729 39.8857 231.358 40.0664C230.992 40.2422 230.577 40.3301 230.113 40.3301ZM230.113 39.2534C230.416 39.2534 230.665 39.1606 230.86 38.9751C231.055 38.7847 231.153 38.5479 231.153 38.2646C231.153 38.0205 231.055 37.8081 230.86 37.6274C230.665 37.4419 230.416 37.3491 230.113 37.3491C229.81 37.3491 229.559 37.4419 229.358 37.6274C229.163 37.8081 229.065 38.0205 229.065 38.2646C229.065 38.5479 229.163 38.7847 229.358 38.9751C229.559 39.1606 229.81 39.2534 230.113 39.2534ZM231.651 37.7739L231.292 36.8364C231.536 36.6802 231.822 36.5557 232.149 36.4629C232.481 36.3652 232.781 36.3066 233.05 36.2871L232.999 37.4736C232.798 37.4785 232.586 37.5029 232.361 37.5469C232.142 37.5908 231.905 37.6665 231.651 37.7739ZM234.383 42V38.6235C234.383 38.0864 234.351 37.6299 234.288 37.2539C234.229 36.873 234.17 36.5874 234.112 36.397H235.621C235.66 36.5142 235.701 36.6899 235.745 36.9243C235.789 37.1587 235.821 37.3418 235.84 37.4736C236.109 37.0879 236.402 36.7949 236.719 36.5947C237.037 36.3896 237.32 36.2871 237.569 36.2871C238.086 36.2871 238.453 36.4922 238.667 36.9023C238.887 37.3076 238.997 37.791 238.997 38.3525L237.774 38.543C237.754 38.2939 237.693 38.0938 237.591 37.9424C237.488 37.791 237.32 37.7153 237.085 37.7153C236.963 37.7153 236.824 37.7837 236.668 37.9204C236.512 38.0522 236.365 38.2231 236.229 38.4331C236.092 38.6431 235.989 38.8628 235.921 39.0923V42H234.383ZM241.495 42.1318C241.128 42.1318 240.801 42.0537 240.513 41.8975C240.23 41.7412 240.008 41.5337 239.847 41.2749C239.686 41.0161 239.605 40.7378 239.605 40.4399C239.605 40.1567 239.668 39.876 239.795 39.5977C239.927 39.3145 240.152 39.0703 240.469 38.8652C240.792 38.6602 241.236 38.5308 241.802 38.4771C241.929 38.4624 242.093 38.4478 242.293 38.4331C242.498 38.4185 242.696 38.4062 242.886 38.3965C243.077 38.3818 243.208 38.3745 243.282 38.3745V38.1035C243.282 37.8984 243.165 37.7495 242.93 37.6567C242.701 37.564 242.378 37.5176 241.963 37.5176C241.675 37.5176 241.385 37.5762 241.092 37.6934C240.804 37.8105 240.499 37.9814 240.176 38.2061C240.181 38.084 240.186 37.874 240.191 37.5762C240.201 37.2734 240.215 37.0098 240.235 36.7852C240.547 36.6631 240.875 36.5508 241.216 36.4482C241.563 36.3408 241.968 36.2871 242.432 36.2871C243.15 36.2871 243.726 36.436 244.161 36.7339C244.6 37.0269 244.82 37.3906 244.82 37.8252V39.9712C244.82 40.3667 244.854 40.728 244.922 41.0552C244.996 41.3774 245.091 41.6924 245.208 42H243.721C243.687 41.9219 243.643 41.8169 243.589 41.6851C243.536 41.5532 243.489 41.4116 243.45 41.2603C243.143 41.5679 242.82 41.79 242.483 41.9268C242.146 42.0635 241.817 42.1318 241.495 42.1318ZM241.897 40.8794C242.127 40.8794 242.349 40.8306 242.564 40.7329C242.779 40.6353 243.018 40.4082 243.282 40.0518V39.3926C243.174 39.3975 242.991 39.4121 242.732 39.4365C242.474 39.4561 242.273 39.4756 242.132 39.4951C241.751 39.5342 241.49 39.6245 241.348 39.7661C241.211 39.9028 241.143 40.0615 241.143 40.2422C241.143 40.418 241.211 40.5693 241.348 40.6963C241.49 40.8184 241.673 40.8794 241.897 40.8794ZM246.468 44.688V39.3413C246.468 38.6577 246.453 38.0742 246.424 37.5908C246.399 37.1074 246.324 36.7095 246.197 36.397H247.706C247.745 36.48 247.784 36.5996 247.823 36.7559C247.867 36.9121 247.901 37.105 247.925 37.3345C248.179 37.0269 248.475 36.7754 248.812 36.5801C249.153 36.3848 249.522 36.2871 249.917 36.2871C250.328 36.2871 250.687 36.4067 250.994 36.646C251.302 36.8853 251.539 37.2148 251.705 37.6348C251.875 38.0498 251.961 38.5259 251.961 39.063C251.961 39.688 251.851 40.2324 251.631 40.6963C251.412 41.1553 251.116 41.5093 250.745 41.7583C250.374 42.0073 249.964 42.1318 249.515 42.1318C249.227 42.1318 248.968 42.0879 248.738 42C248.509 41.917 248.265 41.7998 248.006 41.6484V42.8203C248.006 43.2598 248.016 43.6211 248.035 43.9043C248.06 44.1924 248.096 44.4536 248.145 44.688H246.468ZM249.148 40.8721C249.485 40.8721 249.781 40.7256 250.035 40.4326C250.293 40.1348 250.423 39.7344 250.423 39.2314C250.423 38.7334 250.33 38.3379 250.145 38.0449C249.959 37.7471 249.7 37.5981 249.368 37.5981C249.124 37.5981 248.875 37.7007 248.621 37.9058C248.367 38.106 248.162 38.4014 248.006 38.792V40.3521C248.289 40.562 248.504 40.7012 248.65 40.7695C248.797 40.8379 248.963 40.8721 249.148 40.8721ZM253.199 42C253.199 42 253.199 41.8755 253.199 41.6265C253.199 41.3726 253.199 41.043 253.199 40.6377C253.199 40.2275 253.199 39.7832 253.199 39.3047C253.199 38.8213 253.199 38.3452 253.199 37.8765C253.199 37.4077 253.199 36.9878 253.199 36.6167C253.199 36.2456 253.199 35.9722 253.199 35.7964C253.199 35.2056 253.194 34.688 253.184 34.2437C253.179 33.7944 253.157 33.4502 253.118 33.2109H254.737C254.737 33.2109 254.737 33.3428 254.737 33.6064C254.737 33.8701 254.737 34.1997 254.737 34.5952C254.737 34.9858 254.737 35.3838 254.737 35.7891C254.737 36.1895 254.737 36.5361 254.737 36.8291C254.737 37.1172 254.737 37.2856 254.737 37.3345C255.005 36.9878 255.33 36.7266 255.711 36.5508C256.097 36.375 256.485 36.2871 256.875 36.2871C257.994 36.2871 258.553 37.0488 258.553 38.5723C258.553 38.7529 258.553 38.9873 258.553 39.2754C258.553 39.5586 258.553 39.8564 258.553 40.1689C258.553 40.4814 258.553 40.7769 258.553 41.0552C258.553 41.3335 258.553 41.5605 258.553 41.7363C258.553 41.9121 258.553 42 258.553 42H257.015C257.015 42 257.015 41.8828 257.015 41.6484C257.015 41.4092 257.015 41.1187 257.015 40.7769C257.015 40.4302 257.015 40.0933 257.015 39.7661C257.015 39.4341 257.015 39.1729 257.015 38.9824C257.015 38.4453 256.946 38.0864 256.81 37.9058C256.673 37.7251 256.458 37.6348 256.165 37.6348C255.853 37.6348 255.56 37.7617 255.286 38.0156C255.018 38.2646 254.834 38.5308 254.737 38.814V42H253.199ZM260.23 42C260.23 42 260.23 41.9023 260.23 41.707C260.23 41.5068 260.23 41.2529 260.23 40.9453C260.23 40.6377 260.23 40.3179 260.23 39.9858C260.23 39.6538 260.23 39.356 260.23 39.0923C260.23 38.5552 260.225 38.0449 260.215 37.5615C260.206 37.0732 260.181 36.6851 260.142 36.397H261.768V39.3926C261.768 39.627 261.771 39.9126 261.775 40.2495C261.785 40.5815 261.797 40.9087 261.812 41.231C261.832 41.5483 261.854 41.8047 261.878 42H260.23ZM260.999 35.3569C260.721 35.3569 260.489 35.269 260.303 35.0933C260.123 34.9126 260.032 34.6807 260.032 34.3975C260.032 34.1143 260.123 33.8823 260.303 33.7017C260.489 33.521 260.721 33.4307 260.999 33.4307C261.277 33.4307 261.507 33.521 261.688 33.7017C261.868 33.8823 261.958 34.1143 261.958 34.3975C261.958 34.6807 261.868 34.9126 261.688 35.0933C261.507 35.269 261.277 35.3569 260.999 35.3569ZM265.928 42.1318C265.435 42.1318 264.986 42.022 264.581 41.8022C264.175 41.5825 263.851 41.2627 263.606 40.8428C263.367 40.4229 263.248 39.9126 263.248 39.312C263.248 38.7407 263.365 38.228 263.599 37.7739C263.838 37.3149 264.173 36.9536 264.603 36.6899C265.032 36.4214 265.538 36.2871 266.119 36.2871C266.48 36.2871 266.802 36.3262 267.085 36.4043C267.374 36.4824 267.618 36.5752 267.818 36.6826L267.576 38.0083C267.386 37.8374 267.176 37.7104 266.946 37.6274C266.722 37.5396 266.453 37.4956 266.141 37.4956C265.735 37.4956 265.408 37.6567 265.159 37.979C264.91 38.2964 264.786 38.7212 264.786 39.2534C264.786 39.7368 264.9 40.1323 265.13 40.4399C265.364 40.7476 265.701 40.9014 266.141 40.9014C266.473 40.9014 266.756 40.8501 266.99 40.7476C267.229 40.6401 267.469 40.4912 267.708 40.3008L267.876 41.6191C267.623 41.7852 267.337 41.9121 267.02 42C266.702 42.0879 266.338 42.1318 265.928 42.1318ZM274.52 42.1318C273.841 42.1318 273.292 41.8901 272.872 41.4067C272.452 40.9233 272.242 40.2788 272.242 39.4731C272.242 38.8237 272.361 38.2622 272.601 37.7886C272.845 37.3101 273.169 36.9414 273.575 36.6826C273.985 36.4189 274.437 36.2871 274.93 36.2871C275.145 36.2871 275.374 36.3359 275.618 36.4336C275.862 36.5264 276.082 36.6338 276.277 36.7559V35.2178C276.277 34.7783 276.268 34.3926 276.248 34.0605C276.229 33.7236 276.192 33.4404 276.138 33.2109H277.815V39.0923C277.815 39.7856 277.854 40.3667 277.933 40.8354C278.011 41.3042 278.108 41.6924 278.226 42H276.717C276.678 41.9121 276.629 41.7803 276.57 41.6045C276.512 41.4238 276.46 41.2358 276.417 41.0405C276.167 41.3921 275.884 41.6631 275.567 41.8535C275.25 42.0391 274.9 42.1318 274.52 42.1318ZM274.82 40.9014C275.113 40.9014 275.396 40.7866 275.669 40.5571C275.943 40.3276 276.146 40.0762 276.277 39.8027V37.9497C276.023 37.8228 275.799 37.7349 275.604 37.686C275.413 37.6323 275.188 37.6055 274.93 37.6055C274.642 37.6055 274.378 37.7568 274.139 38.0596C273.899 38.3574 273.78 38.7749 273.78 39.312C273.78 40.3716 274.126 40.9014 274.82 40.9014ZM281.866 42.1318C281.382 42.1318 280.933 42.0244 280.518 41.8096C280.103 41.5947 279.766 41.2749 279.507 40.8501C279.253 40.4253 279.126 39.9028 279.126 39.2827C279.126 38.3745 279.371 37.6494 279.859 37.1074C280.352 36.5605 281.021 36.2871 281.866 36.2871C282.481 36.2871 282.955 36.4263 283.287 36.7046C283.619 36.978 283.848 37.3271 283.975 37.752C284.107 38.1768 284.173 38.6187 284.173 39.0776C284.173 39.1313 284.173 39.207 284.173 39.3047C284.178 39.4023 284.18 39.478 284.18 39.5317H279.961V38.543H282.781C282.781 38.1572 282.696 37.8789 282.525 37.708C282.359 37.5322 282.115 37.4443 281.792 37.4443C281.397 37.4443 281.102 37.5811 280.906 37.8545C280.716 38.1279 280.621 38.5869 280.621 39.2314C280.621 39.8125 280.738 40.2373 280.972 40.5059C281.207 40.7695 281.551 40.9014 282.005 40.9014C282.366 40.9014 282.718 40.8599 283.06 40.7769C283.406 40.6938 283.75 40.5522 284.092 40.3521L284.209 41.5898C283.814 41.79 283.431 41.9292 283.06 42.0073C282.693 42.0903 282.295 42.1318 281.866 42.1318ZM287.608 42.1318C287.12 42.1318 286.668 42.0708 286.253 41.9487C285.843 41.8218 285.518 41.6753 285.279 41.5093L285.579 40.1616C285.853 40.3862 286.182 40.5669 286.568 40.7036C286.958 40.8354 287.315 40.9014 287.637 40.9014C287.896 40.9014 288.106 40.8525 288.267 40.7549C288.433 40.6523 288.516 40.5376 288.516 40.4106C288.516 40.2495 288.431 40.1079 288.26 39.9858C288.094 39.8589 287.75 39.7393 287.227 39.627C286.709 39.5146 286.314 39.3804 286.041 39.2241C285.767 39.0679 285.579 38.8896 285.477 38.6895C285.379 38.4893 285.33 38.2744 285.33 38.0449C285.33 37.9131 285.367 37.7495 285.44 37.5542C285.513 37.354 285.638 37.1587 285.813 36.9683C285.994 36.7729 286.238 36.6118 286.546 36.4849C286.858 36.353 287.249 36.2871 287.718 36.2871C288.167 36.2871 288.555 36.3359 288.882 36.4336C289.214 36.5264 289.485 36.624 289.695 36.7266L289.483 38.0229C289.278 37.9106 289.019 37.7959 288.707 37.6787C288.394 37.5566 288.047 37.4956 287.667 37.4956C287.344 37.4956 287.122 37.5518 287 37.6641C286.878 37.7715 286.817 37.8813 286.817 37.9937C286.817 38.1304 286.878 38.2378 287 38.3159C287.127 38.3892 287.432 38.4746 287.916 38.5723C288.296 38.6455 288.643 38.748 288.956 38.8799C289.273 39.0117 289.527 39.1899 289.717 39.4146C289.908 39.6392 290.003 39.9248 290.003 40.2715C290.003 40.623 289.896 40.9404 289.681 41.2236C289.471 41.502 289.185 41.7241 288.824 41.8901C288.462 42.0513 288.057 42.1318 287.608 42.1318ZM291.402 42C291.402 42 291.402 41.9023 291.402 41.707C291.402 41.5068 291.402 41.2529 291.402 40.9453C291.402 40.6377 291.402 40.3179 291.402 39.9858C291.402 39.6538 291.402 39.356 291.402 39.0923C291.402 38.5552 291.397 38.0449 291.387 37.5615C291.377 37.0732 291.353 36.6851 291.314 36.397H292.94V39.3926C292.94 39.627 292.942 39.9126 292.947 40.2495C292.957 40.5815 292.969 40.9087 292.984 41.231C293.003 41.5483 293.025 41.8047 293.05 42H291.402ZM292.171 35.3569C291.893 35.3569 291.661 35.269 291.475 35.0933C291.294 34.9126 291.204 34.6807 291.204 34.3975C291.204 34.1143 291.294 33.8823 291.475 33.7017C291.661 33.521 291.893 33.4307 292.171 33.4307C292.449 33.4307 292.679 33.521 292.859 33.7017C293.04 33.8823 293.13 34.1143 293.13 34.3975C293.13 34.6807 293.04 34.9126 292.859 35.0933C292.679 35.269 292.449 35.3569 292.171 35.3569ZM297.151 44.7686C296.702 44.7686 296.248 44.7075 295.789 44.5854C295.335 44.4683 294.957 44.2852 294.654 44.0361C294.351 43.792 294.2 43.4795 294.2 43.0986C294.2 42.4883 294.698 41.9854 295.694 41.5898C295.694 41.5898 295.757 41.5996 295.884 41.6191C296.016 41.6338 296.167 41.6558 296.338 41.6851C296.509 41.7095 296.661 41.7412 296.792 41.7803C296.929 41.8145 297.002 41.8511 297.012 41.8901C296.636 42.0269 296.358 42.1587 296.177 42.2856C295.997 42.4126 295.877 42.5322 295.818 42.6445C295.765 42.7617 295.738 42.8765 295.738 42.9888C295.738 43.1401 295.86 43.2891 296.104 43.4355C296.353 43.582 296.729 43.6553 297.232 43.6553C297.637 43.6553 297.984 43.5747 298.272 43.4136C298.56 43.2524 298.704 43.0913 298.704 42.9302C298.704 42.7349 298.58 42.5713 298.331 42.4395C298.082 42.3076 297.615 42.2026 296.932 42.1245C296.199 42.0415 295.699 41.8755 295.43 41.6265C295.167 41.3726 295.035 41.104 295.035 40.8208C295.035 40.6548 295.105 40.4766 295.247 40.2861C295.394 40.0908 295.599 39.9395 295.862 39.832L297.159 40.0811C296.841 40.1592 296.619 40.2446 296.492 40.3374C296.365 40.4302 296.302 40.5181 296.302 40.6011C296.302 40.7085 296.419 40.7988 296.653 40.8721C296.888 40.9404 297.356 41.0161 298.06 41.0991C298.875 41.1919 299.441 41.3945 299.759 41.707C300.081 42.0146 300.242 42.4053 300.242 42.8789C300.242 43.1719 300.149 43.4355 299.964 43.6699C299.778 43.9043 299.532 44.1021 299.224 44.2632C298.917 44.4292 298.582 44.5537 298.221 44.6367C297.859 44.7246 297.503 44.7686 297.151 44.7686ZM297.042 40.3301C296.583 40.3301 296.167 40.2446 295.796 40.0737C295.43 39.9028 295.137 39.666 294.917 39.3633C294.703 39.0605 294.595 38.7139 294.595 38.3232C294.595 37.9473 294.703 37.6055 294.917 37.2979C295.137 36.9902 295.43 36.7461 295.796 36.5654C296.167 36.3799 296.583 36.2871 297.042 36.2871C297.505 36.2871 297.92 36.375 298.287 36.5508C298.658 36.7217 298.951 36.9561 299.166 37.2539C299.38 37.5518 299.488 37.8887 299.488 38.2646C299.488 38.6602 299.38 39.0142 299.166 39.3267C298.951 39.6392 298.658 39.8857 298.287 40.0664C297.92 40.2422 297.505 40.3301 297.042 40.3301ZM297.042 39.2534C297.344 39.2534 297.593 39.1606 297.789 38.9751C297.984 38.7847 298.082 38.5479 298.082 38.2646C298.082 38.0205 297.984 37.8081 297.789 37.6274C297.593 37.4419 297.344 37.3491 297.042 37.3491C296.739 37.3491 296.487 37.4419 296.287 37.6274C296.092 37.8081 295.994 38.0205 295.994 38.2646C295.994 38.5479 296.092 38.7847 296.287 38.9751C296.487 39.1606 296.739 39.2534 297.042 39.2534ZM298.58 37.7739L298.221 36.8364C298.465 36.6802 298.75 36.5557 299.078 36.4629C299.41 36.3652 299.71 36.3066 299.979 36.2871L299.927 37.4736C299.727 37.4785 299.515 37.5029 299.29 37.5469C299.07 37.5908 298.833 37.6665 298.58 37.7739ZM301.312 42C301.312 42 301.312 41.8779 301.312 41.6338C301.312 41.3896 301.312 41.0845 301.312 40.7183C301.312 40.3472 301.312 39.9736 301.312 39.5977C301.312 39.2168 301.312 38.8921 301.312 38.6235C301.312 38.0864 301.28 37.6299 301.216 37.2539C301.158 36.873 301.099 36.5874 301.041 36.397H302.549C302.588 36.5044 302.63 36.6704 302.674 36.895C302.718 37.1147 302.75 37.2881 302.769 37.415C303.116 37.0146 303.458 36.7266 303.794 36.5508C304.136 36.375 304.5 36.2871 304.886 36.2871C305.442 36.2871 305.879 36.48 306.197 36.8657C306.514 37.2466 306.673 37.8154 306.673 38.5723C306.673 38.7529 306.673 38.9873 306.673 39.2754C306.673 39.5586 306.673 39.8564 306.673 40.1689C306.673 40.4814 306.673 40.7769 306.673 41.0552C306.673 41.3335 306.673 41.5605 306.673 41.7363C306.673 41.9121 306.673 42 306.673 42H305.135C305.135 42 305.135 41.8828 305.135 41.6484C305.135 41.4092 305.135 41.1187 305.135 40.7769C305.135 40.4302 305.135 40.0933 305.135 39.7661C305.135 39.4341 305.135 39.1729 305.135 38.9824C305.135 38.4746 305.066 38.123 304.93 37.9277C304.793 37.7324 304.576 37.6348 304.278 37.6348C303.965 37.6348 303.672 37.7617 303.399 38.0156C303.13 38.2646 302.947 38.5308 302.85 38.814V42H301.312ZM313.565 42.1318C313.077 42.1318 312.625 42.0708 312.21 41.9487C311.8 41.8218 311.475 41.6753 311.236 41.5093L311.536 40.1616C311.81 40.3862 312.139 40.5669 312.525 40.7036C312.916 40.8354 313.272 40.9014 313.594 40.9014C313.853 40.9014 314.063 40.8525 314.224 40.7549C314.39 40.6523 314.473 40.5376 314.473 40.4106C314.473 40.2495 314.388 40.1079 314.217 39.9858C314.051 39.8589 313.707 39.7393 313.184 39.627C312.667 39.5146 312.271 39.3804 311.998 39.2241C311.724 39.0679 311.536 38.8896 311.434 38.6895C311.336 38.4893 311.287 38.2744 311.287 38.0449C311.287 37.9131 311.324 37.7495 311.397 37.5542C311.47 37.354 311.595 37.1587 311.771 36.9683C311.951 36.7729 312.195 36.6118 312.503 36.4849C312.815 36.353 313.206 36.2871 313.675 36.2871C314.124 36.2871 314.512 36.3359 314.839 36.4336C315.171 36.5264 315.442 36.624 315.652 36.7266L315.44 38.0229C315.235 37.9106 314.976 37.7959 314.664 37.6787C314.351 37.5566 314.004 37.4956 313.624 37.4956C313.301 37.4956 313.079 37.5518 312.957 37.6641C312.835 37.7715 312.774 37.8813 312.774 37.9937C312.774 38.1304 312.835 38.2378 312.957 38.3159C313.084 38.3892 313.389 38.4746 313.873 38.5723C314.253 38.6455 314.6 38.748 314.913 38.8799C315.23 39.0117 315.484 39.1899 315.674 39.4146C315.865 39.6392 315.96 39.9248 315.96 40.2715C315.96 40.623 315.853 40.9404 315.638 41.2236C315.428 41.502 315.142 41.7241 314.781 41.8901C314.419 42.0513 314.014 42.1318 313.565 42.1318ZM320.545 42L318.289 38.8726L319.336 38.3525L322.566 42H320.545ZM317.11 42C317.11 42 317.11 41.8755 317.11 41.6265C317.11 41.3726 317.11 41.043 317.11 40.6377C317.11 40.2275 317.11 39.7832 317.11 39.3047C317.11 38.8213 317.11 38.3452 317.11 37.8765C317.11 37.4077 317.11 36.9902 317.11 36.624C317.11 36.2529 317.11 35.9771 317.11 35.7964C317.11 35.2056 317.105 34.688 317.095 34.2437C317.09 33.7944 317.068 33.4502 317.029 33.2109H318.648V42H317.11ZM319.512 39.0996L318.304 38.8726L320.34 36.397H322.398L319.512 39.0996ZM323.614 42C323.614 42 323.614 41.9023 323.614 41.707C323.614 41.5068 323.614 41.2529 323.614 40.9453C323.614 40.6377 323.614 40.3179 323.614 39.9858C323.614 39.6538 323.614 39.356 323.614 39.0923C323.614 38.5552 323.609 38.0449 323.599 37.5615C323.589 37.0732 323.565 36.6851 323.526 36.397H325.152V39.3926C325.152 39.627 325.154 39.9126 325.159 40.2495C325.169 40.5815 325.181 40.9087 325.196 41.231C325.215 41.5483 325.237 41.8047 325.262 42H323.614ZM324.383 35.3569C324.104 35.3569 323.873 35.269 323.687 35.0933C323.506 34.9126 323.416 34.6807 323.416 34.3975C323.416 34.1143 323.506 33.8823 323.687 33.7017C323.873 33.521 324.104 33.4307 324.383 33.4307C324.661 33.4307 324.891 33.521 325.071 33.7017C325.252 33.8823 325.342 34.1143 325.342 34.3975C325.342 34.6807 325.252 34.9126 325.071 35.0933C324.891 35.269 324.661 35.3569 324.383 35.3569ZM327.129 42V35.7964C327.129 35.2593 327.12 34.7734 327.1 34.3389C327.081 33.9043 327.054 33.5283 327.02 33.2109H328.667V39.3926C328.667 39.627 328.67 39.9126 328.675 40.2495C328.685 40.5815 328.697 40.9062 328.711 41.2236C328.731 41.541 328.753 41.7998 328.777 42H327.129ZM330.645 42V35.7964C330.645 35.2593 330.635 34.7734 330.616 34.3389C330.596 33.9043 330.569 33.5283 330.535 33.2109H332.183V39.3926C332.183 39.627 332.186 39.9126 332.19 40.2495C332.2 40.5815 332.212 40.9062 332.227 41.2236C332.247 41.541 332.269 41.7998 332.293 42H330.645Z" fill="white"/>
<path d="M350.192 71.668C351.573 71.668 352.692 70.9964 352.692 70.168C352.692 69.3395 351.573 68.668 350.192 68.668C348.811 68.668 347.692 69.3395 347.692 70.168C347.692 70.9964 348.811 71.668 350.192 71.668Z" fill="#231F20"/>
<path d="M350.192 103.668C351.573 103.668 352.692 102.996 352.692 102.168C352.692 101.34 351.573 100.668 350.192 100.668C348.811 100.668 347.692 101.34 347.692 102.168C347.692 102.996 348.811 103.668 350.192 103.668Z" fill="#231F20"/>
<path d="M350.192 86.668C351.573 86.668 352.692 85.9964 352.692 85.168C352.692 84.3395 351.573 83.668 350.192 83.668C348.811 83.668 347.692 84.3395 347.692 85.168C347.692 85.9964 348.811 86.668 350.192 86.668Z" fill="#231F20"/>
<path d="M350.192 123.668C351.573 123.668 352.692 122.996 352.692 122.168C352.692 121.34 351.573 120.668 350.192 120.668C348.811 120.668 347.692 121.34 347.692 122.168C347.692 122.996 348.811 123.668 350.192 123.668Z" fill="#231F20"/>
<path d="M350.192 142.668C351.573 142.668 352.692 141.996 352.692 141.168C352.692 140.34 351.573 139.668 350.192 139.668C348.811 139.668 347.692 140.34 347.692 141.168C347.692 141.996 348.811 142.668 350.192 142.668Z" fill="#231F20"/>
<path d="M350.192 160.668C351.573 160.668 352.692 159.996 352.692 159.168C352.692 158.34 351.573 157.668 350.192 157.668C348.811 157.668 347.692 158.34 347.692 159.168C347.692 159.996 348.811 160.668 350.192 160.668Z" fill="#231F20"/>
<path d="M345.692 99.668H249.692V104.668H345.692V99.668Z" fill="#949598"/>
<path d="M345.692 82.668H249.692V87.668H345.692V82.668Z" fill="#949598"/>
<path d="M345.692 119.668H249.692V124.668H345.692V119.668Z" fill="#949598"/>
<path d="M345.692 138.668H249.692V143.668H345.692V138.668Z" fill="#949598"/>
<path d="M345.692 156.668H249.692V161.668H345.692V156.668Z" fill="#949598"/>
<path d="M345.692 66.668H249.692V71.668H345.692V66.668Z" fill="#949598"/>
<path d="M328.692 99.668H249.692V104.668H328.692V99.668Z" fill="#00AEEF"/>
<path d="M328.692 82.668H249.692V87.668H328.692V82.668Z" fill="#00AEEF"/>
<path d="M337.692 82.668H249.692V87.668H337.692V82.668Z" fill="#00AEEF"/>
<path d="M311.692 119.668H249.692V124.668H311.692V119.668Z" fill="#00AEEF"/>
<path d="M327.692 138.668H249.692V143.668H327.692V138.668Z" fill="#00AEEF"/>
<path d="M327.692 156.668H249.692V161.668H327.692V156.668Z" fill="#00AEEF"/>
<path d="M326.692 66.668H249.692V71.668H326.692V66.668Z" fill="#00AEEF"/>
<path d="M326.137 98.668C327.61 98.668 329.023 99.0515 330.065 99.7341C331.107 100.417 331.692 101.343 331.692 102.308V103.025C331.692 103.503 331.549 103.977 331.27 104.419C330.991 104.861 330.582 105.262 330.066 105.601C329.55 105.939 328.938 106.208 328.263 106.391C327.589 106.574 326.866 106.668 326.137 106.668C325.552 106.668 324.974 106.593 324.435 106.446C323.895 106.299 323.405 106.085 322.992 105.814C322.579 105.543 322.252 105.222 322.029 104.868C321.806 104.515 321.691 104.136 321.692 103.753V101.58C321.692 100.808 322.16 100.067 322.994 99.5209C323.827 98.9748 324.958 98.668 326.137 98.668Z" fill="black"/>
<path d="M339.692 81.668C341.018 81.668 342.29 82.0515 343.227 82.7341C344.165 83.4167 344.692 84.3426 344.692 85.308V86.025C344.692 86.5033 344.563 86.9769 344.312 87.4189C344.061 87.8609 343.693 88.2625 343.229 88.6008C342.765 88.9391 342.213 89.2075 341.606 89.3906C340.999 89.5737 340.349 89.668 339.692 89.668C339.166 89.668 338.646 89.5925 338.16 89.446C337.675 89.2995 337.234 89.0847 336.862 88.814C336.491 88.5432 336.196 88.2219 335.995 87.8682C335.794 87.5145 335.691 87.1355 335.692 86.7528V84.5802C335.692 83.8078 336.113 83.0671 336.864 82.5209C337.614 81.9748 338.631 81.668 339.692 81.668Z" fill="black"/>
<path d="M311.137 118.668C312.61 118.668 314.023 119.051 315.065 119.734C316.107 120.417 316.692 121.343 316.692 122.308V123.025C316.692 123.503 316.549 123.977 316.27 124.419C315.991 124.861 315.582 125.262 315.066 125.601C314.55 125.939 313.938 126.208 313.263 126.391C312.589 126.574 311.866 126.668 311.137 126.668C310.552 126.668 309.974 126.593 309.435 126.446C308.895 126.299 308.405 126.085 307.992 125.814C307.579 125.543 307.252 125.222 307.029 124.868C306.806 124.515 306.691 124.136 306.692 123.753V121.58C306.692 120.808 307.16 120.067 307.994 119.521C308.827 118.975 309.958 118.668 311.137 118.668Z" fill="black"/>
<path d="M327.692 137.668C329.018 137.668 330.29 138.051 331.227 138.734C332.165 139.417 332.692 140.343 332.692 141.308V142.025C332.692 142.503 332.563 142.977 332.312 143.419C332.061 143.861 331.693 144.262 331.229 144.601C330.765 144.939 330.213 145.208 329.606 145.391C328.999 145.574 328.349 145.668 327.692 145.668C327.166 145.668 326.646 145.593 326.16 145.446C325.675 145.299 325.234 145.085 324.862 144.814C324.491 144.543 324.196 144.222 323.995 143.868C323.794 143.515 323.691 143.136 323.692 142.753V140.58C323.692 139.808 324.113 139.067 324.864 138.521C325.614 137.975 326.631 137.668 327.692 137.668Z" fill="black"/>
<path d="M327.692 155.668C329.018 155.668 330.29 156.051 331.227 156.734C332.165 157.417 332.692 158.343 332.692 159.308V160.025C332.692 160.503 332.563 160.977 332.312 161.419C332.061 161.861 331.693 162.262 331.229 162.601C330.765 162.939 330.213 163.208 329.606 163.391C328.999 163.574 328.349 163.668 327.692 163.668C327.166 163.668 326.646 163.593 326.16 163.446C325.675 163.299 325.234 163.085 324.862 162.814C324.491 162.543 324.196 162.222 323.995 161.868C323.794 161.515 323.691 161.136 323.692 160.753V158.58C323.692 157.808 324.113 157.067 324.864 156.521C325.614 155.975 326.631 155.668 327.692 155.668Z" fill="black"/>
<path d="M322.137 65.668C323.61 65.668 325.023 66.0515 326.065 66.7341C327.107 67.4167 327.692 68.3426 327.692 69.308V70.025C327.692 70.5033 327.549 70.9769 327.27 71.4189C326.991 71.8609 326.582 72.2625 326.066 72.6008C325.55 72.9391 324.938 73.2075 324.263 73.3906C323.589 73.5737 322.866 73.668 322.137 73.668C321.552 73.668 320.974 73.5925 320.435 73.446C319.895 73.2995 319.405 73.0847 318.992 72.814C318.579 72.5432 318.252 72.2219 318.029 71.8682C317.806 71.5145 317.691 71.1355 317.692 70.7528V68.5802C317.692 67.8078 318.16 67.0671 318.994 66.5209C319.827 65.9748 320.958 65.668 322.137 65.668Z" fill="black"/>
<path d="M345.692 156.668H249.692V161.668H345.692V156.668Z" fill="#949598"/>
<path d="M327.692 156.668H249.692V161.668H327.692V156.668Z" fill="#00AEEF"/>
<path d="M327.692 155.668C329.018 155.668 330.29 156.051 331.227 156.734C332.165 157.417 332.692 158.343 332.692 159.308V160.025C332.692 160.503 332.563 160.977 332.312 161.419C332.061 161.861 331.693 162.262 331.229 162.601C330.765 162.939 330.213 163.208 329.606 163.391C328.999 163.574 328.349 163.668 327.692 163.668C327.166 163.668 326.646 163.593 326.16 163.446C325.675 163.299 325.234 163.085 324.862 162.814C324.491 162.543 324.196 162.222 323.995 161.868C323.794 161.515 323.691 161.136 323.692 160.753V158.58C323.692 157.808 324.113 157.067 324.864 156.521C325.614 155.975 326.631 155.668 327.692 155.668Z" fill="black"/>
<path d="M91.2524 107L90.6558 105.204H87.3296L86.7139 107H85.0127L88.0405 98.2275H90.0337L93.125 107H91.2524ZM89.3291 101.255C89.1768 100.794 89.0604 100.39 88.98 100.043H88.9673C88.8276 100.563 88.7134 100.968 88.6245 101.255L87.7295 103.864H90.2241L89.3291 101.255ZM97.6763 107C97.6763 106.632 97.7017 106.272 97.7524 105.921H97.7271C97.342 106.738 96.6628 107.146 95.6895 107.146C94.9193 107.146 94.3289 106.871 93.9185 106.321C93.5291 105.796 93.3345 105.06 93.3345 104.112C93.3345 103.007 93.637 102.121 94.2422 101.452C94.86 100.767 95.6979 100.424 96.7559 100.424C97.0479 100.424 97.3208 100.441 97.5747 100.475V97.5103H99.2251V107H97.6763ZM97.5747 101.839C97.2531 101.772 96.9611 101.738 96.6987 101.738C95.6154 101.738 95.0737 102.47 95.0737 103.934C95.0737 105.153 95.444 105.762 96.1846 105.762C96.6035 105.762 96.9442 105.549 97.2065 105.121C97.452 104.719 97.5747 104.228 97.5747 103.648V101.839ZM106.887 103.648C106.887 104.66 106.578 105.493 105.96 106.149C105.338 106.801 104.547 107.127 103.586 107.127C101.567 107.127 100.558 106.044 100.558 103.877C100.558 102.866 100.863 102.036 101.472 101.389C102.09 100.737 102.886 100.411 103.859 100.411C104.811 100.411 105.547 100.671 106.068 101.192C106.614 101.746 106.887 102.565 106.887 103.648ZM105.173 103.737C105.173 102.455 104.697 101.814 103.745 101.814C103.338 101.814 103 101.964 102.729 102.265C102.424 102.607 102.272 103.09 102.272 103.712C102.272 105.045 102.754 105.711 103.719 105.711C104.147 105.711 104.492 105.546 104.754 105.216C105.033 104.865 105.173 104.372 105.173 103.737ZM114.066 103.439C114.066 104.552 113.761 105.441 113.152 106.105C112.521 106.786 111.66 107.127 110.568 107.127C109.705 107.127 108.903 107.023 108.163 106.816V97.5103H109.826V100.291C109.826 100.773 109.792 101.194 109.724 101.554H109.737C110.088 100.792 110.738 100.411 111.686 100.411C112.451 100.411 113.042 100.676 113.457 101.205C113.863 101.729 114.066 102.474 114.066 103.439ZM112.32 103.604C112.32 102.394 111.952 101.789 111.216 101.789C110.797 101.789 110.456 102 110.194 102.423C109.948 102.821 109.826 103.301 109.826 103.864V105.686C110.058 105.766 110.348 105.807 110.695 105.807C111.779 105.807 112.32 105.072 112.32 103.604ZM120.813 103.153C120.813 103.538 120.792 103.849 120.75 104.086H116.757C116.757 105.25 117.352 105.832 118.541 105.832C119.167 105.832 119.792 105.705 120.414 105.451L120.591 106.714C119.842 106.989 119.064 107.127 118.255 107.127C116.131 107.127 115.069 106.027 115.069 103.826C115.069 102.832 115.34 102.021 115.881 101.395C116.444 100.739 117.195 100.411 118.135 100.411C119.032 100.411 119.715 100.676 120.185 101.205C120.604 101.683 120.813 102.332 120.813 103.153ZM119.163 102.982C119.188 102.081 118.816 101.63 118.046 101.63C117.293 101.63 116.867 102.081 116.77 102.982H119.163ZM124.755 107V98.2275H126.444V107H124.755ZM132.074 107V102.868C132.074 102.157 131.806 101.801 131.268 101.801C130.853 101.801 130.5 102.007 130.208 102.417C129.916 102.823 129.77 103.31 129.77 103.877V107H128.107V100.538H129.681C129.681 100.995 129.649 101.38 129.586 101.693H129.605C130.045 100.839 130.777 100.411 131.801 100.411C133.083 100.411 133.725 101.095 133.725 102.461V107H132.074ZM142.827 102.461C142.827 103.93 142.379 105.07 141.481 105.883C140.622 106.661 139.459 107.051 137.99 107.051C137.597 107.051 136.782 107.03 135.546 106.987V98.2402C136.693 98.1937 137.637 98.1704 138.377 98.1704C141.344 98.1704 142.827 99.6007 142.827 102.461ZM141.005 102.595C141.005 100.593 140.091 99.5923 138.263 99.5923C137.853 99.5923 137.51 99.605 137.235 99.6304V105.546C137.497 105.589 137.806 105.61 138.162 105.61C139.025 105.61 139.704 105.367 140.199 104.88C140.737 104.355 141.005 103.593 141.005 102.595ZM149.556 103.153C149.556 103.538 149.535 103.849 149.492 104.086H145.5C145.5 105.25 146.094 105.832 147.283 105.832C147.91 105.832 148.534 105.705 149.156 105.451L149.333 106.714C148.584 106.989 147.806 107.127 146.998 107.127C144.873 107.127 143.811 106.027 143.811 103.826C143.811 102.832 144.082 102.021 144.624 101.395C145.186 100.739 145.938 100.411 146.877 100.411C147.774 100.411 148.458 100.676 148.927 101.205C149.346 101.683 149.556 102.332 149.556 103.153ZM147.905 102.982C147.931 102.081 147.558 101.63 146.788 101.63C146.035 101.63 145.61 102.081 145.512 102.982H147.905ZM154.932 104.988C154.932 105.631 154.672 106.149 154.151 106.543C153.631 106.932 152.943 107.127 152.088 107.127C151.526 107.127 151.043 107.072 150.641 106.962L150.762 105.572C151.16 105.745 151.619 105.832 152.139 105.832C152.833 105.832 153.18 105.597 153.18 105.127C153.18 104.882 153.043 104.685 152.768 104.537C152.742 104.524 152.442 104.408 151.866 104.188C150.99 103.858 150.552 103.282 150.552 102.461C150.552 101.856 150.774 101.37 151.219 101.001C151.71 100.599 152.402 100.398 153.294 100.398C153.671 100.398 154.06 100.441 154.462 100.525L154.386 101.827C154.005 101.712 153.616 101.655 153.218 101.655C152.583 101.655 152.266 101.877 152.266 102.322C152.266 102.555 152.406 102.747 152.685 102.899L153.599 103.268C154.488 103.619 154.932 104.192 154.932 104.988ZM158.214 98.5767C158.214 98.8517 158.112 99.0866 157.909 99.2812C157.702 99.4801 157.456 99.5796 157.173 99.5796C156.885 99.5796 156.642 99.4823 156.443 99.2876C156.244 99.0929 156.145 98.856 156.145 98.5767C156.145 98.2974 156.244 98.0583 156.443 97.8594C156.642 97.6605 156.885 97.561 157.173 97.561C157.461 97.561 157.706 97.6584 157.909 97.853C158.112 98.0519 158.214 98.2931 158.214 98.5767ZM156.341 107V100.538H158.004V107H156.341ZM165.653 107.692C165.653 108.407 165.33 109.008 164.682 109.495C164.014 110.007 163.154 110.263 162.105 110.263C161.237 110.263 160.562 110.1 160.08 109.774C159.585 109.44 159.337 108.961 159.337 108.339C159.337 107.641 159.672 107.112 160.34 106.752C159.913 106.554 159.699 106.223 159.699 105.762C159.699 105.216 159.955 104.831 160.467 104.607C159.828 104.26 159.509 103.672 159.509 102.842C159.509 102.153 159.748 101.581 160.226 101.128C160.742 100.642 161.451 100.398 162.353 100.398C162.687 100.398 163.038 100.445 163.406 100.538H165.603V101.839H164.72C164.936 102.042 165.044 102.315 165.044 102.658C165.044 103.369 164.813 103.93 164.352 104.34C163.865 104.772 163.174 104.988 162.276 104.988C162.099 104.988 161.929 104.969 161.769 104.931C161.561 105.024 161.458 105.163 161.458 105.35C161.458 105.498 161.529 105.599 161.673 105.654C161.813 105.705 162.075 105.737 162.46 105.75L163.457 105.794C164.921 105.845 165.653 106.477 165.653 107.692ZM164.003 107.908C164.003 107.379 163.664 107.102 162.987 107.076L161.572 107.038C161.174 107.326 160.975 107.656 160.975 108.028C160.975 108.325 161.1 108.559 161.35 108.733C161.599 108.902 161.934 108.987 162.353 108.987C162.877 108.987 163.288 108.883 163.584 108.676C163.863 108.481 164.003 108.225 164.003 107.908ZM163.457 102.747C163.457 101.985 163.068 101.604 162.289 101.604C161.921 101.604 161.627 101.712 161.407 101.928C161.195 102.136 161.089 102.404 161.089 102.734C161.089 103.479 161.489 103.852 162.289 103.852C163.068 103.852 163.457 103.483 163.457 102.747ZM170.896 107V102.868C170.896 102.157 170.628 101.801 170.09 101.801C169.676 101.801 169.322 102.007 169.03 102.417C168.738 102.823 168.592 103.31 168.592 103.877V107H166.929V100.538H168.503C168.503 100.995 168.472 101.38 168.408 101.693H168.427C168.867 100.839 169.599 100.411 170.624 100.411C171.906 100.411 172.547 101.095 172.547 102.461V107H170.896Z" fill="#FF0040"/>
<path d="M91.2524 126L90.6558 124.204H87.3296L86.7139 126H85.0127L88.0405 117.228H90.0337L93.125 126H91.2524ZM89.3291 120.255C89.1768 119.794 89.0604 119.39 88.98 119.043H88.9673C88.8276 119.563 88.7134 119.968 88.6245 120.255L87.7295 122.864H90.2241L89.3291 120.255ZM97.6763 126C97.6763 125.632 97.7017 125.272 97.7524 124.921H97.7271C97.342 125.738 96.6628 126.146 95.6895 126.146C94.9193 126.146 94.3289 125.871 93.9185 125.321C93.5291 124.796 93.3345 124.06 93.3345 123.112C93.3345 122.007 93.637 121.121 94.2422 120.452C94.86 119.767 95.6979 119.424 96.7559 119.424C97.0479 119.424 97.3208 119.441 97.5747 119.475V116.51H99.2251V126H97.6763ZM97.5747 120.839C97.2531 120.772 96.9611 120.738 96.6987 120.738C95.6154 120.738 95.0737 121.47 95.0737 122.934C95.0737 124.153 95.444 124.762 96.1846 124.762C96.6035 124.762 96.9442 124.549 97.2065 124.121C97.452 123.719 97.5747 123.228 97.5747 122.648V120.839ZM106.887 122.648C106.887 123.66 106.578 124.493 105.96 125.149C105.338 125.801 104.547 126.127 103.586 126.127C101.567 126.127 100.558 125.044 100.558 122.877C100.558 121.866 100.863 121.036 101.472 120.389C102.09 119.737 102.886 119.411 103.859 119.411C104.811 119.411 105.547 119.671 106.068 120.192C106.614 120.746 106.887 121.565 106.887 122.648ZM105.173 122.737C105.173 121.455 104.697 120.814 103.745 120.814C103.338 120.814 103 120.964 102.729 121.265C102.424 121.607 102.272 122.09 102.272 122.712C102.272 124.045 102.754 124.711 103.719 124.711C104.147 124.711 104.492 124.546 104.754 124.216C105.033 123.865 105.173 123.372 105.173 122.737ZM114.066 122.439C114.066 123.552 113.761 124.441 113.152 125.105C112.521 125.786 111.66 126.127 110.568 126.127C109.705 126.127 108.903 126.023 108.163 125.816V116.51H109.826V119.291C109.826 119.773 109.792 120.194 109.724 120.554H109.737C110.088 119.792 110.738 119.411 111.686 119.411C112.451 119.411 113.042 119.676 113.457 120.205C113.863 120.729 114.066 121.474 114.066 122.439ZM112.32 122.604C112.32 121.394 111.952 120.789 111.216 120.789C110.797 120.789 110.456 121 110.194 121.423C109.948 121.821 109.826 122.301 109.826 122.864V124.686C110.058 124.766 110.348 124.807 110.695 124.807C111.779 124.807 112.32 124.072 112.32 122.604ZM120.813 122.153C120.813 122.538 120.792 122.849 120.75 123.086H116.757C116.757 124.25 117.352 124.832 118.541 124.832C119.167 124.832 119.792 124.705 120.414 124.451L120.591 125.714C119.842 125.989 119.064 126.127 118.255 126.127C116.131 126.127 115.069 125.027 115.069 122.826C115.069 121.832 115.34 121.021 115.881 120.395C116.444 119.739 117.195 119.411 118.135 119.411C119.032 119.411 119.715 119.676 120.185 120.205C120.604 120.683 120.813 121.332 120.813 122.153ZM119.163 121.982C119.188 121.081 118.816 120.63 118.046 120.63C117.293 120.63 116.867 121.081 116.77 121.982H119.163ZM124.755 126V117.228H126.444V126H124.755ZM128.247 126V116.51H129.91V126H128.247ZM131.763 126V116.51H133.426V126H131.763ZM139.158 126C139.158 125.501 139.184 125.116 139.234 124.845H139.222C138.777 125.7 138.045 126.127 137.025 126.127C135.743 126.127 135.102 125.444 135.102 124.077V119.538H136.752V123.67C136.752 124.381 137.021 124.737 137.559 124.737C137.978 124.737 138.333 124.532 138.625 124.121C138.913 123.719 139.057 123.232 139.057 122.661V119.538H140.72V126H139.158ZM146.502 123.988C146.502 124.631 146.242 125.149 145.722 125.543C145.201 125.932 144.514 126.127 143.659 126.127C143.096 126.127 142.613 126.072 142.211 125.962L142.332 124.572C142.73 124.745 143.189 124.832 143.709 124.832C144.403 124.832 144.75 124.597 144.75 124.127C144.75 123.882 144.613 123.685 144.338 123.537C144.312 123.524 144.012 123.408 143.437 123.188C142.561 122.858 142.123 122.282 142.123 121.461C142.123 120.856 142.345 120.37 142.789 120.001C143.28 119.599 143.972 119.398 144.865 119.398C145.241 119.398 145.631 119.441 146.033 119.525L145.957 120.827C145.576 120.712 145.186 120.655 144.789 120.655C144.154 120.655 143.836 120.877 143.836 121.322C143.836 121.555 143.976 121.747 144.255 121.899L145.169 122.268C146.058 122.619 146.502 123.192 146.502 123.988ZM151.46 125.949C150.978 126.068 150.51 126.127 150.057 126.127C149.346 126.127 148.855 125.979 148.584 125.683C148.318 125.386 148.185 124.86 148.185 124.102V120.827H147.067V119.538H148.185V117.551L149.835 117.107V119.538H151.409V120.827H149.835V123.658C149.835 124.072 149.892 124.354 150.006 124.502C150.116 124.65 150.315 124.724 150.603 124.724C150.891 124.724 151.138 124.694 151.346 124.635L151.46 125.949ZM156.259 121.036C155.061 120.799 154.462 121.574 154.462 123.359V126H152.799V119.538H154.374C154.374 119.949 154.333 120.382 154.253 120.839H154.278C154.676 119.794 155.362 119.318 156.335 119.411L156.259 121.036ZM160.912 126C160.912 125.556 160.933 125.192 160.975 124.908L160.962 124.896C160.611 125.716 159.924 126.127 158.899 126.127C158.328 126.127 157.873 125.951 157.535 125.6C157.213 125.262 157.052 124.824 157.052 124.286C157.052 123.537 157.391 122.97 158.068 122.585C158.711 122.217 159.617 122.033 160.785 122.033V121.798C160.785 121.4 160.698 121.114 160.524 120.941C160.347 120.759 160.048 120.668 159.629 120.668C159.012 120.668 158.36 120.816 157.674 121.112L157.401 119.836C158.138 119.544 158.952 119.398 159.845 119.398C160.806 119.398 161.489 119.597 161.896 119.995C162.264 120.351 162.448 120.909 162.448 121.671V124.337C162.448 124.972 162.465 125.526 162.499 126H160.912ZM160.785 123.125C159.363 123.125 158.652 123.45 158.652 124.102C158.652 124.318 158.722 124.496 158.861 124.635C159.005 124.783 159.196 124.857 159.433 124.857C159.822 124.857 160.148 124.694 160.41 124.369C160.66 124.06 160.785 123.702 160.785 123.296V123.125ZM167.672 125.949C167.189 126.068 166.722 126.127 166.269 126.127C165.558 126.127 165.067 125.979 164.796 125.683C164.53 125.386 164.396 124.86 164.396 124.102V120.827H163.279V119.538H164.396V117.551L166.047 117.107V119.538H167.621V120.827H166.047V123.658C166.047 124.072 166.104 124.354 166.218 124.502C166.328 124.65 166.527 124.724 166.815 124.724C167.103 124.724 167.35 124.694 167.558 124.635L167.672 125.949ZM174.769 122.648C174.769 123.66 174.46 124.493 173.842 125.149C173.22 125.801 172.428 126.127 171.468 126.127C169.449 126.127 168.44 125.044 168.44 122.877C168.44 121.866 168.745 121.036 169.354 120.389C169.972 119.737 170.767 119.411 171.741 119.411C172.693 119.411 173.429 119.671 173.95 120.192C174.496 120.746 174.769 121.565 174.769 122.648ZM173.055 122.737C173.055 121.455 172.579 120.814 171.626 120.814C171.22 120.814 170.882 120.964 170.611 121.265C170.306 121.607 170.154 122.09 170.154 122.712C170.154 124.045 170.636 124.711 171.601 124.711C172.028 124.711 172.373 124.546 172.636 124.216C172.915 123.865 173.055 123.372 173.055 122.737ZM179.44 121.036C178.243 120.799 177.644 121.574 177.644 123.359V126H175.981V119.538H177.555C177.555 119.949 177.515 120.382 177.435 120.839H177.46C177.858 119.794 178.543 119.318 179.517 119.411L179.44 121.036Z" fill="#FF0040"/>
<path d="M87.4468 144V135.228H89.1353V142.521H91.9854V144H87.4468ZM96.8857 144C96.8857 143.501 96.9111 143.116 96.9619 142.845H96.9492C96.5049 143.7 95.7728 144.127 94.7529 144.127C93.4707 144.127 92.8296 143.444 92.8296 142.077V137.538H94.48V141.67C94.48 142.381 94.7487 142.737 95.2861 142.737C95.7051 142.737 96.0605 142.532 96.3525 142.121C96.6403 141.719 96.7842 141.232 96.7842 140.661V137.538H98.4473V144H96.8857ZM108.045 144V139.918C108.045 139.174 107.789 138.801 107.277 138.801C106.892 138.801 106.553 138.994 106.261 139.379C105.948 139.789 105.792 140.299 105.792 140.909V144H104.154V139.906C104.154 139.169 103.9 138.801 103.392 138.801C102.999 138.801 102.656 139 102.364 139.398C102.059 139.813 101.907 140.316 101.907 140.909V144H100.244V137.538H101.818C101.818 137.944 101.792 138.329 101.742 138.693L101.754 138.706C102.178 137.843 102.886 137.411 103.881 137.411C104.854 137.411 105.449 137.839 105.665 138.693C106.075 137.839 106.778 137.411 107.772 137.411C109.063 137.411 109.708 138.126 109.708 139.557V144H108.045ZM113.352 135.577C113.352 135.852 113.25 136.087 113.047 136.281C112.84 136.48 112.594 136.58 112.311 136.58C112.023 136.58 111.779 136.482 111.581 136.288C111.382 136.093 111.282 135.856 111.282 135.577C111.282 135.297 111.382 135.058 111.581 134.859C111.779 134.66 112.023 134.561 112.311 134.561C112.598 134.561 112.844 134.658 113.047 134.853C113.25 135.052 113.352 135.293 113.352 135.577ZM111.479 144V137.538H113.142V144H111.479ZM118.899 144V139.868C118.899 139.157 118.631 138.801 118.093 138.801C117.679 138.801 117.325 139.007 117.033 139.417C116.741 139.823 116.595 140.31 116.595 140.877V144H114.932V137.538H116.506C116.506 137.995 116.475 138.38 116.411 138.693H116.43C116.87 137.839 117.602 137.411 118.626 137.411C119.909 137.411 120.55 138.095 120.55 139.461V144H118.899ZM125.787 144C125.787 143.556 125.808 143.192 125.85 142.908L125.837 142.896C125.486 143.716 124.799 144.127 123.774 144.127C123.203 144.127 122.748 143.951 122.41 143.6C122.088 143.262 121.927 142.824 121.927 142.286C121.927 141.537 122.266 140.97 122.943 140.585C123.586 140.217 124.492 140.033 125.66 140.033V139.798C125.66 139.4 125.573 139.114 125.399 138.941C125.222 138.759 124.923 138.668 124.504 138.668C123.887 138.668 123.235 138.816 122.549 139.112L122.276 137.836C123.013 137.544 123.827 137.398 124.72 137.398C125.681 137.398 126.364 137.597 126.771 137.995C127.139 138.351 127.323 138.909 127.323 139.671V142.337C127.323 142.972 127.34 143.526 127.374 144H125.787ZM125.66 141.125C124.238 141.125 123.527 141.45 123.527 142.102C123.527 142.318 123.597 142.496 123.736 142.635C123.88 142.783 124.071 142.857 124.308 142.857C124.697 142.857 125.023 142.694 125.285 142.369C125.535 142.06 125.66 141.702 125.66 141.296V141.125ZM132.534 139.036C131.337 138.799 130.738 139.574 130.738 141.359V144H129.075V137.538H130.649C130.649 137.949 130.609 138.382 130.528 138.839H130.554C130.951 137.794 131.637 137.318 132.61 137.411L132.534 139.036ZM141.281 144L138.564 139.163C138.192 138.435 137.932 137.864 137.784 137.449C137.843 138.342 137.873 139.732 137.873 141.62V144H136.248V135.228H138.482L141.135 139.944C141.431 140.464 141.713 141.05 141.979 141.702C141.92 140.67 141.891 139.248 141.891 137.437V135.228H143.516V144H141.281ZM150.371 140.153C150.371 140.538 150.35 140.849 150.308 141.086H146.315C146.315 142.25 146.91 142.832 148.099 142.832C148.725 142.832 149.349 142.705 149.971 142.451L150.149 143.714C149.4 143.989 148.621 144.127 147.813 144.127C145.689 144.127 144.626 143.027 144.626 140.826C144.626 139.832 144.897 139.021 145.439 138.395C146.002 137.739 146.753 137.411 147.692 137.411C148.59 137.411 149.273 137.676 149.743 138.205C150.162 138.683 150.371 139.332 150.371 140.153ZM148.721 139.982C148.746 139.081 148.374 138.63 147.604 138.63C146.85 138.63 146.425 139.081 146.328 139.982H148.721ZM157.671 140.648C157.671 141.66 157.362 142.493 156.744 143.149C156.122 143.801 155.331 144.127 154.37 144.127C152.352 144.127 151.342 143.044 151.342 140.877C151.342 139.866 151.647 139.036 152.256 138.389C152.874 137.737 153.67 137.411 154.643 137.411C155.595 137.411 156.332 137.671 156.852 138.192C157.398 138.746 157.671 139.565 157.671 140.648ZM155.957 140.737C155.957 139.455 155.481 138.814 154.529 138.814C154.123 138.814 153.784 138.964 153.513 139.265C153.208 139.607 153.056 140.09 153.056 140.712C153.056 142.045 153.539 142.711 154.503 142.711C154.931 142.711 155.276 142.546 155.538 142.216C155.817 141.865 155.957 141.372 155.957 140.737ZM166.894 144L166.297 142.204H162.971L162.355 144H160.654L163.682 135.228H165.675L168.767 144H166.894ZM164.971 138.255C164.818 137.794 164.702 137.39 164.622 137.043H164.609C164.469 137.563 164.355 137.968 164.266 138.255L163.371 140.864H165.866L164.971 138.255ZM169.687 144V135.228H171.375V144H169.687Z" fill="#FF0040"/>
<path d="M91.2524 162L90.6558 160.204H87.3296L86.7139 162H85.0127L88.0405 153.228H90.0337L93.125 162H91.2524ZM89.3291 156.255C89.1768 155.794 89.0604 155.39 88.98 155.043H88.9673C88.8276 155.563 88.7134 155.968 88.6245 156.255L87.7295 158.864H90.2241L89.3291 156.255ZM97.6763 162C97.6763 161.632 97.7017 161.272 97.7524 160.921H97.7271C97.342 161.738 96.6628 162.146 95.6895 162.146C94.9193 162.146 94.3289 161.871 93.9185 161.321C93.5291 160.796 93.3345 160.06 93.3345 159.112C93.3345 158.007 93.637 157.121 94.2422 156.452C94.86 155.767 95.6979 155.424 96.7559 155.424C97.0479 155.424 97.3208 155.441 97.5747 155.475V152.51H99.2251V162H97.6763ZM97.5747 156.839C97.2531 156.772 96.9611 156.738 96.6987 156.738C95.6154 156.738 95.0737 157.47 95.0737 158.934C95.0737 160.153 95.444 160.762 96.1846 160.762C96.6035 160.762 96.9442 160.549 97.2065 160.121C97.452 159.719 97.5747 159.228 97.5747 158.648V156.839ZM106.887 158.648C106.887 159.66 106.578 160.493 105.96 161.149C105.338 161.801 104.547 162.127 103.586 162.127C101.567 162.127 100.558 161.044 100.558 158.877C100.558 157.866 100.863 157.036 101.472 156.389C102.09 155.737 102.886 155.411 103.859 155.411C104.811 155.411 105.547 155.671 106.068 156.192C106.614 156.746 106.887 157.565 106.887 158.648ZM105.173 158.737C105.173 157.455 104.697 156.814 103.745 156.814C103.338 156.814 103 156.964 102.729 157.265C102.424 157.607 102.272 158.09 102.272 158.712C102.272 160.045 102.754 160.711 103.719 160.711C104.147 160.711 104.492 160.546 104.754 160.216C105.033 159.865 105.173 159.372 105.173 158.737ZM114.066 158.439C114.066 159.552 113.761 160.441 113.152 161.105C112.521 161.786 111.66 162.127 110.568 162.127C109.705 162.127 108.903 162.023 108.163 161.816V152.51H109.826V155.291C109.826 155.773 109.792 156.194 109.724 156.554H109.737C110.088 155.792 110.738 155.411 111.686 155.411C112.451 155.411 113.042 155.676 113.457 156.205C113.863 156.729 114.066 157.474 114.066 158.439ZM112.32 158.604C112.32 157.394 111.952 156.789 111.216 156.789C110.797 156.789 110.456 157 110.194 157.423C109.948 157.821 109.826 158.301 109.826 158.864V160.686C110.058 160.766 110.348 160.807 110.695 160.807C111.779 160.807 112.32 160.072 112.32 158.604ZM120.813 158.153C120.813 158.538 120.792 158.849 120.75 159.086H116.757C116.757 160.25 117.352 160.832 118.541 160.832C119.167 160.832 119.792 160.705 120.414 160.451L120.591 161.714C119.842 161.989 119.064 162.127 118.255 162.127C116.131 162.127 115.069 161.027 115.069 158.826C115.069 157.832 115.34 157.021 115.881 156.395C116.444 155.739 117.195 155.411 118.135 155.411C119.032 155.411 119.715 155.676 120.185 156.205C120.604 156.683 120.813 157.332 120.813 158.153ZM119.163 157.982C119.188 157.081 118.816 156.63 118.046 156.63C117.293 156.63 116.867 157.081 116.77 157.982H119.163ZM129.745 162L127.859 158.775L125.974 162H123.975L126.768 157.512L124.146 153.228H126.107L127.885 156.268L129.656 153.228H131.579L128.996 157.5L131.877 162H129.745ZM140.199 157.461C140.199 158.93 139.751 160.07 138.854 160.883C137.994 161.661 136.831 162.051 135.362 162.051C134.969 162.051 134.154 162.03 132.918 161.987V153.24C134.065 153.194 135.009 153.17 135.75 153.17C138.716 153.17 140.199 154.601 140.199 157.461ZM138.377 157.595C138.377 155.593 137.463 154.592 135.635 154.592C135.225 154.592 134.882 154.605 134.607 154.63V160.546C134.869 160.589 135.178 160.61 135.534 160.61C136.397 160.61 137.076 160.367 137.571 159.88C138.109 159.355 138.377 158.593 138.377 157.595Z" fill="#FF0040"/>
<path d="M89.4688 88.9492C88.9863 89.0677 88.5187 89.127 88.0659 89.127C87.355 89.127 86.8641 88.9788 86.5933 88.6826C86.3267 88.3864 86.1934 87.8595 86.1934 87.1021V83.8267H85.0762V82.5381H86.1934V80.5513L87.8438 80.1069V82.5381H89.418V83.8267H87.8438V86.6577C87.8438 87.0724 87.9009 87.3538 88.0151 87.502C88.1252 87.6501 88.3241 87.7241 88.6118 87.7241C88.8996 87.7241 89.1471 87.6945 89.3545 87.6353L89.4688 88.9492ZM96.5654 85.6484C96.5654 86.6598 96.2565 87.4935 95.6387 88.1494C95.0166 88.8011 94.2253 89.127 93.2646 89.127C91.2461 89.127 90.2368 88.0436 90.2368 85.877C90.2368 84.8656 90.5415 84.0361 91.1509 83.3887C91.7687 82.737 92.5643 82.4111 93.5376 82.4111C94.4897 82.4111 95.2261 82.6714 95.7466 83.1919C96.2925 83.7463 96.5654 84.5651 96.5654 85.6484ZM94.8516 85.7373C94.8516 84.4551 94.3755 83.814 93.4233 83.814C93.0171 83.814 92.6785 83.9642 92.4077 84.2646C92.103 84.6074 91.9507 85.0898 91.9507 85.7119C91.9507 87.0449 92.4331 87.7114 93.3979 87.7114C93.8254 87.7114 94.1702 87.5464 94.4326 87.2163C94.7119 86.8651 94.8516 86.3721 94.8516 85.7373ZM103.707 85.4263C103.707 86.5688 103.419 87.4596 102.843 88.0986C102.247 88.7588 101.398 89.0889 100.298 89.0889C99.9847 89.0889 99.7075 89.0719 99.4663 89.0381V92.1357H97.8032V82.5381H99.3521C99.3521 82.9782 99.3288 83.3379 99.2822 83.6172H99.314C99.7033 82.8132 100.378 82.4111 101.339 82.4111C102.101 82.4111 102.687 82.6735 103.097 83.1982C103.503 83.723 103.707 84.4657 103.707 85.4263ZM101.961 85.604C101.961 84.3853 101.593 83.7759 100.856 83.7759C100.438 83.7759 100.097 83.9896 99.8345 84.417C99.589 84.8232 99.4663 85.3162 99.4663 85.896V87.686C99.7287 87.7664 100.019 87.8066 100.336 87.8066C101.419 87.8066 101.961 87.0724 101.961 85.604ZM108.582 89C108.582 88.5557 108.603 88.1917 108.645 87.9082L108.632 87.8955C108.281 88.7165 107.593 89.127 106.569 89.127C105.998 89.127 105.543 88.9513 105.205 88.6001C104.883 88.2616 104.722 87.8236 104.722 87.2861C104.722 86.5371 105.061 85.9701 105.738 85.585C106.381 85.2168 107.287 85.0327 108.455 85.0327V84.7979C108.455 84.4001 108.368 84.1144 108.194 83.9409C108.017 83.759 107.718 83.668 107.299 83.668C106.681 83.668 106.03 83.8161 105.344 84.1123L105.071 82.8364C105.808 82.5444 106.622 82.3984 107.515 82.3984C108.476 82.3984 109.159 82.5973 109.565 82.9951C109.934 83.3506 110.118 83.9092 110.118 84.6709V87.3369C110.118 87.9717 110.135 88.526 110.168 89H108.582ZM108.455 86.1245C107.033 86.1245 106.322 86.4504 106.322 87.1021C106.322 87.3179 106.392 87.4956 106.531 87.6353C106.675 87.7834 106.866 87.8574 107.103 87.8574C107.492 87.8574 107.818 87.6945 108.08 87.3687C108.33 87.0597 108.455 86.7021 108.455 86.2959V86.1245ZM111.635 89V87.8193L114.237 84.0107C113.907 84.0277 113.448 84.0361 112.86 84.0361H111.711V82.5381H116.237V83.7251L113.691 87.4893C113.873 87.4808 114.362 87.4766 115.158 87.4766H116.288V89H111.635ZM126.133 82.8745C126.133 83.7928 125.837 84.5355 125.244 85.1025C124.614 85.6992 123.748 85.9976 122.648 85.9976C122.432 85.9976 122.229 85.9891 122.039 85.9722V89H120.35V80.2275C121.154 80.1895 121.973 80.1704 122.807 80.1704C123.877 80.1704 124.7 80.4053 125.276 80.875C125.847 81.3447 126.133 82.0112 126.133 82.8745ZM124.381 83.0459C124.381 82.0599 123.818 81.5669 122.692 81.5669C122.472 81.5669 122.254 81.5711 122.039 81.5796V84.5249C122.254 84.5715 122.493 84.5947 122.756 84.5947C123.839 84.5947 124.381 84.0785 124.381 83.0459ZM131.249 89V84.8677C131.249 84.1567 130.98 83.8013 130.443 83.8013C130.028 83.8013 129.675 84.0065 129.383 84.417C129.091 84.8275 128.945 85.3205 128.945 85.896V89H127.282V79.5103H128.945V82.2905C128.945 82.8322 128.907 83.2702 128.831 83.6045H128.856C129.275 82.8089 129.982 82.4111 130.976 82.4111C132.258 82.4111 132.899 83.0946 132.899 84.4614V89H131.249ZM140.542 85.6484C140.542 86.6598 140.233 87.4935 139.615 88.1494C138.993 88.8011 138.202 89.127 137.241 89.127C135.223 89.127 134.213 88.0436 134.213 85.877C134.213 84.8656 134.518 84.0361 135.127 83.3887C135.745 82.737 136.541 82.4111 137.514 82.4111C138.466 82.4111 139.203 82.6714 139.723 83.1919C140.269 83.7463 140.542 84.5651 140.542 85.6484ZM138.828 85.7373C138.828 84.4551 138.352 83.814 137.4 83.814C136.994 83.814 136.655 83.9642 136.384 84.2646C136.08 84.6074 135.927 85.0898 135.927 85.7119C135.927 87.0449 136.41 87.7114 137.375 87.7114C137.802 87.7114 138.147 87.5464 138.409 87.2163C138.688 86.8651 138.828 86.3721 138.828 85.7373ZM145.354 88.9492C144.871 89.0677 144.403 89.127 143.951 89.127C143.24 89.127 142.749 88.9788 142.478 88.6826C142.211 88.3864 142.078 87.8595 142.078 87.1021V83.8267H140.961V82.5381H142.078V80.5513L143.729 80.1069V82.5381H145.303V83.8267H143.729V86.6577C143.729 87.0724 143.786 87.3538 143.9 87.502C144.01 87.6501 144.209 87.7241 144.497 87.7241C144.784 87.7241 145.032 87.6945 145.239 87.6353L145.354 88.9492ZM152.45 85.6484C152.45 86.6598 152.141 87.4935 151.523 88.1494C150.901 88.8011 150.11 89.127 149.149 89.127C147.131 89.127 146.122 88.0436 146.122 85.877C146.122 84.8656 146.426 84.0361 147.036 83.3887C147.653 82.737 148.449 82.4111 149.422 82.4111C150.375 82.4111 151.111 82.6714 151.631 83.1919C152.177 83.7463 152.45 84.5651 152.45 85.6484ZM150.736 85.7373C150.736 84.4551 150.26 83.814 149.308 83.814C148.902 83.814 148.563 83.9642 148.292 84.2646C147.988 84.6074 147.835 85.0898 147.835 85.7119C147.835 87.0449 148.318 87.7114 149.283 87.7114C149.71 87.7114 150.055 87.5464 150.317 87.2163C150.597 86.8651 150.736 86.3721 150.736 85.7373ZM161.673 89L161.077 87.2036H157.75L157.135 89H155.434L158.461 80.2275H160.455L163.546 89H161.673ZM159.75 83.2554C159.598 82.7941 159.481 82.39 159.401 82.043H159.388C159.249 82.5635 159.134 82.9676 159.045 83.2554L158.15 85.8643H160.645L159.75 83.2554ZM164.466 89V80.2275H166.155V89H164.466Z" fill="#FF0040"/>
<path d="M89.2524 72L88.6558 70.2036H85.3296L84.7139 72H83.0127L86.0405 63.2275H88.0337L91.125 72H89.2524ZM87.3291 66.2554C87.1768 65.7941 87.0604 65.39 86.98 65.043H86.9673C86.8276 65.5635 86.7134 65.9676 86.6245 66.2554L85.7295 68.8643H88.2241L87.3291 66.2554ZM95.6763 72C95.6763 71.6318 95.7017 71.2721 95.7524 70.9209H95.7271C95.342 71.7376 94.6628 72.146 93.6895 72.146C92.9193 72.146 92.3289 71.8709 91.9185 71.3208C91.5291 70.7961 91.3345 70.0597 91.3345 69.1118C91.3345 68.0073 91.637 67.1208 92.2422 66.4521C92.86 65.7666 93.6979 65.4238 94.7559 65.4238C95.0479 65.4238 95.3208 65.4408 95.5747 65.4746V62.5103H97.2251V72H95.6763ZM95.5747 66.8394C95.2531 66.7716 94.9611 66.7378 94.6987 66.7378C93.6154 66.7378 93.0737 67.4699 93.0737 68.9341C93.0737 70.1528 93.444 70.7622 94.1846 70.7622C94.6035 70.7622 94.9442 70.5485 95.2065 70.1211C95.452 69.7191 95.5747 69.2282 95.5747 68.6484V66.8394ZM104.887 68.6484C104.887 69.6598 104.578 70.4935 103.96 71.1494C103.338 71.8011 102.547 72.127 101.586 72.127C99.5674 72.127 98.5581 71.0436 98.5581 68.877C98.5581 67.8656 98.8628 67.0361 99.4722 66.3887C100.09 65.737 100.886 65.4111 101.859 65.4111C102.811 65.4111 103.547 65.6714 104.068 66.1919C104.614 66.7463 104.887 67.5651 104.887 68.6484ZM103.173 68.7373C103.173 67.4551 102.697 66.814 101.745 66.814C101.338 66.814 101 66.9642 100.729 67.2646C100.424 67.6074 100.272 68.0898 100.272 68.7119C100.272 70.0449 100.754 70.7114 101.719 70.7114C102.147 70.7114 102.492 70.5464 102.754 70.2163C103.033 69.8651 103.173 69.3721 103.173 68.7373ZM112.066 68.439C112.066 69.5519 111.761 70.4406 111.152 71.105C110.521 71.7863 109.66 72.127 108.568 72.127C107.705 72.127 106.903 72.0233 106.163 71.8159V62.5103H107.826V65.2905C107.826 65.7729 107.792 66.194 107.724 66.5537H107.737C108.088 65.792 108.738 65.4111 109.686 65.4111C110.451 65.4111 111.042 65.6756 111.457 66.2046C111.863 66.7293 112.066 67.4741 112.066 68.439ZM110.32 68.604C110.32 67.3937 109.952 66.7886 109.216 66.7886C108.797 66.7886 108.456 67.0002 108.194 67.4233C107.948 67.8211 107.826 68.3014 107.826 68.8643V70.686C108.058 70.7664 108.348 70.8066 108.695 70.8066C109.779 70.8066 110.32 70.0724 110.32 68.604ZM118.813 68.1533C118.813 68.5384 118.792 68.8494 118.75 69.0864H114.757C114.757 70.2502 115.352 70.832 116.541 70.832C117.167 70.832 117.792 70.7051 118.414 70.4512L118.591 71.7144C117.842 71.9894 117.064 72.127 116.255 72.127C114.131 72.127 113.069 71.0267 113.069 68.8262C113.069 67.8317 113.34 67.0213 113.881 66.395C114.444 65.7391 115.195 65.4111 116.135 65.4111C117.032 65.4111 117.715 65.6756 118.185 66.2046C118.604 66.6828 118.813 67.3324 118.813 68.1533ZM117.163 67.9819C117.188 67.0806 116.816 66.6299 116.046 66.6299C115.293 66.6299 114.867 67.0806 114.77 67.9819H117.163ZM128.538 65.8745C128.538 66.7928 128.242 67.5355 127.649 68.1025C127.019 68.6992 126.153 68.9976 125.053 68.9976C124.837 68.9976 124.634 68.9891 124.444 68.9722V72H122.755V63.2275C123.559 63.1895 124.378 63.1704 125.212 63.1704C126.283 63.1704 127.106 63.4053 127.681 63.875C128.252 64.3447 128.538 65.0112 128.538 65.8745ZM126.786 66.0459C126.786 65.0599 126.223 64.5669 125.098 64.5669C124.878 64.5669 124.66 64.5711 124.444 64.5796V67.5249C124.66 67.5715 124.899 67.5947 125.161 67.5947C126.244 67.5947 126.786 67.0785 126.786 66.0459ZM133.654 72V67.8677C133.654 67.1567 133.386 66.8013 132.848 66.8013C132.433 66.8013 132.08 67.0065 131.788 67.417C131.496 67.8275 131.35 68.3205 131.35 68.896V72H129.687V62.5103H131.35V65.2905C131.35 65.8322 131.312 66.2702 131.236 66.6045H131.261C131.68 65.8089 132.387 65.4111 133.381 65.4111C134.664 65.4111 135.305 66.0946 135.305 67.4614V72H133.654ZM142.947 68.6484C142.947 69.6598 142.638 70.4935 142.021 71.1494C141.398 71.8011 140.607 72.127 139.646 72.127C137.628 72.127 136.619 71.0436 136.619 68.877C136.619 67.8656 136.923 67.0361 137.533 66.3887C138.151 65.737 138.946 65.4111 139.919 65.4111C140.872 65.4111 141.608 65.6714 142.128 66.1919C142.674 66.7463 142.947 67.5651 142.947 68.6484ZM141.233 68.7373C141.233 67.4551 140.757 66.814 139.805 66.814C139.399 66.814 139.06 66.9642 138.79 67.2646C138.485 67.6074 138.333 68.0898 138.333 68.7119C138.333 70.0449 138.815 70.7114 139.78 70.7114C140.207 70.7114 140.552 70.5464 140.814 70.2163C141.094 69.8651 141.233 69.3721 141.233 68.7373ZM147.759 71.9492C147.276 72.0677 146.809 72.127 146.356 72.127C145.645 72.127 145.154 71.9788 144.883 71.6826C144.617 71.3864 144.483 70.8595 144.483 70.1021V66.8267H143.366V65.5381H144.483V63.5513L146.134 63.1069V65.5381H147.708V66.8267H146.134V69.6577C146.134 70.0724 146.191 70.3538 146.305 70.502C146.415 70.6501 146.614 70.7241 146.902 70.7241C147.19 70.7241 147.437 70.6945 147.645 70.6353L147.759 71.9492ZM154.855 68.6484C154.855 69.6598 154.547 70.4935 153.929 71.1494C153.307 71.8011 152.515 72.127 151.555 72.127C149.536 72.127 148.527 71.0436 148.527 68.877C148.527 67.8656 148.832 67.0361 149.441 66.3887C150.059 65.737 150.854 65.4111 151.828 65.4111C152.78 65.4111 153.516 65.6714 154.037 66.1919C154.583 66.7463 154.855 67.5651 154.855 68.6484ZM153.142 68.7373C153.142 67.4551 152.666 66.814 151.713 66.814C151.307 66.814 150.969 66.9642 150.698 67.2646C150.393 67.6074 150.241 68.0898 150.241 68.7119C150.241 70.0449 150.723 70.7114 151.688 70.7114C152.115 70.7114 152.46 70.5464 152.723 70.2163C153.002 69.8651 153.142 69.3721 153.142 68.7373ZM160.194 69.9878C160.194 70.631 159.934 71.1494 159.413 71.543C158.893 71.9323 158.205 72.127 157.35 72.127C156.787 72.127 156.305 72.0719 155.903 71.9619L156.023 70.5718C156.421 70.7453 156.88 70.832 157.401 70.832C158.095 70.832 158.442 70.5972 158.442 70.1274C158.442 69.882 158.304 69.6852 158.029 69.5371C158.004 69.5244 157.703 69.408 157.128 69.188C156.252 68.8579 155.814 68.2824 155.814 67.4614C155.814 66.8563 156.036 66.3696 156.48 66.0015C156.971 65.5994 157.663 65.3984 158.556 65.3984C158.933 65.3984 159.322 65.4408 159.724 65.5254L159.648 66.8267C159.267 66.7124 158.878 66.6553 158.48 66.6553C157.845 66.6553 157.528 66.8774 157.528 67.3218C157.528 67.5545 157.667 67.7471 157.947 67.8994L158.861 68.2676C159.75 68.6188 160.194 69.1922 160.194 69.9878ZM165.545 72V67.8677C165.545 67.1567 165.276 66.8013 164.739 66.8013C164.324 66.8013 163.971 67.0065 163.679 67.417C163.387 67.8275 163.241 68.3205 163.241 68.896V72H161.578V62.5103H163.241V65.2905C163.241 65.8322 163.203 66.2702 163.126 66.6045H163.152C163.571 65.8089 164.278 65.4111 165.272 65.4111C166.554 65.4111 167.195 66.0946 167.195 67.4614V72H165.545ZM174.838 68.6484C174.838 69.6598 174.529 70.4935 173.911 71.1494C173.289 71.8011 172.498 72.127 171.537 72.127C169.519 72.127 168.509 71.0436 168.509 68.877C168.509 67.8656 168.814 67.0361 169.423 66.3887C170.041 65.737 170.837 65.4111 171.81 65.4111C172.762 65.4111 173.499 65.6714 174.019 66.1919C174.565 66.7463 174.838 67.5651 174.838 68.6484ZM173.124 68.7373C173.124 67.4551 172.648 66.814 171.696 66.814C171.29 66.814 170.951 66.9642 170.68 67.2646C170.375 67.6074 170.223 68.0898 170.223 68.7119C170.223 70.0449 170.706 70.7114 171.67 70.7114C172.098 70.7114 172.443 70.5464 172.705 70.2163C172.984 69.8651 173.124 69.3721 173.124 68.7373ZM181.979 68.4263C181.979 69.5688 181.691 70.4596 181.116 71.0986C180.519 71.7588 179.671 72.0889 178.57 72.0889C178.257 72.0889 177.98 72.0719 177.739 72.0381V75.1357H176.076V65.5381H177.625C177.625 65.9782 177.601 66.3379 177.555 66.6172H177.586C177.976 65.8132 178.651 65.4111 179.611 65.4111C180.373 65.4111 180.959 65.6735 181.37 66.1982C181.776 66.723 181.979 67.4657 181.979 68.4263ZM180.233 68.604C180.233 67.3853 179.865 66.7759 179.129 66.7759C178.71 66.7759 178.369 66.9896 178.107 67.417C177.861 67.8232 177.739 68.3162 177.739 68.896V70.686C178.001 70.7664 178.291 70.8066 178.608 70.8066C179.692 70.8066 180.233 70.0724 180.233 68.604Z" fill="#FF0040"/>
<path d="M238 70H191V69H238V70Z" fill="#00AEEF"/>
<path d="M238 86H191V85H238V86Z" fill="#00AEEF"/>
<path d="M238 123H191V122H238V123Z" fill="#00AEEF"/>
<path d="M238 141H191V140H238V141Z" fill="#00AEEF"/>
<path d="M238 160H191V159H238V160Z" fill="#00AEEF"/>
<path d="M238 104H191V103H238V104Z" fill="#00AEEF"/>
<defs>
<filter id="filter0_d_178_1105" x="81" y="18.7002" width="264" height="8.59961" filterUnits="userSpaceOnUse" color-interpolation-filters="sRGB">
<feFlood flood-opacity="0" result="BackgroundImageFix"/>
<feColorMatrix in="SourceAlpha" type="matrix" values="0 0 0 0 0 0 0 0 0 0 0 0 0 0 0 0 0 0 127 0" result="hardAlpha"/>
<feOffset dy="4"/>
<feGaussianBlur stdDeviation="2"/>
<feComposite in2="hardAlpha" operator="out"/>
<feColorMatrix type="matrix" values="0 0 0 0 0 0 0 0 0 0 0 0 0 0 0 0 0 0 0.25 0"/>
<feBlend mode="normal" in2="BackgroundImageFix" result="effect1_dropShadow_178_1105"/>
<feBlend mode="normal" in="SourceGraphic" in2="effect1_dropShadow_178_1105" result="shape"/>
</filter>
</defs>
</svg>
