<svg width="454" height="227" viewBox="0 0 454 227" fill="none" xmlns="http://www.w3.org/2000/svg">
<path d="M45 32L45 93" stroke="white"/>
<path d="M45 32L45 93" stroke="white"/>
<path d="M212.439 26H341.417C342.596 26 343.765 26.2324 344.854 26.6838C345.944 27.1352 346.935 27.7969 347.769 28.6311C348.603 29.4652 349.265 30.4555 349.716 31.5454C350.167 32.6352 350.4 33.8033 350.4 34.983V51.152H212.439C209.103 51.152 205.905 49.827 203.546 47.4686C201.188 45.1101 199.863 41.9114 199.863 38.576C199.863 35.2406 201.188 32.0419 203.546 29.6834C205.905 27.325 209.103 26 212.439 26Z" fill="#00AEEF"/>
<text fill="white" xml:space="preserve" style="white-space: pre" font-family="Harmattan" font-size="15" font-weight="bold" letter-spacing="0em"><tspan x="227" y="42.0872">graphic design skill</tspan></text>
<path d="M350.192 71.668C351.573 71.668 352.692 70.9964 352.692 70.168C352.692 69.3395 351.573 68.668 350.192 68.668C348.811 68.668 347.692 69.3395 347.692 70.168C347.692 70.9964 348.811 71.668 350.192 71.668Z" fill="#231F20"/>
<path d="M350.192 103.668C351.573 103.668 352.692 102.996 352.692 102.168C352.692 101.34 351.573 100.668 350.192 100.668C348.811 100.668 347.692 101.34 347.692 102.168C347.692 102.996 348.811 103.668 350.192 103.668Z" fill="#231F20"/>
<path d="M350.192 86.668C351.573 86.668 352.692 85.9964 352.692 85.168C352.692 84.3395 351.573 83.668 350.192 83.668C348.811 83.668 347.692 84.3395 347.692 85.168C347.692 85.9964 348.811 86.668 350.192 86.668Z" fill="#231F20"/>
<path d="M350.192 123.668C351.573 123.668 352.692 122.996 352.692 122.168C352.692 121.34 351.573 120.668 350.192 120.668C348.811 120.668 347.692 121.34 347.692 122.168C347.692 122.996 348.811 123.668 350.192 123.668Z" fill="#231F20"/>
<path d="M350.192 142.668C351.573 142.668 352.692 141.996 352.692 141.168C352.692 140.34 351.573 139.668 350.192 139.668C348.811 139.668 347.692 140.34 347.692 141.168C347.692 141.996 348.811 142.668 350.192 142.668Z" fill="#231F20"/>
<path d="M350.192 160.668C351.573 160.668 352.692 159.996 352.692 159.168C352.692 158.34 351.573 157.668 350.192 157.668C348.811 157.668 347.692 158.34 347.692 159.168C347.692 159.996 348.811 160.668 350.192 160.668Z" fill="#231F20"/>
<path d="M345.692 99.668H249.692V104.668H345.692V99.668Z" fill="#949598"/>
<path d="M345.692 82.668H249.692V87.668H345.692V82.668Z" fill="#949598"/>
<path d="M345.692 119.668H249.692V124.668H345.692V119.668Z" fill="#949598"/>
<path d="M345.692 138.668H249.692V143.668H345.692V138.668Z" fill="#949598"/>
<path d="M345.692 156.668H249.692V161.668H345.692V156.668Z" fill="#949598"/>
<path d="M345.692 66.668H249.692V71.668H345.692V66.668Z" fill="#949598"/>
<path d="M328.692 99.668H249.692V104.668H328.692V99.668Z" fill="#00AEEF"/>
<path d="M328.692 82.668H249.692V87.668H328.692V82.668Z" fill="#00AEEF"/>
<path d="M337.692 82.668H249.692V87.668H337.692V82.668Z" fill="#00AEEF"/>
<path d="M311.692 119.668H249.692V124.668H311.692V119.668Z" fill="#00AEEF"/>
<path d="M327.692 138.668H249.692V143.668H327.692V138.668Z" fill="#00AEEF"/>
<path d="M327.692 156.668H249.692V161.668H327.692V156.668Z" fill="#00AEEF"/>
<path d="M326.692 66.668H249.692V71.668H326.692V66.668Z" fill="#00AEEF"/>
<path d="M326.137 98.668C327.61 98.668 329.023 99.0515 330.065 99.7341C331.107 100.417 331.692 101.343 331.692 102.308V103.025C331.692 103.503 331.549 103.977 331.27 104.419C330.991 104.861 330.582 105.262 330.066 105.601C329.55 105.939 328.938 106.208 328.263 106.391C327.589 106.574 326.866 106.668 326.137 106.668C325.552 106.668 324.974 106.593 324.435 106.446C323.895 106.299 323.405 106.085 322.992 105.814C322.579 105.543 322.252 105.222 322.029 104.868C321.806 104.515 321.691 104.136 321.692 103.753V101.58C321.692 100.808 322.16 100.067 322.994 99.5209C323.827 98.9748 324.958 98.668 326.137 98.668Z" fill="black"/>
<path d="M339.692 81.668C341.018 81.668 342.29 82.0515 343.227 82.7341C344.165 83.4167 344.692 84.3426 344.692 85.308V86.025C344.692 86.5033 344.563 86.9769 344.312 87.4189C344.061 87.8609 343.693 88.2625 343.229 88.6008C342.765 88.9391 342.213 89.2075 341.606 89.3906C340.999 89.5737 340.349 89.668 339.692 89.668C339.166 89.668 338.646 89.5925 338.16 89.446C337.675 89.2995 337.234 89.0847 336.862 88.814C336.491 88.5432 336.196 88.2219 335.995 87.8682C335.794 87.5145 335.691 87.1355 335.692 86.7528V84.5802C335.692 83.8078 336.113 83.0671 336.864 82.5209C337.614 81.9748 338.631 81.668 339.692 81.668Z" fill="black"/>
<path d="M311.137 118.668C312.61 118.668 314.023 119.051 315.065 119.734C316.107 120.417 316.692 121.343 316.692 122.308V123.025C316.692 123.503 316.549 123.977 316.27 124.419C315.991 124.861 315.582 125.262 315.066 125.601C314.55 125.939 313.938 126.208 313.263 126.391C312.589 126.574 311.866 126.668 311.137 126.668C310.552 126.668 309.974 126.593 309.435 126.446C308.895 126.299 308.405 126.085 307.992 125.814C307.579 125.543 307.252 125.222 307.029 124.868C306.806 124.515 306.691 124.136 306.692 123.753V121.58C306.692 120.808 307.16 120.067 307.994 119.521C308.827 118.975 309.958 118.668 311.137 118.668Z" fill="black"/>
<path d="M327.692 137.668C329.018 137.668 330.29 138.051 331.227 138.734C332.165 139.417 332.692 140.343 332.692 141.308V142.025C332.692 142.503 332.563 142.977 332.312 143.419C332.061 143.861 331.693 144.262 331.229 144.601C330.765 144.939 330.213 145.208 329.606 145.391C328.999 145.574 328.349 145.668 327.692 145.668C327.166 145.668 326.646 145.593 326.16 145.446C325.675 145.299 325.234 145.085 324.862 144.814C324.491 144.543 324.196 144.222 323.995 143.868C323.794 143.515 323.691 143.136 323.692 142.753V140.58C323.692 139.808 324.113 139.067 324.864 138.521C325.614 137.975 326.631 137.668 327.692 137.668Z" fill="black"/>
<path d="M327.692 155.668C329.018 155.668 330.29 156.051 331.227 156.734C332.165 157.417 332.692 158.343 332.692 159.308V160.025C332.692 160.503 332.563 160.977 332.312 161.419C332.061 161.861 331.693 162.262 331.229 162.601C330.765 162.939 330.213 163.208 329.606 163.391C328.999 163.574 328.349 163.668 327.692 163.668C327.166 163.668 326.646 163.593 326.16 163.446C325.675 163.299 325.234 163.085 324.862 162.814C324.491 162.543 324.196 162.222 323.995 161.868C323.794 161.515 323.691 161.136 323.692 160.753V158.58C323.692 157.808 324.113 157.067 324.864 156.521C325.614 155.975 326.631 155.668 327.692 155.668Z" fill="black"/>
<path d="M322.137 65.668C323.61 65.668 325.023 66.0515 326.065 66.7341C327.107 67.4167 327.692 68.3426 327.692 69.308V70.025C327.692 70.5033 327.549 70.9769 327.27 71.4189C326.991 71.8609 326.582 72.2625 326.066 72.6008C325.55 72.9391 324.938 73.2075 324.263 73.3906C323.589 73.5737 322.866 73.668 322.137 73.668C321.552 73.668 320.974 73.5925 320.435 73.446C319.895 73.2995 319.405 73.0847 318.992 72.814C318.579 72.5432 318.252 72.2219 318.029 71.8682C317.806 71.5145 317.691 71.1355 317.692 70.7528V68.5802C317.692 67.8078 318.16 67.0671 318.994 66.5209C319.827 65.9748 320.958 65.668 322.137 65.668Z" fill="black"/>
<path d="M345.692 156.668H249.692V161.668H345.692V156.668Z" fill="#949598"/>
<path d="M327.692 156.668H249.692V161.668H327.692V156.668Z" fill="#00AEEF"/>
<path d="M327.692 155.668C329.018 155.668 330.29 156.051 331.227 156.734C332.165 157.417 332.692 158.343 332.692 159.308V160.025C332.692 160.503 332.563 160.977 332.312 161.419C332.061 161.861 331.693 162.262 331.229 162.601C330.765 162.939 330.213 163.208 329.606 163.391C328.999 163.574 328.349 163.668 327.692 163.668C327.166 163.668 326.646 163.593 326.16 163.446C325.675 163.299 325.234 163.085 324.862 162.814C324.491 162.543 324.196 162.222 323.995 161.868C323.794 161.515 323.691 161.136 323.692 160.753V158.58C323.692 157.808 324.113 157.067 324.864 156.521C325.614 155.975 326.631 155.668 327.692 155.668Z" fill="black"/>
<text fill="#FF0040" xml:space="preserve" style="white-space: pre" font-family="Bahij TheSansArabic" font-size="13" font-weight="500" letter-spacing="0em"><tspan x="85" y="107.261">Adobe InDesign</tspan></text>
<text fill="#FF0040" xml:space="preserve" style="white-space: pre" font-family="Bahij TheSansArabic" font-size="13" font-weight="500" letter-spacing="0em"><tspan x="85" y="126.261">Adobe Illustrator</tspan></text>
<text fill="#FF0040" xml:space="preserve" style="white-space: pre" font-family="Bahij TheSansArabic" font-size="13" font-weight="500" letter-spacing="0em"><tspan x="84" y="144.261"> Luminar Neo AI</tspan></text>
<text fill="#FF0040" xml:space="preserve" style="white-space: pre" font-family="Bahij TheSansArabic" font-size="13" font-weight="500" letter-spacing="0em"><tspan x="85" y="162.261">Adobe XD</tspan></text>
<text fill="#FF0040" xml:space="preserve" style="white-space: pre" font-family="Bahij TheSansArabic" font-size="13" font-weight="500" letter-spacing="0em"><tspan x="85" y="89.261">topaz Photo AI</tspan></text>
<text fill="#FF0040" xml:space="preserve" style="white-space: pre" font-family="Bahij TheSansArabic" font-size="13" font-weight="500" letter-spacing="0em"><tspan x="83" y="72.261">Adobe Photoshop</tspan></text>
<path d="M238 70H191V69H238V70Z" fill="#00AEEF"/>
<path d="M238 86H191V85H238V86Z" fill="#00AEEF"/>
<path d="M238 123H191V122H238V123Z" fill="#00AEEF"/>
<path d="M238 141H191V140H238V141Z" fill="#00AEEF"/>
<path d="M238 160H191V159H238V160Z" fill="#00AEEF"/>
<path d="M238 104H191V103H238V104Z" fill="#00AEEF"/>
</svg>
