<svg width="454" height="204" viewBox="0 0 454 204" fill="none" xmlns="http://www.w3.org/2000/svg">
<path d="M61.6191 100L60.7012 97.2363H55.584L54.6367 100H52.0195L56.6777 86.5039H59.7441L64.5 100H61.6191ZM58.6602 91.1621C58.4258 90.4525 58.2467 89.8307 58.123 89.2969H58.1035C57.8887 90.0977 57.7129 90.7194 57.5762 91.1621L56.1992 95.1758H60.0371L58.6602 91.1621ZM71.502 100C71.502 99.4336 71.541 98.8802 71.6191 98.3398H71.5801C70.9876 99.5964 69.9427 100.225 68.4453 100.225C67.2604 100.225 66.3522 99.8014 65.7207 98.9551C65.1217 98.1478 64.8223 97.015 64.8223 95.5566C64.8223 93.8574 65.2878 92.4935 66.2188 91.4648C67.1693 90.4102 68.4583 89.8828 70.0859 89.8828C70.5352 89.8828 70.9551 89.9089 71.3457 89.9609V85.4004H73.8848V100H71.502ZM71.3457 92.0605C70.8509 91.9564 70.4017 91.9043 69.998 91.9043C68.3314 91.9043 67.498 93.0306 67.498 95.2832C67.498 97.1582 68.0677 98.0957 69.207 98.0957C69.8516 98.0957 70.3757 97.7669 70.7793 97.1094C71.1569 96.4909 71.3457 95.7357 71.3457 94.8438V92.0605ZM85.6719 94.8438C85.6719 96.3997 85.1966 97.6823 84.2461 98.6914C83.2891 99.694 82.0716 100.195 80.5938 100.195C77.4883 100.195 75.9355 98.5286 75.9355 95.1953C75.9355 93.6393 76.4043 92.3633 77.3418 91.3672C78.2923 90.3646 79.5163 89.8633 81.0137 89.8633C82.4785 89.8633 83.6113 90.2637 84.4121 91.0645C85.252 91.9173 85.6719 93.1771 85.6719 94.8438ZM83.0352 94.9805C83.0352 93.0078 82.3027 92.0215 80.8379 92.0215C80.2129 92.0215 79.6921 92.2526 79.2754 92.7148C78.8066 93.2422 78.5723 93.9844 78.5723 94.9414C78.5723 96.9922 79.3145 98.0176 80.7988 98.0176C81.4564 98.0176 81.987 97.7637 82.3906 97.2559C82.8203 96.7155 83.0352 95.957 83.0352 94.9805ZM96.7168 94.5215C96.7168 96.2337 96.248 97.6009 95.3105 98.623C94.3405 99.6712 93.0156 100.195 91.3359 100.195C90.0078 100.195 88.7741 100.036 87.6348 99.7168V85.4004H90.1934V89.6777C90.1934 90.4199 90.1413 91.0677 90.0371 91.6211H90.0566C90.597 90.4492 91.5964 89.8633 93.0547 89.8633C94.2331 89.8633 95.1413 90.2702 95.7793 91.084C96.4043 91.8913 96.7168 93.0371 96.7168 94.5215ZM94.0312 94.7754C94.0312 92.9134 93.4648 91.9824 92.332 91.9824C91.6875 91.9824 91.1634 92.3079 90.7598 92.959C90.3822 93.571 90.1934 94.3099 90.1934 95.1758V97.9785C90.5514 98.1022 90.9974 98.1641 91.5312 98.1641C93.1979 98.1641 94.0312 97.0345 94.0312 94.7754ZM107.098 94.082C107.098 94.6745 107.065 95.153 107 95.5176H100.857C100.857 97.3079 101.772 98.2031 103.602 98.2031C104.565 98.2031 105.525 98.0078 106.482 97.6172L106.756 99.5605C105.604 99.9837 104.406 100.195 103.162 100.195C99.8939 100.195 98.2598 98.5026 98.2598 95.1172C98.2598 93.5872 98.6764 92.3405 99.5098 91.377C100.376 90.3678 101.531 89.8633 102.977 89.8633C104.357 89.8633 105.408 90.2702 106.131 91.084C106.775 91.8197 107.098 92.819 107.098 94.082ZM104.559 93.8184C104.598 92.4316 104.025 91.7383 102.84 91.7383C101.681 91.7383 101.027 92.4316 100.877 93.8184H104.559ZM120.838 100L117.938 95.0391L115.037 100H111.961L116.258 93.0957L112.225 86.5039H115.242L117.977 91.1816L120.701 86.5039H123.66L119.686 93.0762L124.119 100H120.838ZM136.922 93.0176C136.922 95.2767 136.232 97.0312 134.852 98.2812C133.53 99.4792 131.74 100.078 129.48 100.078C128.875 100.078 127.622 100.046 125.721 99.9805V86.5234C127.485 86.4518 128.937 86.416 130.076 86.416C134.64 86.416 136.922 88.6165 136.922 93.0176ZM134.119 93.2227C134.119 90.1432 132.713 88.6035 129.9 88.6035C129.269 88.6035 128.742 88.623 128.318 88.6621V97.7637C128.722 97.8288 129.197 97.8613 129.744 97.8613C131.072 97.8613 132.117 97.487 132.879 96.7383C133.706 95.931 134.119 94.7591 134.119 93.2227Z" fill="#FF0040"/>
<path d="M55.9941 109.721V113.178H60.3594V115.316H55.9941V121H53.3965V107.504H60.6133V109.721H55.9941ZM65.3203 108.041C65.3203 108.464 65.1641 108.826 64.8516 109.125C64.5326 109.431 64.1549 109.584 63.7188 109.584C63.276 109.584 62.9017 109.434 62.5957 109.135C62.2897 108.835 62.1367 108.471 62.1367 108.041C62.1367 107.611 62.2897 107.243 62.5957 106.938C62.9017 106.632 63.276 106.479 63.7188 106.479C64.1615 106.479 64.5391 106.628 64.8516 106.928C65.1641 107.234 65.3203 107.605 65.3203 108.041ZM62.4395 121V111.059H64.998V121H62.4395ZM76.7656 122.064C76.7656 123.165 76.2676 124.089 75.2715 124.838C74.2428 125.626 72.9212 126.02 71.3066 126.02C69.972 126.02 68.9336 125.769 68.1914 125.268C67.4297 124.753 67.0488 124.018 67.0488 123.061C67.0488 121.986 67.5632 121.173 68.5918 120.619C67.9342 120.313 67.6055 119.805 67.6055 119.096C67.6055 118.256 67.9993 117.663 68.7871 117.318C67.804 116.785 67.3125 115.88 67.3125 114.604C67.3125 113.542 67.6803 112.663 68.416 111.967C69.2103 111.218 70.3008 110.844 71.6875 110.844C72.2018 110.844 72.7422 110.915 73.3086 111.059H76.6875V113.061H75.3301C75.6621 113.373 75.8281 113.793 75.8281 114.32C75.8281 115.414 75.4733 116.277 74.7637 116.908C74.015 117.572 72.9505 117.904 71.5703 117.904C71.2969 117.904 71.0365 117.875 70.7891 117.816C70.4701 117.96 70.3105 118.174 70.3105 118.461C70.3105 118.689 70.4212 118.845 70.6426 118.93C70.8574 119.008 71.2611 119.057 71.8535 119.076L73.3867 119.145C75.6393 119.223 76.7656 120.196 76.7656 122.064ZM74.2266 122.396C74.2266 121.583 73.7057 121.156 72.6641 121.117L70.4863 121.059C69.8743 121.501 69.5684 122.009 69.5684 122.582C69.5684 123.038 69.7604 123.399 70.1445 123.666C70.5286 123.926 71.043 124.057 71.6875 124.057C72.4948 124.057 73.1263 123.897 73.582 123.578C74.0117 123.279 74.2266 122.885 74.2266 122.396ZM73.3867 114.457C73.3867 113.285 72.7878 112.699 71.5898 112.699C71.0234 112.699 70.571 112.865 70.2324 113.197C69.9069 113.516 69.7441 113.93 69.7441 114.438C69.7441 115.583 70.3594 116.156 71.5898 116.156C72.7878 116.156 73.3867 115.59 73.3867 114.457ZM90.7305 121V114.721C90.7305 113.575 90.3366 113.002 89.5488 113.002C88.9564 113.002 88.4355 113.298 87.9863 113.891C87.5046 114.522 87.2637 115.307 87.2637 116.244V121H84.7441V114.701C84.7441 113.568 84.3535 113.002 83.5723 113.002C82.9668 113.002 82.4395 113.308 81.9902 113.92C81.5215 114.558 81.2871 115.333 81.2871 116.244V121H78.7285V111.059H81.1504C81.1504 111.684 81.1113 112.276 81.0332 112.836L81.0527 112.855C81.7038 111.527 82.7943 110.863 84.3242 110.863C85.8216 110.863 86.7363 111.521 87.0684 112.836C87.6999 111.521 88.7806 110.863 90.3105 110.863C92.2962 110.863 93.2891 111.964 93.2891 114.164V121H90.7305ZM101.326 121C101.326 120.316 101.359 119.757 101.424 119.32L101.404 119.301C100.864 120.564 99.806 121.195 98.2305 121.195C97.3516 121.195 96.6517 120.925 96.1309 120.385C95.6361 119.864 95.3887 119.19 95.3887 118.363C95.3887 117.211 95.9095 116.339 96.9512 115.746C97.9408 115.18 99.334 114.896 101.131 114.896V114.535C101.131 113.923 100.997 113.484 100.73 113.217C100.457 112.937 99.998 112.797 99.3535 112.797C98.403 112.797 97.4004 113.025 96.3457 113.48L95.9258 111.518C97.0586 111.068 98.3118 110.844 99.6855 110.844C101.163 110.844 102.215 111.15 102.84 111.762C103.406 112.309 103.689 113.168 103.689 114.34V118.441C103.689 119.418 103.715 120.271 103.768 121H101.326ZM101.131 116.576C98.9434 116.576 97.8496 117.077 97.8496 118.08C97.8496 118.412 97.957 118.686 98.1719 118.9C98.3932 119.128 98.6862 119.242 99.0508 119.242C99.6497 119.242 100.151 118.992 100.555 118.49C100.939 118.015 101.131 117.465 101.131 116.84V116.576Z" fill="#FF0040"/>
<path d="M217 122H148V121H217V122Z" fill="#00AEEF"/>
<path d="M217 98H148V97H217V98Z" fill="#00AEEF"/>
<path d="M127.954 45H281.319C282.721 45 284.11 45.2864 285.406 45.8428C286.702 46.3992 287.88 47.2147 288.871 48.2428C289.863 49.2709 290.65 50.4914 291.187 51.8347C291.724 53.178 292 54.6177 292 56.0716V76H127.954C123.988 76 120.184 74.367 117.38 71.4602C114.575 68.5533 113 64.6109 113 60.5C113 56.3891 114.575 52.4467 117.38 49.5398C120.184 46.633 123.988 45 127.954 45Z" fill="#00AEEF"/>
<path d="M136.381 65.1758C134.994 65.1758 133.949 64.8177 133.246 64.1016C132.549 63.3789 132.201 62.4219 132.201 61.2305V57.5C132.201 56.7773 132.195 56.1393 132.182 55.5859C132.175 55.026 132.146 54.5996 132.094 54.3066H134.291V60.8984C134.291 61.6862 134.434 62.3177 134.721 62.793C135.014 63.2682 135.567 63.5059 136.381 63.5059C137.175 63.5059 137.715 63.2682 138.002 62.793C138.288 62.3177 138.432 61.6862 138.432 60.8984V54.3066H140.629C140.583 54.5996 140.554 55.0163 140.541 55.5566C140.528 56.0905 140.521 56.7383 140.521 57.5V61.2305C140.521 62.4219 140.173 63.3789 139.477 64.1016C138.786 64.8177 137.755 65.1758 136.381 65.1758ZM142.865 65V63.5059H144.623V55.8105H142.865V54.3066H148.471V55.8105H146.713V63.5059H148.471V65H142.865ZM154.594 61.123V59.6582H159.975V61.123H154.594ZM170.385 65.1758C168.998 65.1758 167.953 64.8177 167.25 64.1016C166.553 63.3789 166.205 62.4219 166.205 61.2305V57.5C166.205 56.7773 166.199 56.1393 166.186 55.5859C166.179 55.026 166.15 54.5996 166.098 54.3066H168.295V60.8984C168.295 61.6862 168.438 62.3177 168.725 62.793C169.018 63.2682 169.571 63.5059 170.385 63.5059C171.179 63.5059 171.719 63.2682 172.006 62.793C172.292 62.3177 172.436 61.6862 172.436 60.8984V54.3066H174.633C174.587 54.5996 174.558 55.0163 174.545 55.5566C174.532 56.0905 174.525 56.7383 174.525 57.5V61.2305C174.525 62.4219 174.177 63.3789 173.48 64.1016C172.79 64.8177 171.758 65.1758 170.385 65.1758ZM183.168 65L178.227 56.875C177.921 56.3672 177.663 55.9635 177.455 55.6641C177.253 55.3646 177.077 55.1139 176.928 54.9121C176.778 54.7103 176.625 54.5085 176.469 54.3066H178.852L183.852 62.5391C184.164 63.0534 184.415 63.4538 184.604 63.7402C184.792 64.0267 184.952 64.2578 185.082 64.4336C185.219 64.6094 185.362 64.7982 185.512 65H183.168ZM176.137 65C176.293 64.7917 176.439 64.5964 176.576 64.4141C176.713 64.2318 176.872 63.9974 177.055 63.7109C177.243 63.4245 177.488 63.0241 177.787 62.5098L180.346 58.0664L181.049 60.5469L178.48 65H176.137ZM181.41 60.5469L180.717 58.0664L182.875 54.3066H185.258C185.023 54.5866 184.779 54.9056 184.525 55.2637C184.278 55.6217 183.949 56.1589 183.539 56.875L181.41 60.5469ZM194.809 65.0684C194.561 65.0684 194.249 65.0651 193.871 65.0586C193.5 65.0521 193.129 65.0423 192.758 65.0293C192.387 65.0228 192.074 65.0163 191.82 65.0098C191.573 65.0033 191.449 65 191.449 65C191.501 64.707 191.531 64.2611 191.537 63.6621C191.55 63.0632 191.557 62.3991 191.557 61.6699V57.6758C191.557 56.9596 191.55 56.2923 191.537 55.6738C191.531 55.0553 191.501 54.5996 191.449 54.3066C191.671 54.2936 191.99 54.2839 192.406 54.2773C192.829 54.2643 193.275 54.2546 193.744 54.248C194.213 54.2415 194.62 54.2383 194.965 54.2383C195.368 54.2383 195.811 54.2773 196.293 54.3555C196.781 54.4336 197.263 54.5768 197.738 54.7852C198.22 54.9935 198.66 55.2962 199.057 55.6934C199.46 56.0905 199.783 56.6048 200.023 57.2363C200.264 57.8678 200.385 58.6491 200.385 59.5801C200.385 60.6738 200.202 61.5755 199.838 62.2852C199.48 62.9948 199.014 63.5547 198.441 63.9648C197.875 64.3685 197.27 64.6549 196.625 64.8242C195.98 64.987 195.375 65.0684 194.809 65.0684ZM194.984 63.3887C195.531 63.3887 196.059 63.2682 196.566 63.0273C197.081 62.7865 197.501 62.3991 197.826 61.8652C198.158 61.3249 198.324 60.612 198.324 59.7266C198.324 58.7565 198.181 57.9915 197.895 57.4316C197.608 56.8717 197.214 56.4746 196.713 56.2402C196.218 55.9993 195.652 55.8789 195.014 55.8789C194.812 55.8789 194.571 55.8822 194.291 55.8887C194.018 55.8952 193.803 55.9049 193.646 55.918V63.3105C193.79 63.3236 193.975 63.3398 194.203 63.3594C194.438 63.3789 194.698 63.3887 194.984 63.3887ZM205.541 65.1758C204.896 65.1758 204.298 65.0326 203.744 64.7461C203.191 64.4596 202.742 64.0332 202.396 63.4668C202.058 62.9004 201.889 62.2038 201.889 61.377C201.889 60.166 202.214 59.1992 202.865 58.4766C203.523 57.7474 204.415 57.3828 205.541 57.3828C206.361 57.3828 206.993 57.5684 207.436 57.9395C207.878 58.304 208.184 58.7695 208.354 59.3359C208.529 59.9023 208.617 60.4915 208.617 61.1035C208.617 61.1751 208.617 61.276 208.617 61.4062C208.624 61.5365 208.627 61.6374 208.627 61.709H203.002V60.3906H206.762C206.762 59.8763 206.648 59.5052 206.42 59.2773C206.199 59.043 205.873 58.9258 205.443 58.9258C204.916 58.9258 204.522 59.1081 204.262 59.4727C204.008 59.8372 203.881 60.4492 203.881 61.3086C203.881 62.0833 204.037 62.6497 204.35 63.0078C204.662 63.3594 205.121 63.5352 205.727 63.5352C206.208 63.5352 206.677 63.4798 207.133 63.3691C207.595 63.2585 208.054 63.0697 208.51 62.8027L208.666 64.4531C208.139 64.7201 207.628 64.9056 207.133 65.0098C206.645 65.1204 206.114 65.1758 205.541 65.1758ZM213.197 65.1758C212.546 65.1758 211.944 65.0944 211.391 64.9316C210.844 64.7624 210.411 64.5671 210.092 64.3457L210.492 62.5488C210.857 62.8483 211.296 63.0892 211.811 63.2715C212.331 63.4473 212.807 63.5352 213.236 63.5352C213.581 63.5352 213.861 63.4701 214.076 63.3398C214.298 63.2031 214.408 63.0501 214.408 62.8809C214.408 62.666 214.294 62.4772 214.066 62.3145C213.845 62.1452 213.386 61.9857 212.689 61.8359C211.999 61.6862 211.472 61.5072 211.107 61.2988C210.743 61.0905 210.492 60.8529 210.355 60.5859C210.225 60.319 210.16 60.0326 210.16 59.7266C210.16 59.5508 210.209 59.3327 210.307 59.0723C210.404 58.8053 210.57 58.5449 210.805 58.291C211.046 58.0306 211.371 57.8158 211.781 57.6465C212.198 57.4707 212.719 57.3828 213.344 57.3828C213.943 57.3828 214.46 57.4479 214.896 57.5781C215.339 57.7018 215.701 57.832 215.98 57.9688L215.697 59.6973C215.424 59.5475 215.079 59.3945 214.662 59.2383C214.245 59.0755 213.783 58.9941 213.275 58.9941C212.846 58.9941 212.549 59.069 212.387 59.2188C212.224 59.362 212.143 59.5085 212.143 59.6582C212.143 59.8405 212.224 59.9837 212.387 60.0879C212.556 60.1855 212.963 60.2995 213.607 60.4297C214.115 60.5273 214.577 60.6641 214.994 60.8398C215.417 61.0156 215.756 61.2533 216.01 61.5527C216.264 61.8522 216.391 62.2331 216.391 62.6953C216.391 63.1641 216.247 63.5872 215.961 63.9648C215.681 64.3359 215.3 64.6322 214.818 64.8535C214.337 65.0684 213.796 65.1758 213.197 65.1758ZM218.256 65C218.256 65 218.256 64.8698 218.256 64.6094C218.256 64.3424 218.256 64.0039 218.256 63.5938C218.256 63.1836 218.256 62.7572 218.256 62.3145C218.256 61.8717 218.256 61.4746 218.256 61.123C218.256 60.4069 218.249 59.7266 218.236 59.082C218.223 58.431 218.191 57.9134 218.139 57.5293H220.307V61.5234C220.307 61.8359 220.31 62.2168 220.316 62.666C220.329 63.1087 220.346 63.5449 220.365 63.9746C220.391 64.3978 220.421 64.7396 220.453 65H218.256ZM219.281 56.1426C218.91 56.1426 218.601 56.0254 218.354 55.791C218.113 55.5501 217.992 55.2409 217.992 54.8633C217.992 54.4857 218.113 54.1764 218.354 53.9355C218.601 53.6947 218.91 53.5742 219.281 53.5742C219.652 53.5742 219.958 53.6947 220.199 53.9355C220.44 54.1764 220.561 54.4857 220.561 54.8633C220.561 55.2409 220.44 55.5501 220.199 55.791C219.958 56.0254 219.652 56.1426 219.281 56.1426ZM225.922 68.6914C225.323 68.6914 224.717 68.61 224.105 68.4473C223.5 68.291 222.995 68.0469 222.592 67.7148C222.188 67.3893 221.986 66.9727 221.986 66.4648C221.986 65.651 222.65 64.9805 223.979 64.4531C223.979 64.4531 224.063 64.4661 224.232 64.4922C224.408 64.5117 224.61 64.541 224.838 64.5801C225.066 64.6126 225.268 64.6549 225.443 64.707C225.626 64.7526 225.723 64.8014 225.736 64.8535C225.235 65.0358 224.864 65.2116 224.623 65.3809C224.382 65.5501 224.223 65.7096 224.145 65.8594C224.073 66.0156 224.037 66.1686 224.037 66.3184C224.037 66.5202 224.2 66.7188 224.525 66.9141C224.857 67.1094 225.359 67.207 226.029 67.207C226.57 67.207 227.032 67.0996 227.416 66.8848C227.8 66.6699 227.992 66.4551 227.992 66.2402C227.992 65.9798 227.826 65.7617 227.494 65.5859C227.162 65.4102 226.54 65.2702 225.629 65.166C224.652 65.0553 223.985 64.834 223.627 64.502C223.275 64.1634 223.1 63.8053 223.1 63.4277C223.1 63.2064 223.194 62.9688 223.383 62.7148C223.578 62.4544 223.852 62.2526 224.203 62.1094L225.932 62.4414C225.508 62.5456 225.212 62.6595 225.043 62.7832C224.874 62.9069 224.789 63.0241 224.789 63.1348C224.789 63.278 224.945 63.3984 225.258 63.4961C225.57 63.5872 226.195 63.6882 227.133 63.7988C228.22 63.9225 228.975 64.1927 229.398 64.6094C229.828 65.0195 230.043 65.5404 230.043 66.1719C230.043 66.5625 229.919 66.9141 229.672 67.2266C229.424 67.5391 229.096 67.8027 228.686 68.0176C228.275 68.2389 227.829 68.4049 227.348 68.5156C226.866 68.6328 226.391 68.6914 225.922 68.6914ZM225.775 62.7734C225.163 62.7734 224.61 62.6595 224.115 62.4316C223.627 62.2038 223.236 61.888 222.943 61.4844C222.657 61.0807 222.514 60.6185 222.514 60.0977C222.514 59.5964 222.657 59.1406 222.943 58.7305C223.236 58.3203 223.627 57.9948 224.115 57.7539C224.61 57.5065 225.163 57.3828 225.775 57.3828C226.394 57.3828 226.947 57.5 227.436 57.7344C227.93 57.9622 228.321 58.2747 228.607 58.6719C228.894 59.069 229.037 59.5182 229.037 60.0195C229.037 60.5469 228.894 61.0189 228.607 61.4355C228.321 61.8522 227.93 62.181 227.436 62.4219C226.947 62.6562 226.394 62.7734 225.775 62.7734ZM225.775 61.3379C226.179 61.3379 226.511 61.2142 226.771 60.9668C227.032 60.7129 227.162 60.3971 227.162 60.0195C227.162 59.694 227.032 59.4108 226.771 59.1699C226.511 58.9225 226.179 58.7988 225.775 58.7988C225.372 58.7988 225.036 58.9225 224.77 59.1699C224.509 59.4108 224.379 59.694 224.379 60.0195C224.379 60.3971 224.509 60.7129 224.77 60.9668C225.036 61.2142 225.372 61.3379 225.775 61.3379ZM227.826 59.3652L227.348 58.1152C227.673 57.9069 228.054 57.7409 228.49 57.6172C228.933 57.487 229.333 57.4089 229.691 57.3828L229.623 58.9648C229.356 58.9714 229.073 59.0039 228.773 59.0625C228.48 59.1211 228.165 59.222 227.826 59.3652ZM231.469 65C231.469 65 231.469 64.8372 231.469 64.5117C231.469 64.1862 231.469 63.7793 231.469 63.291C231.469 62.7962 231.469 62.2982 231.469 61.7969C231.469 61.2891 231.469 60.8561 231.469 60.498C231.469 59.7819 231.426 59.1732 231.342 58.6719C231.264 58.1641 231.186 57.7832 231.107 57.5293H233.119C233.171 57.6725 233.227 57.8939 233.285 58.1934C233.344 58.4863 233.386 58.7174 233.412 58.8867C233.874 58.3529 234.33 57.9688 234.779 57.7344C235.235 57.5 235.72 57.3828 236.234 57.3828C236.977 57.3828 237.559 57.64 237.982 58.1543C238.406 58.6621 238.617 59.4206 238.617 60.4297C238.617 60.6706 238.617 60.9831 238.617 61.3672C238.617 61.7448 238.617 62.1419 238.617 62.5586C238.617 62.9753 238.617 63.3691 238.617 63.7402C238.617 64.1113 238.617 64.4141 238.617 64.6484C238.617 64.8828 238.617 65 238.617 65H236.566C236.566 65 236.566 64.8438 236.566 64.5312C236.566 64.2122 236.566 63.8249 236.566 63.3691C236.566 62.9069 236.566 62.4577 236.566 62.0215C236.566 61.5788 236.566 61.2305 236.566 60.9766C236.566 60.2995 236.475 59.8307 236.293 59.5703C236.111 59.3099 235.821 59.1797 235.424 59.1797C235.007 59.1797 234.617 59.349 234.252 59.6875C233.894 60.0195 233.65 60.3743 233.52 60.752V65H231.469ZM248.363 65.1758C247.595 65.1758 246.879 65.0846 246.215 64.9023C245.557 64.7201 245.027 64.4857 244.623 64.1992L244.994 62.1875C245.515 62.6042 246.059 62.9102 246.625 63.1055C247.191 63.2943 247.771 63.3887 248.363 63.3887C248.839 63.3887 249.262 63.2617 249.633 63.0078C250.01 62.7539 250.199 62.3926 250.199 61.9238C250.199 61.7155 250.137 61.5234 250.014 61.3477C249.896 61.1719 249.659 60.9928 249.301 60.8105C248.943 60.6283 248.409 60.4264 247.699 60.2051C246.938 59.9642 246.355 59.6973 245.951 59.4043C245.554 59.1113 245.281 58.7858 245.131 58.4277C244.988 58.0697 244.916 57.6725 244.916 57.2363C244.916 56.8001 245.043 56.3411 245.297 55.8594C245.557 55.3776 245.961 54.9707 246.508 54.6387C247.061 54.3001 247.777 54.1309 248.656 54.1309C249.275 54.1309 249.828 54.1829 250.316 54.2871C250.811 54.3913 251.319 54.5573 251.84 54.7852L251.508 56.7285C250.935 56.4421 250.434 56.2305 250.004 56.0938C249.574 55.957 249.099 55.8887 248.578 55.8887C248.122 55.8887 247.748 56.0156 247.455 56.2695C247.162 56.5169 247.016 56.7904 247.016 57.0898C247.016 57.2982 247.071 57.4805 247.182 57.6367C247.292 57.793 247.51 57.9492 247.836 58.1055C248.168 58.2552 248.653 58.431 249.291 58.6328C250.268 58.9323 251.013 59.3197 251.527 59.7949C252.042 60.2702 252.299 60.8952 252.299 61.6699C252.299 62.373 252.12 62.9883 251.762 63.5156C251.41 64.0365 250.935 64.4434 250.336 64.7363C249.743 65.0293 249.086 65.1758 248.363 65.1758ZM258.637 65L255.629 60.8301L257.025 60.1367L261.332 65H258.637ZM254.057 65C254.057 65 254.057 64.834 254.057 64.502C254.057 64.1634 254.057 63.724 254.057 63.1836C254.057 62.6367 254.057 62.0443 254.057 61.4062C254.057 60.7617 254.057 60.127 254.057 59.502C254.057 58.877 254.057 58.3203 254.057 57.832C254.057 57.3372 254.057 56.9694 254.057 56.7285C254.057 55.9408 254.05 55.2507 254.037 54.6582C254.031 54.0592 254.001 53.6003 253.949 53.2812H256.107V65H254.057ZM257.26 61.1328L255.648 60.8301L258.363 57.5293H261.107L257.26 61.1328ZM262.729 65C262.729 65 262.729 64.8698 262.729 64.6094C262.729 64.3424 262.729 64.0039 262.729 63.5938C262.729 63.1836 262.729 62.7572 262.729 62.3145C262.729 61.8717 262.729 61.4746 262.729 61.123C262.729 60.4069 262.722 59.7266 262.709 59.082C262.696 58.431 262.663 57.9134 262.611 57.5293H264.779V61.5234C264.779 61.8359 264.783 62.2168 264.789 62.666C264.802 63.1087 264.818 63.5449 264.838 63.9746C264.864 64.3978 264.893 64.7396 264.926 65H262.729ZM263.754 56.1426C263.383 56.1426 263.074 56.0254 262.826 55.791C262.585 55.5501 262.465 55.2409 262.465 54.8633C262.465 54.4857 262.585 54.1764 262.826 53.9355C263.074 53.6947 263.383 53.5742 263.754 53.5742C264.125 53.5742 264.431 53.6947 264.672 53.9355C264.913 54.1764 265.033 54.4857 265.033 54.8633C265.033 55.2409 264.913 55.5501 264.672 55.791C264.431 56.0254 264.125 56.1426 263.754 56.1426ZM267.416 65V56.7285C267.416 56.0124 267.403 55.3646 267.377 54.7852C267.351 54.2057 267.315 53.7044 267.27 53.2812H269.467V61.5234C269.467 61.8359 269.47 62.2168 269.477 62.666C269.49 63.1087 269.506 63.5417 269.525 63.9648C269.551 64.388 269.581 64.7331 269.613 65H267.416ZM272.104 65V56.7285C272.104 56.0124 272.09 55.3646 272.064 54.7852C272.038 54.2057 272.003 53.7044 271.957 53.2812H274.154V61.5234C274.154 61.8359 274.158 62.2168 274.164 62.666C274.177 63.1087 274.193 63.5417 274.213 63.9648C274.239 64.388 274.268 64.7331 274.301 65H272.104Z" fill="white"/>
<path d="M330.692 94.668H240.692V99.668H330.692V94.668Z" fill="#949598"/>
<path d="M330.692 118.668H240.692V123.668H330.692V118.668Z" fill="#949598"/>
<path d="M312.692 94.668H240.692V99.668H312.692V94.668Z" fill="#00AEEF"/>
<path d="M312.692 118.668H240.692V123.668H312.692V118.668Z" fill="#00AEEF"/>
<path d="M313.248 93.668C314.426 93.668 315.557 94.0515 316.39 94.7341C317.224 95.4167 317.692 96.3426 317.692 97.308V98.025C317.692 98.5033 317.578 98.9769 317.355 99.4189C317.131 99.8609 316.804 100.262 316.391 100.601C315.979 100.939 315.489 101.208 314.949 101.391C314.41 101.574 313.832 101.668 313.248 101.668C312.78 101.668 312.318 101.593 311.886 101.446C311.454 101.299 311.062 101.085 310.732 100.814C310.402 100.543 310.14 100.222 309.962 99.8682C309.783 99.5145 309.691 99.1355 309.692 98.7528V96.5802C309.692 95.8078 310.067 95.0671 310.733 94.5209C311.4 93.9748 312.305 93.668 313.248 93.668Z" fill="black"/>
<path d="M313.248 117.668C314.426 117.668 315.557 118.051 316.39 118.734C317.224 119.417 317.692 120.343 317.692 121.308V122.025C317.692 122.503 317.578 122.977 317.355 123.419C317.131 123.861 316.804 124.262 316.391 124.601C315.979 124.939 315.489 125.208 314.949 125.391C314.41 125.574 313.832 125.668 313.248 125.668C312.78 125.668 312.318 125.593 311.886 125.446C311.454 125.299 311.062 125.085 310.732 124.814C310.402 124.543 310.14 124.222 309.962 123.868C309.783 123.515 309.691 123.136 309.692 122.753V120.58C309.692 119.808 310.067 119.067 310.733 118.521C311.4 117.975 312.305 117.668 313.248 117.668Z" fill="black"/>
<path d="M334.192 98.668C335.573 98.668 336.692 97.9964 336.692 97.168C336.692 96.3395 335.573 95.668 334.192 95.668C332.811 95.668 331.692 96.3395 331.692 97.168C331.692 97.9964 332.811 98.668 334.192 98.668Z" fill="#231F20"/>
<path d="M334.192 122.668C335.573 122.668 336.692 121.996 336.692 121.168C336.692 120.34 335.573 119.668 334.192 119.668C332.811 119.668 331.692 120.34 331.692 121.168C331.692 121.996 332.811 122.668 334.192 122.668Z" fill="#231F20"/>
<path d="M379 50L379 111" stroke="white"/>
<path d="M36 50L36 111" stroke="white"/>
<rect x="2" y="-2" width="450" height="200" transform="matrix(1 0 0 -1 0 200)" stroke="#01ADED" stroke-width="4"/>
</svg>
